<svg width="880" height="640" fill="none" xmlns="http://www.w3.org/2000/svg"><path d="M91.536 270.698c11.546-109.852 109.958-189.544 219.81-177.999l7.956.837c109.852 11.546 189.545 109.958 177.999 219.81l-.837 7.956c-11.545 109.852-109.958 189.544-219.81 177.999l-7.956-.837C158.846 486.918 79.154 388.506 90.7 278.654l.836-7.956z" fill="url(#paint0_linear)"/><path d="M369.734 351.93c2.744-10.485.873-20.019-5.533-28.387-2.863-3.995-6.747-7.071-10.352-10.836.731-.128 1.271-.379 1.687-.438 26.188-2.173 37.773-36.251 26.714-54.035-4.574-7.253-10.332-12.988-17.223-17.714-4.888-3.284-9.797-6.365-15-9.58 3.877-9.545 9.59-22.899 13.887-33.528l-20.073-8.164c-4.479 10.405-9.754 23.497-13.802 32.717l-16.131-6.621c3.978-9.534 9.424-22.3 13.599-32.738l-20.164-8.275c-4.298 10.629-9.888 23.791-14.411 32.652-13.749-5.857-27.135-11.265-40.691-16.999-3.033 7.376-6.012 14.245-8.922 21.43 2.826 1.425 5.389 2.413 8.044 3.513 2.553 1.089 5.117 2.077 7.649 3.369 6.725 3.374 8.831 8.726 6.044 15.718-11.955 28.807-24.101 57.491-36.248 86.174-2.509 6.303-6.152 7.767-12.455 5.258l-.192-.123-13.375-5.51c-4.811 7.703-9.254 14.829-14.044 22.329 13.749 5.857 26.82 11.335 40.569 17.192-4.277 10.426-9.755 23.497-14.175 34.319l20.164 8.275c4.623-10.8 9.866-23.588 14.213-33.699 5.704 2.344 10.8 4.624 15.997 6.914-4.164 10.336-9.589 22.899-13.865 33.326l20.164 8.275c4.624-10.8 9.754-23.497 13.967-33.315.689.278 1.207.23 1.693.486 10.427 2.327 20.452 5.536 30.761 7.03 13.535 2.038 25.958-.966 36.04-10.987 7.787-7.698 12.8-17.329 15.464-28.028zm-65.126-112.528l10.335 4.165c8.857 3.598 17.446 7.784 24.203 14.754 6.203 6.397 7.363 13.907 3.914 21.342-3.583 7.729-10.558 11.614-19.611 10.867-8.984-.431-17.306-3.255-25.575-6.587-3.445-1.388-6.768-2.968-10.01-4.335 5.499-13.274 10.887-26.457 16.744-40.206zm2.561 118.162c-13.081.472-24.987-4.37-36.813-8.999l-.689-.278c-3.152-1.255-6.18-2.701-9.524-4.079 6.279-14.833 12.435-29.474 18.703-44.206l11.906 4.842c11.41 4.688 22.168 9.718 30.581 18.503 6.031 6.071 8.116 13.575 4.763 22.047-3.444 8.36-10.173 11.859-18.927 12.17z" fill="#fff"/><path d="M549.066 367.938c28.753-64.581 104.415-93.625 168.996-64.872s93.625 104.416 64.872 168.996c-28.753 64.581-104.416 93.625-168.996 64.872-64.581-28.753-93.625-104.416-64.872-168.996z" fill="url(#paint1_linear)"/><path d="M619.826 416.398l14.937 73.765 64.864-38.375-50.521 6.16-29.28-41.55z" fill="#fff"/><path d="M654.599 445.611l53.198-5.878-10.559-89.891-73.867 52.302 31.228 43.467z" fill="#fff"/><path d="M541.099 141.949c12.178-42.471 56.481-67.028 98.952-54.85 42.471 12.178 67.028 56.481 54.85 98.952-12.179 42.471-56.481 67.028-98.952 54.85-42.471-12.178-67.029-56.481-54.85-98.952z" fill="url(#paint2_linear)"/><path d="M646.248 196.092l-6.916 11.475-59.523-17.068 13.626-22.698-10.007.672 4.598-7.712 9.243-.626c.403-.017.771-.221.982-.648l21.912-36.48 20.794 5.963-17.477 29.341 12.823-.928-4.599 7.712-12.139.858a1.112 1.112 0 00-.982.648l-11.076 18.427 38.729 11.105.012-.041z" fill="#fff"/><defs><linearGradient id="paint0_linear" x1="518.206" y1="114.441" x2="69.794" y2="477.559" gradientUnits="userSpaceOnUse"><stop stop-color="#F7B73B"/><stop offset="1" stop-color="#F8A15D"/></linearGradient><linearGradient id="paint1_linear" x1="834.996" y1="355.128" x2="497.004" y2="484.872" gradientUnits="userSpaceOnUse"><stop stop-color="#98B1F1"/><stop offset="1" stop-color="#896ADF"/></linearGradient><linearGradient id="paint2_linear" x1="716.952" y1="109.15" x2="519.048" y2="218.85" gradientUnits="userSpaceOnUse"><stop stop-color="#7AC4F2"/><stop offset="1" stop-color="#619ABE"/><stop offset="1" stop-color="#619ABE"/></linearGradient></defs></svg>