<svg width="880" height="640" fill="none" xmlns="http://www.w3.org/2000/svg"><path opacity=".1" d="M196.309 343.78a108.076 108.076 0 0018.553 34.366c12.946 15.729 31.998 27.083 52.352 27.927 27.083 1.122 51.84-15.964 69.59-36.456 31.708-36.623 57.005-102.863 114.77-101.617 29.922.651 55.841 20.271 77.829 38.617 31.846 26.598 76.846 61.85 119.893 38.409 36.526-19.897 49.084-70.463 37.384-108.304-16.615-53.889-61.49-102.641-108.4-132.534-40.874-26.045-91.592-37.025-140.206-36.139-67.333 1.219-135.345 24.84-183.986 71.391-47.478 45.442-75.461 117.76-63.276 183.211a150.685 150.685 0 005.497 21.129zM440 566.092c148.267 0 268.461-7.017 268.461-15.674 0-8.656-120.194-15.673-268.461-15.673s-268.461 7.017-268.461 15.673c0 8.657 120.194 15.674 268.461 15.674z" fill="#648CF5"/><path d="M546.13 218.777l-4.569-6.23a4.705 4.705 0 00-1.274-4.154c-1.828-2.077-13.694-.983-15.521-.803-1.828.18-4.847 7.463-3.06 9.581 1.786 2.119 13.195 2.479 14.247 1.565l3.6 5.012 6.577-4.971z" fill="#9F5B53"/><path d="M614.86 203.312c-.36-4.985 2.769-6.924 6.757-5.22 3.988 1.703 7.435-4.154 12.752-2.77 5.317 1.385 3.683 6.688 6.425 7.99 2.741 1.301 5.829-.264 7.02 6.41 1.19 6.674-3.185 3.213-1.26 9.056 1.924 5.843 7.657 7.49 2.769 12.461s-8.211 6.923-4.375 11.077c3.835 4.154-.319 8.141-2.077 9.512-1.759 1.371 7.629 9.305 4.984 16.421-2.644 7.117-24.701 13.694-38.312 8.502-13.61-5.192-17.39-13.057-16.615-22.001.775-8.945 7.38-11.313 6.923-14.11-.457-2.796-4.805-5.247-2.34-9.359 2.465-4.113 9.305-4.473 7.117-8.405-2.188-3.932-1.911-8.308.554-10.232 2.464-1.925 4.763-1.385 4.306-5.331-.457-3.946 5.372-4.001 5.372-4.001z" fill="#263238"/><path d="M602.942 246.456s-31.251.277-37.094-6.923-20.617-24.369-20.617-24.369l-8.307 5.178s14.538 32.469 23.663 39.6c9.124 7.131 36.29 8.598 36.29 8.598l6.065-22.084z" fill="#648CF5"/><path opacity=".3" d="M602.942 246.456s-31.251.277-37.094-6.923-20.617-24.369-20.617-24.369l-8.307 5.178s14.538 32.469 23.663 39.6c9.124 7.131 36.29 8.598 36.29 8.598l6.065-22.084z" fill="#fff"/><path d="M549.605 532.944l8.308 1.468 3.406-11.326 3.102-10.385-9.568-3.35-2.783 12.489-2.465 11.104z" fill="#E4897B"/><path d="M559.783 534.191c.138-.928-11.229-2.188-11.229-2.188s-8.169 5.815-15.162 6.203c-6.992.388-3.96 5.095 3.559 6.424l18.581 3.282c5.331.941 2.797-4.195 4.251-13.721z" fill="#648CF5"/><path d="M541.187 533.387a1.062 1.062 0 01-.069-1.246 1.229 1.229 0 01.733-.65 4.68 4.68 0 012.576.166c-.831-.651-1.523-1.385-1.454-1.98 0-.388.346-.665.9-.817a1.766 1.766 0 011.468.221c1.384.9 1.896 3.683 1.91 3.808a.232.232 0 010 .138v.07a.125.125 0 01-.026.048.133.133 0 01-.043.035h-.097a17.61 17.61 0 01-4.084.664 2.36 2.36 0 01-.954-.043 2.365 2.365 0 01-.86-.414zm.872-1.384a.63.63 0 00-.388.332c-.193.416-.069.568 0 .609.444.527 2.617.277 4.403-.138-1.246-.443-3.129-1.08-4.015-.72v-.083zm1.98-2.617c-.166 0-.457.152-.471.305 0 .512 1.385 1.675 2.949 2.603a4.997 4.997 0 00-1.509-2.77 1.126 1.126 0 00-.623-.18 1.534 1.534 0 00-.346.097v-.055z" fill="#263238"/><path opacity=".2" d="M552.029 522.103l9.249 1.218 3.13-10.509-9.568-3.406-2.811 12.697z" fill="#000"/><path d="M605.031 536.503h8.433l1.384-11.742 1.246-10.772-10.01-1.634-.554 12.78-.499 11.368z" fill="#E4897B"/><path d="M615.263 535.963c0-.928-11.437-.208-11.437-.208s-7.02 7.145-13.846 8.751c-6.826 1.606-3.019 5.704 4.61 5.704h18.873c5.413 0 2.035-4.624 1.8-14.247z" fill="#648CF5"/><path d="M596.806 538.4a1.096 1.096 0 01-.277-1.205 1.227 1.227 0 01.609-.775 4.684 4.684 0 012.562-.277c-.928-.499-1.731-1.108-1.773-1.703 0-.388.236-.72.748-.956a1.743 1.743 0 011.482 0c1.55.637 2.506 3.31 2.547 3.42a.268.268 0 010 .236l-.097.083a14.548 14.548 0 01-4.735 1.384 1.506 1.506 0 01-1.066-.207zm.637-1.468a.709.709 0 00-.333.402c-.11.457 0 .567.084.609.54.443 2.63-.194 4.306-.9a7.42 7.42 0 00-4.057-.111zm1.495-2.908c-.152.07-.415.222-.415.374 0 .526 1.675 1.385 3.364 2.049a5.05 5.05 0 00-1.966-2.45 1.058 1.058 0 00-.457-.097 1.217 1.217 0 00-.526.124z" fill="#263238"/><path opacity=".2" d="M605.531 525.398l9.319-.401 1.246-10.897-10.011-1.675-.554 12.973z" fill="#000"/><path d="M551.238 515.471l13.653 2.409c13.763-34.324 23.538-62.958 30.461-86.732 3.724-12.821 6.618-24.217 8.861-34.338l-.623 37.384v84.849h13.846c33.702-160.767 9.817-197.514 9.817-197.514l-40.333-6.923a183.188 183.188 0 00-3.379 22.569l-1.814 13.348-15.729 81.428-14.76 83.52z" fill="#263238"/><path opacity=".2" d="M551.238 515.471l13.653 2.409c13.763-34.324 23.538-62.958 30.461-86.732 3.724-12.821 6.618-24.217 8.861-34.338l-.623 37.384v84.849h13.846c33.702-160.767 9.817-197.514 9.817-197.514l-40.333-6.923a183.188 183.188 0 00-3.379 22.569l-1.814 13.348-15.729 81.428-14.76 83.52z" fill="#fff"/><path d="M567.025 516.232l-16.92-5.608.222 7.187 13.998 4.472 2.7-6.051zm52.254.776l-17.64-2.576 1.467 7.048 14.566 1.966 1.607-6.438zm8.016-201.502v6.023l-41.137-3.157v-7.117l41.137 4.251z" fill="#263238"/><path d="M595.079 319.51l8.991.805.612-6.826-8.992-.806-.611 6.827z" fill="#fff"/><path d="M612.95 323.376l2.046.105.53-10.385-2.047-.104-.529 10.384z" fill="#263238"/><path opacity=".2" d="M612.95 323.376l2.046.105.53-10.385-2.047-.104-.529 10.384z" fill="#fff"/><path d="M587.797 320.623l2.047.105.529-10.385-2.046-.105-.53 10.385z" fill="#263238"/><path opacity=".2" d="M587.797 320.623l2.047.105.529-10.385-2.046-.105-.53 10.385z" fill="#fff"/><path d="M647.815 257.56a342.192 342.192 0 00-3.434 7.214 475.65 475.65 0 00-2.52 5.456l-1.385 2.935c-.332.748-.664 1.495-.969 2.215a272.916 272.916 0 00-2.935 6.923 69.411 69.411 0 00-1.385 3.697l-.609 1.634a134.154 134.154 0 00-2.423 7.034 144.554 144.554 0 00-1.606 5.538 141.277 141.277 0 00-1.676 7.172 244.717 244.717 0 00-1.107 5.65c-.167.817-.319 1.647-.471 2.492l-41.137-4.278c.139-2.313.291-4.556.457-6.744.139-1.938.277-3.821.429-5.649.222-2.603.443-5.095.665-7.49.194-1.939.388-3.808.582-5.608a403.9 403.9 0 01.858-7.463c.235-1.966.485-3.822.72-5.539.374-2.769.748-5.192 1.094-7.421.346-2.229.651-3.905.941-5.538.379-2.05.711-3.753.997-5.11 1.814-8.307 3.143-8.487 3.143-8.487s9.249.194 17.183 1.191h.208a129.155 129.155 0 0115.881 3.489c.679.18 1.385.374 2.008.581a120.82 120.82 0 0116.491 6.106z" fill="#648CF5"/><path opacity=".6" d="M647.815 257.56a342.192 342.192 0 00-3.434 7.214 475.65 475.65 0 00-2.52 5.456l-1.385 2.935c-.332.748-.664 1.495-.969 2.215a272.916 272.916 0 00-2.935 6.923 69.411 69.411 0 00-1.385 3.697l-.609 1.634a134.154 134.154 0 00-2.423 7.034 144.554 144.554 0 00-1.606 5.538 141.277 141.277 0 00-1.676 7.172 244.717 244.717 0 00-1.107 5.65c-.167.817-.319 1.647-.471 2.492l-41.137-4.278c.139-2.313.291-4.556.457-6.744.139-1.938.277-3.821.429-5.649.222-2.603.443-5.095.665-7.49.194-1.939.388-3.808.582-5.608a403.9 403.9 0 01.858-7.463c.235-1.966.485-3.822.72-5.539.374-2.769.748-5.192 1.094-7.421.346-2.229.651-3.905.941-5.538.379-2.05.711-3.753.997-5.11 1.814-8.307 3.143-8.487 3.143-8.487s9.249.194 17.183 1.191h.208a129.155 129.155 0 0115.881 3.489c.679.18 1.385.374 2.008.581a120.82 120.82 0 0116.491 6.106z" fill="#fff"/><path opacity=".2" d="M595.381 431.19c3.724-12.822 6.618-24.217 8.861-34.338a317.2 317.2 0 00-2.617-35.82s-5.898 46.19-6.244 70.158z" fill="#000"/><path d="M616.995 247.203c-4.86-.706-7.851 2.064-5.608 6.716 2.243 4.652 2.991 5.344 10.634 3.974 7.643-1.371 16.532-7.533-5.026-10.69zm24.867 23.026l-1.385 2.936c-.332.748-.664 1.495-.969 2.215-12.212-2.866-35.1-8.058-48.6-10.08.333-2.063.651-3.904.942-5.538a416.724 416.724 0 0150.012 10.467zm-5.25 12.116a69.373 69.373 0 00-1.384 3.697l-.61 1.633c-12.461-2.893-32.801-7.435-45.429-9.373.236-1.966.485-3.822.72-5.539a428.586 428.586 0 0146.703 9.582zm-4.457 12.364a146.424 146.424 0 00-1.606 5.539c-12.226-2.769-30.725-6.923-42.84-8.848.194-1.938.388-3.807.582-5.607a433.155 433.155 0 0143.864 8.916zm-3.282 12.683a244.717 244.717 0 00-1.107 5.65c-11.811-2.77-29.188-6.577-41.151-8.53.139-1.938.277-3.821.429-5.649 10.108 1.565 25.782 4.334 41.829 8.529z" fill="#648CF5"/><path opacity=".3" d="M616.995 247.203c-4.86-.706-7.851 2.064-5.608 6.716 2.243 4.652 2.991 5.344 10.634 3.974 7.643-1.371 16.532-7.533-5.026-10.69zm24.867 23.026l-1.385 2.936c-.332.747-.665 1.495-.969 2.215-12.212-2.866-35.1-8.058-48.6-10.08.333-2.063.651-3.904.942-5.538a416.724 416.724 0 0150.012 10.467zm-5.248 12.116a70.29 70.29 0 00-1.385 3.697l-.609 1.634c-12.461-2.894-32.801-7.436-45.429-9.374.236-1.966.485-3.822.72-5.539a428.586 428.586 0 0146.703 9.582zm-4.459 12.364a144.59 144.59 0 00-1.606 5.539c-12.226-2.77-30.725-6.923-42.84-8.848.194-1.938.388-3.808.582-5.608a433.434 433.434 0 0143.864 8.917zm-3.282 12.683a244.717 244.717 0 00-1.107 5.65c-11.811-2.77-29.188-6.577-41.151-8.53.139-1.938.277-3.821.429-5.649 10.108 1.565 25.782 4.334 41.829 8.529z" fill="#fff"/><path d="M615.539 256.771c10.218-.097 13.749-4.043 13.749-4.043-5.677-6.785.872-16.615.872-16.615l-12.392.831a37.247 37.247 0 01-.125 5.164c-.789 7.366-4.153 7.048-4.153 7.048-2.562 3.738 2.049 7.615 2.049 7.615z" fill="#9F5B53"/><path opacity=".2" d="M617.769 236.957a37.417 37.417 0 01-.124 5.165c8.183.969 12.461-5.995 12.461-5.995l-12.337.83z" fill="#000"/><path d="M628.473 203.935c-10.468-1.814-14.802 3.198-17.46 13.846-3.296 13.32-1.98 23.413 11.617 22.818 18.442-.886 23.233-33.701 5.843-36.664z" fill="#9F5B53"/><path d="M617.894 218.307a22.897 22.897 0 01-3.808 3.807 2.949 2.949 0 002.548 1.676l1.26-5.483z" fill="#892B29"/><path d="M624.442 218.57c-.166.858.153 1.634.72 1.758.568.125 1.177-.498 1.385-1.384.208-.886-.152-1.634-.72-1.745-.568-.111-1.218.582-1.385 1.371z" fill="#263238"/><path d="M626.008 217.31l-1.717-1.094s.623 1.745 1.717 1.094zm-12.17-1.025c-.18.845.152 1.634.72 1.745.568.111 1.177-.485 1.385-1.385.207-.9-.153-1.634-.72-1.758-.568-.125-1.219.54-1.385 1.398z" fill="#263238"/><path d="M615.402 215.011l-1.716-1.107s.623 1.772 1.716 1.107z" fill="#263238"/><path d="M625.801 211.356a5.543 5.543 0 014.264 2.382m-11.784-4.14a4.978 4.978 0 00-4.334.124" stroke="#263238" stroke-width=".725" stroke-linecap="round" stroke-linejoin="round"/><path d="M617.451 228.165c.289 1.267.483 2.554.582 3.849h.692c3.102.222 4.611-.692 5.345-1.786a4.333 4.333 0 00.609-2.88 14.545 14.545 0 01-6.176.817c-.65.042-1.052 0-1.052 0z" fill="#263238"/><path d="M618.502 228.22l.208 1.136c2.921.208 4.998 0 5.981-.872a4.154 4.154 0 000-1.08c-1.98.716-4.091.995-6.189.816z" fill="#fff"/><path d="M618.725 232.07c3.101.221 4.61-.693 5.344-1.786a9.953 9.953 0 00-3.489.429 3.695 3.695 0 00-1.855 1.357z" fill="#DE5753"/><path d="M636.85 223.499s-3.407-9.443-1.51-15.964c0 0-19.259-12.074-23.953 8.792 0 0 1.232-19.039 19.301-16.325 18.069 2.714 13.403 29.077 2.769 35.252-.027 0 5.483-5.843 3.393-11.755z" fill="#263238"/><path d="M634.744 225.41a4.669 4.669 0 015.677-3.337c3.184.928 3.572 7.851-4.777 8.044-1.205.028-1.662-1.26-.9-4.707zm17.279 69.313l-12.462-3.835s.277-2.589-1.121-3.213c-1.399-.623-19.246-2.45-19.717-.803-.471 1.648.499 11.908 3.296 13.348 2.796 1.44 15.036 1.994 15.396 1.385.36-.61 1.025-1.385 1.025-1.385l12.794 3.946.789-9.443z" fill="#9F5B53"/><path d="M647.815 257.56c9.872 4.486 31.416 43.588 28.135 52.518-3.282 8.931-30.309-5.233-30.309-5.233l2.174-13.403 6.175 1.55s-7.726-12.669-14.428-17.612a24.695 24.695 0 012.299-9.955 32.733 32.733 0 015.954-7.865z" fill="#648CF5"/><path opacity=".3" d="M647.815 257.56c9.872 4.486 31.416 43.588 28.135 52.518-3.282 8.931-30.309-5.233-30.309-5.233l2.174-13.403 6.175 1.55s-7.726-12.669-14.428-17.612a24.695 24.695 0 012.299-9.955 32.733 32.733 0 015.954-7.865z" fill="#fff"/><path d="M348.877 164.736l5.926-35.57c-3.185-3.157 4.154-21.212 4.154-23.164 0-1.953 11.16 6.383 11.354 8.169.193 1.786-2.77 14.497-6.107 16.324l-1.744 37.98s-7.062 2.991-13.583-3.739z" fill="#E4897B"/><path d="M295.35 193.19s36.844-1.606 43.919-6.729c7.076-5.123 11.963-49.071 11.963-49.071l18 1.773s-4.804 48.696-14.234 60.922c-9.429 12.226-46.536 18.083-46.536 18.083L295.35 193.19z" fill="#263238"/><path opacity=".2" d="M369.26 139.163s-4.805 48.696-14.234 60.922c-4.694 6.065-16.297 10.593-26.737 13.597a186.293 186.293 0 01-19.827 4.486l-7.145-13.638-5.954-11.34s36.845-1.606 43.92-6.729c7.075-5.123 11.963-49.071 11.963-49.071l18.014 1.773z" fill="#fff"/><path opacity=".2" d="M328.29 213.627a186.539 186.539 0 01-19.827 4.541l-7.145-13.638c7.145.623 22.209 2.672 26.972 9.097z" fill="#000"/><path d="M211.346 237.165l-19.039-30.683c1.745-4.154 4.293-18.235 3.476-20.021-.817-1.786-14.151-5.76-14.705-4.085-1.647 4.459-.775 28.523 3.06 28.939l16.131 34.49s7.601.083 11.077-8.64zm90.541 302.73l11.243 1.191 2.104-24.231-11.229-1.19-2.118 24.23zm-56.049-.817h10.883l.9-25.214h-10.897l-.886 25.214z" fill="#E4897B"/><path d="M258.228 537.818h-13.223a.94.94 0 00-.927.748l-2.146 9.692a1.607 1.607 0 001.246 1.897c.115.014.231.014.346 0 4.278-.069 7.394-.332 12.766-.332 3.309 0 13.292.346 17.861.346 4.569 0 5.165-4.514 3.296-4.929-8.391-1.828-14.705-4.362-17.391-6.771a2.62 2.62 0 00-1.828-.651z" fill="#263238"/><path d="M258.975 539.327a.262.262 0 01-.194-.221.249.249 0 01.125-.249c.388-.25 3.905-2.41 5.109-1.786a.756.756 0 01.443.72 1.476 1.476 0 01-.54 1.384 3.266 3.266 0 01-2.091.554 13.34 13.34 0 01-2.852-.402zm.748-.36c1.27.43 2.656.36 3.877-.193a1.046 1.046 0 00.346-.928c0-.208-.097-.305-.166-.305a.545.545 0 00-.333-.069 10.491 10.491 0 00-3.724 1.537v-.042z" fill="#648CF5"/><path d="M258.906 539.383a.318.318 0 01-.09-.103.32.32 0 01-.035-.132c0-.153.277-3.282 1.537-4.307a1.399 1.399 0 011.094-.332.814.814 0 01.831.679c.221 1.149-1.953 3.544-3.074 4.153h-.125a.234.234 0 01-.138.042zm1.744-4.237a6.18 6.18 0 00-1.287 3.406c1.121-.844 2.506-2.658 2.367-3.364 0-.07 0-.263-.373-.263h-.125a.922.922 0 00-.582.221z" fill="#648CF5"/><path d="M314.305 537.472h-13.223a.946.946 0 00-.598.208.945.945 0 00-.33.54l-2.146 9.692a1.607 1.607 0 001.246 1.897c.115.013.231.013.346 0 4.278-.069 7.394-.332 12.766-.332 3.309 0 13.292.346 17.861.346 4.57 0 5.165-4.514 3.296-4.929-8.391-1.828-14.705-4.362-17.391-6.771a2.617 2.617 0 00-1.827-.651z" fill="#263238"/><path d="M315.051 539.009a.262.262 0 01-.169-.365.25.25 0 01.1-.106c.388-.249 3.905-2.409 5.109-1.786a.764.764 0 01.443.72c.04.258.011.522-.083.765a1.488 1.488 0 01-.457.62 3.27 3.27 0 01-2.09.554 13.404 13.404 0 01-2.853-.402zm.748-.36c1.27.429 2.656.36 3.877-.194a1.044 1.044 0 00.346-.927c0-.208-.097-.305-.166-.305a.535.535 0 00-.332-.069 10.472 10.472 0 00-3.725 1.467v.028z" fill="#648CF5"/><path d="M314.982 539.009a.304.304 0 01-.125-.235c0-.153.277-3.282 1.537-4.307a1.384 1.384 0 011.094-.332.814.814 0 01.831.679c.221 1.149-1.952 3.544-3.074 4.153h-.125a.234.234 0 01-.138.042zm1.786-4.154a6.18 6.18 0 00-1.288 3.406c1.122-.844 2.507-2.658 2.368-3.364 0-.07 0-.263-.374-.263h-.124a.922.922 0 00-.582.221z" fill="#648CF5"/><path opacity=".2" d="M304.004 515.665l11.229 1.19-1.094 12.489-11.243-1.177 1.108-12.502zm-57.281-1.787h10.897l-.471 13.002h-10.897l.471-13.002z" fill="#000"/><path d="M251.222 292.702h57.766c5.539 29.99 22.694 136.148 10.357 230.716l-19.564-2.409s1.813-125.556-15.453-171.968c-1.98 24.84-4.347 51.231-6.397 65.34-5.026 34.615-15.784 110.256-15.784 110.256h-19.911s4.071-72.401 5.954-106.421c2.119-36.955 2.949-117.927 3.032-125.514z" fill="#648CF5"/><path d="M321.574 527.974l-24.203-3.6.748-6.702 25.172 3.309-1.717 6.993zm-57.031-3.185h-23.482v-7.02l24.369-.457-.887 7.477z" fill="#648CF5"/><path opacity=".2" d="M284.33 349.027a154.839 154.839 0 016.452 24.923c1.62-22.153-4.846-45.553-4.846-45.553l-1.606 20.63z" fill="#000"/><path d="M241.213 197.87a243.827 243.827 0 016.923 35.82 298.91 298.91 0 011.135 10.883c.402 4.486.679 8.806.9 12.904.277 5.193.36 11.326.346 17.363 0 13.846-.581 27.208-.581 27.208 11.077 2.769 43.089.927 60.576-.347a278.286 278.286 0 001.607-50.413 288.064 288.064 0 00-3.656-33.133 142.348 142.348 0 00-3.904-17.336 11.074 11.074 0 00-9.194-7.629 111.519 111.519 0 00-7.145-.678c-.997 0-1.994-.097-3.004-.111-8.26.094-16.508.667-24.702 1.717-1.55.18-3.129.415-4.652.664a142.022 142.022 0 00-14.649 3.088z" fill="#263238"/><path opacity=".7" d="M310.51 301.715c-17.488 1.274-49.5 3.116-60.577.347 0 0 .554-13.334.582-27.208 0-6.037-.069-12.171-.346-17.363a358.641 358.641 0 00-.9-12.904 300.964 300.964 0 00-1.136-10.883 110 110 0 00-.373-3.005c-.402-3.198-.887-6.383-1.385-9.554v-.083l5.386-7.754 10.703-15.424s17.806 7.2 25.2-3.074a119.64 119.64 0 0119.938 18.817c.291 1.384.568 2.963.845 4.555a287.909 287.909 0 013.669 33.134 278.313 278.313 0 01-1.606 50.399z" fill="#fff"/><path d="M269.404 216.036c9.396-.249 18.798.033 28.162.845a4.457 4.457 0 013.947 4.444 4.476 4.476 0 01-1.306 3.167 4.476 4.476 0 01-3.167 1.306h-27.512a4.474 4.474 0 01-4.472-4.237v-.817a4.449 4.449 0 011.176-3.276 4.46 4.46 0 013.172-1.432z" fill="#263238"/><path opacity=".2" d="M241.213 197.87a243.827 243.827 0 016.923 35.82 298.91 298.91 0 011.135 10.883c.402 4.486.679 8.806.9 12.904.277 5.193.36 11.326.346 17.363 0 13.846-.581 27.208-.581 27.208 11.077 2.769 43.089.927 60.576-.347a278.286 278.286 0 001.607-50.413 288.064 288.064 0 00-3.656-33.133 142.348 142.348 0 00-3.904-17.336 11.074 11.074 0 00-9.194-7.629 111.519 111.519 0 00-7.145-.678c-.997 0-1.994-.097-3.004-.111-8.26.094-16.508.667-24.702 1.717-1.55.18-3.129.415-4.652.664a142.022 142.022 0 00-14.649 3.088z" fill="#fff"/><path d="M289.991 144.244s3.42 12.005-3.739 18.748c-7.158 6.743-10.744-20.949-10.744-20.949l14.483 2.201z" fill="#263238"/><path d="M260.484 194.049c5.303 4.818 18.305 3.032 18.305 3.032s8.1-2.215 6.397-4.749c-4.777-.79-7.089-3.019-8.045-5.871a13.835 13.835 0 01-.484-5.455 28.67 28.67 0 01.401-3.047l-16.061-11.893c2.104 7.85 4.68 22.292-.513 27.983z" fill="#E4897B"/><path opacity=".2" d="M264.709 173.626c.637 9.692 8.557 12.295 12.461 12.835a13.854 13.854 0 01-.484-5.455l-11.977-7.38z" fill="#000"/><path d="M264.875 177.793a13.612 13.612 0 0016.186 3.213 15.235 15.235 0 007.671-8.1c.194-.485.374-.997.526-1.523 2.769-9.596 1.869-25.657-8.515-30.365a14.747 14.747 0 00-19.565 7.214 14.559 14.559 0 00-1.384 6.715c.207 10.786-.153 17.142 5.081 22.846z" fill="#E4897B"/><path d="M276.049 158.616c-.097.873.402 1.607.983 1.62.582.014 1.066-.678 1.108-1.55.041-.873-.415-1.607-.983-1.62-.568-.014-1.066.664-1.108 1.55zm9.928.388c-.097.873.402 1.606.969 1.634.568.028 1.066-.678 1.108-1.551.041-.872-.415-1.606-.983-1.634-.568-.027-1.066.79-1.094 1.551z" fill="#263238"/><path d="M282.805 159.323a31.036 31.036 0 003.891 7.67 5.124 5.124 0 01-4.251.61l.36-8.28z" fill="#DE5753"/><path d="M273.101 155.28a.508.508 0 00.512-.18 4.152 4.152 0 013.364-1.593.505.505 0 00.38-.11.522.522 0 00.188-.347.525.525 0 00-.457-.567 5.124 5.124 0 00-4.264 1.966.511.511 0 000 .72.826.826 0 00.277.111zm17.264.484a.469.469 0 00.305 0 .49.49 0 00.28-.273.502.502 0 00-.003-.391 5.11 5.11 0 00-3.586-3.047.538.538 0 00-.595.43.522.522 0 00.429.581 4.161 4.161 0 012.769 2.465.517.517 0 00.401.235zm-17.044-19.924c-1.288 0-2.575 0-3.863.097a19.064 19.064 0 00-10.357 3.53c-6.785 5.303-4.071 16.283-2.188 23.386 2.507 9.443 6.923 13.306 6.923 13.306-2.88-4.278-3.35-13.292-1.896-13.721 1.453-.429 1.564 1.315 1.564 1.315 3.046-2.506 5.262-8.723 3.697-12.696-1.191-3.06 2.035-5.857 5.206-4.75l.956.319 1.481.471-1.523-11.257z" fill="#263238"/><path d="M254.767 163.601a10.245 10.245 0 005.663 5.414c3.365 1.274 5.372-1.648 4.722-4.999-.61-2.976-3.074-7.31-6.591-7.13-3.517.18-5.109 3.641-3.794 6.715z" fill="#E4897B"/><path d="M280.935 169.749a26.402 26.402 0 00-1.786 3.447c-.235 0-.457-.097-.678-.166-3.005-.789-4.154-2.146-4.486-3.406a4.135 4.135 0 010-1.897c.067-.358.189-.703.36-1.024a14.612 14.612 0 005.538 2.769c.651.18 1.052.277 1.052.277z" fill="#263238"/><path d="M279.913 169.458l-.554 1.011c-2.769-.748-4.722-1.648-5.386-2.77a3.59 3.59 0 01.36-1.024 14.608 14.608 0 005.58 2.783z" fill="#fff"/><path d="M278.47 173.03c-3.004-.789-4.153-2.146-4.486-3.406a9.998 9.998 0 013.171 1.537 3.627 3.627 0 011.315 1.869z" fill="#DE5753"/><path d="M255.182 155.252s-1.703-6.591-1.385-10.385c.319-3.793 8.433-12.018 17.28-12.807 8.848-.789 11.077 0 13.846 2.991 2.77 2.99 4.736 10.979 4.736 10.979s-17.349-4.098-34.477 9.222z" fill="#648CF5"/><path d="M255.182 155.252s16.213-17.778 32.413-19.163c16.2-1.385 18.512 3.434 3.102 12.461 0 0-9.54-7.947-35.515 6.702z" fill="#648CF5"/><path opacity=".2" d="M255.182 155.252s16.213-17.778 32.413-19.163c16.2-1.385 18.512 3.434 3.102 12.461 0 0-9.54-7.947-35.515 6.702zm-7.422 75.447c-.402-3.198-.887-6.383-1.385-9.554v-.083c.471-.789 4.334-7.255 4.722-11.88a28.05 28.05 0 01.664 4.154c.415 4.445.222 11.562-4.001 17.363z" fill="#000"/><path d="M247.067 225.701c-2.617 9.332-18.221 29.284-30.627 30.987-22.389 3.074-32.788-36.484-32.788-36.484l15.522-10.482s7.823 17.682 11.866 20.395c4.998 3.365 21.461-25.573 30.17-32.247 0 0 13.071 2.174 5.857 27.831z" fill="#263238"/><path opacity=".2" d="M247.067 225.701c-2.617 9.332-18.221 29.284-30.627 30.987-22.389 3.074-32.788-36.484-32.788-36.484l15.522-10.482s7.823 17.682 11.866 20.395c4.998 3.365 21.461-25.573 30.17-32.247 0 0 13.071 2.174 5.857 27.831z" fill="#fff"/><path d="M471.443 212.242l9.596-6.674a30.59 30.59 0 013.835-5.538c1.911-1.994 7.934-5.123 9.581-4.929 1.648.194 9.236 5.663 6.259 8.543-2.977 2.88-10.246 6.507-11.465 6.064l-1.218-.443-12.032 9.693-4.556-6.716z" fill="#EEC1BB"/><path d="M484.873 213.918s-26.46 23.247-36.568 28.301c-4.956 2.492-16.615 6.507-27.082 9.914-10.8 3.503-20.423 6.383-20.423 6.383l-1.676-3.116-9.567-17.792s49.984-6.923 54.373-8.764c4.389-1.842 34.352-23.303 34.352-23.303l6.591 8.377z" fill="#263238"/><path opacity=".2" d="M421.264 252.133c-10.8 3.503-20.423 6.383-20.423 6.383l-1.675-3.116v-8.197s15.3.485 22.098 4.93z" fill="#000"/><path d="M326.074 332.426l-6.591 9.692a31.74 31.74 0 01-1.634 6.508c-1.093 2.547-5.607 7.601-7.213 8.003-1.607.401-10.662-2.022-8.89-5.76 1.773-3.739 7.27-9.692 8.571-9.692h1.288l7.823-13.307 6.646 4.556z" fill="#EEC1BB"/><path d="M372.278 184.01c7.422-.097 22.583 12.96 22.583 12.96s4.486 19.384 8.682 23.358l-3.212 1.385-2.687-4.071 1.523 5.885s-13.416 5.995-24.479 6.577c-11.063.581-16.172-1.648-16.172-1.648l1.107-4.929-2.146 4.237-4.541-1.925a144.467 144.467 0 004.541-22.735c1.039-10.814 14.801-19.094 14.801-19.094z" fill="#263238"/><path d="M389.266 485.632c-8.376 10.523-15.895 20.063-22.458 27.028-6.549 7.048-9.927 11.423-9.927 11.423l-6.494-3.725s5.995-9.484 14.123-22.569a3209.425 3209.425 0 0023.067-37.481c9.956-16.394 18.582-31.098 20.866-36.36 1.62-3.738-2.769-18.097-7.643-31.638-4.943-13.777-10.37-26.737-10.37-26.737l17.723-29.963s7.199 19.953 13.596 40.999c4.154 13.846 8.045 28.038 9.333 37.509 1.786 13.222-21.046 45.373-41.816 71.514z" fill="#EEC1BB"/><path opacity=".2" d="M389.322 485.632c-8.308 10.523-16.408 20.063-22.389 27.028a207.62 207.62 0 01-2.41-14.871 3222.602 3222.602 0 0023.068-37.481c-.167 8.476.412 16.95 1.731 25.324zm32.4-109.023L400.8 392.31c-4.943-13.777-10.37-26.737-10.37-26.737l17.723-29.963s7.172 19.953 13.569 40.999z" fill="#000"/><path d="M385.181 539.383l-7.49 1.011s-10.828-53.266-10.496-97.227a375.413 375.413 0 01-9.387-44.238c-2.659-18-3.96-38.049-.457-53.003l26.238 11.811.54 39.35.443 32.801.609 109.495z" fill="#EEC1BB"/><path opacity=".2" d="M384.076 397.059l-26.308 1.842c-2.658-18-3.959-38.049-.456-53.003l26.238 11.811.526 39.35z" fill="#000"/><path d="M350.818 516.218c.775-.567 7.311 9.222 7.311 9.222s-1.454 10.204 1.495 16.781c2.949 6.577-2.769 6.009-7.546-.221l-11.769-15.452c-3.379-4.39 2.506-4.5 10.509-10.33z" fill="#263238"/><path d="M360.344 532.82c-1.482-.346-2.451-4.569-2.631-5.414v-.305h.097c.138 0 2.907-.913 4.389 0a1.81 1.81 0 01.886 1.233c.125.581 0 .983-.305 1.204-.304.222-1.523.07-2.506-.387a4.83 4.83 0 011.385 2.27 1.228 1.228 0 01-.249.983 1.249 1.249 0 01-.956.554l-.11-.138zm.138-.596s.249 0 .54-.318a.647.647 0 00.125-.512c-.125-.97-1.593-2.396-2.617-3.254.457 1.814 1.26 3.946 1.952 4.084zm-1.703-4.763c1.578.983 3.323 1.759 3.766 1.385.125-.083.083-.388 0-.568a1.201 1.201 0 00-.595-.817 2.915 2.915 0 00-1.385-.304 8.323 8.323 0 00-1.786.304z" fill="#648CF5"/><path d="M374.924 535.561c0-.955 11.755-.207 11.755-.207s7.227 7.338 14.247 9c7.02 1.661 3.088 5.856-4.749 5.856h-19.384c-5.553 0-2.063-4.749-1.869-14.649z" fill="#263238"/><path d="M388.035 536.863a.257.257 0 01-.097-.069.289.289 0 010-.083.264.264 0 010-.097v-.125c0-.028 1.025-2.866 2.617-3.531a1.806 1.806 0 011.509 0c.54.263.803.596.776.997-.028.402-.873 1.232-1.828 1.745a4.774 4.774 0 012.631.291 1.224 1.224 0 01.637.789 1.122 1.122 0 01-.291 1.246 1.578 1.578 0 01-1.039.291 14.418 14.418 0 01-4.915-1.454zm1.066-.194c1.731.734 3.891 1.385 4.445.928 0 0 .194-.166.069-.623a.685.685 0 00-.332-.416 2.994 2.994 0 00-1.385-.249c-.942.026-1.879.147-2.797.36zm1.634-3.129a4.997 4.997 0 00-2.008 2.52c1.731-.665 3.406-1.579 3.448-2.105 0-.166-.263-.318-.429-.388a1.278 1.278 0 00-.54-.124 1.155 1.155 0 00-.471.097zm4.958-148.61l28.398-14.843c-8.917-27.11-16.961-42.493-16.961-42.493-27.886 4.777-25.339 26.819-25.339 26.819s7.103 14.677 13.902 30.517z" fill="#648CF5"/><path opacity=".2" d="M393.907 380.749c.609 1.384 1.205 2.769 1.814 4.153l28.371-14.815c-8.917-27.11-16.962-42.493-16.962-42.493-17.21 2.963-22.832 12.461-24.618 19.384a22.88 22.88 0 00-.734 7.477s5.899 12.143 12.129 26.294z" fill="#fff"/><path opacity=".2" d="M393.907 380.749c-6.23-14.151-12.129-26.308-12.129-26.308a22.882 22.882 0 01.734-7.477 8.863 8.863 0 012.908-1.232s7.587 11.894 8.487 35.017z" fill="#000"/><path d="M386.942 391.05l-.941-45.373 22.486-6.563s-1.759-20.77-4.389-31.085c0 0-36.526-9.097-42.092 3.295 0 0 0 .194-.084.264l-.083.11s-10.495 18.457-7.366 79.352h32.469z" fill="#648CF5"/><path opacity=".2" d="M386.942 391.05l-.941-45.373 22.486-6.563s-1.759-20.77-4.389-31.085c0 0-36.526-9.097-42.092 3.295 0 0 0 .194-.084.264l-.083.11s-10.495 18.457-7.366 79.352h32.469z" fill="#fff"/><path d="M361.562 305.038v6.19l41.982-3.24v-7.325l-41.982 4.375z" fill="#648CF5"/><path d="M375.805 302.41l-2.102.107.547 10.689 2.102-.107-.547-10.689z" fill="#648CF5"/><path d="M394.121 302.157l-9.254.829.628 7.006 9.254-.829-.628-7.006z" fill="#fff"/><path d="M401.643 299.584l-2.102.107.547 10.689 2.102-.107-.547-10.689z" fill="#648CF5"/><path opacity=".2" d="M375.805 302.41l-2.102.107.547 10.689 2.102-.107-.547-10.689zm25.838-2.826l-2.102.107.547 10.689 2.102-.107-.547-10.689z" fill="#fff"/><path d="M404 301.411l-42.244 3.6a175.337 175.337 0 00-2.036-19.523 177.212 177.212 0 00-4.943-20.617c-1.204-4.154-2.631-8.612-4.334-13.749a397.196 397.196 0 00-2.644-7.795 123.225 123.225 0 0117.557-4.237 134.505 134.505 0 0118.996-1.925c8.225 0 17.682.859 17.682.859s1.384.332 2.188 9.041c.775 8.169 1.536 24.549-.222 54.346z" fill="#263238"/><path d="M351.73 389.195l37.053-.333-.651 5.58-34.768-.332-1.634-4.915zm41.649-4.597l30.821-16.726 1.648 4.915-29.852 14.76-2.617-2.949z" fill="#648CF5"/><path d="M380.862 246.483c-10.426-1.384-13.569-5.801-13.569-5.801 4.265-4.002 3.489-9.942 2.409-13.638a21.37 21.37 0 00-1.287-3.407l12.558 2.34a36.092 36.092 0 00-.499 5.29 16.56 16.56 0 00.36 3.89c.859 3.753 2.991 3.794 2.991 3.794 2.174 4.126-2.963 7.532-2.963 7.532z" fill="#EEC1BB"/><path opacity=".2" d="M380.462 231.267a16.455 16.455 0 00.36 3.89c-4.985-.664-8.765-4.652-11.077-8.113a21.373 21.373 0 00-1.288-3.407l12.558 2.34a36.11 36.11 0 00-.553 5.29z" fill="#000"/><path d="M378.411 191.224c10.911.401 14.206 6.383 14.594 17.667.47 14.096-3.005 23.968-16.546 20.451-18.388-4.763-16.186-38.783 1.952-38.118z" fill="#EEC1BB"/><path d="M386 208.088a23.319 23.319 0 003.005 4.639 3 3 0 01-2.922 1.135l-.083-5.774z" fill="#D4827D"/><path d="M379.492 199.324a5.667 5.667 0 00-4.791 1.481m12.682-1.647a5.126 5.126 0 014.32 1.066" stroke="#263238" stroke-width=".708" stroke-linecap="round" stroke-linejoin="round"/><path d="M384.311 218.016a27.084 27.084 0 00-1.384 3.752l-.692-.097c-3.171-.443-4.487-1.689-4.999-2.935a4.153 4.153 0 01-.235-1.938c.03-.374.109-.741.235-1.094a14.728 14.728 0 006.037 2.146c.609.124 1.038.166 1.038.166z" fill="#263238"/><path d="M383.229 217.85l-.443 1.094c-2.991-.416-5.026-1.108-5.829-2.146.031-.374.11-.741.235-1.094a14.733 14.733 0 006.037 2.146z" fill="#fff"/><path d="M382.192 221.671c-3.171-.443-4.486-1.689-4.999-2.935 1.2.191 2.357.589 3.42 1.177a3.99 3.99 0 011.579 1.758z" fill="#DE5753"/><path d="M365.799 209.182s5.441-8.778 4.915-15.729c0 0 21.96-8.044 22.154 13.957 0 0 2.769-19.385-15.923-20.548-18.692-1.163-19.689 26.308-10.302 34.865.069 0-4.181-7.048-.844-12.545z" fill="#263238"/><path d="M367.487 211.55a4.78 4.78 0 00-4.985-4.569c-3.392.249-5.261 7.13 3.088 9.11 1.191.305 1.924-.872 1.897-4.541z" fill="#EEC1BB"/><path d="M372.279 184.01c5.899-1.634 21.642-1.855 25.366 14.428l-2.187 1.094a34.86 34.86 0 00-11.811-3.49 27.227 27.227 0 00-3.06-4.375c.12 1.382.12 2.772 0 4.154 0 0-10.274 1.495-14.871 5.677-7.213 6.563-7.643 10.716-7.643 10.716s-5.012-22.859 14.206-28.204z" fill="#263238"/><path d="M371.404 185.215s21.102-7.325 27.692 12.683" stroke="#263238" stroke-width=".488" stroke-linecap="round" stroke-linejoin="round"/><path d="M376.307 206.884s2.561-2.174 3.766.748a7.678 7.678 0 00-3.766-.748zm12.158 1.62s1.384-2.963 3.295-.873a7.22 7.22 0 00-3.295.873z" fill="#263238"/><path opacity=".3" d="M392.617 252.617h6.12a1.38 1.38 0 011.105.639 1.377 1.377 0 01.113 1.272l-2.534 5.455a1.39 1.39 0 01-1.124.731 1.394 1.394 0 01-1.216-.565l-3.6-5.441a1.387 1.387 0 011.136-2.091z" fill="#fff"/><path opacity=".2" d="M359.693 285.543a177.416 177.416 0 00-4.943-20.617l2.298-4.153a51.747 51.747 0 012.645 24.77z" fill="#000"/><path d="M347.799 243.382c-3.96 5.012-5.746 40.943-13.763 55.509-8.017 14.566-19.288 34.338-19.288 34.338l8.225 7.145s25.324-29.576 29.367-40.943c4.043-11.368 5.137-26.474 5.137-26.474 2.215-20.34-9.678-29.575-9.678-29.575z" fill="#263238"/><path opacity=".6" d="M350.818 516.218c.775-.567 7.311 9.222 7.311 9.222s-1.454 10.204 1.495 16.781c2.949 6.577-2.769 6.009-7.546-.221l-11.769-15.452c-3.379-4.39 2.506-4.5 10.509-10.33zm24.106 19.343c0-.955 11.755-.207 11.755-.207s7.227 7.338 14.247 9c7.02 1.661 3.088 5.856-4.749 5.856h-19.384c-5.553 0-2.063-4.749-1.869-14.649z" fill="#fff"/><path d="M432.993 270.022c7.117 2.866 13.14-4.265 13.417-12.752 0 0 6.494-4.154 13.846-8.668a192.71 192.71 0 0117.127-9.581 6.373 6.373 0 002.423-1.98c5.677-7.367 3.06-28.593 3.06-28.593-13.153 1.468-39.433 25.297-50.939 36.789-11.506 11.493-6.051 21.905 1.066 24.785z" fill="#648CF5"/><path opacity=".2" d="M460.256 248.602a192.336 192.336 0 0117.128-9.581 6.388 6.388 0 002.423-1.98l-9.222-8.183s-8.211 10.675-10.329 19.744z" fill="#000"/><path d="M476.305 539.895l-11.23 1.191-2.118-24.231 11.243-1.19 2.105 24.23zm56.046-.817h-10.883l-.9-25.213h10.897l.886 25.213z" fill="#EBB376"/><path d="M519.961 537.818h13.223a.94.94 0 01.928.748l2.146 9.692c.086.417.003.851-.231 1.206a1.602 1.602 0 01-1.015.691 1.336 1.336 0 01-.346 0c-4.279-.069-7.394-.332-12.767-.332-3.309 0-13.292.346-17.861.346-4.569 0-5.165-4.514-3.295-4.929 8.39-1.828 14.704-4.362 17.39-6.771a2.62 2.62 0 011.828-.651z" fill="#263238"/><path d="M516.359 539.729a3.294 3.294 0 01-2.091-.554 1.51 1.51 0 01-.54-1.385.765.765 0 01.443-.72c1.205-.623 4.722 1.537 5.11 1.787a.234.234 0 01.124.249.253.253 0 01-.063.14.254.254 0 01-.131.081c-.933.238-1.889.372-2.852.402zm-1.592-2.257a.56.56 0 00-.333.069c-.069 0-.152.097-.166.305a1.075 1.075 0 00.346.928 5.288 5.288 0 003.877.193 10.385 10.385 0 00-3.724-1.495z" fill="#648CF5"/><path d="M519.144 539.341h-.125c-1.121-.609-3.295-3.004-3.074-4.154a.849.849 0 01.831-.678 1.385 1.385 0 011.094.332c1.26 1.025 1.523 4.154 1.537 4.306a.27.27 0 01-.032.134.284.284 0 01-.093.102.236.236 0 01-.138-.042zm-2.188-4.417h-.124c-.333 0-.36.194-.374.263-.139.707 1.246 2.52 2.367 3.365a6.064 6.064 0 00-1.287-3.406.929.929 0 00-.582-.222z" fill="#648CF5"/><path d="M463.885 537.472h13.223a.94.94 0 01.927.748l2.147 9.692a1.603 1.603 0 01-1.247 1.897 1.43 1.43 0 01-.346 0c-4.278-.069-7.393-.332-12.766-.332-3.309 0-13.292.346-17.861.346-4.569 0-5.165-4.514-3.296-4.929 8.391-1.828 14.705-4.362 17.391-6.771a2.62 2.62 0 011.828-.651z" fill="#263238"/><path d="M460.283 539.383a3.292 3.292 0 01-2.091-.554 1.509 1.509 0 01-.54-1.385.765.765 0 01.443-.72c1.205-.623 4.722 1.537 5.109 1.787a.235.235 0 01.125.249.268.268 0 01-.063.14.258.258 0 01-.131.081c-.933.238-1.89.372-2.852.402zm-1.62-2.257a.556.556 0 00-.332.069c-.07 0-.153.097-.167.305a1.075 1.075 0 00.347.928 5.285 5.285 0 003.876.193 10.385 10.385 0 00-3.724-1.495z" fill="#648CF5"/><path d="M463.068 539.009h-.125c-1.121-.609-3.295-3.004-3.074-4.154a.847.847 0 01.831-.678 1.386 1.386 0 011.094.332c1.26 1.025 1.523 4.154 1.537 4.306a.294.294 0 01-.032.134.284.284 0 01-.093.102.234.234 0 01-.138-.042zm-2.188-4.417h-.111c-.332 0-.36.194-.374.263-.138.706 1.247 2.52 2.368 3.365a6.06 6.06 0 00-1.288-3.406.929.929 0 00-.595-.236v.014z" fill="#648CF5"/><path opacity=".2" d="M474.2 515.665l-11.243 1.19 1.108 12.489 11.229-1.176-1.094-12.503zm57.265-1.787h-10.897l.471 13.002h10.897l-.471-13.002z" fill="#000"/><path d="M526.965 303.778H469.2c-5.539 29.991-22.68 125.072-10.357 219.64l19.564-2.409s-1.814-114.479 15.452-160.891c1.994 24.84 4.348 40.154 6.397 54.263 5.026 34.615 15.785 110.256 15.785 110.256h19.91s-4.07-72.401-5.953-106.421c-2.063-36.955-2.95-106.85-3.033-114.438z" fill="#263238"/><path d="M456.615 527.974l24.203-3.6-.734-6.702-25.186 3.309 1.717 6.993zm57.031-3.185h23.483v-7.02l-24.369-.457.886 7.477z" fill="#648CF5"/><path opacity=".2" d="M493.859 360.104a154.812 154.812 0 00-6.452 24.923c-1.62-22.154 4.846-45.553 4.846-45.553l1.606 20.63z" fill="#000"/><path d="M536.921 213.101a243.814 243.814 0 00-6.923 35.819 299.142 299.142 0 00-1.135 10.883 363.08 363.08 0 00-.9 12.905c-.277 5.192-.36 11.326-.346 17.363 0 13.846.581 23.054.581 23.054-11.077 2.769-43.089.927-60.576-.347a234.964 234.964 0 01-1.607-46.259 288.133 288.133 0 013.67-33.134 142.333 142.333 0 013.904-17.335 11.075 11.075 0 019.194-7.629c2.118-.263 4.569-.526 7.145-.679.996 0 1.993-.097 3.004-.111 8.26.095 16.508.668 24.702 1.717 1.55.18 3.129.416 4.652.665 4.929.771 9.814 1.802 14.635 3.088z" fill="#648CF5"/><path d="M517.704 209.279c-5.303 4.819-18.291 3.032-18.291 3.032s-8.114-2.215-6.41-4.749c4.776-.789 7.089-3.018 8.044-5.87.523-1.768.688-3.623.485-5.456a28.914 28.914 0 00-.402-3.046l.983-.72 3.351-2.492 11.728-8.682a80.205 80.205 0 00-2.313 12.351 30.752 30.752 0 00.762 11.908 10.208 10.208 0 002.063 3.724z" fill="#EBB376"/><path opacity=".2" d="M530.428 245.93c.402-3.199.886-6.383 1.385-9.554v-.083c-.471-.789-4.334-7.256-4.722-11.88a28.028 28.028 0 00-.664 4.154c-.416 4.444-.222 11.561 4.001 17.363z" fill="#000"/><path d="M559.144 279.562l-18.069 36.235c-4.957.775-10.218 21.987-11.437 23.801-1.218 1.814 14.345 1.551 15.688 0s7.089-14.954 5.206-18.858l23.413-35.695s-4.458-7.297-14.801-5.483z" fill="#EBB376"/><path d="M536.923 213.101c2.395-.263 43.116 35.819 42.562 55.384-.553 19.564-6.023 20.174-6.023 20.174l-15.23-3.157s3.392-16.726-.263-20.493c-3.656-3.766-26.862-24.147-26.862-24.147s-7.933-26.238 5.816-27.761z" fill="#648CF5"/><path opacity=".6" d="M479.779 228.414s25.753 1.163 36.193 3.683c0 0-4.514 37.039-4.43 48.102 0 0-29.313-1.288-37.62-1.676 0 0 3.226-39.558 5.857-50.109z" fill="#fff"/><path d="M438.131 252.617l35.861 4.237c3.005-3.323 21.392 3.129 23.344 3.116 1.953-.014-5.856 11.45-7.629 11.727-1.772.277-14.607-2.035-16.615-5.344h-38.076s-3.323-6.91 3.115-13.736z" fill="#EBB376"/><path opacity=".2" d="M515.639 205.555c-8.377.913-12.074-7.823-13.528-13.085l3.351-2.492a100.051 100.051 0 019.415 3.669 30.752 30.752 0 00.762 11.908z" fill="#000"/><path d="M529.998 163.172s1.841 12.35-6.12 18.11c-7.962 5.76-7.962-22.153-7.962-22.153l14.082 4.043z" fill="#263238"/><path d="M500.825 193.204a13.61 13.61 0 0015.632 5.275 15.23 15.23 0 008.654-7.047c.263-.45.503-.912.72-1.385 3.918-9.166 5.164-25.2-4.528-31.209a14.755 14.755 0 00-14.36-.748 14.763 14.763 0 00-8.181 11.825c-1.191 10.703-2.396 16.947 2.063 23.289z" fill="#EBB376"/><path d="M514.381 175.633c-.208.845.18 1.634.761 1.731.582.097 1.136-.526 1.288-1.385.152-.858-.194-1.647-.761-1.744-.568-.097-1.136.526-1.288 1.398zm9.774 1.662c-.194.858.208 1.647.761 1.744.554.097 1.15-.54 1.302-1.384.152-.845-.208-1.648-.762-1.731-.553-.083-1.149.554-1.301 1.371z" fill="#263238"/><path d="M520.985 177.198a30.781 30.781 0 002.866 8.114 5.054 5.054 0 01-4.292 0l1.426-8.114z" fill="#D58745"/><path d="M511.888 171.95a.526.526 0 00.526-.124 4.155 4.155 0 013.545-1.136.512.512 0 00.609-.387.49.49 0 00-.058-.384.505.505 0 00-.316-.226 5.129 5.129 0 00-4.486 1.385.514.514 0 000 .72.77.77 0 00.18.152zm17.056 2.7c.089.051.19.075.291.069a.521.521 0 00.36-.637 5.176 5.176 0 00-3.171-3.489.5.5 0 00-.636.346.528.528 0 00.346.637 4.16 4.16 0 012.478 2.77.542.542 0 00.332.304zm-14.343-21.946c-1.273-.18-2.547-.332-3.835-.388-3.71-.347-7.44.399-10.731 2.147-7.407 4.389-6.133 15.632-5.178 22.915 1.274 9.692 5.081 14.081 5.081 14.081-2.312-4.624-1.62-13.624-.124-13.846 1.495-.221 1.384 1.496 1.384 1.496 3.351-2.077 6.356-7.962 5.317-12.116-.803-3.184 2.77-5.538 5.76-4.043l.914.443 1.385.665.027-11.354z" fill="#263238"/><path d="M492.614 177.821a10.217 10.217 0 004.915 6.106c3.171 1.703 5.539-.941 5.331-4.348-.221-3.018-2.104-7.643-5.607-7.906-3.503-.263-5.525 2.936-4.639 6.148z" fill="#EBB376"/><path d="M494.94 161.538s-1.384-10.994 11.41-12.835c12.793-1.842 23.884-4.708 23.884-4.708s-.194 6.466-2.548 8.308c0 0 4.597.207 7.339-1.62 0 0-.734 5.663-2.382 7.67l2.382-1.827a10.37 10.37 0 01-8.156 8.875c-7.546 1.717-21.641-3.863-21.641-3.863H494.94zm24.286 27.443a26.937 26.937 0 00-2.23 3.198c-.207-.083-.429-.152-.636-.249-2.88-1.163-3.836-2.658-4.016-3.96a4.028 4.028 0 01.236-1.883 3.94 3.94 0 01.484-.969 14.917 14.917 0 005.179 3.461c.595.263.983.402.983.402z" fill="#263238"/><path d="M518.243 188.579l-.678.914c-2.77-1.094-4.473-2.243-4.985-3.406.117-.344.28-.67.485-.969a14.913 14.913 0 005.178 3.461z" fill="#fff"/><path d="M516.359 191.93c-2.88-1.163-3.835-2.658-4.015-3.96a9.891 9.891 0 012.949 1.925 3.887 3.887 0 011.066 2.035z" fill="#DE5753"/></svg>