<svg width="880" height="800" fill="none" xmlns="http://www.w3.org/2000/svg"><path opacity=".1" d="M392.16 460.016c67.296-15.888 140.4 39.744 210.08 28.8 67.2-10.496 122.4-64.096 95.456-136.72-26.112-70.4-102.272-116.416-173.104-116.016-43.872.24-66.816-.432-105.696-30.272-30.096-23.008-53.632-52.08-90.384-64.528-71.408-24.192-105.152 19.008-109.712 75.792-4.928 61.472-53.328 94.256-64.496 153.296-9.456 49.936 9.776 116.704 75.504 133.536 61.392 15.712 110.288-31.6 162.352-43.888zM440 684.096c171.332 0 310.224-8.109 310.224-18.112 0-10.003-138.892-18.112-310.224-18.112s-310.224 8.109-310.224 18.112c0 10.003 138.892 18.112 310.224 18.112z" fill="#648CF5"/><path d="M304.96 228.976c.304-3.536 15.536-16.576 31.44-7.472 15.904 9.104 4.4 36.624 21.696 39.296-11.2 11.2-47.68 24.88-58.896 12.032-11.216-12.848-12.656-48.832 5.76-43.856z" fill="#263238"/><path d="M369.024 317.712c.416 5.92 1.04 12.192 1.872 18.176a115.568 115.568 0 003.584 17.44c.192.688.432 1.344.656 1.984l.608 1.696c.125.368.309.714.544 1.024.368.544 2.496 1.04 4.992.72a60.54 60.54 0 0016.432-5.296l4.064 5.968a49.11 49.11 0 01-4.048 3.2c-1.376.992-2.784 1.952-4.272 2.816a40.625 40.625 0 01-9.888 4.368 24.296 24.296 0 01-6.176.896 15.736 15.736 0 01-7.44-1.808 14.684 14.684 0 01-5.856-5.888l-.432-.848-.272-.608-.56-1.248c-.384-.816-.752-1.6-1.04-2.464a102.864 102.864 0 01-5.232-19.696 156.09 156.09 0 01-2.096-19.744l14.56-.688z" fill="#E9A472"/><path d="M361.2 301.808c12.976 9.92 12.448 28.64 12.448 28.64L350.4 336s-7.12-18.816-4.224-25.712c3.056-7.184 7.728-14.08 15.024-8.48z" fill="#648CF5"/><path d="M396.448 354.848l8.528-8.544 4.592 13.36s-7.2 3.888-14.096.208l.976-5.024zm20.336-9.856l1.568 10.544-8.784 4.112-4.592-13.344 11.808-1.312zM286.016 654.88l13.056 1.264 13.584-31.056-13.056-1.28-13.584 31.072zm-84.048-45.92l9.792 9.2 21.168-23.248-9.808-9.216-21.152 23.264z" fill="#E9A472"/><path d="M216.288 613.744l-7.36-13.264a1.075 1.075 0 00-1.328-.496l-11.344 4.32a2.168 2.168 0 00-1.208 1.293 2.173 2.173 0 00.152 1.763c2.656 4.576 4.16 6.656 7.408 12.496 1.984 3.584 5.872 11.824 8.624 16.784 2.752 4.96 7.792 2.496 7.088.192-3.2-10.368-2.544-16.128-1.6-20.704a3.487 3.487 0 00-.432-2.384zm84.512 38.368h-16a1.316 1.316 0 00-.798.273 1.318 1.318 0 00-.466.703L280 665.776a1.998 1.998 0 00-.041.919 1.983 1.983 0 001.993 1.609h36.912c5.856 0 7.088-5.92 4.656-6.4-10.864-2.4-17.12-5.712-20.48-8.88a3.327 3.327 0 00-2.24-.912z" fill="#263238"/><path opacity=".2" d="M312.64 625.104l-6.992 16h-13.616l7.552-17.28 13.056 1.28zm-89.52-39.392l9.792 9.2L222 606.896l-9.792-9.2 10.912-11.984z" fill="#000"/><path d="M357.28 299.872s5.92 2.528-13.808 80.448l-54.656-4.72c2.848-22.176 4.048-35.888-2.624-82.464a161.895 161.895 0 0123.472-1.056c8.312.129 16.605.845 24.816 2.144a233.828 233.828 0 0122.8 5.648z" fill="#648CF5"/><path d="M319.44 319.712a.222.222 0 01-.144 0c-11.824-9.728-19.2-24.736-16.832-28.272a.224.224 0 01.304-.08.241.241 0 01.08.32c-2.144 3.312 5.184 18.048 16.48 27.456 2.848-8.592 7.696-12.032 7.744-12.064a.236.236 0 01.161-.012c.054.015.1.047.132.093a.239.239 0 01-.021.303s-4.896 3.472-7.696 12.144a.222.222 0 01-.055.089.222.222 0 01-.089.055l-.064-.032zm18.912.528a.212.212 0 01-.104-.056.22.22 0 01-.056-.104c-2.48-8.928-7.424-12.48-7.472-12.512a.257.257 0 010-.32.242.242 0 01.32 0s4.976 3.568 7.536 12.352c5.936-7.28 2.56-21.12.256-24.672a.241.241 0 01.08-.32.226.226 0 01.304 0c2.384 3.696 5.888 18.192-.576 25.6a.255.255 0 01-.288.032z" fill="#fff"/><path d="M314.544 264.352c.864 8.112 1.168 22.88-4.88 27.728a92.428 92.428 0 0019.52 13.872c9.504-6.56 5.296-11.728 5.296-11.728-8.72-2.896-8-9.472-5.824-15.552l-14.112-14.32z" fill="#E9A472"/><path opacity=".2" d="M320.288 270.192l8.352 8.48a25.544 25.544 0 00-1.136 4.336c-3.36-.784-8.224-4.272-8.288-7.872.071-1.697.434-3.37 1.072-4.944z" fill="#000"/><path d="M307.392 251.664c3.392 12.976 4.544 18.528 12.496 24 11.968 8.176 27.2 1.184 27.728-12.544.496-12.352-5.12-31.488-19.008-34.192a18.292 18.292 0 00-16.94 5.459 18.29 18.29 0 00-4.276 17.277z" fill="#E9A472"/><path d="M311.088 261.376c4.4 6.4 15.872-31.728 1.008-30.528-14.864 1.2-13.072 17.344-1.008 30.528z" fill="#263238"/><path d="M313.056 233.024c8.592 4.368 33.6 9.6 30.176 2.64a21.834 21.834 0 00-8.05-8.441 21.832 21.832 0 00-11.246-3.095c-8.16-.128-18.464 5.056-10.88 8.896z" fill="#263238"/><path d="M306.32 262.656a9.755 9.755 0 005.76 4.8c3.296.992 5.008-1.936 4.144-5.072-.768-2.832-3.408-6.752-6.736-6.4a4.395 4.395 0 00-3.398 2.475 4.402 4.402 0 00.23 4.197z" fill="#E9A472"/><path d="M343.472 380.32s18.496 81.808 6.16 139.488c-8.272 38.624-38.096 116.656-38.096 116.656l-23.312-.592s22.576-81.888 27.2-114.096c8-55.088-12-144.912-12-144.912l40.048 3.456z" fill="#263238"/><path opacity=".2" d="M322.144 396.8l-11.648 18.4a563.247 563.247 0 016.672 65.856c16.384-29.328 8.624-68.672 4.976-84.256z" fill="#000"/><path d="M314.816 637.68l-28.8-.736 1.68-8.848 29.376 1.392-2.256 8.192z" fill="#648CF5"/><path d="M331.52 379.456s-10.848 86.752-34.368 134.112c-18.992 38.272-69.68 92.72-69.68 92.72l-12.96-13.344s34.24-59.2 48.352-84.608c34.624-62.304 6.4-109.856 25.952-132.8l42.704 3.92z" fill="#263238"/><path d="M228.784 608.08l-16.72-16.304 5.552-7.552 17.728 17.712-6.56 6.144zm59.488-235.76l-2.88 4.672c-.224.368.192.784.816.848l57.328 4.96c.496 0 .928-.176.976-.48l.912-4.8c0-.336-.336-.656-.864-.704l-55.36-4.8a1.01 1.01 0 00-.928.304z" fill="#648CF5"/><path opacity=".3" d="M288.272 372.32l-2.88 4.672c-.224.368.192.784.816.848l57.328 4.96c.496 0 .928-.176.976-.48l.912-4.8c0-.336-.336-.656-.864-.704l-55.36-4.8a1.01 1.01 0 00-.928.304z" fill="#000"/><path d="M295.168 379.2l-1.472-.128c-.304 0-.512-.208-.48-.384l1.248-6.304c0-.176.304-.304.608-.288l1.472.128c.304 0 .512.208.48.384l-1.248 6.304c-.032.128-.304.288-.608.288zm44.16 3.76l-1.488-.128c-.288 0-.512-.192-.464-.384l1.232-6.288c0-.192.32-.32.608-.288l1.488.128c.288 0 .496.192.464.384l-1.248 6.288c-.032.192-.304.32-.592.288zm-22.08-1.904l-1.488-.128c-.288 0-.496-.192-.464-.384l1.248-6.288c0-.192.304-.32.592-.288l1.488.128c.304 0 .512.192.48.368l-1.248 6.304a.557.557 0 01-.608.288zM329.36 251.2c.208 1.072.944 1.824 1.6 1.68.656-.144 1.104-1.104.896-2.176-.208-1.072-.944-1.824-1.6-1.696-.656.128-1.12 1.136-.896 2.192zm12.08-2.368c.208 1.072.944 1.84 1.6 1.696.656-.144 1.088-1.12.88-2.192-.208-1.072-.944-1.824-1.6-1.68-.656.144-1.088 1.12-.88 2.176z" fill="#263238"/><path d="M342.032 246.768l2.416-1.232s-.928 2.256-2.416 1.232z" fill="#263238"/><path d="M337.28 251.504a29.457 29.457 0 005.12 6.096 4.707 4.707 0 01-3.664 1.456l-1.456-7.552z" fill="#CC8450"/><path d="M333.824 264.144a8.862 8.862 0 01-6.096-2.32.27.27 0 010-.384.258.258 0 01.184-.078.258.258 0 01.184.078 8.743 8.743 0 007.6 1.968c.07-.014.143 0 .203.038.059.039.102.1.117.17a.26.26 0 01-.039.196.25.25 0 01-.074.071.251.251 0 01-.095.037 9.953 9.953 0 01-1.984.224zm-11.728-17.072a.545.545 0 01-.272 0 .535.535 0 01-.243-.331.53.53 0 01.067-.405 6.18 6.18 0 014.8-3.104.516.516 0 01.378.143.539.539 0 01.166.369.523.523 0 01-.143.378.539.539 0 01-.369.166 5.166 5.166 0 00-3.952 2.608.518.518 0 01-.432.176zm22.704-4.288a.569.569 0 01-.272 0 5.134 5.134 0 00-4.704-.304.542.542 0 01-.781-.424.539.539 0 01.122-.39.526.526 0 01.163-.13 6.208 6.208 0 015.728.32.535.535 0 01.254.317.531.531 0 01-.046.403.546.546 0 01-.464.208z" fill="#263238"/><path d="M293.984 313.6c-2.144 3.552-4.416 7.2-6.544 10.848-2.128 3.648-4.32 7.264-6.4 10.928-2.08 3.664-4.016 7.328-5.664 10.976-.448.912-.8 1.808-1.216 2.704-.416.896-.672 1.744-1.008 2.624a6.399 6.399 0 00-.336 1.232c0 .208 0 .144-.096.112-.096-.032.272.608 1.6 1.168a21.098 21.098 0 004.8 1.28c3.941.569 7.924.799 11.904.688a227.406 227.406 0 0025.136-2.08l1.6 7.024a148.844 148.844 0 01-26.064 5.664 73.368 73.368 0 01-14 .464 31.132 31.132 0 01-7.792-1.52 18.332 18.332 0 01-4.352-2.16 12.808 12.808 0 01-5.76-10.528c-.02-1.737.217-3.468.704-5.136.352-1.168.688-2.384 1.072-3.504.384-1.12.768-2.24 1.2-3.328 1.696-4.32 3.568-8.384 5.6-12.352a300.988 300.988 0 016.304-11.68c2.176-3.824 4.448-7.552 6.96-11.296l12.352 7.872z" fill="#E9A472"/><path d="M312.896 355.712l10.672-5.648.4 11.888s-7.456 2.688-11.872-.768l.8-5.472z" fill="#E9A472"/><path d="M330.064 350.912l-1.6 10.528-4.496.512-.416-11.888 6.512.848z" fill="#E9A472"/><path d="M286.192 293.136c-6.704 1.264-16.096 20.464-16.096 20.464l20.8 18s9.52-17.376 8.816-26.112c-.608-7.472-4.992-13.856-13.52-12.352zM218.88 620.88a2.01 2.01 0 01-.528-.08c-1.6-.544-2.656-3.52-3.2-5.232a.27.27 0 010-.288.301.301 0 01.304 0c.48.256 4.8 2.544 4.896 4.224a.988.988 0 01-.448.944c-.29.244-.647.394-1.024.432zm-2.976-4.8c.752 2.384 1.712 3.952 2.624 4.256a1.247 1.247 0 001.2-.272.501.501 0 00.24-.48c-.08-1.088-2.592-2.72-4.064-3.584v.08z" fill="#648CF5"/><path d="M219.536 616.704a9.725 9.725 0 01-4.208-.976.293.293 0 01-.128-.24.275.275 0 01.144-.224c.144-.08 3.536-1.952 5.36-1.296a1.595 1.595 0 01.992.944 1.067 1.067 0 01-.24 1.312c-.568.37-1.244.54-1.92.48zm-3.488-1.216c1.456.624 4.272 1.008 5.072.336.128-.112.256-.304 0-.704a1.137 1.137 0 00-.672-.656c-1.168-.432-3.424.56-4.448 1.024h.048zm91.872 39.216a21.72 21.72 0 01-4.384-.544.286.286 0 01-.208-.24.288.288 0 01.16-.272c.656-.304 6.4-2.992 8-2a.882.882 0 01.384.832 1.944 1.944 0 01-.8 1.488 5.19 5.19 0 01-3.152.736zm-3.472-.912c1.728.336 4.928.752 6.24-.24a1.363 1.363 0 00.576-1.104c0-.224 0-.304-.144-.352-.816-.56-4.256.704-6.672 1.696z" fill="#648CF5"/><path d="M303.6 654.16a.243.243 0 01-.176 0 .223.223 0 010-.256c0-.24 1.376-5.984 4.528-5.616.784.096 1.008.48 1.04.8.208 1.456-3.456 4.4-5.216 5.12l-.176-.048zm3.984-5.424c-2.016 0-3.2 3.344-3.584 4.672 1.904-.992 4.512-3.376 4.384-4.32 0 0 0-.272-.576-.336l-.224-.016z" fill="#648CF5"/><path d="M329.936 249.152l2.432-1.248s-.928 2.272-2.432 1.248z" fill="#263238"/><path d="M610.608 301.072a51.185 51.185 0 01-.288 2.8c-.112.912-.24 1.728-.384 2.576a105.185 105.185 0 01-.992 5.072 98.165 98.165 0 01-2.768 9.904 84.825 84.825 0 01-9.024 18.672l-1.472 2.176-.368.528-.224.32-.336.448a13.583 13.583 0 01-1.6 1.6 16.551 16.551 0 01-6.56 3.616 33.046 33.046 0 01-11.472 1.008 71.81 71.81 0 01-19.872-4.544l1.728-6.896c6.017.615 12.075.738 18.112.368a24.763 24.763 0 007.456-1.6 4.186 4.186 0 001.6-1.168c-.176.24.896-1.6 1.6-2.752a85.284 85.284 0 006.736-16.24c.864-2.848 1.6-5.728 2.24-8.608.32-1.456.608-2.912.864-4.352l.336-2.16.288-1.968 14.4 1.2z" fill="#B55B52"/><path d="M613.936 291.68c.352 8.96-3.12 25.12-3.12 25.12l-22.176-2.688s-.816-23.648 3.488-29.36c7.216-9.552 21.488-1.552 21.808 6.928z" fill="#263238"/><path d="M560 339.296l-13.28-4.72 2.768 9.952s6.208 3.632 9.76-.496l.752-4.736z" fill="#B55B52"/><path d="M542.16 337.12l-1.824 7.024 9.168.384-2.768-9.952-4.576 2.544z" fill="#B55B52"/><path d="M479.792 383.616a69.718 69.718 0 0065.36-42.783 69.701 69.701 0 000-53.842 69.712 69.712 0 00-65.36-42.783h-9.04v139.408h9.04z" fill="#648CF5"/><path d="M470.752 383.616c38.501 0 69.712-31.211 69.712-69.712 0-38.501-31.211-69.712-69.712-69.712-38.501 0-69.712 31.211-69.712 69.712 0 38.501 31.211 69.712 69.712 69.712z" fill="#648CF5"/><path opacity=".2" d="M470.752 383.616c38.501 0 69.712-31.211 69.712-69.712 0-38.501-31.211-69.712-69.712-69.712-38.501 0-69.712 31.211-69.712 69.712 0 38.501 31.211 69.712 69.712 69.712z" fill="#000"/><path opacity=".8" d="M514.459 357.62c24.138-24.137 24.138-63.272 0-87.41-24.137-24.137-63.272-24.137-87.409 0-24.138 24.138-24.138 63.273 0 87.41 24.137 24.138 63.272 24.138 87.409 0z" fill="#648CF5"/><path d="M502.528 317.888a19.489 19.489 0 00-11.072-6.208 17.277 17.277 0 007.52-4.672 15.6 15.6 0 003.856-10.624 16.122 16.122 0 00-5.408-12.368c-3.595-3.339-8.757-5.008-15.488-5.008h-4.144v-11.712h-7.824v11.712h-9.696v-11.712h-7.824v11.712H435.44v14.144h6.16v41.52h-6.112V348.8h17.008v11.712h7.824V348.8h9.696v11.712h7.824V348.8h.992a93.06 93.06 0 009.6-.96 22.61 22.61 0 008.208-2.24 18.555 18.555 0 006.912-6.848 19.073 19.073 0 002.512-9.76 17.04 17.04 0 00-3.536-11.104zm-39.216-24.736h9.52c3.28 0 5.568.576 6.88 1.712a5.978 5.978 0 011.542 2.173 5.98 5.98 0 01.442 2.627 6.407 6.407 0 01-1.984 5.024c-1.312 1.152-3.648 1.728-7.008 1.728h-9.392v-13.264zm18.864 38.688c-1.6 1.312-4.144 1.968-7.856 1.968h-11.008V319.68h10.96c3.776 0 6.416.624 7.92 1.872a6.162 6.162 0 012.272 4.976 6.67 6.67 0 01-2.288 5.312z" fill="#fff"/><path d="M547.488 245.728c0 1.04-.592 1.888-1.264 1.904-.672.016-1.232-.832-1.216-1.856.016-1.024.576-1.888 1.264-1.904.688-.016 1.232.832 1.216 1.856z" fill="#263238"/><path d="M546.576 243.936L544 243.2s1.328 1.968 2.576.736z" fill="#263238"/><path d="M546.592 246.752a28.561 28.561 0 01-3.824 6.672 4.515 4.515 0 003.712.64l.112-7.312z" fill="#A02724"/><path d="M546.176 238.848a.585.585 0 00.288 0 5.049 5.049 0 014.48.528.606.606 0 00.678.039.616.616 0 00.295-.612.622.622 0 00-.237-.403 6.395 6.395 0 00-5.6-.704.588.588 0 00-.196 1.025.605.605 0 00.292.127z" fill="#263238"/><path d="M578.16 256.784c-.688 7.792 1.92 20.544 7.808 24.88 0 0-4.432 8.192-18.624 10.096-15.616 2.096-8.288-6.688-8.288-6.688 8.304-3.2 7.424-9.392 5.312-15.088l13.792-13.2zm-28.368 44.112a228.082 228.082 0 01-6.4 24 199.583 199.583 0 01-8.992 23.264l-.656 1.44c-.272.56-.624 1.216-.944 1.808a31.57 31.57 0 01-2.08 3.2 50.07 50.07 0 01-4.528 5.168 98.194 98.194 0 01-9.696 8.4 158.927 158.927 0 01-20.912 13.408l-3.92-5.952c6.064-5.056 12.128-10.336 17.728-15.744a105.13 105.13 0 007.84-8.304 40.424 40.424 0 003.104-4.224c.403-.641.772-1.303 1.104-1.984l.384-.912.528-1.36c1.408-3.616 2.656-7.328 3.92-11.04 1.264-3.712 2.368-7.488 3.472-11.2a515.97 515.97 0 005.968-22.816l14.08 2.848z" fill="#B55B52"/><path d="M496.304 381.024l-7.36 4.8-3.648-6.256s7.232-8.64 11.6-2.496l-.592 3.952z" fill="#B55B52"/><path d="M494.4 374.576l-4.16-.624-4.672.992-1.2 1.36 3.04.448.8 1.2 1.024.656 5.168-4.032zm-12.768 11.872l-4.048-3.264 7.712-3.584 3.648 6.256-7.312.592zm119.584 265.408l-12.912.96-3.84-29.648 12.912-.96 3.84 29.648zm82.672-37.664l-11.184 6.8-18.592-23.232 11.184-6.8 18.592 23.232z" fill="#B55B52"/><path d="M669.36 618.496l10.608-10.208a1.02 1.02 0 011.36-.096l9.04 6.976c.218.194.393.431.513.697a2.08 2.08 0 010 1.693 2.07 2.07 0 01-.513.698c-3.76 3.504-5.744 5.008-10.416 9.504-2.864 2.768-6.784 7.088-10.752 10.912-3.968 3.824-7.824.208-6.512-1.728 5.92-8.672 5.024-11.92 5.568-16.352a3.45 3.45 0 011.104-2.096zm-81.856 32.48h14.512a1.038 1.038 0 011.04.88l1.952 11.472a2.029 2.029 0 01-.473 1.61 2.019 2.019 0 01-1.527.694c-5.072 0-7.52-.384-13.904-.384-3.92 0-12.032.4-17.456.4-5.424 0-5.84-5.36-3.6-5.84 10.064-2.176 13.984-5.184 17.312-8a3.312 3.312 0 012.144-.832z" fill="#263238"/><path opacity=".2" d="M584.48 623.168l2.128 16.48 12.752-2.144-1.968-15.28-12.912.944zm80.816-32.208l-11.184 6.816 7.696 9.6 11.424-6.512-7.936-9.904z" fill="#000"/><path d="M607.728 359.456l-52.288 7.024c-20.256-73.344-14.272-75.328-14.272-75.328a105.334 105.334 0 0112.048-4.8l.72-.224c3.376-1.008 4.08-1.152 8.576-2.176 7.728-1.36 14.896-2.416 23.744-3.2l1.6-.128c1.6-.112 3.2-.192 4.8-.24 1.04 0 2.064 0 3.04-.08h5.104a7.238 7.238 0 016.727 5.045c.302.954.403 1.96.297 2.955-4.448 38.736-3.024 51.408-.096 71.152z" fill="#263238"/><path opacity=".2" d="M550.4 313.6a43.669 43.669 0 01-2.816 22.4c-3.488-14.304-5.36-24-6.304-30.72 3.936-.176 8.096 1.36 9.12 8.32z" fill="#000"/><path d="M541.616 290.944c-8.944 5.12-15.168 17.328-17.04 24.416l19.056 17.44s12.32-23.712 9.104-30.128c-3.36-6.672-7.728-13.664-11.12-11.728z" fill="#263238"/><path d="M582.576 242.4c-.976 12.8-1.104 18.144-7.696 24.768-9.904 9.968-25.488 6.4-28.384-6.224-2.592-11.392-.592-30.4 12.08-35.552a17.088 17.088 0 0124 17.008z" fill="#B55B52"/><path d="M556.192 247.536c1.312-4.528-8.864-9.68-9.952-16.624-1.408-9.008 5.568-16.288 12.08-12.048 2.64-6.032 20.56-8.576 30.4-1.104 11.072 8.384-2.496 17.248 8.544 24.672 8.8 5.92 10 9.6 4.56 16.688-4.128 5.392 6.544 4.24 3.84 13.36-2.704 9.12-57.904 12.464-50.576-8 6.512-18.08-1.488-7.696 1.104-16.944z" fill="#263238"/><path d="M559.296 246.528a11.523 11.523 0 01-2.32 6.56c-1.984 2.688-4.304 1.968-4.8-.512-.512-2.224-.08-6.304 2.432-8.16 2.512-1.856 4.672-.544 4.688 2.112z" fill="#B55B52"/><path d="M601.264 259.6a.223.223 0 01-.213-.166.216.216 0 01.009-.142.22.22 0 01.092-.108c3.472-2 5.328-4.8 5.248-7.712-.096-3.744-3.2-7.52-8.272-10.096-6.048-3.072-5.584-7.232-5.12-11.2.464-3.968.928-8.224-4.976-11.648a.25.25 0 01-.107-.142.254.254 0 01.011-.178.241.241 0 01.32-.08c6.176 3.584 5.68 7.904 5.2 12.096-.48 4.192-.896 7.888 4.8 10.816 5.232 2.64 8.416 6.56 8.528 10.48 0 3.2-1.856 6.048-5.472 8.112a.175.175 0 01-.048-.032z" fill="#263238"/><path d="M569.248 364.624s20.304 85.792 29.792 135.088c10 52 58.032 106.176 58.032 106.176l16.304-9.088s-30.224-49.44-40-98c-19.904-98.56-6.4-118.4-25.6-139.328l-38.528 5.152z" fill="#648CF5"/><path d="M655.456 607.408l20.352-11.344-2.976-6.016L650 600.56l5.456 6.848z" fill="#263238"/><path opacity=".2" d="M580.032 383.264c15.792 13.712 14.08 62.4 12.432 84.256-6.624-31.168-14.592-65.856-19.2-85.936 1.6-1.248 3.872-.784 6.768 1.68z" fill="#000"/><path d="M664.912 624.416c.153.025.31.025.464 0 1.6 0 3.504-2.496 4.464-3.968a.321.321 0 000-.336.29.29 0 00-.32-.128c-.512.096-5.136 1.072-5.744 2.608a1.038 1.038 0 00.144 1.024c.229.373.579.656.992.8zm3.984-3.632c-1.344 1.92-2.64 3.056-3.536 3.072a1.072 1.072 0 01-.545-.145 1.076 1.076 0 01-.399-.399.46.46 0 01-.08-.448c.336-.816 2.72-1.632 4.56-2.064v-.016zM556.224 366.512S547.088 468.384 552 507.2c5.184 40.416 31.568 128.336 31.568 128.336l18.608-2.4S587.056 546 584.368 506c-2.928-43.632 10.08-144.656 10.08-144.656l-38.224 5.168z" fill="#648CF5"/><path d="M579.664 636.64l26.544-3.424-.416-7.84-28.784 2.784 2.656 8.48z" fill="#263238"/><path d="M665.6 620.416c1.324.359 2.71.43 4.064.208a.32.32 0 00.224-.224.32.32 0 00-.08-.288c-.112-.112-2.64-2.72-4.512-2.64a1.604 1.604 0 00-1.248.624 1.054 1.054 0 00-.16 1.328 2.994 2.994 0 001.712.992zm3.344-.288c-1.6.176-4.064-.288-4.544-1.024-.08-.128-.144-.304.112-.624a1.061 1.061 0 01.816-.4 6.83 6.83 0 013.616 2.048zm-86.24 33.104a21.193 21.193 0 004.048-.464.307.307 0 00.24-.256.3.3 0 00-.028-.186.31.31 0 00-.132-.134c-.592-.304-5.824-2.944-7.376-2.048a.95.95 0 00-.496.8 1.725 1.725 0 00.592 1.488 4.962 4.962 0 003.152.8zm3.024-.896c-2.848.464-4.976.352-5.776-.352a1.21 1.21 0 01-.384-.992.37.37 0 01.192-.32c.848-.48 3.824.64 5.968 1.664z" fill="#648CF5"/><path d="M586.688 652.8a.415.415 0 00.192 0 .324.324 0 00.093-.129.331.331 0 00.019-.159c0-.224-.608-5.504-3.504-5.504h-.256c-.832.08-1.072.496-1.12.848-.24 1.456 2.88 4.256 4.464 4.96l.112-.016zm-3.2-5.232c1.872 0 2.608 3.072 2.832 4.384-1.6-.96-3.728-3.2-3.6-4.032 0-.08 0-.288.592-.336l.176-.016zm24.688-291.264l2.848 4.336c.224.336-.16.752-.768.832l-54.832 7.36c-.464 0-.88-.112-.944-.4l-.96-4.576c0-.32.304-.656.832-.72l52.928-7.104a.965.965 0 01.896.272z" fill="#648CF5"/><path opacity=".5" d="M608.176 356.304l2.848 4.336c.224.336-.16.752-.768.832l-54.832 7.36c-.464 0-.88-.112-.944-.4l-.96-4.576c0-.32.304-.656.832-.72l52.928-7.104a.965.965 0 01.896.272z" fill="#fff"/><path d="M601.696 363.2l1.424-.192c.272 0 .48-.208.432-.384l-1.296-5.952c0-.16-.304-.272-.592-.24l-1.408.192c-.288 0-.496.208-.448.384l1.296 5.952c.048.096.304.24.592.24zm-35.808 4.8l1.408-.192c.288 0 .48-.208.448-.384l-1.312-5.952c0-.176-.288-.288-.576-.24l-1.424.176c-.272 0-.48.224-.432.4l1.296 5.936c.048.256.304.256.592.256z" fill="#648CF5"/></svg>