<svg width="500" height="500" viewBox="0 0 500 500" fill="none" xmlns="http://www.w3.org/2000/svg">
<path opacity="0.1" d="M268.014 170.931C223.414 136.611 148.474 57.6012 102.684 128.801C57.2436 199.481 144.354 287.261 199.234 311.191C254.714 335.401 403.934 335.191 391.034 245.661C382.154 184.101 317.274 208.851 268.014 170.931Z" fill="url(#paint0_linear)"/>
<path opacity="0.1" d="M249.89 436.64C356.973 436.64 443.78 431.572 443.78 425.32C443.78 419.068 356.973 414 249.89 414C142.808 414 56 419.068 56 425.32C56 431.572 142.808 436.64 249.89 436.64Z" fill="url(#paint1_linear)"/>
<path d="M240.876 249.171H150.796C147.975 249.116 145.273 248.028 143.201 246.112C141.129 244.197 139.832 241.589 139.556 238.781L135.046 183.401C134.915 182.075 135.065 180.736 135.487 179.471C135.909 178.207 136.593 177.046 137.495 176.065C138.396 175.083 139.495 174.303 140.718 173.775C141.942 173.247 143.263 172.983 144.596 173.001H234.666C237.488 173.056 240.192 174.146 242.264 176.063C244.336 177.98 245.632 180.591 245.906 183.401L250.416 238.781C250.547 240.106 250.397 241.443 249.975 242.706C249.554 243.969 248.87 245.129 247.97 246.11C247.069 247.091 245.972 247.87 244.75 248.398C243.527 248.925 242.207 249.189 240.876 249.171Z" fill="white"/>
<path d="M176.066 212.889C172.477 212.889 169.486 211.606 167.093 209.04C164.7 206.474 163.349 203.109 163.039 198.945C162.729 194.781 163.579 191.415 165.589 188.849C167.599 186.283 170.399 185 173.989 185C177.578 185 180.569 186.283 182.962 188.849C185.399 191.367 186.774 194.732 187.088 198.945C187.402 203.157 186.529 206.546 184.471 209.112C182.457 211.63 179.655 212.889 176.066 212.889ZM204.178 185.508H211.213L180.685 236.348H173.65L204.178 185.508ZM175.687 207.805C177.65 207.805 179.099 207.03 180.037 205.481C181.022 203.932 181.41 201.753 181.201 198.945C180.992 196.136 180.279 193.957 179.063 192.408C177.895 190.859 176.33 190.084 174.367 190.084C172.501 190.084 171.053 190.883 170.023 192.481C169.038 194.03 168.648 196.185 168.854 198.945C169.059 201.704 169.772 203.883 170.992 205.481C172.256 207.03 173.821 207.805 175.687 207.805ZM210.802 236.856C207.213 236.856 204.222 235.573 201.829 233.007C199.436 230.441 198.085 227.076 197.775 222.912C197.465 218.748 198.315 215.383 200.325 212.816C202.336 210.25 205.135 208.967 208.725 208.967C212.314 208.967 215.305 210.25 217.698 212.816C220.138 215.383 221.514 218.748 221.824 222.912C222.134 227.076 221.26 230.441 219.202 233.007C217.192 235.573 214.392 236.856 210.802 236.856ZM210.424 231.772C212.338 231.772 213.788 230.998 214.773 229.448C215.755 227.85 216.143 225.672 215.937 222.912C215.732 220.152 215.021 217.997 213.805 216.448C212.585 214.85 211.018 214.051 209.104 214.051C207.189 214.051 205.739 214.826 204.754 216.375C203.769 217.925 203.381 220.103 203.59 222.912C203.799 225.72 204.512 227.899 205.728 229.448C206.944 230.998 208.509 231.772 210.424 231.772Z" fill="url(#paint2_linear)"/>
<path d="M240.307 249.071H150.227C147.291 249.02 144.477 247.888 142.324 245.891C140.171 243.895 138.83 241.175 138.557 238.251L134.047 182.861C133.911 181.474 134.071 180.074 134.513 178.753C134.956 177.432 135.673 176.219 136.617 175.194C137.561 174.169 138.711 173.355 139.991 172.804C141.271 172.254 142.653 171.98 144.047 172.001H234.117C237.048 172.052 239.858 173.18 242.01 175.17C244.163 177.16 245.507 179.873 245.787 182.791L250.277 238.251C250.412 239.638 250.253 241.038 249.81 242.359C249.367 243.68 248.65 244.893 247.706 245.918C246.762 246.943 245.613 247.758 244.332 248.308C243.052 248.858 241.67 249.132 240.277 249.111L240.307 249.071ZM144.027 172.901C142.753 172.877 141.489 173.124 140.318 173.625C139.147 174.127 138.096 174.871 137.234 175.808C136.372 176.746 135.719 177.856 135.318 179.065C134.916 180.274 134.776 181.554 134.907 182.821L139.417 238.251C139.677 240.954 140.922 243.468 142.916 245.312C144.909 247.156 147.511 248.202 150.227 248.251H240.307C241.587 248.275 242.857 248.025 244.033 247.518C245.209 247.012 246.264 246.26 247.126 245.314C247.988 244.367 248.638 243.248 249.034 242.03C249.429 240.812 249.559 239.524 249.417 238.251L244.907 182.861C244.647 180.158 243.402 177.645 241.408 175.8C239.414 173.956 236.812 172.91 234.097 172.861L144.027 172.901Z" fill="url(#paint3_linear)"/>
<path d="M118.22 83H111V83.87H118.22V83Z" fill="url(#paint4_linear)"/>
<path d="M103.44 83H87V83.87H103.44V83Z" fill="url(#paint5_linear)"/>
<path d="M179.866 162.171H89.7959C86.9745 162.118 84.2708 161.031 82.1986 159.115C80.1263 157.2 78.83 154.59 78.5559 151.781L74.0459 96.391C73.9148 95.0652 74.0652 93.7266 74.4873 92.463C74.9094 91.1993 75.5936 90.0391 76.4952 89.0582C77.3967 88.0774 78.4953 87.298 79.719 86.7711C80.9426 86.2443 82.2638 85.9818 83.5959 86.001H173.666C176.487 86.056 179.189 87.1442 181.261 89.0593C183.333 90.9744 184.63 93.5832 184.906 96.391L189.416 151.781C189.547 153.107 189.397 154.445 188.975 155.709C188.552 156.973 187.868 158.133 186.967 159.114C186.065 160.095 184.967 160.874 183.743 161.401C182.519 161.928 181.198 162.19 179.866 162.171Z" fill="white"/>
<path d="M180.297 163.041H90.2268C87.2957 162.991 84.4858 161.863 82.3333 159.872C80.1808 157.882 78.8365 155.169 78.5568 152.251L74.0468 96.8611C73.9115 95.4742 74.0705 94.0743 74.5135 92.7531C74.9564 91.4319 75.6733 90.219 76.6172 89.1939C77.5612 88.1688 78.7109 87.3546 79.9911 86.8044C81.2714 86.2542 82.6534 85.9804 84.0468 86.0011H174.117C177.048 86.0516 179.858 87.1796 182.01 89.1697C184.163 91.1599 185.507 93.8729 185.787 96.7911L190.297 152.181C190.432 153.568 190.273 154.968 189.83 156.289C189.387 157.61 188.67 158.823 187.726 159.848C186.782 160.873 185.633 161.688 184.352 162.238C183.072 162.788 181.69 163.062 180.297 163.041ZM84.0268 86.8611C82.7523 86.8372 81.4874 87.0844 80.3156 87.5861C79.1439 88.0879 78.0921 88.8328 77.2299 89.7716C76.3676 90.7104 75.7147 91.8217 75.3142 93.0318C74.9137 94.2419 74.7748 95.5233 74.9068 96.7911L79.4168 152.181C79.6766 154.884 80.922 157.398 82.9155 159.242C84.9091 161.086 87.5115 162.132 90.2268 162.181H180.297C181.57 162.205 182.834 161.958 184.005 161.457C185.176 160.956 186.228 160.212 187.09 159.274C187.952 158.336 188.605 157.226 189.006 156.017C189.407 154.808 189.547 153.528 189.417 152.261L184.907 96.8711C184.645 94.1686 183.399 91.6567 181.406 89.8129C179.413 87.9692 176.811 86.9222 174.097 86.8711L84.0268 86.8611Z" fill="url(#paint6_linear)"/>
<path d="M82.39 102.71H130.12L129.73 98H82L82.39 102.71Z" fill="url(#paint7_linear)"/>
<path d="M178.12 102.71H130.39L130 98H177.74L178.12 102.71Z" fill="#E0E0E0"/>
<path d="M83.39 114.72H97L96.62 110H83L83.39 114.72Z" fill="url(#paint8_linear)"/>
<path d="M179.23 114.72H97.38L97 110H178.85L179.23 114.72Z" fill="#E0E0E0"/>
<path d="M84.39 126.71H126.87L126.49 122H84L84.39 126.71Z" fill="url(#paint9_linear)"/>
<path d="M180.36 126.71H127.38L127 122H179.98L180.36 126.71Z" fill="#E0E0E0"/>
<path d="M85.39 138.71H157.9L157.51 134H85L85.39 138.71Z" fill="url(#paint10_linear)"/>
<path d="M181.34 138.71H158.39L158 134H180.95L181.34 138.71Z" fill="#E0E0E0"/>
<path d="M86.38 151.72H119.92L119.54 147H86L86.38 151.72Z" fill="url(#paint11_linear)"/>
<path d="M182.31 151.72H120.38L120 147H181.92L182.31 151.72Z" fill="#E0E0E0"/>
<path d="M303.836 162.17H213.766C210.95 162.11 208.253 161.02 206.187 159.105C204.121 157.19 202.829 154.584 202.556 151.78L198.046 96.3905C197.915 95.0681 198.065 93.733 198.484 92.4721C198.904 91.2113 199.585 90.053 200.482 89.0728C201.379 88.0926 202.473 87.3124 203.692 86.783C204.91 86.2536 206.227 85.987 207.556 86.0005H297.636C300.457 86.0555 303.159 87.1437 305.231 89.0588C307.303 90.9739 308.6 93.5827 308.876 96.3905L313.386 151.78C313.517 153.106 313.367 154.445 312.945 155.708C312.522 156.972 311.838 158.132 310.937 159.113C310.035 160.094 308.937 160.873 307.713 161.4C306.489 161.927 305.168 162.19 303.836 162.17Z" fill="white"/>
<path d="M303.327 163.041H213.257C210.329 162.978 207.524 161.846 205.373 159.858C203.222 157.871 201.871 155.165 201.577 152.251L197.047 96.8611C196.911 95.4742 197.071 94.0743 197.513 92.7531C197.956 91.4319 198.673 90.219 199.617 89.1939C200.561 88.1688 201.711 87.3546 202.991 86.8044C204.271 86.2542 205.653 85.9804 207.047 86.0011H297.127C300.058 86.0516 302.868 87.1796 305.02 89.1697C307.173 91.1599 308.517 93.8729 308.797 96.7911L313.307 152.181C313.442 153.568 313.283 154.968 312.84 156.289C312.397 157.61 311.68 158.823 310.736 159.848C309.792 160.873 308.643 161.688 307.362 162.238C306.082 162.788 304.7 163.062 303.307 163.041H303.327ZM207.047 86.8611C205.773 86.8387 204.509 87.0869 203.339 87.5893C202.168 88.0917 201.118 88.8368 200.257 89.7754C199.395 90.7141 198.743 91.8248 198.343 93.0342C197.944 94.2436 197.805 95.5241 197.937 96.7911L202.447 152.181C202.707 154.884 203.952 157.398 205.946 159.242C207.939 161.086 210.541 162.132 213.257 162.181H303.327C304.6 162.205 305.864 161.958 307.035 161.457C308.206 160.956 309.258 160.212 310.12 159.274C310.982 158.336 311.635 157.226 312.036 156.017C312.437 154.808 312.577 153.528 312.447 152.261L307.937 96.8711C307.675 94.1686 306.429 91.6567 304.436 89.8129C302.443 87.9692 299.841 86.9222 297.127 86.8711L207.047 86.8611Z" fill="url(#paint12_linear)"/>
<path d="M257.97 151.82H256.38L252 98H253.59L257.97 151.82Z" fill="#E0E0E0"/>
<path d="M260.75 129.02H250.72L249 108H259.04L260.75 129.02Z" fill="url(#paint13_linear)"/>
<path d="M238.97 151.82H237.38L233 98H234.59L238.97 151.82Z" fill="#E0E0E0"/>
<path d="M241.54 133.43H231.5L230 115H240.03L241.54 133.43Z" fill="url(#paint14_linear)"/>
<path d="M218.97 151.82H217.38L213 98H214.59L218.97 151.82Z" fill="#E0E0E0"/>
<path d="M220.06 118.65H210.03L209 106H219.03L220.06 118.65Z" fill="#263238"/>
<path d="M277.97 151.82H276.38L272 98H273.59L277.97 151.82Z" fill="#E0E0E0"/>
<path d="M281.71 140.96H271.68L269 108H279.03L281.71 140.96Z" fill="#263238"/>
<path d="M297.98 151.82H296.38L292 98H293.59L297.98 151.82Z" fill="#E0E0E0"/>
<path d="M301.18 145.4H291.15L289 119H299.03L301.18 145.4Z" fill="url(#paint15_linear)"/>
<path d="M206.866 334.161H116.786C113.966 334.104 111.264 333.015 109.193 331.1C107.122 329.185 105.824 326.578 105.546 323.771L101.046 268.391C100.915 267.066 101.065 265.728 101.487 264.465C101.908 263.202 102.591 262.043 103.492 261.062C104.392 260.081 105.49 259.302 106.712 258.774C107.935 258.247 109.255 257.983 110.586 258.001H200.666C203.486 258.058 206.187 259.147 208.259 261.062C210.33 262.976 211.628 265.584 211.906 268.391L216.416 323.781C216.544 325.106 216.391 326.442 215.968 327.704C215.545 328.966 214.86 330.124 213.959 331.103C213.058 332.083 211.96 332.861 210.738 333.388C209.516 333.915 208.197 334.178 206.866 334.161Z" fill="white"/>
<path d="M207.307 334.061H117.227C114.296 334.008 111.488 332.88 109.336 330.89C107.184 328.9 105.839 326.188 105.557 323.271L101.047 267.861C100.911 266.474 101.071 265.074 101.513 263.753C101.956 262.432 102.673 261.219 103.617 260.194C104.561 259.169 105.711 258.355 106.991 257.804C108.271 257.254 109.653 256.98 111.047 257.001H201.127C204.065 257.06 206.878 258.201 209.027 260.205C211.176 262.209 212.512 264.935 212.777 267.861L217.287 323.241C217.422 324.628 217.263 326.028 216.82 327.349C216.377 328.67 215.66 329.883 214.716 330.908C213.772 331.933 212.623 332.748 211.342 333.298C210.062 333.848 208.68 334.122 207.287 334.101L207.307 334.061ZM111.027 257.861C109.747 257.837 108.476 258.087 107.3 258.594C106.124 259.1 105.07 259.852 104.208 260.799C103.345 261.745 102.695 262.865 102.3 264.083C101.905 265.3 101.774 266.589 101.917 267.861L106.417 323.201C106.676 325.903 107.92 328.414 109.912 330.258C111.903 332.102 114.503 333.15 117.217 333.201H207.297C208.57 333.223 209.834 332.975 211.005 332.473C212.175 331.97 213.226 331.225 214.087 330.287C214.948 329.348 215.6 328.237 216 327.028C216.4 325.819 216.539 324.538 216.407 323.271L211.917 267.861C211.655 265.159 210.409 262.647 208.416 260.803C206.423 258.959 203.821 257.912 201.107 257.861H111.027Z" fill="url(#paint16_linear)"/>
<path d="M123.13 294.91L142.54 317.34L164.81 283L178.57 300.75L181.93 295.57L204.44 322.54L118 322.51L123.13 294.91Z" fill="url(#paint17_linear)"/>
<path d="M187.93 296.38L178.91 315.7L150.13 270L136.58 299.02L132.23 292.13L118 322.61L204.42 322.56L187.93 296.38Z" fill="#E0E0E0"/>
<path d="M372.676 168.041C375.086 172.561 377.156 177.041 379.106 181.681C381.06 186.373 382.73 191.178 384.106 196.071C384.456 197.311 384.756 198.591 385.046 199.871C385.271 200.758 385.405 201.666 385.446 202.581C385.48 203.49 385.43 204.401 385.296 205.301C384.769 208.21 383.754 211.009 382.296 213.581C379.775 218.147 376.628 222.337 372.946 226.031C372.473 226.519 371.839 226.82 371.162 226.88C370.485 226.939 369.809 226.752 369.258 226.354C368.706 225.956 368.317 225.373 368.161 224.711C368.004 224.05 368.091 223.354 368.406 222.751L368.476 222.621C370.689 218.547 372.613 214.324 374.236 209.981C374.922 208.151 375.337 206.231 375.466 204.281C375.47 203.963 375.443 203.644 375.386 203.331C375.372 203.231 375.345 203.134 375.306 203.041L375.116 202.451C374.786 201.371 374.446 200.291 374.046 199.211C372.526 194.871 370.656 190.511 368.706 186.211C366.756 181.911 364.706 177.521 362.626 173.351V173.261C361.939 171.923 361.812 170.367 362.272 168.935C362.733 167.503 363.743 166.313 365.081 165.626C366.419 164.939 367.975 164.812 369.407 165.272C370.839 165.733 372.029 166.743 372.716 168.081L372.676 168.041Z" fill="url(#paint18_linear)"/>
<path d="M369.75 222.113L365 223.623L370.62 230.193C371.981 228.911 372.993 227.304 373.56 225.523C373.683 225.065 373.663 224.581 373.502 224.136C373.341 223.69 373.047 223.305 372.66 223.033L371.86 222.453C371.56 222.234 371.212 222.089 370.846 222.03C370.479 221.971 370.104 221.999 369.75 222.113Z" fill="#7F3E3B"/>
<path d="M359 227.05L365.02 231.83L371.2 229.57L365.58 223L359 227.05Z" fill="#7F3E3B"/>
<path d="M338.434 134.218C338.314 134.808 337.904 135.218 337.514 135.148C337.124 135.078 336.914 134.528 337.034 133.938C337.154 133.348 337.564 132.938 337.954 133.008C338.344 133.078 338.584 133.608 338.434 134.218Z" fill="#263238"/>
<path d="M337.85 135C336.776 136.664 335.481 138.175 334 139.49C334.346 139.861 334.768 140.152 335.238 140.342C335.708 140.532 336.214 140.616 336.72 140.59L337.85 135Z" fill="#630F0F"/>
<path d="M341.098 131.789C341.167 131.788 341.234 131.766 341.291 131.728C341.348 131.69 341.393 131.636 341.42 131.572C341.448 131.509 341.456 131.44 341.445 131.372C341.434 131.304 341.404 131.24 341.358 131.189C340.988 130.769 340.522 130.443 340 130.24C339.479 130.036 338.915 129.961 338.358 130.019C338.306 130.019 338.254 130.031 338.207 130.053C338.16 130.075 338.118 130.108 338.084 130.148C338.051 130.188 338.026 130.235 338.012 130.285C337.999 130.336 337.996 130.389 338.005 130.44C338.014 130.492 338.034 130.541 338.064 130.584C338.093 130.627 338.132 130.663 338.177 130.689C338.222 130.716 338.272 130.732 338.324 130.737C338.376 130.743 338.429 130.736 338.478 130.719C338.924 130.685 339.372 130.758 339.784 130.932C340.197 131.106 340.561 131.376 340.848 131.719C340.92 131.774 341.009 131.799 341.098 131.789Z" fill="#263238"/>
<path d="M354.448 145C353.378 150.48 352.728 158.06 356.558 161.72C356.558 161.72 355.058 167.27 344.888 167.27C333.698 167.27 339.508 162.4 339.508 162.4C344.158 160.95 344.118 155.66 343.048 151.4L354.448 145Z" fill="#7F3E3B"/>
<path d="M338 162.018C338 162.018 339.64 158.158 341.3 157.488C342.96 156.818 353.58 155.078 356.02 156.618C358.46 158.158 360.12 163.098 360.12 163.098L338 162.018Z" fill="url(#paint19_linear)"/>
<path d="M348.324 417.8C347.324 417.8 346.434 417.67 346.124 417.23C346.043 417.118 346 416.984 346 416.845C346 416.707 346.043 416.573 346.124 416.46C346.184 416.355 346.266 416.264 346.365 416.194C346.463 416.123 346.575 416.074 346.694 416.05C347.934 415.71 350.554 417.2 350.694 417.26C350.724 417.278 350.748 417.305 350.763 417.338C350.777 417.37 350.781 417.406 350.774 417.44C350.77 417.477 350.754 417.512 350.729 417.539C350.704 417.566 350.67 417.584 350.634 417.59C349.871 417.726 349.099 417.797 348.324 417.8ZM347.134 416.35C347.021 416.335 346.907 416.335 346.794 416.35C346.72 416.363 346.651 416.392 346.59 416.435C346.529 416.478 346.479 416.535 346.444 416.6C346.324 416.82 346.364 416.92 346.444 416.99C346.794 417.47 348.684 417.48 350.074 417.29C349.166 416.782 348.167 416.456 347.134 416.33V416.35Z" fill="url(#paint20_linear)"/>
<path d="M350.638 417.379H350.568C349.658 416.969 347.868 415.379 348.008 414.509C348.008 414.309 348.178 414.059 348.668 414.009C348.846 413.988 349.027 414.004 349.199 414.055C349.371 414.107 349.531 414.193 349.668 414.309C350.668 415.099 350.828 417.109 350.838 417.199C350.837 417.23 350.829 417.26 350.816 417.288C350.802 417.316 350.782 417.34 350.758 417.359C350.722 417.38 350.679 417.388 350.638 417.379ZM348.808 414.379H348.708C348.388 414.379 348.368 414.539 348.358 414.579C348.278 415.089 349.488 416.359 350.418 416.919C350.327 416.065 349.978 415.26 349.418 414.609C349.249 414.445 349.023 414.352 348.788 414.349L348.808 414.379Z" fill="url(#paint21_linear)"/>
<path d="M359.23 417.33H351.75L351 400H358.48L359.23 417.33Z" fill="#7F3E3B"/>
<path d="M351.855 416H360.035C360.183 416.001 360.327 416.051 360.443 416.144C360.559 416.236 360.641 416.365 360.675 416.51L362.145 423.16C362.183 423.32 362.184 423.487 362.147 423.648C362.111 423.808 362.039 423.959 361.935 424.087C361.832 424.216 361.701 424.319 361.552 424.388C361.402 424.458 361.239 424.493 361.075 424.49C358.125 424.44 353.865 424.27 350.155 424.27C345.825 424.27 345.295 424.51 340.214 424.51C337.144 424.51 336.294 421.4 337.574 421.12C343.434 419.84 344.995 419.7 350.055 416.58C350.589 416.223 351.212 416.022 351.855 416Z" fill="#263238"/>
<path d="M370.478 162.201C377.478 163.811 382.118 182.741 382.118 182.741L370.408 191.541C366.045 188.42 362.95 183.834 361.688 178.621C359.308 169.241 363.308 160.561 370.478 162.201Z" fill="#263238"/>
<path opacity="0.2" d="M364.12 175C367.93 178.77 370.39 184.72 370.69 190.69L370.07 191.17C365.714 188.047 362.626 183.461 361.37 178.25C361.23 177.69 361.1 177.13 361 176.58L364.12 175Z" fill="black"/>
<path d="M394.831 190.292L338 213L354.886 255.261L411.717 232.553L394.831 190.292Z" fill="url(#paint22_linear)"/>
<path opacity="0.5" d="M393.995 190.626L338 213L354.886 255.261L410.882 232.887L393.995 190.626Z" fill="white"/>
<g opacity="0.5">
<path opacity="0.5" d="M348.302 212.881L343 215L344.503 218.761L349.805 216.642L348.302 212.881Z" fill="url(#paint23_linear)"/>
<path opacity="0.5" d="M357.302 208.881L352 211L353.503 214.761L358.805 212.642L357.302 208.881Z" fill="url(#paint24_linear)"/>
<path opacity="0.5" d="M366.302 205.881L361 208L362.503 211.761L367.805 209.642L366.302 205.881Z" fill="url(#paint25_linear)"/>
<path opacity="0.5" d="M374.302 201.881L369 204L370.503 207.761L375.805 205.642L374.302 201.881Z" fill="url(#paint26_linear)"/>
<path opacity="0.5" d="M383.302 198.881L378 201L379.503 204.761L384.805 202.642L383.302 198.881Z" fill="url(#paint27_linear)"/>
<path opacity="0.5" d="M392.302 194.881L387 197L388.503 200.761L393.805 198.642L392.302 194.881Z" fill="url(#paint28_linear)"/>
<path opacity="0.5" d="M350.302 218.881L345 221L346.503 224.761L351.805 222.642L350.302 218.881Z" fill="url(#paint29_linear)"/>
<path opacity="0.5" d="M359.302 214.881L354 217L355.503 220.761L360.805 218.642L359.302 214.881Z" fill="url(#paint30_linear)"/>
<path opacity="0.5" d="M368.302 211.881L363 214L364.503 217.761L369.805 215.642L368.302 211.881Z" fill="url(#paint31_linear)"/>
<path opacity="0.5" d="M377.302 207.881L372 210L373.503 213.761L378.805 211.642L377.302 207.881Z" fill="url(#paint32_linear)"/>
<path opacity="0.5" d="M385.302 204.881L380 207L381.503 210.761L386.805 208.642L385.302 204.881Z" fill="url(#paint33_linear)"/>
<path opacity="0.5" d="M394.302 200.881L389 203L390.503 206.761L395.805 204.642L394.302 200.881Z" fill="url(#paint34_linear)"/>
<path opacity="0.5" d="M353.302 224.881L348 227L349.503 230.761L354.805 228.642L353.302 224.881Z" fill="url(#paint35_linear)"/>
<path opacity="0.5" d="M362.302 221.881L357 224L358.503 227.761L363.805 225.642L362.302 221.881Z" fill="url(#paint36_linear)"/>
<path opacity="0.5" d="M370.302 217.881L365 220L366.503 223.761L371.805 221.642L370.302 217.881Z" fill="url(#paint37_linear)"/>
<path opacity="0.5" d="M379.302 214.881L374 217L375.503 220.761L380.805 218.642L379.302 214.881Z" fill="url(#paint38_linear)"/>
<path opacity="0.5" d="M388.302 210.881L383 213L384.503 216.761L389.805 214.642L388.302 210.881Z" fill="url(#paint39_linear)"/>
<path opacity="0.5" d="M397.302 207.881L392 210L393.503 213.761L398.805 211.642L397.302 207.881Z" fill="url(#paint40_linear)"/>
<path opacity="0.5" d="M355.302 230.881L350 233L351.503 236.761L356.805 234.642L355.302 230.881Z" fill="url(#paint41_linear)"/>
<path opacity="0.5" d="M364.302 227.881L359 230L360.503 233.761L365.805 231.642L364.302 227.881Z" fill="url(#paint42_linear)"/>
<path opacity="0.5" d="M373.302 223.881L368 226L369.503 229.761L374.805 227.642L373.302 223.881Z" fill="url(#paint43_linear)"/>
<path opacity="0.5" d="M382.302 220.881L377 223L378.503 226.761L383.805 224.642L382.302 220.881Z" fill="url(#paint44_linear)"/>
<path opacity="0.5" d="M390.302 216.881L385 219L386.503 222.761L391.805 220.642L390.302 216.881Z" fill="url(#paint45_linear)"/>
<path opacity="0.5" d="M399.302 213.881L394 216L395.503 219.761L400.805 217.642L399.302 213.881Z" fill="url(#paint46_linear)"/>
<path opacity="0.5" d="M358.302 236.881L353 239L354.503 242.761L359.805 240.642L358.302 236.881Z" fill="url(#paint47_linear)"/>
<path opacity="0.5" d="M367.302 233.881L362 236L363.503 239.761L368.805 237.642L367.302 233.881Z" fill="url(#paint48_linear)"/>
<path opacity="0.5" d="M375.302 229.881L370 232L371.503 235.761L376.805 233.642L375.302 229.881Z" fill="url(#paint49_linear)"/>
<path opacity="0.5" d="M384.302 226.881L379 229L380.503 232.761L385.805 230.642L384.302 226.881Z" fill="url(#paint50_linear)"/>
<path opacity="0.5" d="M393.302 222.881L388 225L389.503 228.761L394.805 226.642L393.302 222.881Z" fill="url(#paint51_linear)"/>
<path opacity="0.5" d="M402.302 219.881L397 222L398.503 225.761L403.805 223.642L402.302 219.881Z" fill="url(#paint52_linear)"/>
<path opacity="0.5" d="M360.302 243.881L355 246L356.503 249.761L361.805 247.642L360.302 243.881Z" fill="url(#paint53_linear)"/>
<path opacity="0.5" d="M369.302 239.881L364 242L365.503 245.761L370.805 243.642L369.302 239.881Z" fill="url(#paint54_linear)"/>
<path opacity="0.5" d="M378.302 236.881L373 239L374.503 242.761L379.805 240.642L378.302 236.881Z" fill="url(#paint55_linear)"/>
<path opacity="0.5" d="M387.302 232.881L382 235L383.503 238.761L388.805 236.642L387.302 232.881Z" fill="url(#paint56_linear)"/>
<path opacity="0.5" d="M395.302 229.881L390 232L391.503 235.761L396.805 233.642L395.302 229.881Z" fill="url(#paint57_linear)"/>
<path opacity="0.5" d="M404.302 225.881L399 228L400.503 231.761L405.805 229.642L404.302 225.881Z" fill="url(#paint58_linear)"/>
</g>
<path d="M390.09 203.119C389.954 202.732 389.973 202.307 390.142 201.933C390.311 201.56 390.619 201.266 390.999 201.114C391.38 200.961 391.805 200.962 392.186 201.116C392.566 201.27 392.872 201.564 393.04 201.939C393.128 202.134 393.176 202.345 393.18 202.56C393.184 202.774 393.144 202.987 393.064 203.186C392.984 203.385 392.864 203.565 392.712 203.716C392.56 203.868 392.38 203.987 392.181 204.066C391.981 204.146 391.768 204.184 391.554 204.18C391.34 204.175 391.129 204.127 390.933 204.038C390.738 203.95 390.563 203.822 390.418 203.664C390.273 203.506 390.162 203.321 390.09 203.119Z" fill="white"/>
<path d="M389.109 225.156C388.995 224.866 388.97 224.548 389.036 224.243C389.103 223.939 389.258 223.66 389.482 223.444C389.707 223.227 389.99 223.081 390.297 223.026C390.604 222.97 390.92 223.006 391.207 223.13C391.493 223.253 391.736 223.459 391.906 223.721C392.076 223.983 392.164 224.289 392.16 224.601C392.156 224.912 392.06 225.216 391.883 225.473C391.707 225.731 391.458 225.93 391.169 226.046C390.975 226.124 390.768 226.163 390.56 226.16C390.351 226.157 390.145 226.113 389.953 226.03C389.762 225.948 389.589 225.828 389.444 225.678C389.299 225.528 389.185 225.35 389.109 225.156Z" fill="white"/>
<path d="M369.113 226.179C368.997 225.887 368.969 225.566 369.035 225.259C369.101 224.951 369.256 224.669 369.482 224.45C369.707 224.231 369.993 224.083 370.303 224.026C370.612 223.969 370.932 224.006 371.221 224.13C371.51 224.255 371.755 224.463 371.926 224.727C372.096 224.992 372.185 225.301 372.18 225.616C372.175 225.93 372.076 226.236 371.897 226.495C371.718 226.754 371.466 226.954 371.173 227.069C370.98 227.147 370.773 227.186 370.564 227.183C370.355 227.18 370.149 227.136 369.958 227.053C369.766 226.971 369.593 226.851 369.448 226.701C369.303 226.551 369.189 226.373 369.113 226.179Z" fill="white"/>
<path d="M357.117 245.188C356.998 244.896 356.969 244.575 357.033 244.267C357.097 243.959 357.251 243.676 357.476 243.455C357.701 243.235 357.986 243.086 358.296 243.028C358.605 242.969 358.925 243.004 359.215 243.128C359.504 243.252 359.751 243.459 359.922 243.723C360.094 243.987 360.184 244.296 360.18 244.611C360.176 244.925 360.078 245.232 359.9 245.492C359.721 245.751 359.469 245.952 359.177 246.068C358.787 246.223 358.351 246.217 357.965 246.052C357.579 245.887 357.274 245.577 357.117 245.188Z" fill="white"/>
<path d="M358.594 245.407C358.48 245.409 358.367 245.374 358.274 245.307C358.209 245.266 358.152 245.213 358.107 245.15C358.062 245.087 358.031 245.015 358.014 244.94C357.997 244.864 357.996 244.786 358.009 244.71C358.023 244.634 358.052 244.562 358.094 244.497L370.654 225.107C370.705 225.028 370.775 224.962 370.856 224.915C370.938 224.868 371.03 224.841 371.124 224.837L390.574 224.067L391.864 202.487C391.89 202.344 391.966 202.216 392.08 202.127C392.194 202.037 392.336 201.992 392.48 202.001C392.625 202.01 392.761 202.071 392.863 202.174C392.965 202.276 393.026 202.412 393.034 202.557L391.724 224.667C391.714 224.813 391.651 224.95 391.545 225.052C391.44 225.153 391.301 225.212 391.154 225.217L371.474 225.997L359.094 245.147C359.039 245.229 358.965 245.295 358.877 245.341C358.79 245.386 358.693 245.409 358.594 245.407Z" fill="white"/>
<path d="M325.275 169.447C323.745 177.527 322.785 194.137 327.275 227.017H367.275C366.555 221.317 363.685 190.897 369.615 161.937C365.189 161.088 360.713 160.524 356.215 160.247C350.553 159.918 344.877 159.918 339.215 160.247C337.335 160.417 335.495 160.687 333.855 160.977C331.734 161.351 329.777 162.362 328.245 163.875C326.712 165.388 325.676 167.331 325.275 169.447Z" fill="#263238"/>
<path opacity="0.2" d="M331.575 182L324.055 182.6C323.785 192.33 324.455 206.53 327.235 227.12H327.595C332.105 212.29 338.085 191.09 331.575 182Z" fill="black"/>
<path opacity="0.2" d="M351 400L351.38 408.93H358.87L358.49 400H351Z" fill="black"/>
<path d="M358.342 136.872C356.422 144.052 355.652 148.342 351.232 151.332C344.572 155.812 336.232 150.662 336.012 143.062C335.782 136.212 338.962 125.632 346.662 124.182C348.358 123.856 350.11 123.969 351.751 124.51C353.392 125.051 354.867 126.002 356.038 127.273C357.208 128.544 358.033 130.093 358.437 131.773C358.84 133.453 358.807 135.209 358.342 136.872Z" fill="#7F3E3B"/>
<path d="M340.89 137.094L337 138.094L340.62 128.704C339.663 126.404 339.546 123.841 340.29 121.464C340.428 121.041 340.696 120.673 341.055 120.411C341.414 120.149 341.846 120.007 342.29 120.004C350.35 119.854 358.78 124.374 363.02 127.794C363.416 128.112 363.681 128.564 363.768 129.065C363.854 129.566 363.756 130.081 363.49 130.514C362.445 132.063 361.22 133.483 359.84 134.744C359.76 137.374 355.47 149.244 353.1 150.584C350.73 151.924 346.18 151.374 344.97 149.204C343.76 147.034 339.7 144.174 340.89 137.094Z" fill="#263238"/>
<path d="M345.223 137.493C344.78 139.283 343.761 140.878 342.323 142.033C340.413 143.533 338.923 142.153 339.003 139.943C339.073 137.943 340.153 134.783 342.283 134.133C344.413 133.483 345.723 135.323 345.223 137.493Z" fill="#7F3E3B"/>
<path d="M413 415.335C413 414.335 413.12 413.445 413.55 413.125C413.664 413.044 413.8 413 413.94 413C414.08 413 414.216 413.044 414.33 413.125C414.535 413.251 414.682 413.452 414.74 413.685C415.09 414.925 413.62 417.555 413.55 417.685C413.535 417.719 413.509 417.746 413.476 417.762C413.443 417.778 413.406 417.783 413.37 417.775C413.335 417.769 413.303 417.753 413.278 417.728C413.252 417.703 413.236 417.67 413.23 417.635C413.087 416.877 413.01 416.107 413 415.335ZM414.45 414.135C414.467 414.022 414.467 413.908 414.45 413.795C414.438 413.722 414.409 413.652 414.365 413.591C414.322 413.531 414.266 413.481 414.2 413.445C413.98 413.325 413.87 413.365 413.81 413.445C413.33 413.795 413.33 415.685 413.54 417.075C414.028 416.162 414.337 415.164 414.45 414.135Z" fill="url(#paint59_linear)"/>
<path d="M413.005 417.647C413.001 417.623 413.001 417.6 413.005 417.577C413.405 416.677 415.005 414.877 415.855 415.007C416.055 415.007 416.305 415.177 416.355 415.657C416.378 415.835 416.363 416.016 416.311 416.189C416.26 416.361 416.172 416.52 416.055 416.657C415.285 417.657 413.265 417.827 413.185 417.837C413.154 417.842 413.123 417.838 413.094 417.825C413.066 417.813 413.042 417.793 413.025 417.767C413.013 417.749 413.005 417.729 413.002 417.709C412.999 417.688 413 417.667 413.005 417.647ZM416.005 415.807C416.005 415.807 416.005 415.737 416.005 415.697C416.005 415.377 415.845 415.357 415.805 415.357C415.295 415.277 414.035 416.497 413.485 417.427C414.335 417.335 415.137 416.986 415.785 416.427C415.937 416.255 416.025 416.036 416.035 415.807H416.005Z" fill="url(#paint60_linear)"/>
<path d="M413.41 417.47L406.1 417.99L402 400.52L409.3 400L413.41 417.47Z" fill="#7F3E3B"/>
<path d="M413.931 415.724L405.791 415.004C405.643 414.988 405.495 415.024 405.37 415.106C405.246 415.188 405.155 415.311 405.111 415.454L403.051 421.954C403 422.114 402.987 422.284 403.013 422.45C403.038 422.616 403.102 422.774 403.199 422.912C403.296 423.049 403.423 423.163 403.571 423.243C403.719 423.323 403.883 423.368 404.051 423.374C406.991 423.584 411.251 423.784 414.941 424.114C419.251 424.494 416.461 424.484 421.521 424.934C424.581 425.204 425.711 422.184 424.451 421.794C418.731 419.994 417.691 418.794 415.721 416.464C415.487 416.228 415.208 416.042 414.9 415.915C414.593 415.788 414.264 415.723 413.931 415.724Z" fill="#263238"/>
<path opacity="0.2" d="M402 400.51L404.12 409.52L411.42 409L409.31 400L402 400.51Z" fill="black"/>
<path d="M342 227C342 227 359.21 284.5 365.75 305.84C372.9 329.21 400.12 406.74 400.12 406.74L413.32 403.84C413.32 403.84 394.67 337.23 386.94 304.63C381 279.63 367.83 227 367.83 227H342Z" fill="url(#paint61_linear)"/>
<path d="M398.002 402.27C397.942 402.27 399.302 407.42 399.302 407.42L415.172 405.72L415.102 401L398.002 402.27Z" fill="#263238"/>
<path opacity="0.3" d="M351.5 253.042C361.03 254.292 364.82 287.502 366.25 306.982C366.07 306.362 365.88 305.782 365.71 305.222C362.15 293.572 355.4 271.122 350 253.152C350.484 252.998 350.998 252.96 351.5 253.042Z" fill="black"/>
<path d="M328 227C328 227 333.77 283 336.26 305.79C338.84 329.5 348.58 407.27 348.58 407.27H361.26C361.26 407.27 359.72 330.92 359.21 307.6C358.65 282.18 354.33 227 354.33 227H328Z" fill="url(#paint62_linear)"/>
<path d="M346.003 402C345.943 402 346.713 407.26 346.713 407.26H362.133L362.553 402.57L346.003 402Z" fill="#263238"/>
<path d="M336.446 171.804C335.226 177.804 333.926 183.787 332.546 189.754L328.406 207.614C327.056 213.434 325.906 219.334 324.856 225.324L321.716 243.324C321.6 244.015 321.231 244.638 320.681 245.072C320.131 245.506 319.439 245.719 318.739 245.67C318.04 245.621 317.385 245.314 316.9 244.809C316.415 244.303 316.136 243.634 316.116 242.934C315.896 236.684 315.996 230.504 316.346 224.284C316.692 218.027 317.36 211.792 318.346 205.604C319.346 199.484 320.416 193.434 321.596 187.394C322.776 181.354 324.026 175.334 325.416 169.394C325.752 167.941 326.647 166.679 327.906 165.881C329.166 165.082 330.689 164.813 332.146 165.13C333.603 165.447 334.877 166.325 335.691 167.574C336.505 168.823 336.795 170.343 336.496 171.804H336.446Z" fill="url(#paint63_linear)"/>
<path d="M320.704 241.649C320.452 241.383 320.135 241.189 319.784 241.085C319.432 240.981 319.06 240.972 318.704 241.059L317.084 241.449C316.677 241.545 316.308 241.763 316.028 242.074C315.747 242.385 315.568 242.773 315.514 243.189L315.044 246.799C314.898 247.84 315.117 248.9 315.664 249.799L317.904 253.499C318.191 253.879 318.581 254.17 319.027 254.336C319.474 254.503 319.958 254.538 320.424 254.439L322.754 253.949C323.099 253.875 323.424 253.73 323.71 253.522C323.995 253.315 324.233 253.05 324.409 252.744C324.585 252.439 324.696 252.1 324.733 251.749C324.77 251.399 324.733 251.044 324.624 250.709L324.014 248.829C323.789 246.121 322.617 243.579 320.704 241.649Z" fill="#7F3E3B"/>
<path d="M344.87 168.695C348.51 178.345 335.93 192.115 335.93 192.115L320 186.845C320 186.845 321.22 173.675 326.75 166.245C333.57 157.035 342.1 161.305 344.87 168.695Z" fill="#263238"/>
<defs>
<linearGradient id="paint0_linear" x1="391.82" y1="100" x2="391.82" y2="324.866" gradientUnits="userSpaceOnUse">
<stop stop-color="#4070FF"/>
<stop offset="1" stop-color="#365FD9"/>
</linearGradient>
<linearGradient id="paint1_linear" x1="443.78" y1="414" x2="443.78" y2="436.64" gradientUnits="userSpaceOnUse">
<stop stop-color="#4070FF"/>
<stop offset="1" stop-color="#365FD9"/>
</linearGradient>
<linearGradient id="paint2_linear" x1="219" y1="185" x2="219" y2="236.856" gradientUnits="userSpaceOnUse">
<stop stop-color="#4070FF"/>
<stop offset="1" stop-color="#365FD9"/>
</linearGradient>
<linearGradient id="paint3_linear" x1="250.324" y1="172" x2="250.324" y2="249.112" gradientUnits="userSpaceOnUse">
<stop stop-color="#4070FF"/>
<stop offset="1" stop-color="#365FD9"/>
</linearGradient>
<linearGradient id="paint4_linear" x1="118.22" y1="83" x2="118.22" y2="83.87" gradientUnits="userSpaceOnUse">
<stop stop-color="#4070FF"/>
<stop offset="1" stop-color="#365FD9"/>
</linearGradient>
<linearGradient id="paint5_linear" x1="103.44" y1="83" x2="103.44" y2="83.87" gradientUnits="userSpaceOnUse">
<stop stop-color="#4070FF"/>
<stop offset="1" stop-color="#365FD9"/>
</linearGradient>
<linearGradient id="paint6_linear" x1="190.344" y1="86" x2="190.344" y2="163.042" gradientUnits="userSpaceOnUse">
<stop stop-color="#4070FF"/>
<stop offset="1" stop-color="#365FD9"/>
</linearGradient>
<linearGradient id="paint7_linear" x1="130.12" y1="98" x2="130.12" y2="102.71" gradientUnits="userSpaceOnUse">
<stop stop-color="#4070FF"/>
<stop offset="1" stop-color="#365FD9"/>
</linearGradient>
<linearGradient id="paint8_linear" x1="97" y1="110" x2="97" y2="114.72" gradientUnits="userSpaceOnUse">
<stop stop-color="#4070FF"/>
<stop offset="1" stop-color="#365FD9"/>
</linearGradient>
<linearGradient id="paint9_linear" x1="126.87" y1="122" x2="126.87" y2="126.71" gradientUnits="userSpaceOnUse">
<stop stop-color="#4070FF"/>
<stop offset="1" stop-color="#365FD9"/>
</linearGradient>
<linearGradient id="paint10_linear" x1="157.9" y1="134" x2="157.9" y2="138.71" gradientUnits="userSpaceOnUse">
<stop stop-color="#4070FF"/>
<stop offset="1" stop-color="#365FD9"/>
</linearGradient>
<linearGradient id="paint11_linear" x1="119.92" y1="147" x2="119.92" y2="151.72" gradientUnits="userSpaceOnUse">
<stop stop-color="#4070FF"/>
<stop offset="1" stop-color="#365FD9"/>
</linearGradient>
<linearGradient id="paint12_linear" x1="313.354" y1="86" x2="313.354" y2="163.042" gradientUnits="userSpaceOnUse">
<stop stop-color="#4070FF"/>
<stop offset="1" stop-color="#365FD9"/>
</linearGradient>
<linearGradient id="paint13_linear" x1="260.75" y1="108" x2="260.75" y2="129.02" gradientUnits="userSpaceOnUse">
<stop stop-color="#4070FF"/>
<stop offset="1" stop-color="#365FD9"/>
</linearGradient>
<linearGradient id="paint14_linear" x1="241.54" y1="115" x2="241.54" y2="133.43" gradientUnits="userSpaceOnUse">
<stop stop-color="#4070FF"/>
<stop offset="1" stop-color="#365FD9"/>
</linearGradient>
<linearGradient id="paint15_linear" x1="301.18" y1="119" x2="301.18" y2="145.4" gradientUnits="userSpaceOnUse">
<stop stop-color="#4070FF"/>
<stop offset="1" stop-color="#365FD9"/>
</linearGradient>
<linearGradient id="paint16_linear" x1="217.334" y1="257" x2="217.334" y2="334.102" gradientUnits="userSpaceOnUse">
<stop stop-color="#4070FF"/>
<stop offset="1" stop-color="#365FD9"/>
</linearGradient>
<linearGradient id="paint17_linear" x1="204.44" y1="283" x2="204.44" y2="322.54" gradientUnits="userSpaceOnUse">
<stop stop-color="#4070FF"/>
<stop offset="1" stop-color="#365FD9"/>
</linearGradient>
<linearGradient id="paint18_linear" x1="385.456" y1="165" x2="385.456" y2="226.89" gradientUnits="userSpaceOnUse">
<stop stop-color="#4070FF"/>
<stop offset="1" stop-color="#365FD9"/>
</linearGradient>
<linearGradient id="paint19_linear" x1="360.12" y1="156" x2="360.12" y2="163.098" gradientUnits="userSpaceOnUse">
<stop stop-color="#4070FF"/>
<stop offset="1" stop-color="#365FD9"/>
</linearGradient>
<linearGradient id="paint20_linear" x1="350.777" y1="416" x2="350.777" y2="417.8" gradientUnits="userSpaceOnUse">
<stop stop-color="#4070FF"/>
<stop offset="1" stop-color="#365FD9"/>
</linearGradient>
<linearGradient id="paint21_linear" x1="350.838" y1="414" x2="350.838" y2="417.383" gradientUnits="userSpaceOnUse">
<stop stop-color="#4070FF"/>
<stop offset="1" stop-color="#365FD9"/>
</linearGradient>
<linearGradient id="paint22_linear" x1="394.831" y1="190.292" x2="411.717" y2="232.553" gradientUnits="userSpaceOnUse">
<stop stop-color="#4070FF"/>
<stop offset="1" stop-color="#365FD9"/>
</linearGradient>
<linearGradient id="paint23_linear" x1="348.302" y1="212.881" x2="349.805" y2="216.642" gradientUnits="userSpaceOnUse">
<stop stop-color="#4070FF"/>
<stop offset="1" stop-color="#365FD9"/>
</linearGradient>
<linearGradient id="paint24_linear" x1="357.302" y1="208.881" x2="358.805" y2="212.642" gradientUnits="userSpaceOnUse">
<stop stop-color="#4070FF"/>
<stop offset="1" stop-color="#365FD9"/>
</linearGradient>
<linearGradient id="paint25_linear" x1="366.302" y1="205.881" x2="367.805" y2="209.642" gradientUnits="userSpaceOnUse">
<stop stop-color="#4070FF"/>
<stop offset="1" stop-color="#365FD9"/>
</linearGradient>
<linearGradient id="paint26_linear" x1="374.302" y1="201.881" x2="375.805" y2="205.642" gradientUnits="userSpaceOnUse">
<stop stop-color="#4070FF"/>
<stop offset="1" stop-color="#365FD9"/>
</linearGradient>
<linearGradient id="paint27_linear" x1="383.302" y1="198.881" x2="384.805" y2="202.642" gradientUnits="userSpaceOnUse">
<stop stop-color="#4070FF"/>
<stop offset="1" stop-color="#365FD9"/>
</linearGradient>
<linearGradient id="paint28_linear" x1="392.302" y1="194.881" x2="393.805" y2="198.642" gradientUnits="userSpaceOnUse">
<stop stop-color="#4070FF"/>
<stop offset="1" stop-color="#365FD9"/>
</linearGradient>
<linearGradient id="paint29_linear" x1="350.302" y1="218.881" x2="351.805" y2="222.642" gradientUnits="userSpaceOnUse">
<stop stop-color="#4070FF"/>
<stop offset="1" stop-color="#365FD9"/>
</linearGradient>
<linearGradient id="paint30_linear" x1="359.302" y1="214.881" x2="360.805" y2="218.642" gradientUnits="userSpaceOnUse">
<stop stop-color="#4070FF"/>
<stop offset="1" stop-color="#365FD9"/>
</linearGradient>
<linearGradient id="paint31_linear" x1="368.302" y1="211.881" x2="369.805" y2="215.642" gradientUnits="userSpaceOnUse">
<stop stop-color="#4070FF"/>
<stop offset="1" stop-color="#365FD9"/>
</linearGradient>
<linearGradient id="paint32_linear" x1="377.302" y1="207.881" x2="378.805" y2="211.642" gradientUnits="userSpaceOnUse">
<stop stop-color="#4070FF"/>
<stop offset="1" stop-color="#365FD9"/>
</linearGradient>
<linearGradient id="paint33_linear" x1="385.302" y1="204.881" x2="386.805" y2="208.642" gradientUnits="userSpaceOnUse">
<stop stop-color="#4070FF"/>
<stop offset="1" stop-color="#365FD9"/>
</linearGradient>
<linearGradient id="paint34_linear" x1="394.302" y1="200.881" x2="395.805" y2="204.642" gradientUnits="userSpaceOnUse">
<stop stop-color="#4070FF"/>
<stop offset="1" stop-color="#365FD9"/>
</linearGradient>
<linearGradient id="paint35_linear" x1="353.302" y1="224.881" x2="354.805" y2="228.642" gradientUnits="userSpaceOnUse">
<stop stop-color="#4070FF"/>
<stop offset="1" stop-color="#365FD9"/>
</linearGradient>
<linearGradient id="paint36_linear" x1="362.302" y1="221.881" x2="363.805" y2="225.642" gradientUnits="userSpaceOnUse">
<stop stop-color="#4070FF"/>
<stop offset="1" stop-color="#365FD9"/>
</linearGradient>
<linearGradient id="paint37_linear" x1="370.302" y1="217.881" x2="371.805" y2="221.642" gradientUnits="userSpaceOnUse">
<stop stop-color="#4070FF"/>
<stop offset="1" stop-color="#365FD9"/>
</linearGradient>
<linearGradient id="paint38_linear" x1="379.302" y1="214.881" x2="380.805" y2="218.642" gradientUnits="userSpaceOnUse">
<stop stop-color="#4070FF"/>
<stop offset="1" stop-color="#365FD9"/>
</linearGradient>
<linearGradient id="paint39_linear" x1="388.302" y1="210.881" x2="389.805" y2="214.642" gradientUnits="userSpaceOnUse">
<stop stop-color="#4070FF"/>
<stop offset="1" stop-color="#365FD9"/>
</linearGradient>
<linearGradient id="paint40_linear" x1="397.302" y1="207.881" x2="398.805" y2="211.642" gradientUnits="userSpaceOnUse">
<stop stop-color="#4070FF"/>
<stop offset="1" stop-color="#365FD9"/>
</linearGradient>
<linearGradient id="paint41_linear" x1="355.302" y1="230.881" x2="356.805" y2="234.642" gradientUnits="userSpaceOnUse">
<stop stop-color="#4070FF"/>
<stop offset="1" stop-color="#365FD9"/>
</linearGradient>
<linearGradient id="paint42_linear" x1="364.302" y1="227.881" x2="365.805" y2="231.642" gradientUnits="userSpaceOnUse">
<stop stop-color="#4070FF"/>
<stop offset="1" stop-color="#365FD9"/>
</linearGradient>
<linearGradient id="paint43_linear" x1="373.302" y1="223.881" x2="374.805" y2="227.642" gradientUnits="userSpaceOnUse">
<stop stop-color="#4070FF"/>
<stop offset="1" stop-color="#365FD9"/>
</linearGradient>
<linearGradient id="paint44_linear" x1="382.302" y1="220.881" x2="383.805" y2="224.642" gradientUnits="userSpaceOnUse">
<stop stop-color="#4070FF"/>
<stop offset="1" stop-color="#365FD9"/>
</linearGradient>
<linearGradient id="paint45_linear" x1="390.302" y1="216.881" x2="391.805" y2="220.642" gradientUnits="userSpaceOnUse">
<stop stop-color="#4070FF"/>
<stop offset="1" stop-color="#365FD9"/>
</linearGradient>
<linearGradient id="paint46_linear" x1="399.302" y1="213.881" x2="400.805" y2="217.642" gradientUnits="userSpaceOnUse">
<stop stop-color="#4070FF"/>
<stop offset="1" stop-color="#365FD9"/>
</linearGradient>
<linearGradient id="paint47_linear" x1="358.302" y1="236.881" x2="359.805" y2="240.642" gradientUnits="userSpaceOnUse">
<stop stop-color="#4070FF"/>
<stop offset="1" stop-color="#365FD9"/>
</linearGradient>
<linearGradient id="paint48_linear" x1="367.302" y1="233.881" x2="368.805" y2="237.642" gradientUnits="userSpaceOnUse">
<stop stop-color="#4070FF"/>
<stop offset="1" stop-color="#365FD9"/>
</linearGradient>
<linearGradient id="paint49_linear" x1="375.302" y1="229.881" x2="376.805" y2="233.642" gradientUnits="userSpaceOnUse">
<stop stop-color="#4070FF"/>
<stop offset="1" stop-color="#365FD9"/>
</linearGradient>
<linearGradient id="paint50_linear" x1="384.302" y1="226.881" x2="385.805" y2="230.642" gradientUnits="userSpaceOnUse">
<stop stop-color="#4070FF"/>
<stop offset="1" stop-color="#365FD9"/>
</linearGradient>
<linearGradient id="paint51_linear" x1="393.302" y1="222.881" x2="394.805" y2="226.642" gradientUnits="userSpaceOnUse">
<stop stop-color="#4070FF"/>
<stop offset="1" stop-color="#365FD9"/>
</linearGradient>
<linearGradient id="paint52_linear" x1="402.302" y1="219.881" x2="403.805" y2="223.642" gradientUnits="userSpaceOnUse">
<stop stop-color="#4070FF"/>
<stop offset="1" stop-color="#365FD9"/>
</linearGradient>
<linearGradient id="paint53_linear" x1="360.302" y1="243.881" x2="361.805" y2="247.642" gradientUnits="userSpaceOnUse">
<stop stop-color="#4070FF"/>
<stop offset="1" stop-color="#365FD9"/>
</linearGradient>
<linearGradient id="paint54_linear" x1="369.302" y1="239.881" x2="370.805" y2="243.642" gradientUnits="userSpaceOnUse">
<stop stop-color="#4070FF"/>
<stop offset="1" stop-color="#365FD9"/>
</linearGradient>
<linearGradient id="paint55_linear" x1="378.302" y1="236.881" x2="379.805" y2="240.642" gradientUnits="userSpaceOnUse">
<stop stop-color="#4070FF"/>
<stop offset="1" stop-color="#365FD9"/>
</linearGradient>
<linearGradient id="paint56_linear" x1="387.302" y1="232.881" x2="388.805" y2="236.642" gradientUnits="userSpaceOnUse">
<stop stop-color="#4070FF"/>
<stop offset="1" stop-color="#365FD9"/>
</linearGradient>
<linearGradient id="paint57_linear" x1="395.302" y1="229.881" x2="396.805" y2="233.642" gradientUnits="userSpaceOnUse">
<stop stop-color="#4070FF"/>
<stop offset="1" stop-color="#365FD9"/>
</linearGradient>
<linearGradient id="paint58_linear" x1="404.302" y1="225.881" x2="405.805" y2="229.642" gradientUnits="userSpaceOnUse">
<stop stop-color="#4070FF"/>
<stop offset="1" stop-color="#365FD9"/>
</linearGradient>
<linearGradient id="paint59_linear" x1="414.794" y1="413" x2="414.794" y2="417.779" gradientUnits="userSpaceOnUse">
<stop stop-color="#4070FF"/>
<stop offset="1" stop-color="#365FD9"/>
</linearGradient>
<linearGradient id="paint60_linear" x1="416.365" y1="415" x2="416.365" y2="417.839" gradientUnits="userSpaceOnUse">
<stop stop-color="#4070FF"/>
<stop offset="1" stop-color="#365FD9"/>
</linearGradient>
<linearGradient id="paint61_linear" x1="413.32" y1="227" x2="413.32" y2="406.74" gradientUnits="userSpaceOnUse">
<stop stop-color="#4070FF"/>
<stop offset="1" stop-color="#365FD9"/>
</linearGradient>
<linearGradient id="paint62_linear" x1="361.26" y1="227" x2="361.26" y2="407.27" gradientUnits="userSpaceOnUse">
<stop stop-color="#4070FF"/>
<stop offset="1" stop-color="#365FD9"/>
</linearGradient>
<linearGradient id="paint63_linear" x1="336.611" y1="165" x2="336.611" y2="245.677" gradientUnits="userSpaceOnUse">
<stop stop-color="#4070FF"/>
<stop offset="1" stop-color="#365FD9"/>
</linearGradient>
</defs>
</svg>
