<svg width="500" height="500" viewBox="0 0 500 500" fill="none" xmlns="http://www.w3.org/2000/svg">
<path opacity="0.1" d="M151.655 108.523C186.582 111.264 221.509 98.6411 251.546 79.455C387.332 -22.938 571.109 109.806 409.963 237.797C330.478 304.76 248.943 303.012 167.886 290.728C3.24557 273.403 18.3204 149.8 43.6043 118.204C69.278 87.3884 117.935 106.763 151.655 108.523Z" fill="url(#paint0_linear)"/>
<path opacity="0.1" d="M250 427.56C357.082 427.56 443.89 422.492 443.89 416.24C443.89 409.988 357.082 404.92 250 404.92C142.917 404.92 56.11 409.988 56.11 416.24C56.11 422.492 142.917 427.56 250 427.56Z" fill="url(#paint1_linear)"/>
<path d="M222.63 191.56H200.55V416.24H222.63C237.383 416.24 251.991 413.334 265.621 407.689C279.25 402.043 291.635 393.768 302.066 383.336C312.498 372.905 320.773 360.52 326.419 346.891C332.064 333.261 334.97 318.653 334.97 303.9C334.97 289.147 332.064 274.539 326.419 260.909C320.773 247.28 312.498 234.895 302.066 224.464C291.635 214.032 279.25 205.757 265.621 200.111C251.991 194.466 237.383 191.56 222.63 191.56Z" fill="url(#paint2_linear)"/>
<path opacity="0.1" d="M222.63 191.56H200.55V416.24H222.63C237.383 416.24 251.991 413.334 265.621 407.689C279.25 402.043 291.635 393.768 302.066 383.336C312.498 372.905 320.773 360.52 326.419 346.891C332.064 333.261 334.97 318.653 334.97 303.9C334.97 289.147 332.064 274.539 326.419 260.909C320.773 247.28 312.498 234.895 302.066 224.464C291.635 214.032 279.25 205.757 265.621 200.111C251.991 194.466 237.383 191.56 222.63 191.56Z" fill="black"/>
<path d="M149.52 201L149.07 200.11C156.879 196.22 165.105 193.23 173.59 191.2L173.82 192.2C165.414 194.206 157.261 197.158 149.52 201Z" fill="url(#paint3_linear)"/>
<path d="M136.54 208.59L135.99 207.76C138.14 206.32 140.36 204.92 142.59 203.63L143.09 204.49C140.88 205.78 138.68 207.16 136.54 208.59Z" fill="url(#paint4_linear)"/>
<path d="M279.986 383.336C323.858 339.464 323.858 268.335 279.986 224.463C236.115 180.592 164.985 180.592 121.114 224.463C77.2421 268.335 77.2421 339.464 121.114 383.336C164.985 427.207 236.115 427.207 279.986 383.336Z" fill="url(#paint5_linear)"/>
<path opacity="0.1" d="M269.1 243.28C251.656 227.815 228.967 219.592 205.665 220.289C182.364 220.986 160.207 230.551 143.718 247.03C127.23 263.51 117.653 285.662 116.943 308.963C116.234 332.264 124.445 354.958 139.9 372.41C130.561 364.131 123.014 354.028 117.724 342.724C112.435 331.42 109.513 319.153 109.14 306.678C108.767 294.202 110.95 281.783 115.555 270.183C120.16 258.582 127.089 248.047 135.916 239.224C144.744 230.401 155.283 223.478 166.886 218.879C178.489 214.281 190.909 212.104 203.384 212.484C215.859 212.864 228.125 215.792 239.426 221.088C250.727 226.384 260.826 233.936 269.1 243.28Z" fill="black"/>
<path opacity="0.1" d="M244.94 312.09C242.08 308.543 237.62 306.04 231.56 304.58C235.031 303.528 238.166 301.583 240.65 298.94C243.755 295.397 245.421 290.82 245.32 286.11C245.377 283.287 244.823 280.485 243.696 277.896C242.569 275.307 240.895 272.992 238.79 271.11C234.43 267.11 228.187 265.11 220.06 265.11H215.06V250.94H205.6V265.11H193.87V250.94H184.42V265.11H163.87V282.2H171.26V332.37H163.87V349.46H184.42V363.63H193.87V349.46H205.6V363.63H215.06V349.46H216.26C220.17 349.279 224.069 348.895 227.94 348.31C232.353 347.743 235.653 346.823 237.84 345.55C241.305 343.579 244.184 340.721 246.18 337.27C248.218 333.676 249.254 329.601 249.18 325.47C249.213 320.103 247.8 315.643 244.94 312.09ZM197.56 282.2H209.07C213.023 282.2 215.793 282.89 217.38 284.27C218.183 284.991 218.814 285.882 219.228 286.879C219.641 287.876 219.827 288.952 219.77 290.03C219.842 291.155 219.665 292.283 219.252 293.332C218.839 294.381 218.2 295.326 217.38 296.1C215.793 297.5 212.963 298.2 208.89 298.2H197.56V282.2ZM220.34 329C218.5 330.593 215.337 331.39 210.85 331.39H197.56V314.25H210.79C215.363 314.25 218.557 315.007 220.37 316.52C221.256 317.243 221.964 318.16 222.439 319.201C222.914 320.241 223.144 321.377 223.11 322.52C223.174 323.74 222.957 324.958 222.477 326.081C221.997 327.205 221.266 328.203 220.34 329Z" fill="black"/>
<path d="M241.78 312.09C238.92 308.543 234.46 306.04 228.4 304.58C231.873 303.526 235.01 301.581 237.5 298.94C240.598 295.394 242.26 290.818 242.16 286.11C242.217 283.287 241.663 280.485 240.536 277.896C239.409 275.307 237.735 272.992 235.63 271.11C231.27 267.11 225.027 265.11 216.9 265.11H211.9V250.94H202.45V265.11H190.71V250.94H181.26V265.11H160.71V282.2H168.1V332.37H160.71V349.46H181.26V363.63H190.71V349.46H202.45V363.63H211.9V349.46H213.1C217.011 349.279 220.909 348.895 224.78 348.31C229.187 347.743 232.487 346.823 234.68 345.55C238.148 343.582 241.027 340.723 243.02 337.27C245.058 333.676 246.094 329.601 246.02 325.47C246.053 320.103 244.64 315.643 241.78 312.09ZM194.4 282.2H205.91C209.863 282.2 212.633 282.89 214.22 284.27C215.023 284.991 215.654 285.882 216.068 286.879C216.481 287.876 216.667 288.952 216.61 290.03C216.682 291.155 216.506 292.283 216.092 293.332C215.679 294.381 215.04 295.326 214.22 296.1C212.627 297.5 209.797 298.2 205.73 298.2H194.4V282.2ZM217.18 329C215.34 330.593 212.177 331.39 207.69 331.39H194.4V314.25H207.63C212.197 314.25 215.39 315.007 217.21 316.52C218.098 317.242 218.807 318.159 219.282 319.199C219.758 320.24 219.986 321.376 219.95 322.52C220.014 323.74 219.797 324.958 219.317 326.081C218.837 327.205 218.106 328.203 217.18 329Z" fill="white"/>
<path d="M308.07 142.92C313.477 142.92 317.86 138.604 317.86 133.28C317.86 127.956 313.477 123.64 308.07 123.64C302.663 123.64 298.28 127.956 298.28 133.28C298.28 138.604 302.663 142.92 308.07 142.92Z" fill="#263238"/>
<path d="M316.75 141.38C316.764 142.461 316.456 143.521 315.866 144.427C315.276 145.332 314.429 146.042 313.435 146.465C312.44 146.888 311.342 147.006 310.28 146.804C309.219 146.601 308.241 146.088 307.472 145.329C306.703 144.569 306.177 143.598 305.961 142.539C305.745 141.48 305.848 140.381 306.259 139.381C306.669 138.381 307.367 137.526 308.265 136.924C309.163 136.322 310.219 136 311.3 136C312.011 135.995 312.717 136.13 313.376 136.397C314.035 136.665 314.635 137.06 315.141 137.56C315.647 138.059 316.05 138.654 316.326 139.31C316.602 139.965 316.746 140.669 316.75 141.38Z" fill="#263238"/>
<path d="M321.53 141.13C326.937 141.13 331.32 136.814 331.32 131.49C331.32 126.166 326.937 121.85 321.53 121.85C316.123 121.85 311.74 126.166 311.74 131.49C311.74 136.814 316.123 141.13 321.53 141.13Z" fill="#263238"/>
<path d="M322.97 408.01L331 407.89L333.31 389.27L325.28 389.39L322.97 408.01Z" fill="#FF8B7B"/>
<path d="M371.85 407.58L379.11 403.34L373.29 386.17L366.04 390.41L371.85 407.58Z" fill="#FF8B7B"/>
<path d="M379.89 402.77L371.38 407.6C371.24 407.676 371.132 407.799 371.073 407.947C371.015 408.095 371.01 408.259 371.06 408.41L373.2 415.41C373.254 415.579 373.345 415.733 373.466 415.861C373.588 415.99 373.736 416.09 373.902 416.153C374.067 416.217 374.244 416.242 374.42 416.228C374.597 416.213 374.767 416.159 374.92 416.07C377.63 414.47 379.54 413.18 382.99 411.22C385.11 410.02 391.64 406.61 394.57 404.94C397.5 403.27 396.24 400.17 394.89 400.58C388.84 402.46 383.89 403.14 381.27 402.58C380.802 402.476 380.313 402.543 379.89 402.77Z" fill="#263238"/>
<path d="M331.16 407L322.39 407.14C322.232 407.141 322.08 407.197 321.958 407.297C321.836 407.397 321.752 407.536 321.72 407.69L320.25 414.85C320.212 415.023 320.214 415.202 320.255 415.373C320.297 415.545 320.377 415.705 320.49 415.841C320.603 415.977 320.745 416.086 320.907 416.158C321.068 416.231 321.243 416.266 321.42 416.26C324.58 416.16 329.15 415.9 333.12 415.84C337.77 415.77 341.79 415.96 347.24 415.84C350.53 415.79 351.39 412.45 350.01 412.17C343.71 410.89 338.58 410.82 333.1 407.56C332.517 407.199 331.846 407.005 331.16 407Z" fill="#263238"/>
<path d="M343.4 163.85C344.52 166.2 345.73 168.74 346.96 171.15C348.19 173.56 349.45 176.03 350.75 178.41C353.246 183.117 356.045 187.656 359.13 192L359.7 192.79C359.79 192.91 359.79 192.92 359.78 192.94C359.53 192.823 359.264 192.745 358.99 192.71C358.55 192.66 358.23 192.81 358.27 192.85C358.483 192.814 358.685 192.728 358.86 192.6C359.691 192.027 360.45 191.355 361.12 190.6C361.96 189.688 362.748 188.73 363.48 187.73C365.05 185.67 366.48 183.39 367.95 181.07C369.42 178.75 370.78 176.33 372.11 173.98L377.73 176.17C376.213 181.903 374.049 187.446 371.28 192.69C370.513 194.068 369.672 195.403 368.76 196.69C367.719 198.176 366.488 199.521 365.1 200.69C364.178 201.461 363.147 202.091 362.04 202.56C360.505 203.211 358.821 203.432 357.17 203.2C355.498 202.921 353.933 202.195 352.64 201.1C352.146 200.68 351.681 200.225 351.25 199.74L350.51 198.86C348.534 196.584 346.694 194.193 345 191.7C343.29 189.27 341.75 186.77 340.25 184.26C338.75 181.75 337.36 179.19 336.03 176.6C334.7 174.01 333.45 171.45 332.26 168.6L343.4 163.85Z" fill="#FF8B7B"/>
<path d="M329 163.8C326.84 171.16 342.08 191.23 342.08 191.23L357.44 181.35C354.544 174.987 350.973 168.952 346.79 163.35C340.45 155.28 331.33 155.72 329 163.8Z" fill="url(#paint6_linear)"/>
<path opacity="0.2" d="M338.32 172.44C341.48 173.79 346.13 181.44 348.55 187.04L342 191.23C338.358 186.36 335.082 181.226 332.2 175.87C334.29 173.61 336.65 171.73 338.32 172.44Z" fill="black"/>
<path d="M372.19 177.09L370.19 168.04L379.32 167.97C379.32 167.97 381.76 174.77 376.86 177.97L372.19 177.09Z" fill="#FF8B7B"/>
<path d="M371.26 159.56L378.58 162.19L379.35 167.97L370.22 168.04L371.26 159.56Z" fill="#FF8B7B"/>
<path opacity="0.2" d="M333.31 389.27L332.12 398.87L324.08 399L325.28 389.4L333.31 389.27Z" fill="black"/>
<path opacity="0.2" d="M366.04 390.41L373.3 386.18L376.29 395.03L369.03 399.26L366.04 390.41Z" fill="black"/>
<path d="M293.17 160.54C301.82 191.03 300.08 223.39 300.86 229.94C307.13 229.49 330.78 227.72 343.67 226.76C347.78 180.89 338.05 157.6 338.05 157.6C338.05 157.6 335.3 157.07 331.55 156.68C330.38 156.56 329.11 156.46 327.79 156.39C327.06 156.39 326.32 156.32 325.57 156.31C319.483 156.414 313.406 156.865 307.37 157.66C306.23 157.8 305.07 157.98 303.94 158.16C302.81 158.34 301.88 158.53 300.94 158.72C296.55 159.59 293.17 160.54 293.17 160.54Z" fill="url(#paint7_linear)"/>
<path opacity="0.1" d="M323.62 188.26L316.87 191.56L309.51 188.83L308.3 176.98L322.42 176.41L323.62 188.26Z" fill="white"/>
<path opacity="0.2" d="M302.31 173.62C303.08 176.57 302.2 190.03 299.12 193.35C298.7 189.04 298.12 184.54 297.4 179.94L302.31 173.62Z" fill="black"/>
<path d="M307.65 137C309.24 142.77 311.18 153.42 307.37 157.63C310.79 160.56 315.22 163.9 322.2 163.63C329.18 163.36 327.6 158.63 325.57 156.28C318.93 155.2 318.73 150.34 319.57 145.71L307.65 137Z" fill="#FF8B7B"/>
<path d="M307.37 156.3C307.37 156.3 309.19 160.61 323.74 163.51C321.33 165.28 320.23 169.61 320.23 169.61C320.23 169.61 301.23 166.42 301.81 157.96C302.8 157.16 307.37 156.3 307.37 156.3Z" fill="white"/>
<path d="M330 168C328.232 166.102 326.109 164.569 323.75 163.49C324.728 162.497 325.392 161.239 325.659 159.871C325.926 158.503 325.783 157.087 325.25 155.8C326.709 155.752 328.17 155.813 329.62 155.98C329.62 155.98 336.38 161.24 330 168Z" fill="white"/>
<path opacity="0.4" d="M324.45 169.6C324.58 170.48 325.07 171.13 325.55 171.06C326.03 170.99 326.3 170.22 326.17 169.34C326.04 168.46 325.55 167.8 325.08 167.87C324.61 167.94 324.32 168.71 324.45 169.6Z" fill="#263238"/>
<path opacity="0.2" d="M312.5 140.59L319.5 145.74C319.295 146.818 319.188 147.913 319.18 149.01C316.66 148.83 313.03 146.35 312.57 143.76C312.353 142.717 312.329 141.642 312.5 140.59Z" fill="black"/>
<path d="M315.76 129.83C321.913 129.83 326.9 124.919 326.9 118.86C326.9 112.801 321.913 107.89 315.76 107.89C309.608 107.89 304.62 112.801 304.62 118.86C304.62 124.919 309.608 129.83 315.76 129.83Z" fill="#263238"/>
<path d="M326.16 120.27C326.129 120.259 326.103 120.236 326.088 120.206C326.073 120.176 326.07 120.142 326.08 120.11C326.463 118.734 326.567 117.296 326.387 115.879C326.207 114.462 325.745 113.096 325.03 111.86C323.578 109.335 321.188 107.484 318.38 106.71C318.348 106.702 318.321 106.682 318.304 106.654C318.287 106.626 318.282 106.592 318.29 106.56C318.298 106.528 318.318 106.501 318.346 106.484C318.375 106.467 318.408 106.462 318.44 106.47C319.864 106.856 321.197 107.52 322.364 108.422C323.531 109.325 324.508 110.449 325.24 111.73C325.973 112.996 326.446 114.395 326.631 115.846C326.817 117.297 326.711 118.77 326.32 120.18C326.309 120.212 326.286 120.238 326.257 120.255C326.227 120.271 326.193 120.277 326.16 120.27Z" fill="#263238"/>
<path d="M324.93 132.09C329.58 132.09 333.35 128.378 333.35 123.8C333.35 119.222 329.58 115.51 324.93 115.51C320.28 115.51 316.51 119.222 316.51 123.8C316.51 128.378 320.28 132.09 324.93 132.09Z" fill="#263238"/>
<path d="M305.62 133.78C311.027 133.78 315.41 129.464 315.41 124.14C315.41 118.816 311.027 114.5 305.62 114.5C300.213 114.5 295.83 118.816 295.83 124.14C295.83 129.464 300.213 133.78 305.62 133.78Z" fill="#263238"/>
<path d="M306.3 128.27C307.38 136.16 307.61 140.84 311.91 144.61C318.39 150.28 327.91 145.92 329.21 137.87C330.39 130.62 328.43 118.93 320.43 116.35C318.67 115.772 316.791 115.654 314.972 116.007C313.153 116.36 311.455 117.172 310.039 118.367C308.622 119.562 307.535 121.099 306.881 122.832C306.227 124.565 306.027 126.437 306.3 128.27Z" fill="#FF8B7B"/>
<path d="M301.82 124.34C302.64 135.44 327.16 119.91 321.94 113.99C316.72 108.07 308.71 112.25 305.82 114.92C302.21 118.25 301.62 121.62 301.82 124.34Z" fill="#263238"/>
<path d="M320.91 114.45C325.43 113.07 333.15 121.13 326.23 120.32C319.31 119.51 315.61 116.08 320.91 114.45Z" fill="#263238"/>
<path d="M303.37 137.28C303.957 138.081 304.697 138.758 305.546 139.273C306.396 139.788 307.338 140.13 308.32 140.28C310.95 140.66 311.92 138.22 310.9 135.92C309.99 133.85 307.51 131.16 305.01 131.84C302.51 132.52 301.93 135.29 303.37 137.28Z" fill="#FF8B7B"/>
<path d="M335.1 397L321.51 397.21C321.51 397.21 329.36 343.52 328.14 318.54C327.77 310.94 328.98 300.31 326.98 288.92C324.44 274.56 323.22 268.84 319.98 250.7C317.64 237.76 315.57 228.89 315.57 228.89L343.71 226.79C343.71 226.79 352.9 291.5 352.63 315.99C352.31 341.43 335.1 397 335.1 397Z" fill="#263238"/>
<path d="M305.14 125.42C309.68 126.73 311.76 137.7 306.39 133.24C301.02 128.78 299.82 123.89 305.14 125.42Z" fill="#263238"/>
<path opacity="0.2" d="M327 288.89C327.956 294.84 328.351 300.866 328.18 306.89C330.52 313.5 332.56 319.76 333.98 325.33C336.47 335.08 340.41 349.86 344.25 364.07C348.42 347.43 352.48 328.2 352.61 315.94L327 288.89Z" fill="black"/>
<path d="M328.49 227.89C328.49 227.89 348.71 278.99 356.37 301.22C364.77 325.57 378.32 391.3 378.32 391.3L365.54 398.56C365.54 398.56 345.61 344.37 337.36 320.65C327.96 293.65 302.07 250.94 300.86 229.95L328.49 227.89Z" fill="#263238"/>
<path d="M380.01 390.71L364.95 399.25L362.4 394.75L379.07 384.92L380.01 390.71Z" fill="url(#paint8_linear)"/>
<path d="M336.81 397.26L320.62 397.51L320.54 392.28L338.63 391.72L336.81 397.26Z" fill="url(#paint9_linear)"/>
<path d="M316.87 129.59C316.92 130.24 317.3 130.74 317.72 130.7C318.14 130.66 318.44 130.12 318.4 129.48C318.36 128.84 317.97 128.34 317.55 128.37C317.13 128.4 316.82 129 316.87 129.59Z" fill="#263238"/>
<path d="M325.79 129.05C325.79 129.7 326.22 130.19 326.64 130.16C327.06 130.13 327.37 129.58 327.32 128.94C327.27 128.3 326.89 127.79 326.47 127.82C326.05 127.85 325.74 128.4 325.79 129.05Z" fill="#263238"/>
<path d="M323.49 129.54C324.409 131.458 325.587 133.241 326.99 134.84C326.577 135.182 326.096 135.431 325.578 135.569C325.06 135.707 324.518 135.731 323.99 135.64L323.49 129.54Z" fill="#FF5652"/>
<path d="M321.35 137.57C320.624 137.541 319.912 137.363 319.258 137.046C318.604 136.73 318.023 136.282 317.55 135.73C317.532 135.711 317.518 135.688 317.509 135.663C317.5 135.638 317.497 135.611 317.499 135.584C317.501 135.558 317.509 135.532 317.521 135.509C317.534 135.485 317.552 135.465 317.573 135.449C317.594 135.433 317.618 135.421 317.644 135.415C317.67 135.409 317.697 135.408 317.723 135.413C317.749 135.418 317.774 135.428 317.796 135.443C317.818 135.458 317.836 135.477 317.85 135.5C318.387 136.101 319.058 136.566 319.809 136.86C320.559 137.154 321.368 137.267 322.17 137.19C322.195 137.187 322.219 137.189 322.243 137.197C322.266 137.204 322.288 137.216 322.307 137.232C322.326 137.248 322.341 137.267 322.352 137.289C322.363 137.311 322.369 137.335 322.37 137.36C322.373 137.385 322.371 137.41 322.364 137.434C322.356 137.458 322.345 137.481 322.329 137.5C322.313 137.52 322.294 137.536 322.271 137.548C322.249 137.56 322.225 137.567 322.2 137.57C321.917 137.59 321.633 137.59 321.35 137.57Z" fill="#263238"/>
<path d="M315.51 127.4C315.445 127.399 315.383 127.378 315.33 127.34C315.288 127.314 315.252 127.279 315.224 127.238C315.195 127.198 315.175 127.152 315.165 127.103C315.155 127.055 315.154 127.005 315.164 126.956C315.173 126.907 315.192 126.861 315.22 126.82C315.537 126.3 315.976 125.864 316.499 125.551C317.021 125.237 317.612 125.055 318.22 125.02C318.321 125.02 318.418 125.06 318.489 125.131C318.56 125.203 318.6 125.299 318.6 125.4C318.6 125.501 318.56 125.597 318.489 125.669C318.418 125.74 318.321 125.78 318.22 125.78C317.744 125.819 317.285 125.971 316.88 126.223C316.474 126.475 316.135 126.82 315.89 127.23C315.85 127.292 315.793 127.341 315.725 127.372C315.658 127.402 315.583 127.412 315.51 127.4Z" fill="#263238"/>
<path d="M328.75 125.05C328.686 125.05 328.623 125.032 328.568 124.998C328.514 124.965 328.469 124.917 328.44 124.86C328.213 124.439 327.888 124.079 327.493 123.81C327.098 123.54 326.645 123.369 326.17 123.31C326.121 123.307 326.072 123.295 326.027 123.273C325.983 123.252 325.943 123.221 325.91 123.184C325.878 123.147 325.853 123.103 325.837 123.056C325.822 123.009 325.816 122.959 325.82 122.91C325.825 122.811 325.869 122.718 325.942 122.651C326.015 122.583 326.111 122.547 326.21 122.55C326.811 122.618 327.387 122.829 327.889 123.164C328.392 123.5 328.807 123.951 329.1 124.48C329.148 124.568 329.16 124.671 329.134 124.768C329.108 124.865 329.046 124.948 328.96 125C328.898 125.04 328.824 125.057 328.75 125.05Z" fill="#263238"/>
<path d="M382.89 402.68C382.256 403.017 381.585 403.279 380.89 403.46C380.855 403.471 380.817 403.471 380.781 403.46C380.746 403.449 380.714 403.428 380.69 403.4C380.671 403.368 380.66 403.332 380.66 403.295C380.66 403.258 380.671 403.222 380.69 403.19C380.86 402.89 382.33 400.19 383.32 400.19C383.431 400.189 383.54 400.217 383.637 400.271C383.733 400.326 383.814 400.404 383.87 400.5C383.983 400.652 384.055 400.829 384.081 401.016C384.108 401.203 384.087 401.393 384.02 401.57C383.779 402.056 383.381 402.447 382.89 402.68ZM381.27 402.96C382.59 402.52 383.48 401.96 383.68 401.43C383.724 401.308 383.736 401.177 383.715 401.049C383.694 400.922 383.641 400.801 383.56 400.7C383.48 400.58 383.41 400.56 383.35 400.56C382.83 400.59 381.89 401.91 381.27 403V402.96Z" fill="url(#paint10_linear)"/>
<path d="M381 403.45H380.9C380.866 403.448 380.833 403.436 380.805 403.417C380.777 403.398 380.754 403.371 380.74 403.34C380.74 403.25 379.74 401.14 380.16 400.02C380.207 399.882 380.283 399.756 380.383 399.651C380.483 399.546 380.605 399.463 380.74 399.41C380.864 399.34 381.008 399.315 381.148 399.339C381.288 399.362 381.416 399.433 381.51 399.54C382.1 400.24 381.57 402.54 381.07 403.36C381.059 403.398 381.034 403.43 381 403.45ZM380.81 399.82C380.739 399.857 380.676 399.908 380.624 399.97C380.573 400.032 380.534 400.103 380.51 400.18C380.377 401.086 380.523 402.01 380.93 402.83C381.34 401.88 381.57 400.22 381.22 399.83C381.22 399.83 381.12 399.7 380.89 399.83L380.81 399.82Z" fill="url(#paint11_linear)"/>
<path d="M332 408.06C331.966 408.048 331.936 408.026 331.913 407.998C331.89 407.97 331.875 407.936 331.87 407.9C331.862 407.862 331.868 407.822 331.886 407.787C331.904 407.753 331.934 407.725 331.97 407.71C332.33 407.51 335.53 405.83 336.51 406.35C336.602 406.401 336.68 406.474 336.736 406.564C336.792 406.653 336.824 406.755 336.83 406.86C336.853 407.031 336.835 407.205 336.775 407.367C336.716 407.529 336.618 407.674 336.49 407.79C335.62 408.58 333.32 408.3 332.02 408.06H332ZM336.26 406.66C335.65 406.46 333.92 407.15 332.65 407.78C334.43 408.05 335.75 407.95 336.24 407.51C336.324 407.432 336.387 407.335 336.423 407.226C336.46 407.118 336.469 407.003 336.45 406.89C336.454 406.848 336.444 406.807 336.422 406.771C336.401 406.735 336.368 406.707 336.33 406.69L336.26 406.66Z" fill="url(#paint12_linear)"/>
<path d="M332 408.06H331.95C331.921 408.043 331.899 408.017 331.884 407.987C331.87 407.957 331.865 407.923 331.87 407.89C331.87 407.8 332.06 405.63 333.06 404.78C333.202 404.654 333.368 404.558 333.549 404.5C333.73 404.441 333.921 404.421 334.11 404.44C334.64 404.44 334.79 404.74 334.83 404.96C334.99 405.86 333.1 407.63 332.14 408.08C332.092 408.088 332.043 408.081 332 408.06ZM334.28 404.82H334.08C333.941 404.807 333.8 404.823 333.667 404.868C333.535 404.913 333.413 404.985 333.31 405.08C332.728 405.787 332.379 406.657 332.31 407.57C333.31 406.96 334.57 405.57 334.48 405.03C334.473 404.973 334.446 404.921 334.404 404.883C334.362 404.844 334.307 404.822 334.25 404.82H334.28Z" fill="url(#paint13_linear)"/>
<path d="M302 171C299.74 175.66 297.46 180.45 295.25 185.19C294.14 187.57 293.04 189.94 292 192.32C290.96 194.7 289.92 197.08 288.94 199.46C288.48 200.65 287.94 201.84 287.55 203.01L286.91 204.76C286.827 204.911 286.763 205.073 286.72 205.24C286.618 205.744 286.67 206.267 286.87 206.74C287.19 207.566 287.617 208.346 288.14 209.06C290.58 212.42 294.83 215.7 298.86 218.51L296.45 224C295.059 223.597 293.69 223.12 292.35 222.57C291.012 222.033 289.704 221.426 288.43 220.75C285.688 219.363 283.164 217.581 280.94 215.46C279.647 214.215 278.546 212.787 277.67 211.22C276.607 209.317 276.033 207.18 276 205C275.985 203.832 276.133 202.667 276.44 201.54L277.03 199.48C277.41 198.11 277.85 196.81 278.27 195.48C280.05 190.23 282.05 185.16 284.2 180.17C286.35 175.18 288.66 170.33 291.2 165.45L302 171Z" fill="#FF8B7B"/>
<path d="M293.18 160.54C285.85 162.84 278.65 187.67 278.65 187.67L295.59 195.08C295.59 195.08 301.08 183.08 304.23 173.68C307.66 163.43 302.05 157.76 293.18 160.54Z" fill="url(#paint14_linear)"/>
<path d="M296 217.84L304.12 218.64L300.82 227.64C300.82 227.64 293.52 226.02 293.61 222.04L296 217.84Z" fill="#FF8B7B"/>
<path d="M311.12 222.68L306.83 230.12L300.76 227.68L304.07 218.64L311.12 222.68Z" fill="#FF8B7B"/>
<path d="M317.51 133.53C316.415 133.538 315.342 133.22 314.427 132.618C313.512 132.015 312.797 131.154 312.373 130.144C311.948 129.134 311.833 128.021 312.042 126.946C312.25 125.871 312.774 124.881 313.546 124.104C314.317 123.327 315.303 122.796 316.377 122.579C317.45 122.363 318.564 122.47 319.577 122.887C320.59 123.305 321.456 124.013 322.065 124.924C322.675 125.834 323 126.905 323 128C322.998 129.459 322.42 130.858 321.392 131.893C320.364 132.929 318.969 133.517 317.51 133.53ZM317.51 122.97C316.521 122.97 315.555 123.263 314.732 123.813C313.91 124.362 313.269 125.143 312.891 126.057C312.512 126.97 312.413 127.976 312.606 128.945C312.799 129.915 313.275 130.806 313.975 131.506C314.674 132.205 315.565 132.681 316.535 132.874C317.505 133.067 318.51 132.968 319.424 132.589C320.337 132.211 321.118 131.57 321.668 130.748C322.217 129.926 322.51 128.959 322.51 127.97C322.502 126.649 321.972 125.385 321.035 124.454C320.098 123.523 318.831 123 317.51 123V122.97Z" fill="white"/>
<path d="M329.53 133.53C328.436 133.53 327.367 133.206 326.458 132.598C325.548 131.99 324.84 131.127 324.421 130.116C324.002 129.106 323.893 127.994 324.106 126.921C324.32 125.848 324.846 124.863 325.62 124.09C326.393 123.316 327.378 122.79 328.451 122.576C329.524 122.363 330.636 122.472 331.646 122.891C332.657 123.31 333.52 124.018 334.128 124.928C334.736 125.837 335.06 126.906 335.06 128C335.057 129.466 334.474 130.871 333.437 131.907C332.401 132.944 330.996 133.527 329.53 133.53ZM329.53 122.97C328.541 122.97 327.574 123.263 326.752 123.813C325.93 124.362 325.289 125.143 324.911 126.057C324.532 126.97 324.433 127.976 324.626 128.945C324.819 129.915 325.295 130.806 325.994 131.506C326.694 132.205 327.585 132.681 328.555 132.874C329.524 133.067 330.53 132.968 331.443 132.589C332.357 132.211 333.138 131.57 333.687 130.748C334.237 129.926 334.53 128.959 334.53 127.97C334.522 126.649 333.992 125.385 333.055 124.454C332.118 123.523 330.851 123 329.53 123V122.97Z" fill="white"/>
<defs>
<linearGradient id="paint0_linear" x1="472.83" y1="43" x2="472.83" y2="297.382" gradientUnits="userSpaceOnUse">
<stop stop-color="#4070FF"/>
<stop offset="1" stop-color="#365FD9"/>
</linearGradient>
<linearGradient id="paint1_linear" x1="443.89" y1="404.92" x2="443.89" y2="427.56" gradientUnits="userSpaceOnUse">
<stop stop-color="#4070FF"/>
<stop offset="1" stop-color="#365FD9"/>
</linearGradient>
<linearGradient id="paint2_linear" x1="334.97" y1="191.56" x2="334.97" y2="416.24" gradientUnits="userSpaceOnUse">
<stop stop-color="#4070FF"/>
<stop offset="1" stop-color="#365FD9"/>
</linearGradient>
<linearGradient id="paint3_linear" x1="173.82" y1="191.2" x2="173.82" y2="201" gradientUnits="userSpaceOnUse">
<stop stop-color="#4070FF"/>
<stop offset="1" stop-color="#365FD9"/>
</linearGradient>
<linearGradient id="paint4_linear" x1="143.09" y1="203.63" x2="143.09" y2="208.59" gradientUnits="userSpaceOnUse">
<stop stop-color="#4070FF"/>
<stop offset="1" stop-color="#365FD9"/>
</linearGradient>
<linearGradient id="paint5_linear" x1="200.55" y1="145.027" x2="359.423" y2="303.899" gradientUnits="userSpaceOnUse">
<stop stop-color="#4070FF"/>
<stop offset="1" stop-color="#365FD9"/>
</linearGradient>
<linearGradient id="paint6_linear" x1="357.44" y1="157.514" x2="357.44" y2="191.23" gradientUnits="userSpaceOnUse">
<stop stop-color="#4070FF"/>
<stop offset="1" stop-color="#365FD9"/>
</linearGradient>
<linearGradient id="paint7_linear" x1="344.683" y1="156.31" x2="344.683" y2="229.94" gradientUnits="userSpaceOnUse">
<stop stop-color="#4070FF"/>
<stop offset="1" stop-color="#365FD9"/>
</linearGradient>
<linearGradient id="paint8_linear" x1="380.01" y1="384.92" x2="380.01" y2="399.25" gradientUnits="userSpaceOnUse">
<stop stop-color="#4070FF"/>
<stop offset="1" stop-color="#365FD9"/>
</linearGradient>
<linearGradient id="paint9_linear" x1="338.63" y1="391.72" x2="338.63" y2="397.51" gradientUnits="userSpaceOnUse">
<stop stop-color="#4070FF"/>
<stop offset="1" stop-color="#365FD9"/>
</linearGradient>
<linearGradient id="paint10_linear" x1="384.092" y1="400.19" x2="384.092" y2="403.468" gradientUnits="userSpaceOnUse">
<stop stop-color="#4070FF"/>
<stop offset="1" stop-color="#365FD9"/>
</linearGradient>
<linearGradient id="paint11_linear" x1="381.77" y1="399.33" x2="381.77" y2="403.45" gradientUnits="userSpaceOnUse">
<stop stop-color="#4070FF"/>
<stop offset="1" stop-color="#365FD9"/>
</linearGradient>
<linearGradient id="paint12_linear" x1="336.84" y1="406.251" x2="336.84" y2="408.311" gradientUnits="userSpaceOnUse">
<stop stop-color="#4070FF"/>
<stop offset="1" stop-color="#365FD9"/>
</linearGradient>
<linearGradient id="paint13_linear" x1="334.84" y1="404.433" x2="334.84" y2="408.083" gradientUnits="userSpaceOnUse">
<stop stop-color="#4070FF"/>
<stop offset="1" stop-color="#365FD9"/>
</linearGradient>
<linearGradient id="paint14_linear" x1="305.25" y1="159.836" x2="305.25" y2="195.08" gradientUnits="userSpaceOnUse">
<stop stop-color="#4070FF"/>
<stop offset="1" stop-color="#365FD9"/>
</linearGradient>
</defs>
</svg>
