<svg width="500" height="500" viewBox="0 0 500 500" fill="none" xmlns="http://www.w3.org/2000/svg">
<path opacity="0.1" d="M241.46 154.655C290.727 216.982 421.407 178.271 413.548 289.134C406.01 395.386 266.74 375.398 199.42 345.497C121.375 310.825 64.8006 231.306 98.9316 147.387C112.113 114.98 137.333 84.8089 175.313 83.1048C235.967 80.3884 215.358 121.616 241.46 154.655Z" fill="url(#paint0_linear)"/>
<path opacity="0.1" d="M250 435.2C357.337 435.2 444.351 430.12 444.351 423.853C444.351 417.586 357.337 412.506 250 412.506C142.663 412.506 55.6489 417.586 55.6489 423.853C55.6489 430.12 142.663 435.2 250 435.2Z" fill="url(#paint1_linear)"/>
<path d="M256.576 157.15C257.267 158.012 258.129 159.035 258.921 159.977C259.713 160.919 260.575 161.872 261.417 162.804C263.111 164.658 264.825 166.483 266.599 168.177C268.31 169.822 270.11 171.371 271.992 172.818C273.523 174.045 275.234 175.029 277.064 175.735L277.315 175.825C277.385 175.825 277.315 175.825 277.365 175.825H277.415C277.415 175.825 277.525 175.825 277.696 175.825C278.3 175.686 278.867 175.419 279.36 175.043C281.04 173.76 282.523 172.237 283.76 170.522C285.253 168.592 286.612 166.562 287.83 164.448C288.461 163.365 289.103 162.283 289.694 161.17C290.286 160.057 290.887 158.885 291.408 157.862L291.509 157.662C291.937 156.601 292.769 155.753 293.821 155.304C294.874 154.855 296.062 154.843 297.124 155.269C298.186 155.695 299.035 156.525 299.486 157.577C299.937 158.629 299.952 159.816 299.528 160.879C297.879 166.372 295.559 171.641 292.621 176.567C290.962 179.331 288.893 181.829 286.487 183.974C284.942 185.325 283.157 186.372 281.224 187.061C280.051 187.459 278.824 187.679 277.585 187.713C276.936 187.735 276.285 187.701 275.641 187.613C275.33 187.613 274.959 187.512 274.709 187.452L273.997 187.292C270.744 186.393 267.664 184.957 264.885 183.042C262.415 181.422 260.069 179.62 257.869 177.649C255.714 175.755 253.679 173.8 251.734 171.765C250.732 170.763 249.81 169.76 248.877 168.678C247.945 167.595 247.063 166.603 246.091 165.39C244.977 164.006 244.458 162.237 244.649 160.471C244.84 158.705 245.724 157.087 247.108 155.973C248.492 154.859 250.261 154.34 252.028 154.531C253.794 154.722 255.412 155.606 256.526 156.99L256.576 157.15Z" fill="#263238"/>
<path d="M295.729 160.358L302.364 161.29L300.41 154.183C300.41 154.183 293.523 153.271 293.393 156.86L293.724 158.433C293.821 158.921 294.065 159.367 294.423 159.711C294.782 160.055 295.237 160.281 295.729 160.358Z" fill="#CE7A63"/>
<path d="M308.338 158.243V151.818L300.41 154.183L302.364 161.29L308.338 158.243Z" fill="#CE7A63"/>
<path d="M281.816 412.707L289.083 410.351L284.562 393.22L277.295 395.576L281.816 412.707Z" fill="#CE7A63"/>
<path d="M289.193 409.389L281.074 412.035C281.005 412.055 280.941 412.087 280.885 412.132C280.83 412.176 280.783 412.231 280.749 412.294C280.714 412.356 280.693 412.425 280.685 412.495C280.677 412.566 280.683 412.638 280.703 412.707L282.397 419.292C282.507 419.632 282.747 419.914 283.064 420.079C283.38 420.244 283.749 420.278 284.091 420.174C286.918 419.172 288.221 418.59 291.809 417.428C296.179 415.732 300.42 413.722 304.499 411.413C307.156 409.749 305.452 407.073 304.148 407.554C298.305 409.689 293.213 410.381 290.636 409.439C290.176 409.256 289.665 409.238 289.193 409.389Z" fill="#263238"/>
<path opacity="0.2" d="M277.295 395.586L284.572 393.22L286.888 402.051L279.62 404.417L277.295 395.586Z" fill="black"/>
<path d="M259.593 222.135C259.593 222.135 268.674 285.284 271.732 306.976C275.08 330.732 289.464 399.195 289.464 399.195L275.982 402.923C275.982 402.923 255.483 336.606 250 313.511C244.076 288.452 232.268 222.135 232.268 222.135H259.593Z" fill="#263238"/>
<path d="M244.988 289.975C242.212 276.042 239.204 260.094 236.819 247.164C238.052 243.846 239.926 242.152 243.575 249.65C248.998 260.766 247.284 279.109 244.988 289.975Z" fill="#263238"/>
<path opacity="0.3" d="M244.988 289.975C242.212 276.042 239.204 260.094 236.819 247.164C238.052 243.846 239.926 242.152 243.575 249.65C248.998 260.766 247.284 279.109 244.988 289.975Z" fill="black"/>
<path d="M275.641 403.224L290.085 399.245L289.804 393.361L273.546 398.984L275.641 403.224Z" fill="#263238"/>
<path d="M224.62 416.055H232.248L233.24 398.363H225.602L224.62 416.055Z" fill="#CE7A63"/>
<path d="M232.649 415.162H224.068C223.997 415.16 223.926 415.171 223.86 415.196C223.793 415.22 223.732 415.258 223.68 415.306C223.628 415.355 223.586 415.413 223.556 415.478C223.526 415.543 223.51 415.612 223.507 415.683L223.086 422.48C223.086 422.837 223.227 423.179 223.479 423.433C223.731 423.686 224.072 423.83 224.429 423.833C227.436 423.783 228.84 423.612 232.619 423.612C234.934 423.612 241.46 423.853 244.647 423.853C247.835 423.853 247.765 420.685 246.401 420.395C240.317 419.102 236.107 417.327 233.952 415.633C233.58 415.34 233.123 415.174 232.649 415.162Z" fill="#263238"/>
<path opacity="0.2" d="M225.602 398.363H233.25L232.729 407.484H225.091L225.602 398.363Z" fill="black"/>
<path d="M244.667 221.743C244.667 221.743 244.116 280.493 242.873 302.365C241.52 326.312 235.967 405.279 235.967 405.279H221.933C221.933 405.279 221.071 328.246 220.229 304.54C219.317 278.799 218.225 221.743 218.225 221.743H244.667Z" fill="#263238"/>
<path d="M221.452 405.279H236.568L237.41 399.977L220.721 400.809L221.452 405.279Z" fill="#263238"/>
<path d="M259.643 222.545L218.305 221.744C218.014 218.095 219.307 206.618 218.666 191.502C218.278 180.299 216.92 169.151 214.606 158.183C214.535 157.865 214.529 157.536 214.59 157.216C214.65 156.895 214.775 156.591 214.957 156.321C215.139 156.05 215.374 155.82 215.648 155.644C215.922 155.468 216.229 155.349 216.551 155.296C217.272 155.166 218.134 155.035 219.087 154.895C221.542 154.534 224.64 154.163 227.667 154.013C233.435 153.675 239.218 153.662 244.988 153.973C246.944 154.129 248.888 154.4 250.812 154.785C251.943 154.992 253.046 155.328 254.1 155.787C254.831 156.053 255.431 156.592 255.774 157.291C257.688 162.523 259.683 184.555 259.643 222.545Z" fill="#F0F0F0"/>
<path d="M222.835 166.061C221.432 168.407 219.939 170.973 218.575 173.469C217.212 175.965 215.829 178.481 214.566 181.077C213.303 183.673 212.11 186.199 211.017 188.765L210.226 190.68L209.514 192.594C209.263 193.236 209.083 193.867 208.882 194.499L208.572 195.441C208.519 195.612 208.475 195.786 208.441 195.962C208.256 197.12 208.145 198.289 208.111 199.461C208.111 200.794 208.111 202.187 208.111 203.591C208.171 206.417 208.361 209.314 208.562 212.211C208.762 215.108 209.013 218.045 209.293 220.972C209.574 223.899 209.855 226.846 210.145 229.733V229.803C210.262 230.895 209.959 231.992 209.296 232.868C208.633 233.745 207.661 234.336 206.578 234.521C205.495 234.706 204.382 234.472 203.465 233.865C202.549 233.259 201.898 232.326 201.645 231.256C200.192 225.342 199.019 219.468 198.027 213.454C197.535 210.447 197.135 207.44 196.814 204.302C196.663 202.739 196.533 201.155 196.473 199.511C196.379 197.708 196.439 195.901 196.653 194.108C196.703 193.637 196.854 192.935 196.964 192.444L197.265 191.241C197.475 190.439 197.666 189.627 197.906 188.866L198.618 186.55L199.39 184.285C200.452 181.311 201.622 178.407 202.898 175.574C204.171 172.747 205.494 169.971 206.908 167.234C208.321 164.498 209.754 161.851 211.408 159.095C212.364 157.662 213.836 156.652 215.517 156.276C217.199 155.9 218.96 156.186 220.436 157.076C221.911 157.965 222.987 159.389 223.44 161.051C223.892 162.714 223.687 164.487 222.866 166.001L222.835 166.061Z" fill="#263238"/>
<path d="M244.196 153.973C239.184 152.78 238.262 149.663 238.603 146.225C238.68 145.365 238.814 144.511 239.004 143.668L232.679 138.416L228.028 134.567C229.321 140.16 230.774 150.344 227.026 154.083C230.757 156.689 235.226 158.027 239.776 157.902C247.183 157.571 244.196 153.973 244.196 153.973Z" fill="#CE7A63"/>
<path d="M239.455 157.862L238.773 156.178L234.563 158.694L239.455 157.862Z" fill="#E0E0E0"/>
<path d="M239.455 157.862L239.796 156.178L244.006 158.694L239.455 157.862Z" fill="#E0E0E0"/>
<path d="M227.316 153.021C230.981 154.569 234.833 155.63 238.773 156.178C237.452 157.778 236.386 159.574 235.616 161.501C233.781 161.009 225.742 156.098 223.968 153.732L227.316 153.021Z" fill="white"/>
<path d="M242.983 153.201C242.227 154.485 241.122 155.528 239.796 156.208C241.347 157.546 242.671 159.127 243.715 160.889C245.019 158.751 245.628 156.261 245.459 153.763L242.983 153.201Z" fill="white"/>
<path opacity="0.3" d="M226.945 152.359C226.945 152.359 221.382 153.562 216.671 155.005C215.011 155.514 213.578 156.579 212.612 158.022C211.646 159.464 211.207 161.196 211.368 162.924C212.371 173.088 216.982 191.532 217.072 199.33C217.182 209.063 219.227 227.397 219.227 227.397L240.066 231.697C240.066 231.697 242.612 158.985 226.945 152.359Z" fill="black"/>
<path opacity="0.3" d="M243.084 153.021C243.084 153.021 247.715 153.512 251.985 154.414C253.737 154.783 255.321 155.713 256.498 157.062C257.675 158.411 258.381 160.106 258.51 161.892C259.653 178.721 259.112 195.652 259.653 204.783C260.214 214.496 259.473 227.086 259.473 227.086L251.323 229.442C251.323 229.442 249.268 165.751 243.084 153.021Z" fill="black"/>
<path d="M226.945 152.359C226.945 152.359 221.382 153.562 216.671 155.005C215.011 155.514 213.578 156.579 212.612 158.022C211.646 159.464 211.207 161.196 211.368 162.924C212.371 173.088 215.378 191.642 215.448 199.441C215.568 209.174 214.496 226.164 214.496 226.164L238.162 228.439C238.162 228.439 242.612 158.985 226.945 152.359Z" fill="#263238"/>
<path d="M243.084 153.021C243.084 153.021 247.715 153.512 251.985 154.414C253.737 154.783 255.321 155.713 256.498 157.062C257.675 158.411 258.381 160.106 258.51 161.892C259.653 178.721 260.345 195.581 260.876 204.713C261.447 214.426 261.497 226.505 261.497 226.505L251.874 227.427C251.874 227.427 249.268 165.751 243.084 153.021Z" fill="#263238"/>
<path opacity="0.2" d="M238.974 143.618C238.784 144.461 238.65 145.315 238.573 146.175C236.207 145.703 233.06 143.167 232.729 140.782C232.616 139.982 232.589 139.172 232.649 138.366L238.974 143.618Z" fill="black"/>
<path d="M244.717 120.634C245.249 124.483 243.715 127.881 241.209 128.222C238.703 128.562 236.318 125.706 235.786 121.857C235.255 118.007 236.789 114.599 239.295 114.259C241.801 113.918 244.186 116.775 244.717 120.634Z" fill="#263238"/>
<path d="M224.81 128.913C227.717 135.93 229.06 140.18 233.982 142.736C235.569 143.584 237.358 143.982 239.155 143.887C240.952 143.793 242.689 143.209 244.178 142.198C245.667 141.188 246.852 139.79 247.604 138.155C248.357 136.52 248.648 134.711 248.446 132.923C247.795 126.006 243.144 115.682 235.085 115C233.346 114.815 231.589 115.089 229.989 115.793C228.389 116.496 227 117.607 225.961 119.013C224.923 120.42 224.27 122.073 224.068 123.81C223.866 125.547 224.122 127.306 224.81 128.913Z" fill="#CE7A63"/>
<path d="M225.071 134.336C225.492 137.995 230.834 136.622 229.932 129.405C229.458 127.262 228.686 125.197 227.637 123.27C227.637 123.27 240.086 118.258 242.673 115.692C245.038 113.336 245.209 110.119 243.424 109.116C243.145 109.746 242.713 110.295 242.166 110.713C241.62 111.132 240.977 111.407 240.297 111.512C240.297 111.512 242.833 108.084 241.159 106.019C240.711 107.208 239.928 108.241 238.905 108.993C237.882 109.746 236.663 110.186 235.395 110.259C231.015 110.77 225.973 108.866 222.715 113.687C220.119 117.526 216.24 116.093 217.844 121.456C212.832 124.743 216.531 127.971 218.706 129.194C220.881 130.417 224.84 132.321 225.071 134.336Z" fill="#263238"/>
<path d="M218.525 121.396C218.525 121.396 215.147 120.814 215.999 116.755C212.631 120.564 215.177 122.308 218.525 121.396Z" fill="#263238"/>
<path d="M224.5 136.822C225.942 138.035 227.758 138.714 229.642 138.747C232.017 138.747 232.148 136.491 230.644 134.637C229.251 132.973 226.344 130.978 224.389 131.891C222.435 132.803 222.685 135.299 224.5 136.822Z" fill="#CE7A63"/>
<path d="M236.478 127.53C236.678 128.121 237.149 128.532 237.54 128.372C237.931 128.212 238.072 127.69 237.871 127.109C237.671 126.528 237.19 126.107 236.809 126.267C236.428 126.427 236.277 126.909 236.478 127.53Z" fill="#263238"/>
<path d="M243.134 125.495C243.334 126.077 243.805 126.498 244.196 126.337C244.587 126.177 244.727 125.656 244.527 125.074C244.327 124.493 243.855 124.072 243.464 124.232C243.074 124.393 242.983 124.904 243.134 125.495Z" fill="#263238"/>
<path d="M241.119 126.438C242.439 128.006 243.963 129.392 245.65 130.557C245.334 130.968 244.931 131.303 244.47 131.539C244.009 131.774 243.501 131.905 242.983 131.921L241.119 126.438Z" fill="#BA4D3C"/>
<path d="M241.149 134.246C240.447 134.383 239.724 134.376 239.025 134.226C238.326 134.076 237.664 133.786 237.079 133.374C237.047 133.34 237.029 133.295 237.029 133.249C237.029 133.202 237.047 133.157 237.079 133.123C237.115 133.09 237.161 133.072 237.21 133.072C237.258 133.072 237.305 133.09 237.34 133.123C237.98 133.561 238.713 133.847 239.481 133.958C240.249 134.069 241.032 134.003 241.77 133.765C241.793 133.757 241.817 133.754 241.84 133.756C241.864 133.758 241.886 133.765 241.907 133.777C241.928 133.788 241.946 133.803 241.961 133.822C241.975 133.841 241.985 133.862 241.991 133.885C241.999 133.907 242.002 133.931 242 133.955C241.998 133.978 241.991 134.001 241.979 134.022C241.968 134.043 241.953 134.061 241.934 134.075C241.915 134.09 241.894 134.1 241.871 134.106C241.634 134.17 241.393 134.217 241.149 134.246Z" fill="#263238"/>
<path d="M233.681 126.037C233.622 126.051 233.56 126.051 233.501 126.037C233.456 126.021 233.415 125.996 233.379 125.965C233.344 125.933 233.315 125.895 233.295 125.852C233.274 125.809 233.263 125.762 233.26 125.715C233.258 125.668 233.264 125.62 233.28 125.575C233.452 125.032 233.755 124.539 234.162 124.14C234.569 123.742 235.069 123.45 235.616 123.29C235.662 123.278 235.71 123.276 235.757 123.283C235.804 123.291 235.849 123.307 235.89 123.333C235.93 123.358 235.965 123.391 235.992 123.431C236.019 123.47 236.038 123.514 236.047 123.561C236.059 123.607 236.061 123.655 236.054 123.702C236.046 123.749 236.029 123.794 236.004 123.834C235.979 123.875 235.946 123.909 235.906 123.936C235.867 123.964 235.823 123.982 235.776 123.992C235.349 124.124 234.961 124.359 234.645 124.675C234.329 124.991 234.095 125.379 233.962 125.806C233.941 125.866 233.903 125.92 233.854 125.96C233.804 126.001 233.745 126.027 233.681 126.037Z" fill="#263238"/>
<path d="M212.19 257.368C211.898 257.366 211.606 257.34 211.318 257.288L197.796 254.812C196.545 254.578 195.437 253.859 194.714 252.811C193.991 251.763 193.711 250.472 193.937 249.219L195.19 242.393C195.304 241.771 195.539 241.178 195.883 240.648C196.227 240.118 196.673 239.662 197.195 239.305C197.713 238.943 198.298 238.688 198.916 238.555C199.534 238.423 200.172 238.415 200.793 238.533L214.315 241.009C215.568 241.241 216.678 241.96 217.401 243.008C218.125 244.057 218.403 245.349 218.174 246.603L216.921 253.429C216.719 254.536 216.135 255.537 215.27 256.257C214.406 256.977 213.315 257.37 212.19 257.368ZM211.689 255.263C212.405 255.392 213.143 255.233 213.742 254.819C214.341 254.406 214.753 253.773 214.887 253.058L216.14 246.222C216.268 245.507 216.109 244.77 215.695 244.173C215.282 243.575 214.649 243.166 213.934 243.034L200.412 240.558C200.058 240.493 199.693 240.498 199.341 240.574C198.988 240.65 198.654 240.794 198.357 240.999C198.06 241.203 197.806 241.465 197.61 241.767C197.414 242.07 197.28 242.409 197.215 242.764L195.962 249.59C195.836 250.306 195.996 251.042 196.409 251.641C196.822 252.239 197.453 252.651 198.167 252.787L211.689 255.263Z" fill="url(#paint2_linear)"/>
<path d="M233.091 250.888L184.73 242.021C181.714 241.468 178.82 243.465 178.267 246.481L173.053 274.916C172.5 277.933 174.497 280.826 177.514 281.38L225.874 290.247C228.891 290.8 231.785 288.803 232.338 285.786L237.551 257.352C238.104 254.335 236.107 251.441 233.091 250.888Z" fill="#263238"/>
<path opacity="0.8" d="M233.091 250.888L184.73 242.021C181.714 241.468 178.82 243.465 178.267 246.481L173.053 274.916C172.5 277.933 174.497 280.826 177.514 281.38L225.874 290.247C228.891 290.8 231.785 288.803 232.338 285.786L237.551 257.352C238.104 254.335 236.107 251.441 233.091 250.888Z" fill="url(#paint3_linear)"/>
<path d="M230.559 250.428L182.199 241.561C179.182 241.008 176.288 243.005 175.735 246.022L170.521 274.456C169.968 277.473 171.965 280.367 174.982 280.92L223.342 289.787C226.359 290.34 229.253 288.343 229.806 285.326L235.02 256.892C235.573 253.875 233.576 250.981 230.559 250.428Z" fill="url(#paint4_linear)"/>
<path opacity="0.3" d="M231.807 250.632L180.996 241.32C179.874 241.118 178.716 241.368 177.777 242.016C176.839 242.664 176.194 243.657 175.984 244.778L173.198 260.014C172.993 261.137 173.242 262.296 173.89 263.235C174.539 264.175 175.533 264.819 176.656 265.026L198.007 268.936L197.696 270.62C197.664 270.805 197.67 270.994 197.713 271.177C197.756 271.36 197.834 271.533 197.944 271.685C198.055 271.837 198.194 271.965 198.354 272.063C198.515 272.161 198.693 272.225 198.879 272.253L202.678 272.945C203.047 273.013 203.428 272.931 203.738 272.719C204.048 272.507 204.261 272.181 204.332 271.812L204.632 270.138L227.507 274.328C228.63 274.533 229.788 274.284 230.728 273.636C231.667 272.987 232.311 271.993 232.518 270.87L235.315 255.634C235.51 254.506 235.251 253.346 234.593 252.409C233.936 251.472 232.934 250.833 231.807 250.632Z" fill="#263238"/>
<path d="M225.331 272.434L174.26 263.072C173.737 262.987 173.238 262.79 172.798 262.493C172.358 262.197 171.988 261.808 171.713 261.354C171.439 260.9 171.266 260.392 171.207 259.865C171.149 259.337 171.205 258.804 171.373 258.301L175.543 244.568C175.895 243.478 176.625 242.55 177.601 241.95C178.577 241.351 179.735 241.121 180.866 241.3L231.987 250.662C232.511 250.747 233.01 250.944 233.45 251.241C233.89 251.538 234.26 251.926 234.534 252.38C234.809 252.834 234.982 253.342 235.04 253.87C235.099 254.397 235.042 254.931 234.874 255.434L230.704 269.166C230.348 270.264 229.61 271.197 228.624 271.797C227.638 272.396 226.47 272.622 225.331 272.434Z" fill="url(#paint5_linear)"/>
<path d="M200.162 271.522L196.323 270.82C196.092 270.781 195.873 270.693 195.68 270.562C195.487 270.43 195.325 270.259 195.204 270.059C195.083 269.859 195.007 269.636 194.98 269.404C194.953 269.172 194.977 268.937 195.05 268.715L196.894 262.701C197.048 262.22 197.37 261.811 197.801 261.548C198.231 261.285 198.742 261.186 199.24 261.267L203.079 261.969C203.31 262.006 203.53 262.093 203.723 262.224C203.917 262.355 204.08 262.527 204.2 262.728C204.321 262.928 204.396 263.153 204.42 263.385C204.444 263.618 204.418 263.853 204.342 264.074L202.507 270.088C202.351 270.568 202.029 270.975 201.599 271.238C201.169 271.501 200.659 271.601 200.162 271.522Z" fill="white"/>
<path d="M245.219 122.358C245.161 122.369 245.101 122.366 245.045 122.349C244.989 122.331 244.939 122.3 244.898 122.257C244.585 121.912 244.198 121.642 243.766 121.468C243.333 121.294 242.867 121.222 242.402 121.255C242.355 121.265 242.307 121.266 242.26 121.256C242.213 121.247 242.168 121.228 242.129 121.201C242.089 121.174 242.056 121.139 242.03 121.098C242.005 121.057 241.988 121.012 241.981 120.964C241.966 120.87 241.988 120.774 242.042 120.696C242.096 120.617 242.178 120.563 242.272 120.543C242.849 120.48 243.433 120.552 243.978 120.754C244.522 120.956 245.012 121.282 245.409 121.706C245.443 121.74 245.469 121.78 245.488 121.823C245.506 121.867 245.515 121.914 245.515 121.962C245.515 122.009 245.506 122.056 245.488 122.1C245.469 122.144 245.443 122.184 245.409 122.217C245.362 122.283 245.295 122.332 245.219 122.358Z" fill="#263238"/>
<path d="M210.206 231.787L212.491 239.114L203.059 237.17C203.059 237.17 201.605 230.384 205.174 229.923L208.512 230.354C208.904 230.399 209.274 230.56 209.575 230.815C209.876 231.07 210.096 231.408 210.206 231.787Z" fill="#CE7A63"/>
<path d="M207.97 244.819L203.86 244.047C203.575 243.993 203.303 243.883 203.061 243.722C202.819 243.562 202.611 243.354 202.451 243.112C202.29 242.87 202.179 242.599 202.125 242.313C202.071 242.028 202.075 241.735 202.136 241.451L203.059 237.18L212.491 239.115L210.336 243.616C210.13 244.049 209.786 244.402 209.358 244.62C208.93 244.837 208.442 244.907 207.97 244.819Z" fill="#CE7A63"/>
<path d="M297.202 75.627H303.748V137.023H297.202C289.156 136.877 281.49 133.579 275.851 127.838C270.213 122.097 267.054 114.372 267.054 106.325C267.054 98.278 270.213 90.5528 275.851 84.8116C281.49 79.0705 289.156 75.7723 297.202 75.627Z" fill="url(#paint6_linear)"/>
<path opacity="0.1" d="M297.202 75.627H303.748V137.023H297.202C289.156 136.877 281.49 133.579 275.851 127.838C270.213 122.097 267.054 114.372 267.054 106.325C267.054 98.278 270.213 90.5528 275.851 84.8116C281.49 79.0705 289.156 75.7723 297.202 75.627Z" fill="black"/>
<path opacity="0.3" d="M303.757 114.349V117.125H268.474C268.121 116.218 267.819 115.291 267.572 114.349H303.757Z" fill="#263238"/>
<path opacity="0.3" d="M273.345 125.625H303.757V137.023H297.202C292.626 137.027 288.108 136.006 283.979 134.033C279.851 132.061 276.217 129.188 273.345 125.625Z" fill="#263238"/>
<path d="M317.44 137.774L317.029 136.832C318.88 136.021 320.655 135.045 322.332 133.915L322.903 134.767C321.177 135.933 319.348 136.939 317.44 137.774Z" fill="url(#paint7_linear)"/>
<path d="M328.286 130.266L327.554 129.545C332.33 124.67 335.481 118.438 336.575 111.702L337.578 111.873C336.457 118.817 333.211 125.244 328.286 130.266Z" fill="url(#paint8_linear)"/>
<path d="M331.052 120.358C338.8 105.281 332.859 86.778 317.783 79.0297C302.706 71.2813 284.203 77.2221 276.454 92.2987C268.706 107.375 274.647 125.879 289.723 133.627C304.8 141.375 323.303 135.435 331.052 120.358Z" fill="url(#paint9_linear)"/>
<path d="M305.652 116.765L303.126 108.866C300.883 109.049 298.637 108.542 296.691 107.412C295.068 106.329 293.871 104.718 293.303 102.852C292.631 100.952 292.731 98.864 293.583 97.0377C294.486 95.1674 296.061 93.7068 297.994 92.948L297.382 91.0435L300.119 90.1213L300.73 92.0259C302.542 91.5983 304.444 91.7779 306.143 92.5371C307.763 93.3569 309.067 94.6889 309.852 96.3261L305.291 98.4711C304.996 97.8437 304.544 97.3033 303.979 96.9028C303.413 96.5022 302.753 96.2552 302.063 96.1857L304.429 103.543C307.697 103.393 310.092 103.794 311.596 104.736C313.184 105.788 314.338 107.38 314.844 109.217C315.579 111.3 315.5 113.584 314.623 115.612C313.65 117.716 311.938 119.389 309.812 120.313L310.423 122.217L307.697 123.1L307.115 121.285C305.067 121.744 302.922 121.486 301.041 120.554C299.072 119.44 297.515 117.721 296.6 115.652L301.352 113.547C301.824 114.432 302.492 115.196 303.306 115.782C303.997 116.294 304.802 116.631 305.652 116.765ZM299.307 97.0077C298.672 97.4599 298.198 98.1024 297.954 98.842C297.708 99.5567 297.708 100.333 297.954 101.047C298.154 101.714 298.561 102.3 299.116 102.721C299.785 103.195 300.574 103.469 301.392 103.513L299.307 97.0077ZM308.469 116.153C309.31 115.726 309.974 115.016 310.343 114.148C310.712 113.28 310.747 112.305 310.443 111.412C310.206 110.617 309.695 109.931 309 109.477C308.128 108.989 307.128 108.776 306.133 108.866L308.469 116.153Z" fill="white"/>
<path opacity="0.1" d="M280.853 96.2759C284.11 90.8141 289.325 86.7981 295.438 85.0448C301.55 83.2915 308.101 83.9326 313.758 86.8376C319.415 89.7426 323.753 94.6934 325.889 100.683C328.025 106.672 327.8 113.251 325.258 119.08C327.009 116.145 328.139 112.882 328.579 109.493C329.019 106.104 328.761 102.661 327.818 99.3756C326.876 96.0906 325.27 93.0335 323.101 90.3931C320.931 87.7527 318.243 85.585 315.203 84.0238C312.163 82.4627 308.835 81.5411 305.425 81.316C302.015 81.0909 298.595 81.5672 295.376 82.7153C292.158 83.8634 289.208 85.659 286.71 87.9913C284.212 90.3237 282.219 93.1432 280.853 96.2759Z" fill="black"/>
<path opacity="0.3" d="M333.448 79.0749C332.947 79.2056 332.491 79.4678 332.126 79.8345C331.761 80.2011 331.501 80.6588 331.373 81.1599C331.332 81.2595 331.263 81.3447 331.174 81.4047C331.084 81.4647 330.979 81.4967 330.872 81.4967C330.764 81.4967 330.659 81.4647 330.57 81.4047C330.481 81.3447 330.411 81.2595 330.371 81.1599C330.242 80.6575 329.98 80.1991 329.613 79.8323C329.247 79.4656 328.788 79.204 328.286 79.0749C328.186 79.0343 328.101 78.9649 328.041 78.8757C327.981 78.7864 327.949 78.6813 327.949 78.5737C327.949 78.4662 327.981 78.3611 328.041 78.2718C328.101 78.1826 328.186 78.1132 328.286 78.0726C328.787 77.9443 329.244 77.6843 329.611 77.3194C329.978 76.9545 330.24 76.4981 330.371 75.9976C330.407 75.8938 330.475 75.8039 330.565 75.7403C330.655 75.6767 330.762 75.6426 330.872 75.6426C330.982 75.6426 331.089 75.6767 331.179 75.7403C331.269 75.8039 331.337 75.8938 331.373 75.9976C331.503 76.4969 331.764 76.9525 332.128 77.3173C332.493 77.682 332.949 77.9428 333.448 78.0726C333.552 78.1091 333.642 78.1769 333.705 78.2666C333.769 78.3564 333.803 78.4637 333.803 78.5737C333.803 78.6838 333.769 78.7911 333.705 78.8809C333.642 78.9706 333.552 79.0384 333.448 79.0749Z" fill="url(#paint10_linear)"/>
<path opacity="0.2" d="M281.204 139.529C280.822 139.625 280.473 139.823 280.194 140.102C279.915 140.381 279.717 140.73 279.62 141.112C279.594 141.193 279.543 141.262 279.474 141.312C279.406 141.361 279.324 141.388 279.239 141.388C279.155 141.388 279.073 141.361 279.004 141.312C278.936 141.262 278.885 141.193 278.858 141.112C278.762 140.732 278.565 140.384 278.288 140.105C278.011 139.827 277.665 139.628 277.285 139.529C277.204 139.502 277.135 139.451 277.085 139.383C277.036 139.314 277.009 139.232 277.009 139.148C277.009 139.063 277.036 138.981 277.085 138.913C277.135 138.844 277.204 138.793 277.285 138.767C277.663 138.668 278.009 138.471 278.286 138.194C278.562 137.917 278.76 137.572 278.858 137.193C278.885 137.113 278.936 137.043 279.004 136.993C279.073 136.944 279.155 136.917 279.239 136.917C279.324 136.917 279.406 136.944 279.474 136.993C279.543 137.043 279.594 137.113 279.62 137.193C279.719 137.573 279.919 137.919 280.197 138.196C280.476 138.473 280.823 138.67 281.204 138.767C281.284 138.793 281.354 138.844 281.404 138.913C281.453 138.981 281.48 139.063 281.48 139.148C281.48 139.232 281.453 139.314 281.404 139.383C281.354 139.451 281.284 139.502 281.204 139.529Z" fill="url(#paint11_linear)"/>
<path opacity="0.4" d="M276.533 75.296C275.859 75.4685 275.243 75.8191 274.751 76.3111C274.259 76.8032 273.909 77.4185 273.736 78.0926C273.687 78.2341 273.595 78.3568 273.473 78.4436C273.351 78.5305 273.204 78.5771 273.055 78.5771C272.905 78.5771 272.759 78.5305 272.636 78.4436C272.514 78.3568 272.422 78.2341 272.373 78.0926C272.201 77.4197 271.852 76.8052 271.362 76.3133C270.872 75.8214 270.259 75.47 269.586 75.296C269.444 75.2494 269.319 75.1589 269.231 75.0374C269.143 74.9158 269.095 74.7695 269.095 74.6194C269.095 74.4692 269.143 74.3229 269.231 74.2014C269.319 74.0798 269.444 73.9893 269.586 73.9428C270.258 73.7668 270.87 73.4148 271.36 72.9232C271.85 72.4316 272.199 71.8181 272.373 71.1461C272.422 71.0046 272.514 70.8819 272.636 70.7951C272.759 70.7083 272.905 70.6616 273.055 70.6616C273.204 70.6616 273.351 70.7083 273.473 70.7951C273.595 70.8819 273.687 71.0046 273.736 71.1461C273.91 71.8198 274.261 72.4346 274.753 72.9265C275.244 73.4184 275.859 73.7693 276.533 73.9428C276.676 73.9893 276.8 74.0798 276.888 74.2014C276.976 74.3229 277.024 74.4692 277.024 74.6194C277.024 74.7695 276.976 74.9158 276.888 75.0374C276.8 75.1589 276.676 75.2494 276.533 75.296Z" fill="url(#paint12_linear)"/>
<defs>
<linearGradient id="paint0_linear" x1="413.888" y1="82.9773" x2="413.888" y2="369.322" gradientUnits="userSpaceOnUse">
<stop stop-color="#4070FF"/>
<stop offset="1" stop-color="#365FD9"/>
</linearGradient>
<linearGradient id="paint1_linear" x1="444.351" y1="412.506" x2="444.351" y2="435.2" gradientUnits="userSpaceOnUse">
<stop stop-color="#4070FF"/>
<stop offset="1" stop-color="#365FD9"/>
</linearGradient>
<linearGradient id="paint2_linear" x1="218.252" y1="238.45" x2="218.252" y2="257.368" gradientUnits="userSpaceOnUse">
<stop stop-color="#4070FF"/>
<stop offset="1" stop-color="#365FD9"/>
</linearGradient>
<linearGradient id="paint3_linear" x1="238.553" y1="251.889" x2="231.336" y2="291.248" gradientUnits="userSpaceOnUse">
<stop stop-color="#4070FF"/>
<stop offset="1" stop-color="#365FD9"/>
</linearGradient>
<linearGradient id="paint4_linear" x1="236.021" y1="251.43" x2="228.805" y2="290.788" gradientUnits="userSpaceOnUse">
<stop stop-color="#4070FF"/>
<stop offset="1" stop-color="#365FD9"/>
</linearGradient>
<linearGradient id="paint5_linear" x1="235.063" y1="241.241" x2="235.063" y2="272.499" gradientUnits="userSpaceOnUse">
<stop stop-color="#4070FF"/>
<stop offset="1" stop-color="#365FD9"/>
</linearGradient>
<linearGradient id="paint6_linear" x1="303.748" y1="75.627" x2="303.748" y2="137.023" gradientUnits="userSpaceOnUse">
<stop stop-color="#4070FF"/>
<stop offset="1" stop-color="#365FD9"/>
</linearGradient>
<linearGradient id="paint7_linear" x1="322.903" y1="133.915" x2="322.903" y2="137.774" gradientUnits="userSpaceOnUse">
<stop stop-color="#4070FF"/>
<stop offset="1" stop-color="#365FD9"/>
</linearGradient>
<linearGradient id="paint8_linear" x1="337.578" y1="111.702" x2="337.578" y2="130.266" gradientUnits="userSpaceOnUse">
<stop stop-color="#4070FF"/>
<stop offset="1" stop-color="#365FD9"/>
</linearGradient>
<linearGradient id="paint9_linear" x1="290.484" y1="65" x2="345.081" y2="93.0593" gradientUnits="userSpaceOnUse">
<stop stop-color="#4070FF"/>
<stop offset="1" stop-color="#365FD9"/>
</linearGradient>
<linearGradient id="paint10_linear" x1="333.803" y1="75.6426" x2="333.803" y2="81.4967" gradientUnits="userSpaceOnUse">
<stop stop-color="#4070FF"/>
<stop offset="1" stop-color="#365FD9"/>
</linearGradient>
<linearGradient id="paint11_linear" x1="281.48" y1="136.917" x2="281.48" y2="141.388" gradientUnits="userSpaceOnUse">
<stop stop-color="#4070FF"/>
<stop offset="1" stop-color="#365FD9"/>
</linearGradient>
<linearGradient id="paint12_linear" x1="277.024" y1="70.6616" x2="277.024" y2="78.5771" gradientUnits="userSpaceOnUse">
<stop stop-color="#4070FF"/>
<stop offset="1" stop-color="#365FD9"/>
</linearGradient>
</defs>
</svg>
