<svg width="500" height="500" viewBox="0 0 500 500" fill="none" xmlns="http://www.w3.org/2000/svg">
<path opacity="0.1" d="M165.661 309.478C281.143 309.804 398.283 402.752 424.858 249.441C438.362 171.435 499.065 140.982 462.382 90.7386C437.18 56.2923 350.881 29.4253 309.47 30.0093C247.083 30.8787 220.25 73.7056 186.665 118.855C148.624 169.941 99.5777 174.396 55.7352 213.297C23.7533 241.685 10.4797 314.476 52.3386 343.788C103.64 379.701 116.411 309.342 165.661 309.478Z" fill="url(#paint0_linear)"/>
<path opacity="0.1" d="M250 427.56C357.082 427.56 443.89 422.492 443.89 416.24C443.89 409.988 357.082 404.92 250 404.92C142.918 404.92 56.11 409.988 56.11 416.24C56.11 422.492 142.918 427.56 250 427.56Z" fill="url(#paint1_linear)"/>
<path d="M377.55 109.15H262.46C258.513 109.215 254.731 110.749 251.854 113.452C248.977 116.156 247.21 119.834 246.9 123.77L229 399.33C228.854 401.206 229.1 403.092 229.723 404.868C230.346 406.644 231.332 408.271 232.618 409.645C233.903 411.02 235.461 412.111 237.192 412.851C238.923 413.59 240.788 413.961 242.67 413.94H357.8C361.747 413.878 365.528 412.346 368.405 409.644C371.283 406.942 373.049 403.265 373.36 399.33L386.2 201.27C386.745 201.08 387.224 200.736 387.579 200.28C387.934 199.824 388.149 199.275 388.2 198.7L390.5 163.26C390.54 162.709 390.4 162.161 390.1 161.697C389.801 161.233 389.358 160.88 388.84 160.69L391.23 123.77C391.376 121.892 391.129 120.005 390.506 118.228C389.883 116.451 388.896 114.823 387.609 113.448C386.323 112.072 384.764 110.98 383.032 110.24C381.3 109.5 379.433 109.129 377.55 109.15Z" fill="url(#paint2_linear)"/>
<path d="M237.58 180.5H239.84C240.539 180.487 241.209 180.215 241.719 179.737C242.229 179.258 242.543 178.607 242.6 177.91L243.6 163.11C243.625 162.777 243.58 162.442 243.469 162.128C243.358 161.813 243.183 161.524 242.954 161.281C242.726 161.037 242.449 160.844 242.142 160.713C241.835 160.582 241.504 160.516 241.17 160.52H238.92C238.22 160.53 237.549 160.802 237.039 161.281C236.528 161.76 236.215 162.412 236.16 163.11L235.16 177.91C235.135 178.242 235.179 178.576 235.29 178.89C235.4 179.204 235.575 179.492 235.802 179.735C236.03 179.979 236.305 180.172 236.611 180.304C236.917 180.436 237.247 180.502 237.58 180.5Z" fill="url(#paint3_linear)"/>
<path d="M235.87 206.92H238.12C238.822 206.907 239.494 206.634 240.006 206.154C240.518 205.673 240.833 205.02 240.89 204.32L241.89 189.53C241.915 189.197 241.87 188.862 241.759 188.548C241.648 188.233 241.473 187.944 241.244 187.701C241.016 187.457 240.739 187.264 240.432 187.133C240.125 187.002 239.794 186.936 239.46 186.94H237.21C236.509 186.95 235.837 187.221 235.325 187.7C234.812 188.179 234.497 188.831 234.44 189.53L233.44 204.32C233.412 204.654 233.454 204.99 233.564 205.307C233.674 205.624 233.849 205.914 234.078 206.159C234.307 206.404 234.585 206.598 234.893 206.729C235.202 206.86 235.535 206.925 235.87 206.92Z" fill="url(#paint4_linear)"/>
<path d="M351.68 413.94H236.59C234.708 413.961 232.843 413.59 231.112 412.851C229.381 412.111 227.823 411.02 226.538 409.645C225.252 408.271 224.266 406.644 223.643 404.868C223.02 403.092 222.774 401.206 222.92 399.33L240.78 123.77C241.093 119.833 242.861 116.155 245.74 113.451C248.619 110.748 252.402 109.215 256.35 109.15H371.43C373.312 109.13 375.178 109.503 376.909 110.243C378.639 110.984 380.197 112.076 381.483 113.451C382.768 114.826 383.754 116.454 384.377 118.23C384.999 120.007 385.246 121.893 385.1 123.77L367.24 399.33C366.929 403.265 365.163 406.942 362.285 409.644C359.408 412.346 355.627 413.878 351.68 413.94Z" fill="#263238"/>
<path opacity="0.2" d="M301.958 402.223C305.99 398.32 306.293 392.094 302.636 388.316C298.979 384.538 292.746 384.64 288.715 388.543C284.683 392.445 284.38 398.672 288.037 402.449C291.693 406.227 297.926 406.125 301.958 402.223Z" fill="white"/>
<path d="M362.08 378.17H231.25C230.804 378.17 230.364 378.078 229.955 377.9C229.546 377.723 229.178 377.464 228.874 377.139C228.569 376.813 228.335 376.429 228.184 376.01C228.034 375.59 227.971 375.145 228 374.7L243.31 138.38C243.378 137.564 243.749 136.803 244.351 136.247C244.953 135.692 245.741 135.382 246.56 135.38H377.4C377.846 135.38 378.286 135.472 378.695 135.65C379.104 135.827 379.472 136.086 379.776 136.411C380.081 136.737 380.315 137.121 380.466 137.54C380.616 137.96 380.679 138.405 380.65 138.85L365.33 375.12C365.277 375.946 364.911 376.721 364.308 377.287C363.704 377.854 362.908 378.169 362.08 378.17Z" fill="white"/>
<path opacity="0.2" d="M325.576 285.026C340.211 270.859 341.312 248.257 328.036 234.543C314.761 220.83 292.135 221.197 277.501 235.364C262.866 249.531 261.765 272.132 275.04 285.846C288.316 299.56 310.942 299.193 325.576 285.026Z" fill="url(#paint5_linear)"/>
<path opacity="0.2" d="M298 315.26C267.63 315.26 244.52 290.55 246.49 260.18C248.46 229.81 274.76 205.1 305.14 205.1C335.52 205.1 358.62 229.81 356.65 260.18C354.68 290.55 328.34 315.26 298 315.26ZM305 206.1C275.18 206.1 249.35 230.36 247.42 260.18C245.49 290 268.17 314.26 297.99 314.26C327.81 314.26 353.64 290 355.58 260.18C357.52 230.36 334.86 206.1 305 206.1Z" fill="url(#paint6_linear)"/>
<path d="M293 277.49L290 271.7C283.5 259.09 268.53 247.82 263.3 244.54L268.24 237.15C274.43 241.03 286.8 250.64 294.56 262.06C308.91 245.06 329.19 227.55 356.34 208.66L360.97 215.66C331.97 235.84 311.1 254.29 297.22 272.07L293 277.49Z" fill="url(#paint7_linear)"/>
<path opacity="0.2" d="M291.582 124.881C293.213 123.302 293.333 120.78 291.85 119.249C290.367 117.717 287.843 117.755 286.212 119.334C284.581 120.913 284.461 123.434 285.944 124.966C287.427 126.498 289.951 126.459 291.582 124.881Z" fill="white"/>
<path opacity="0.2" d="M302.91 118.12H336C336.514 118.114 337.024 118.216 337.497 118.418C337.97 118.621 338.395 118.92 338.745 119.297C339.095 119.673 339.363 120.119 339.531 120.605C339.699 121.092 339.763 121.607 339.72 122.12C339.638 123.195 339.158 124.201 338.374 124.94C337.59 125.68 336.558 126.101 335.48 126.12H302.4C301.886 126.124 301.376 126.022 300.904 125.819C300.431 125.616 300.006 125.316 299.655 124.94C299.305 124.564 299.036 124.119 298.866 123.634C298.697 123.148 298.63 122.633 298.67 122.12C298.752 121.045 299.232 120.039 300.016 119.3C300.8 118.56 301.832 118.139 302.91 118.12Z" fill="white"/>
<path d="M179.74 192C178.05 193.73 176.24 195.64 174.57 197.54C172.9 199.44 171.23 201.39 169.66 203.39C168.09 205.39 166.66 207.39 165.18 209.5L164.18 211.07L163.18 212.66C162.85 213.19 162.55 213.73 162.26 214.28L161.46 215.75C161.134 216.591 160.948 217.479 160.91 218.38C160.83 219.539 160.83 220.701 160.91 221.86C161.106 224.36 161.44 226.847 161.91 229.31C162.35 231.83 162.91 234.36 163.5 236.88C164.09 239.4 164.74 241.95 165.4 244.43L161.7 245.82C159.426 240.929 157.521 235.875 156 230.7C155.228 228.033 154.636 225.317 154.23 222.57C154.028 221.105 153.924 219.629 153.92 218.15C153.897 216.408 154.191 214.676 154.79 213.04C155.02 212.48 155.14 212.26 155.3 211.92L155.76 210.97C156.06 210.34 156.37 209.71 156.76 209.1L157.76 207.26L158.82 205.47C160.232 203.112 161.771 200.832 163.43 198.64C165.07 196.45 166.77 194.32 168.56 192.26C170.35 190.2 172.16 188.26 174.24 186.26L179.74 192Z" fill="#B55B52"/>
<path d="M180.17 180C174.75 180.24 169.6 189.24 169.6 189.24L176.76 203.85C176.76 203.85 186.46 195.77 186.58 187.85C186.66 182.66 185.5 179.75 180.17 180Z" fill="url(#paint8_linear)"/>
<path opacity="0.7" d="M180.17 180C174.75 180.24 169.6 189.24 169.6 189.24L176.76 203.85C176.76 203.85 186.46 195.77 186.58 187.85C186.66 182.66 185.5 179.75 180.17 180Z" fill="white"/>
<path opacity="0.2" d="M181.46 190.5C179.88 192.89 179.12 199.09 178.88 201.85C181.266 199.53 183.289 196.863 184.88 193.94C183.81 191.27 182.5 188.93 181.46 190.5Z" fill="black"/>
<path d="M164.33 242.91L170.92 244.91L166.53 249.35C166.53 249.35 161.78 247.88 161.12 244.65L164.33 242.91Z" fill="#B55B52"/>
<path d="M174.91 249.94L173.8 254.19L166.53 249.31L170.92 244.87L174.91 249.94Z" fill="#B55B52"/>
<path d="M218.27 162.65C218.06 163.24 218.21 163.84 218.6 163.98C218.99 164.12 219.47 163.77 219.67 163.18C219.87 162.59 219.73 161.98 219.34 161.84C218.95 161.7 218.48 162.05 218.27 162.65Z" fill="#263238"/>
<path d="M219.16 161.81L220.73 161.94C220.73 161.94 219.61 162.77 219.16 161.81Z" fill="#263238"/>
<path d="M218.57 163.41C218.629 164.966 218.898 166.506 219.37 167.99C218.988 168.09 218.59 168.106 218.201 168.037C217.813 167.968 217.444 167.815 217.12 167.59L218.57 163.41Z" fill="#A02724"/>
<path d="M220.21 160.34C220.139 160.33 220.072 160.299 220.019 160.251C219.965 160.203 219.927 160.14 219.91 160.07C219.8 159.618 219.59 159.197 219.293 158.838C218.997 158.48 218.623 158.193 218.2 158C218.109 157.966 218.035 157.898 217.994 157.81C217.953 157.722 217.948 157.622 217.98 157.53C217.996 157.484 218.02 157.442 218.053 157.406C218.085 157.37 218.124 157.341 218.168 157.32C218.212 157.299 218.26 157.288 218.308 157.286C218.357 157.285 218.405 157.293 218.45 157.31C218.994 157.546 219.475 157.908 219.854 158.365C220.233 158.822 220.499 159.361 220.63 159.94C220.642 159.987 220.644 160.036 220.637 160.085C220.63 160.133 220.614 160.179 220.589 160.221C220.563 160.263 220.53 160.299 220.491 160.328C220.452 160.357 220.407 160.378 220.36 160.39L220.21 160.34Z" fill="#263238"/>
<path d="M197.73 165.16C197.87 169.89 197.39 178.4 193.73 180.81C193.73 180.81 194.22 185.67 202.73 187.32C212.08 189.13 207.96 183.57 207.96 183.57C203.06 181.37 203.81 177.63 205.28 174.27L197.73 165.16Z" fill="#B55B52"/>
<path d="M225.52 197.53C226.36 199.82 227.32 202.3 228.34 204.65C229.36 207 230.34 209.38 231.53 211.65C232.72 213.92 233.88 216.2 235.14 218.41C235.79 219.5 236.44 220.59 237.14 221.63C237.48 222.17 237.83 222.69 238.2 223.18L238.74 223.94L239.01 224.33L239.15 224.52L239.24 224.62C239.89 225.36 240.637 226.009 241.46 226.55C242.451 227.227 243.479 227.848 244.54 228.41C246.73 229.59 249.08 230.66 251.47 231.67C253.86 232.68 256.3 233.67 258.77 234.54C261.24 235.41 263.77 236.33 266.2 237.18L265.27 241.03C259.911 240.134 254.616 238.888 249.42 237.3C246.76 236.489 244.149 235.524 241.6 234.41C240.264 233.817 238.962 233.149 237.7 232.41C236.236 231.576 234.911 230.52 233.77 229.28L233.53 229.01L233.36 228.8L233.03 228.39L232.37 227.55C231.92 227 231.49 226.44 231.09 225.87C230.24 224.74 229.46 223.58 228.69 222.41C227.173 220.089 225.774 217.693 224.5 215.23C223.23 212.78 222.03 210.31 220.93 207.79C219.83 205.27 218.84 202.79 217.93 200.03L225.52 197.53Z" fill="#B55B52"/>
<path d="M264.88 237.16L270.78 234.88L270.49 241.69C270.49 241.69 265.71 242.96 263.49 240.55L264.88 237.16Z" fill="#B55B52"/>
<path d="M275.23 237.22L277.25 241.57L270.49 241.69L270.78 234.88L275.23 237.22Z" fill="#B55B52"/>
<path d="M177.38 407.89L185.19 408.47L187.51 390.54L179.7 389.96L177.38 407.89Z" fill="#B55B52"/>
<path d="M115.52 367.33L120.62 373.39L135.76 363.66L130.66 357.6L115.52 367.33Z" fill="#B55B52"/>
<path d="M123 372.61L118.89 364.71C118.825 364.573 118.711 364.464 118.571 364.405C118.431 364.346 118.274 364.341 118.13 364.39L111.6 366.65C111.436 366.716 111.288 366.816 111.166 366.943C111.043 367.07 110.949 367.222 110.89 367.388C110.83 367.555 110.806 367.732 110.82 367.908C110.834 368.084 110.885 368.255 110.97 368.41C112.45 371.14 113.3 372.41 115.1 375.86C116.22 377.99 117.63 381.23 119.16 384.18C120.69 387.13 123.61 385.82 123.23 384.45C121.51 378.34 122.65 376.65 123.23 374C123.312 373.524 123.231 373.034 123 372.61Z" fill="#263238"/>
<path d="M185.68 407.36H176.9C176.749 407.358 176.602 407.411 176.486 407.508C176.371 407.605 176.294 407.741 176.27 407.89L175.09 414.83C175.066 415.003 175.079 415.179 175.128 415.347C175.178 415.514 175.263 415.669 175.378 415.801C175.493 415.933 175.634 416.038 175.793 416.111C175.953 416.183 176.125 416.22 176.3 416.22C179.37 416.17 180.84 415.99 184.7 415.99C187.08 415.99 191.98 416.24 195.26 416.24C198.54 416.24 198.8 413 197.44 412.7C191.35 411.39 188.99 409.57 186.97 407.84C186.614 407.527 186.154 407.356 185.68 407.36Z" fill="#263238"/>
<path opacity="0.2" d="M187.51 390.54L186.22 400.51L178.44 399.73L179.7 389.97L187.51 390.54Z" fill="black"/>
<path opacity="0.2" d="M130.66 357.6L135.76 363.66L129.49 367.69L124.2 361.75L130.66 357.6Z" fill="black"/>
<path d="M178 227.55L209.32 233.62C224.12 190.05 220.58 188.62 220.58 188.62C218.279 187.377 215.905 186.275 213.47 185.32L213.04 185.16C211.04 184.43 210.62 184.32 207.94 183.54C203.32 182.45 199.03 181.54 193.72 180.79L192.72 180.65C191.72 180.53 190.8 180.43 189.88 180.34C189.26 180.27 188.64 180.23 188.05 180.19L186.05 180.08C182.63 179.91 180.18 179.96 180.18 179.96C181.9 207.17 180.59 215 178 227.55Z" fill="url(#paint9_linear)"/>
<path opacity="0.7" d="M178 227.55L209.32 233.62C224.12 190.05 220.58 188.62 220.58 188.62C218.279 187.377 215.905 186.275 213.47 185.32L213.04 185.16C211.04 184.43 210.62 184.32 207.94 183.54C203.32 182.45 199.03 181.54 193.72 180.79L192.72 180.65C191.72 180.53 190.8 180.43 189.88 180.34C189.26 180.27 188.64 180.23 188.05 180.19L186.05 180.08C182.63 179.91 180.18 179.96 180.18 179.96C181.9 207.17 180.59 215 178 227.55Z" fill="white"/>
<path opacity="0.2" d="M216.08 198.79L213.25 198.33C213.25 202.06 214.67 208.46 216.05 212.53C217.22 208.53 218.13 205.24 218.82 202.47L216.08 198.79Z" fill="black"/>
<path d="M219.49 188.09C224.12 189.57 227.49 198.73 228.75 202.68L219.75 213.25C219.75 213.25 210.53 200 212 195.89C213.44 191.61 217.25 187.36 219.49 188.09Z" fill="url(#paint10_linear)"/>
<path opacity="0.7" d="M219.49 188.09C224.12 189.57 227.49 198.73 228.75 202.68L219.75 213.25C219.75 213.25 210.53 200 212 195.89C213.44 191.61 217.25 187.36 219.49 188.09Z" fill="white"/>
<path d="M222.49 154.27C221.56 157 217.49 158.09 213.44 156.72C209.39 155.35 206.83 152 207.76 149.27C208.69 146.54 212.76 145.45 216.76 146.83C220.76 148.21 223.41 151.54 222.49 154.27Z" fill="#263238"/>
<path d="M199 153.52C196.92 160.96 195.88 164.06 198.26 169.18C201.84 176.89 211.42 178.1 215.68 171.49C219.51 165.55 222.27 154.38 216.15 148.79C214.858 147.542 213.264 146.652 211.523 146.208C209.783 145.765 207.956 145.782 206.225 146.26C204.493 146.737 202.916 147.658 201.649 148.931C200.382 150.205 199.469 151.786 199 153.52Z" fill="#B55B52"/>
<path d="M210.62 144.83C207.62 146.55 201.25 135.78 193.34 144.83C187.68 151.32 191.29 160.83 191.29 160.83C191.29 160.83 186.78 152.9 183.18 156.77C178.48 161.77 183.34 179.66 198.84 178.43C214.34 177.2 212.84 164.62 212.84 164.62C212.84 164.62 220.1 157.24 219.74 150.62C219.47 145.66 215.62 142 210.62 144.83Z" fill="#263238"/>
<path d="M212.5 159.91C212.113 161.294 212.162 162.764 212.64 164.12C213.28 166.03 214.75 166.04 215.53 164.72C216.31 163.4 216.74 161.11 215.63 159.57C214.52 158.03 213 158.38 212.5 159.91Z" fill="#B55B52"/>
<path d="M201 232C201 232 197.66 243.58 193.37 258.86C190.52 269.04 187.24 280.86 184.25 291.99C182.54 298.36 180.93 304.5 179.54 309.99C171.68 341.04 132.48 367.73 132.48 367.73L124.89 359.38C124.89 359.38 151.23 337.2 158.89 308.23C174.36 249.42 165.66 239.5 177.99 227.55L201 232Z" fill="#263238"/>
<path opacity="0.2" d="M197.62 242.38C196.46 246.87 195 252.54 193.39 258.88C190.54 269.06 187.26 280.88 184.27 292.01C182.99 277.81 182.27 251.7 192.72 243.58C194.78 242 196.41 241.67 197.62 242.38Z" fill="black"/>
<path d="M133.13 368.93L123.65 358.5L126.52 355.62L138.15 366.58L133.13 368.93Z" fill="url(#paint11_linear)"/>
<path opacity="0.7" d="M133.13 368.93L123.65 358.5L126.52 355.62L138.15 366.58L133.13 368.93Z" fill="white"/>
<path d="M124.43 376.85C124.335 376.848 124.24 376.831 124.15 376.8C123.22 376.46 122.63 374.68 122.36 373.65C122.351 373.615 122.353 373.578 122.366 373.544C122.378 373.51 122.401 373.481 122.43 373.46C122.459 373.439 122.494 373.427 122.53 373.427C122.566 373.427 122.601 373.439 122.63 373.46C122.91 373.62 125.37 375.06 125.42 376.07C125.428 376.18 125.407 376.29 125.357 376.389C125.308 376.487 125.233 376.571 125.14 376.63C124.936 376.783 124.685 376.86 124.43 376.85ZM122.84 374C123.25 375.35 123.77 376.26 124.28 376.44C124.389 376.474 124.505 376.48 124.617 376.457C124.728 376.434 124.833 376.384 124.92 376.31C125.05 376.22 125.06 376.13 125.05 376.07C125 375.55 123.81 374.61 122.84 374Z" fill="url(#paint12_linear)"/>
<path d="M208.82 233.62C208.82 233.62 210.82 295.44 206.4 318.73C201.86 343 188 398 188 398L176.74 396.55C176.74 396.55 183.86 340.89 186.89 316.83C190.18 290.59 185.89 229.14 185.89 229.14L208.82 233.62Z" fill="#263238"/>
<path d="M190.42 398.69L174.37 396.62L174.56 392.8L192.03 393.56L190.42 398.69Z" fill="url(#paint13_linear)"/>
<path opacity="0.7" d="M190.42 398.69L174.37 396.62L174.56 392.8L192.03 393.56L190.42 398.69Z" fill="white"/>
<path d="M124.81 374.43C123.979 374.39 123.169 374.161 122.44 373.76C122.413 373.743 122.39 373.72 122.374 373.692C122.359 373.664 122.35 373.632 122.35 373.6C122.354 373.568 122.366 373.537 122.383 373.509C122.4 373.482 122.423 373.458 122.45 373.44C122.54 373.44 124.45 372.39 125.55 372.8C125.688 372.85 125.813 372.929 125.917 373.033C126.02 373.137 126.1 373.262 126.15 373.4C126.216 373.533 126.235 373.684 126.204 373.829C126.173 373.975 126.094 374.105 125.98 374.2C125.625 374.4 125.215 374.481 124.81 374.43ZM122.94 373.62C123.81 374.02 125.33 374.24 125.75 373.91C125.82 373.85 125.89 373.76 125.75 373.53C125.721 373.441 125.671 373.361 125.605 373.295C125.539 373.229 125.459 373.179 125.37 373.15C124.531 373.056 123.683 373.22 122.94 373.62Z" fill="url(#paint14_linear)"/>
<path d="M188.58 408.72C187.756 408.703 186.936 408.609 186.13 408.44C186.092 408.436 186.056 408.419 186.029 408.391C186.001 408.364 185.984 408.328 185.98 408.29C185.974 408.252 185.981 408.213 185.999 408.178C186.017 408.144 186.045 408.117 186.08 408.1C186.44 407.91 189.6 406.32 190.54 406.85C190.63 406.899 190.705 406.972 190.757 407.06C190.81 407.147 190.839 407.248 190.84 407.35C190.859 407.517 190.837 407.685 190.774 407.841C190.711 407.997 190.61 408.134 190.48 408.24C189.918 408.608 189.249 408.777 188.58 408.72ZM186.75 408.18C188.47 408.47 189.75 408.39 190.24 407.97C190.324 407.896 190.389 407.803 190.429 407.698C190.469 407.594 190.483 407.481 190.47 407.37C190.473 407.33 190.464 407.289 190.445 407.254C190.425 407.218 190.396 407.189 190.36 407.17C189.85 406.89 188.05 407.56 186.75 408.18Z" fill="url(#paint15_linear)"/>
<path d="M186.17 408.45C186.134 408.46 186.096 408.46 186.06 408.45C186.033 408.431 186.012 408.405 185.998 408.376C185.983 408.346 185.977 408.313 185.98 408.28C185.98 408.14 186.37 404.76 188.26 404.96C188.76 405.01 188.91 405.26 188.94 405.47C189.08 406.35 187.19 408.05 186.24 408.47L186.17 408.45ZM188.11 405.28C186.99 405.28 186.54 407.13 186.4 407.93C187.4 407.35 188.66 406.02 188.58 405.49C188.58 405.49 188.58 405.32 188.22 405.29L188.11 405.28Z" fill="url(#paint16_linear)"/>
<path d="M177.8 225.64L175.93 228.15C175.79 228.35 176.01 228.62 176.37 228.69L209.22 235.05C209.5 235.05 209.76 235.05 209.8 234.84L210.55 232.1C210.55 231.92 210.38 231.7 210.07 231.64L178.35 225.5C178.254 225.474 178.153 225.474 178.057 225.498C177.96 225.523 177.872 225.571 177.8 225.64Z" fill="url(#paint17_linear)"/>
<path d="M181.48 230L180.63 229.83C180.46 229.83 180.35 229.69 180.38 229.59L181.38 226.04C181.38 225.94 181.58 225.88 181.74 225.91L182.59 226.08C182.76 226.08 182.88 226.22 182.85 226.32L181.85 229.87C181.81 230 181.65 230 181.48 230Z" fill="#263238"/>
<path d="M202.93 234.19L202.08 234.03C201.91 234.03 201.8 233.88 201.83 233.78L202.83 230.24C202.83 230.13 203.02 230.07 203.19 230.11L204.04 230.27C204.2 230.27 204.32 230.42 204.29 230.52L203.29 234.06C203.26 234.17 203.1 234.23 202.93 234.19Z" fill="#263238"/>
<defs>
<linearGradient id="paint0_linear" x1="474" y1="30" x2="474" y2="354" gradientUnits="userSpaceOnUse">
<stop stop-color="#4070FF"/>
<stop offset="1" stop-color="#365FD9"/>
</linearGradient>
<linearGradient id="paint1_linear" x1="443.89" y1="404.92" x2="443.89" y2="427.56" gradientUnits="userSpaceOnUse">
<stop stop-color="#4070FF"/>
<stop offset="1" stop-color="#365FD9"/>
</linearGradient>
<linearGradient id="paint2_linear" x1="391.271" y1="109.149" x2="391.271" y2="413.941" gradientUnits="userSpaceOnUse">
<stop stop-color="#4070FF"/>
<stop offset="1" stop-color="#365FD9"/>
</linearGradient>
<linearGradient id="paint3_linear" x1="243.607" y1="160.52" x2="243.607" y2="180.5" gradientUnits="userSpaceOnUse">
<stop stop-color="#4070FF"/>
<stop offset="1" stop-color="#365FD9"/>
</linearGradient>
<linearGradient id="paint4_linear" x1="241.897" y1="186.94" x2="241.897" y2="206.92" gradientUnits="userSpaceOnUse">
<stop stop-color="#4070FF"/>
<stop offset="1" stop-color="#365FD9"/>
</linearGradient>
<linearGradient id="paint5_linear" x1="303.999" y1="209.712" x2="352.074" y2="259.374" gradientUnits="userSpaceOnUse">
<stop stop-color="#4070FF"/>
<stop offset="1" stop-color="#365FD9"/>
</linearGradient>
<linearGradient id="paint6_linear" x1="356.767" y1="205.1" x2="356.767" y2="315.26" gradientUnits="userSpaceOnUse">
<stop stop-color="#4070FF"/>
<stop offset="1" stop-color="#365FD9"/>
</linearGradient>
<linearGradient id="paint7_linear" x1="360.97" y1="208.66" x2="360.97" y2="277.49" gradientUnits="userSpaceOnUse">
<stop stop-color="#4070FF"/>
<stop offset="1" stop-color="#365FD9"/>
</linearGradient>
<linearGradient id="paint8_linear" x1="186.584" y1="179.985" x2="186.584" y2="203.85" gradientUnits="userSpaceOnUse">
<stop stop-color="#4070FF"/>
<stop offset="1" stop-color="#365FD9"/>
</linearGradient>
<linearGradient id="paint9_linear" x1="220.951" y1="179.953" x2="220.951" y2="233.62" gradientUnits="userSpaceOnUse">
<stop stop-color="#4070FF"/>
<stop offset="1" stop-color="#365FD9"/>
</linearGradient>
<linearGradient id="paint10_linear" x1="228.75" y1="188.008" x2="228.75" y2="213.25" gradientUnits="userSpaceOnUse">
<stop stop-color="#4070FF"/>
<stop offset="1" stop-color="#365FD9"/>
</linearGradient>
<linearGradient id="paint11_linear" x1="138.15" y1="355.62" x2="138.15" y2="368.93" gradientUnits="userSpaceOnUse">
<stop stop-color="#4070FF"/>
<stop offset="1" stop-color="#365FD9"/>
</linearGradient>
<linearGradient id="paint12_linear" x1="125.422" y1="373.427" x2="125.422" y2="376.851" gradientUnits="userSpaceOnUse">
<stop stop-color="#4070FF"/>
<stop offset="1" stop-color="#365FD9"/>
</linearGradient>
<linearGradient id="paint13_linear" x1="192.03" y1="392.8" x2="192.03" y2="398.69" gradientUnits="userSpaceOnUse">
<stop stop-color="#4070FF"/>
<stop offset="1" stop-color="#365FD9"/>
</linearGradient>
<linearGradient id="paint14_linear" x1="126.218" y1="372.705" x2="126.218" y2="374.445" gradientUnits="userSpaceOnUse">
<stop stop-color="#4070FF"/>
<stop offset="1" stop-color="#365FD9"/>
</linearGradient>
<linearGradient id="paint15_linear" x1="190.847" y1="406.742" x2="190.847" y2="408.731" gradientUnits="userSpaceOnUse">
<stop stop-color="#4070FF"/>
<stop offset="1" stop-color="#365FD9"/>
</linearGradient>
<linearGradient id="paint16_linear" x1="188.947" y1="404.951" x2="188.947" y2="408.47" gradientUnits="userSpaceOnUse">
<stop stop-color="#4070FF"/>
<stop offset="1" stop-color="#365FD9"/>
</linearGradient>
<linearGradient id="paint17_linear" x1="210.55" y1="225.48" x2="210.55" y2="235.05" gradientUnits="userSpaceOnUse">
<stop stop-color="#4070FF"/>
<stop offset="1" stop-color="#365FD9"/>
</linearGradient>
</defs>
</svg>
