<svg width="500" height="500" viewBox="0 0 500 500" fill="none" xmlns="http://www.w3.org/2000/svg">
<path opacity="0.1" d="M201 144.86C-8.25014 70.25 37.2099 254 111.94 287.88C186.69 322.12 308.85 341.13 352.94 312.29C412.5 278 428.2 191 392.2 135.42C356.28 85.56 286 84 252 134.68C238.63 148.43 219.28 148 201 144.86Z" fill="url(#paint0_linear)"/>
<path opacity="0.1" d="M250 436.56C357.083 436.56 443.89 431.492 443.89 425.24C443.89 418.988 357.083 413.92 250 413.92C142.918 413.92 56.1101 418.988 56.1101 425.24C56.1101 431.492 142.918 436.56 250 436.56Z" fill="url(#paint1_linear)"/>
<path d="M390.77 140.44C388.83 140.03 386.34 137.28 386.06 132.61C385.72 126.61 392.21 126.27 395.35 127.7C398.49 129.13 396.75 137.13 390.77 140.44Z" fill="#263238"/>
<path d="M440.01 402.13L432.54 404.66L425.56 387.5L433.02 384.97L440.01 402.13Z" fill="#FFC3BD"/>
<path d="M431.36 404.09L440.45 401.01C440.592 400.956 440.75 400.957 440.891 401.015C441.032 401.072 441.146 401.182 441.21 401.32L444.31 407.77C444.382 407.936 444.419 408.114 444.419 408.294C444.419 408.475 444.381 408.653 444.309 408.818C444.237 408.983 444.131 409.132 443.999 409.254C443.866 409.377 443.71 409.471 443.54 409.53C440.6 410.47 438.42 411.02 434.74 412.27C432.47 413.04 427.94 414.69 424.81 415.75C421.68 416.81 420.51 413.75 421.72 412.98C427.17 409.71 428.82 407.34 430.26 404.98C430.512 404.565 430.901 404.25 431.36 404.09Z" fill="#263238"/>
<path opacity="0.2" d="M433.02 384.97L425.56 387.5L429.16 396.35L436.63 393.82L433.02 384.97Z" fill="black"/>
<path d="M392.73 169.33H398.73C396.73 171.03 396.91 216.75 398.6 238.7C393.81 239 385.03 237.33 385.03 237.33C385.03 237.33 384.19 203.11 392.73 169.33Z" fill="url(#paint2_linear)"/>
<path opacity="0.4" d="M392.73 169.33H398.73C396.73 171.03 396.91 216.75 398.6 238.7C393.81 239 385.03 237.33 385.03 237.33C385.03 237.33 384.19 203.11 392.73 169.33Z" fill="black"/>
<path d="M389.54 417.14H381.6L380.41 398.76H388.34L389.54 417.14Z" fill="#FFC3BD"/>
<path opacity="0.2" d="M388.34 398.77H380.41L381.03 408.24H388.96L388.34 398.77Z" fill="black"/>
<path d="M376.54 405L390.7 404.88C390.7 404.88 388.32 353.15 389.82 328.52C390.28 321.02 390.19 310.63 392.3 299.45C394.98 285.36 398.41 270.11 401.24 258.18C404.24 245.6 402.66 236.7 402.66 236.7L374.77 235.05C374.77 235.05 367.56 301.05 367.55 325.23C367.53 350.44 376.54 405 376.54 405Z" fill="#263238"/>
<path d="M380.65 416.22H390.32C390.474 416.214 390.624 416.266 390.741 416.366C390.858 416.466 390.933 416.607 390.95 416.76L391.85 423.81C391.865 423.99 391.843 424.171 391.785 424.341C391.726 424.512 391.633 424.669 391.51 424.801C391.388 424.934 391.24 425.039 391.074 425.112C390.909 425.184 390.73 425.221 390.55 425.22C387.44 425.17 385.19 424.99 381.27 424.99C378.86 424.99 370.15 425.24 366.82 425.24C363.49 425.24 363.37 421.95 364.76 421.65C371 420.31 377.19 418.47 379.32 416.71C379.691 416.394 380.163 416.221 380.65 416.22Z" fill="#263238"/>
<path d="M375.41 406.72H393.63L393.52 401.61L374.45 401.28L375.41 406.72Z" fill="url(#paint3_linear)"/>
<path d="M377.89 417.6C377.365 417.646 376.841 417.504 376.41 417.2C376.273 417.077 376.172 416.919 376.119 416.742C376.066 416.566 376.063 416.378 376.11 416.2C376.121 416.087 376.161 415.98 376.226 415.887C376.29 415.794 376.378 415.719 376.48 415.67C377.4 415.21 379.81 416.79 380.09 416.97C380.119 416.991 380.14 417.021 380.151 417.055C380.161 417.09 380.161 417.126 380.15 417.16C380.139 417.195 380.119 417.227 380.093 417.253C380.067 417.28 380.035 417.299 380 417.31C379.309 417.482 378.602 417.579 377.89 417.6ZM376.89 415.96C376.804 415.959 376.719 415.976 376.64 416.01C376.601 416.033 376.567 416.065 376.543 416.103C376.518 416.141 376.504 416.185 376.5 416.23C376.472 416.35 376.474 416.476 376.507 416.595C376.54 416.714 376.603 416.822 376.69 416.91C377.09 417.28 378.13 417.33 379.5 417.06C378.706 416.529 377.81 416.168 376.87 416L376.89 415.96Z" fill="url(#paint4_linear)"/>
<path d="M380 417.33C379.974 417.34 379.946 417.34 379.92 417.33C379.14 416.89 377.71 415.15 377.97 414.26C378.012 414.122 378.096 414 378.211 413.912C378.326 413.824 378.465 413.774 378.61 413.77C378.749 413.753 378.891 413.766 379.025 413.807C379.16 413.848 379.284 413.918 379.39 414.01C380.24 414.77 380.21 417.01 380.21 417.15C380.21 417.185 380.201 417.219 380.184 417.249C380.166 417.279 380.14 417.304 380.11 417.32C380.075 417.336 380.037 417.339 380 417.33ZM378.71 414.11H378.62C378.37 414.11 378.34 414.26 378.33 414.3C378.18 414.83 379.07 416.14 379.82 416.76C379.857 415.877 379.612 415.005 379.12 414.27C379.059 414.212 378.986 414.168 378.907 414.14C378.828 414.113 378.744 414.102 378.66 414.11H378.71Z" fill="url(#paint5_linear)"/>
<path opacity="0.2" d="M392.3 299.49C394.98 285.4 398.41 270.15 401.24 258.22L398.15 252C391.52 260.3 390.51 285.71 392.3 299.49Z" fill="black"/>
<path d="M389.82 236C389.82 236 398.95 303.89 403.06 326.86C407.57 352.01 424.9 395.86 424.9 395.86L438.57 391.22C438.57 391.22 427.8 354.84 424.02 330.22C419.71 302.22 417.19 237.6 417.19 237.6L389.82 236Z" fill="#263238"/>
<path d="M423.4 396.69L440.54 390.88L438.8 386.03L420.76 391.8L423.4 396.69Z" fill="url(#paint6_linear)"/>
<path d="M429.21 406.29C428.728 406.505 428.184 406.537 427.68 406.38C427.512 406.307 427.366 406.189 427.261 406.039C427.155 405.889 427.092 405.713 427.08 405.53C427.056 405.418 427.06 405.302 427.092 405.193C427.123 405.083 427.181 404.982 427.26 404.9C427.98 404.18 430.75 404.9 431.07 405C431.106 405.007 431.138 405.027 431.16 405.057C431.183 405.087 431.193 405.123 431.19 405.16C431.193 405.198 431.185 405.236 431.168 405.269C431.15 405.303 431.123 405.331 431.09 405.35C430.503 405.736 429.871 406.052 429.21 406.29ZM427.72 405.05C427.636 405.073 427.56 405.117 427.5 405.18C427.469 405.213 427.447 405.253 427.437 405.297C427.426 405.341 427.427 405.387 427.44 405.43C427.449 405.555 427.49 405.675 427.561 405.779C427.631 405.882 427.727 405.966 427.84 406.02C428.33 406.24 429.32 405.96 430.52 405.26C429.611 404.999 428.658 404.928 427.72 405.05Z" fill="url(#paint7_linear)"/>
<path d="M431.05 405.37H431C430.13 405.19 428.24 403.98 428.19 403.06C428.185 402.914 428.225 402.77 428.306 402.648C428.386 402.526 428.503 402.432 428.64 402.38C428.767 402.324 428.905 402.294 429.045 402.294C429.184 402.294 429.322 402.324 429.45 402.38C430.45 402.83 431.19 405.03 431.22 405.12C431.237 405.151 431.245 405.185 431.245 405.22C431.245 405.255 431.237 405.289 431.22 405.32C431.201 405.345 431.174 405.364 431.143 405.373C431.113 405.382 431.08 405.381 431.05 405.37ZM428.81 402.71H428.73C428.51 402.82 428.51 402.94 428.51 402.99C428.51 403.53 429.79 404.51 430.7 404.86C430.46 404.23 429.92 402.99 429.25 402.71C429.18 402.681 429.105 402.666 429.03 402.666C428.954 402.666 428.88 402.681 428.81 402.71Z" fill="url(#paint8_linear)"/>
<path d="M382.55 178.72C379.03 183.2 375.41 187.37 371.55 191.49C367.674 195.647 363.564 199.58 359.24 203.27C358.1 204.19 356.99 205.12 355.76 206C354.344 207.118 352.787 208.046 351.13 208.76C347.743 210.077 344.062 210.45 340.48 209.84C337.348 209.336 334.312 208.351 331.48 206.92C330.136 206.261 328.833 205.52 327.58 204.7C326.332 203.875 325.136 202.974 324 202L327.26 197C331.84 198.88 337.03 200.38 341.36 200.35C343.246 200.406 345.115 199.968 346.78 199.08C347.577 198.58 348.324 198.004 349.01 197.36C349.96 196.57 350.89 195.67 351.82 194.81C353.69 193.02 355.54 191.18 357.34 189.23C359.14 187.28 360.95 185.34 362.72 183.34C366.25 179.34 369.79 175.23 373.15 171.18L382.55 178.72Z" fill="#FFC3BD"/>
<path d="M381.65 184.91C378.503 188.492 375.061 191.804 371.36 194.81L368.71 192.35L359.25 183.58C361.871 178.589 365.39 174.125 369.63 170.41C377.07 163.78 385.89 165.89 386.9 174.17C387.28 177.25 384.76 181.25 381.65 184.91Z" fill="url(#paint9_linear)"/>
<path opacity="0.2" d="M381.65 184.91C378.503 188.492 375.061 191.804 371.36 194.81L368.71 192.35C371.21 187.15 380 178 381.65 184.91Z" fill="black"/>
<path d="M371.64 246.78C375.4 248.36 381.15 249.41 386.06 247.89C385.73 240.46 385.84 198.56 393.24 169.29H397.62C395.62 170.92 389.52 225.67 391.52 248.45C399.91 250.2 416.4 248.86 419 246.29C418.67 242.71 416.86 224.83 417.11 212.35C417.22 207.03 417.46 201.16 418.01 195C418.743 186.191 420.141 177.449 422.19 168.85C422.19 168.85 417.19 167.52 411.46 166.66C410.33 166.49 409.18 166.34 408.05 166.22C402.075 165.52 396.066 165.162 390.05 165.15C389.31 165.15 388.58 165.21 387.87 165.26C384.485 165.506 381.119 165.96 377.79 166.62C377.79 166.62 367.08 202.61 371.64 246.78Z" fill="url(#paint10_linear)"/>
<path opacity="0.2" d="M416.22 181.26C414.13 187.59 414.22 196.36 417.22 200.49C417.34 200.66 417.47 200.82 417.59 200.96C417.71 199.02 417.86 197.047 418.04 195.04C418.31 191.97 418.66 188.82 419.09 185.63L416.22 181.26Z" fill="black"/>
<path d="M407 145.87C405.65 151.6 404.13 162.15 408 166.26C406.131 168.019 403.902 169.35 401.467 170.162C399.032 170.973 396.45 171.246 393.9 170.96C388.9 170.55 388.79 167.05 389.97 165.19C396.5 164.03 396.51 159.19 395.54 154.66L407 145.87Z" fill="#FFC3BD"/>
<path opacity="0.2" d="M402.34 149.46L395.59 154.65C395.828 155.712 395.975 156.793 396.03 157.88C398.51 157.67 402.03 155.16 402.36 152.59C402.545 151.554 402.538 150.493 402.34 149.46Z" fill="black"/>
<path d="M408 136.32C407.33 144.18 407.33 148.81 403.28 152.67C397.18 158.47 387.6 154.41 385.92 146.47C384.41 139.31 385.76 127.67 393.51 124.9C395.246 124.311 397.101 124.165 398.908 124.475C400.715 124.785 402.415 125.542 403.855 126.677C405.294 127.811 406.428 129.288 407.152 130.972C407.876 132.656 408.167 134.494 408 136.32Z" fill="#FFC3BD"/>
<path d="M407.55 141.28C405.61 140.88 403.11 138.12 402.84 133.45C402.49 127.45 408.99 127.11 412.12 128.54C415.25 129.97 413.52 138 407.55 141.28Z" fill="#263238"/>
<path d="M403.87 130.94C400.27 132.36 386.26 131.85 384.06 128.26C381.86 124.67 411 128.13 403.87 130.94Z" fill="#263238"/>
<path d="M405.29 130C401.59 131.1 387.67 129.4 385.79 125.64C383.91 121.88 412.65 127.75 405.29 130Z" fill="#263238"/>
<path d="M407.16 129.42C403.38 130.18 389.67 127.23 388.16 123.31C386.65 119.39 414.69 127.9 407.16 129.42Z" fill="#263238"/>
<path d="M409.6 129.8C405.77 130.28 392.15 125.15 390.91 121.13C389.67 117.11 417.22 128.85 409.6 129.8Z" fill="#263238"/>
<path d="M411.09 129C407.23 129.09 394.25 123.78 393.42 119.66C392.59 115.54 418.77 128.78 411.09 129Z" fill="#263238"/>
<path d="M411.53 128.93C408.35 128.32 396.97 121.44 397.32 117.93C397.71 114 417.92 130.15 411.53 128.93Z" fill="#263238"/>
<path d="M411.27 142.48C411.035 143.423 410.614 144.309 410.03 145.086C409.445 145.862 408.711 146.513 407.87 147C405.61 148.29 403.78 146.41 403.87 143.94C403.87 141.71 405.15 138.36 407.7 138.08C408.256 138.034 408.816 138.124 409.329 138.343C409.843 138.562 410.295 138.904 410.647 139.337C410.999 139.771 411.239 140.284 411.348 140.831C411.457 141.379 411.43 141.945 411.27 142.48Z" fill="#FFC3BD"/>
<path d="M396 138C396 138.64 395.63 139.14 395.21 139.13C394.79 139.12 394.47 138.57 394.49 137.93C394.51 137.29 394.85 136.78 395.27 136.8C395.69 136.82 396 137.33 396 138Z" fill="#263238"/>
<path d="M388.82 137.63C388.82 138.27 388.45 138.78 388.03 138.76C387.61 138.74 387.29 138.2 387.31 137.56C387.33 136.92 387.67 136.42 388.09 136.44C388.51 136.46 388.83 137 388.82 137.63Z" fill="#263238"/>
<path d="M391.1 138.06C390.294 139.979 389.223 141.777 387.92 143.4C388.339 143.729 388.824 143.963 389.341 144.088C389.859 144.212 390.398 144.223 390.92 144.12L391.1 138.06Z" fill="#FF5652"/>
<path d="M393.6 146C393.324 146.02 393.046 146.02 392.77 146C392.745 146 392.721 145.995 392.699 145.985C392.676 145.976 392.656 145.962 392.639 145.944C392.622 145.926 392.609 145.905 392.601 145.882C392.592 145.859 392.589 145.834 392.59 145.81C392.59 145.785 392.595 145.761 392.604 145.739C392.614 145.716 392.628 145.696 392.646 145.679C392.664 145.662 392.685 145.649 392.708 145.641C392.731 145.632 392.755 145.629 392.78 145.63C393.568 145.686 394.359 145.552 395.085 145.239C395.81 144.926 396.45 144.442 396.95 143.83C396.985 143.797 397.032 143.779 397.08 143.779C397.128 143.779 397.175 143.797 397.21 143.83C397.249 143.862 397.276 143.906 397.285 143.956C397.294 144.005 397.285 144.056 397.26 144.1C396.811 144.649 396.255 145.101 395.626 145.428C394.997 145.754 394.307 145.949 393.6 146Z" fill="#263238"/>
<path d="M398.31 135.73C398.243 135.737 398.175 135.726 398.113 135.698C398.052 135.67 397.999 135.625 397.96 135.57C397.702 135.17 397.352 134.837 396.94 134.599C396.528 134.361 396.065 134.224 395.59 134.2C395.49 134.2 395.394 134.162 395.321 134.093C395.248 134.024 395.205 133.93 395.2 133.83C395.197 133.781 395.205 133.732 395.221 133.686C395.238 133.64 395.264 133.598 395.298 133.562C395.332 133.527 395.372 133.499 395.417 133.479C395.462 133.46 395.511 133.45 395.56 133.45C396.158 133.475 396.742 133.641 397.263 133.935C397.784 134.228 398.229 134.642 398.56 135.14C398.617 135.222 398.64 135.322 398.625 135.421C398.611 135.52 398.559 135.609 398.48 135.67C398.43 135.706 398.371 135.727 398.31 135.73Z" fill="#263238"/>
<path d="M385.77 135C385.702 135.024 385.628 135.024 385.56 135C385.515 134.978 385.475 134.947 385.443 134.909C385.41 134.871 385.386 134.827 385.371 134.779C385.356 134.732 385.351 134.681 385.356 134.632C385.361 134.582 385.376 134.534 385.4 134.49C385.659 133.959 386.044 133.499 386.522 133.15C386.999 132.802 387.555 132.575 388.14 132.49C388.24 132.484 388.339 132.518 388.415 132.583C388.491 132.648 388.54 132.74 388.55 132.84C388.555 132.889 388.551 132.938 388.538 132.985C388.524 133.032 388.501 133.076 388.47 133.114C388.44 133.152 388.402 133.184 388.359 133.207C388.316 133.23 388.269 133.245 388.22 133.25C387.756 133.318 387.315 133.499 386.939 133.778C386.562 134.057 386.26 134.426 386.06 134.85C386.026 134.896 385.983 134.933 385.932 134.959C385.882 134.985 385.826 134.999 385.77 135Z" fill="#263238"/>
<path d="M426.7 174.16C427.93 176.93 428.89 179.57 429.88 182.3C430.87 185.03 431.72 187.78 432.52 190.58C434.192 196.284 435.301 202.139 435.83 208.06L435.94 210.4V211.07V211.99C435.94 212.59 435.81 213.1 435.73 213.64C435.357 215.416 434.766 217.139 433.97 218.77C432.625 221.539 431.021 224.174 429.18 226.64C425.73 231.304 421.853 235.636 417.6 239.58L413.07 235.7C415.98 231.11 418.89 226.38 421.37 221.7C422.572 219.485 423.611 217.186 424.48 214.82C424.807 213.891 425.032 212.928 425.15 211.95C425.15 211.8 425.15 211.62 425.15 211.52C425.145 211.48 425.145 211.44 425.15 211.4V211.25V211.02L424.92 209.19C424.053 204.034 422.789 198.952 421.14 193.99C420.34 191.44 419.45 188.89 418.55 186.35C417.65 183.81 416.65 181.24 415.72 178.87L426.7 174.16Z" fill="#FFC3BD"/>
<path d="M424.55 170.05C430.96 174.24 433.93 191.31 433.93 191.31L418.83 197.83C415.241 192.834 412.729 187.147 411.45 181.13C409.31 170.26 418 165.75 424.55 170.05Z" fill="url(#paint11_linear)"/>
<path d="M416.9 234.54L407.59 234.18L412.49 243.18C412.49 243.18 419.24 241.32 418.57 237.63L416.9 234.54Z" fill="#FFC3BD"/>
<path d="M402.63 238.48L407.02 245.7L412.49 243.14L407.59 234.18L402.63 238.48Z" fill="#FFC3BD"/>
<path d="M327.59 197.3L320.69 192.98L319.54 202.98C319.54 202.98 326.2 205.37 327.78 201.98L327.59 197.3Z" fill="#FFC3BD"/>
<path d="M313.89 194.42L311.98 201.92L319.54 203.02L320.69 192.98L313.89 194.42Z" fill="#FFC3BD"/>
<path d="M261.82 143.38C256.06 149.47 247.43 165.28 254.05 170.83C256.356 171.824 258.837 172.35 261.348 172.38C263.859 172.409 266.351 171.94 268.68 171L267.13 148.17C267.13 148.17 266.32 139.38 261.82 143.38Z" fill="#263238"/>
<path d="M257.23 195.72C256.446 198.845 255.505 201.929 254.41 204.96C253.33 207.96 252.09 210.91 250.73 213.82C249.375 216.762 247.822 219.609 246.08 222.34C245.2 223.72 244.25 225.07 243.25 226.4C242.75 227.06 242.25 227.72 241.69 228.4C241.42 228.72 241.13 229.03 240.85 229.35L240.43 229.83C240.151 230.135 239.85 230.419 239.53 230.68C238.798 231.261 237.954 231.683 237.05 231.92C236.227 232.125 235.373 232.183 234.53 232.09C233.294 231.939 232.099 231.552 231.01 230.95C229.394 230.049 227.899 228.947 226.56 227.67C224.193 225.432 222.009 223.007 220.03 220.42C216.214 215.433 212.765 210.176 209.71 204.69L213.36 202.32C215.22 204.67 217.13 207.07 219.08 209.38C221.03 211.69 222.99 213.99 225.08 216.15C227.023 218.298 229.119 220.303 231.35 222.15C232.292 222.939 233.326 223.61 234.43 224.15C234.697 224.286 234.99 224.364 235.29 224.38C235.29 224.38 235.23 224.38 235.06 224.38C234.897 224.417 234.741 224.481 234.6 224.57C234.586 224.592 234.565 224.61 234.54 224.62L234.86 224.21C235.08 223.94 235.3 223.68 235.51 223.4C235.93 222.84 236.34 222.28 236.74 221.69C237.53 220.53 238.29 219.33 239 218.07C240.42 215.58 241.69 212.95 242.89 210.28C244.09 207.61 245.13 204.84 246.11 202.05C247.09 199.26 247.99 196.37 248.74 193.68L257.23 195.72Z" fill="#FF8B7B"/>
<path d="M263.5 197.94C262.57 200.55 259.41 205.23 256.93 208.69C255.12 211.19 253.68 213.05 253.68 213.05L252.25 212.05L240.41 204C242.64 197.23 245.6 190 253.86 188C259.06 186.76 265.16 193.28 263.5 197.94Z" fill="url(#paint12_linear)"/>
<g opacity="0.5">
<path opacity="0.5" d="M263.5 197.94C262.57 200.55 259.41 205.23 256.93 208.69C255.12 211.19 253.68 213.05 253.68 213.05L252.25 212.05L240.41 204C242.64 197.23 245.6 190 253.86 188C259.06 186.76 265.16 193.28 263.5 197.94Z" fill="white"/>
</g>
<path opacity="0.3" d="M256.93 208.69C255.12 211.19 253.68 213.05 253.68 213.05L252.25 212.05C252.96 209.35 254.25 205.12 256.13 203.44C256.767 205.113 257.04 206.903 256.93 208.69Z" fill="black"/>
<path d="M214.15 204.16L214.54 196.72L205.64 197.96C205.64 197.96 208.15 203.67 210.8 206.06L214.15 204.16Z" fill="#FF8B7B"/>
<path d="M211.66 193.62L205.22 195.77L205.64 197.96L214.54 196.72L211.66 193.62Z" fill="#FF8B7B"/>
<path d="M285.7 416.92L277.27 417.74L271.66 397.97L280.09 397.16L285.7 416.92Z" fill="#FF8B7B"/>
<path d="M346.54 397.91L338.73 401.5L327.9 384.57L335.71 380.98L346.54 397.91Z" fill="#FF8B7B"/>
<path d="M336.4 398.87L345 394.4C345.147 394.323 345.317 394.302 345.479 394.341C345.641 394.379 345.783 394.475 345.88 394.61L350.39 400.87C350.497 401.033 350.569 401.216 350.601 401.408C350.633 401.6 350.624 401.797 350.575 401.986C350.526 402.174 350.438 402.351 350.317 402.503C350.195 402.655 350.043 402.78 349.87 402.87C346.87 404.37 345.33 404.95 341.56 406.87C339.25 408.08 334.3 411.1 331.1 412.76C327.9 414.42 326.1 411.36 327.26 410.38C332.57 405.98 334.26 402.7 335.4 399.96C335.605 399.497 335.957 399.114 336.4 398.87Z" fill="#263238"/>
<path d="M275.76 415.17H286C286.183 415.172 286.359 415.234 286.504 415.346C286.648 415.458 286.752 415.614 286.8 415.79L289.02 423.86C289.075 424.05 289.084 424.251 289.048 424.445C289.011 424.639 288.929 424.822 288.808 424.979C288.687 425.136 288.531 425.262 288.353 425.347C288.174 425.433 287.978 425.475 287.78 425.47C284.18 425.47 282.48 425.47 277.99 425.47H264.24C260.52 425.47 259.74 421.7 261.24 421.36C268.15 419.83 272.14 417.72 274.24 415.71C274.444 415.523 274.684 415.379 274.945 415.286C275.206 415.193 275.483 415.154 275.76 415.17Z" fill="#263238"/>
<path opacity="0.2" d="M271.66 397.97L274.56 408.16H283.22L280.1 397.16L271.66 397.97Z" fill="black"/>
<path opacity="0.2" d="M335.72 380.98L327.9 384.57L333.49 393.3L341.3 389.71L335.72 380.98Z" fill="black"/>
<path d="M297.1 235.13L262.47 239.56C247.91 190.56 251.57 188.78 251.57 188.78C251.57 188.78 257.35 186.78 263.25 185.24C264.14 185.01 265.04 184.79 265.92 184.59C271.11 183.554 276.366 182.886 281.65 182.59L283.98 182.44C288.19 182.255 292.408 182.322 296.61 182.64C295.97 188.95 295.51 194.29 295.22 198.96C294.83 205.04 294.71 209.96 294.8 214.22C295.011 221.24 295.78 228.232 297.1 235.13Z" fill="url(#paint13_linear)"/>
<g opacity="0.5">
<path opacity="0.5" d="M297.1 235.13L262.47 239.56C247.91 190.56 251.57 188.78 251.57 188.78C251.57 188.78 257.35 186.78 263.25 185.24C264.14 185.01 265.04 184.79 265.92 184.59C271.11 183.554 276.366 182.886 281.65 182.59L283.98 182.44C288.19 182.255 292.408 182.322 296.61 182.64C295.97 188.95 295.51 194.29 295.22 198.96C294.83 205.04 294.71 209.96 294.8 214.22C295.011 221.24 295.78 228.232 297.1 235.13Z" fill="white"/>
</g>
<path opacity="0.3" d="M294.8 214.2C292.46 209.2 291.32 198.29 292.8 194.55L295.22 198.94C294.83 205 294.71 209.92 294.8 214.2Z" fill="black"/>
<path d="M277.84 172.1C278.16 176.38 279.17 180.74 281.65 182.57C277.768 183.732 274.164 185.675 271.06 188.28C266.81 186.04 265.93 184.59 265.93 184.59C271.4 182.52 271.02 178.76 268.7 172.72L272.97 170.42C273.338 170.013 273.818 169.723 274.349 169.586C274.881 169.449 275.441 169.472 275.96 169.651C276.479 169.83 276.934 170.157 277.268 170.593C277.602 171.028 277.801 171.552 277.84 172.1Z" fill="#FF8B7B"/>
<path d="M267 181.17C265.49 180.48 262.66 184.22 262.28 185.22C261.9 186.22 263.44 186.53 263.28 187.85C263.12 189.17 264 190.34 266.61 191.37C269.22 192.4 274.39 191.78 276.11 189.22C277.83 186.66 288.55 184.61 287.05 182.06C285.55 179.51 284.39 180.94 283.33 178.39C282.27 175.84 277.78 178.28 276.33 179.61C274.88 180.94 273.36 184.06 267 181.17Z" fill="url(#paint14_linear)"/>
<path opacity="0.2" d="M273 170.41C273.345 170.028 273.789 169.749 274.283 169.604C274.777 169.459 275.302 169.454 275.798 169.588C276.295 169.723 276.745 169.992 277.099 170.367C277.452 170.741 277.695 171.206 277.8 171.71C276.18 174.985 273.565 177.663 270.33 179.36C270.216 177.063 269.673 174.808 268.73 172.71L273 170.41Z" fill="black"/>
<path d="M284.48 158.68C282.36 166.95 281.64 170.49 276.59 173.97C268.99 179.2 259.3 174.79 258.91 166.06C258.56 158.2 262.09 146 270.91 144.25C272.855 143.853 274.869 143.959 276.761 144.56C278.653 145.16 280.36 146.234 281.72 147.68C283.079 149.126 284.047 150.896 284.53 152.821C285.013 154.746 284.996 156.763 284.48 158.68Z" fill="#FF8B7B"/>
<path d="M284.88 166.82C284.538 167.562 284.053 168.23 283.453 168.784C282.852 169.339 282.148 169.769 281.38 170.05C279.32 170.8 278.13 168.99 278.57 166.97C278.97 165.15 280.52 162.56 282.65 162.7C283.113 162.739 283.559 162.892 283.949 163.147C284.338 163.401 284.657 163.748 284.878 164.157C285.1 164.566 285.216 165.024 285.216 165.488C285.216 165.953 285.101 166.411 284.88 166.82Z" fill="#FF8B7B"/>
<path d="M263.61 149.19C267.67 148.36 277.42 149.05 278.27 153.04C274.8 156.28 276.47 166.72 272.86 169.78C278.13 174.78 288.58 174.83 288.58 174.83C288.58 174.83 298.91 146.76 286.3 145.39C283.65 138.29 269.3 137.65 261.82 143.39" fill="#263238"/>
<path d="M283 153.43H278C277.825 153.43 277.657 153.36 277.533 153.237C277.409 153.113 277.34 152.945 277.34 152.77C277.342 152.596 277.413 152.429 277.536 152.306C277.659 152.183 277.826 152.112 278 152.11H283C283.175 152.11 283.343 152.179 283.467 152.303C283.59 152.427 283.66 152.595 283.66 152.77C283.661 152.857 283.645 152.943 283.612 153.024C283.58 153.105 283.531 153.178 283.47 153.24C283.408 153.301 283.335 153.35 283.254 153.382C283.173 153.415 283.087 153.431 283 153.43Z" fill="url(#paint15_linear)"/>
<path d="M262.47 239.57C262.47 239.57 249.17 306.5 253.6 332.35C257.85 357.13 270.92 405.21 270.92 405.21L285.75 404.83C285.75 404.83 276.44 349.12 276.26 328.41C275.95 294.06 287.83 236.32 287.83 236.32L262.47 239.57Z" fill="url(#paint16_linear)"/>
<path d="M269.99 405.98L287.15 405.51L286.09 399.88L267.5 400.83L269.99 405.98Z" fill="#263238"/>
<path opacity="0.3" d="M274.55 247.68L280.48 237.26L287.83 236.32C287.83 236.32 282.42 262.58 279 290.21C274.89 277 273.44 253.76 274.55 247.68Z" fill="black"/>
<path d="M270 238.7C270 238.7 280.51 295.32 289.88 327.65C297.44 353.76 329.18 389.34 329.18 389.34L340.4 383.71C340.4 383.71 319.1 344.29 313.82 326.55C296.93 269.79 310.14 249.16 297.06 235.13L270 238.7Z" fill="url(#paint17_linear)"/>
<path d="M329.3 392.8L342.51 385.98L340.53 380.35L325.94 388.45L329.3 392.8Z" fill="#263238"/>
<path d="M297.36 233L299.36 235.9C299.51 236.12 299.26 236.41 298.86 236.46L262.53 241.12C262.22 241.12 261.94 241.04 261.9 240.84L261.19 237.78C261.19 237.57 261.39 237.35 261.73 237.31L296.8 232.81C296.902 232.793 297.006 232.802 297.104 232.835C297.201 232.868 297.289 232.925 297.36 233Z" fill="url(#paint18_linear)"/>
<path opacity="0.4" d="M297.36 233L299.36 235.9C299.51 236.12 299.26 236.41 298.86 236.46L262.53 241.12C262.22 241.12 261.94 241.04 261.9 240.84L261.19 237.78C261.19 237.57 261.39 237.35 261.73 237.31L296.8 232.81C296.902 232.793 297.006 232.802 297.104 232.835C297.201 232.868 297.289 232.925 297.36 233Z" fill="white"/>
<path d="M293.15 237.56L294.09 237.43C294.28 237.43 294.41 237.3 294.38 237.18L293.38 233.18C293.38 233.06 293.18 232.99 292.99 233.01L292.05 233.13C291.87 233.13 291.74 233.27 291.76 233.39L292.76 237.39C292.79 237.5 293 237.58 293.15 237.56Z" fill="#263238"/>
<path d="M265.18 241.14L266.12 241.02C266.3 241.02 266.43 240.88 266.41 240.77L265.41 236.77C265.41 236.65 265.2 236.57 265.02 236.6L264.08 236.72C263.89 236.72 263.76 236.86 263.79 236.97L264.79 240.97C264.81 241.09 265 241.17 265.18 241.14Z" fill="#263238"/>
<path d="M279.16 239.35L280.1 239.23C280.29 239.23 280.42 239.09 280.39 238.97L279.44 234.97C279.44 234.86 279.23 234.78 279.05 234.8L278.11 234.92C277.92 234.92 277.79 235.06 277.82 235.18L278.77 239.18C278.8 239.3 279 239.37 279.16 239.35Z" fill="#263238"/>
<path d="M270.32 158.33C270.19 159.01 269.72 159.49 269.32 159.4C268.92 159.31 268.62 158.7 268.75 158.02C268.88 157.34 269.35 156.85 269.75 156.94C270.15 157.03 270.45 157.65 270.32 158.33Z" fill="#263238"/>
<path d="M262.62 156.85C262.49 157.53 262.03 158.01 261.62 157.92C261.21 157.83 260.92 157.22 261.05 156.54C261.18 155.86 261.65 155.37 262.1 155.46C262.55 155.55 262.76 156.16 262.62 156.85Z" fill="#263238"/>
<path d="M262.25 155.53L260.7 154.75C260.7 154.75 261.29 156.19 262.25 155.53Z" fill="#263238"/>
<path d="M264.66 158.37C263.755 159.806 262.658 161.111 261.4 162.25C261.699 162.565 262.064 162.812 262.468 162.972C262.872 163.133 263.306 163.204 263.74 163.18L264.66 158.37Z" fill="#FF5652"/>
<path d="M266.34 166.57C266.307 166.549 266.281 166.519 266.265 166.483C266.249 166.448 266.244 166.409 266.25 166.37C266.26 166.316 266.29 166.268 266.335 166.236C266.38 166.204 266.436 166.191 266.49 166.2C267.333 166.384 268.207 166.366 269.041 166.147C269.876 165.928 270.646 165.514 271.29 164.94C271.329 164.903 271.381 164.882 271.435 164.882C271.489 164.882 271.541 164.903 271.58 164.94C271.599 164.958 271.615 164.98 271.626 165.004C271.636 165.028 271.642 165.054 271.642 165.08C271.642 165.106 271.636 165.132 271.626 165.157C271.615 165.181 271.599 165.202 271.58 165.22C270.892 165.851 270.062 166.307 269.16 166.547C268.258 166.787 267.311 166.805 266.4 166.6C266.377 166.597 266.356 166.586 266.34 166.57Z" fill="#263238"/>
<path d="M273 156.23C272.938 156.192 272.889 156.136 272.86 156.07C272.648 155.605 272.329 155.197 271.929 154.879C271.53 154.561 271.06 154.342 270.56 154.24C270.506 154.235 270.454 154.219 270.407 154.194C270.36 154.168 270.318 154.134 270.284 154.092C270.251 154.05 270.226 154.001 270.211 153.949C270.197 153.898 270.193 153.843 270.2 153.79C270.215 153.684 270.27 153.588 270.353 153.521C270.437 153.454 270.543 153.421 270.65 153.43C271.288 153.543 271.889 153.81 272.401 154.207C272.913 154.605 273.321 155.12 273.59 155.71C273.639 155.807 273.647 155.919 273.613 156.022C273.58 156.125 273.507 156.211 273.41 156.26C273.344 156.29 273.273 156.302 273.201 156.297C273.129 156.292 273.06 156.269 273 156.23Z" fill="#263238"/>
<path d="M259.93 152.83V152.76C259.914 152.709 259.909 152.656 259.915 152.604C259.92 152.551 259.936 152.5 259.961 152.454C259.986 152.407 260.02 152.366 260.061 152.333C260.102 152.3 260.149 152.275 260.2 152.26C260.814 152.055 261.47 152.003 262.109 152.108C262.748 152.212 263.352 152.47 263.87 152.86C263.953 152.93 264.006 153.031 264.015 153.14C264.024 153.248 263.99 153.356 263.92 153.44C263.85 153.524 263.749 153.576 263.64 153.585C263.531 153.595 263.423 153.56 263.34 153.49C262.929 153.186 262.45 152.986 261.945 152.908C261.44 152.83 260.924 152.875 260.44 153.04C260.344 153.072 260.239 153.069 260.146 153.03C260.052 152.992 259.975 152.921 259.93 152.83Z" fill="#263238"/>
<path d="M300.17 191.37C301.31 192.6 302.26 193.72 303.23 194.94C304.2 196.16 305.13 197.35 306.04 198.58C307.83 201.06 309.52 203.58 311.04 206.27C312.622 208.932 314.035 211.691 315.27 214.53C315.6 215.24 315.87 215.98 316.17 216.7C316.47 217.42 316.75 218.15 317 218.9C317.25 219.65 317.51 220.35 317.77 221.18L318.13 222.52L318.39 223.85C318.836 227.179 318.718 230.56 318.04 233.85C317.416 236.92 316.529 239.931 315.39 242.85C314.274 245.688 313.016 248.468 311.62 251.18C310.219 253.866 308.677 256.477 307 259L303.24 256.78C304.42 254.24 305.58 251.55 306.57 248.88C307.604 246.234 308.502 243.537 309.26 240.8C310.016 238.153 310.568 235.452 310.91 232.72C311.061 231.422 311.135 230.116 311.13 228.81C311.106 227.597 310.976 226.389 310.74 225.2L310.54 224.38L310.29 223.6C310.09 223.04 309.79 222.35 309.54 221.74C309.29 221.13 309.01 220.48 308.71 219.85C308.41 219.22 308.15 218.6 307.82 217.99C306.59 215.51 305.14 213.12 303.68 210.73C302.22 208.34 300.58 206.05 298.89 203.8C298.06 202.66 297.2 201.54 296.32 200.44C295.44 199.34 294.52 198.23 293.69 197.28L300.17 191.37Z" fill="#FF8B7B"/>
<path d="M305 254.38L298.1 257.75L305.18 263.28C305.18 263.28 308.25 259.58 308.12 256.01L305 254.38Z" fill="#FF8B7B"/>
<path d="M294.82 264.59L300.84 267.71L305.13 263.28L298.05 257.75L294.82 264.59Z" fill="#FF8B7B"/>
<path d="M296.61 182.62C300.9 183.2 307.38 195.18 307.38 195.18L296.47 205.9C296.47 205.9 288.11 196.37 288.33 190.8C288.53 186.07 291.14 181.89 296.61 182.62Z" fill="url(#paint19_linear)"/>
<g opacity="0.5">
<path opacity="0.5" d="M296.61 182.62C300.9 183.2 307.38 195.18 307.38 195.18L296.47 205.9C296.47 205.9 288.11 196.37 288.33 190.8C288.53 186.07 291.14 181.89 296.61 182.62Z" fill="white"/>
</g>
<path d="M333 402C332.954 402.005 332.906 402.005 332.86 402C332.669 401.947 332.495 401.845 332.355 401.705C332.215 401.565 332.113 401.391 332.06 401.2C332.013 401.087 331.996 400.964 332.012 400.843C332.027 400.721 332.075 400.607 332.15 400.51C332.83 399.64 335.93 399.93 336.28 399.96C336.32 399.965 336.358 399.982 336.388 400.008C336.419 400.035 336.44 400.071 336.45 400.11C336.46 400.147 336.46 400.186 336.449 400.223C336.439 400.26 336.418 400.294 336.39 400.32C335.53 401 334 402.1 333 402ZM335.74 400.3C334.5 400.22 332.83 400.3 332.47 400.73C332.444 400.775 332.43 400.827 332.43 400.88C332.43 400.933 332.444 400.984 332.47 401.03C332.501 401.159 332.565 401.278 332.657 401.374C332.748 401.471 332.863 401.542 332.99 401.58C333.5 401.68 334.53 401.21 335.71 400.25L335.74 400.3Z" fill="url(#paint20_linear)"/>
<path d="M336 400.27C335 400.12 333 399.27 332.77 398.39C332.723 398.235 332.731 398.069 332.793 397.919C332.855 397.77 332.967 397.646 333.11 397.57C333.235 397.475 333.381 397.411 333.536 397.384C333.69 397.356 333.849 397.365 334 397.41C335.21 397.71 336.37 399.9 336.42 399.99C336.437 400.022 336.447 400.058 336.447 400.095C336.447 400.132 336.437 400.168 336.42 400.2C336.4 400.229 336.373 400.252 336.341 400.268C336.31 400.284 336.275 400.291 336.24 400.29L336 400.27ZM333.82 397.79C333.737 397.776 333.651 397.778 333.569 397.797C333.487 397.816 333.409 397.851 333.34 397.9C333.13 398.05 333.13 398.18 333.16 398.27C333.33 398.85 334.83 399.63 335.86 399.84C335.44 399.13 334.63 397.98 333.86 397.84L333.82 397.79Z" fill="url(#paint21_linear)"/>
<path d="M271.23 416.85C270.531 416.901 269.833 416.737 269.23 416.38C269.074 416.263 268.948 416.112 268.859 415.939C268.771 415.766 268.723 415.574 268.72 415.38C268.705 415.273 268.721 415.163 268.765 415.064C268.809 414.965 268.88 414.881 268.97 414.82C269.9 414.2 273.37 415.82 274.06 416.1C274.097 416.117 274.128 416.145 274.148 416.182C274.168 416.218 274.176 416.259 274.17 416.3C274.166 416.343 274.149 416.384 274.12 416.417C274.091 416.449 274.052 416.471 274.01 416.48C273.098 416.697 272.167 416.821 271.23 416.85ZM269.61 415.09C269.471 415.081 269.332 415.112 269.21 415.18C269.18 415.201 269.158 415.23 269.143 415.264C269.129 415.297 269.125 415.334 269.13 415.37C269.133 415.503 269.167 415.634 269.23 415.752C269.292 415.87 269.381 415.972 269.49 416.05C270.09 416.5 271.49 416.56 273.32 416.23C272.15 415.659 270.898 415.274 269.61 415.09Z" fill="url(#paint22_linear)"/>
<path d="M274 416.5H273.92C272.77 416.03 270.45 414.17 270.58 413.2C270.58 412.99 270.75 412.73 271.28 412.67C273.28 412.43 274.16 416.11 274.2 416.26C274.209 416.298 274.207 416.338 274.195 416.375C274.183 416.412 274.16 416.445 274.13 416.47C274.091 416.495 274.045 416.505 274 416.5ZM271.46 413.05H271.33C271.11 413.05 271 413.14 270.98 413.24C270.91 413.8 272.51 415.24 273.69 415.91C273.4 415 272.66 413.05 271.44 413.05H271.46Z" fill="url(#paint23_linear)"/>
<path d="M269.94 157L268.4 156.22C268.4 156.22 269 157.67 269.94 157Z" fill="#263238"/>
<path d="M116.84 417.01L124.87 416.89L126.71 398.27L118.69 398.39L116.84 417.01Z" fill="#B55B52"/>
<path d="M77.1001 417.04H85.1301L88.2801 398.45H80.2601L77.1001 417.04Z" fill="#B55B52"/>
<path d="M86.24 416.11H76.45C76.291 416.111 76.1371 416.166 76.0135 416.266C75.8899 416.366 75.804 416.505 75.77 416.66L74.18 423.8C74.1439 423.974 74.1474 424.153 74.1903 424.325C74.2332 424.498 74.3143 424.658 74.4277 424.794C74.5411 424.931 74.6838 425.04 74.8452 425.114C75.0067 425.187 75.1826 425.224 75.36 425.22C78.51 425.17 80.8 424.98 84.77 424.98C87.21 424.98 94.57 425.24 97.94 425.24C101.31 425.24 101.75 421.91 100.37 421.6C94.18 420.25 89.52 418.39 87.54 416.6C87.1791 416.286 86.718 416.113 86.24 416.11Z" fill="#263238"/>
<path d="M124.8 416L116.03 416.14C115.872 416.139 115.718 416.194 115.596 416.294C115.474 416.395 115.39 416.535 115.36 416.69L113.88 423.85C113.842 424.023 113.843 424.203 113.886 424.376C113.928 424.548 114.009 424.709 114.123 424.845C114.237 424.982 114.381 425.09 114.543 425.162C114.706 425.234 114.883 425.267 115.06 425.26C118.22 425.16 122.79 424.9 126.76 424.84C131.41 424.77 135.43 424.96 140.87 424.84C144.17 424.79 145.03 421.45 143.65 421.17C137.35 419.89 132.22 419.82 126.74 416.56C126.157 416.199 125.486 416.005 124.8 416Z" fill="#263238"/>
<path d="M130.83 172.56C133.41 177.39 136.14 182.36 138.89 187.17C141.64 191.98 144.51 196.76 147.57 201.17C147.94 201.74 148.34 202.26 148.73 202.79L149.31 203.58L149.57 203.94L149.67 204.08C149.92 204.442 150.266 204.726 150.67 204.9C151.75 205.37 154.03 205.31 156.33 204.76C158.817 204.13 161.243 203.28 163.58 202.22C164.8 201.67 166.04 201.12 167.25 200.5C168.46 199.88 169.7 199.22 170.82 198.62L174.55 203.36C173.41 204.49 172.32 205.44 171.14 206.36C169.96 207.28 168.79 208.25 167.53 209.11C164.949 210.94 162.168 212.469 159.24 213.67C157.625 214.315 155.951 214.797 154.24 215.11C152.213 215.463 150.137 215.433 148.12 215.02C145.746 214.523 143.563 213.357 141.83 211.66C141.61 211.45 141.41 211.23 141.21 211.01L140.8 210.54L140.05 209.66C139.55 209.08 139.05 208.49 138.58 207.9C134.91 203.257 131.53 198.391 128.46 193.33C125.46 188.33 122.6 183.33 119.97 178.02L130.83 172.56Z" fill="#B65B52"/>
<path d="M116.53 172.8C114.36 180.16 129.6 200.23 129.6 200.23L145 190.35C142.109 183.986 138.542 177.951 134.36 172.35C128 164.28 118.9 164.72 116.53 172.8Z" fill="url(#paint24_linear)"/>
<path opacity="0.2" d="M116.53 172.8C114.36 180.16 129.6 200.23 129.6 200.23L145 190.35C142.109 183.986 138.542 177.951 134.36 172.35C128 164.28 118.9 164.72 116.53 172.8Z" fill="white"/>
<path opacity="0.2" d="M125.89 181.44C129.05 182.79 133.7 190.44 136.12 196.04L129.6 200.23C125.958 195.36 122.682 190.226 119.8 184.87C121.86 182.61 124.22 180.73 125.89 181.44Z" fill="black"/>
<path d="M170.16 199L175.76 195.67L180.56 204.01C180.56 204.01 174.33 207.66 170.3 203.42L170.16 199Z" fill="#B55B52"/>
<path d="M183.59 195.75L186.1 202.18L180.56 204.01L175.76 195.67L183.59 195.75Z" fill="#B55B52"/>
<path opacity="0.2" d="M126.71 398.27L125.76 407.87L117.73 408L118.68 398.4L126.71 398.27Z" fill="black"/>
<path opacity="0.2" d="M80.2501 398.46H88.2801L86.6501 408.04H78.6201L80.2501 398.46Z" fill="black"/>
<path d="M80.75 169.54C89.39 200 88 232.38 88.52 239L131.42 237.39C138.71 191.94 125.62 166.64 125.62 166.64C125.62 166.64 122.87 166.11 119.13 165.72C117.95 165.6 116.69 165.5 115.37 165.43C114.64 165.43 113.9 165.36 113.15 165.35C107.08 165.442 101.02 165.879 95 166.66C93.85 166.8 92.69 166.98 91.57 167.16C90.45 167.34 89.5 167.53 88.57 167.72C84.12 168.59 80.75 169.54 80.75 169.54Z" fill="url(#paint25_linear)"/>
<path opacity="0.2" d="M80.75 169.54C89.39 200 88 232.38 88.52 239L131.42 237.39C138.71 191.94 125.62 166.64 125.62 166.64C125.62 166.64 122.87 166.11 119.13 165.72C117.95 165.6 116.69 165.5 115.37 165.43C114.64 165.43 113.9 165.36 113.15 165.35C107.08 165.442 101.02 165.879 95 166.66C93.85 166.8 92.69 166.98 91.57 167.16C90.45 167.34 89.5 167.53 88.57 167.72C84.12 168.59 80.75 169.54 80.75 169.54Z" fill="white"/>
<path opacity="0.2" d="M89.8802 182.62C90.6502 185.57 89.7702 199.03 86.6902 202.35C86.2702 198.04 85.6902 193.54 84.9702 188.94L89.8802 182.62Z" fill="black"/>
<path d="M115.67 165.41H115.36C114.63 165.41 113.89 165.34 113.14 165.33C107.053 165.434 100.976 165.885 94.9401 166.68C94.0601 166.79 93.1801 166.92 92.3101 167.06L93.6401 168.2C97.5801 171.57 102.17 174.69 108.97 174.69H109.84C113.31 174.55 115.53 173.42 116.46 171.31C116.809 170.335 116.919 169.291 116.781 168.264C116.644 167.238 116.263 166.259 115.67 165.41Z" fill="white"/>
<path d="M95.2302 146C96.8102 151.77 98.7502 162.42 94.9502 166.63C98.3702 169.56 102.8 172.9 109.77 172.63C116.74 172.36 115.17 167.63 113.15 165.28C106.5 164.2 106.31 159.34 107.15 154.71L95.2302 146Z" fill="#B55B52"/>
<path opacity="0.2" d="M100.07 149.59L107.07 154.74C106.87 155.819 106.763 156.913 106.75 158.01C104.23 157.83 100.6 155.35 100.14 152.76C99.9227 151.717 99.899 150.642 100.07 149.59Z" fill="black"/>
<path d="M112.18 140.43C114.46 142.75 118.65 130.1 114.18 127.03C109.71 123.96 101 129 112.18 140.43Z" fill="#263238"/>
<path d="M93.87 137.27C94.95 145.16 95.18 149.84 99.49 153.61C105.97 159.28 115.49 154.92 116.79 146.87C117.96 139.62 116 127.93 108.01 125.35C106.249 124.773 104.37 124.655 102.551 125.008C100.732 125.361 99.0336 126.174 97.6168 127.368C96.2001 128.562 95.1122 130.099 94.4564 131.832C93.8006 133.565 93.5988 135.437 93.87 137.27Z" fill="#B55B52"/>
<path d="M94.9 144.42C97.49 146.42 99.76 133.25 94.9 130.88C90.04 128.51 82.1 134.79 94.9 144.42Z" fill="#263238"/>
<path d="M91.8601 132.67C99.4701 135.28 120.86 132.85 117.08 117.28C115.47 110.56 108.19 116.28 107.69 120C103.97 116.94 97.0601 117.61 97.8701 122.5C93.8601 121.33 78.7001 125 91.8601 132.67Z" fill="#263238"/>
<path d="M90.9401 146.28C91.5338 147.086 92.2814 147.766 93.1397 148.281C93.9979 148.796 94.9498 149.135 95.9401 149.28C98.5701 149.66 99.5401 147.22 98.5201 144.92C97.6001 142.85 95.1301 140.16 92.6301 140.84C90.1301 141.52 89.5001 144.29 90.9401 146.28Z" fill="#B55B52"/>
<path d="M128.74 406L115.15 406.21C115.15 406.21 119.68 352.52 118.46 327.54C118.09 319.94 116.56 309.31 114.55 297.92C112.02 283.56 110.8 277.84 107.55 259.7C105.21 246.76 103.25 238.44 103.25 238.44L131.45 237.38C131.45 237.38 140.14 300.5 139.87 324.99C139.56 350.43 128.74 406 128.74 406Z" fill="#263238"/>
<path opacity="0.2" d="M113 255C118.06 267.6 118.16 297.12 115.83 305.43C115.43 302.97 115 300.43 114.55 297.89C112.01 283.53 110.79 277.81 107.55 259.67C107.49 259.31 107.42 258.96 107.36 258.61C109.018 257.09 110.926 255.869 113 255Z" fill="black"/>
<path d="M116.21 237.92C116.21 237.92 111.09 304.45 107.32 327.67C103.2 353.09 90.3802 406.18 90.3802 406.18H75.6802C75.6802 406.18 80.5302 358.18 83.5402 333.18C86.9602 304.78 88.5402 238.93 88.5402 238.93L116.21 237.92Z" fill="#263238"/>
<path d="M92.1401 406.5H74.8301V401.33L94.1801 400.99L92.1401 406.5Z" fill="url(#paint26_linear)"/>
<path opacity="0.5" d="M92.1401 406.5H74.8301V401.33L94.1801 400.99L92.1401 406.5Z" fill="white"/>
<path d="M130.45 406.26L114.26 406.51L114.17 401.28L132.27 400.72L130.45 406.26Z" fill="url(#paint27_linear)"/>
<path opacity="0.5" d="M130.45 406.26L114.26 406.51L114.17 401.28L132.27 400.72L130.45 406.26Z" fill="white"/>
<path d="M106.07 138.59C106.07 139.24 106.5 139.74 106.92 139.7C107.34 139.66 107.64 139.12 107.59 138.48C107.54 137.84 107.17 137.34 106.74 137.37C106.31 137.4 106 138 106.07 138.59Z" fill="#263238"/>
<path d="M113.36 138.05C113.36 138.7 113.79 139.19 114.22 139.16C114.65 139.13 114.94 138.58 114.89 137.94C114.84 137.3 114.46 136.79 114.04 136.82C113.62 136.85 113.32 137.4 113.36 138.05Z" fill="#263238"/>
<path d="M111.07 138.54C111.984 140.459 113.159 142.242 114.56 143.84C114.147 144.182 113.666 144.431 113.148 144.569C112.63 144.707 112.088 144.731 111.56 144.64L111.07 138.54Z" fill="#A02724"/>
<path d="M108.93 146.57C108.203 146.54 107.49 146.362 106.834 146.045C106.179 145.729 105.595 145.281 105.12 144.73C105.09 144.689 105.077 144.637 105.084 144.587C105.092 144.536 105.119 144.491 105.16 144.46C105.201 144.43 105.253 144.417 105.303 144.424C105.354 144.432 105.4 144.459 105.43 144.5C105.966 145.102 106.637 145.569 107.388 145.862C108.138 146.156 108.948 146.268 109.75 146.19C109.799 146.187 109.847 146.203 109.884 146.235C109.921 146.267 109.945 146.311 109.95 146.36C109.953 146.386 109.95 146.412 109.943 146.437C109.935 146.461 109.922 146.484 109.905 146.504C109.889 146.524 109.868 146.54 109.845 146.551C109.821 146.562 109.796 146.569 109.77 146.57C109.49 146.59 109.21 146.59 108.93 146.57Z" fill="#263238"/>
<path d="M103.64 136.4C103.575 136.4 103.512 136.379 103.46 136.34C103.376 136.286 103.316 136.202 103.293 136.105C103.271 136.007 103.288 135.905 103.34 135.82C103.659 135.301 104.098 134.866 104.62 134.553C105.142 134.24 105.732 134.057 106.34 134.02C106.441 134.02 106.538 134.06 106.609 134.131C106.68 134.202 106.72 134.299 106.72 134.4C106.72 134.501 106.68 134.597 106.609 134.669C106.538 134.74 106.441 134.78 106.34 134.78C105.863 134.817 105.401 134.968 104.994 135.221C104.587 135.473 104.246 135.819 104 136.23C103.963 136.291 103.91 136.339 103.846 136.369C103.782 136.399 103.71 136.41 103.64 136.4Z" fill="#263238"/>
<path d="M116.32 135.31C116.258 135.305 116.199 135.285 116.147 135.252C116.094 135.219 116.051 135.174 116.02 135.12C115.79 134.701 115.465 134.341 115.071 134.07C114.676 133.799 114.224 133.624 113.75 133.56C113.649 133.56 113.553 133.52 113.481 133.449C113.41 133.377 113.37 133.281 113.37 133.18C113.37 133.079 113.41 132.982 113.481 132.911C113.553 132.84 113.649 132.8 113.75 132.8C114.349 132.869 114.923 133.081 115.424 133.416C115.925 133.752 116.338 134.202 116.63 134.73C116.657 134.773 116.674 134.821 116.681 134.871C116.688 134.921 116.685 134.971 116.672 135.02C116.659 135.069 116.636 135.114 116.605 135.154C116.574 135.193 116.535 135.226 116.49 135.25C116.439 135.283 116.381 135.303 116.32 135.31Z" fill="#263238"/>
<path d="M88.8902 417.52C88.1817 417.5 87.4776 417.403 86.7902 417.23C86.7535 417.22 86.7206 417.2 86.6957 417.171C86.6707 417.143 86.6549 417.107 86.6502 417.07C86.6448 417.033 86.6505 416.995 86.6665 416.961C86.6825 416.927 86.7081 416.899 86.7402 416.88C87.0302 416.7 89.6202 415.11 90.5102 415.56C90.606 415.614 90.686 415.692 90.7422 415.787C90.7983 415.882 90.8287 415.99 90.8302 416.1C90.8523 416.286 90.8282 416.474 90.7602 416.649C90.6922 416.823 90.5823 416.978 90.4402 417.1C89.9841 417.407 89.439 417.555 88.8902 417.52ZM87.3402 417C88.7102 417.27 89.7502 417.22 90.1902 416.85C90.2884 416.769 90.364 416.663 90.4096 416.544C90.4551 416.425 90.4691 416.296 90.4502 416.17C90.4531 416.124 90.4435 416.079 90.4223 416.038C90.4012 415.998 90.3693 415.964 90.3302 415.94C89.8702 415.66 88.4002 416.35 87.3402 417Z" fill="url(#paint28_linear)"/>
<path d="M86.8402 417.23C86.8043 417.24 86.7662 417.24 86.7302 417.23C86.7017 417.213 86.6788 417.187 86.6646 417.157C86.6504 417.127 86.6454 417.093 86.6502 417.06C86.6502 416.96 86.8502 414.64 87.7802 413.88C87.8896 413.783 88.0187 413.712 88.1586 413.67C88.2986 413.629 88.4459 413.618 88.5902 413.64C88.7315 413.64 88.8686 413.688 88.978 413.777C89.0874 413.867 89.1624 413.991 89.1902 414.13C89.3602 415.03 87.7602 416.79 86.9302 417.24L86.8402 417.23ZM88.4602 414C88.2973 413.999 88.1399 414.059 88.0202 414.17C87.441 414.886 87.0924 415.761 87.0202 416.68C87.8502 416.05 88.8702 414.68 88.7702 414.2C88.7702 414.15 88.7702 414.03 88.4902 414H88.4102H88.4602Z" fill="url(#paint29_linear)"/>
<path d="M125.6 417.06C125.568 417.046 125.54 417.024 125.519 416.996C125.498 416.968 125.484 416.935 125.48 416.9C125.472 416.863 125.476 416.824 125.492 416.789C125.509 416.755 125.536 416.727 125.57 416.71C125.94 416.51 129.14 414.83 130.12 415.35C130.212 415.401 130.29 415.474 130.346 415.563C130.402 415.653 130.434 415.755 130.44 415.86C130.463 416.031 130.445 416.205 130.385 416.367C130.326 416.529 130.228 416.674 130.1 416.79C129.23 417.58 126.93 417.3 125.63 417.06H125.6ZM129.87 415.66C129.26 415.46 127.52 416.15 126.26 416.78C128.04 417.05 129.36 416.95 129.84 416.51C129.925 416.433 129.99 416.336 130.029 416.228C130.067 416.12 130.078 416.003 130.06 415.89C130.061 415.849 130.05 415.808 130.029 415.773C130.008 415.737 129.977 415.709 129.94 415.69L129.87 415.66Z" fill="url(#paint30_linear)"/>
<path d="M125.6 417.06C125.572 417.041 125.549 417.016 125.533 416.986C125.518 416.957 125.51 416.924 125.51 416.89C125.51 416.8 125.7 414.63 126.71 413.78C126.846 413.66 127.004 413.568 127.176 413.51C127.348 413.451 127.529 413.428 127.71 413.44C128.23 413.44 128.39 413.74 128.43 413.96C128.59 414.86 126.7 416.63 125.73 417.08C125.686 417.087 125.64 417.08 125.6 417.06ZM127.88 413.82H127.69C127.551 413.807 127.41 413.823 127.277 413.868C127.145 413.913 127.023 413.985 126.92 414.08C126.338 414.787 125.989 415.657 125.92 416.57C126.92 415.96 128.18 414.57 128.08 414.03C128.06 414 128 413.87 127.88 413.82Z" fill="url(#paint31_linear)"/>
<path d="M89.6301 179.85L82.0901 196.28C80.8601 199.03 79.6001 201.76 78.4301 204.52C77.8501 205.89 77.2301 207.26 76.6801 208.63L76.2501 209.63C76.1101 209.98 76.0301 210.22 75.9201 210.51C75.6901 211.07 75.5401 211.69 75.3501 212.28C74.6732 214.837 74.3039 217.466 74.2501 220.11C74.1607 222.935 74.2743 225.762 74.5901 228.57C74.9001 231.43 75.3701 234.32 75.9701 237.2C76.5701 240.08 77.2901 243.02 78.0701 245.75L72.5401 248.15C71.7301 246.65 71.0601 245.26 70.4101 243.78C69.7601 242.3 69.1601 240.85 68.5901 239.35C67.4521 236.334 66.5102 233.248 65.7701 230.11C64.0687 223.503 63.7588 216.614 64.8601 209.88C65.0601 209 65.2301 208.11 65.5101 207.22L65.8901 205.92L66.2601 204.79C66.7401 203.28 67.2601 201.79 67.7601 200.31C68.8201 197.31 69.9001 194.43 71.0701 191.55C73.3801 185.75 75.8901 180.13 78.6901 174.55L89.6301 179.85Z" fill="#B65B52"/>
<path d="M80.7502 169.54C73.4302 171.84 66.2302 196.67 66.2302 196.67L83.1702 204.08C83.1702 204.08 88.6502 192.08 91.8002 182.68C95.2402 172.43 89.6202 166.76 80.7502 169.54Z" fill="url(#paint32_linear)"/>
<path opacity="0.2" d="M80.7502 169.54C73.4302 171.84 66.2302 196.67 66.2302 196.67L83.1702 204.08C83.1702 204.08 88.6502 192.08 91.8002 182.68C95.2402 172.43 89.6202 166.76 80.7502 169.54Z" fill="white"/>
<path d="M77.6201 244.39L81.5701 251.52L72.2601 253.94C72.2601 253.94 69.4401 247.03 72.7701 244.83L77.6201 244.39Z" fill="#B55B52"/>
<path d="M82.26 259.61L73.71 260.32L72.26 253.94L81.57 251.52L82.26 259.61Z" fill="#B55B52"/>
<path d="M250 291.35C249.927 293.825 248.894 296.175 247.119 297.902C245.344 299.628 242.966 300.596 240.49 300.6H215.33C217.407 303.477 218.649 306.873 218.919 310.411C219.189 313.949 218.477 317.494 216.861 320.653C215.245 323.813 212.788 326.464 209.761 328.316C206.733 330.168 203.254 331.148 199.705 331.148C196.156 331.148 192.676 330.168 189.649 328.316C186.622 326.464 184.165 323.813 182.549 320.653C180.933 317.494 180.221 313.949 180.491 310.411C180.761 306.873 182.003 303.477 184.08 300.6H158.91C156.392 300.595 153.979 299.592 152.198 297.812C150.418 296.031 149.415 293.618 149.41 291.1V209.52C149.415 207.001 150.417 204.587 152.198 202.805C153.978 201.023 156.391 200.018 158.91 200.01H240.49C242.966 200.017 245.342 200.987 247.116 202.716C248.889 204.444 249.92 206.795 249.99 209.27V234.68C247.113 232.609 243.72 231.371 240.185 231.105C236.651 230.838 233.111 231.552 229.955 233.168C226.8 234.784 224.152 237.24 222.303 240.264C220.454 243.289 219.476 246.765 219.476 250.31C219.476 253.855 220.454 257.331 222.303 260.356C224.152 263.38 226.8 265.836 229.955 267.452C233.111 269.068 236.651 269.782 240.185 269.515C243.72 269.249 247.113 268.011 249.99 265.94V291.1C249.988 291.183 249.992 291.267 250 291.35Z" fill="url(#paint33_linear)"/>
<path opacity="0.3" d="M199.7 328.21C196.684 328.218 193.726 327.391 191.151 325.822C188.575 324.252 186.485 322.001 185.109 319.318C183.734 316.634 183.127 313.622 183.357 310.616C183.586 307.609 184.643 304.724 186.41 302.28L189.69 297.73H158.91C157.154 297.725 155.472 297.024 154.231 295.782C152.991 294.539 152.293 292.856 152.29 291.1V209.52C152.29 207.763 152.987 206.077 154.228 204.832C155.469 203.587 157.152 202.886 158.91 202.88H240.49C242.216 202.892 243.87 203.571 245.105 204.776C246.341 205.98 247.063 207.616 247.12 209.34V229.63C247.119 229.65 247.112 229.67 247.102 229.687C247.091 229.705 247.077 229.719 247.06 229.73C247.042 229.74 247.021 229.745 247 229.745C246.979 229.745 246.959 229.74 246.94 229.73C244.343 228.688 241.569 228.155 238.77 228.16C235.824 228.098 232.894 228.624 230.154 229.708C227.414 230.792 224.917 232.413 222.811 234.474C220.706 236.536 219.032 238.997 217.89 241.714C216.748 244.431 216.16 247.348 216.16 250.295C216.16 253.242 216.748 256.16 217.89 258.876C219.032 261.593 220.706 264.054 222.811 266.116C224.917 268.178 227.414 269.798 230.154 270.882C232.894 271.967 235.824 272.493 238.77 272.43C241.569 272.438 244.343 271.905 246.94 270.86C246.959 270.851 246.979 270.846 247 270.846C247.021 270.846 247.042 270.851 247.06 270.86C247.077 270.871 247.091 270.886 247.102 270.903C247.112 270.921 247.119 270.94 247.12 270.96V291.36C247.026 293.061 246.289 294.663 245.058 295.84C243.826 297.018 242.194 297.683 240.49 297.7H209.74L212.99 302.24C213.013 302.264 213.026 302.297 213.026 302.33C213.026 302.364 213.013 302.396 212.99 302.42C212.979 302.431 212.966 302.44 212.951 302.446C212.936 302.452 212.921 302.456 212.905 302.456C212.889 302.456 212.874 302.452 212.859 302.446C212.844 302.44 212.831 302.431 212.82 302.42L209.42 297.67C209.408 297.651 209.401 297.628 209.401 297.605C209.401 297.582 209.408 297.56 209.42 297.54C209.432 297.522 209.448 297.507 209.467 297.496C209.487 297.486 209.508 297.48 209.53 297.48H240.53C242.167 297.46 243.735 296.821 244.919 295.691C246.102 294.561 246.814 293.024 246.91 291.39V271.17C244.329 272.179 241.581 272.694 238.81 272.69C235.518 272.695 232.265 271.974 229.283 270.578C226.301 269.182 223.664 267.146 221.559 264.614C219.454 262.083 217.933 259.118 217.105 255.931C216.277 252.745 216.162 249.415 216.768 246.179C217.374 242.943 218.686 239.88 220.612 237.209C222.537 234.538 225.027 232.324 227.905 230.726C230.784 229.128 233.979 228.184 237.264 227.961C240.549 227.739 243.843 228.244 246.91 229.44V209.35C246.856 207.69 246.161 206.115 244.972 204.956C243.783 203.797 242.191 203.142 240.53 203.13H158.91C158.072 203.132 157.243 203.298 156.469 203.62C155.696 203.942 154.993 204.413 154.402 205.006C153.81 205.599 153.341 206.303 153.022 207.078C152.702 207.853 152.539 208.682 152.54 209.52V291.1C152.54 292.791 153.211 294.412 154.405 295.608C155.599 296.804 157.22 297.478 158.91 297.48H189.91C189.932 297.478 189.955 297.482 189.974 297.493C189.994 297.504 190.01 297.52 190.02 297.54C190.033 297.56 190.039 297.582 190.039 297.605C190.039 297.628 190.033 297.651 190.02 297.67L186.6 302.43C184.613 305.162 183.542 308.452 183.54 311.83C183.54 316.111 185.241 320.216 188.267 323.243C191.294 326.27 195.399 327.97 199.68 327.97C203.961 327.97 208.066 326.27 211.093 323.243C214.12 320.216 215.82 316.111 215.82 311.83C215.82 311.798 215.833 311.768 215.855 311.745C215.878 311.723 215.908 311.71 215.94 311.71C215.957 311.709 215.973 311.711 215.989 311.716C216.005 311.722 216.019 311.73 216.031 311.742C216.044 311.753 216.053 311.767 216.06 311.782C216.067 311.797 216.07 311.814 216.07 311.83C216.062 316.17 214.335 320.331 211.267 323.4C208.199 326.47 204.04 328.2 199.7 328.21Z" fill="white"/>
<path d="M341.09 200H315.94C318.01 202.879 319.246 206.273 319.511 209.809C319.776 213.345 319.061 216.885 317.443 220.041C315.826 223.196 313.369 225.844 310.343 227.693C307.318 229.542 303.841 230.52 300.295 230.52C296.749 230.52 293.272 229.542 290.247 227.693C287.221 225.844 284.764 223.196 283.147 220.041C281.529 216.885 280.814 213.345 281.079 209.809C281.344 206.273 282.58 202.879 284.65 200H259.5C256.982 200.008 254.569 201.011 252.788 202.791C251.006 204.57 250.001 206.982 249.99 209.5V234.67C247.113 232.599 243.72 231.362 240.186 231.095C236.651 230.828 233.111 231.542 229.956 233.158C226.8 234.774 224.152 237.23 222.303 240.254C220.454 243.279 219.476 246.755 219.476 250.3C219.476 253.845 220.454 257.321 222.303 260.346C224.152 263.37 226.8 265.826 229.956 267.442C233.111 269.058 236.651 269.772 240.186 269.505C243.72 269.239 247.113 268.001 249.99 265.93V291.1C249.998 293.62 251.002 296.034 252.784 297.816C254.566 299.598 256.98 300.602 259.5 300.61H341.09C343.609 300.602 346.022 299.597 347.802 297.815C349.582 296.033 350.585 293.619 350.59 291.1V209.51C350.585 206.991 349.582 204.577 347.802 202.795C346.022 201.013 343.609 200.008 341.09 200Z" fill="#263238"/>
<path opacity="0.3" d="M341.09 297.73H259.5C257.741 297.73 256.055 297.032 254.812 295.788C253.568 294.545 252.87 292.859 252.87 291.1V260.32L248.32 263.6C245.875 265.363 242.991 266.417 239.986 266.645C236.98 266.872 233.97 266.265 231.288 264.89C228.605 263.516 226.355 261.427 224.785 258.854C223.215 256.281 222.386 253.324 222.39 250.31C222.388 250.294 222.391 250.277 222.396 250.261C222.401 250.246 222.41 250.231 222.421 250.219C222.433 250.207 222.446 250.197 222.461 250.19C222.477 250.184 222.493 250.18 222.51 250.18C222.544 250.18 222.577 250.194 222.602 250.218C222.626 250.243 222.64 250.276 222.64 250.31C222.636 253.278 223.452 256.189 224.998 258.722C226.543 261.256 228.759 263.313 231.4 264.667C234.04 266.021 237.004 266.619 239.963 266.396C242.922 266.172 245.762 265.136 248.17 263.4L252.92 259.98C252.939 259.968 252.961 259.961 252.983 259.96C253.006 259.959 253.028 259.963 253.048 259.973C253.068 259.983 253.086 259.999 253.098 260.017C253.111 260.036 253.118 260.058 253.12 260.08V291.08C253.12 292.772 253.792 294.395 254.988 295.592C256.185 296.788 257.808 297.46 259.5 297.46H341.09C342.782 297.46 344.405 296.788 345.601 295.592C346.798 294.395 347.47 292.772 347.47 291.08V209.51C347.467 207.819 346.794 206.198 345.598 205.002C344.402 203.806 342.781 203.133 341.09 203.13H321.17C322.486 206.523 322.955 210.185 322.536 213.8C322.118 217.415 320.825 220.874 318.769 223.876C316.713 226.879 313.956 229.335 310.737 231.032C307.518 232.729 303.934 233.616 300.295 233.616C296.656 233.616 293.072 232.729 289.853 231.032C286.634 229.335 283.877 226.879 281.821 223.876C279.765 220.874 278.472 217.415 278.053 213.8C277.635 210.185 278.104 206.523 279.42 203.13H259.5C257.809 203.133 256.187 203.806 254.991 205.002C253.795 206.198 253.122 207.819 253.12 209.51V240.51C253.119 240.534 253.112 240.558 253.1 240.579C253.087 240.6 253.07 240.617 253.05 240.63C253.03 240.64 253.007 240.645 252.985 240.645C252.962 240.645 252.94 240.64 252.92 240.63L248.17 237.21C245.437 235.227 242.146 234.16 238.77 234.16C238.738 234.16 238.707 234.148 238.685 234.125C238.662 234.103 238.65 234.072 238.65 234.04C238.648 234.024 238.651 234.007 238.656 233.991C238.661 233.976 238.67 233.961 238.681 233.949C238.693 233.937 238.706 233.927 238.721 233.92C238.737 233.914 238.753 233.91 238.77 233.91C242.199 233.908 245.542 234.989 248.32 237L252.87 240.28V209.51C252.872 207.753 253.572 206.068 254.815 204.825C256.057 203.582 257.742 202.883 259.5 202.88H279.6C279.622 202.881 279.643 202.887 279.662 202.897C279.681 202.908 279.697 202.922 279.71 202.94C279.717 202.958 279.721 202.976 279.721 202.995C279.721 203.014 279.717 203.033 279.71 203.05C278.671 205.655 278.141 208.436 278.15 211.24C278.273 217.029 280.659 222.54 284.797 226.591C288.934 230.641 294.494 232.91 300.285 232.91C306.075 232.91 311.635 230.641 315.773 226.591C319.911 222.54 322.297 217.029 322.42 211.24C322.429 208.436 321.899 205.655 320.86 203.05C320.85 203.034 320.845 203.015 320.845 202.995C320.845 202.976 320.85 202.957 320.86 202.94C320.872 202.922 320.888 202.907 320.907 202.896C320.926 202.886 320.948 202.88 320.97 202.88H341.07C342.827 202.883 344.512 203.582 345.755 204.825C346.998 206.068 347.697 207.753 347.7 209.51V291.1C347.697 292.854 347.001 294.536 345.762 295.778C344.524 297.021 342.844 297.722 341.09 297.73Z" fill="white"/>
<defs>
<linearGradient id="paint0_linear" x1="411.345" y1="97.3425" x2="411.345" y2="326.395" gradientUnits="userSpaceOnUse">
<stop stop-color="#4070FF"/>
<stop offset="1" stop-color="#365FD9"/>
</linearGradient>
<linearGradient id="paint1_linear" x1="443.89" y1="413.92" x2="443.89" y2="436.56" gradientUnits="userSpaceOnUse">
<stop stop-color="#4070FF"/>
<stop offset="1" stop-color="#365FD9"/>
</linearGradient>
<linearGradient id="paint2_linear" x1="398.73" y1="169.33" x2="398.73" y2="238.736" gradientUnits="userSpaceOnUse">
<stop stop-color="#4070FF"/>
<stop offset="1" stop-color="#365FD9"/>
</linearGradient>
<linearGradient id="paint3_linear" x1="393.63" y1="401.28" x2="393.63" y2="406.72" gradientUnits="userSpaceOnUse">
<stop stop-color="#4070FF"/>
<stop offset="1" stop-color="#365FD9"/>
</linearGradient>
<linearGradient id="paint4_linear" x1="380.159" y1="415.587" x2="380.159" y2="417.609" gradientUnits="userSpaceOnUse">
<stop stop-color="#4070FF"/>
<stop offset="1" stop-color="#365FD9"/>
</linearGradient>
<linearGradient id="paint5_linear" x1="380.21" y1="413.763" x2="380.21" y2="417.338" gradientUnits="userSpaceOnUse">
<stop stop-color="#4070FF"/>
<stop offset="1" stop-color="#365FD9"/>
</linearGradient>
<linearGradient id="paint6_linear" x1="440.54" y1="386.03" x2="440.54" y2="396.69" gradientUnits="userSpaceOnUse">
<stop stop-color="#4070FF"/>
<stop offset="1" stop-color="#365FD9"/>
</linearGradient>
<linearGradient id="paint7_linear" x1="431.191" y1="404.583" x2="431.191" y2="406.478" gradientUnits="userSpaceOnUse">
<stop stop-color="#4070FF"/>
<stop offset="1" stop-color="#365FD9"/>
</linearGradient>
<linearGradient id="paint8_linear" x1="431.245" y1="402.294" x2="431.245" y2="405.379" gradientUnits="userSpaceOnUse">
<stop stop-color="#4070FF"/>
<stop offset="1" stop-color="#365FD9"/>
</linearGradient>
<linearGradient id="paint9_linear" x1="386.938" y1="166.485" x2="386.938" y2="194.81" gradientUnits="userSpaceOnUse">
<stop stop-color="#4070FF"/>
<stop offset="1" stop-color="#365FD9"/>
</linearGradient>
<linearGradient id="paint10_linear" x1="422.19" y1="165.15" x2="422.19" y2="249.242" gradientUnits="userSpaceOnUse">
<stop stop-color="#4070FF"/>
<stop offset="1" stop-color="#365FD9"/>
</linearGradient>
<linearGradient id="paint11_linear" x1="433.93" y1="168.438" x2="433.93" y2="197.83" gradientUnits="userSpaceOnUse">
<stop stop-color="#4070FF"/>
<stop offset="1" stop-color="#365FD9"/>
</linearGradient>
<linearGradient id="paint12_linear" x1="263.778" y1="187.846" x2="263.778" y2="213.05" gradientUnits="userSpaceOnUse">
<stop stop-color="#4070FF"/>
<stop offset="1" stop-color="#365FD9"/>
</linearGradient>
<linearGradient id="paint13_linear" x1="297.1" y1="182.338" x2="297.1" y2="239.56" gradientUnits="userSpaceOnUse">
<stop stop-color="#4070FF"/>
<stop offset="1" stop-color="#365FD9"/>
</linearGradient>
<linearGradient id="paint14_linear" x1="287.193" y1="177.275" x2="287.193" y2="191.844" gradientUnits="userSpaceOnUse">
<stop stop-color="#4070FF"/>
<stop offset="1" stop-color="#365FD9"/>
</linearGradient>
<linearGradient id="paint15_linear" x1="283.66" y1="152.11" x2="283.66" y2="153.43" gradientUnits="userSpaceOnUse">
<stop stop-color="#4070FF"/>
<stop offset="1" stop-color="#365FD9"/>
</linearGradient>
<linearGradient id="paint16_linear" x1="287.83" y1="236.32" x2="287.83" y2="405.21" gradientUnits="userSpaceOnUse">
<stop stop-color="#4070FF"/>
<stop offset="1" stop-color="#365FD9"/>
</linearGradient>
<linearGradient id="paint17_linear" x1="340.4" y1="235.13" x2="340.4" y2="389.34" gradientUnits="userSpaceOnUse">
<stop stop-color="#4070FF"/>
<stop offset="1" stop-color="#365FD9"/>
</linearGradient>
<linearGradient id="paint18_linear" x1="299.404" y1="232.802" x2="299.404" y2="241.12" gradientUnits="userSpaceOnUse">
<stop stop-color="#4070FF"/>
<stop offset="1" stop-color="#365FD9"/>
</linearGradient>
<linearGradient id="paint19_linear" x1="307.38" y1="182.537" x2="307.38" y2="205.9" gradientUnits="userSpaceOnUse">
<stop stop-color="#4070FF"/>
<stop offset="1" stop-color="#365FD9"/>
</linearGradient>
<linearGradient id="paint20_linear" x1="336.458" y1="399.89" x2="336.458" y2="402.006" gradientUnits="userSpaceOnUse">
<stop stop-color="#4070FF"/>
<stop offset="1" stop-color="#365FD9"/>
</linearGradient>
<linearGradient id="paint21_linear" x1="336.447" y1="397.368" x2="336.447" y2="400.29" gradientUnits="userSpaceOnUse">
<stop stop-color="#4070FF"/>
<stop offset="1" stop-color="#365FD9"/>
</linearGradient>
<linearGradient id="paint22_linear" x1="274.172" y1="414.68" x2="274.172" y2="416.859" gradientUnits="userSpaceOnUse">
<stop stop-color="#4070FF"/>
<stop offset="1" stop-color="#365FD9"/>
</linearGradient>
<linearGradient id="paint23_linear" x1="274.206" y1="412.659" x2="274.206" y2="416.501" gradientUnits="userSpaceOnUse">
<stop stop-color="#4070FF"/>
<stop offset="1" stop-color="#365FD9"/>
</linearGradient>
<linearGradient id="paint24_linear" x1="145" y1="166.514" x2="145" y2="200.23" gradientUnits="userSpaceOnUse">
<stop stop-color="#4070FF"/>
<stop offset="1" stop-color="#365FD9"/>
</linearGradient>
<linearGradient id="paint25_linear" x1="133.629" y1="165.35" x2="133.629" y2="239" gradientUnits="userSpaceOnUse">
<stop stop-color="#4070FF"/>
<stop offset="1" stop-color="#365FD9"/>
</linearGradient>
<linearGradient id="paint26_linear" x1="94.1801" y1="400.99" x2="94.1801" y2="406.5" gradientUnits="userSpaceOnUse">
<stop stop-color="#4070FF"/>
<stop offset="1" stop-color="#365FD9"/>
</linearGradient>
<linearGradient id="paint27_linear" x1="132.27" y1="400.72" x2="132.27" y2="406.51" gradientUnits="userSpaceOnUse">
<stop stop-color="#4070FF"/>
<stop offset="1" stop-color="#365FD9"/>
</linearGradient>
<linearGradient id="paint28_linear" x1="90.8381" y1="415.48" x2="90.8381" y2="417.525" gradientUnits="userSpaceOnUse">
<stop stop-color="#4070FF"/>
<stop offset="1" stop-color="#365FD9"/>
</linearGradient>
<linearGradient id="paint29_linear" x1="89.2028" y1="413.629" x2="89.2028" y2="417.24" gradientUnits="userSpaceOnUse">
<stop stop-color="#4070FF"/>
<stop offset="1" stop-color="#365FD9"/>
</linearGradient>
<linearGradient id="paint30_linear" x1="130.45" y1="415.25" x2="130.45" y2="417.311" gradientUnits="userSpaceOnUse">
<stop stop-color="#4070FF"/>
<stop offset="1" stop-color="#365FD9"/>
</linearGradient>
<linearGradient id="paint31_linear" x1="128.44" y1="413.437" x2="128.44" y2="417.082" gradientUnits="userSpaceOnUse">
<stop stop-color="#4070FF"/>
<stop offset="1" stop-color="#365FD9"/>
</linearGradient>
<linearGradient id="paint32_linear" x1="92.8237" y1="168.836" x2="92.8237" y2="204.08" gradientUnits="userSpaceOnUse">
<stop stop-color="#4070FF"/>
<stop offset="1" stop-color="#365FD9"/>
</linearGradient>
<linearGradient id="paint33_linear" x1="250" y1="200.01" x2="250" y2="331.148" gradientUnits="userSpaceOnUse">
<stop stop-color="#4070FF"/>
<stop offset="1" stop-color="#365FD9"/>
</linearGradient>
</defs>
</svg>
