<svg width="500" height="500" viewBox="0 0 500 500" fill="none" xmlns="http://www.w3.org/2000/svg">
<path opacity="0.1" d="M468.25 87.6216C474.322 182.3 360.257 284.472 278.032 311.142C198.799 336.884 40.3573 327.296 32.2578 215.726C29.2158 173.816 53.3876 128.097 89.208 106.253C146.805 71.1624 191.954 117.987 248.727 125.518C293.838 131.5 328.771 111.345 362.614 83.8243C390.804 60.9262 463.687 16.5905 468.25 87.6216Z" fill="url(#paint0_linear)"/>
<path opacity="0.1" d="M250 450.56C357.082 450.56 443.89 445.492 443.89 439.24C443.89 432.988 357.082 427.92 250 427.92C142.917 427.92 56.1099 432.988 56.1099 439.24C56.1099 445.492 142.917 450.56 250 450.56Z" fill="url(#paint1_linear)"/>
<path d="M146.921 289.325C168.072 268.175 168.072 233.882 146.921 212.732C125.771 191.581 91.4785 191.581 70.3277 212.732C49.1769 233.882 49.1769 268.175 70.3277 289.325C91.4785 310.476 125.771 310.476 146.921 289.325Z" fill="url(#paint2_linear)"/>
<path opacity="0.2" d="M146.921 289.325C168.072 268.175 168.072 233.882 146.921 212.732C125.771 191.581 91.4785 191.581 70.3277 212.732C49.1769 233.882 49.1769 268.175 70.3277 289.325C91.4785 310.476 125.771 310.476 146.921 289.325Z" fill="black"/>
<path opacity="0.2" d="M153.461 258.676C157.685 233.916 141.037 210.42 116.276 206.196C91.516 201.973 68.02 218.621 63.7965 243.382C59.5731 268.142 76.2215 291.638 100.982 295.861C125.742 300.085 149.238 283.436 153.461 258.676Z" fill="black"/>
<path d="M155.635 255.384C157.323 231.272 139.144 210.356 115.031 208.668C90.9184 206.98 70.0029 225.159 68.315 249.272C66.6271 273.385 84.806 294.3 108.919 295.988C133.032 297.676 153.947 279.497 155.635 255.384Z" fill="url(#paint3_linear)"/>
<path opacity="0.2" d="M155.635 255.384C157.323 231.272 139.144 210.356 115.031 208.668C90.9184 206.98 70.0029 225.159 68.315 249.272C66.6271 273.385 84.806 294.3 108.919 295.988C133.032 297.676 153.947 279.497 155.635 255.384Z" fill="black"/>
<path d="M126.61 246.86L129.46 259.21C129.581 259.681 129.603 260.173 129.523 260.653C129.444 261.134 129.266 261.592 129 262C128.742 262.417 128.402 262.777 128.002 263.061C127.602 263.344 127.149 263.545 126.67 263.65L115.81 266.16L117.81 274.85C117.928 275.32 117.946 275.809 117.863 276.286C117.78 276.763 117.599 277.217 117.33 277.62C117.072 278.03 116.731 278.382 116.33 278.654C115.929 278.926 115.476 279.112 115 279.2C114.523 279.32 114.026 279.342 113.54 279.267C113.054 279.191 112.588 279.019 112.17 278.76C111.753 278.515 111.392 278.185 111.11 277.793C110.827 277.4 110.63 276.953 110.53 276.48L108.53 267.69L97.76 270.18C97.2958 270.292 96.8138 270.309 96.343 270.23C95.8721 270.151 95.4221 269.977 95.02 269.72C94.6021 269.475 94.2397 269.146 93.9557 268.753C93.6717 268.361 93.4722 267.914 93.37 267.44C93.2563 266.973 93.2384 266.487 93.3175 266.013C93.3965 265.539 93.5709 265.085 93.83 264.68C94.0772 264.266 94.4073 263.907 94.7997 263.627C95.192 263.346 95.6381 263.15 96.11 263.05L121.31 257.24L120.13 252.11L95 257.9C94.5348 258.019 94.0503 258.042 93.5759 257.968C93.1015 257.894 92.647 257.725 92.24 257.47C91.8226 257.219 91.462 256.885 91.1814 256.487C90.9007 256.089 90.7061 255.637 90.61 255.16L87.77 242.86C87.5514 241.914 87.7172 240.921 88.2311 240.098C88.7449 239.274 89.5646 238.689 90.51 238.47L101.23 236L99.23 227.3C99.114 226.84 99.0914 226.361 99.1636 225.892C99.2357 225.424 99.4011 224.974 99.65 224.57C99.9137 224.132 100.268 223.756 100.689 223.467C101.109 223.177 101.587 222.98 102.09 222.89C102.552 222.778 103.033 222.76 103.502 222.839C103.972 222.919 104.42 223.092 104.82 223.35C105.231 223.603 105.586 223.936 105.864 224.329C106.143 224.723 106.339 225.169 106.44 225.64L108.44 234.33L119.44 231.81C119.916 231.695 120.41 231.677 120.893 231.758C121.376 231.839 121.838 232.016 122.25 232.28C122.667 232.52 123.03 232.844 123.316 233.231C123.602 233.618 123.804 234.061 123.91 234.53C124.121 235.497 123.945 236.508 123.42 237.347C122.894 238.186 122.062 238.787 121.1 239.02L95.9 244.83L97 249.93L122.11 244.14C122.586 244.025 123.08 244.007 123.563 244.088C124.046 244.169 124.507 244.346 124.92 244.61C125.344 244.845 125.714 245.167 126.005 245.555C126.296 245.943 126.502 246.387 126.61 246.86Z" fill="url(#paint4_linear)"/>
<g opacity="0.7">
<path opacity="0.7" d="M126.61 246.86L129.46 259.21C129.581 259.681 129.603 260.173 129.523 260.653C129.444 261.134 129.266 261.592 129 262C128.742 262.417 128.402 262.777 128.002 263.061C127.602 263.344 127.149 263.545 126.67 263.65L115.81 266.16L117.81 274.85C117.928 275.32 117.946 275.809 117.863 276.286C117.78 276.763 117.599 277.217 117.33 277.62C117.072 278.03 116.731 278.382 116.33 278.654C115.929 278.926 115.476 279.112 115 279.2C114.523 279.32 114.026 279.342 113.54 279.267C113.054 279.191 112.588 279.019 112.17 278.76C111.753 278.515 111.392 278.185 111.11 277.793C110.827 277.4 110.63 276.953 110.53 276.48L108.53 267.69L97.76 270.18C97.2958 270.292 96.8138 270.309 96.343 270.23C95.8721 270.151 95.4221 269.977 95.02 269.72C94.6021 269.475 94.2397 269.146 93.9557 268.753C93.6717 268.361 93.4722 267.914 93.37 267.44C93.2563 266.973 93.2384 266.487 93.3175 266.013C93.3965 265.539 93.5709 265.085 93.83 264.68C94.0772 264.266 94.4073 263.907 94.7997 263.627C95.192 263.346 95.6381 263.15 96.11 263.05L121.31 257.24L120.13 252.11L95 257.9C94.5348 258.019 94.0503 258.042 93.5759 257.968C93.1015 257.894 92.647 257.725 92.24 257.47C91.8226 257.219 91.462 256.885 91.1814 256.487C90.9007 256.089 90.7061 255.637 90.61 255.16L87.77 242.86C87.5514 241.914 87.7172 240.921 88.2311 240.098C88.7449 239.274 89.5646 238.689 90.51 238.47L101.23 236L99.23 227.3C99.114 226.84 99.0914 226.361 99.1636 225.892C99.2357 225.424 99.4011 224.974 99.65 224.57C99.9137 224.132 100.268 223.756 100.689 223.467C101.109 223.177 101.587 222.98 102.09 222.89C102.552 222.778 103.033 222.76 103.502 222.839C103.972 222.919 104.42 223.092 104.82 223.35C105.231 223.603 105.586 223.936 105.864 224.329C106.143 224.723 106.339 225.169 106.44 225.64L108.44 234.33L119.44 231.81C119.916 231.695 120.41 231.677 120.893 231.758C121.376 231.839 121.838 232.016 122.25 232.28C122.667 232.52 123.03 232.844 123.316 233.231C123.602 233.618 123.804 234.061 123.91 234.53C124.121 235.497 123.945 236.508 123.42 237.347C122.894 238.186 122.062 238.787 121.1 239.02L95.9 244.83L97 249.93L122.11 244.14C122.586 244.025 123.08 244.007 123.563 244.088C124.046 244.169 124.507 244.346 124.92 244.61C125.344 244.845 125.714 245.167 126.005 245.555C126.296 245.943 126.502 246.387 126.61 246.86Z" fill="white"/>
</g>
<path d="M224.199 207.958C237.673 192.012 235.671 168.163 219.725 154.688C203.78 141.213 179.93 143.216 166.456 159.161C152.981 175.106 154.983 198.956 170.929 212.431C186.874 225.906 210.724 223.903 224.199 207.958Z" fill="url(#paint5_linear)"/>
<path opacity="0.2" d="M224.199 207.958C237.673 192.012 235.671 168.163 219.725 154.688C203.78 141.213 179.93 143.216 166.456 159.161C152.981 175.106 154.983 198.956 170.929 212.431C186.874 225.906 210.724 223.903 224.199 207.958Z" fill="black"/>
<path opacity="0.2" d="M219.793 203.754C230.962 190.244 229.063 170.237 215.553 159.068C202.042 147.899 182.035 149.797 170.866 163.308C159.697 176.818 161.595 196.825 175.106 207.994C188.617 219.163 208.624 217.265 219.793 203.754Z" fill="black"/>
<path d="M220.751 204.086C230.969 190.716 228.414 171.593 215.044 161.374C201.674 151.156 182.551 153.711 172.333 167.081C162.114 180.451 164.669 199.574 178.039 209.792C191.409 220.011 210.532 217.456 220.751 204.086Z" fill="url(#paint6_linear)"/>
<path opacity="0.2" d="M220.751 204.086C230.969 190.716 228.414 171.593 215.044 161.374C201.674 151.156 182.551 153.711 172.333 167.081C162.114 180.451 164.669 199.574 178.039 209.792C191.409 220.011 210.532 217.456 220.751 204.086Z" fill="black"/>
<path d="M207.82 186.66L205.67 195.24C205.592 195.566 205.447 195.873 205.244 196.14C205.04 196.406 204.784 196.628 204.49 196.79C204.193 196.97 203.863 197.089 203.52 197.139C203.176 197.189 202.826 197.169 202.49 197.08L195 195.19L193.48 201.19C193.403 201.518 193.258 201.826 193.055 202.095C192.851 202.363 192.594 202.586 192.3 202.75C192.016 202.926 191.7 203.043 191.37 203.092C191.04 203.142 190.703 203.124 190.38 203.04C190.047 202.962 189.734 202.818 189.457 202.617C189.181 202.416 188.947 202.162 188.77 201.87C188.59 201.585 188.47 201.265 188.418 200.931C188.366 200.597 188.384 200.257 188.47 199.93L190 193.83L182.5 192C182.175 191.922 181.869 191.779 181.601 191.58C181.333 191.381 181.108 191.129 180.94 190.84C180.759 190.557 180.639 190.239 180.588 189.906C180.536 189.574 180.554 189.235 180.64 188.91C180.715 188.581 180.856 188.271 181.056 187.999C181.255 187.728 181.509 187.5 181.8 187.33C182.088 187.154 182.408 187.039 182.741 186.991C183.075 186.943 183.415 186.963 183.74 187.05L201.24 191.44L202.14 187.88L184.69 183.5C184.363 183.427 184.055 183.287 183.785 183.089C183.515 182.891 183.288 182.64 183.12 182.35C182.939 182.065 182.82 181.744 182.772 181.41C182.724 181.076 182.747 180.735 182.84 180.41L184.98 171.86C185.061 171.534 185.205 171.227 185.405 170.958C185.605 170.688 185.856 170.46 186.144 170.288C186.432 170.116 186.752 170.003 187.084 169.955C187.416 169.908 187.755 169.926 188.08 170.01L195.5 171.87L197.02 165.87C197.094 165.531 197.236 165.212 197.44 164.931C197.643 164.65 197.902 164.414 198.201 164.239C198.499 164.063 198.831 163.951 199.175 163.91C199.519 163.869 199.868 163.9 200.2 164C200.522 164.075 200.826 164.215 201.091 164.413C201.356 164.611 201.577 164.862 201.74 165.15C201.917 165.435 202.034 165.753 202.084 166.085C202.134 166.417 202.115 166.755 202.03 167.08L200.51 173.08L208.11 174.99C208.443 175.07 208.757 175.216 209.032 175.421C209.307 175.625 209.538 175.884 209.71 176.18C209.892 176.461 210.015 176.776 210.07 177.107C210.125 177.437 210.111 177.775 210.03 178.1C209.947 178.433 209.797 178.746 209.591 179.021C209.385 179.296 209.126 179.527 208.83 179.7C208.535 179.884 208.205 180.005 207.861 180.057C207.517 180.108 207.166 180.089 206.83 180L189.32 175.61L188.44 179.15L205.88 183.52C206.213 183.6 206.527 183.746 206.802 183.951C207.077 184.155 207.308 184.414 207.48 184.71C207.673 184.992 207.803 185.312 207.861 185.648C207.92 185.985 207.906 186.33 207.82 186.66Z" fill="url(#paint7_linear)"/>
<g opacity="0.7">
<path opacity="0.7" d="M207.82 186.66L205.67 195.24C205.592 195.566 205.447 195.873 205.244 196.14C205.04 196.406 204.784 196.628 204.49 196.79C204.193 196.97 203.863 197.089 203.52 197.139C203.176 197.189 202.826 197.169 202.49 197.08L195 195.19L193.48 201.19C193.403 201.518 193.258 201.826 193.055 202.095C192.851 202.363 192.594 202.586 192.3 202.75C192.016 202.926 191.7 203.043 191.37 203.092C191.04 203.142 190.703 203.124 190.38 203.04C190.047 202.962 189.734 202.818 189.457 202.617C189.181 202.416 188.947 202.162 188.77 201.87C188.59 201.585 188.47 201.265 188.418 200.931C188.366 200.597 188.384 200.257 188.47 199.93L190 193.83L182.5 192C182.175 191.922 181.869 191.779 181.601 191.58C181.333 191.381 181.108 191.129 180.94 190.84C180.759 190.557 180.639 190.239 180.588 189.906C180.536 189.574 180.554 189.235 180.64 188.91C180.715 188.581 180.856 188.271 181.056 187.999C181.255 187.728 181.509 187.5 181.8 187.33C182.088 187.154 182.408 187.039 182.741 186.991C183.075 186.943 183.415 186.963 183.74 187.05L201.24 191.44L202.14 187.88L184.69 183.5C184.363 183.427 184.055 183.287 183.785 183.089C183.515 182.891 183.288 182.64 183.12 182.35C182.939 182.065 182.82 181.744 182.772 181.41C182.724 181.076 182.747 180.735 182.84 180.41L184.98 171.86C185.061 171.534 185.205 171.227 185.405 170.958C185.605 170.688 185.856 170.46 186.144 170.288C186.432 170.116 186.752 170.003 187.084 169.955C187.416 169.908 187.755 169.926 188.08 170.01L195.5 171.87L197.02 165.87C197.094 165.531 197.236 165.212 197.44 164.931C197.643 164.65 197.902 164.414 198.201 164.239C198.499 164.063 198.831 163.951 199.175 163.91C199.519 163.869 199.868 163.9 200.2 164C200.522 164.075 200.826 164.215 201.091 164.413C201.356 164.611 201.577 164.862 201.74 165.15C201.917 165.435 202.034 165.753 202.084 166.085C202.134 166.417 202.115 166.755 202.03 167.08L200.51 173.08L208.11 174.99C208.443 175.07 208.757 175.216 209.032 175.421C209.307 175.625 209.538 175.884 209.71 176.18C209.892 176.461 210.015 176.776 210.07 177.107C210.125 177.437 210.111 177.775 210.03 178.1C209.947 178.433 209.797 178.746 209.591 179.021C209.385 179.296 209.126 179.527 208.83 179.7C208.535 179.884 208.205 180.005 207.861 180.057C207.517 180.108 207.166 180.089 206.83 180L189.32 175.61L188.44 179.15L205.88 183.52C206.213 183.6 206.527 183.746 206.802 183.951C207.077 184.155 207.308 184.414 207.48 184.71C207.673 184.992 207.803 185.312 207.861 185.648C207.92 185.985 207.906 186.33 207.82 186.66Z" fill="white"/>
</g>
<path d="M103.26 411.97H102.26V423.26H103.26V411.97Z" fill="url(#paint8_linear)"/>
<path opacity="0.1" d="M103.26 411.97H102.26V423.26H103.26V411.97Z" fill="black"/>
<path d="M397.74 322.53H396.74V338H397.74V322.53Z" fill="url(#paint9_linear)"/>
<path d="M397.74 346.11H396.74V354.5H397.74V346.11Z" fill="url(#paint10_linear)"/>
<path opacity="0.1" d="M397.74 322.53H396.74V338H397.74V322.53Z" fill="black"/>
<path opacity="0.1" d="M397.74 346.11H396.74V354.5H397.74V346.11Z" fill="black"/>
<path d="M379.2 255.44H120.81C112.498 255.44 105.76 262.178 105.76 270.49V421.74C105.76 430.052 112.498 436.79 120.81 436.79H379.2C387.512 436.79 394.25 430.052 394.25 421.74V270.49C394.25 262.178 387.512 255.44 379.2 255.44Z" fill="url(#paint11_linear)"/>
<path opacity="0.05" d="M379.2 255.44H120.81C112.498 255.44 105.76 262.178 105.76 270.49V421.74C105.76 430.052 112.498 436.79 120.81 436.79H379.2C387.512 436.79 394.25 430.052 394.25 421.74V270.49C394.25 262.178 387.512 255.44 379.2 255.44Z" fill="black"/>
<path opacity="0.2" d="M347.55 318.59C357.861 318.59 366.22 310.231 366.22 299.92C366.22 289.609 357.861 281.25 347.55 281.25C337.239 281.25 328.88 289.609 328.88 299.92C328.88 310.231 337.239 318.59 347.55 318.59Z" fill="black"/>
<path d="M323.45 318.59C333.761 318.59 342.12 310.231 342.12 299.92C342.12 289.609 333.761 281.25 323.45 281.25C313.139 281.25 304.78 289.609 304.78 299.92C304.78 310.231 313.139 318.59 323.45 318.59Z" fill="url(#paint12_linear)"/>
<path opacity="0.3" d="M323.45 318.59C333.761 318.59 342.12 310.231 342.12 299.92C342.12 289.609 333.761 281.25 323.45 281.25C313.139 281.25 304.78 289.609 304.78 299.92C304.78 310.231 313.139 318.59 323.45 318.59Z" fill="white"/>
<path d="M184.74 318.59H140.27C136.691 318.59 133.79 321.491 133.79 325.07V354.14C133.79 357.719 136.691 360.62 140.27 360.62H184.74C188.319 360.62 191.22 357.719 191.22 354.14V325.07C191.22 321.491 188.319 318.59 184.74 318.59Z" fill="url(#paint13_linear)"/>
<path opacity="0.3" d="M184.74 318.59H140.27C136.691 318.59 133.79 321.491 133.79 325.07V354.14C133.79 357.719 136.691 360.62 140.27 360.62H184.74C188.319 360.62 191.22 357.719 191.22 354.14V325.07C191.22 321.491 188.319 318.59 184.74 318.59Z" fill="white"/>
<path d="M215.51 276.67H138.38C135.845 276.67 133.79 278.723 133.79 281.255C133.79 283.787 135.845 285.84 138.38 285.84H215.51C218.045 285.84 220.1 283.787 220.1 281.255C220.1 278.723 218.045 276.67 215.51 276.67Z" fill="url(#paint14_linear)"/>
<path opacity="0.3" d="M215.51 276.67H138.38C135.845 276.67 133.79 278.723 133.79 281.255C133.79 283.787 135.845 285.84 138.38 285.84H215.51C218.045 285.84 220.1 283.787 220.1 281.255C220.1 278.723 218.045 276.67 215.51 276.67Z" fill="white"/>
<path d="M175.21 381.48H140.52C136.803 381.48 133.79 384.493 133.79 388.21V394.5C133.79 398.217 136.803 401.23 140.52 401.23H175.21C178.927 401.23 181.94 398.217 181.94 394.5V388.21C181.94 384.493 178.927 381.48 175.21 381.48Z" fill="url(#paint15_linear)"/>
<path opacity="0.3" d="M175.21 381.48H140.52C136.803 381.48 133.79 384.493 133.79 388.21V394.5C133.79 398.217 136.803 401.23 140.52 401.23H175.21C178.927 401.23 181.94 398.217 181.94 394.5V388.21C181.94 384.493 178.927 381.48 175.21 381.48Z" fill="white"/>
<path d="M236.63 381.48H201.94C198.223 381.48 195.21 384.493 195.21 388.21V394.5C195.21 398.217 198.223 401.23 201.94 401.23H236.63C240.347 401.23 243.36 398.217 243.36 394.5V388.21C243.36 384.493 240.347 381.48 236.63 381.48Z" fill="url(#paint16_linear)"/>
<path opacity="0.3" d="M236.63 381.48H201.94C198.223 381.48 195.21 384.493 195.21 388.21V394.5C195.21 398.217 198.223 401.23 201.94 401.23H236.63C240.347 401.23 243.36 398.217 243.36 394.5V388.21C243.36 384.493 240.347 381.48 236.63 381.48Z" fill="white"/>
<path d="M298.06 381.48H263.37C259.653 381.48 256.64 384.493 256.64 388.21V394.5C256.64 398.217 259.653 401.23 263.37 401.23H298.06C301.777 401.23 304.79 398.217 304.79 394.5V388.21C304.79 384.493 301.777 381.48 298.06 381.48Z" fill="url(#paint17_linear)"/>
<path opacity="0.3" d="M298.06 381.48H263.37C259.653 381.48 256.64 384.493 256.64 388.21V394.5C256.64 398.217 259.653 401.23 263.37 401.23H298.06C301.777 401.23 304.79 398.217 304.79 394.5V388.21C304.79 384.493 301.777 381.48 298.06 381.48Z" fill="white"/>
<path d="M359.48 381.48H324.79C321.073 381.48 318.06 384.493 318.06 388.21V394.5C318.06 398.217 321.073 401.23 324.79 401.23H359.48C363.197 401.23 366.21 398.217 366.21 394.5V388.21C366.21 384.493 363.197 381.48 359.48 381.48Z" fill="url(#paint18_linear)"/>
<path opacity="0.3" d="M359.48 381.48H324.79C321.073 381.48 318.06 384.493 318.06 388.21V394.5C318.06 398.217 321.073 401.23 324.79 401.23H359.48C363.197 401.23 366.21 398.217 366.21 394.5V388.21C366.21 384.493 363.197 381.48 359.48 381.48Z" fill="white"/>
<path d="M293 189.82C290.63 196.51 288 202.98 285.21 209.45C282.386 216.029 279.146 222.422 275.51 228.59C275.02 229.38 274.51 230.17 273.98 230.96L273.59 231.55L273.06 232.28C272.7 232.74 272.36 233.14 272.06 233.53C270.8 234.935 269.465 236.27 268.06 237.53C265.39 240 262.67 242.24 259.92 244.45C254.4 248.83 248.76 252.93 242.92 256.82L239.43 252.49L254.13 238C256.56 235.59 258.97 233.16 261.22 230.73C262.33 229.52 263.41 228.28 264.3 227.14C264.52 226.86 264.71 226.58 264.88 226.34L265.09 226L265.38 225.48C265.77 224.79 266.18 224.12 266.56 223.41C269.62 217.66 272.32 211.41 274.92 205.07C277.52 198.73 280.02 192.34 282.42 186L293 189.82Z" fill="#E4897B"/>
<path d="M295.81 185C298.08 191.64 284.74 211.17 284.74 211.17L272 204.08C274.171 197.986 276.736 192.04 279.68 186.28C284.14 177.84 293.32 177.71 295.81 185Z" fill="url(#paint19_linear)"/>
<path opacity="0.7" d="M295.81 185C298.08 191.64 284.74 211.17 284.74 211.17L272 204.08C274.171 197.986 276.736 192.04 279.68 186.28C284.14 177.84 293.32 177.71 295.81 185Z" fill="white"/>
<path opacity="0.31" d="M296 185.83C293.14 184.46 289.85 185.61 286.38 191.09C282.91 196.57 279.96 205.72 279.64 208.33L284.75 211.16C284.75 211.16 297.06 193.12 296 185.83Z" fill="url(#paint20_linear)"/>
<path d="M287.18 179.92C287.18 179.92 277.66 202.31 284.52 244H324.17C324.66 237.91 321.86 208.22 328.73 179.54C324.365 178.69 319.949 178.129 315.51 177.86C309.898 177.54 304.272 177.54 298.66 177.86C294.786 178.253 290.949 178.942 287.18 179.92Z" fill="url(#paint21_linear)"/>
<path opacity="0.7" d="M287.18 179.92C287.18 179.92 277.66 202.31 284.52 244H324.17C324.66 237.91 321.86 208.22 328.73 179.54C324.365 178.69 319.949 178.129 315.51 177.86C309.898 177.54 304.272 177.54 298.66 177.86C294.786 178.253 290.949 178.942 287.18 179.92Z" fill="white"/>
<path d="M338.21 421.63L332.34 426.89L321.15 415.24L327.03 409.98L338.21 421.63Z" fill="#E4897B"/>
<path d="M318.08 432.57H310.67L309.71 415.41H317.12L318.08 432.57Z" fill="#E4897B"/>
<path d="M321.16 415.24L326.92 421.25L332.8 415.98L327.04 409.98L321.16 415.24Z" fill="#CE6F64"/>
<path d="M317.12 415.41H309.71L310.21 424.26H317.62L317.12 415.41Z" fill="#CE6F64"/>
<path d="M284.52 244C284.52 244 276.71 298.06 274.05 327.48C271.91 351.09 322.96 421.48 322.96 421.48L332.83 412.19C332.83 412.19 295.55 349.08 298.42 322.8C301.2 297.35 310.62 243.97 310.62 243.97L284.52 244Z" fill="url(#paint22_linear)"/>
<path opacity="0.7" d="M284.52 244C284.52 244 276.71 298.06 274.05 327.48C271.91 351.09 322.96 421.48 322.96 421.48L332.83 412.19C332.83 412.19 295.55 349.08 298.42 322.8C301.2 297.35 310.62 243.97 310.62 243.97L284.52 244Z" fill="black"/>
<path opacity="0.2" d="M298.42 322.83C299.85 309.72 303.05 289.18 305.8 272.36C304.36 269.54 300.32 263.83 300.32 263.83C296.7 276.34 288.83 323.5 300.06 387.19C311.76 406.05 322.96 421.51 322.96 421.51L324.49 397.19C313.68 376.85 296.43 341 298.42 322.83Z" fill="black"/>
<path d="M298.62 244C298.62 244 297.92 300.65 299.12 321.88C300.43 345.12 307.03 422.13 307.03 422.13H320.61C320.61 422.13 320.2 347 321 324C321.89 299 324.19 244 324.19 244H298.62Z" fill="url(#paint23_linear)"/>
<path opacity="0.7" d="M298.62 244C298.62 244 297.92 300.65 299.12 321.88C300.43 345.12 307.03 422.13 307.03 422.13H320.61C320.61 422.13 320.2 347 321 324C321.89 299 324.19 244 324.19 244H298.62Z" fill="black"/>
<path d="M310.28 431.72H318.61C318.749 431.715 318.884 431.764 318.987 431.857C319.09 431.951 319.152 432.081 319.16 432.22L319.57 438.81C319.571 438.982 319.539 439.153 319.474 439.312C319.41 439.472 319.314 439.617 319.193 439.739C319.073 439.862 318.929 439.959 318.771 440.026C318.612 440.094 318.442 440.129 318.27 440.13C315.37 440.08 313.98 439.91 310.32 439.91C308.07 439.91 298.49 440.15 295.38 440.15C292.27 440.15 292.38 437.07 293.67 436.79C299.58 435.54 306.91 433.79 309.01 432.17C309.372 431.884 309.819 431.726 310.28 431.72Z" fill="#263238"/>
<path d="M330.72 424.78L337.86 419.97C337.977 419.878 338.121 419.827 338.27 419.827C338.419 419.827 338.563 419.878 338.68 419.97L344.14 425.48C344.247 425.601 344.325 425.744 344.37 425.899C344.415 426.054 344.426 426.217 344.401 426.376C344.376 426.535 344.317 426.687 344.227 426.821C344.137 426.955 344.018 427.067 343.88 427.15C339.32 430.66 336.03 433.31 333.43 436.23C330.43 439.64 328.81 440.13 321.81 440.13C318.57 440.13 316.74 437.4 318.06 436.98C329.72 433.29 326.6 431.68 329.44 426.27C329.736 425.675 330.176 425.163 330.72 424.78Z" fill="#263238"/>
<path d="M241.11 251.56L233.38 251.83L235 257.89C235 257.89 243.08 258.61 243.8 256.17L241.11 251.56Z" fill="#E4897B"/>
<path d="M225.04 255.44L230.46 258.6L235 257.89L233.38 251.83L225.04 255.44Z" fill="#E4897B"/>
<path opacity="0.31" d="M319.87 186.62C319.05 191.34 320.14 202.62 324.19 215.68C324.507 204.491 325.809 193.351 328.08 182.39V182.33C325.48 182.07 320.66 182.19 319.87 186.62Z" fill="url(#paint24_linear)"/>
<path d="M314.5 158.88C313.25 164.3 311.84 174.24 315.5 177.88C315.5 177.88 313.92 182.37 303.84 182.37C292.76 182.37 298.65 177.88 298.65 177.88C304.75 176.44 304.75 171.95 303.84 167.74L314.5 158.88Z" fill="#E4897B"/>
<path d="M303.56 182.35L300.56 185.54L302.03 188.62L304.42 188.73L306.46 185.79L303.56 182.35Z" fill="url(#paint25_linear)"/>
<path d="M310.16 162.49L303.85 167.71C304.077 168.696 304.218 169.7 304.27 170.71C306.59 170.38 309.85 167.84 310.18 165.42C310.357 164.451 310.35 163.457 310.16 162.49Z" fill="#CE6F64"/>
<path d="M301.35 140.5C297.56 141.79 294.53 151.84 298.95 154.5C303.37 157.16 308.55 138.05 301.35 140.5Z" fill="#263238"/>
<path d="M316.87 153.2C314.61 160.2 313.65 164.43 309.09 167.3C307.619 168.245 305.917 168.771 304.169 168.819C302.421 168.867 300.693 168.437 299.173 167.574C297.652 166.711 296.396 165.448 295.54 163.923C294.685 162.398 294.263 160.668 294.32 158.92C294.41 152.19 298.09 141.83 305.84 140.53C307.51 140.208 309.236 140.33 310.844 140.884C312.453 141.438 313.887 142.405 315.004 143.688C316.121 144.971 316.881 146.525 317.209 148.195C317.536 149.864 317.419 151.59 316.87 153.2Z" fill="#E4897B"/>
<path d="M322.47 141.5C320.21 146.96 325.47 142.4 324.11 148.88C323.23 153.1 315.61 163.21 312.67 162.29C309.73 161.37 309.76 154.2 313.51 149.13C315.67 146.22 311 142.92 300.51 143.27C290.02 143.62 283.68 137.72 297.62 133.39C297.62 133.39 292.48 136.39 295.53 137.39C299.85 139 327 130.56 322.47 141.5Z" fill="#263238"/>
<path d="M320.47 144C320.36 144 322.82 143.39 324.13 139C324.13 139.07 323.7 145.54 320.47 144Z" fill="#263238"/>
<path d="M300.84 134.36C294.39 136.36 297.06 138.61 299.73 139.17L305.85 136.77C296.55 138 300.84 134.36 300.84 134.36Z" fill="#263238"/>
<path d="M318.11 161.75C316.769 163.053 314.98 163.794 313.11 163.82C310.64 163.82 310.11 161.48 311.44 159.52C312.62 157.76 315.32 155.64 317.5 156.59C319.68 157.54 319.75 160.14 318.11 161.75Z" fill="#E4897B"/>
<path d="M305.48 152.81C305.33 153.39 304.9 153.81 304.48 153.71C304.06 153.61 303.91 153.08 304.06 152.5C304.21 151.92 304.64 151.5 305.06 151.61C305.48 151.72 305.63 152.23 305.48 152.81Z" fill="#263238"/>
<path d="M298.88 151.36C298.73 151.94 298.3 152.36 297.88 152.26C297.46 152.16 297.31 151.64 297.46 151.06C297.61 150.48 298.03 150.06 298.46 150.16C298.89 150.26 299 150.78 298.88 151.36Z" fill="#263238"/>
<path d="M300.9 152.11C299.763 153.729 298.418 155.192 296.9 156.46C297.234 156.831 297.645 157.125 298.105 157.32C298.564 157.515 299.061 157.607 299.56 157.59L300.9 152.11Z" fill="#DE5753"/>
<path d="M302 159.7C301.586 159.7 301.173 159.653 300.77 159.56C300.726 159.548 300.687 159.52 300.663 159.481C300.639 159.442 300.631 159.395 300.64 159.35C300.652 159.306 300.68 159.267 300.719 159.243C300.758 159.219 300.805 159.211 300.85 159.22C301.586 159.384 302.35 159.379 303.085 159.206C303.819 159.033 304.504 158.696 305.09 158.22C305.124 158.188 305.168 158.17 305.215 158.17C305.262 158.17 305.306 158.188 305.34 158.22C305.372 158.254 305.39 158.298 305.39 158.345C305.39 158.392 305.372 158.436 305.34 158.47C304.411 159.269 303.225 159.706 302 159.7Z" fill="#263238"/>
<path d="M308.1 151.14C308.032 151.141 307.965 151.122 307.908 151.084C307.851 151.047 307.806 150.993 307.78 150.93C307.616 150.529 307.358 150.173 307.027 149.893C306.696 149.613 306.303 149.416 305.88 149.32C305.834 149.314 305.789 149.299 305.749 149.275C305.709 149.252 305.674 149.22 305.646 149.183C305.618 149.146 305.598 149.103 305.587 149.058C305.575 149.013 305.573 148.966 305.58 148.92C305.595 148.828 305.645 148.745 305.72 148.689C305.794 148.633 305.888 148.608 305.98 148.62C306.519 148.73 307.023 148.969 307.448 149.318C307.873 149.666 308.207 150.113 308.42 150.62C308.44 150.662 308.451 150.707 308.452 150.753C308.454 150.8 308.446 150.846 308.429 150.889C308.412 150.932 308.387 150.971 308.354 151.004C308.322 151.037 308.283 151.063 308.24 151.08C308.198 151.11 308.151 151.131 308.1 151.14Z" fill="#263238"/>
<path d="M296.65 148.49C296.57 148.489 296.492 148.461 296.43 148.41C296.358 148.35 296.313 148.264 296.303 148.17C296.294 148.077 296.322 147.983 296.38 147.91C296.732 147.472 297.181 147.12 297.691 146.883C298.2 146.645 298.758 146.528 299.32 146.54C299.366 146.544 299.411 146.557 299.452 146.578C299.493 146.599 299.529 146.628 299.559 146.663C299.589 146.699 299.611 146.74 299.625 146.784C299.639 146.828 299.644 146.874 299.64 146.92C299.638 146.967 299.626 147.012 299.605 147.054C299.584 147.095 299.555 147.132 299.52 147.162C299.484 147.193 299.442 147.215 299.398 147.228C299.353 147.242 299.306 147.246 299.26 147.24C298.81 147.235 298.366 147.334 297.96 147.528C297.554 147.722 297.198 148.007 296.92 148.36C296.888 148.401 296.847 148.434 296.8 148.456C296.753 148.479 296.702 148.49 296.65 148.49Z" fill="#263238"/>
<path d="M330.65 184.65C331.43 185.86 332.08 186.93 332.74 188.09C333.4 189.25 334.03 190.37 334.65 191.53C335.87 193.84 337.02 196.2 338.07 198.61C340.273 203.544 341.926 208.705 343 214L343.1 214.51L343.15 214.76L343.22 215.18C343.305 215.739 343.349 216.304 343.35 216.87C343.34 217.817 343.24 218.762 343.05 219.69C342.711 221.221 342.222 222.715 341.59 224.15C340.467 226.664 339.129 229.077 337.59 231.36C334.681 235.702 331.374 239.763 327.71 243.49L323.36 240C325.78 235.78 328.19 231.4 330.21 227.11C331.203 225.058 332.052 222.94 332.75 220.77C333.035 219.865 333.23 218.934 333.33 217.99C333.365 217.681 333.365 217.369 333.33 217.06C333.33 216.97 333.33 216.89 333.27 216.88C333.21 216.87 333.27 216.88 333.27 216.83L333.21 216.63L333.09 216.22C332.458 214.014 331.707 211.844 330.84 209.72C329.96 207.55 328.98 205.39 327.95 203.24C326.92 201.09 325.81 198.97 324.67 196.85C324.11 195.79 323.52 194.74 322.93 193.7L321.17 190.7L330.65 184.65Z" fill="#E4897B"/>
<path d="M307.66 433C307.161 433.05 306.661 432.911 306.26 432.61C306.147 432.485 306.068 432.333 306.029 432.168C305.991 432.004 305.994 431.833 306.04 431.67C306.062 431.561 306.111 431.459 306.183 431.373C306.254 431.287 306.346 431.221 306.45 431.18C307.36 430.82 309.45 432.26 309.69 432.42C309.72 432.438 309.743 432.466 309.755 432.498C309.768 432.531 309.77 432.566 309.76 432.6C309.755 432.634 309.74 432.665 309.717 432.69C309.693 432.715 309.663 432.732 309.63 432.74C308.984 432.895 308.324 432.982 307.66 433ZM306.79 431.47C306.721 431.459 306.65 431.459 306.58 431.47C306.529 431.488 306.484 431.52 306.451 431.563C306.417 431.605 306.396 431.656 306.39 431.71C306.354 431.815 306.346 431.927 306.367 432.036C306.388 432.145 306.437 432.246 306.51 432.33C306.85 432.67 307.82 432.71 309.15 432.45C308.443 431.96 307.638 431.629 306.79 431.48V431.47Z" fill="white"/>
<path d="M309.59 432.75H309.5C308.76 432.31 307.66 430.75 307.83 429.95C307.86 429.803 307.938 429.671 308.052 429.575C308.167 429.478 308.311 429.424 308.46 429.42C308.592 429.403 308.726 429.416 308.852 429.457C308.979 429.499 309.094 429.568 309.19 429.66C309.94 430.39 309.77 432.52 309.77 432.61C309.766 432.64 309.755 432.668 309.738 432.693C309.72 432.717 309.697 432.737 309.67 432.75H309.59ZM308.59 429.75H308.51C308.26 429.75 308.2 429.9 308.18 430C308.07 430.53 308.8 431.7 309.44 432.24C309.532 431.429 309.364 430.609 308.96 429.9C308.91 429.851 308.85 429.813 308.785 429.787C308.72 429.761 308.65 429.749 308.58 429.75H308.59Z" fill="white"/>
<path d="M325.92 428.8C325.735 428.806 325.551 428.771 325.38 428.7C325.248 428.647 325.131 428.563 325.039 428.455C324.947 428.347 324.882 428.218 324.85 428.08C324.825 427.996 324.821 427.906 324.841 427.821C324.86 427.735 324.901 427.655 324.96 427.59C325.63 426.78 329.14 427.02 329.54 427.05C329.577 427.051 329.613 427.065 329.642 427.088C329.671 427.112 329.691 427.144 329.7 427.18C329.708 427.216 329.704 427.254 329.69 427.288C329.676 427.322 329.651 427.35 329.62 427.37C328.503 428.106 327.242 428.594 325.92 428.8ZM328.04 427.34C326.81 427.34 325.52 427.46 325.23 427.81C325.213 427.837 325.204 427.868 325.204 427.9C325.204 427.932 325.213 427.963 325.23 427.99C325.247 428.077 325.285 428.157 325.341 428.226C325.397 428.294 325.468 428.347 325.55 428.38C326.11 428.61 327.37 428.23 328.96 427.38L328.04 427.34Z" fill="white"/>
<path d="M329.53 427.4C328.53 427.4 326.28 426.63 326.11 425.83C326.11 425.63 326.11 425.35 326.59 425.12C328.31 424.31 329.64 427.03 329.7 427.12C329.712 427.148 329.718 427.179 329.718 427.21C329.718 427.241 329.712 427.272 329.7 427.3C329.684 427.331 329.659 427.356 329.629 427.374C329.599 427.391 329.565 427.4 329.53 427.4ZM327.22 425.33C327.05 425.328 326.883 425.366 326.73 425.44C326.52 425.54 326.42 425.65 326.44 425.75C326.54 426.22 328.16 426.88 329.22 427.02C328.9 426.48 328.13 425.33 327.22 425.33Z" fill="white"/>
<path d="M325.34 238.38L318 237.09L321.79 245.64C321.79 245.64 328.52 245.64 328.22 242.12L325.34 238.38Z" fill="#E4897B"/>
<path d="M312.45 241.39L315.92 248.29L321.75 245.64L317.96 237.09L312.45 241.39Z" fill="#E4897B"/>
<path d="M333.43 411.66L322.36 422.08L318.79 418.25L331.46 406.71L333.43 411.66Z" fill="url(#paint26_linear)"/>
<path opacity="0.6" d="M333.43 411.66L322.36 422.08L318.79 418.25L331.46 406.71L333.43 411.66Z" fill="white"/>
<path d="M321.15 422.13H306.48L305.67 416.97L321.86 417.78L321.15 422.13Z" fill="url(#paint27_linear)"/>
<path opacity="0.6" d="M321.15 422.13H306.48L305.67 416.97L321.86 417.78L321.15 422.13Z" fill="white"/>
<path d="M328.73 179.54C335.73 180.54 342.9 204.86 342.9 204.86L327.9 213.18C327.9 213.18 321.81 201.62 318.9 193.04C315.85 184.05 321.24 178.44 328.73 179.54Z" fill="url(#paint28_linear)"/>
<path opacity="0.7" d="M328.73 179.54C335.73 180.54 342.9 204.86 342.9 204.86L327.9 213.18C327.9 213.18 321.81 201.62 318.9 193.04C315.85 184.05 321.24 178.44 328.73 179.54Z" fill="white"/>
<path opacity="0.2" d="M303.56 182.35L300.56 185.54L302.03 188.62L304.42 188.73L306.46 185.79L303.56 182.35Z" fill="black"/>
<path d="M302.29 188.07C302.29 188.07 296.6 211.64 296.38 216.54C296.07 223.28 298.89 234.79 298.89 234.79C298.89 234.79 302.89 225.22 303.71 216.33C304.53 207.44 303.92 193.06 304.29 188.07H302.29Z" fill="url(#paint29_linear)"/>
<path opacity="0.2" d="M302.29 188.07C302.29 188.07 296.6 211.64 296.38 216.54C296.07 223.28 298.89 234.79 298.89 234.79C298.89 234.79 302.89 225.22 303.71 216.33C304.53 207.44 303.92 193.06 304.29 188.07H302.29Z" fill="black"/>
<path d="M303.56 182.35C304.7 184.195 305.36 186.295 305.48 188.46C305.48 188.46 317.96 184.06 317.37 177.61C317.37 177.61 315.6 176.56 314.48 175.71C314.48 175.71 314.06 179.77 303.56 182.35Z" fill="url(#paint30_linear)"/>
<path opacity="0.6" d="M303.56 182.35C304.7 184.195 305.36 186.295 305.48 188.46C305.48 188.46 317.96 184.06 317.37 177.61C317.37 177.61 315.6 176.56 314.48 175.71C314.48 175.71 314.06 179.77 303.56 182.35Z" fill="white"/>
<path d="M303.56 182.35C302.413 184.096 301.587 186.033 301.12 188.07C301.12 188.07 295.47 184.25 297.17 177.88C298.205 177.463 299.272 177.128 300.36 176.88C300.36 176.88 299.62 181 303.56 182.35Z" fill="url(#paint31_linear)"/>
<path opacity="0.6" d="M303.56 182.35C302.413 184.096 301.587 186.033 301.12 188.07C301.12 188.07 295.47 184.25 297.17 177.88C298.205 177.463 299.272 177.128 300.36 176.88C300.36 176.88 299.62 181 303.56 182.35Z" fill="white"/>
<defs>
<linearGradient id="paint0_linear" x1="468.483" y1="49" x2="468.483" y2="323" gradientUnits="userSpaceOnUse">
<stop stop-color="#4070FF"/>
<stop offset="1" stop-color="#365FD9"/>
</linearGradient>
<linearGradient id="paint1_linear" x1="443.89" y1="427.92" x2="443.89" y2="450.56" gradientUnits="userSpaceOnUse">
<stop stop-color="#4070FF"/>
<stop offset="1" stop-color="#365FD9"/>
</linearGradient>
<linearGradient id="paint2_linear" x1="108.625" y1="174.435" x2="185.218" y2="251.029" gradientUnits="userSpaceOnUse">
<stop stop-color="#4070FF"/>
<stop offset="1" stop-color="#365FD9"/>
</linearGradient>
<linearGradient id="paint3_linear" x1="71.3712" y1="205.612" x2="158.691" y2="211.724" gradientUnits="userSpaceOnUse">
<stop stop-color="#4070FF"/>
<stop offset="1" stop-color="#365FD9"/>
</linearGradient>
<linearGradient id="paint4_linear" x1="129.57" y1="222.791" x2="129.57" y2="279.31" gradientUnits="userSpaceOnUse">
<stop stop-color="#4070FF"/>
<stop offset="1" stop-color="#365FD9"/>
</linearGradient>
<linearGradient id="paint5_linear" x1="190.854" y1="130.29" x2="248.597" y2="179.086" gradientUnits="userSpaceOnUse">
<stop stop-color="#4070FF"/>
<stop offset="1" stop-color="#365FD9"/>
</linearGradient>
<linearGradient id="paint6_linear" x1="190.835" y1="142.872" x2="239.253" y2="179.877" gradientUnits="userSpaceOnUse">
<stop stop-color="#4070FF"/>
<stop offset="1" stop-color="#365FD9"/>
</linearGradient>
<linearGradient id="paint7_linear" x1="210.103" y1="163.892" x2="210.103" y2="203.12" gradientUnits="userSpaceOnUse">
<stop stop-color="#4070FF"/>
<stop offset="1" stop-color="#365FD9"/>
</linearGradient>
<linearGradient id="paint8_linear" x1="103.26" y1="411.97" x2="103.26" y2="423.26" gradientUnits="userSpaceOnUse">
<stop stop-color="#4070FF"/>
<stop offset="1" stop-color="#365FD9"/>
</linearGradient>
<linearGradient id="paint9_linear" x1="397.74" y1="322.53" x2="397.74" y2="338" gradientUnits="userSpaceOnUse">
<stop stop-color="#4070FF"/>
<stop offset="1" stop-color="#365FD9"/>
</linearGradient>
<linearGradient id="paint10_linear" x1="397.74" y1="346.11" x2="397.74" y2="354.5" gradientUnits="userSpaceOnUse">
<stop stop-color="#4070FF"/>
<stop offset="1" stop-color="#365FD9"/>
</linearGradient>
<linearGradient id="paint11_linear" x1="394.25" y1="255.44" x2="394.25" y2="436.79" gradientUnits="userSpaceOnUse">
<stop stop-color="#4070FF"/>
<stop offset="1" stop-color="#365FD9"/>
</linearGradient>
<linearGradient id="paint12_linear" x1="342.12" y1="281.25" x2="342.12" y2="318.59" gradientUnits="userSpaceOnUse">
<stop stop-color="#4070FF"/>
<stop offset="1" stop-color="#365FD9"/>
</linearGradient>
<linearGradient id="paint13_linear" x1="191.22" y1="318.59" x2="191.22" y2="360.62" gradientUnits="userSpaceOnUse">
<stop stop-color="#4070FF"/>
<stop offset="1" stop-color="#365FD9"/>
</linearGradient>
<linearGradient id="paint14_linear" x1="220.1" y1="276.67" x2="220.1" y2="285.84" gradientUnits="userSpaceOnUse">
<stop stop-color="#4070FF"/>
<stop offset="1" stop-color="#365FD9"/>
</linearGradient>
<linearGradient id="paint15_linear" x1="181.94" y1="381.48" x2="181.94" y2="401.23" gradientUnits="userSpaceOnUse">
<stop stop-color="#4070FF"/>
<stop offset="1" stop-color="#365FD9"/>
</linearGradient>
<linearGradient id="paint16_linear" x1="243.36" y1="381.48" x2="243.36" y2="401.23" gradientUnits="userSpaceOnUse">
<stop stop-color="#4070FF"/>
<stop offset="1" stop-color="#365FD9"/>
</linearGradient>
<linearGradient id="paint17_linear" x1="304.79" y1="381.48" x2="304.79" y2="401.23" gradientUnits="userSpaceOnUse">
<stop stop-color="#4070FF"/>
<stop offset="1" stop-color="#365FD9"/>
</linearGradient>
<linearGradient id="paint18_linear" x1="366.21" y1="381.48" x2="366.21" y2="401.23" gradientUnits="userSpaceOnUse">
<stop stop-color="#4070FF"/>
<stop offset="1" stop-color="#365FD9"/>
</linearGradient>
<linearGradient id="paint19_linear" x1="296.07" y1="179.729" x2="296.07" y2="211.17" gradientUnits="userSpaceOnUse">
<stop stop-color="#4070FF"/>
<stop offset="1" stop-color="#365FD9"/>
</linearGradient>
<linearGradient id="paint20_linear" x1="296.065" y1="185.303" x2="296.065" y2="211.16" gradientUnits="userSpaceOnUse">
<stop stop-color="#4070FF"/>
<stop offset="1" stop-color="#365FD9"/>
</linearGradient>
<linearGradient id="paint21_linear" x1="328.73" y1="177.62" x2="328.73" y2="244" gradientUnits="userSpaceOnUse">
<stop stop-color="#4070FF"/>
<stop offset="1" stop-color="#365FD9"/>
</linearGradient>
<linearGradient id="paint22_linear" x1="332.83" y1="243.97" x2="332.83" y2="421.48" gradientUnits="userSpaceOnUse">
<stop stop-color="#4070FF"/>
<stop offset="1" stop-color="#365FD9"/>
</linearGradient>
<linearGradient id="paint23_linear" x1="324.19" y1="244" x2="324.19" y2="422.13" gradientUnits="userSpaceOnUse">
<stop stop-color="#4070FF"/>
<stop offset="1" stop-color="#365FD9"/>
</linearGradient>
<linearGradient id="paint24_linear" x1="328.08" y1="182.249" x2="328.08" y2="215.68" gradientUnits="userSpaceOnUse">
<stop stop-color="#4070FF"/>
<stop offset="1" stop-color="#365FD9"/>
</linearGradient>
<linearGradient id="paint25_linear" x1="306.46" y1="182.35" x2="306.46" y2="188.73" gradientUnits="userSpaceOnUse">
<stop stop-color="#4070FF"/>
<stop offset="1" stop-color="#365FD9"/>
</linearGradient>
<linearGradient id="paint26_linear" x1="333.43" y1="406.71" x2="333.43" y2="422.08" gradientUnits="userSpaceOnUse">
<stop stop-color="#4070FF"/>
<stop offset="1" stop-color="#365FD9"/>
</linearGradient>
<linearGradient id="paint27_linear" x1="321.86" y1="416.97" x2="321.86" y2="422.13" gradientUnits="userSpaceOnUse">
<stop stop-color="#4070FF"/>
<stop offset="1" stop-color="#365FD9"/>
</linearGradient>
<linearGradient id="paint28_linear" x1="342.9" y1="179.403" x2="342.9" y2="213.18" gradientUnits="userSpaceOnUse">
<stop stop-color="#4070FF"/>
<stop offset="1" stop-color="#365FD9"/>
</linearGradient>
<linearGradient id="paint29_linear" x1="304.29" y1="188.07" x2="304.29" y2="234.79" gradientUnits="userSpaceOnUse">
<stop stop-color="#4070FF"/>
<stop offset="1" stop-color="#365FD9"/>
</linearGradient>
<linearGradient id="paint30_linear" x1="317.39" y1="175.71" x2="317.39" y2="188.46" gradientUnits="userSpaceOnUse">
<stop stop-color="#4070FF"/>
<stop offset="1" stop-color="#365FD9"/>
</linearGradient>
<linearGradient id="paint31_linear" x1="303.56" y1="176.88" x2="303.56" y2="188.07" gradientUnits="userSpaceOnUse">
<stop stop-color="#4070FF"/>
<stop offset="1" stop-color="#365FD9"/>
</linearGradient>
</defs>
</svg>
