<svg width="500" height="500" viewBox="0 0 500 500" fill="none" xmlns="http://www.w3.org/2000/svg">
<path opacity="0.1" d="M219.12 179.464C220.86 179.089 222.587 178.694 224.3 178.279C266.52 168.34 314.8 162.579 351.41 180.107C387.3 197.278 382.89 233.673 361.9 267.096C325.97 324.298 189.9 378.579 153.18 320.417C141.31 301.622 161.77 268.526 147.05 246.37C130.29 221.14 52.7301 237.095 68.2301 181.353C76.8201 150.444 98.8601 152.262 122.54 162.293C136.13 168.043 149.11 175.204 163.17 180.066C180.24 185.981 200.16 183.611 219.12 179.464Z" fill="url(#paint0_linear)"/>
<path opacity="0.1" d="M250 428.56C357.082 428.56 443.89 423.383 443.89 416.997C443.89 410.611 357.082 405.434 250 405.434C142.917 405.434 56.1099 410.611 56.1099 416.997C56.1099 423.383 142.917 428.56 250 428.56Z" fill="url(#paint1_linear)"/>
<path d="M126.11 337.782H254.55V405.516C254.55 406.383 254.383 407.243 254.057 408.045C253.732 408.847 253.256 409.575 252.655 410.189C252.054 410.802 251.341 411.289 250.556 411.621C249.771 411.954 248.93 412.125 248.08 412.125H132.58C131.73 412.125 130.889 411.954 130.104 411.621C129.319 411.289 128.606 410.802 128.005 410.189C127.404 409.575 126.928 408.847 126.602 408.045C126.277 407.243 126.11 406.383 126.11 405.516V337.782Z" fill="url(#paint2_linear)"/>
<path d="M126.11 337.782H217L205.82 323.164C204.59 321.561 201.55 320.263 199.02 320.263H117.28C114.76 320.263 113.7 321.561 114.93 323.164L126.11 337.782Z" fill="url(#paint3_linear)"/>
<path opacity="0.2" d="M126.11 337.782H217L205.82 323.164C204.59 321.561 201.55 320.263 199.02 320.263H117.28C114.76 320.263 113.7 321.561 114.93 323.164L126.11 337.782Z" fill="black"/>
<path d="M254.55 337.782H163.67L174.85 328.251C176.08 327.23 179.12 326.362 181.65 326.362H263.38C265.91 326.362 266.96 327.209 265.73 328.251L254.55 337.782Z" fill="url(#paint4_linear)"/>
<path opacity="0.2" d="M163.67 337.782H254.55V405.516C254.55 406.383 254.383 407.243 254.057 408.045C253.732 408.847 253.256 409.575 252.655 410.189C252.054 410.802 251.341 411.289 250.556 411.621C249.771 411.954 248.93 412.125 248.08 412.125H170.14C169.29 412.125 168.449 411.954 167.664 411.621C166.879 411.289 166.166 410.802 165.565 410.189C164.964 409.575 164.488 408.847 164.162 408.045C163.837 407.243 163.67 406.383 163.67 405.516V337.782Z" fill="white"/>
<path opacity="0.5" d="M137.39 337.782V384.238L140.53 381.705L142.74 384.238L144.66 381.419L146.63 384.238L149.37 382.124L152.39 384.238V337.782H137.39Z" fill="white"/>
<path d="M157.72 236.441L141.57 222.59" stroke="url(#paint5_linear)" stroke-miterlimit="10"/>
<path d="M166.09 243.622L161.17 239.393" stroke="url(#paint6_linear)" stroke-miterlimit="10"/>
<path d="M214.47 272.612L267.75 204.592L196.81 143.753L149.81 198.841L142.81 212.621C142.462 213.012 142.198 213.472 142.032 213.972C141.867 214.473 141.804 215.003 141.848 215.529C141.892 216.056 142.042 216.567 142.289 217.031C142.535 217.496 142.872 217.903 143.28 218.229L207.28 273.122C208.321 273.979 209.64 274.402 210.973 274.308C212.306 274.213 213.555 273.607 214.47 272.612Z" fill="url(#paint7_linear)"/>
<path opacity="0.5" d="M177.93 222.447L170.26 235.062L173.35 235.747L174.4 238.668L176.45 238.791L177.4 241.293L179.91 242.039L181.84 245.175L189.51 232.56L177.93 222.447Z" fill="white"/>
<path opacity="0.1" d="M265.43 202.6L217.65 257.044L149.78 198.841L196.81 143.753L265.43 202.6Z" fill="black"/>
<path d="M265.43 202.6L217.65 257.044L237.43 258.536L284.47 203.448L265.43 202.6Z" fill="url(#paint8_linear)"/>
<path opacity="0.3" d="M265.43 202.6L217.65 257.044L237.43 258.536L284.47 203.448L265.43 202.6Z" fill="black"/>
<path d="M177.78 142.895L129.99 197.35L149.78 198.841L196.81 143.753L177.78 142.895Z" fill="url(#paint9_linear)"/>
<path opacity="0.4" d="M177.78 142.895L129.99 197.35L149.78 198.841L196.81 143.753L177.78 142.895Z" fill="black"/>
<path opacity="0.1" d="M250.72 219.362L265.43 202.6L196.81 143.753L188.03 165.367L250.72 219.362Z" fill="black"/>
<path opacity="0.2" d="M149.78 198.841L196.81 143.753L188.03 165.367L154.91 203.244L149.78 198.841Z" fill="black"/>
<path d="M282 100.095C282.19 100.749 282 101.392 281.58 101.515C281.16 101.638 280.67 101.209 280.48 100.555C280.29 99.9011 280.48 99.2575 280.9 99.1247C281.32 98.992 281.82 99.4414 282 100.095Z" fill="#263238"/>
<path d="M282.07 101.382C281.881 103.63 281.39 105.84 280.61 107.95C281.145 108.14 281.713 108.208 282.276 108.149C282.839 108.091 283.383 107.908 283.87 107.613L282.07 101.382Z" fill="#ED847E"/>
<path d="M283.33 95.7335C283.415 95.6836 283.479 95.6036 283.51 95.5087C283.529 95.4592 283.537 95.4063 283.535 95.3532C283.533 95.3002 283.521 95.2481 283.498 95.2002C283.476 95.1524 283.444 95.1097 283.405 95.0749C283.365 95.0401 283.319 95.014 283.27 94.998C282.684 94.7686 282.053 94.6868 281.43 94.7597C280.806 94.8326 280.21 95.058 279.69 95.4168C279.622 95.4869 279.582 95.5795 279.576 95.6777C279.569 95.7759 279.598 95.873 279.657 95.9513C279.715 96.0296 279.799 96.0837 279.893 96.1037C279.988 96.1237 280.086 96.1083 280.17 96.0603C280.585 95.782 281.06 95.609 281.554 95.5557C282.048 95.5024 282.547 95.5703 283.01 95.7539C283.062 95.7732 283.117 95.7814 283.172 95.7778C283.227 95.7743 283.281 95.7592 283.33 95.7335Z" fill="#263238"/>
<path d="M304.24 104.467C304.68 109.881 305.99 119.789 309.12 122.077C309.12 122.077 308.38 128.584 297.12 130.249C284.78 132.108 290.32 124.876 290.32 124.876C296.81 122.22 295.9 117.144 294.04 112.526L298.8 106.949C300.63 104.886 304 101.699 304.24 104.467Z" fill="#FFC3BD"/>
<path d="M313.15 124.723C314.15 123.793 312.15 120.075 310.92 119.554C307.7 118.175 294.53 119.554 289.58 123.895C289.169 124.614 288.921 125.417 288.854 126.246C288.786 127.075 288.901 127.908 289.19 128.686L313.15 124.723Z" fill="white"/>
<path d="M355.09 397.763C354.765 397.914 354.413 397.997 354.056 398.008C353.699 398.018 353.343 397.956 353.01 397.824C352.878 397.717 352.782 397.572 352.733 397.408C352.685 397.243 352.687 397.068 352.74 396.905C352.767 396.771 352.822 396.645 352.901 396.536C352.981 396.426 353.083 396.336 353.2 396.271C354.28 395.628 356.95 396.476 357.06 396.516C357.097 396.526 357.13 396.547 357.154 396.576C357.179 396.605 357.195 396.641 357.2 396.68C357.205 396.72 357.198 396.761 357.181 396.798C357.163 396.834 357.135 396.864 357.1 396.884C356.461 397.246 355.787 397.54 355.09 397.763ZM353.63 396.516L353.4 396.619C353.332 396.656 353.272 396.709 353.226 396.772C353.179 396.836 353.146 396.909 353.13 396.986C353.06 397.354 353.2 397.466 353.24 397.497C353.72 397.844 355.35 397.344 356.48 396.762C355.559 396.466 354.586 396.383 353.63 396.516Z" fill="url(#paint10_linear)"/>
<path d="M357.06 396.894C357.027 396.905 356.993 396.905 356.96 396.894C355.96 396.69 353.87 395.413 353.76 394.453C353.744 394.302 353.781 394.15 353.863 394.023C353.945 393.896 354.068 393.803 354.21 393.758C354.348 393.695 354.498 393.663 354.65 393.663C354.802 393.663 354.951 393.695 355.09 393.758C356.25 394.249 357.15 396.537 357.18 396.629C357.2 396.659 357.21 396.694 357.21 396.731C357.21 396.767 357.2 396.803 357.18 396.833C357.166 396.852 357.148 396.867 357.127 396.878C357.106 396.889 357.083 396.894 357.06 396.894ZM354.46 394.106C354.431 394.097 354.399 394.097 354.37 394.106C354.14 394.208 354.15 394.33 354.16 394.382C354.22 394.954 355.64 395.985 356.65 396.363C356.35 395.699 355.65 394.412 354.94 394.106C354.785 394.045 354.614 394.045 354.46 394.106Z" fill="url(#paint11_linear)"/>
<path d="M296.48 408.733C295.41 408.733 294.38 408.58 294.03 408.09C293.94 407.962 293.892 407.808 293.892 407.65C293.892 407.493 293.94 407.339 294.03 407.211C294.097 407.093 294.186 406.99 294.293 406.907C294.399 406.825 294.521 406.765 294.65 406.731C296.04 406.353 298.96 408.049 299.08 408.12C299.117 408.139 299.148 408.169 299.167 408.206C299.185 408.243 299.192 408.286 299.185 408.327C299.179 408.369 299.159 408.407 299.129 408.436C299.099 408.465 299.061 408.483 299.02 408.488C298.182 408.648 297.332 408.73 296.48 408.733ZM295.16 407.078C295.032 407.073 294.903 407.091 294.78 407.13C294.62 407.166 294.48 407.265 294.39 407.405C294.25 407.661 294.3 407.783 294.39 407.855C294.78 408.406 296.89 408.417 298.39 408.192C297.394 407.611 296.297 407.233 295.16 407.078Z" fill="url(#paint12_linear)"/>
<path d="M299 408.498H298.92C297.92 408.039 295.92 406.19 296.07 405.23C296.07 405.005 296.27 404.719 296.81 404.668C297.005 404.645 297.203 404.665 297.391 404.725C297.578 404.784 297.752 404.883 297.9 405.015C298.97 405.904 299.19 408.202 299.2 408.294C299.206 408.329 299.201 408.365 299.187 408.398C299.173 408.431 299.149 408.458 299.12 408.478C299.083 408.498 299.041 408.505 299 408.498ZM297 405.046H296.88C296.52 405.046 296.5 405.23 296.49 405.27C296.4 405.853 297.76 407.313 298.78 407.936C298.693 406.962 298.308 406.04 297.68 405.301C297.493 405.132 297.25 405.041 297 405.046Z" fill="url(#paint13_linear)"/>
<path d="M308.18 408.294H299.83L299 388.559H307.35L308.18 408.294Z" fill="#FFC3BD"/>
<path d="M366.83 394.821L359.14 397.528L351.16 378.927L358.85 376.22L366.83 394.821Z" fill="#FFC3BD"/>
<path d="M357.31 395.577L366.31 392.768C366.469 392.718 366.64 392.725 366.795 392.788C366.95 392.851 367.078 392.967 367.16 393.115L370.91 399.857C371 400.022 371.053 400.205 371.064 400.394C371.075 400.582 371.044 400.771 370.974 400.945C370.904 401.12 370.796 401.276 370.658 401.403C370.521 401.529 370.357 401.622 370.18 401.675C367.03 402.604 365.46 402.89 361.52 404.126C359.09 404.882 352.97 407.252 349.52 407.957C346.07 408.662 344.96 405.291 346.3 404.688C352.3 401.981 354.76 398.907 356.19 396.516C356.44 396.075 356.838 395.741 357.31 395.577Z" fill="#263238"/>
<path d="M299.89 407.303H309C309.165 407.305 309.324 407.364 309.453 407.47C309.582 407.575 309.672 407.721 309.71 407.885L311.36 415.465C311.401 415.648 311.401 415.837 311.359 416.02C311.318 416.203 311.236 416.373 311.12 416.519C311.005 416.665 310.858 416.782 310.692 416.861C310.525 416.94 310.344 416.98 310.16 416.977C306.87 416.925 302.16 416.721 297.99 416.721C293.16 416.721 291.13 416.997 285.46 416.997C282.04 416.997 281.09 413.463 282.52 413.136C289.05 411.675 292.24 411.522 297.88 407.967C298.478 407.563 299.173 407.333 299.89 407.303Z" fill="#263238"/>
<path d="M324.14 127.511C326.57 129.789 328.67 132.067 330.85 134.447C333.03 136.827 335.05 139.289 337.01 141.914C339.057 144.581 340.915 147.394 342.57 150.331C343.474 151.95 344.257 153.637 344.91 155.377C345.08 155.857 345.25 156.317 345.39 156.838C345.554 157.365 345.691 157.9 345.8 158.442L345.97 159.289L346.09 160.229C346.202 161.09 346.202 161.963 346.09 162.824C345.861 164.449 345.272 166 344.37 167.359C343.712 168.352 342.939 169.26 342.07 170.066C340.672 171.361 339.144 172.502 337.51 173.468C334.633 175.149 331.622 176.581 328.51 177.748C322.607 179.986 316.524 181.695 310.33 182.855L308.58 176.726C314.01 174.326 319.51 171.731 324.58 168.963C327.048 167.64 329.424 166.145 331.69 164.489C332.634 163.804 333.503 163.016 334.28 162.139C334.516 161.88 334.715 161.588 334.87 161.271C334.95 161.098 334.87 161.118 334.77 161.486C334.7 162.17 334.71 161.639 334.55 161.271C334.5 161.098 334.41 160.863 334.32 160.638C334.23 160.413 334.12 160.158 334.01 159.913C333.468 158.799 332.864 157.717 332.2 156.675C330.656 154.332 328.986 152.078 327.2 149.923C325.36 147.696 323.42 145.479 321.43 143.303C319.44 141.128 317.35 138.932 315.43 136.909L324.14 127.511Z" fill="#FFC3BD"/>
<path d="M310.87 175.756L303 178.187L308.06 186.685C308.06 186.685 312.71 184.724 313.74 180.689L310.87 175.756Z" fill="#FFC3BD"/>
<path d="M299.82 181.2L302.92 188.207L308.01 186.696L302.95 178.187L299.82 181.2Z" fill="#FFC3BD"/>
<path d="M305.7 129.82C304.95 137.992 321.87 150.638 321.87 150.638L338.16 139.248C335.331 133.919 331.196 129.431 326.16 126.224C316.82 120.116 306.64 119.667 305.7 129.82Z" fill="url(#paint14_linear)"/>
<g opacity="0.3">
<path opacity="0.3" d="M305.7 129.82C304.95 137.992 321.87 150.638 321.87 150.638L338.16 139.248C335.331 133.919 331.196 129.431 326.16 126.224C316.82 120.116 306.64 119.667 305.7 129.82Z" fill="white"/>
</g>
<path d="M278 129.166C278 129.166 270.69 140.627 288.05 202.099L332.19 195.439C331.57 189.208 324.19 162.027 323.94 132.312C323.93 130.877 323.635 129.459 323.073 128.144C322.512 126.829 321.695 125.643 320.673 124.659C319.651 123.675 318.444 122.912 317.125 122.418C315.806 121.923 314.403 121.706 313 121.781C311.72 121.853 310.4 121.944 309.09 122.077C302.789 122.651 296.525 123.596 290.33 124.907C286.119 126.001 281.997 127.425 278 129.166Z" fill="url(#paint15_linear)"/>
<g opacity="0.3">
<path opacity="0.3" d="M278 129.166C278 129.166 270.69 140.627 288.05 202.099L332.19 195.439C331.57 189.208 324.19 162.027 323.94 132.312C323.93 130.877 323.635 129.459 323.073 128.144C322.512 126.829 321.695 125.643 320.673 124.659C319.651 123.675 318.444 122.912 317.125 122.418C315.806 121.923 314.403 121.706 313 121.781C311.72 121.853 310.4 121.944 309.09 122.077C302.789 122.651 296.525 123.596 290.33 124.907C286.119 126.001 281.997 127.425 278 129.166Z" fill="white"/>
</g>
<path opacity="0.2" d="M276.92 148.922L277.07 148.748L287.45 149.688C289.03 156.532 283.25 165.868 280.2 170.199C278.732 163.172 277.637 156.069 276.92 148.922Z" fill="black"/>
<path opacity="0.2" d="M299 388.569L299.43 398.743H307.78L307.35 388.569H299Z" fill="black"/>
<path opacity="0.2" d="M358.85 376.22L351.16 378.927L355.28 388.518L362.97 385.811L358.85 376.22Z" fill="black"/>
<path d="M303.15 92.2502C304.99 100.494 306.47 105.223 303.66 110.637C299.44 118.696 288.58 117.92 284.37 110.402C280.58 103.629 278.2 91.2901 285.04 85.7332C286.539 84.5039 288.32 83.6854 290.215 83.3553C292.11 83.0253 294.056 83.1945 295.869 83.8469C297.682 84.4994 299.303 85.6135 300.577 87.084C301.851 88.5545 302.736 90.3326 303.15 92.2502Z" fill="#FFC3BD"/>
<path d="M286.94 100.33L283.87 102.25L284.16 91.525C282.181 91.6118 280.228 91.0342 278.6 89.8804C279.71 88.7977 296.99 82.6178 302.38 83.6903C302.94 83.4554 303.62 82.393 303.62 82.393C303.62 82.393 303.83 83.7312 302.92 84.2419C303.58 84.1091 305.23 84.436 305.69 85.4268C304.933 85.2156 304.129 85.2622 303.4 85.5596C303.4 85.5596 309.4 86.4891 307.27 94.9878C304.88 104.355 305.67 109.738 305.67 109.738C305.67 109.738 301.21 113.262 297.33 112.608C293.19 107.95 287.21 102.353 286.94 100.33Z" fill="#263238"/>
<path d="M281.06 89.0326C276.19 89.0326 274.44 86.6015 273.19 84.5585C276.69 84.1806 283.98 81.8823 289.39 81.4941C294.8 81.106 300.73 82.1377 298.94 84.5585C297.15 86.9794 281.06 89.0326 281.06 89.0326Z" fill="#263238"/>
<path d="M282.13 86.816C278.13 86.244 274.23 82.393 277.23 78.7055C278.34 81.4124 285.83 81.0958 291.15 79.9619C298.15 78.4706 303 80.8812 300.52 85.7537C299.16 88.4197 282.13 86.816 282.13 86.816Z" fill="#263238"/>
<path d="M291.26 97.8888C291.832 99.9057 291.741 102.059 291 104.018C290 106.581 287.78 106.061 286.62 103.844C285.62 101.801 284.86 98.0931 286.56 96.2442C288.26 94.3953 290.54 95.4679 291.26 97.8888Z" fill="#FFC3BD"/>
<path d="M303.71 199.74C303.71 199.74 310.87 261.999 316.07 286.391C321.76 313.113 349.83 385.965 349.83 385.965L363.83 381.021C363.83 381.021 345.83 326.168 341.05 288.812C337.38 260.129 332.15 195.439 332.15 195.439L303.71 199.74Z" fill="#263238"/>
<path d="M346.25 381.388C346.18 381.388 349.12 387.517 349.12 387.517L365.47 382.093L363.55 377.108L346.25 381.388Z" fill="url(#paint16_linear)"/>
<path opacity="0.3" d="M307.66 231.681C309.9 248.985 312.77 269.476 315.29 282.561C319 262.509 319.87 237.187 307.66 231.681Z" fill="black"/>
<path d="M288.05 202.099C288.05 202.099 282.11 260.589 283.05 286.575C283.99 313.603 296.35 396.772 296.35 396.772H310.48C310.48 396.772 307.88 315.177 308.48 288.639C309.17 259.7 319.79 197.309 319.79 197.309L288.05 202.099Z" fill="#263238"/>
<path d="M293.6 391.021C293.54 391.021 294.4 397.007 294.4 397.007H311.59L312.06 391.664L293.6 391.021Z" fill="url(#paint17_linear)"/>
<path d="M285.31 143.528C283.75 146.061 282.17 148.339 280.53 150.679C278.89 153.018 277.17 155.275 275.42 157.522C271.853 162.081 267.987 166.388 263.85 170.413C262.73 171.435 261.7 172.456 260.49 173.386L259.61 174.111L259.17 174.469C259.01 174.601 258.94 174.673 258.61 174.918C257.619 175.64 256.531 176.211 255.38 176.614C253.597 177.236 251.733 177.58 249.85 177.635C248.257 177.69 246.662 177.618 245.08 177.421C239.296 176.646 233.654 175.015 228.33 172.579L230.06 166.45C235.176 167.07 240.329 167.323 245.48 167.206C246.619 167.145 247.755 167.019 248.88 166.828C249.728 166.701 250.552 166.439 251.32 166.052C251.56 165.919 251.69 165.786 251.66 165.755C251.63 165.725 251.79 165.623 251.88 165.531L252.22 165.214L252.89 164.571C253.79 163.753 254.64 162.763 255.52 161.864C257.25 159.964 258.97 158.013 260.6 155.939C262.23 153.865 263.88 151.782 265.48 149.637C267.08 147.492 268.63 145.316 270.19 143.14C271.75 140.964 273.27 138.676 274.71 136.562L285.31 143.528Z" fill="#FFC3BD"/>
<path d="M291.12 140.821C294.48 152.058 274.97 164.509 274.97 164.509L262.29 148.012C265.148 142.573 268.677 137.53 272.79 133.007C281.42 123.415 288.56 132.272 291.12 140.821Z" fill="url(#paint18_linear)"/>
<g opacity="0.3">
<path opacity="0.3" d="M291.12 140.821C294.48 152.058 274.97 164.509 274.97 164.509L262.29 148.012C265.148 142.573 268.677 137.53 272.79 133.007C281.42 123.415 288.56 132.272 291.12 140.821Z" fill="white"/>
</g>
<path d="M233 166.828L222.73 164.908L223.81 173.978C223.81 173.978 229.15 177.043 233.02 172.252L233 166.828Z" fill="#FFC3BD"/>
<path d="M218.77 166.951L220.99 173.498L223.79 173.978L222.71 164.908L218.77 166.951Z" fill="#FFC3BD"/>
<defs>
<linearGradient id="paint0_linear" x1="378.047" y1="155.758" x2="378.047" y2="345.363" gradientUnits="userSpaceOnUse">
<stop stop-color="#4070FF"/>
<stop offset="1" stop-color="#365FD9"/>
</linearGradient>
<linearGradient id="paint1_linear" x1="443.89" y1="405.434" x2="443.89" y2="428.56" gradientUnits="userSpaceOnUse">
<stop stop-color="#4070FF"/>
<stop offset="1" stop-color="#365FD9"/>
</linearGradient>
<linearGradient id="paint2_linear" x1="254.55" y1="337.782" x2="254.55" y2="412.125" gradientUnits="userSpaceOnUse">
<stop stop-color="#4070FF"/>
<stop offset="1" stop-color="#365FD9"/>
</linearGradient>
<linearGradient id="paint3_linear" x1="217" y1="320.263" x2="217" y2="337.782" gradientUnits="userSpaceOnUse">
<stop stop-color="#4070FF"/>
<stop offset="1" stop-color="#365FD9"/>
</linearGradient>
<linearGradient id="paint4_linear" x1="266.245" y1="326.362" x2="266.245" y2="337.782" gradientUnits="userSpaceOnUse">
<stop stop-color="#4070FF"/>
<stop offset="1" stop-color="#365FD9"/>
</linearGradient>
<linearGradient id="paint5_linear" x1="157.72" y1="222.59" x2="157.72" y2="236.441" gradientUnits="userSpaceOnUse">
<stop stop-color="#4070FF"/>
<stop offset="1" stop-color="#365FD9"/>
</linearGradient>
<linearGradient id="paint6_linear" x1="166.09" y1="239.393" x2="166.09" y2="243.622" gradientUnits="userSpaceOnUse">
<stop stop-color="#4070FF"/>
<stop offset="1" stop-color="#365FD9"/>
</linearGradient>
<linearGradient id="paint7_linear" x1="267.75" y1="143.753" x2="267.75" y2="274.321" gradientUnits="userSpaceOnUse">
<stop stop-color="#4070FF"/>
<stop offset="1" stop-color="#365FD9"/>
</linearGradient>
<linearGradient id="paint8_linear" x1="284.47" y1="202.6" x2="284.47" y2="258.536" gradientUnits="userSpaceOnUse">
<stop stop-color="#4070FF"/>
<stop offset="1" stop-color="#365FD9"/>
</linearGradient>
<linearGradient id="paint9_linear" x1="196.81" y1="142.895" x2="196.81" y2="198.841" gradientUnits="userSpaceOnUse">
<stop stop-color="#4070FF"/>
<stop offset="1" stop-color="#365FD9"/>
</linearGradient>
<linearGradient id="paint10_linear" x1="357.202" y1="396.031" x2="357.202" y2="398.009" gradientUnits="userSpaceOnUse">
<stop stop-color="#4070FF"/>
<stop offset="1" stop-color="#365FD9"/>
</linearGradient>
<linearGradient id="paint11_linear" x1="357.21" y1="393.663" x2="357.21" y2="396.902" gradientUnits="userSpaceOnUse">
<stop stop-color="#4070FF"/>
<stop offset="1" stop-color="#365FD9"/>
</linearGradient>
<linearGradient id="paint12_linear" x1="299.188" y1="406.676" x2="299.188" y2="408.733" gradientUnits="userSpaceOnUse">
<stop stop-color="#4070FF"/>
<stop offset="1" stop-color="#365FD9"/>
</linearGradient>
<linearGradient id="paint13_linear" x1="299.202" y1="404.659" x2="299.202" y2="408.501" gradientUnits="userSpaceOnUse">
<stop stop-color="#4070FF"/>
<stop offset="1" stop-color="#365FD9"/>
</linearGradient>
<linearGradient id="paint14_linear" x1="338.16" y1="121.866" x2="338.16" y2="150.638" gradientUnits="userSpaceOnUse">
<stop stop-color="#4070FF"/>
<stop offset="1" stop-color="#365FD9"/>
</linearGradient>
<linearGradient id="paint15_linear" x1="332.19" y1="121.767" x2="332.19" y2="202.099" gradientUnits="userSpaceOnUse">
<stop stop-color="#4070FF"/>
<stop offset="1" stop-color="#365FD9"/>
</linearGradient>
<linearGradient id="paint16_linear" x1="365.47" y1="377.108" x2="365.47" y2="387.517" gradientUnits="userSpaceOnUse">
<stop stop-color="#4070FF"/>
<stop offset="1" stop-color="#365FD9"/>
</linearGradient>
<linearGradient id="paint17_linear" x1="312.06" y1="391.021" x2="312.06" y2="397.007" gradientUnits="userSpaceOnUse">
<stop stop-color="#4070FF"/>
<stop offset="1" stop-color="#365FD9"/>
</linearGradient>
<linearGradient id="paint18_linear" x1="291.509" y1="128.846" x2="291.509" y2="164.509" gradientUnits="userSpaceOnUse">
<stop stop-color="#4070FF"/>
<stop offset="1" stop-color="#365FD9"/>
</linearGradient>
</defs>
</svg>
