<svg width="500" height="500" viewBox="0 0 500 500" fill="none" xmlns="http://www.w3.org/2000/svg">
<path opacity="0.1" d="M59.616 268.578C62.7775 278.333 67.6894 287.431 74.1111 295.426C84.2252 307.715 99.1097 316.585 115.011 317.245C136.17 318.121 155.511 304.772 169.378 288.763C194.15 260.151 213.913 208.402 259.042 209.375C282.418 209.884 302.668 225.212 319.846 239.545C344.726 260.324 379.882 287.865 413.512 269.551C442.048 254.007 451.859 214.503 442.719 184.939C429.738 142.838 394.68 104.751 358.031 81.3966C326.098 61.0494 286.475 52.4713 248.496 53.1636C195.891 54.1156 142.757 72.5698 104.756 108.937C67.664 144.439 45.8024 200.938 55.3216 252.071C56.3521 257.67 57.7873 263.187 59.616 268.578Z" fill="url(#paint0_linear)"/>
<path opacity="0.1" d="M250 442.259C365.833 442.259 459.735 436.777 459.735 430.014C459.735 423.251 365.833 417.769 250 417.769C134.166 417.769 40.2644 423.251 40.2644 430.014C40.2644 436.777 134.166 442.259 250 442.259Z" fill="url(#paint1_linear)"/>
<path d="M332.915 170.92L329.345 166.052C329.452 165.471 329.417 164.873 329.244 164.308C329.071 163.743 328.764 163.228 328.35 162.807C326.922 161.184 317.652 162.039 316.224 162.18C314.796 162.32 312.438 168.01 313.833 169.665C315.228 171.32 324.142 171.601 324.964 170.887L327.777 174.803L332.915 170.92Z" fill="#9F5B53"/>
<path d="M386.611 158.837C386.329 154.943 388.774 153.429 391.889 154.759C395.005 156.09 397.698 151.514 401.852 152.596C406.006 153.677 404.729 157.82 406.871 158.837C409.013 159.854 411.425 158.632 412.356 163.845C413.286 169.059 409.868 166.355 411.371 170.92C412.875 175.485 417.353 176.772 413.535 180.655C409.716 184.539 407.12 186.064 410.116 189.309C413.113 192.554 409.868 195.67 408.494 196.741C407.12 197.812 414.454 204.01 412.388 209.57C410.322 215.13 393.09 220.268 382.457 216.212C371.823 212.155 368.87 206.011 369.476 199.023C370.082 192.035 375.242 190.185 374.885 188C374.528 185.815 371.131 183.901 373.057 180.688C374.982 177.475 380.326 177.194 378.617 174.122C376.908 171.05 377.124 167.632 379.049 166.128C380.975 164.624 382.77 165.046 382.413 161.963C382.057 158.88 386.611 158.837 386.611 158.837Z" fill="#263238"/>
<path d="M377.298 192.544C377.298 192.544 352.884 192.76 348.319 187.135C343.754 181.51 332.212 168.097 332.212 168.097L325.722 172.142C325.722 172.142 337.08 197.509 344.209 203.08C351.337 208.65 372.561 209.797 372.561 209.797L377.298 192.544Z" fill="url(#paint2_linear)"/>
<path opacity="0.3" d="M377.298 192.544C377.298 192.544 352.884 192.76 348.319 187.135C343.754 181.51 332.212 168.097 332.212 168.097L325.722 172.142C325.722 172.142 337.08 197.509 344.209 203.08C351.337 208.65 372.561 209.797 372.561 209.797L377.298 192.544Z" fill="white"/>
<path d="M335.63 416.363L342.121 417.509L344.782 408.661L347.205 400.548L339.73 397.93L337.556 407.687L335.63 416.363Z" fill="#E4897B"/>
<path d="M343.581 417.336C343.689 416.612 334.808 415.627 334.808 415.627C334.808 415.627 328.426 420.171 322.963 420.473C317.5 420.776 319.869 424.454 325.743 425.493L340.26 428.056C344.425 428.792 342.445 424.779 343.581 417.336Z" fill="url(#paint3_linear)"/>
<path d="M329.054 416.709C328.943 416.573 328.879 416.406 328.869 416.231C328.859 416.056 328.905 415.883 328.999 415.735C329.055 415.616 329.135 415.509 329.233 415.422C329.332 415.334 329.448 415.268 329.573 415.227C330.242 415.081 330.94 415.126 331.585 415.357C330.936 414.848 330.395 414.275 330.449 413.81C330.449 413.507 330.719 413.291 331.152 413.172C331.344 413.115 331.546 413.101 331.745 413.131C331.943 413.161 332.132 413.234 332.299 413.345C333.38 414.048 333.781 416.222 333.791 416.32C333.802 416.355 333.802 416.392 333.791 416.428V416.482C333.787 416.496 333.78 416.509 333.771 416.52C333.762 416.531 333.75 416.54 333.737 416.547H333.662C332.622 416.845 331.551 417.019 330.471 417.066C330.223 417.105 329.969 417.094 329.726 417.032C329.482 416.971 329.253 416.861 329.054 416.709ZM329.735 415.627C329.669 415.647 329.608 415.68 329.556 415.725C329.504 415.769 329.461 415.825 329.432 415.887C329.281 416.211 329.378 416.33 329.432 416.363C329.778 416.774 331.477 416.579 332.872 416.255C331.898 415.908 330.427 415.411 329.735 415.692V415.627ZM331.282 413.583C331.152 413.583 330.925 413.702 330.914 413.821C330.914 414.221 331.996 415.13 333.218 415.854C333.069 415.025 332.655 414.266 332.039 413.691C331.894 413.597 331.725 413.548 331.552 413.55C331.459 413.564 331.369 413.59 331.282 413.626V413.583Z" fill="#263238"/>
<path opacity="0.2" d="M337.524 407.893L344.75 408.845L347.194 400.635L339.72 397.974L337.524 407.893Z" fill="black"/>
<path d="M378.932 419.143H385.519L386.601 409.97L387.575 401.554L379.754 400.278L379.321 410.262L378.932 419.143Z" fill="#E4897B"/>
<path d="M386.925 418.721C386.925 417.996 377.99 418.559 377.99 418.559C377.99 418.559 372.506 424.14 367.173 425.395C361.84 426.65 364.815 429.852 370.775 429.852H385.519C389.749 429.852 387.109 426.239 386.925 418.721Z" fill="url(#paint4_linear)"/>
<path d="M372.506 420.625C372.379 420.508 372.291 420.356 372.252 420.188C372.213 420.02 372.226 419.844 372.289 419.684C372.322 419.555 372.381 419.435 372.463 419.331C372.545 419.226 372.648 419.14 372.765 419.078C373.399 418.821 374.092 418.746 374.767 418.862C374.042 418.472 373.414 417.996 373.382 417.531C373.382 417.228 373.566 416.969 373.966 416.785C374.147 416.699 374.345 416.655 374.545 416.655C374.745 416.655 374.943 416.699 375.124 416.785C376.335 417.282 377.082 419.37 377.114 419.457C377.128 419.485 377.135 419.517 377.135 419.549C377.135 419.58 377.128 419.612 377.114 419.64L377.038 419.705C375.876 420.274 374.624 420.639 373.339 420.787C373.051 420.838 372.754 420.78 372.506 420.625ZM373.003 419.478C372.88 419.546 372.787 419.658 372.744 419.792C372.657 420.149 372.744 420.235 372.809 420.268C373.231 420.614 374.864 420.116 376.173 419.565C375.145 419.242 374.047 419.212 373.003 419.478ZM374.172 417.207C374.053 417.261 373.847 417.38 373.847 417.499C373.847 417.91 375.156 418.58 376.476 419.1C376.18 418.314 375.642 417.644 374.94 417.185C374.828 417.134 374.706 417.108 374.583 417.109C374.44 417.11 374.3 417.144 374.172 417.207Z" fill="#263238"/>
<path opacity="0.2" d="M379.321 410.467L386.601 410.154L387.575 401.641L379.754 400.332L379.321 410.467Z" fill="black"/>
<path d="M336.906 402.711L347.572 404.594C358.324 377.778 365.961 355.408 371.37 336.835C374.28 326.818 376.541 317.915 378.293 310.008L377.806 339.214V405.502H388.623C414.953 279.903 396.293 251.195 396.293 251.195L364.782 245.786C363.537 251.603 362.655 257.491 362.143 263.418L360.726 273.846L348.437 337.462L336.906 402.711Z" fill="#263238"/>
<path opacity="0.2" d="M336.906 402.711L347.572 404.594C358.324 377.778 365.961 355.408 371.37 336.835C374.28 326.818 376.541 317.915 378.293 310.008L377.806 339.214V405.502H388.623C414.953 279.903 396.293 251.195 396.293 251.195L364.782 245.786C363.537 251.603 362.655 257.491 362.143 263.418L360.726 273.846L348.437 337.462L336.906 402.711Z" fill="white"/>
<path d="M349.238 403.306L336.02 398.925L336.193 404.54L347.129 408.034L349.238 403.306Z" fill="#263238"/>
<path d="M390.062 403.912L376.281 401.9L377.427 407.406L388.807 408.942L390.062 403.912Z" fill="#263238"/>
<path d="M396.325 246.489V251.195L364.187 248.728V243.168L396.325 246.489Z" fill="#263238"/>
<path d="M371.156 249.617L378.181 250.246L378.659 244.913L371.634 244.284L371.156 249.617Z" fill="white"/>
<path d="M385.117 252.638L386.716 252.719L387.13 244.606L385.531 244.525L385.117 252.638Z" fill="#263238"/>
<path opacity="0.2" d="M385.117 252.638L386.716 252.719L387.13 244.606L385.531 244.525L385.117 252.638Z" fill="white"/>
<path d="M365.467 250.487L367.066 250.568L367.479 242.455L365.881 242.374L365.467 250.487Z" fill="#263238"/>
<path opacity="0.2" d="M365.467 250.487L367.066 250.568L367.479 242.455L365.881 242.374L365.467 250.487Z" fill="white"/>
<path d="M412.356 201.219C411.383 203.199 410.496 205.081 409.673 206.855C408.97 208.348 408.321 209.765 407.705 211.117L406.623 213.41C406.363 213.994 406.104 214.578 405.866 215.141C405.011 217.077 404.254 218.884 403.573 220.549C403.172 221.545 402.804 222.507 402.491 223.438L402.015 224.714C401.279 226.672 400.663 228.489 400.122 230.209C399.657 231.702 399.246 233.13 398.867 234.536C398.369 236.429 397.948 238.268 397.558 240.139C397.255 241.578 396.974 243.038 396.693 244.553C396.563 245.191 396.444 245.84 396.325 246.5L364.187 243.157C364.295 241.351 364.414 239.599 364.544 237.89C364.652 236.375 364.76 234.904 364.879 233.476C365.052 231.442 365.225 229.495 365.399 227.624C365.55 226.11 365.701 224.649 365.853 223.243C366.069 221.188 366.296 219.251 366.524 217.412C366.707 215.876 366.902 214.427 367.086 213.086C367.378 210.922 367.67 209.029 367.941 207.288C368.211 205.546 368.449 204.237 368.676 202.961C368.972 201.36 369.231 200.029 369.455 198.969C370.872 192.479 371.911 192.338 371.911 192.338C371.911 192.338 379.136 192.49 385.335 193.268H385.497C389.686 193.916 393.83 194.826 397.904 195.994C398.434 196.135 398.986 196.286 399.473 196.449C403.878 197.723 408.183 199.318 412.356 201.219Z" fill="url(#paint5_linear)"/>
<path opacity="0.6" d="M412.356 201.219C411.383 203.199 410.496 205.081 409.673 206.855C408.97 208.348 408.321 209.765 407.705 211.117L406.623 213.41C406.363 213.994 406.104 214.578 405.866 215.141C405.011 217.077 404.254 218.884 403.573 220.549C403.172 221.545 402.804 222.507 402.491 223.438L402.015 224.714C401.279 226.672 400.663 228.489 400.122 230.209C399.657 231.702 399.246 233.13 398.867 234.536C398.369 236.429 397.948 238.268 397.558 240.139C397.255 241.578 396.974 243.038 396.693 244.553C396.563 245.191 396.444 245.84 396.325 246.5L364.187 243.157C364.295 241.351 364.414 239.599 364.544 237.89C364.652 236.375 364.76 234.904 364.879 233.476C365.052 231.442 365.225 229.495 365.399 227.624C365.55 226.11 365.701 224.649 365.853 223.243C366.069 221.188 366.296 219.251 366.524 217.412C366.707 215.876 366.902 214.427 367.086 213.086C367.378 210.922 367.67 209.029 367.941 207.288C368.211 205.546 368.449 204.237 368.676 202.961C368.972 201.36 369.231 200.029 369.455 198.969C370.872 192.479 371.911 192.338 371.911 192.338C371.911 192.338 379.136 192.49 385.335 193.268H385.497C389.686 193.916 393.83 194.826 397.904 195.994C398.434 196.135 398.986 196.286 399.473 196.449C403.878 197.723 408.183 199.318 412.356 201.219Z" fill="white"/>
<path opacity="0.2" d="M371.392 336.867C374.302 326.85 376.563 317.948 378.315 310.04C378.162 300.681 377.479 291.338 376.27 282.056C376.27 282.056 371.662 318.142 371.392 336.867Z" fill="black"/>
<path d="M388.277 193.128C384.48 192.576 382.144 194.74 383.896 198.374C385.649 202.009 386.233 202.55 392.204 201.479C398.175 200.408 405.12 195.594 388.277 193.128Z" fill="url(#paint6_linear)"/>
<path d="M407.705 211.117L406.623 213.41C406.364 213.994 406.104 214.578 405.866 215.141C396.325 212.902 378.444 208.845 367.897 207.266C368.157 205.654 368.406 204.215 368.633 202.939C381.812 204.863 394.861 207.594 407.705 211.117Z" fill="url(#paint7_linear)"/>
<path d="M403.605 220.582C403.204 221.577 402.837 222.54 402.523 223.47L402.047 224.746C392.311 222.486 376.421 218.938 366.556 217.423C366.74 215.887 366.934 214.438 367.118 213.096C379.41 214.913 391.591 217.412 403.605 220.582Z" fill="url(#paint8_linear)"/>
<path d="M400.122 230.242C399.657 231.734 399.246 233.162 398.867 234.569C389.315 232.405 374.864 229.16 365.398 227.656C365.55 226.142 365.701 224.682 365.853 223.275C377.388 225.005 388.826 227.331 400.122 230.242Z" fill="url(#paint9_linear)"/>
<path d="M397.558 240.15C397.255 241.589 396.973 243.049 396.692 244.564C387.465 242.4 373.89 239.426 364.543 237.9C364.652 236.386 364.76 234.915 364.879 233.487C372.775 234.709 385.02 236.873 397.558 240.15Z" fill="url(#paint10_linear)"/>
<g opacity="0.3">
<path opacity="0.3" d="M388.277 193.128C384.48 192.576 382.144 194.74 383.896 198.374C385.649 202.009 386.233 202.55 392.204 201.479C398.175 200.408 405.12 195.594 388.277 193.128Z" fill="white"/>
<path opacity="0.3" d="M407.705 211.117L406.623 213.41C406.364 213.994 406.104 214.578 405.866 215.141C396.325 212.902 378.444 208.845 367.897 207.266C368.157 205.654 368.406 204.215 368.633 202.939C381.812 204.863 394.86 207.594 407.705 211.117Z" fill="white"/>
<path opacity="0.3" d="M403.605 220.582C403.204 221.577 402.837 222.54 402.523 223.47L402.047 224.747C392.311 222.486 376.421 218.938 366.556 217.423C366.74 215.887 366.934 214.438 367.118 213.096C379.41 214.913 391.591 217.412 403.605 220.582Z" fill="white"/>
<path opacity="0.3" d="M400.122 230.242C399.657 231.734 399.246 233.162 398.867 234.568C389.315 232.405 374.864 229.16 365.398 227.656C365.55 226.142 365.701 224.682 365.853 223.275C377.388 225.005 388.826 227.331 400.122 230.242Z" fill="white"/>
<path opacity="0.3" d="M397.558 240.15C397.255 241.589 396.973 243.049 396.692 244.564C387.465 242.4 373.89 239.425 364.543 237.9C364.652 236.386 364.76 234.915 364.879 233.487C372.775 234.709 385.02 236.873 397.558 240.15Z" fill="white"/>
</g>
<path d="M387.141 200.602C395.124 200.527 397.883 197.444 397.883 197.444C393.447 192.143 398.564 184.463 398.564 184.463L388.883 185.112C388.943 186.458 388.911 187.806 388.785 189.147C388.169 194.902 385.54 194.653 385.54 194.653C383.539 197.574 387.141 200.602 387.141 200.602Z" fill="#9F5B53"/>
<path opacity="0.2" d="M388.883 185.123C388.944 186.469 388.911 187.817 388.786 189.158C395.179 189.915 398.521 184.474 398.521 184.474L388.883 185.123Z" fill="black"/>
<path d="M397.245 159.324C389.067 157.907 385.681 161.823 383.604 170.141C381.03 180.547 382.057 188.433 392.68 187.968C407.088 187.276 410.831 161.639 397.245 159.324Z" fill="#9F5B53"/>
<path d="M388.981 170.552C388.11 171.657 387.111 172.656 386.006 173.527C386.187 173.906 386.468 174.228 386.819 174.458C387.17 174.689 387.577 174.82 387.996 174.836L388.981 170.552Z" fill="#892B29"/>
<path d="M394.097 170.758C393.967 171.428 394.216 172.034 394.659 172.131C395.103 172.229 395.579 171.742 395.741 171.05C395.903 170.357 395.622 169.773 395.179 169.687C394.735 169.6 394.227 170.141 394.097 170.758Z" fill="#263238"/>
<path d="M395.32 169.773L393.978 168.919C393.978 168.919 394.465 170.282 395.32 169.773Z" fill="#263238"/>
<path d="M385.812 168.973C385.671 169.633 385.931 170.249 386.374 170.336C386.818 170.422 387.293 169.957 387.456 169.254C387.618 168.551 387.337 167.978 386.893 167.88C386.45 167.783 385.941 168.302 385.812 168.973Z" fill="#263238"/>
<path d="M387.034 167.978L385.692 167.112C385.692 167.112 386.179 168.497 387.034 167.978Z" fill="#263238"/>
<path d="M395.157 165.122C395.817 165.157 396.461 165.343 397.039 165.665C397.616 165.988 398.112 166.438 398.489 166.982" stroke="#263238" stroke-width="0.72468" stroke-linecap="round" stroke-linejoin="round"/>
<path d="M389.283 163.748C388.748 163.508 388.165 163.393 387.579 163.409C386.992 163.426 386.418 163.575 385.897 163.845" stroke="#263238" stroke-width="0.72468" stroke-linecap="round" stroke-linejoin="round"/>
<path d="M388.634 178.254C388.86 179.244 389.011 180.249 389.088 181.261H389.629C392.052 181.434 393.231 180.72 393.804 179.866C394.221 179.194 394.389 178.398 394.28 177.616C392.737 178.174 391.091 178.392 389.456 178.254C388.948 178.286 388.634 178.254 388.634 178.254Z" fill="#263238"/>
<path d="M389.456 178.297L389.618 179.184C391.9 179.347 393.523 179.184 394.291 178.503C394.328 178.223 394.328 177.939 394.291 177.659C392.744 178.219 391.095 178.437 389.456 178.297Z" fill="white"/>
<path d="M389.629 181.305C392.052 181.478 393.231 180.764 393.804 179.909C392.883 179.859 391.96 179.972 391.078 180.244C390.495 180.435 389.987 180.806 389.629 181.305Z" fill="#DE5753"/>
<path d="M403.789 174.609C403.789 174.609 401.128 167.231 402.61 162.136C402.61 162.136 387.564 152.704 383.896 169.005C383.896 169.005 384.859 154.132 398.976 156.252C413.092 158.372 409.447 178.968 401.139 183.792C401.117 183.792 405.423 179.228 403.789 174.609Z" fill="#263238"/>
<path d="M402.145 176.101C402.389 175.169 402.993 174.371 403.824 173.882C404.655 173.394 405.646 173.254 406.58 173.495C409.068 174.219 409.37 179.628 402.848 179.779C401.907 179.801 401.55 178.795 402.145 176.101Z" fill="#9F5B53"/>
<path d="M415.644 230.252L405.909 227.256C405.909 227.256 406.125 225.233 405.032 224.746C403.94 224.26 389.996 222.832 389.629 224.119C389.261 225.406 390.018 233.422 392.203 234.547C394.388 235.672 403.951 236.105 404.232 235.629C404.513 235.153 405.032 234.547 405.032 234.547L415.027 237.63L415.644 230.252Z" fill="#9F5B53"/>
<path d="M412.356 201.219C420.068 204.724 436.9 235.272 434.336 242.249C431.773 249.226 410.657 238.16 410.657 238.16L412.356 227.689L417.18 228.9C417.18 228.9 411.144 219.003 405.909 215.141C405.958 212.451 406.57 209.802 407.704 207.363C408.935 205.092 410.504 203.02 412.356 201.219Z" fill="url(#paint11_linear)"/>
<path opacity="0.3" d="M412.356 201.219C420.068 204.724 436.9 235.272 434.336 242.249C431.773 249.226 410.657 238.16 410.657 238.16L412.356 227.689L417.18 228.9C417.18 228.9 411.144 219.003 405.909 215.141C405.958 212.451 406.57 209.802 407.704 207.363C408.935 205.092 410.504 203.02 412.356 201.219Z" fill="white"/>
<path d="M178.811 128.7L183.441 100.911C180.953 98.4446 186.686 84.3389 186.686 82.8137C186.686 81.2885 195.404 87.8004 195.556 89.1958C195.707 90.5913 193.392 100.521 190.785 101.949L189.422 131.621C189.422 131.621 183.906 133.958 178.811 128.7Z" fill="#E4897B"/>
<path d="M136.992 150.93C136.992 150.93 165.776 149.675 171.304 145.673C176.832 141.67 180.65 107.336 180.65 107.336L194.712 108.721C194.712 108.721 190.959 146.765 183.592 156.317C176.226 165.868 147.236 170.444 147.236 170.444L136.992 150.93Z" fill="#263238"/>
<path opacity="0.2" d="M194.735 108.721C194.735 108.721 190.981 146.765 183.615 156.317C179.947 161.055 170.883 164.592 162.727 166.939C157.631 168.388 152.46 169.558 147.236 170.444L141.655 159.789L137.003 150.93C137.003 150.93 165.788 149.675 171.315 145.673C176.843 141.67 180.661 107.336 180.661 107.336L194.735 108.721Z" fill="white"/>
<path opacity="0.2" d="M162.727 166.896C157.631 168.36 152.46 169.544 147.236 170.444L141.655 159.789C147.236 160.276 159.005 161.877 162.727 166.896Z" fill="black"/>
<path d="M71.364 185.285L56.4903 161.314C57.8533 158.069 59.8437 147.068 59.2054 145.673C58.5672 144.277 48.1502 141.173 47.7175 142.481C46.4303 145.965 47.1118 164.765 50.1082 165.089L62.7102 192.035C62.7102 192.035 68.6489 192.1 71.364 185.285Z" fill="#E4897B"/>
<path d="M142.099 421.793L150.882 422.723L152.526 403.793L143.754 402.863L142.099 421.793Z" fill="#E4897B"/>
<path d="M98.3103 421.155H106.813L107.516 401.457H99.0026L98.3103 421.155Z" fill="#E4897B"/>
<path d="M107.991 420.171H97.6609C97.4913 420.169 97.3265 420.227 97.1944 420.333C97.0623 420.44 96.9711 420.589 96.9362 420.755L95.2595 428.327C95.1924 428.652 95.2572 428.991 95.4397 429.269C95.6222 429.547 95.9076 429.741 96.2331 429.809C96.3229 429.819 96.4137 429.819 96.5035 429.809C99.846 429.754 102.28 429.549 106.477 429.549C109.062 429.549 116.862 429.819 120.431 429.819C124.001 429.819 124.466 426.293 123.006 425.968C116.45 424.541 111.518 422.561 109.419 420.679C109.026 420.333 108.515 420.151 107.991 420.171Z" fill="#263238"/>
<path d="M108.575 421.35C108.535 421.339 108.5 421.317 108.473 421.286C108.446 421.255 108.429 421.217 108.424 421.176C108.418 421.138 108.425 421.099 108.442 421.064C108.46 421.03 108.487 421.001 108.521 420.982C108.824 420.787 111.571 419.1 112.512 419.586C112.619 419.635 112.709 419.715 112.771 419.815C112.832 419.915 112.863 420.031 112.859 420.149C112.89 420.35 112.867 420.556 112.793 420.746C112.719 420.936 112.596 421.103 112.437 421.231C111.957 421.556 111.381 421.709 110.803 421.663C110.051 421.639 109.304 421.534 108.575 421.35ZM109.159 421.068C110.151 421.403 111.234 421.349 112.188 420.917C112.29 420.828 112.368 420.715 112.415 420.589C112.462 420.462 112.477 420.326 112.458 420.192C112.458 420.03 112.383 419.954 112.328 419.954C112.25 419.909 112.159 419.89 112.069 419.9C111.03 420.108 110.042 420.516 109.159 421.101V421.068Z" fill="url(#paint12_linear)"/>
<path d="M108.521 421.393C108.492 421.372 108.468 421.344 108.451 421.312C108.434 421.28 108.425 421.245 108.424 421.209C108.424 421.09 108.64 418.645 109.624 417.845C109.74 417.743 109.876 417.668 110.024 417.623C110.171 417.578 110.326 417.565 110.479 417.585C110.633 417.58 110.783 417.631 110.903 417.729C111.022 417.826 111.102 417.964 111.128 418.115C111.301 419.013 109.603 420.884 108.726 421.36H108.629C108.597 421.382 108.56 421.394 108.521 421.393ZM109.884 418.083C109.289 418.849 108.938 419.776 108.878 420.744C109.754 420.084 110.836 418.667 110.728 418.115C110.728 418.061 110.728 417.91 110.436 417.91H110.338C110.171 417.913 110.011 417.975 109.884 418.083Z" fill="url(#paint13_linear)"/>
<path d="M151.801 419.9H141.471C141.301 419.899 141.136 419.956 141.004 420.063C140.872 420.169 140.781 420.318 140.746 420.484L139.069 428.056C139.002 428.382 139.067 428.721 139.25 428.999C139.432 429.276 139.717 429.47 140.043 429.538C140.133 429.549 140.223 429.549 140.313 429.538C143.656 429.484 146.09 429.279 150.287 429.279C152.872 429.279 160.671 429.549 164.241 429.549C167.811 429.549 168.276 426.023 166.816 425.698C160.26 424.27 155.328 422.291 153.229 420.408C152.836 420.062 152.325 419.88 151.801 419.9Z" fill="#263238"/>
<path d="M152.385 421.101C152.345 421.09 152.309 421.068 152.282 421.037C152.255 421.007 152.238 420.968 152.233 420.928C152.228 420.889 152.235 420.85 152.252 420.815C152.269 420.781 152.297 420.752 152.33 420.733C152.633 420.538 155.381 418.851 156.322 419.338C156.429 419.387 156.519 419.466 156.58 419.566C156.642 419.667 156.672 419.783 156.668 419.9C156.699 420.102 156.677 420.308 156.603 420.498C156.529 420.688 156.406 420.855 156.246 420.982C155.767 421.307 155.191 421.46 154.613 421.414C153.861 421.391 153.114 421.285 152.385 421.101ZM152.969 420.82C153.961 421.155 155.044 421.101 155.997 420.668C156.099 420.579 156.177 420.467 156.225 420.34C156.272 420.214 156.287 420.077 156.268 419.943C156.268 419.781 156.192 419.705 156.138 419.705C156.06 419.66 155.969 419.641 155.878 419.651C154.844 419.843 153.856 420.232 152.969 420.798V420.82Z" fill="url(#paint14_linear)"/>
<path d="M152.331 421.101C152.301 421.079 152.278 421.052 152.261 421.02C152.244 420.988 152.234 420.953 152.233 420.917C152.233 420.798 152.449 418.353 153.434 417.553C153.55 417.451 153.686 417.375 153.833 417.331C153.98 417.286 154.136 417.273 154.288 417.293C154.442 417.288 154.593 417.339 154.712 417.437C154.831 417.534 154.911 417.671 154.937 417.823C155.11 418.721 153.412 420.592 152.536 421.068H152.439C152.407 421.09 152.369 421.102 152.331 421.101ZM153.726 417.856C153.131 418.621 152.78 419.549 152.72 420.517C153.596 419.857 154.678 418.44 154.57 417.888C154.57 417.834 154.57 417.682 154.278 417.682H154.18C154.013 417.686 153.853 417.747 153.726 417.856Z" fill="url(#paint15_linear)"/>
<path opacity="0.2" d="M143.753 402.863L152.526 403.793L151.671 413.55L142.887 412.631L143.753 402.863Z" fill="black"/>
<path opacity="0.2" d="M99.0018 401.467H107.515L107.147 411.625H98.634L99.0018 401.467Z" fill="black"/>
<path d="M102.518 228.673H147.648C151.975 252.103 165.377 335.039 155.739 408.921L140.454 407.038C140.454 407.038 141.871 308.948 128.382 272.688C126.835 292.094 124.986 312.712 123.385 323.735C119.458 350.778 111.053 409.872 111.053 409.872H95.4978C95.4978 409.872 98.6781 353.309 100.149 326.731C101.804 297.86 102.453 234.601 102.518 228.673Z" fill="url(#paint16_linear)"/>
<path d="M157.48 412.479L138.571 409.667L139.155 404.431L158.821 407.017L157.48 412.479Z" fill="url(#paint17_linear)"/>
<path d="M112.924 409.991H94.5784V404.507L113.617 404.15L112.924 409.991Z" fill="url(#paint18_linear)"/>
<path opacity="0.2" d="M128.382 272.678C130.6 279.017 132.286 285.53 133.423 292.149C134.689 274.841 129.637 256.56 129.637 256.56L128.382 272.678Z" fill="black"/>
<path d="M94.6973 154.586C97.1964 163.766 99.0043 173.12 100.106 182.57C100.463 185.469 100.755 188.314 100.993 191.072C101.307 194.577 101.523 197.952 101.696 201.154C101.912 205.211 101.977 210.003 101.966 214.719C101.966 225.536 101.512 235.975 101.512 235.975C110.166 238.138 135.175 236.699 148.837 235.704C150.447 222.641 150.867 209.458 150.092 196.319C149.641 187.642 148.687 178.999 147.237 170.433C146.503 165.86 145.484 161.337 144.186 156.89C143.684 155.314 142.74 153.915 141.467 152.859C140.194 151.802 138.645 151.133 137.003 150.93C135.348 150.724 133.434 150.519 131.422 150.4C130.643 150.4 129.864 150.324 129.074 150.313C122.621 150.387 116.178 150.835 109.776 151.655C108.565 151.795 107.332 151.979 106.142 152.174C102.287 152.776 98.467 153.581 94.6973 154.586Z" fill="#263238"/>
<path opacity="0.7" d="M148.837 235.715C135.174 236.71 110.165 238.149 101.511 235.986C101.511 235.986 101.944 225.569 101.966 214.73C101.966 210.013 101.911 205.221 101.695 201.165C101.522 197.92 101.306 194.588 100.992 191.083C100.754 188.325 100.462 185.48 100.105 182.581C100.018 181.802 99.9211 181.012 99.8129 180.234C99.4992 177.735 99.1206 175.247 98.7312 172.77V172.705L102.939 166.647L111.301 154.597C111.301 154.597 125.212 160.222 130.988 152.195C136.727 156.483 141.953 161.415 146.565 166.896C146.792 167.978 147.008 169.211 147.225 170.455C148.679 179.021 149.636 187.664 150.091 196.34C150.865 209.476 150.445 222.655 148.837 235.715Z" fill="white"/>
<path d="M116.721 168.778C124.062 168.584 131.408 168.804 138.723 169.438C139.574 169.536 140.359 169.945 140.928 170.586C141.497 171.226 141.809 172.054 141.806 172.91C141.808 173.37 141.718 173.825 141.543 174.249C141.368 174.674 141.111 175.059 140.786 175.384C140.461 175.709 140.076 175.966 139.651 176.141C139.227 176.316 138.772 176.406 138.312 176.404H116.819C115.923 176.406 115.061 176.063 114.411 175.447C113.761 174.831 113.372 173.989 113.325 173.094V172.456C113.298 171.99 113.366 171.523 113.524 171.083C113.682 170.644 113.927 170.24 114.243 169.897C114.56 169.554 114.943 169.278 115.369 169.086C115.794 168.894 116.254 168.789 116.721 168.778Z" fill="#263238"/>
<path opacity="0.2" d="M94.6973 154.586C97.1964 163.766 99.0043 173.12 100.106 182.57C100.463 185.469 100.755 188.314 100.993 191.072C101.307 194.577 101.523 197.952 101.696 201.154C101.912 205.211 101.977 210.003 101.966 214.719C101.966 225.536 101.512 235.975 101.512 235.975C110.166 238.138 135.175 236.699 148.837 235.704C150.447 222.641 150.867 209.458 150.092 196.319C149.641 187.642 148.687 178.999 147.237 170.433C146.503 165.86 145.484 161.337 144.186 156.89C143.684 155.314 142.74 153.915 141.467 152.859C140.194 151.802 138.645 151.133 137.003 150.93C135.348 150.724 133.434 150.519 131.422 150.4C130.643 150.4 129.864 150.324 129.074 150.313C122.621 150.387 116.178 150.835 109.776 151.655C108.565 151.795 107.332 151.979 106.142 152.174C102.287 152.776 98.467 153.581 94.6973 154.586Z" fill="white"/>
<path d="M132.806 112.691C132.806 112.691 135.478 122.069 129.885 127.337C124.293 132.605 121.491 110.971 121.491 110.971L132.806 112.691Z" fill="#263238"/>
<path d="M109.754 151.6C113.897 155.365 124.054 153.969 124.054 153.969C124.054 153.969 130.382 152.239 129.052 150.259C125.32 149.643 123.513 147.901 122.767 145.673C122.358 144.291 122.23 142.842 122.388 141.411C122.45 140.612 122.555 139.818 122.702 139.031L110.154 129.739C111.798 135.872 113.81 147.155 109.754 151.6Z" fill="#E4897B"/>
<path opacity="0.2" d="M113.053 135.645C113.551 143.217 119.739 145.251 122.789 145.673C122.38 144.291 122.252 142.842 122.41 141.411L113.053 135.645Z" fill="black"/>
<path d="M113.184 138.901C114.726 140.646 116.799 141.837 119.083 142.291C121.368 142.744 123.738 142.435 125.829 141.411C128.555 140.135 130.697 137.874 131.822 135.082C131.974 134.704 132.114 134.304 132.233 133.893C134.397 126.396 133.694 113.848 125.581 110.17C122.806 108.891 119.638 108.766 116.771 109.823C113.905 110.88 111.576 113.032 110.296 115.806C109.523 117.444 109.152 119.243 109.214 121.052C109.376 129.479 109.095 134.444 113.184 138.901Z" fill="#E4897B"/>
<path d="M121.913 123.919C121.838 124.601 122.227 125.174 122.681 125.185C123.136 125.196 123.514 124.655 123.547 123.973C123.579 123.292 123.222 122.718 122.779 122.708C122.335 122.697 121.946 123.227 121.913 123.919Z" fill="#263238"/>
<path d="M129.669 124.222C129.594 124.904 129.983 125.477 130.427 125.498C130.87 125.52 131.26 124.968 131.292 124.287C131.324 123.605 130.967 123.032 130.524 123.01C130.08 122.989 129.691 123.627 129.669 124.222Z" fill="#263238"/>
<path d="M127.191 124.471C127.921 126.6 128.944 128.617 130.231 130.464C129.745 130.778 129.196 130.984 128.623 131.066C128.049 131.148 127.465 131.105 126.91 130.94L127.191 124.471Z" fill="#DE5753"/>
<path d="M119.61 121.312C119.683 121.329 119.759 121.324 119.83 121.299C119.901 121.274 119.963 121.23 120.01 121.172C120.321 120.774 120.721 120.455 121.177 120.239C121.633 120.023 122.134 119.916 122.638 119.928C122.691 119.934 122.744 119.929 122.795 119.914C122.846 119.9 122.894 119.875 122.935 119.842C122.976 119.809 123.01 119.767 123.036 119.721C123.061 119.674 123.077 119.623 123.082 119.571C123.091 119.465 123.059 119.36 122.993 119.277C122.926 119.194 122.83 119.141 122.725 119.127C122.087 119.099 121.452 119.224 120.873 119.491C120.293 119.758 119.786 120.16 119.393 120.663C119.319 120.738 119.278 120.839 119.278 120.944C119.278 121.05 119.319 121.151 119.393 121.226C119.46 121.267 119.533 121.297 119.61 121.312Z" fill="#263238"/>
<path d="M133.097 121.691C133.175 121.717 133.258 121.717 133.335 121.691C133.384 121.672 133.429 121.643 133.467 121.606C133.504 121.57 133.534 121.526 133.554 121.477C133.575 121.429 133.585 121.377 133.584 121.324C133.584 121.272 133.573 121.22 133.552 121.172C133.31 120.579 132.929 120.054 132.441 119.64C131.954 119.226 131.374 118.935 130.75 118.792C130.645 118.779 130.538 118.806 130.452 118.868C130.366 118.93 130.306 119.023 130.285 119.127C130.272 119.231 130.3 119.336 130.362 119.421C130.425 119.505 130.517 119.563 130.62 119.581C131.105 119.713 131.553 119.955 131.929 120.289C132.304 120.624 132.597 121.04 132.784 121.507C132.818 121.56 132.864 121.605 132.918 121.636C132.973 121.668 133.034 121.687 133.097 121.691Z" fill="#263238"/>
<path d="M119.781 106.125C118.775 106.125 117.769 106.125 116.763 106.201C113.855 106.31 111.042 107.269 108.672 108.959C103.372 113.102 105.492 121.68 106.963 127.229C108.921 134.607 112.372 137.625 112.372 137.625C110.122 134.282 109.754 127.24 110.89 126.905C112.025 126.569 112.112 127.932 112.112 127.932C114.492 125.974 116.223 121.117 115 118.013C114.07 115.622 116.59 113.437 119.067 114.303L119.814 114.551L120.971 114.919L119.781 106.125Z" fill="#263238"/>
<path d="M105.287 127.813C106.144 129.754 107.735 131.275 109.712 132.043C112.34 133.038 113.909 130.756 113.4 128.138C112.924 125.812 110.999 122.426 108.251 122.567C105.504 122.708 104.26 125.412 105.287 127.813Z" fill="#E4897B"/>
<path d="M125.731 132.616C125.2 133.478 124.734 134.379 124.336 135.31C124.152 135.31 123.979 135.234 123.806 135.18C121.458 134.563 120.561 133.503 120.301 132.519C120.187 132.031 120.187 131.524 120.301 131.037C120.354 130.757 120.449 130.488 120.582 130.236C121.853 131.258 123.329 131.996 124.909 132.4C125.418 132.54 125.731 132.616 125.731 132.616Z" fill="#263238"/>
<path d="M124.932 132.389L124.499 133.179C122.336 132.594 120.81 131.891 120.291 131.015C120.344 130.736 120.439 130.466 120.573 130.215C121.852 131.245 123.339 131.986 124.932 132.389Z" fill="white"/>
<path d="M123.806 135.18C121.458 134.563 120.561 133.503 120.301 132.519C121.191 132.769 122.03 133.176 122.778 133.72C123.269 134.083 123.63 134.595 123.806 135.18Z" fill="#DE5753"/>
<path d="M105.611 121.291C105.611 121.291 104.281 116.142 104.53 113.178C104.778 110.214 111.117 103.788 118.029 103.172C124.942 102.555 126.683 103.172 128.847 105.508C131.01 107.845 132.546 114.086 132.546 114.086C132.546 114.086 118.992 110.884 105.611 121.291Z" fill="url(#paint19_linear)"/>
<path d="M105.611 121.291C105.611 121.291 118.278 107.401 130.934 106.319C143.59 105.238 145.397 109.002 133.357 116.055C133.357 116.055 125.904 109.846 105.611 121.291Z" fill="url(#paint20_linear)"/>
<path opacity="0.2" d="M105.611 121.291C105.611 121.291 118.278 107.401 130.934 106.319C143.59 105.238 145.397 109.002 133.357 116.055C133.357 116.055 125.904 109.846 105.611 121.291Z" fill="black"/>
<path opacity="0.2" d="M99.8129 180.234C99.4992 177.735 99.1206 175.247 98.7312 172.77V172.705C99.099 172.088 102.117 167.037 102.42 163.424C102.674 164.491 102.848 165.576 102.939 166.669C103.264 170.141 103.112 175.701 99.8129 180.234Z" fill="black"/>
<path d="M99.2719 176.329C97.2275 183.619 85.0364 199.207 75.3442 200.537C57.8527 202.939 49.729 172.034 49.729 172.034L61.8551 163.845C61.8551 163.845 67.9669 177.659 71.1255 179.779C75.0305 182.408 87.8922 159.8 94.6962 154.586C94.6962 154.586 104.908 156.284 99.2719 176.329Z" fill="#263238"/>
<path opacity="0.2" d="M99.2719 176.329C97.2275 183.619 85.0364 199.207 75.3442 200.537C57.8527 202.939 49.729 172.034 49.729 172.034L61.8551 163.845C61.8551 163.845 67.9669 177.659 71.1255 179.779C75.0305 182.408 87.8922 159.8 94.6962 154.586C94.6962 154.586 104.908 156.284 99.2719 176.329Z" fill="white"/>
<path d="M274.566 165.814L282.062 160.6C282.899 159.052 283.903 157.601 285.058 156.273C286.551 154.716 291.257 152.271 292.544 152.423C293.831 152.574 299.759 156.847 297.433 159.097C295.108 161.347 289.429 164.181 288.477 163.835L287.525 163.489L278.125 171.061L274.566 165.814Z" fill="#EEC1BB"/>
<path d="M285.058 167.123C285.058 167.123 264.387 185.285 256.49 189.233C252.617 191.181 243.509 194.318 235.332 196.979C226.894 199.715 219.376 201.965 219.376 201.965L218.067 199.531L210.593 185.631C210.593 185.631 249.643 180.223 253.072 178.784C256.501 177.345 279.909 160.579 279.909 160.579L285.058 167.123Z" fill="#263238"/>
<path opacity="0.2" d="M235.364 196.979C226.926 199.715 219.408 201.965 219.408 201.965L218.099 199.532V193.128C218.099 193.128 230.052 193.506 235.364 196.979Z" fill="black"/>
<path d="M160.996 259.708L155.847 267.28C155.602 269.015 155.174 270.719 154.571 272.364C153.716 274.354 150.19 278.303 148.935 278.616C147.68 278.93 140.605 277.037 141.99 274.116C143.375 271.196 147.669 266.544 148.686 266.544H149.692L155.804 256.149L160.996 259.708Z" fill="#EEC1BB"/>
<path d="M197.093 143.758C202.891 143.682 214.736 153.883 214.736 153.883C214.736 153.883 218.241 169.027 221.518 172.131L219.009 173.213L216.91 170.033L218.1 174.63C218.1 174.63 207.618 179.314 198.975 179.768C190.332 180.223 186.341 178.481 186.341 178.481L187.206 174.63L185.529 177.94L181.981 176.437C183.638 170.621 184.825 164.681 185.529 158.675C186.341 150.227 197.093 143.758 197.093 143.758Z" fill="#263238"/>
<path d="M210.366 379.4C203.821 387.621 197.947 395.074 192.82 400.515C187.703 406.021 185.064 409.44 185.064 409.44L179.991 406.53C179.991 406.53 184.675 399.12 191.024 388.898C196.433 380.244 203.042 369.535 209.046 359.616C216.823 346.808 223.563 335.32 225.347 331.21C226.613 328.289 223.184 317.071 219.376 306.492C215.515 295.729 211.274 285.604 211.274 285.604L225.12 262.196C225.12 262.196 230.745 277.783 235.743 294.225C238.988 305.043 242.028 316.13 243.034 323.529C244.429 333.86 226.591 358.977 210.366 379.4Z" fill="#EEC1BB"/>
<path opacity="0.2" d="M210.409 379.4C203.918 387.621 197.59 395.074 192.917 400.515C192.246 397.173 191.576 393.214 191.035 388.898C196.444 380.244 203.053 369.535 209.056 359.616C208.926 366.237 209.378 372.858 210.409 379.4Z" fill="black"/>
<path opacity="0.2" d="M235.721 294.225L219.376 306.492C215.515 295.729 211.274 285.604 211.274 285.604L225.12 262.196C225.12 262.196 230.724 277.783 235.721 294.225Z" fill="black"/>
<path d="M207.174 421.393L201.322 422.183C201.322 422.183 192.863 380.569 193.123 346.224C189.986 334.861 187.537 323.32 185.788 311.663C183.712 297.601 182.695 281.937 185.432 270.255L205.93 279.482L206.352 310.224L206.698 335.85L207.174 421.393Z" fill="#EEC1BB"/>
<path opacity="0.2" d="M206.31 310.202L185.757 311.641C183.68 297.579 182.663 281.915 185.4 270.233L205.899 279.46L206.31 310.202Z" fill="black"/>
<path d="M180.327 403.296C180.933 402.852 186.038 410.5 186.038 410.5C186.038 410.5 184.903 418.472 187.207 423.61C189.511 428.749 185.043 428.305 181.311 423.437L172.117 411.365C169.477 407.936 174.075 407.85 180.327 403.296Z" fill="#263238"/>
<path d="M187.769 416.265C186.611 415.995 185.854 412.696 185.713 412.036V411.939C185.713 411.939 185.713 411.939 185.713 411.863V411.798H185.789C185.897 411.798 188.061 411.084 189.218 411.798C189.397 411.898 189.551 412.036 189.671 412.203C189.79 412.369 189.872 412.559 189.91 412.761C190.008 413.215 189.91 413.529 189.672 413.702C189.434 413.875 188.483 413.756 187.715 413.399C188.234 413.877 188.609 414.492 188.796 415.173C188.82 415.307 188.815 415.445 188.782 415.578C188.748 415.71 188.687 415.834 188.602 415.941C188.519 416.066 188.408 416.169 188.279 416.244C188.149 416.32 188.004 416.364 187.855 416.374L187.769 416.265ZM187.877 415.8C187.877 415.8 188.072 415.8 188.299 415.552C188.343 415.496 188.374 415.431 188.391 415.362C188.408 415.293 188.409 415.221 188.396 415.151C188.299 414.394 187.152 413.28 186.352 412.609C186.709 414.026 187.336 415.692 187.877 415.8ZM186.546 412.079C187.779 412.847 189.142 413.453 189.489 413.161C189.586 413.096 189.553 412.858 189.489 412.717C189.462 412.584 189.406 412.457 189.326 412.347C189.246 412.237 189.143 412.145 189.023 412.079C188.688 411.912 188.316 411.83 187.942 411.841C187.469 411.869 187.001 411.949 186.546 412.079Z" fill="url(#paint21_linear)"/>
<path d="M199.159 418.407C199.159 417.661 208.343 418.245 208.343 418.245C208.343 418.245 213.99 423.978 219.474 425.276C224.958 426.574 221.886 429.852 215.764 429.852H200.62C196.282 429.852 199.008 426.142 199.159 418.407Z" fill="#263238"/>
<path d="M209.402 419.424C209.373 419.412 209.347 419.394 209.327 419.37C209.324 419.348 209.324 419.327 209.327 419.305C209.322 419.28 209.322 419.254 209.327 419.229C209.327 419.229 209.327 419.154 209.327 419.132C209.327 419.11 210.127 416.893 211.371 416.374C211.556 416.288 211.757 416.244 211.961 416.244C212.164 416.244 212.365 416.288 212.55 416.374C212.972 416.579 213.178 416.839 213.156 417.152C213.134 417.466 212.475 418.115 211.728 418.515C212.421 418.396 213.133 418.475 213.783 418.743C213.905 418.804 214.013 418.891 214.099 418.997C214.184 419.104 214.247 419.227 214.281 419.359C214.347 419.525 214.361 419.708 214.32 419.882C214.279 420.056 214.187 420.213 214.054 420.333C213.819 420.501 213.531 420.582 213.243 420.56C211.905 420.414 210.604 420.029 209.402 419.424ZM210.235 419.273C211.588 419.846 213.275 420.354 213.708 419.997C213.708 419.997 213.859 419.868 213.762 419.511C213.742 419.442 213.709 419.378 213.664 419.322C213.62 419.267 213.565 419.22 213.502 419.186C213.162 419.036 212.791 418.969 212.42 418.991C211.685 419.012 210.953 419.106 210.235 419.273ZM211.512 416.828C210.786 417.293 210.235 417.985 209.943 418.797C211.295 418.277 212.604 417.563 212.637 417.152C212.637 417.023 212.431 416.904 212.301 416.85C212.17 416.787 212.026 416.753 211.88 416.752C211.753 416.751 211.628 416.777 211.512 416.828Z" fill="url(#paint22_linear)"/>
<path d="M215.385 300.727L237.571 289.131C230.605 267.95 224.32 255.932 224.32 255.932C202.534 259.664 204.525 276.885 204.525 276.885C204.525 276.885 210.074 288.352 215.385 300.727Z" fill="url(#paint23_linear)"/>
<path opacity="0.2" d="M213.99 297.46C214.466 298.542 214.931 299.623 215.407 300.705L237.572 289.131C230.605 267.95 224.32 255.932 224.32 255.932C210.875 258.247 206.483 265.668 205.087 271.077C204.576 272.979 204.382 274.953 204.514 276.918C204.514 276.918 209.122 286.405 213.99 297.46Z" fill="white"/>
<path opacity="0.2" d="M213.99 297.46C209.122 286.405 204.514 276.907 204.514 276.907C204.382 274.942 204.576 272.968 205.087 271.066C205.781 270.611 206.55 270.285 207.359 270.103C207.359 270.103 213.287 279.395 213.99 297.46Z" fill="black"/>
<path d="M208.549 305.508L207.814 270.06L225.381 264.932C225.381 264.932 224.007 248.707 221.952 240.648C221.952 240.648 193.416 233.541 189.067 243.222C189.067 243.222 189.067 243.374 189.002 243.428L188.937 243.514C188.937 243.514 180.738 257.934 183.183 305.508H208.549Z" fill="url(#paint24_linear)"/>
<path opacity="0.2" d="M208.549 305.508L207.814 270.06L225.381 264.932C225.381 264.932 224.007 248.707 221.952 240.648C221.952 240.648 193.416 233.541 189.067 243.222C189.067 243.222 189.067 243.374 189.002 243.428L188.937 243.514C188.937 243.514 180.738 257.934 183.183 305.508H208.549Z" fill="white"/>
<path d="M188.721 238.311V243.147L221.519 240.615V234.893L188.721 238.311Z" fill="url(#paint25_linear)"/>
<path d="M199.849 236.258L198.207 236.342L198.634 244.692L200.276 244.608L199.849 236.258Z" fill="url(#paint26_linear)"/>
<path d="M214.158 236.06L206.928 236.708L207.419 242.181L214.648 241.533L214.158 236.06Z" fill="white"/>
<path d="M220.034 234.05L218.392 234.134L218.819 242.485L220.461 242.4L220.034 234.05Z" fill="url(#paint27_linear)"/>
<path opacity="0.2" d="M199.849 236.258L198.207 236.342L198.634 244.692L200.276 244.608L199.849 236.258Z" fill="white"/>
<path opacity="0.2" d="M220.034 234.05L218.392 234.134L218.819 242.485L220.461 242.4L220.034 234.05Z" fill="white"/>
<path d="M221.876 235.477L188.873 238.29C188.628 233.18 188.097 228.088 187.282 223.037C186.318 217.596 185.028 212.218 183.421 206.93C182.48 203.685 181.365 200.202 180.035 196.189C179.407 194.271 178.719 192.241 177.969 190.099C182.454 188.662 187.038 187.555 191.685 186.789C196.59 185.937 201.55 185.434 206.526 185.285C212.952 185.285 220.34 185.956 220.34 185.956C220.34 185.956 221.422 186.216 222.049 193.02C222.655 199.402 223.25 212.198 221.876 235.477Z" fill="#263238"/>
<path d="M181.041 304.058L209.987 303.799L209.479 308.158L182.317 307.898L181.041 304.058Z" fill="url(#paint28_linear)"/>
<path d="M213.578 300.467L237.658 287.4L238.945 291.24L215.623 302.771L213.578 300.467Z" fill="url(#paint29_linear)"/>
<path d="M203.8 192.565C195.654 191.483 193.199 188.033 193.199 188.033C196.53 184.907 195.925 180.266 195.081 177.378C194.822 176.464 194.485 175.573 194.075 174.717L203.886 176.545C203.655 177.911 203.525 179.292 203.497 180.677C203.47 181.698 203.564 182.718 203.778 183.717C204.449 186.648 206.115 186.681 206.115 186.681C207.813 189.904 203.8 192.565 203.8 192.565Z" fill="#EEC1BB"/>
<path opacity="0.2" d="M203.487 180.677C203.46 181.698 203.554 182.718 203.768 183.717C199.874 183.198 196.921 180.082 195.114 177.378C194.855 176.464 194.519 175.573 194.108 174.717L203.919 176.545C203.673 177.91 203.529 179.291 203.487 180.677Z" fill="black"/>
<path d="M201.884 149.394C210.408 149.707 212.983 154.38 213.286 163.196C213.654 174.208 210.938 181.921 200.359 179.174C185.994 175.452 187.714 148.874 201.884 149.394Z" fill="#EEC1BB"/>
<path d="M207.813 162.569C208.449 163.866 209.237 165.082 210.16 166.193C209.899 166.537 209.548 166.803 209.145 166.959C208.742 167.116 208.303 167.158 207.878 167.08L207.813 162.569Z" fill="#D4827D"/>
<path d="M202.728 155.722C202.058 155.615 201.371 155.664 200.722 155.865C200.073 156.065 199.479 156.412 198.986 156.879" stroke="#263238" stroke-width="0.707962" stroke-linecap="round" stroke-linejoin="round"/>
<path d="M208.894 155.592C209.483 155.468 210.092 155.479 210.677 155.623C211.261 155.767 211.805 156.041 212.269 156.425" stroke="#263238" stroke-width="0.707962" stroke-linecap="round" stroke-linejoin="round"/>
<path d="M206.493 170.325C206.061 171.274 205.699 172.254 205.412 173.256L204.871 173.181C202.394 172.835 201.366 171.861 200.966 170.887C200.785 170.404 200.722 169.885 200.782 169.373C200.806 169.081 200.868 168.794 200.966 168.519C202.396 169.417 204.006 169.989 205.682 170.195C206.158 170.293 206.493 170.325 206.493 170.325Z" fill="#263238"/>
<path d="M205.649 170.195L205.303 171.05C202.966 170.725 201.376 170.184 200.749 169.373C200.772 169.081 200.834 168.794 200.932 168.519C202.362 169.417 203.973 169.989 205.649 170.195Z" fill="white"/>
<path d="M204.838 173.181C202.361 172.835 201.334 171.861 200.933 170.888C201.871 171.037 202.775 171.348 203.605 171.807C204.146 172.13 204.576 172.609 204.838 173.181Z" fill="#DE5753"/>
<path d="M192.031 163.424C192.031 163.424 196.283 156.565 195.871 151.135C195.871 151.135 213.028 144.85 213.179 162.039C213.179 162.039 215.342 146.895 200.739 145.986C186.136 145.078 185.357 166.539 192.691 173.224C192.745 173.224 189.424 167.718 192.031 163.424Z" fill="#263238"/>
<path d="M193.35 165.273C193.329 164.783 193.211 164.302 193.004 163.857C192.797 163.412 192.504 163.013 192.143 162.681C191.781 162.349 191.358 162.092 190.896 161.925C190.435 161.757 189.946 161.682 189.455 161.704C186.805 161.898 185.345 167.275 191.868 168.821C192.798 169.059 193.371 168.14 193.35 165.273Z" fill="#EEC1BB"/>
<path d="M197.094 143.758C201.702 142.481 214.001 142.308 216.911 155.029L215.202 155.884C212.312 154.435 209.188 153.512 205.975 153.158C205.292 151.943 204.491 150.798 203.584 149.74C203.678 150.819 203.678 151.905 203.584 152.985C203.584 152.985 195.558 154.153 191.966 157.42C186.331 162.547 185.995 165.793 185.995 165.793C185.995 165.793 182.079 147.933 197.094 143.758Z" fill="#263238"/>
<path d="M196.411 144.699C196.411 144.699 212.896 138.977 218.045 154.608" stroke="#263238" stroke-width="0.488465" stroke-linecap="round" stroke-linejoin="round"/>
<path d="M200.24 161.628C200.24 161.628 202.241 159.93 203.182 162.212C202.267 161.772 201.254 161.571 200.24 161.628Z" fill="#263238"/>
<path d="M209.739 162.894C209.739 162.894 210.821 160.579 212.314 162.212C211.414 162.231 210.531 162.464 209.739 162.894Z" fill="#263238"/>
<path opacity="0.3" d="M212.983 197.357H217.764C217.938 197.365 218.107 197.414 218.257 197.501C218.408 197.588 218.535 197.71 218.628 197.856C218.722 198.003 218.778 198.169 218.794 198.342C218.809 198.515 218.782 198.689 218.716 198.85L216.737 203.112C216.651 203.274 216.525 203.411 216.371 203.511C216.218 203.61 216.041 203.67 215.859 203.682C215.676 203.695 215.493 203.662 215.327 203.585C215.161 203.508 215.017 203.39 214.909 203.242L212.096 198.991C212 198.83 211.948 198.646 211.945 198.459C211.941 198.272 211.986 198.087 212.075 197.922C212.165 197.757 212.296 197.619 212.455 197.52C212.614 197.421 212.796 197.365 212.983 197.357Z" fill="white"/>
<path opacity="0.2" d="M187.261 223.081C186.296 217.639 185.007 212.261 183.399 206.974L185.195 203.729C187.449 209.915 188.158 216.558 187.261 223.081Z" fill="black"/>
<path d="M177.968 190.142C174.874 194.058 173.479 222.129 167.216 233.508C160.952 244.888 152.147 260.335 152.147 260.335L158.573 265.917C158.573 265.917 178.357 242.811 181.516 233.93C184.675 225.049 185.529 213.248 185.529 213.248C187.26 197.357 177.968 190.142 177.968 190.142Z" fill="#263238"/>
<path opacity="0.6" d="M180.327 403.296C180.933 402.852 186.038 410.5 186.038 410.5C186.038 410.5 184.903 418.472 187.207 423.61C189.511 428.749 185.043 428.305 181.311 423.437L172.117 411.365C169.477 407.936 174.075 407.85 180.327 403.296Z" fill="white"/>
<path opacity="0.6" d="M199.159 418.407C199.159 417.661 208.343 418.245 208.343 418.245C208.343 418.245 213.99 423.978 219.474 425.276C224.958 426.574 221.886 429.852 215.764 429.852H200.62C196.282 429.852 199.008 426.142 199.159 418.407Z" fill="white"/>
<path d="M244.526 210.955C250.086 213.194 254.792 207.623 255.008 200.992C255.008 200.992 260.081 197.747 265.825 194.22C270.156 191.5 274.622 189.001 279.206 186.735C279.956 186.385 280.607 185.853 281.099 185.188C285.534 179.433 283.49 162.85 283.49 162.85C273.214 163.997 252.682 182.613 243.693 191.592C234.704 200.57 238.966 208.705 244.526 210.955Z" fill="url(#paint30_linear)"/>
<path opacity="0.2" d="M265.826 194.22C270.156 191.5 274.622 189.001 279.207 186.735C279.957 186.385 280.607 185.853 281.1 185.188L273.895 178.795C273.895 178.795 267.481 187.135 265.826 194.22Z" fill="black"/>
<path d="M278.363 421.793L269.59 422.723L267.935 403.793L276.719 402.863L278.363 421.793Z" fill="#EBB376"/>
<path d="M322.15 421.155H313.648L312.945 401.457H321.458L322.15 421.155Z" fill="#EBB376"/>
<path d="M312.47 420.171H322.801C322.97 420.169 323.135 420.227 323.267 420.333C323.399 420.44 323.49 420.589 323.525 420.755L325.202 428.327C325.269 428.652 325.204 428.991 325.022 429.269C324.839 429.547 324.554 429.741 324.228 429.809C324.139 429.82 324.048 429.82 323.958 429.809C320.615 429.755 318.182 429.549 313.984 429.549C311.399 429.549 303.6 429.819 300.03 429.819C296.461 429.819 295.995 426.293 297.456 425.969C304.011 424.541 308.944 422.561 311.042 420.679C311.435 420.333 311.947 420.151 312.47 420.171Z" fill="#263238"/>
<path d="M309.656 421.663C309.078 421.707 308.503 421.554 308.023 421.231C307.865 421.102 307.743 420.935 307.669 420.745C307.595 420.556 307.572 420.35 307.601 420.149C307.596 420.031 307.627 419.915 307.688 419.815C307.75 419.715 307.84 419.635 307.947 419.586C308.888 419.099 311.636 420.787 311.938 420.982C311.973 421 312.002 421.028 312.019 421.063C312.037 421.098 312.042 421.138 312.036 421.176C312.031 421.217 312.014 421.255 311.987 421.286C311.96 421.317 311.924 421.339 311.884 421.35C311.155 421.535 310.408 421.64 309.656 421.663ZM308.412 419.9C308.322 419.89 308.231 419.909 308.152 419.954C308.098 419.954 308.033 420.03 308.023 420.192C308.006 420.326 308.021 420.462 308.069 420.588C308.116 420.714 308.193 420.827 308.293 420.917C309.247 421.349 310.33 421.404 311.322 421.068C310.437 420.493 309.449 420.096 308.412 419.9Z" fill="url(#paint31_linear)"/>
<path d="M311.831 421.36H311.734C310.858 420.884 309.16 419.013 309.333 418.115C309.363 417.965 309.444 417.831 309.562 417.734C309.681 417.637 309.829 417.585 309.982 417.585C310.134 417.565 310.29 417.578 310.437 417.623C310.584 417.667 310.72 417.743 310.836 417.845C311.821 418.645 312.026 421.09 312.037 421.209C312.037 421.245 312.029 421.281 312.012 421.313C311.995 421.345 311.97 421.373 311.94 421.393C311.901 421.394 311.863 421.382 311.831 421.36ZM310.122 417.91H310.025C309.765 417.91 309.744 418.061 309.733 418.115C309.625 418.667 310.706 420.084 311.583 420.744C311.528 419.775 311.177 418.846 310.577 418.083C310.45 417.974 310.289 417.913 310.122 417.91Z" fill="url(#paint32_linear)"/>
<path d="M268.66 419.9H278.991C279.16 419.899 279.325 419.956 279.457 420.063C279.589 420.169 279.68 420.318 279.715 420.484L281.392 428.056C281.459 428.382 281.394 428.721 281.212 428.999C281.029 429.276 280.744 429.471 280.418 429.538C280.329 429.55 280.238 429.55 280.148 429.538C276.806 429.484 274.372 429.279 270.175 429.279C267.589 429.279 259.79 429.549 256.22 429.549C252.651 429.549 252.186 426.023 253.646 425.698C260.201 424.27 265.134 422.291 267.232 420.408C267.626 420.062 268.137 419.88 268.66 419.9Z" fill="#263238"/>
<path d="M265.846 421.393C265.269 421.437 264.693 421.284 264.213 420.96C264.055 420.832 263.934 420.664 263.86 420.475C263.786 420.285 263.762 420.08 263.791 419.878C263.787 419.761 263.817 419.645 263.879 419.545C263.941 419.445 264.03 419.365 264.137 419.316C265.078 418.829 267.826 420.517 268.129 420.711C268.163 420.729 268.192 420.758 268.209 420.793C268.227 420.828 268.233 420.868 268.226 420.906C268.221 420.947 268.204 420.985 268.177 421.016C268.15 421.047 268.114 421.069 268.075 421.079C267.345 421.265 266.598 421.37 265.846 421.393ZM264.581 419.63C264.491 419.62 264.4 419.639 264.321 419.684C264.267 419.684 264.202 419.759 264.191 419.922C264.174 420.055 264.19 420.191 264.237 420.317C264.284 420.444 264.361 420.557 264.462 420.647C265.416 421.079 266.498 421.133 267.49 420.798C266.606 420.223 265.617 419.826 264.581 419.63Z" fill="url(#paint33_linear)"/>
<path d="M268.022 421.101H267.924C267.048 420.625 265.35 418.754 265.523 417.856C265.553 417.706 265.634 417.571 265.752 417.474C265.871 417.378 266.019 417.325 266.172 417.326C266.325 417.306 266.48 417.318 266.627 417.363C266.774 417.408 266.911 417.484 267.026 417.585C268.011 418.386 268.216 420.83 268.227 420.949C268.228 420.986 268.219 421.022 268.202 421.054C268.185 421.086 268.16 421.113 268.13 421.133C268.091 421.134 268.053 421.123 268.022 421.101ZM266.312 417.65H266.226C265.966 417.65 265.945 417.802 265.934 417.856C265.826 418.407 266.907 419.824 267.784 420.484C267.729 419.515 267.378 418.586 266.778 417.823C266.649 417.709 266.484 417.644 266.312 417.639V417.65Z" fill="url(#paint34_linear)"/>
<path opacity="0.2" d="M276.719 402.863L267.935 403.793L268.801 413.55L277.574 412.631L276.719 402.863Z" fill="black"/>
<path opacity="0.2" d="M321.458 401.467H312.945L313.313 411.625H321.826L321.458 401.467Z" fill="black"/>
<path d="M317.942 237.327H272.812C268.486 260.757 255.094 335.039 264.721 408.921L280.006 407.038C280.006 407.038 278.589 317.601 292.078 281.342C293.636 300.748 295.475 312.712 297.076 323.735C301.002 350.778 309.407 409.872 309.407 409.872H324.962C324.962 409.872 321.782 353.309 320.311 326.731C318.699 297.86 318.007 243.255 317.942 237.327Z" fill="#263238"/>
<path d="M262.981 412.479L281.89 409.667L281.316 404.431L261.64 407.017L262.981 412.479Z" fill="url(#paint35_linear)"/>
<path d="M307.537 409.991H325.883V404.507L306.844 404.15L307.537 409.991Z" fill="url(#paint36_linear)"/>
<path opacity="0.2" d="M292.079 281.331C289.861 287.671 288.175 294.183 287.038 300.802C285.772 283.495 290.824 265.214 290.824 265.214L292.079 281.331Z" fill="black"/>
<path d="M325.721 166.485C323.222 175.665 321.414 185.019 320.312 194.469C319.955 197.368 319.663 200.213 319.425 202.971C319.112 206.476 318.895 209.851 318.722 213.053C318.506 217.11 318.441 221.902 318.452 226.618C318.452 237.435 318.906 244.629 318.906 244.629C310.252 246.792 285.243 245.353 271.581 244.358C269.974 232.382 269.554 220.276 270.326 208.218C270.781 199.541 271.738 190.898 273.192 182.332C273.926 177.759 274.945 173.235 276.243 168.789C276.745 167.213 277.689 165.814 278.962 164.757C280.235 163.701 281.784 163.032 283.426 162.829C285.081 162.623 286.995 162.418 289.007 162.299C289.786 162.299 290.565 162.223 291.355 162.212C297.808 162.286 304.251 162.733 310.653 163.553C311.864 163.694 313.097 163.878 314.287 164.073C318.138 164.675 321.955 165.48 325.721 166.485Z" fill="url(#paint37_linear)"/>
<path d="M310.706 163.499C306.563 167.264 296.417 165.868 296.417 165.868C296.417 165.868 290.078 164.138 291.408 162.158C295.14 161.541 296.947 159.8 297.693 157.571C298.102 156.19 298.231 154.741 298.072 153.31C298.01 152.511 297.905 151.717 297.758 150.93L298.526 150.367L301.144 148.42L310.306 141.638C309.452 144.802 308.848 148.028 308.5 151.287C308.088 154.397 308.291 157.557 309.095 160.589C309.422 161.662 309.971 162.653 310.706 163.499Z" fill="#EBB376"/>
<path opacity="0.2" d="M320.648 192.132C320.961 189.634 321.34 187.146 321.729 184.669V184.604C321.362 183.987 318.344 178.935 318.041 175.323C317.786 176.39 317.613 177.474 317.522 178.568C317.197 182.04 317.348 187.6 320.648 192.132Z" fill="black"/>
<path d="M343.083 218.408L328.966 246.716C325.094 247.322 320.983 263.894 320.031 265.311C319.079 266.728 331.238 266.523 332.287 265.311C333.336 264.1 337.825 253.628 336.354 250.578L354.646 222.691C354.646 222.691 351.163 216.99 343.083 218.408Z" fill="#EBB376"/>
<path d="M325.721 166.485C327.592 166.279 359.406 194.469 358.973 209.754C358.541 225.039 354.268 225.514 354.268 225.514L342.369 223.048C342.369 223.048 345.019 209.981 342.163 207.039C339.308 204.096 321.178 188.173 321.178 188.173C321.178 188.173 314.98 167.675 325.721 166.485Z" fill="url(#paint38_linear)"/>
<path opacity="0.6" d="M281.077 178.449C281.077 178.449 301.197 179.357 309.354 181.326C309.354 181.326 305.827 210.262 305.892 218.905C305.892 218.905 282.992 217.899 276.502 217.596C276.502 217.596 279.022 186.691 281.077 178.449Z" fill="white"/>
<path d="M248.54 197.357L276.557 200.667C278.904 198.071 293.269 203.112 294.794 203.101C296.32 203.09 290.219 212.047 288.834 212.263C287.449 212.48 277.422 210.673 275.853 208.088H246.106C246.106 208.088 243.51 202.69 248.54 197.357Z" fill="#EBB376"/>
<path opacity="0.2" d="M309.094 160.589C302.549 161.303 299.661 154.478 298.525 150.367L301.143 148.42C303.642 149.251 306.097 150.208 308.499 151.287C308.088 154.397 308.29 157.557 309.094 160.589Z" fill="black"/>
<path d="M320.312 127.478C320.312 127.478 321.75 137.127 315.53 141.627C309.31 146.127 309.31 124.319 309.31 124.319L320.312 127.478Z" fill="#263238"/>
<path d="M297.52 150.94C298.824 152.87 300.725 154.318 302.931 155.062C305.137 155.807 307.527 155.807 309.733 155.062C312.602 154.148 315.018 152.181 316.493 149.556C316.699 149.205 316.887 148.844 317.056 148.474C320.117 141.313 321.091 128.787 313.519 124.092C311.854 123.046 309.949 122.444 307.985 122.342C306.022 122.239 304.065 122.641 302.3 123.508C300.536 124.375 299.022 125.679 297.903 127.296C296.784 128.913 296.098 130.789 295.908 132.746C294.978 141.108 294.037 145.986 297.52 150.94Z" fill="#EBB376"/>
<path d="M308.11 137.213C307.948 137.873 308.251 138.49 308.705 138.566C309.159 138.641 309.592 138.154 309.711 137.484C309.83 136.813 309.559 136.197 309.116 136.121C308.672 136.045 308.229 136.532 308.11 137.213Z" fill="#263238"/>
<path d="M315.747 138.512C315.595 139.182 315.909 139.799 316.342 139.875C316.774 139.95 317.239 139.453 317.358 138.793C317.477 138.133 317.196 137.506 316.763 137.441C316.331 137.376 315.866 137.873 315.747 138.512Z" fill="#263238"/>
<path d="M313.27 138.436C313.716 140.643 314.47 142.777 315.509 144.775C314.984 145.021 314.412 145.148 313.832 145.148C313.253 145.148 312.68 145.021 312.156 144.775L313.27 138.436Z" fill="#D58745"/>
<path d="M306.163 134.336C306.234 134.359 306.309 134.361 306.382 134.344C306.454 134.327 306.521 134.291 306.574 134.239C306.935 133.886 307.373 133.622 307.854 133.468C308.334 133.314 308.844 133.274 309.343 133.352C309.446 133.374 309.554 133.355 309.644 133.298C309.733 133.242 309.796 133.152 309.819 133.049C309.832 132.998 309.834 132.946 309.827 132.894C309.819 132.843 309.801 132.794 309.774 132.749C309.746 132.705 309.711 132.666 309.668 132.636C309.626 132.606 309.578 132.584 309.527 132.573C308.899 132.461 308.253 132.5 307.643 132.689C307.034 132.877 306.478 133.208 306.022 133.655C305.948 133.73 305.907 133.831 305.907 133.936C305.907 134.041 305.948 134.142 306.022 134.217C306.063 134.264 306.11 134.304 306.163 134.336Z" fill="#263238"/>
<path d="M319.489 136.445C319.558 136.485 319.637 136.504 319.716 136.5C319.818 136.469 319.905 136.4 319.957 136.308C320.01 136.215 320.024 136.105 319.997 136.002C319.83 135.384 319.519 134.814 319.088 134.34C318.657 133.866 318.12 133.501 317.52 133.276C317.47 133.26 317.417 133.254 317.364 133.258C317.311 133.263 317.26 133.279 317.213 133.304C317.167 133.329 317.126 133.364 317.093 133.406C317.06 133.447 317.036 133.495 317.023 133.546C316.995 133.648 317.008 133.757 317.058 133.849C317.109 133.942 317.193 134.012 317.293 134.044C317.762 134.23 318.181 134.522 318.517 134.897C318.853 135.273 319.097 135.721 319.229 136.207C319.253 136.263 319.288 136.314 319.333 136.355C319.378 136.396 319.431 136.427 319.489 136.445Z" fill="#263238"/>
<path d="M308.283 119.3C307.288 119.16 306.293 119.041 305.287 118.997C302.389 118.726 299.474 119.308 296.903 120.674C291.116 124.103 292.111 132.887 292.858 138.576C293.853 146.149 296.828 149.578 296.828 149.578C295.021 145.965 295.562 138.933 296.73 138.76C297.899 138.587 297.812 139.929 297.812 139.929C300.43 138.306 302.777 133.709 301.966 130.464C301.339 127.976 304.129 126.137 306.466 127.305L307.18 127.651L308.262 128.17L308.283 119.3Z" fill="#263238"/>
<path d="M291.105 138.923C291.399 139.932 291.89 140.873 292.549 141.691C293.208 142.51 294.022 143.19 294.945 143.693C297.422 145.023 299.272 142.957 299.11 140.296C298.937 137.938 297.466 134.325 294.729 134.12C291.992 133.914 290.413 136.413 291.105 138.923Z" fill="#EBB376"/>
<path d="M292.923 126.202C292.923 126.202 291.841 117.613 301.836 116.174C311.831 114.735 320.496 112.496 320.496 112.496C320.496 112.496 320.345 117.548 318.506 118.986C318.506 118.986 322.097 119.149 324.239 117.721C324.239 117.721 323.666 122.145 322.378 123.714L324.239 122.286C324.032 123.961 323.306 125.53 322.164 126.773C321.022 128.016 319.519 128.872 317.867 129.22C311.972 130.561 300.96 126.202 300.96 126.202H292.923Z" fill="#263238"/>
<path d="M311.896 147.641C311.256 148.431 310.674 149.266 310.154 150.14C309.992 150.075 309.819 150.021 309.657 149.945C307.407 149.037 306.66 147.868 306.52 146.852C306.463 146.354 306.526 145.849 306.704 145.38C306.795 145.112 306.922 144.857 307.082 144.623C308.226 145.799 309.604 146.721 311.128 147.328C311.593 147.533 311.896 147.641 311.896 147.641Z" fill="#263238"/>
<path d="M311.128 147.328L310.598 148.042C308.435 147.187 307.104 146.289 306.704 145.38C306.795 145.112 306.922 144.857 307.083 144.623C308.226 145.799 309.605 146.721 311.128 147.328Z" fill="white"/>
<path d="M309.656 149.945C307.406 149.037 306.66 147.868 306.519 146.852C307.371 147.211 308.151 147.72 308.823 148.355C309.255 148.789 309.545 149.343 309.656 149.945Z" fill="#DE5753"/>
<defs>
<linearGradient id="paint0_linear" x1="446.029" y1="53.125" x2="446.029" y2="317.285" gradientUnits="userSpaceOnUse">
<stop stop-color="#4070FF"/>
<stop offset="1" stop-color="#365FD9"/>
</linearGradient>
<linearGradient id="paint1_linear" x1="459.735" y1="417.769" x2="459.735" y2="442.259" gradientUnits="userSpaceOnUse">
<stop stop-color="#4070FF"/>
<stop offset="1" stop-color="#365FD9"/>
</linearGradient>
<linearGradient id="paint2_linear" x1="377.298" y1="168.097" x2="377.298" y2="209.797" gradientUnits="userSpaceOnUse">
<stop stop-color="#4070FF"/>
<stop offset="1" stop-color="#365FD9"/>
</linearGradient>
<linearGradient id="paint3_linear" x1="343.582" y1="415.627" x2="343.582" y2="428.142" gradientUnits="userSpaceOnUse">
<stop stop-color="#4070FF"/>
<stop offset="1" stop-color="#365FD9"/>
</linearGradient>
<linearGradient id="paint4_linear" x1="387.907" y1="418.351" x2="387.907" y2="429.852" gradientUnits="userSpaceOnUse">
<stop stop-color="#4070FF"/>
<stop offset="1" stop-color="#365FD9"/>
</linearGradient>
<linearGradient id="paint5_linear" x1="412.356" y1="192.338" x2="412.356" y2="246.5" gradientUnits="userSpaceOnUse">
<stop stop-color="#4070FF"/>
<stop offset="1" stop-color="#365FD9"/>
</linearGradient>
<linearGradient id="paint6_linear" x1="398.832" y1="193.042" x2="398.832" y2="201.968" gradientUnits="userSpaceOnUse">
<stop stop-color="#4070FF"/>
<stop offset="1" stop-color="#365FD9"/>
</linearGradient>
<linearGradient id="paint7_linear" x1="407.705" y1="202.939" x2="407.705" y2="215.141" gradientUnits="userSpaceOnUse">
<stop stop-color="#4070FF"/>
<stop offset="1" stop-color="#365FD9"/>
</linearGradient>
<linearGradient id="paint8_linear" x1="403.605" y1="213.096" x2="403.605" y2="224.746" gradientUnits="userSpaceOnUse">
<stop stop-color="#4070FF"/>
<stop offset="1" stop-color="#365FD9"/>
</linearGradient>
<linearGradient id="paint9_linear" x1="400.122" y1="223.275" x2="400.122" y2="234.569" gradientUnits="userSpaceOnUse">
<stop stop-color="#4070FF"/>
<stop offset="1" stop-color="#365FD9"/>
</linearGradient>
<linearGradient id="paint10_linear" x1="397.558" y1="233.487" x2="397.558" y2="244.564" gradientUnits="userSpaceOnUse">
<stop stop-color="#4070FF"/>
<stop offset="1" stop-color="#365FD9"/>
</linearGradient>
<linearGradient id="paint11_linear" x1="434.599" y1="201.219" x2="434.599" y2="244.557" gradientUnits="userSpaceOnUse">
<stop stop-color="#4070FF"/>
<stop offset="1" stop-color="#365FD9"/>
</linearGradient>
<linearGradient id="paint12_linear" x1="112.872" y1="419.499" x2="112.872" y2="421.671" gradientUnits="userSpaceOnUse">
<stop stop-color="#4070FF"/>
<stop offset="1" stop-color="#365FD9"/>
</linearGradient>
<linearGradient id="paint13_linear" x1="111.14" y1="417.576" x2="111.14" y2="421.393" gradientUnits="userSpaceOnUse">
<stop stop-color="#4070FF"/>
<stop offset="1" stop-color="#365FD9"/>
</linearGradient>
<linearGradient id="paint14_linear" x1="156.682" y1="419.25" x2="156.682" y2="421.422" gradientUnits="userSpaceOnUse">
<stop stop-color="#4070FF"/>
<stop offset="1" stop-color="#365FD9"/>
</linearGradient>
<linearGradient id="paint15_linear" x1="154.95" y1="417.284" x2="154.95" y2="421.101" gradientUnits="userSpaceOnUse">
<stop stop-color="#4070FF"/>
<stop offset="1" stop-color="#365FD9"/>
</linearGradient>
<linearGradient id="paint16_linear" x1="159.15" y1="228.673" x2="159.15" y2="409.872" gradientUnits="userSpaceOnUse">
<stop stop-color="#4070FF"/>
<stop offset="1" stop-color="#365FD9"/>
</linearGradient>
<linearGradient id="paint17_linear" x1="158.821" y1="404.431" x2="158.821" y2="412.479" gradientUnits="userSpaceOnUse">
<stop stop-color="#4070FF"/>
<stop offset="1" stop-color="#365FD9"/>
</linearGradient>
<linearGradient id="paint18_linear" x1="113.617" y1="404.15" x2="113.617" y2="409.991" gradientUnits="userSpaceOnUse">
<stop stop-color="#4070FF"/>
<stop offset="1" stop-color="#365FD9"/>
</linearGradient>
<linearGradient id="paint19_linear" x1="132.546" y1="102.948" x2="132.546" y2="121.291" gradientUnits="userSpaceOnUse">
<stop stop-color="#4070FF"/>
<stop offset="1" stop-color="#365FD9"/>
</linearGradient>
<linearGradient id="paint20_linear" x1="141.474" y1="106.136" x2="141.474" y2="121.291" gradientUnits="userSpaceOnUse">
<stop stop-color="#4070FF"/>
<stop offset="1" stop-color="#365FD9"/>
</linearGradient>
<linearGradient id="paint21_linear" x1="189.948" y1="411.481" x2="189.948" y2="416.374" gradientUnits="userSpaceOnUse">
<stop stop-color="#4070FF"/>
<stop offset="1" stop-color="#365FD9"/>
</linearGradient>
<linearGradient id="paint22_linear" x1="214.343" y1="416.244" x2="214.343" y2="420.563" gradientUnits="userSpaceOnUse">
<stop stop-color="#4070FF"/>
<stop offset="1" stop-color="#365FD9"/>
</linearGradient>
<linearGradient id="paint23_linear" x1="237.571" y1="255.932" x2="237.571" y2="300.727" gradientUnits="userSpaceOnUse">
<stop stop-color="#4070FF"/>
<stop offset="1" stop-color="#365FD9"/>
</linearGradient>
<linearGradient id="paint24_linear" x1="225.381" y1="238.133" x2="225.381" y2="305.508" gradientUnits="userSpaceOnUse">
<stop stop-color="#4070FF"/>
<stop offset="1" stop-color="#365FD9"/>
</linearGradient>
<linearGradient id="paint25_linear" x1="221.519" y1="234.893" x2="221.519" y2="243.147" gradientUnits="userSpaceOnUse">
<stop stop-color="#4070FF"/>
<stop offset="1" stop-color="#365FD9"/>
</linearGradient>
<linearGradient id="paint26_linear" x1="199.849" y1="236.258" x2="200.276" y2="244.608" gradientUnits="userSpaceOnUse">
<stop stop-color="#4070FF"/>
<stop offset="1" stop-color="#365FD9"/>
</linearGradient>
<linearGradient id="paint27_linear" x1="220.034" y1="234.05" x2="220.461" y2="242.4" gradientUnits="userSpaceOnUse">
<stop stop-color="#4070FF"/>
<stop offset="1" stop-color="#365FD9"/>
</linearGradient>
<linearGradient id="paint28_linear" x1="209.987" y1="303.799" x2="209.987" y2="308.158" gradientUnits="userSpaceOnUse">
<stop stop-color="#4070FF"/>
<stop offset="1" stop-color="#365FD9"/>
</linearGradient>
<linearGradient id="paint29_linear" x1="238.945" y1="287.4" x2="238.945" y2="302.771" gradientUnits="userSpaceOnUse">
<stop stop-color="#4070FF"/>
<stop offset="1" stop-color="#365FD9"/>
</linearGradient>
<linearGradient id="paint30_linear" x1="283.96" y1="162.85" x2="283.96" y2="211.458" gradientUnits="userSpaceOnUse">
<stop stop-color="#4070FF"/>
<stop offset="1" stop-color="#365FD9"/>
</linearGradient>
<linearGradient id="paint31_linear" x1="312.038" y1="419.498" x2="312.038" y2="421.671" gradientUnits="userSpaceOnUse">
<stop stop-color="#4070FF"/>
<stop offset="1" stop-color="#365FD9"/>
</linearGradient>
<linearGradient id="paint32_linear" x1="312.037" y1="417.576" x2="312.037" y2="421.393" gradientUnits="userSpaceOnUse">
<stop stop-color="#4070FF"/>
<stop offset="1" stop-color="#365FD9"/>
</linearGradient>
<linearGradient id="paint33_linear" x1="268.229" y1="419.228" x2="268.229" y2="421.4" gradientUnits="userSpaceOnUse">
<stop stop-color="#4070FF"/>
<stop offset="1" stop-color="#365FD9"/>
</linearGradient>
<linearGradient id="paint34_linear" x1="268.227" y1="417.316" x2="268.227" y2="421.133" gradientUnits="userSpaceOnUse">
<stop stop-color="#4070FF"/>
<stop offset="1" stop-color="#365FD9"/>
</linearGradient>
<linearGradient id="paint35_linear" x1="281.89" y1="404.431" x2="281.89" y2="412.479" gradientUnits="userSpaceOnUse">
<stop stop-color="#4070FF"/>
<stop offset="1" stop-color="#365FD9"/>
</linearGradient>
<linearGradient id="paint36_linear" x1="325.883" y1="404.15" x2="325.883" y2="409.991" gradientUnits="userSpaceOnUse">
<stop stop-color="#4070FF"/>
<stop offset="1" stop-color="#365FD9"/>
</linearGradient>
<linearGradient id="paint37_linear" x1="325.721" y1="162.212" x2="325.721" y2="245.756" gradientUnits="userSpaceOnUse">
<stop stop-color="#4070FF"/>
<stop offset="1" stop-color="#365FD9"/>
</linearGradient>
<linearGradient id="paint38_linear" x1="358.978" y1="166.484" x2="358.978" y2="225.514" gradientUnits="userSpaceOnUse">
<stop stop-color="#4070FF"/>
<stop offset="1" stop-color="#365FD9"/>
</linearGradient>
</defs>
</svg>
