<svg width="500" height="500" viewBox="0 0 500 500" fill="none" xmlns="http://www.w3.org/2000/svg">
<path opacity="0.1" d="M153 314.46C194.9 328.73 247.49 312.65 289.88 292.56C458.43 228.78 364.48 95.4801 250.88 105.68C137.28 115.88 26.0999 271 153 314.46Z" fill="url(#paint0_linear)"/>
<path opacity="0.1" d="M250 436.56C357.082 436.56 443.89 431.492 443.89 425.24C443.89 418.988 357.082 413.92 250 413.92C142.917 413.92 56.11 418.988 56.11 425.24C56.11 431.492 142.917 436.56 250 436.56Z" fill="url(#paint1_linear)"/>
<path d="M205.72 417.01L213.75 416.89L215.59 398.27L207.57 398.39L205.72 417.01Z" fill="#B55B52"/>
<path d="M151.77 402.36L159.42 404.79L168.05 388.02L160.4 385.6L151.77 402.36Z" fill="#B55B52"/>
<path opacity="0.2" d="M215.59 398.27L214.64 407.87L206.61 408L207.56 398.4L215.59 398.27Z" fill="black"/>
<path opacity="0.2" d="M160.4 385.6L168.05 388.03L163.6 396.67L155.95 394.24L160.4 385.6Z" fill="black"/>
<path d="M217.62 406L204.03 406.21C204.03 406.21 209.39 353.4 211.16 328.45C211.69 320.86 211.44 310.13 210.81 298.58C210 284.02 209.47 278.19 208.38 259.79C207.6 246.67 206.64 238.17 206.64 238.17L234.77 240.48C234.77 240.48 235.88 304.19 232.69 328.48C229.37 353.7 217.62 406 217.62 406Z" fill="url(#paint2_linear)"/>
<path opacity="0.2" d="M214.38 255.78C217.9 268.9 214.48 298.22 211.18 306.19C211.08 303.7 210.95 301.19 210.81 298.55C210 283.99 209.47 278.17 208.37 259.76C208.37 259.4 208.37 259.04 208.31 258.69C210.149 257.375 212.203 256.391 214.38 255.78Z" fill="black"/>
<path d="M219.6 239.21C219.6 239.21 206.6 304.65 200.08 327.21C193 352 167.71 396 167.71 396L153.71 391.56C153.71 391.56 169.85 354.29 175.81 329.89C182.6 302.11 192 236.89 192 236.89L219.6 239.21Z" fill="url(#paint3_linear)"/>
<path d="M161.06 404.26L152.2 400.1C152.057 400.03 151.894 400.012 151.739 400.048C151.584 400.085 151.447 400.174 151.35 400.3L146.88 406.09C146.773 406.232 146.699 406.396 146.664 406.57C146.629 406.744 146.634 406.924 146.678 407.096C146.722 407.268 146.805 407.428 146.919 407.564C147.034 407.7 147.178 407.808 147.34 407.88C150.21 409.17 152.34 409.98 155.96 411.66C158.17 412.66 163.29 415.33 166.34 416.76C169.39 418.19 171.15 415.43 170.08 414.51C165.3 410.36 163.08 407.71 162.03 405.26C161.842 404.818 161.496 404.461 161.06 404.26Z" fill="#263238"/>
<path d="M213.68 416L204.91 416.14C204.752 416.141 204.6 416.197 204.478 416.297C204.356 416.397 204.272 416.536 204.24 416.69L202.77 423.85C202.732 424.023 202.734 424.202 202.775 424.373C202.817 424.545 202.897 424.705 203.01 424.841C203.123 424.977 203.265 425.086 203.427 425.158C203.588 425.231 203.763 425.266 203.94 425.26C207.1 425.16 211.67 424.9 215.64 424.84C220.29 424.77 220.82 424.96 226.27 424.84C229.57 424.79 230.43 421.45 229.04 421.17C222.74 419.89 221.1 419.82 215.62 416.56C215.037 416.199 214.366 416.005 213.68 416Z" fill="#263238"/>
<path d="M241.56 173.21L248.72 177.66C251.14 179.15 253.58 180.6 256.01 182.03C258.44 183.46 260.9 184.83 263.36 186.11C264.59 186.76 265.81 187.35 267.04 187.98L268.87 188.84L269.33 189.05L269.5 189.14C269.62 189.19 269.75 189.25 269.91 189.3C270.754 189.534 271.624 189.655 272.5 189.66C273.658 189.669 274.814 189.589 275.96 189.42C278.56 189.032 281.127 188.45 283.64 187.68C289.019 186.013 294.306 184.064 299.48 181.84L303.41 188.15C301 190.081 298.483 191.874 295.87 193.52C293.238 195.186 290.513 196.702 287.71 198.06C284.771 199.498 281.709 200.67 278.56 201.56C276.828 202.029 275.063 202.363 273.28 202.56C271.219 202.8 269.134 202.74 267.09 202.38C266.507 202.273 265.929 202.136 265.36 201.97L264.5 201.7L263.93 201.5L261.67 200.71C260.2 200.15 258.72 199.59 257.3 198.96C254.43 197.74 251.64 196.44 248.92 195.02C246.2 193.6 243.53 192.15 240.92 190.6C238.31 189.05 235.78 187.46 233.16 185.6L241.56 173.21Z" fill="url(#paint4_linear)"/>
<path opacity="0.7" d="M241.56 173.21L248.72 177.66C251.14 179.15 253.58 180.6 256.01 182.03C258.44 183.46 260.9 184.83 263.36 186.11C264.59 186.76 265.81 187.35 267.04 187.98L268.87 188.84L269.33 189.05L269.5 189.14C269.62 189.19 269.75 189.25 269.91 189.3C270.754 189.534 271.624 189.655 272.5 189.66C273.658 189.669 274.814 189.589 275.96 189.42C278.56 189.032 281.127 188.45 283.64 187.68C289.019 186.013 294.306 184.064 299.48 181.84L303.41 188.15C301 190.081 298.483 191.874 295.87 193.52C293.238 195.186 290.513 196.702 287.71 198.06C284.771 199.498 281.709 200.67 278.56 201.56C276.828 202.029 275.063 202.363 273.28 202.56C271.219 202.8 269.134 202.74 267.09 202.38C266.507 202.273 265.929 202.136 265.36 201.97L264.5 201.7L263.93 201.5L261.67 200.71C260.2 200.15 258.72 199.59 257.3 198.96C254.43 197.74 251.64 196.44 248.92 195.02C246.2 193.6 243.53 192.15 240.92 190.6C238.31 189.05 235.78 187.46 233.16 185.6L241.56 173.21Z" fill="white"/>
<path d="M224.88 179.29C226.59 186.77 246.71 195.48 246.71 195.48L255.28 179.35C250.738 175.526 245.635 172.423 240.15 170.15C230.73 166.23 223 171.08 224.88 179.29Z" fill="#263238"/>
<path d="M298.25 184.53L301.5 178.89L309.77 183.81C309.77 183.81 306.12 190.05 300.54 188.32L298.25 184.53Z" fill="#B55B52"/>
<path d="M306.58 174.58L313.71 179.51L309.77 183.81L301.5 178.89L306.58 174.58Z" fill="#B55B52"/>
<path d="M188.67 244.17C188.887 247.523 190.062 250.742 192.057 253.446C194.051 256.15 196.781 258.223 199.92 259.42C205.25 251.42 214.42 249.25 214.42 249.25C214.42 249.25 224.58 256.5 230.58 258.33C231.776 254.674 233.369 251.16 235.33 247.85L216.58 241.42L188.67 244.17Z" fill="url(#paint5_linear)"/>
<path opacity="0.7" d="M188.67 244.17C188.887 247.523 190.062 250.742 192.057 253.446C194.051 256.15 196.781 258.223 199.92 259.42C205.25 251.42 214.42 249.25 214.42 249.25C214.42 249.25 224.58 256.5 230.58 258.33C231.776 254.674 233.369 251.16 235.33 247.85L216.58 241.42L188.67 244.17Z" fill="white"/>
<path d="M192.54 167.09C197.54 198.39 186.89 239.19 186.65 245.78C192.92 246.3 223.97 249.16 236.85 250.21C244.33 195.48 237.45 169.52 237.45 169.52C237.45 169.52 234.78 168.66 231.1 167.83C229.95 167.57 228.71 167.32 227.41 167.09C226.69 166.96 225.96 166.85 225.21 166.74C219.154 166.122 213.067 165.848 206.98 165.92C205.83 165.92 204.65 165.92 203.52 166.01C202.39 166.1 201.42 166.13 200.44 166.2C196 166.55 192.54 167.09 192.54 167.09Z" fill="#263238"/>
<path d="M209.72 145.47C210.6 151.39 211.26 162.19 206.98 165.92C210.03 169.23 214.03 173.08 220.98 173.64C227.93 174.2 226.98 169.36 225.21 166.74C218.74 164.89 219.13 160.04 220.48 155.53L209.72 145.47Z" fill="#B55B52"/>
<path opacity="0.2" d="M214.1 149.58L220.47 155.53C220.144 156.578 219.907 157.652 219.76 158.74C217.28 158.27 213.97 155.37 213.82 152.74C213.723 151.678 213.818 150.608 214.1 149.58Z" fill="black"/>
<path d="M209.42 136.61C209.55 144.61 209.22 149.25 213.04 153.51C218.8 159.91 228.77 156.72 231.04 148.87C233.04 141.81 232.52 129.97 224.89 126.46C223.21 125.672 221.357 125.327 219.506 125.458C217.655 125.59 215.869 126.193 214.318 127.211C212.766 128.229 211.502 129.627 210.644 131.272C209.787 132.918 209.365 134.756 209.42 136.61Z" fill="#B55B52"/>
<path d="M209.11 143.94C212.35 145.34 216.64 135.04 216.73 131.78C216.82 128.52 204.92 134.86 204.92 134.86C204.92 134.86 201.88 140.83 209.11 143.94Z" fill="#263238"/>
<path d="M214.17 132.22C216.72 132.68 224.95 130.67 229.28 131.44C230.34 133 232.19 135.71 237 133.11C239.06 132 241.11 125.89 235.61 124.5C232.04 123.6 230.61 117.5 224.29 117.33C217.97 117.16 219.17 120.22 215.67 120.94C212.17 121.66 210.32 118.5 207.89 120.44C205.46 122.38 207.5 125.17 203.89 126.44C198.95 128.11 199 137.44 205.5 136.97C210.3 136.61 214.17 132.22 214.17 132.22Z" fill="#263238"/>
<path d="M205.43 145.21C206.427 146.948 208.069 148.224 210 148.76C212.56 149.45 213.82 147.15 213.08 144.76C212.42 142.59 210.28 139.63 207.72 140C205.16 140.37 204.24 143.06 205.43 145.21Z" fill="#B55B52"/>
<path d="M169.3 396.86L152.79 391.63L154.36 386.7L172.91 390.83L169.3 396.86Z" fill="url(#paint6_linear)"/>
<path opacity="0.3" d="M169.3 396.86L152.79 391.63L154.36 386.7L172.91 390.83L169.3 396.86Z" fill="black"/>
<path d="M219.33 406.26L203.14 406.51L203.06 401.28L220.38 400.72L219.33 406.26Z" fill="url(#paint7_linear)"/>
<path opacity="0.3" d="M219.33 406.26L203.14 406.51L203.06 401.28L220.38 400.72L219.33 406.26Z" fill="black"/>
<path d="M222.6 139.43C222.6 140.07 222.85 140.62 223.27 140.66C223.69 140.7 224.07 140.2 224.13 139.55C224.19 138.9 223.88 138.36 223.46 138.32C223.04 138.28 222.65 138.78 222.6 139.43Z" fill="#263238"/>
<path d="M229.89 140C229.89 140.64 230.14 141.2 230.56 141.23C230.98 141.26 231.37 140.77 231.42 140.12C231.47 139.47 231.17 138.93 230.75 138.89C230.33 138.85 230 139.37 229.89 140Z" fill="#263238"/>
<path d="M227.55 140.15C228.158 142.185 229.043 144.127 230.18 145.92C229.713 146.199 229.192 146.372 228.651 146.429C228.111 146.486 227.565 146.425 227.05 146.25L227.55 140.15Z" fill="#A02724"/>
<path d="M223.26 147.64C222.543 147.523 221.857 147.26 221.244 146.868C220.632 146.476 220.107 145.963 219.7 145.36C219.688 145.338 219.679 145.314 219.676 145.29C219.673 145.265 219.675 145.24 219.681 145.216C219.688 145.191 219.699 145.169 219.714 145.149C219.729 145.129 219.748 145.113 219.77 145.1C219.814 145.077 219.866 145.072 219.914 145.085C219.962 145.098 220.003 145.128 220.03 145.17C220.49 145.83 221.1 146.372 221.808 146.753C222.517 147.133 223.306 147.341 224.11 147.36C224.136 147.36 224.161 147.365 224.184 147.375C224.207 147.386 224.228 147.401 224.245 147.42C224.262 147.439 224.275 147.461 224.283 147.485C224.29 147.509 224.293 147.535 224.29 147.56C224.288 147.609 224.266 147.654 224.231 147.688C224.196 147.721 224.149 147.74 224.1 147.74C223.818 147.724 223.538 147.691 223.26 147.64Z" fill="#263238"/>
<path d="M220.74 149.31C220.292 148.737 219.966 148.079 219.782 147.376C219.598 146.672 219.56 145.939 219.67 145.22C219.675 145.196 219.684 145.173 219.698 145.153C219.712 145.133 219.729 145.116 219.75 145.103C219.771 145.09 219.794 145.081 219.818 145.077C219.842 145.073 219.866 145.074 219.89 145.08C219.939 145.09 219.982 145.118 220.01 145.159C220.038 145.2 220.049 145.251 220.04 145.3C219.932 146.099 220.015 146.912 220.28 147.673C220.546 148.434 220.988 149.122 221.57 149.68C221.588 149.698 221.602 149.719 221.611 149.742C221.621 149.765 221.626 149.79 221.626 149.815C221.626 149.84 221.621 149.865 221.611 149.888C221.602 149.911 221.588 149.932 221.57 149.95C221.552 149.968 221.531 149.982 221.508 149.991C221.485 150.001 221.46 150.006 221.435 150.006C221.41 150.006 221.385 150.001 221.362 149.991C221.339 149.982 221.318 149.968 221.3 149.95C221.097 149.752 220.91 149.538 220.74 149.31Z" fill="#263238"/>
<path d="M219.22 136.92C219.155 136.902 219.093 136.872 219.04 136.83C218.971 136.759 218.932 136.664 218.932 136.565C218.932 136.466 218.971 136.371 219.04 136.3C219.415 135.825 219.899 135.448 220.451 135.199C221.002 134.95 221.606 134.837 222.21 134.87C222.26 134.875 222.308 134.89 222.352 134.914C222.395 134.938 222.434 134.97 222.465 135.01C222.495 135.049 222.518 135.094 222.531 135.142C222.544 135.19 222.547 135.241 222.54 135.29C222.535 135.34 222.52 135.389 222.496 135.433C222.472 135.477 222.44 135.516 222.401 135.548C222.362 135.579 222.317 135.603 222.269 135.617C222.221 135.631 222.17 135.636 222.12 135.63C221.643 135.61 221.169 135.704 220.736 135.904C220.303 136.104 219.924 136.404 219.63 136.78C219.583 136.841 219.519 136.887 219.446 136.912C219.373 136.937 219.295 136.94 219.22 136.92Z" fill="#263238"/>
<path d="M231.94 137.34C231.879 137.326 231.822 137.298 231.773 137.258C231.725 137.218 231.686 137.167 231.66 137.11C231.484 136.665 231.205 136.269 230.845 135.954C230.484 135.639 230.054 135.415 229.59 135.3C229.492 135.281 229.406 135.224 229.35 135.141C229.294 135.059 229.272 134.958 229.29 134.86C229.297 134.811 229.314 134.764 229.34 134.722C229.366 134.68 229.399 134.643 229.44 134.614C229.48 134.585 229.525 134.565 229.573 134.554C229.621 134.543 229.671 134.541 229.72 134.55C230.309 134.687 230.856 134.964 231.316 135.358C231.775 135.751 232.133 136.249 232.36 136.81C232.397 136.903 232.397 137.007 232.36 137.1C232.323 137.193 232.251 137.268 232.16 137.31C232.091 137.34 232.015 137.35 231.94 137.34Z" fill="#263238"/>
<path d="M162.86 406.65C162.226 406.338 161.632 405.952 161.09 405.5C161.061 405.477 161.039 405.445 161.026 405.41C161.014 405.375 161.012 405.336 161.02 405.3C161.032 405.264 161.053 405.233 161.081 405.208C161.109 405.184 161.143 405.167 161.18 405.16C161.52 405.16 164.54 404.78 165.18 405.57C165.25 405.657 165.294 405.763 165.307 405.875C165.319 405.986 165.3 406.099 165.25 406.2C165.189 406.377 165.086 406.536 164.95 406.665C164.814 406.794 164.65 406.888 164.47 406.94C163.916 407.029 163.348 406.927 162.86 406.65ZM161.7 405.49C162.82 406.32 163.79 406.72 164.34 406.57C164.464 406.536 164.577 406.471 164.67 406.382C164.762 406.293 164.831 406.182 164.87 406.06C164.87 405.92 164.87 405.85 164.87 405.81C164.54 405.39 162.91 405.39 161.7 405.49Z" fill="url(#paint8_linear)"/>
<path d="M161.12 405.52C161.087 405.505 161.059 405.481 161.04 405.45C161.025 405.421 161.017 405.388 161.017 405.355C161.017 405.322 161.025 405.29 161.04 405.26C161.09 405.17 162.25 403.16 163.41 402.86C163.551 402.823 163.699 402.815 163.844 402.837C163.988 402.86 164.127 402.912 164.25 402.99C164.38 403.051 164.485 403.155 164.547 403.284C164.609 403.414 164.624 403.561 164.59 403.7C164.36 404.58 162.16 405.49 161.22 405.54C161.185 405.545 161.15 405.538 161.12 405.52ZM163.97 403.27C163.822 403.214 163.658 403.214 163.51 403.27C162.76 403.46 161.95 404.57 161.58 405.15C162.58 404.93 164.08 404.15 164.22 403.64C164.22 403.59 164.22 403.48 164.05 403.35L163.97 403.27Z" fill="url(#paint9_linear)"/>
<path d="M214.49 417.06C214.456 417.048 214.426 417.026 214.403 416.998C214.38 416.97 214.365 416.936 214.36 416.9C214.352 416.862 214.358 416.822 214.376 416.787C214.394 416.753 214.424 416.725 214.46 416.71C214.82 416.51 218.02 414.83 219 415.35C219.092 415.401 219.17 415.474 219.226 415.564C219.282 415.653 219.314 415.755 219.32 415.86C219.343 416.031 219.325 416.205 219.265 416.367C219.206 416.529 219.108 416.674 218.98 416.79C218.11 417.58 215.81 417.3 214.51 417.06H214.49ZM218.75 415.66C218.14 415.46 216.4 416.15 215.14 416.78C216.92 417.05 218.24 416.95 218.73 416.51C218.814 416.432 218.877 416.335 218.913 416.226C218.95 416.118 218.959 416.003 218.94 415.89C218.943 415.848 218.934 415.807 218.912 415.771C218.891 415.735 218.858 415.707 218.82 415.69L218.75 415.66Z" fill="url(#paint10_linear)"/>
<path d="M214.49 417.06H214.44C214.411 417.043 214.389 417.017 214.374 416.987C214.36 416.957 214.355 416.923 214.36 416.89C214.36 416.8 214.55 414.63 215.55 413.78C215.686 413.66 215.844 413.568 216.016 413.51C216.188 413.452 216.369 413.428 216.55 413.44C217.08 413.44 217.23 413.74 217.27 413.96C217.43 414.86 215.54 416.63 214.58 417.08C214.549 417.08 214.518 417.073 214.49 417.06ZM216.77 413.82H216.57C216.431 413.807 216.29 413.824 216.157 413.868C216.025 413.913 215.903 413.985 215.8 414.08C215.218 414.787 214.869 415.657 214.8 416.57C215.8 415.96 217.06 414.57 216.96 414.03C216.94 414 216.92 413.87 216.77 413.82Z" fill="url(#paint11_linear)"/>
<path d="M197 186.34C195.41 186.2 194.06 186.03 192.62 185.83C191.18 185.63 189.8 185.39 188.41 185.12C185.61 184.6 182.84 183.97 180.09 183.29C177.34 182.61 174.6 181.83 171.9 180.95L169.69 180.24C168.86 179.99 168.08 179.67 167.29 179.36C165.767 178.726 164.291 177.988 162.87 177.15C160.166 175.568 157.629 173.715 155.3 171.62C153.059 169.643 150.967 167.504 149.04 165.22C147.142 162.994 145.378 160.657 143.76 158.22C142.116 155.804 140.633 153.281 139.32 150.67L145.58 146.67C147.24 148.53 149.1 150.53 150.95 152.35C152.8 154.17 154.72 155.97 156.67 157.64C160.339 160.881 164.438 163.6 168.85 165.72C169.852 166.169 170.881 166.556 171.93 166.88C172.44 167.03 172.93 167.19 173.44 167.29C173.71 167.35 173.9 167.4 174.23 167.46L175.23 167.64C177.86 168.09 180.47 168.57 183.1 168.97C185.73 169.37 188.35 169.82 190.97 170.23L198.67 171.41L197 186.34Z" fill="url(#paint12_linear)"/>
<path opacity="0.7" d="M197 186.34C195.41 186.2 194.06 186.03 192.62 185.83C191.18 185.63 189.8 185.39 188.41 185.12C185.61 184.6 182.84 183.97 180.09 183.29C177.34 182.61 174.6 181.83 171.9 180.95L169.69 180.24C168.86 179.99 168.08 179.67 167.29 179.36C165.767 178.726 164.291 177.988 162.87 177.15C160.166 175.568 157.629 173.715 155.3 171.62C153.059 169.643 150.967 167.504 149.04 165.22C147.142 162.994 145.378 160.657 143.76 158.22C142.116 155.804 140.633 153.281 139.32 150.67L145.58 146.67C147.24 148.53 149.1 150.53 150.95 152.35C152.8 154.17 154.72 155.97 156.67 157.64C160.339 160.881 164.438 163.6 168.85 165.72C169.852 166.169 170.881 166.556 171.93 166.88C172.44 167.03 172.93 167.19 173.44 167.29C173.71 167.35 173.9 167.4 174.23 167.46L175.23 167.64C177.86 168.09 180.47 168.57 183.1 168.97C185.73 169.37 188.35 169.82 190.97 170.23L198.67 171.41L197 186.34Z" fill="white"/>
<path d="M206.51 169C203.83 163.71 183.41 166.87 183.41 166.87L180.19 185.09C186.073 187.195 192.254 188.35 198.5 188.51C208.31 188.62 210.72 177.25 206.51 169Z" fill="#263238"/>
<path d="M146.51 147.62L146.29 141.45L137.07 144.18C137.07 144.18 137.79 148.77 140.07 150.79C140.517 151.165 141.063 151.401 141.642 151.471C142.221 151.54 142.808 151.439 143.33 151.18L144.83 150.46C145.357 150.203 145.797 149.797 146.096 149.292C146.394 148.787 146.538 148.206 146.51 147.62Z" fill="#B55B52"/>
<path d="M142.71 134.16L135.01 137.96L137.07 144.18L146.29 141.45L142.71 134.16Z" fill="#B55B52"/>
<path d="M309.4 186C309.5 187 309.65 188.14 309.79 189.23C309.93 190.32 310.11 191.44 310.31 192.54C310.72 194.75 311.1 196.96 311.64 199.13C312.654 203.45 314.035 207.676 315.77 211.76C315.96 212.27 316.22 212.76 316.45 213.24L317.11 214.65C317.336 215.12 317.681 215.524 318.11 215.82C319.669 216.73 321.411 217.284 323.21 217.44C327.607 217.891 332.042 217.814 336.42 217.21L337.49 221.32C336.28 221.77 335.15 222.12 333.95 222.45C332.75 222.78 331.57 223.08 330.35 223.3C327.858 223.806 325.323 224.071 322.78 224.09C319.859 224.165 316.965 223.523 314.35 222.22C312.73 221.362 311.367 220.088 310.4 218.53C310.25 218.3 310.21 218.21 310.12 218.06L309.89 217.64L309.44 216.82C309.14 216.26 308.81 215.72 308.55 215.15C306.331 210.7 304.591 206.027 303.36 201.21C302.73 198.83 302.17 196.44 301.76 194.02C301.55 192.81 301.37 191.6 301.2 190.37C301.03 189.14 300.91 187.97 300.82 186.59L309.4 186Z" fill="#E8BCBE"/>
<path d="M334.52 217.25L333.21 217.48C333.21 217.48 331.67 219.77 334.21 223.31C334.52 223.13 335.29 222.79 335.29 222.79C335.29 222.79 333 219.85 334.52 217.25Z" fill="#263238"/>
<path d="M305.86 176.23C309.37 176.82 312.96 190.78 312.96 190.78L304 198C304 198 293.71 184.47 296 180.47C298.49 176.32 300.73 175.37 305.86 176.23Z" fill="url(#paint13_linear)"/>
<path opacity="0.2" d="M305.81 179.42L309.64 193.47L304.62 197.53L305.81 179.42Z" fill="black"/>
<path d="M335.14 217.9L340.46 212.51L341.08 221.01C340.231 221.577 339.245 221.905 338.226 221.958C337.207 222.01 336.192 221.787 335.29 221.31L335.14 217.9Z" fill="#FFC3BD"/>
<path d="M344.07 211.88L345.65 218.84L341.08 221.01L340.46 212.51L344.07 211.88Z" fill="#FFC3BD"/>
<path d="M303.25 416.68H311.63L312.18 397.28H303.81L303.25 416.68Z" fill="#FFC3BD"/>
<path d="M247.33 396.32L255.33 398.83L263.71 381.13L255.72 378.62L247.33 396.32Z" fill="#FFC3BD"/>
<path d="M256.51 398L248.51 393.12C248.373 393.032 248.209 392.998 248.048 393.024C247.888 393.049 247.742 393.134 247.64 393.26L242.86 399.07C242.739 399.22 242.651 399.395 242.604 399.583C242.557 399.77 242.55 399.965 242.585 400.155C242.62 400.345 242.696 400.525 242.808 400.683C242.919 400.841 243.063 400.973 243.23 401.07C246.07 402.73 247.52 403.38 251.06 405.53C253.24 406.85 257.16 410.11 260.17 411.93C263.18 413.75 265.17 410.88 264.05 409.85C260.848 407.034 258.56 403.325 257.48 399.2C257.318 398.693 256.972 398.265 256.51 398Z" fill="#263238"/>
<path d="M311.91 415.71H302.5C302.337 415.709 302.179 415.767 302.055 415.873C301.932 415.98 301.852 416.128 301.83 416.29L300.76 423.73C300.739 423.918 300.758 424.109 300.815 424.289C300.873 424.469 300.968 424.635 301.095 424.776C301.222 424.917 301.377 425.029 301.55 425.106C301.723 425.182 301.911 425.221 302.1 425.22C305.38 425.17 306.96 424.97 311.1 424.97C313.65 424.97 318.92 425.24 322.43 425.24C325.94 425.24 326.14 421.76 324.67 421.45C318.11 420.03 315.52 418.09 313.31 416.23C312.919 415.896 312.423 415.712 311.91 415.71Z" fill="#263238"/>
<g opacity="0.2">
<path opacity="0.2" d="M312.18 397.29L311.89 407.29H303.51L303.8 397.29H312.18Z" fill="black"/>
<path opacity="0.2" d="M255.71 378.63L263.71 381.14L259.38 390.26L251.39 387.75L255.71 378.63Z" fill="black"/>
</g>
<path d="M305.86 176.23C305.86 176.23 309.95 177.3 306.07 226.95L272.16 229.78C271.58 215.93 270.89 207.42 261.93 179.65C266.595 178.272 271.354 177.236 276.17 176.55C281.266 175.757 286.413 175.329 291.57 175.27C298.23 175.32 305.86 176.23 305.86 176.23Z" fill="url(#paint14_linear)"/>
<path d="M303.17 150.08C303.95 141.71 314.7 137.74 313.28 144.86C311.86 151.98 317.86 153.86 315.5 159.09C313.39 163.78 301.67 166.21 303.17 150.08Z" fill="#263238"/>
<path d="M309 151.8C309 153.185 308.589 154.538 307.82 155.689C307.051 156.84 305.958 157.737 304.679 158.267C303.4 158.797 301.992 158.936 300.634 158.666C299.277 158.395 298.029 157.729 297.05 156.75C296.071 155.771 295.405 154.524 295.135 153.166C294.864 151.808 295.003 150.4 295.533 149.121C296.063 147.842 296.96 146.749 298.111 145.98C299.262 145.211 300.616 144.8 302 144.8C303.857 144.8 305.637 145.538 306.95 146.85C308.263 148.163 309 149.944 309 151.8Z" fill="url(#paint15_linear)"/>
<path d="M280.78 136.43C279.694 136.478 278.64 136.81 277.722 137.393C276.805 137.975 276.056 138.788 275.55 139.75C273.49 143.82 270.33 147.75 264.06 151.8C256.41 156.8 261.22 165.08 269.4 164.67C268.33 171.83 275.58 176 282.92 172.17C286.16 175.45 298.72 175.59 298.58 168.77C298.4 160.17 301.5 156.2 301.5 156.2C301.5 156.2 302.09 135.18 280.78 136.43Z" fill="#263238"/>
<path opacity="0.4" d="M300.74 198.41C299.942 198.01 299.071 197.775 298.18 197.72C298.715 196.996 299.102 196.174 299.32 195.3C299.421 194.886 299.43 194.455 299.347 194.037C299.264 193.619 299.091 193.224 298.84 192.88C298.607 192.544 298.299 192.267 297.939 192.072C297.579 191.878 297.179 191.771 296.77 191.76C296.485 191.758 296.203 191.812 295.94 191.92C295.137 192.235 294.413 192.724 293.82 193.35C293.707 192.4 293.422 191.479 292.98 190.63C292.772 190.186 292.445 189.808 292.036 189.538C291.626 189.268 291.15 189.116 290.66 189.1C290.193 189.101 289.739 189.249 289.361 189.524C288.984 189.799 288.704 190.186 288.56 190.63C288.249 191.502 288.1 192.424 288.12 193.35C287.442 192.728 286.651 192.243 285.79 191.92C285.519 191.813 285.231 191.759 284.94 191.76C284.551 191.761 284.169 191.866 283.834 192.062C283.498 192.259 283.221 192.541 283.03 192.88C282.83 193.249 282.716 193.658 282.696 194.077C282.677 194.497 282.754 194.915 282.92 195.3C283.273 196.187 283.777 197.006 284.41 197.72C283.553 197.767 282.716 198.003 281.96 198.41C281.54 198.643 281.199 198.995 280.98 199.423C280.761 199.85 280.674 200.333 280.73 200.81C280.762 201.312 280.925 201.796 281.202 202.215C281.479 202.635 281.861 202.974 282.31 203.2C283.107 203.604 283.978 203.842 284.87 203.9C284.331 204.618 283.943 205.438 283.73 206.31C283.627 206.723 283.616 207.154 283.697 207.572C283.778 207.99 283.95 208.385 284.2 208.73C284.433 209.069 284.743 209.348 285.105 209.544C285.466 209.741 285.869 209.849 286.28 209.86C286.561 209.862 286.84 209.808 287.1 209.7C287.902 209.384 288.626 208.896 289.22 208.27C289.343 209.219 289.631 210.14 290.07 210.99C290.277 211.434 290.603 211.812 291.013 212.081C291.423 212.349 291.9 212.498 292.39 212.51C292.855 212.511 293.307 212.364 293.683 212.091C294.059 211.818 294.338 211.432 294.48 210.99C294.8 210.12 294.949 209.197 294.92 208.27C295.604 208.888 296.398 209.373 297.26 209.7C297.527 209.807 297.812 209.861 298.1 209.86C298.49 209.86 298.874 209.755 299.21 209.556C299.546 209.358 299.822 209.072 300.01 208.73C300.212 208.362 300.328 207.953 300.349 207.534C300.369 207.115 300.295 206.696 300.13 206.31C299.778 205.424 299.27 204.608 298.63 203.9C299.491 203.849 300.331 203.61 301.09 203.2C301.507 202.967 301.847 202.616 302.066 202.191C302.284 201.766 302.373 201.285 302.32 200.81C302.288 200.307 302.125 199.821 301.848 199.401C301.571 198.98 301.189 198.638 300.74 198.41Z" fill="white"/>
<path d="M293.884 206.426C296.652 205.258 297.837 201.803 296.532 198.71C295.226 195.616 291.924 194.055 289.156 195.223C286.388 196.391 285.202 199.846 286.508 202.94C287.813 206.034 291.116 207.595 293.884 206.426Z" fill="url(#paint16_linear)"/>
<path opacity="0.2" d="M293.884 206.426C296.652 205.258 297.837 201.803 296.532 198.71C295.226 195.616 291.924 194.055 289.156 195.223C286.388 196.391 285.202 199.846 286.508 202.94C287.813 206.034 291.116 207.595 293.884 206.426Z" fill="black"/>
<path d="M276.25 159.09C277.63 163.96 279.36 172.96 276.17 176.55C276.17 176.55 277.94 181.41 287.17 180.7C296.17 180 291.59 175.27 291.59 175.27C285.95 174.41 285.75 170.27 286.39 166.37L276.25 159.09Z" fill="#FFC3BD"/>
<path d="M276.17 176.56C281.265 175.759 286.412 175.328 291.57 175.27H292.57C293.31 176.76 293.87 182.55 290.16 185.54C284.58 184.46 278.16 182.24 274.16 176.84C274.82 176.75 275.5 176.65 276.17 176.56Z" fill="#FFC3BD"/>
<path opacity="0.2" d="M284.7 165.16L277.8 166.84C277.955 168.228 278.002 169.625 277.94 171.02C280.231 170.762 282.379 169.778 284.07 168.21C284.747 167.511 285.212 166.633 285.41 165.68L284.7 165.16Z" fill="black"/>
<path d="M296 152.65C293.51 160.58 292.62 163.99 287.53 167.12C279.87 171.82 270.67 167.02 270.74 158.5C270.81 150.84 274.87 139.15 283.55 137.9C285.463 137.614 287.418 137.823 289.228 138.506C291.038 139.188 292.643 140.323 293.89 141.801C295.138 143.279 295.987 145.052 296.356 146.951C296.726 148.85 296.603 150.812 296 152.65Z" fill="#FFC3BD"/>
<path d="M302.33 145.47C302.33 134.17 285.91 127.82 278.57 131.33C272.66 134.16 274.43 142.6 279.22 142.5C280.438 142.525 281.654 142.377 282.83 142.06C282.83 142.06 285.33 148.25 291.61 146.46C289.78 149.17 287.79 156.46 293.48 158.3C299.17 160.14 310.67 154.16 302.33 145.47Z" fill="#263238"/>
<path d="M306.07 227C306.07 227 318 290.71 319.6 316.22C321.24 342.75 313.67 405.35 313.67 405.35H302.35C302.35 405.35 302.16 345.9 299 320C295.55 291.74 281.25 229 281.25 229L306.07 227Z" fill="#263238"/>
<path d="M301.37 405.76H314.66L315.63 401.52L300.75 401L301.37 405.76Z" fill="url(#paint17_linear)"/>
<path opacity="0.2" d="M292.78 244.17C302.51 260.23 298.4 291.35 296.4 302.96C293.47 286.01 289.18 265.35 285.92 250.19C286.45 241.41 288.29 236.77 292.78 244.17Z" fill="black"/>
<path d="M297.12 227.7C297.12 227.7 295 295.2 291 317.15C286.24 343.21 261.9 389 261.9 389L251 385.6C251 385.6 264.93 334.6 269.08 320.72C277.92 291.13 264.74 249.23 272.16 229.78L297.12 227.7Z" fill="#263238"/>
<path d="M249.56 385.77L263.08 390.02L265.86 386.22L250.18 380.51L249.56 385.77Z" fill="url(#paint18_linear)"/>
<path d="M282 151.23C281.83 151.89 281.36 152.33 280.93 152.23C280.5 152.13 280.28 151.5 280.45 150.85C280.62 150.2 281.09 149.75 281.52 149.85C281.95 149.95 282.11 150.58 282 151.23Z" fill="#263238"/>
<path d="M274.53 149.39C274.37 150.05 273.89 150.49 273.46 150.39C273.03 150.29 272.82 149.66 272.98 149.01C273.14 148.36 273.62 147.91 274.05 148.01C274.48 148.11 274.7 148.74 274.53 149.39Z" fill="#263238"/>
<path d="M274.23 148.1L272.77 147.25C272.77 147.25 273.27 148.68 274.23 148.1Z" fill="#263238"/>
<path d="M276.53 151.14C275.572 152.491 274.435 153.706 273.15 154.75C273.428 155.067 273.771 155.321 274.156 155.494C274.541 155.666 274.958 155.754 275.38 155.75L276.53 151.14Z" fill="#ED847E"/>
<path d="M278.92 159.05C278.603 158.945 278.293 158.821 277.99 158.68C277.966 158.668 277.945 158.652 277.928 158.632C277.91 158.612 277.897 158.589 277.889 158.564C277.88 158.539 277.877 158.512 277.879 158.486C277.881 158.459 277.888 158.434 277.9 158.41C277.911 158.387 277.926 158.366 277.945 158.348C277.964 158.331 277.986 158.318 278.011 158.309C278.035 158.301 278.061 158.298 278.087 158.299C278.112 158.301 278.137 158.308 278.16 158.32C278.909 158.703 279.739 158.902 280.58 158.902C281.421 158.902 282.251 158.703 283 158.32C283.047 158.296 283.102 158.29 283.153 158.303C283.205 158.316 283.25 158.347 283.28 158.39C283.303 158.436 283.309 158.489 283.296 158.538C283.283 158.588 283.253 158.631 283.21 158.66C282.557 159.007 281.841 159.22 281.104 159.287C280.368 159.354 279.625 159.274 278.92 159.05Z" fill="#263238"/>
<path d="M279.77 161.12C279.442 161.201 279.107 161.255 278.77 161.28C278.744 161.283 278.718 161.28 278.693 161.272C278.669 161.265 278.646 161.252 278.626 161.235C278.606 161.218 278.59 161.198 278.579 161.174C278.568 161.151 278.561 161.126 278.56 161.1C278.557 161.074 278.56 161.048 278.567 161.023C278.575 160.999 278.588 160.976 278.605 160.956C278.621 160.936 278.642 160.92 278.665 160.909C278.689 160.898 278.714 160.891 278.74 160.89C279.579 160.837 280.395 160.586 281.119 160.159C281.844 159.731 282.457 159.139 282.91 158.43C282.937 158.386 282.98 158.353 283.03 158.338C283.079 158.323 283.133 158.327 283.18 158.35C283.226 158.375 283.261 158.418 283.275 158.468C283.29 158.519 283.285 158.573 283.26 158.62C282.874 159.248 282.366 159.792 281.767 160.222C281.168 160.651 280.489 160.956 279.77 161.12Z" fill="#263238"/>
<path d="M296.37 160.63C295.431 161.936 294.015 162.82 292.43 163.09C290.33 163.42 289.52 161.48 290.3 159.62C291.01 157.95 292.96 155.76 294.98 156.27C295.417 156.393 295.816 156.622 296.142 156.937C296.469 157.252 296.711 157.643 296.849 158.076C296.987 158.508 297.015 158.967 296.932 159.413C296.848 159.859 296.655 160.277 296.37 160.63Z" fill="#FFC3BD"/>
<path d="M285.83 148.76C285.75 148.784 285.665 148.782 285.586 148.755C285.507 148.729 285.439 148.678 285.39 148.61C284.39 147.1 281.98 147.06 281.96 147.06C281.857 147.055 281.759 147.011 281.686 146.937C281.614 146.863 281.572 146.764 281.57 146.66C281.57 146.554 281.612 146.452 281.687 146.377C281.762 146.302 281.864 146.26 281.97 146.26C282.08 146.26 284.77 146.31 286.05 148.16C286.108 148.248 286.128 148.355 286.108 148.458C286.087 148.56 286.027 148.651 285.94 148.71C285.909 148.737 285.871 148.754 285.83 148.76Z" fill="#263238"/>
<path d="M273.82 144.26C273.752 144.254 273.687 144.231 273.631 144.193C273.574 144.154 273.529 144.101 273.5 144.04C273.455 143.944 273.45 143.835 273.486 143.736C273.521 143.637 273.595 143.555 273.69 143.51C274.249 143.219 274.87 143.067 275.5 143.067C276.13 143.067 276.751 143.219 277.31 143.51C277.355 143.536 277.395 143.57 277.426 143.612C277.458 143.653 277.48 143.701 277.492 143.752C277.504 143.802 277.506 143.855 277.497 143.906C277.488 143.958 277.469 144.006 277.44 144.05C277.414 144.095 277.379 144.134 277.338 144.166C277.297 144.198 277.25 144.221 277.199 144.234C277.149 144.247 277.097 144.249 277.045 144.242C276.994 144.234 276.944 144.217 276.9 144.19C276.456 143.96 275.964 143.84 275.465 143.84C274.965 143.84 274.473 143.96 274.03 144.19C273.968 144.233 273.895 144.257 273.82 144.26Z" fill="#263238"/>
<path d="M259.7 401.22H259.8C259.988 401.18 260.163 401.091 260.306 400.963C260.45 400.835 260.558 400.672 260.62 400.49C260.681 400.387 260.713 400.269 260.713 400.15C260.713 400.03 260.681 399.913 260.62 399.81C260.01 398.93 256.98 399.01 256.62 399.02C256.581 399.025 256.545 399.039 256.513 399.062C256.482 399.084 256.456 399.115 256.44 399.15C256.426 399.186 256.423 399.225 256.432 399.263C256.441 399.3 256.461 399.334 256.49 399.36C257.24 400.1 258.66 401.33 259.7 401.22ZM257.1 399.39C258.31 399.39 259.93 399.55 260.25 400.01C260.279 400.056 260.295 400.11 260.295 400.165C260.295 400.22 260.279 400.274 260.25 400.32C260.211 400.442 260.14 400.551 260.045 400.637C259.951 400.723 259.835 400.783 259.71 400.81C259.15 400.93 258.19 400.4 257.1 399.39Z" fill="url(#paint19_linear)"/>
<path d="M256.91 399.39C257.91 399.28 259.79 398.58 260.09 397.77C260.142 397.622 260.143 397.46 260.092 397.311C260.041 397.163 259.942 397.035 259.81 396.95C259.692 396.851 259.554 396.781 259.404 396.745C259.255 396.708 259.1 396.707 258.95 396.74C257.75 396.96 256.49 399.01 256.44 399.1C256.419 399.129 256.407 399.163 256.405 399.198C256.403 399.233 256.411 399.268 256.427 399.299C256.444 399.331 256.469 399.357 256.499 399.374C256.53 399.392 256.565 399.401 256.6 399.4L256.91 399.39ZM259.08 397.12C259.165 397.11 259.252 397.117 259.334 397.141C259.417 397.165 259.493 397.206 259.56 397.26C259.76 397.42 259.75 397.54 259.72 397.63C259.52 398.18 258 398.85 256.99 398.98C257.44 398.32 258.31 397.26 258.99 397.13L259.08 397.12Z" fill="url(#paint20_linear)"/>
<path d="M315.06 417.18C315.766 417.238 316.472 417.055 317.06 416.66C317.199 416.537 317.305 416.381 317.368 416.206C317.43 416.031 317.449 415.844 317.42 415.66C317.414 415.55 317.379 415.443 317.32 415.35C317.26 415.258 317.178 415.182 317.08 415.13C316.08 414.56 312.71 416.27 312.34 416.47C312.304 416.488 312.273 416.517 312.254 416.553C312.234 416.589 312.226 416.63 312.23 416.67C312.236 416.712 312.254 416.75 312.283 416.781C312.311 416.811 312.349 416.832 312.39 416.84C313.267 417.037 314.161 417.151 315.06 417.18ZM316.55 415.44C316.678 415.436 316.805 415.463 316.92 415.52C316.959 415.54 316.991 415.57 317.014 415.607C317.037 415.644 317.049 415.687 317.05 415.73C317.069 415.848 317.058 415.968 317.018 416.08C316.978 416.192 316.91 416.292 316.82 416.37C316.32 416.83 314.94 416.9 313.08 416.6C314.161 416.016 315.335 415.624 316.55 415.44Z" fill="url(#paint21_linear)"/>
<path d="M312.46 416.88H312.54C313.54 416.42 315.54 414.62 315.36 413.67C315.36 413.44 315.16 413.16 314.61 413.11C314.415 413.088 314.217 413.107 314.029 413.166C313.842 413.224 313.668 413.321 313.52 413.45C312.46 414.33 312.27 416.58 312.26 416.68C312.259 416.714 312.266 416.748 312.28 416.779C312.294 416.81 312.314 416.838 312.34 416.86L312.46 416.88ZM314.46 413.49H314.57C314.94 413.49 314.96 413.67 314.97 413.72C315.06 414.29 313.72 415.72 312.7 416.33C312.782 415.377 313.156 414.473 313.77 413.74C313.96 413.572 314.207 413.483 314.46 413.49Z" fill="url(#paint22_linear)"/>
<path d="M281.65 149.94L280.18 149.09C280.18 149.09 280.69 150.52 281.65 149.94Z" fill="#263238"/>
<path d="M271.49 227.83L270.88 230.94C270.78 231.19 271.08 231.4 271.47 231.37L306.36 228.46C306.67 228.46 306.91 228.26 306.91 228.07L307 225C307 224.79 306.72 224.63 306.39 224.66L272 227.53C271.897 227.533 271.795 227.562 271.706 227.614C271.617 227.667 271.543 227.741 271.49 227.83Z" fill="url(#paint23_linear)"/>
<path opacity="0.2" d="M271.49 227.83L270.88 230.94C270.78 231.19 271.08 231.4 271.47 231.37L306.36 228.46C306.67 228.46 306.91 228.26 306.91 228.07L307 225C307 224.79 306.72 224.63 306.39 224.66L272 227.53C271.897 227.533 271.795 227.562 271.706 227.614C271.617 227.667 271.543 227.741 271.49 227.83Z" fill="black"/>
<path d="M276.42 231.29L275.5 231.36C275.32 231.36 275.17 231.3 275.17 231.18L275.28 227.18C275.28 227.06 275.43 226.96 275.62 226.94L276.53 226.86C276.72 226.86 276.87 226.93 276.86 227.05L276.76 231.05C276.76 231.16 276.6 231.27 276.42 231.29Z" fill="#263238"/>
<path d="M303.81 229L302.89 229.08C302.71 229.08 302.56 229.01 302.56 228.9L302.66 224.9C302.66 224.78 302.82 224.67 303 224.66L303.92 224.58C304.1 224.58 304.25 224.65 304.25 224.76L304.15 228.76C304.14 228.88 304 229 303.81 229Z" fill="#263238"/>
<path d="M290.11 230.15L289.2 230.22C289.01 230.22 288.86 230.15 288.87 230.04L288.97 226.04C288.97 225.92 289.13 225.81 289.31 225.8L290.23 225.72C290.41 225.72 290.56 225.79 290.56 225.91L290.45 229.91C290.45 230 290.3 230.13 290.11 230.15Z" fill="#263238"/>
<path d="M275 239.43L283.12 243.43L275.32 246.85C275.32 246.85 271.05 243.57 271.61 240.14L275 239.43Z" fill="#FFC3BD"/>
<path d="M267.27 191.12C266.41 195.43 265.64 199.99 265.07 204.42C264.489 208.812 264.212 213.239 264.24 217.67C264.3 218.67 264.32 219.91 264.43 220.67C264.563 221.595 264.781 222.505 265.08 223.39C265.764 225.343 266.642 227.222 267.7 229C268.796 230.916 270.005 232.766 271.32 234.54C272.64 236.33 274.07 238.15 275.49 239.81L272.65 243C268.724 240.053 265.216 236.588 262.22 232.7C260.629 230.652 259.286 228.423 258.22 226.06C257.639 224.776 257.194 223.436 256.89 222.06C256.642 220.737 256.462 219.402 256.35 218.06C255.99 213.179 256.077 208.275 256.61 203.41C257.064 198.612 257.829 193.849 258.9 189.15L267.27 191.12Z" fill="#E8BCBE"/>
<path d="M261.93 179.65C258.62 181 255.51 193 255.51 193L269.51 201.32C269.51 201.32 273.51 191.15 271.71 186.88C269.81 182.44 265.71 178.15 261.93 179.65Z" fill="url(#paint24_linear)"/>
<path d="M286.22 249.77L279.53 252.28L275.36 246.85L283.16 243.43L286.22 249.77Z" fill="#FFC3BD"/>
<defs>
<linearGradient id="paint0_linear" x1="381.713" y1="105.126" x2="381.713" y2="319.901" gradientUnits="userSpaceOnUse">
<stop stop-color="#4070FF"/>
<stop offset="1" stop-color="#365FD9"/>
</linearGradient>
<linearGradient id="paint1_linear" x1="443.89" y1="413.92" x2="443.89" y2="436.56" gradientUnits="userSpaceOnUse">
<stop stop-color="#4070FF"/>
<stop offset="1" stop-color="#365FD9"/>
</linearGradient>
<linearGradient id="paint2_linear" x1="234.957" y1="238.17" x2="234.957" y2="406.21" gradientUnits="userSpaceOnUse">
<stop stop-color="#4070FF"/>
<stop offset="1" stop-color="#365FD9"/>
</linearGradient>
<linearGradient id="paint3_linear" x1="219.6" y1="236.89" x2="219.6" y2="396" gradientUnits="userSpaceOnUse">
<stop stop-color="#4070FF"/>
<stop offset="1" stop-color="#365FD9"/>
</linearGradient>
<linearGradient id="paint4_linear" x1="303.41" y1="173.21" x2="303.41" y2="202.704" gradientUnits="userSpaceOnUse">
<stop stop-color="#4070FF"/>
<stop offset="1" stop-color="#365FD9"/>
</linearGradient>
<linearGradient id="paint5_linear" x1="235.33" y1="241.42" x2="235.33" y2="259.42" gradientUnits="userSpaceOnUse">
<stop stop-color="#4070FF"/>
<stop offset="1" stop-color="#365FD9"/>
</linearGradient>
<linearGradient id="paint6_linear" x1="172.91" y1="386.7" x2="172.91" y2="396.86" gradientUnits="userSpaceOnUse">
<stop stop-color="#4070FF"/>
<stop offset="1" stop-color="#365FD9"/>
</linearGradient>
<linearGradient id="paint7_linear" x1="220.38" y1="400.72" x2="220.38" y2="406.51" gradientUnits="userSpaceOnUse">
<stop stop-color="#4070FF"/>
<stop offset="1" stop-color="#365FD9"/>
</linearGradient>
<linearGradient id="paint8_linear" x1="165.31" y1="405.069" x2="165.31" y2="406.971" gradientUnits="userSpaceOnUse">
<stop stop-color="#4070FF"/>
<stop offset="1" stop-color="#365FD9"/>
</linearGradient>
<linearGradient id="paint9_linear" x1="164.608" y1="402.825" x2="164.608" y2="405.541" gradientUnits="userSpaceOnUse">
<stop stop-color="#4070FF"/>
<stop offset="1" stop-color="#365FD9"/>
</linearGradient>
<linearGradient id="paint10_linear" x1="219.33" y1="415.251" x2="219.33" y2="417.311" gradientUnits="userSpaceOnUse">
<stop stop-color="#4070FF"/>
<stop offset="1" stop-color="#365FD9"/>
</linearGradient>
<linearGradient id="paint11_linear" x1="217.28" y1="413.437" x2="217.28" y2="417.08" gradientUnits="userSpaceOnUse">
<stop stop-color="#4070FF"/>
<stop offset="1" stop-color="#365FD9"/>
</linearGradient>
<linearGradient id="paint12_linear" x1="198.67" y1="146.67" x2="198.67" y2="186.34" gradientUnits="userSpaceOnUse">
<stop stop-color="#4070FF"/>
<stop offset="1" stop-color="#365FD9"/>
</linearGradient>
<linearGradient id="paint13_linear" x1="312.96" y1="175.94" x2="312.96" y2="198" gradientUnits="userSpaceOnUse">
<stop stop-color="#4070FF"/>
<stop offset="1" stop-color="#365FD9"/>
</linearGradient>
<linearGradient id="paint14_linear" x1="307.742" y1="175.27" x2="307.742" y2="229.78" gradientUnits="userSpaceOnUse">
<stop stop-color="#4070FF"/>
<stop offset="1" stop-color="#365FD9"/>
</linearGradient>
<linearGradient id="paint15_linear" x1="309" y1="144.8" x2="309" y2="158.8" gradientUnits="userSpaceOnUse">
<stop stop-color="#4070FF"/>
<stop offset="1" stop-color="#365FD9"/>
</linearGradient>
<linearGradient id="paint16_linear" x1="294.168" y1="193.108" x2="298.896" y2="204.311" gradientUnits="userSpaceOnUse">
<stop stop-color="#4070FF"/>
<stop offset="1" stop-color="#365FD9"/>
</linearGradient>
<linearGradient id="paint17_linear" x1="315.63" y1="401" x2="315.63" y2="405.76" gradientUnits="userSpaceOnUse">
<stop stop-color="#4070FF"/>
<stop offset="1" stop-color="#365FD9"/>
</linearGradient>
<linearGradient id="paint18_linear" x1="265.86" y1="380.51" x2="265.86" y2="390.02" gradientUnits="userSpaceOnUse">
<stop stop-color="#4070FF"/>
<stop offset="1" stop-color="#365FD9"/>
</linearGradient>
<linearGradient id="paint19_linear" x1="260.713" y1="399.014" x2="260.713" y2="401.227" gradientUnits="userSpaceOnUse">
<stop stop-color="#4070FF"/>
<stop offset="1" stop-color="#365FD9"/>
</linearGradient>
<linearGradient id="paint20_linear" x1="260.13" y1="396.716" x2="260.13" y2="399.4" gradientUnits="userSpaceOnUse">
<stop stop-color="#4070FF"/>
<stop offset="1" stop-color="#365FD9"/>
</linearGradient>
<linearGradient id="paint21_linear" x1="317.433" y1="415.014" x2="317.433" y2="417.191" gradientUnits="userSpaceOnUse">
<stop stop-color="#4070FF"/>
<stop offset="1" stop-color="#365FD9"/>
</linearGradient>
<linearGradient id="paint22_linear" x1="315.371" y1="413.101" x2="315.371" y2="416.88" gradientUnits="userSpaceOnUse">
<stop stop-color="#4070FF"/>
<stop offset="1" stop-color="#365FD9"/>
</linearGradient>
<linearGradient id="paint23_linear" x1="307" y1="224.656" x2="307" y2="231.373" gradientUnits="userSpaceOnUse">
<stop stop-color="#4070FF"/>
<stop offset="1" stop-color="#365FD9"/>
</linearGradient>
<linearGradient id="paint24_linear" x1="272.176" y1="179.345" x2="272.176" y2="201.32" gradientUnits="userSpaceOnUse">
<stop stop-color="#4070FF"/>
<stop offset="1" stop-color="#365FD9"/>
</linearGradient>
</defs>
</svg>
