<svg width="500" height="500" viewBox="0 0 500 500" fill="none" xmlns="http://www.w3.org/2000/svg">
<path opacity="0.1" d="M291.473 142.851C254.653 109.021 235.183 75.071 174.413 78.201C133.413 80.311 87.553 100.721 70.773 135.531C40.433 198.531 67.593 331.081 165.553 329.761C213.433 329.111 249.403 307.471 299.793 314.761C350.183 322.051 393.653 326.431 427.793 281.001C449.643 251.901 453.603 206.501 421.243 184.141C382.123 157.161 332.843 180.861 291.473 142.851Z" fill="url(#paint0_linear)"/>
<path opacity="0.1" d="M249.89 436.64C356.972 436.64 443.78 431.572 443.78 425.32C443.78 419.068 356.972 414 249.89 414C142.808 414 56 419.068 56 425.32C56 431.572 142.808 436.64 249.89 436.64Z" fill="url(#paint1_linear)"/>
<path d="M114.585 108.455C115.365 101.955 125.585 96.8453 134.455 99.9153C144.635 103.445 143.025 112.775 149.755 113.145C156.485 113.515 159.855 125.435 153.965 130.955C148.075 136.475 158.895 138.955 159.255 146.695C159.615 154.435 159.645 160.445 165.985 166.175C173.985 173.385 161.655 196.645 141.405 186.015C123.255 176.485 100.535 190.195 96.4748 176.965C92.9648 165.545 110.185 153.155 106.585 147.625C102.985 142.095 105.375 136.895 109.465 130.205C114.495 122.005 102.145 109.775 114.585 108.455Z" fill="#263238"/>
<path d="M155.71 162C158.18 167 160.71 172.13 163.36 177.08C164.7 179.54 166.06 181.99 167.45 184.36C168.753 186.623 170.214 188.791 171.82 190.85L172.15 191.24C172.208 191.315 172.279 191.38 172.36 191.43C172.62 191.608 172.907 191.743 173.21 191.83C174.185 192.104 175.198 192.222 176.21 192.18C178.775 192.073 181.32 191.684 183.8 191.02C186.43 190.38 189.07 189.54 191.71 188.62C194.35 187.7 197 186.68 199.54 185.62L201.86 189.83C196.884 193.13 191.558 195.87 185.98 198C183.003 199.145 179.896 199.918 176.73 200.3C174.876 200.515 173.001 200.441 171.17 200.08C170.07 199.842 169.009 199.448 168.02 198.91C167.478 198.624 166.962 198.289 166.48 197.91C166.232 197.71 165.995 197.496 165.77 197.27L165.33 196.74C163.22 194.421 161.313 191.925 159.63 189.28C157.96 186.79 156.45 184.28 155 181.71C152.08 176.6 149.42 171.47 147 166.12L155.71 162Z" fill="#CE7A63"/>
<path d="M149.08 153.001C153.08 152.861 160.27 167.561 160.27 167.561L149.75 180.331C149.75 180.331 137.47 164.941 139.16 160.001C140.91 154.771 143.19 153.211 149.08 153.001Z" fill="url(#paint2_linear)"/>
<path opacity="0.2" d="M150 157L155.47 174.15L150.54 180.12L150 157Z" fill="black"/>
<path d="M205.85 182.324L196.18 186.954L196 190.364C198.79 193.154 204.64 191.364 204.64 191.364L211.8 190.434L212.72 186.434C212.841 185.933 212.851 185.412 212.748 184.908C212.645 184.403 212.432 183.927 212.125 183.514C211.818 183.101 211.423 182.76 210.97 182.517C210.516 182.273 210.014 182.132 209.5 182.104L207.5 182.004C206.932 181.977 206.366 182.087 205.85 182.324Z" fill="#CE7A63"/>
<path d="M130 417.01H139.5L140.37 395H130.86L130 417.01Z" fill="#CE7A63"/>
<path d="M140.74 416.001H130.06C129.971 415.997 129.882 416.01 129.799 416.041C129.716 416.072 129.639 416.119 129.574 416.179C129.509 416.24 129.456 416.312 129.42 416.393C129.383 416.474 129.363 416.562 129.36 416.651L129 425.101C129.008 425.548 129.19 425.975 129.507 426.291C129.825 426.606 130.252 426.786 130.7 426.791C134.41 426.731 136.18 426.511 140.88 426.511C143.77 426.511 150.42 426.811 154.41 426.811C158.4 426.811 158.21 422.861 156.52 422.511C148.91 420.901 145.11 418.691 142.38 416.591C141.914 416.218 141.337 416.011 140.74 416.001Z" fill="#263238"/>
<g opacity="0.2">
<path opacity="0.2" d="M139.96 395L139.51 406.34H130L130.45 395H139.96Z" fill="black"/>
</g>
<path d="M152.86 158.027C153.07 164.027 152.03 178.077 145.71 210.757L107.12 209.607C108.24 193.917 108.54 184.237 102 151.777C107.435 150.821 112.933 150.262 118.45 150.107C124.295 149.863 130.15 150.037 135.97 150.627C140.44 151.167 145.25 152.097 148.41 152.757C149.634 153.011 150.738 153.668 151.545 154.624C152.351 155.579 152.815 156.777 152.86 158.027Z" fill="url(#paint3_linear)"/>
<path d="M121.32 130C122.26 135.67 123.05 146 119 149.68C119 149.68 122.75 156.68 132.38 159.23C141.27 154.72 136.52 150.23 136.52 150.23C130.28 148.54 130.58 143.88 131.8 139.54L121.32 130Z" fill="#CE7A63"/>
<path d="M132.33 159.25L131.18 157L125 158.4L132.33 159.25Z" fill="#E0E0E0"/>
<path d="M131.13 156.75C129.13 155.85 119.96 149.86 119.6 148C118.033 148.151 116.489 148.487 115 149C115 149 116.17 155.76 123.38 163.54C125.24 159.32 127.71 157.47 131.13 156.75Z" fill="white"/>
<path d="M132 159.25L132.52 157L136.31 157.27L132 159.25Z" fill="#E0E0E0"/>
<path d="M133 157.15C136.06 155.15 135.31 150.86 135 149C136.56 149.217 138.101 149.551 139.61 150C141.063 152.014 141.884 154.416 141.968 156.898C142.052 159.381 141.394 161.832 140.08 163.94C138.6 159.94 136.07 158.5 133 157.15Z" fill="white"/>
<path opacity="0.2" d="M125.27 134L131.48 139.62C131.18 140.633 130.969 141.67 130.85 142.72C128.45 142.3 125.23 139.56 125.05 137.04C124.939 136.022 125.014 134.992 125.27 134Z" fill="black"/>
<path d="M118.021 118.603C118.431 128.023 118.411 132.023 123.081 136.943C130.081 144.333 141.591 141.753 144.001 132.403C146.171 123.973 145.121 109.973 136.001 106.073C133.987 105.194 131.781 104.846 129.593 105.063C127.406 105.279 125.311 106.053 123.507 107.309C121.704 108.566 120.253 110.264 119.293 112.241C118.332 114.218 117.895 116.408 118.021 118.603Z" fill="#CE7A63"/>
<path d="M116.94 108C120.43 109.75 125.24 109.45 126.14 111.55C127.04 113.65 124.51 126.18 119.28 126.28C114.47 119.79 113.75 111.01 116.94 108Z" fill="#263238"/>
<path d="M117 109.265C124.7 114.135 150.08 118.685 141.79 107.695C135.49 99.3552 118.92 103.555 117 109.265Z" fill="#263238"/>
<path d="M146.39 210.84C146.39 210.84 150.12 281.07 150.31 309.93C150.51 339.93 142.06 404.7 142.06 404.7H129.2C129.2 404.7 131.65 339.25 129.67 309.63C127.51 277.34 120 210 120 210L146.39 210.84Z" fill="#263238"/>
<path d="M128.24 404.4H143.33L143.95 399.58L127 399L128.24 404.4Z" fill="url(#paint4_linear)"/>
<path opacity="0.2" d="M123 234.811C124.39 233.081 126.21 233.971 128.59 238.911C136.71 255.751 132.59 282.621 129.11 298.101C127.55 278.831 124.97 253.441 123 234.811Z" fill="black"/>
<path d="M134 121.37C134 122.14 134.38 122.77 134.88 122.78C135.38 122.79 135.8 122.17 135.81 121.41C135.82 120.65 135.43 120.01 134.93 120C134.43 119.99 134.01 120.61 134 121.37Z" fill="#263238"/>
<path d="M143 121.37C143 122.14 143.38 122.77 143.88 122.78C144.38 122.79 144.8 122.17 144.81 121.41C144.82 120.65 144.43 120.01 143.93 120C143.43 119.99 143.01 120.61 143 121.37Z" fill="#263238"/>
<path d="M143 120.5L144.85 120C144.85 120 143.89 121.42 143 120.5Z" fill="#263238"/>
<path d="M139.1 122C139.751 123.761 140.643 125.423 141.75 126.94C141.353 127.214 140.902 127.398 140.427 127.479C139.952 127.56 139.465 127.537 139 127.41L139.1 122Z" fill="#BA4D3C"/>
<path d="M135.197 130.913C135.57 130.973 135.948 131.007 136.327 131.013C136.36 131.02 136.395 131.019 136.428 131.011C136.461 131.003 136.492 130.988 136.519 130.967C136.546 130.945 136.567 130.918 136.582 130.887C136.597 130.856 136.604 130.822 136.604 130.788C136.604 130.754 136.597 130.72 136.582 130.689C136.567 130.658 136.546 130.631 136.519 130.609C136.492 130.588 136.461 130.572 136.428 130.564C136.395 130.556 136.36 130.556 136.327 130.563C135.371 130.573 134.428 130.355 133.574 129.928C132.72 129.5 131.98 128.874 131.417 128.103C131.384 128.053 131.333 128.019 131.276 128.006C131.218 127.993 131.157 128.002 131.107 128.033C131.081 128.048 131.059 128.068 131.042 128.092C131.024 128.117 131.012 128.144 131.005 128.173C130.999 128.202 130.998 128.232 131.004 128.261C131.009 128.29 131.02 128.318 131.037 128.343C131.525 129.026 132.144 129.605 132.858 130.046C133.572 130.488 134.367 130.782 135.197 130.913Z" fill="#263238"/>
<path d="M115.256 126.321C115.865 128.039 117.131 129.446 118.776 130.231C120.966 131.231 122.456 129.391 122.176 127.111C121.926 125.111 120.486 122.111 118.176 122.001C117.656 121.987 117.141 122.104 116.679 122.341C116.216 122.579 115.821 122.929 115.53 123.36C115.239 123.79 115.061 124.288 115.013 124.805C114.965 125.323 115.049 125.844 115.256 126.321Z" fill="#CE7A63"/>
<path d="M130.372 119.335C130.465 119.355 130.562 119.344 130.648 119.302C130.733 119.26 130.802 119.191 130.842 119.105C131.842 117.265 134.472 116.895 134.502 116.895C134.562 116.887 134.619 116.868 134.671 116.838C134.723 116.809 134.768 116.769 134.804 116.721C134.841 116.674 134.867 116.62 134.882 116.562C134.897 116.504 134.901 116.444 134.892 116.385C134.875 116.267 134.812 116.16 134.716 116.089C134.62 116.018 134.5 115.988 134.382 116.005C134.252 116.005 131.232 116.435 130.052 118.685C130.025 118.737 130.007 118.795 130.002 118.854C129.996 118.913 130.003 118.973 130.02 119.029C130.038 119.086 130.067 119.139 130.105 119.184C130.143 119.23 130.19 119.267 130.242 119.295C130.282 119.319 130.326 119.332 130.372 119.335Z" fill="#263238"/>
<path d="M144.925 116.913C145.002 116.928 145.081 116.922 145.155 116.895C145.229 116.869 145.294 116.823 145.345 116.763C145.384 116.718 145.414 116.666 145.433 116.609C145.451 116.552 145.459 116.492 145.454 116.433C145.449 116.373 145.433 116.315 145.405 116.262C145.378 116.209 145.34 116.162 145.295 116.123C144.758 115.647 144.114 115.307 143.417 115.133C142.721 114.959 141.993 114.956 141.295 115.123C141.187 115.163 141.098 115.242 141.047 115.345C140.996 115.447 140.986 115.566 141.019 115.676C141.052 115.786 141.126 115.879 141.226 115.936C141.325 115.993 141.443 116.01 141.555 115.983C142.108 115.866 142.681 115.882 143.227 116.03C143.773 116.177 144.276 116.453 144.695 116.833C144.763 116.88 144.842 116.908 144.925 116.913Z" fill="#263238"/>
<path d="M106.373 166.76C103.633 170.68 100.873 174.87 98.3026 179.02C95.7462 183.14 93.4096 187.393 91.3026 191.76L90.9226 192.56L90.7326 192.97C90.7326 193.07 90.7326 192.97 90.7326 192.97C90.7326 192.97 90.6426 193.11 90.6426 193.42C90.6509 194.297 90.7822 195.169 91.0326 196.01C91.662 198.203 92.4714 200.34 93.4526 202.4C95.5126 206.72 98.0026 211.1 100.523 215.32L96.7226 218.32C93.1159 214.528 89.8718 210.406 87.0326 206.01C85.5038 203.688 84.2171 201.215 83.1927 198.63C82.5744 197.095 82.1836 195.478 82.0326 193.83C81.9421 192.722 82.0402 191.606 82.3226 190.53C82.3226 190.38 82.4126 190.22 82.4626 190.06L82.6126 189.66L82.7926 189.19L83.1526 188.26C84.1526 185.76 85.2126 183.36 86.3726 181.01C87.5326 178.66 88.7326 176.4 90.0326 174.09C92.6211 169.566 95.4692 165.195 98.5626 161L106.373 166.76Z" fill="#CE7A63"/>
<path d="M102.95 151.172C99.04 152.232 94 165.412 94 165.412L108.69 176.582C108.69 176.582 114.49 165.632 113.01 160.582C111.49 155.332 107.4 149.962 102.95 151.172Z" fill="url(#paint5_linear)"/>
<path d="M144.228 417.406C145.023 417.491 145.822 417.285 146.478 416.826C146.616 416.683 146.717 416.507 146.769 416.314C146.822 416.122 146.825 415.92 146.778 415.726C146.752 415.599 146.698 415.479 146.621 415.375C146.543 415.271 146.443 415.186 146.328 415.126C145.098 414.496 141.508 416.426 141.098 416.646C141.059 416.671 141.03 416.708 141.014 416.751C140.998 416.794 140.996 416.841 141.008 416.886C141.018 416.933 141.043 416.976 141.079 417.008C141.114 417.04 141.16 417.061 141.208 417.066C142.202 417.27 143.213 417.384 144.228 417.406ZM145.728 415.406C145.875 415.398 146.023 415.425 146.158 415.486C146.205 415.507 146.245 415.54 146.275 415.583C146.305 415.625 146.323 415.674 146.328 415.726C146.364 415.851 146.366 415.984 146.334 416.11C146.303 416.236 146.238 416.352 146.148 416.446C145.618 416.966 144.068 417.056 141.918 416.706C143.102 416.062 144.393 415.635 145.728 415.446V415.406Z" fill="url(#paint6_linear)"/>
<path d="M141.25 417.289H141.34C142.42 416.779 144.46 414.729 144.17 413.649C144.11 413.389 143.89 413.079 143.26 413.009C143.044 412.985 142.825 413.008 142.618 413.075C142.411 413.142 142.221 413.253 142.06 413.399C140.96 414.399 141 416.959 141 417.069C141.004 417.11 141.017 417.148 141.037 417.183C141.058 417.218 141.086 417.247 141.12 417.269C141.162 417.285 141.206 417.292 141.25 417.289ZM143.13 413.429H143.26C143.68 413.429 143.72 413.639 143.74 413.689C143.91 414.339 142.55 415.949 141.46 416.689C141.46 415.949 141.66 414.409 142.38 413.759C142.479 413.657 142.596 413.574 142.727 413.518C142.857 413.461 142.998 413.431 143.14 413.429H143.13Z" fill="url(#paint7_linear)"/>
<path d="M90 417.01H99.51L102.67 395H93.16L90 417.01Z" fill="#CE7A63"/>
<path d="M99.8021 416H89.1021C88.9171 415.998 88.7374 416.062 88.596 416.182C88.4546 416.301 88.3609 416.467 88.3321 416.65L87.0121 425.1C86.985 425.312 87.0036 425.528 87.0667 425.733C87.1299 425.937 87.2361 426.126 87.3782 426.286C87.5202 426.446 87.6949 426.574 87.8905 426.661C88.0861 426.748 88.298 426.792 88.5121 426.79C92.2321 426.73 94.0321 426.51 98.7321 426.51C101.622 426.51 103.982 426.81 107.972 426.81C111.962 426.81 112.222 422.86 110.562 422.51C103.132 420.9 103.842 418.69 101.362 416.59C100.926 416.219 100.375 416.011 99.8021 416Z" fill="#263238"/>
<path d="M101.162 417.406C101.979 417.481 102.797 417.276 103.482 416.826C103.634 416.689 103.752 416.518 103.825 416.327C103.898 416.135 103.924 415.929 103.902 415.726C103.897 415.601 103.859 415.48 103.792 415.375C103.726 415.27 103.632 415.184 103.522 415.126C102.372 414.496 98.522 416.426 98.122 416.646C98.0804 416.669 98.0467 416.705 98.0253 416.747C98.004 416.79 97.9958 416.838 98.002 416.886C98.0064 416.932 98.0268 416.975 98.0597 417.008C98.0925 417.041 98.1358 417.061 98.182 417.066C99.1626 417.272 100.16 417.385 101.162 417.406ZM102.882 415.406C103.027 415.395 103.171 415.423 103.302 415.486C103.347 415.508 103.384 415.542 103.411 415.585C103.437 415.627 103.452 415.676 103.452 415.726C103.468 415.859 103.452 415.994 103.405 416.119C103.358 416.244 103.282 416.356 103.182 416.446C102.602 416.966 101.032 417.056 98.932 416.706C100.169 416.068 101.504 415.642 102.882 415.446V415.406Z" fill="url(#paint8_linear)"/>
<path d="M98.2217 417.288H98.3117C99.4517 416.778 101.722 414.728 101.562 413.648C101.562 413.388 101.342 413.078 100.722 413.008C100.498 412.986 100.272 413.01 100.057 413.077C99.8427 413.144 99.6436 413.253 99.4717 413.398C98.2617 414.398 98.0117 416.958 98.0017 417.068C97.9968 417.106 98.0026 417.145 98.0185 417.18C98.0344 417.216 98.0597 417.246 98.0917 417.268C98.1328 417.285 98.1774 417.291 98.2217 417.288ZM100.532 413.428H100.662C101.072 413.428 101.092 413.638 101.102 413.688C101.202 414.338 99.6617 415.948 98.4917 416.688C98.598 415.606 99.0344 414.583 99.7417 413.758C99.955 413.553 100.237 413.436 100.532 413.428Z" fill="url(#paint9_linear)"/>
<g opacity="0.2">
<path opacity="0.2" d="M103.14 395L101.51 406.34H92L93.63 395H103.14Z" fill="black"/>
</g>
<path d="M107.13 209.04C97.87 223.74 100.46 277.88 99 306.74C97.48 336.74 90 404.01 90 404.01H102.85C102.85 404.01 115.19 335.59 120.94 306.58C127.29 274.58 135.02 209 135.02 209L107.13 209.04Z" fill="#263238"/>
<path d="M89.34 404.4H104.42L104.96 399.58L88 399L89.34 404.4Z" fill="url(#paint10_linear)"/>
<path d="M135 120.5L136.85 120C136.85 120 135.88 121.42 135 120.5Z" fill="#263238"/>
<path d="M107.104 207.26L106.034 210.7C105.894 210.97 106.204 211.25 106.644 211.26L146.364 212.44C146.714 212.44 147.004 212.29 147.034 212.07L147.484 208.63C147.484 208.39 147.224 208.18 146.844 208.17L107.764 207.01C107.642 206.989 107.516 207.001 107.4 207.045C107.284 207.089 107.182 207.163 107.104 207.26Z" fill="url(#paint11_linear)"/>
<path d="M112.342 211.95H111.342C111.142 211.95 110.982 211.83 111.002 211.7L111.622 207.23C111.622 207.1 111.832 207 112.032 207H113.032C113.242 207 113.392 207.12 113.382 207.25L112.752 211.73C112.732 211.86 112.552 211.96 112.342 211.95Z" fill="#263238"/>
<path d="M143.392 212.951H142.342C142.132 212.951 141.982 212.831 142.002 212.701L142.622 208.231C142.622 208.101 142.832 207.991 143.032 208.001H144.082C144.292 208.001 144.442 208.121 144.432 208.251L143.802 212.721C143.782 212.851 143.602 212.961 143.392 212.951Z" fill="#263238"/>
<path d="M127.352 211.951H126.352C126.142 211.951 125.982 211.831 126.002 211.701L126.632 207.221C126.632 207.091 126.832 206.991 127.042 207.001H128.042C128.242 207.001 128.402 207.121 128.382 207.251L127.762 211.721C127.752 211.861 127.582 211.951 127.352 211.951Z" fill="#263238"/>
<path d="M97.45 213L107.57 214.74L100.18 220.97C100.28 221.03 94.57 218.82 94 214.85L97.45 213Z" fill="#CE7A63"/>
<path d="M110.23 221.86L108 223.54C107.503 223.91 106.9 224.11 106.28 224.11C105.66 224.11 105.057 223.91 104.56 223.54L100 220.23L107.39 214L110.64 217.57C110.915 217.869 111.123 218.223 111.253 218.608C111.382 218.994 111.428 219.402 111.39 219.806C111.351 220.211 111.228 220.603 111.028 220.956C110.828 221.31 110.556 221.618 110.23 221.86Z" fill="#CE7A63"/>
<path d="M401.27 191H156.9C151.985 191 148 194.985 148 199.9V344.9C148 349.815 151.985 353.8 156.9 353.8H401.27C406.185 353.8 410.17 349.815 410.17 344.9V199.9C410.17 194.985 406.185 191 401.27 191Z" fill="white"/>
<path d="M400.78 353.8H156.4C153.908 353.797 151.518 352.806 149.756 351.044C147.994 349.282 147.003 346.892 147 344.4V199.4C147.003 196.908 147.994 194.518 149.756 192.756C151.518 190.994 153.908 190.003 156.4 190H400.78C403.273 190.003 405.664 190.994 407.427 192.756C409.191 194.517 410.185 196.907 410.19 199.4V344.4C410.185 346.893 409.191 349.283 407.427 351.044C405.664 352.806 403.273 353.797 400.78 353.8ZM156.4 190.96C154.176 190.965 152.045 191.851 150.473 193.423C148.901 194.996 148.015 197.126 148.01 199.35V344.35C148.013 346.574 148.897 348.707 150.47 350.28C152.043 351.853 154.176 352.737 156.4 352.74H400.78C403.005 352.74 405.139 351.856 406.713 350.283C408.286 348.709 409.17 346.575 409.17 344.35V199.35C409.167 197.126 408.283 194.993 406.71 193.42C405.137 191.847 403.004 190.963 400.78 190.96H156.4Z" fill="url(#paint12_linear)"/>
<path d="M407.216 354H151.446C150.441 353.999 149.447 354.215 148.533 354.632C147.618 355.05 146.804 355.66 146.146 356.42L136.706 367.35C135.828 368.365 135.26 369.611 135.07 370.939C134.881 372.268 135.076 373.623 135.635 374.843C136.193 376.063 137.091 377.097 138.221 377.822C139.35 378.547 140.664 378.931 142.006 378.93H416.656C417.998 378.931 419.312 378.547 420.442 377.822C421.572 377.097 422.469 376.063 423.028 374.843C423.586 373.623 423.782 372.268 423.592 370.939C423.402 369.611 422.834 368.365 421.956 367.35L412.506 356.42C411.85 355.661 411.037 355.052 410.125 354.634C409.212 354.217 408.22 354.001 407.216 354Z" fill="white"/>
<path d="M416.157 378.94H141.507C140.069 378.94 138.661 378.526 137.45 377.748C136.24 376.971 135.279 375.862 134.68 374.553C134.082 373.245 133.872 371.793 134.075 370.368C134.279 368.944 134.887 367.609 135.827 366.52L145.267 355.6C145.973 354.785 146.845 354.131 147.825 353.682C148.805 353.234 149.87 353.001 150.947 353H406.707C407.787 353 408.854 353.232 409.836 353.68C410.817 354.129 411.691 354.784 412.397 355.6L421.837 366.52C422.778 367.609 423.386 368.944 423.589 370.368C423.793 371.793 423.583 373.245 422.984 374.553C422.386 375.862 421.425 376.971 420.214 377.748C419.004 378.526 417.596 378.94 416.157 378.94ZM150.947 354.05C150.015 354.049 149.094 354.25 148.246 354.638C147.399 355.026 146.645 355.593 146.037 356.3L136.587 367.23C135.772 368.171 135.244 369.327 135.068 370.56C134.891 371.793 135.073 373.051 135.592 374.183C136.111 375.315 136.944 376.274 137.993 376.946C139.042 377.617 140.262 377.973 141.507 377.97H416.157C417.402 377.971 418.621 377.614 419.668 376.942C420.715 376.27 421.547 375.31 422.065 374.178C422.582 373.046 422.764 371.79 422.587 370.558C422.41 369.326 421.882 368.171 421.067 367.23L411.627 356.3C411.017 355.593 410.262 355.026 409.413 354.638C408.564 354.25 407.641 354.049 406.707 354.05H150.947Z" fill="url(#paint13_linear)"/>
<path d="M139.126 371C138.484 370.999 137.857 371.196 137.331 371.564C136.805 371.932 136.405 372.453 136.187 373.057C135.968 373.661 135.941 374.317 136.109 374.937C136.277 375.557 136.632 376.11 137.126 376.52C138.374 377.553 139.947 378.112 141.566 378.1H416.236C417.958 378.114 419.622 377.486 420.906 376.34C421.351 375.908 421.656 375.353 421.783 374.746C421.91 374.139 421.852 373.508 421.618 372.935C421.384 372.361 420.983 371.87 420.468 371.525C419.953 371.18 419.346 370.998 418.726 371H139.126Z" fill="url(#paint14_linear)"/>
<path d="M405 344.83V199.83C405 197.715 403.285 196 401.17 196L156.79 196C154.675 196 152.96 197.715 152.96 199.83V344.83C152.96 346.945 154.675 348.66 156.79 348.66H401.17C403.285 348.66 405 346.945 405 344.83Z" fill="url(#paint15_linear)"/>
<path opacity="0.3" d="M399.51 346.15H159C158.204 346.15 157.441 345.834 156.879 345.271C156.316 344.709 156 343.946 156 343.15V202C156 201.204 156.316 200.441 156.879 199.879C157.441 199.316 158.204 199 159 199H399.51C400.306 199 401.069 199.316 401.631 199.879C402.194 200.441 402.51 201.204 402.51 202V343.14C402.511 343.535 402.435 343.926 402.285 344.291C402.134 344.656 401.914 344.988 401.635 345.268C401.356 345.547 401.025 345.769 400.66 345.921C400.296 346.072 399.905 346.15 399.51 346.15ZM159 199.51C158.669 199.51 158.341 199.575 158.036 199.702C157.73 199.828 157.452 200.014 157.218 200.248C156.984 200.482 156.798 200.76 156.672 201.066C156.545 201.371 156.48 201.699 156.48 202.03V343.14C156.483 343.807 156.749 344.445 157.222 344.915C157.694 345.386 158.333 345.65 159 345.65H399.51C400.175 345.647 400.812 345.382 401.282 344.912C401.752 344.442 402.017 343.805 402.02 343.14V202C402.02 201.333 401.756 200.694 401.285 200.222C400.815 199.749 400.177 199.483 399.51 199.48L159 199.51Z" fill="white"/>
<path d="M318 251.812C318 256.812 366.4 256.812 366.4 251.812C366.4 224.063 318 224.063 318 251.812Z" fill="url(#paint16_linear)"/>
<path d="M341.71 256.61C336.126 256.658 330.544 256.344 325 255.67C317.8 254.67 317 253.3 317 252.35C317 237.68 329.83 231 341.74 231C353.66 231 366.48 237.68 366.48 252.35C366.45 256.4 345.84 256.61 341.71 256.61ZM318.05 252.35C318.05 253.68 326.28 255.53 341.71 255.53C357.14 255.53 365.37 253.68 365.37 252.35C365.37 238.42 353.11 232.08 341.71 232.08C330.31 232.08 318.05 238.42 318.05 252.35Z" fill="white"/>
<path d="M370.21 188.776C373.95 196.626 378.34 214.776 379.02 229.186C379.047 229.718 378.931 230.246 378.686 230.718C378.441 231.19 378.075 231.589 377.625 231.873C377.175 232.156 376.658 232.316 376.127 232.334C375.595 232.352 375.068 232.229 374.6 231.976C373.503 231.371 372.308 230.962 371.07 230.766C369.62 230.546 368.51 228.516 368.48 226.066L368 190.066C367.98 188.136 369.47 187.246 370.21 188.776Z" fill="white"/>
<path d="M375.505 233.387C374.929 233.385 374.362 233.241 373.855 232.967C372.809 232.392 371.673 232 370.495 231.807C368.775 231.547 367.495 229.367 367.495 226.617L367.025 190.617C366.948 190.083 367.05 189.539 367.314 189.069C367.578 188.599 367.989 188.229 368.485 188.017C368.848 187.963 369.218 188.039 369.531 188.231C369.844 188.423 370.079 188.719 370.195 189.067C373.905 196.857 378.355 215.067 379.055 229.667C379.074 230.142 378.997 230.617 378.829 231.062C378.661 231.507 378.405 231.913 378.076 232.257C377.748 232.602 377.354 232.876 376.917 233.065C376.481 233.254 376.011 233.353 375.535 233.357L375.505 233.387ZM368.735 189.027H368.685C368.405 189.097 367.995 189.647 368.005 190.617L368.485 226.617C368.485 228.787 369.485 230.617 370.645 230.817C371.94 231.021 373.189 231.45 374.335 232.087C374.725 232.294 375.163 232.395 375.604 232.377C376.046 232.36 376.475 232.227 376.848 231.99C377.221 231.753 377.524 231.422 377.728 231.03C377.931 230.637 378.026 230.198 378.005 229.757C377.315 215.237 372.915 197.237 369.245 189.537C369.185 189.407 369.035 189.027 368.735 189.027Z" fill="url(#paint17_linear)"/>
<path d="M370.782 237.1C370.782 244.26 313.002 244.26 313.002 237.1V157.46C312.899 140.421 316.83 123.599 324.472 108.37C329.272 98.94 335.282 91 341.892 91C348.502 91 354.512 98.94 359.312 108.37C366.954 123.599 370.885 140.421 370.782 157.46V237.1Z" fill="white"/>
<path d="M341.451 242.49C334.759 242.558 328.073 242.107 321.451 241.14C315.091 240.09 312.001 238.61 312.001 236.61V156.97C311.934 139.849 315.901 122.952 323.581 107.65C329.581 95.94 335.581 90 341.451 90C347.321 90 353.361 95.94 359.321 107.65C366.983 122.957 370.933 139.853 370.851 156.97V236.61C370.851 242.32 344.461 242.49 341.451 242.49ZM341.451 91.02C335.971 91.02 330.261 96.77 324.451 108.11C316.861 123.274 312.949 140.013 313.031 156.97V236.61C313.031 239.34 325.501 241.47 341.421 241.47C357.341 241.47 369.811 239.34 369.811 236.61V156.97C369.896 140.029 365.994 123.305 358.421 108.15C352.641 96.77 346.971 91.02 341.451 91.02Z" fill="url(#paint18_linear)"/>
<path d="M341.51 128.8C332.19 128.8 323.62 126.26 318 121.8L318.63 121C323.99 125.23 332.55 127.75 341.51 127.75C350.47 127.75 359.03 125.23 364.39 121L365.02 121.8C359.4 126.26 350.83 128.8 341.51 128.8Z" fill="url(#paint19_linear)"/>
<path d="M314.867 188.762C308.407 196.822 300.867 215.762 300.007 230.322C299.972 230.843 300.073 231.363 300.301 231.832C300.528 232.301 300.874 232.703 301.304 232.998C301.734 233.292 302.233 233.47 302.753 233.513C303.272 233.556 303.794 233.463 304.267 233.242C307.136 231.891 310.219 231.052 313.377 230.762C314.554 230.652 315.65 230.112 316.454 229.245C317.258 228.378 317.715 227.245 317.737 226.062L318.527 190.062C318.527 189.637 318.396 189.221 318.15 188.873C317.905 188.525 317.558 188.261 317.156 188.119C316.755 187.976 316.319 187.962 315.909 188.077C315.499 188.192 315.135 188.432 314.867 188.762Z" fill="white"/>
<path d="M303.516 234.576C302.824 234.574 302.148 234.365 301.576 233.976C301.062 233.633 300.647 233.162 300.372 232.609C300.096 232.057 299.97 231.442 300.006 230.826C300.846 216.136 308.566 196.976 315.006 188.976C315.341 188.553 315.801 188.247 316.319 188.099C316.838 187.951 317.39 187.969 317.897 188.152C318.405 188.334 318.843 188.67 319.149 189.114C319.456 189.558 319.615 190.086 319.606 190.626L318.806 226.626C318.782 227.932 318.279 229.183 317.392 230.142C316.505 231.101 315.296 231.7 313.996 231.826C310.875 232.098 307.827 232.924 304.996 234.266C304.532 234.48 304.026 234.586 303.516 234.576ZM315.766 189.576C309.456 197.466 301.846 216.356 301.016 230.856C300.99 231.297 301.081 231.737 301.28 232.132C301.478 232.527 301.777 232.862 302.146 233.106C302.498 233.346 302.906 233.489 303.331 233.523C303.755 233.556 304.181 233.478 304.566 233.296C307.492 231.899 310.646 231.039 313.876 230.756C314.929 230.655 315.907 230.17 316.625 229.393C317.342 228.617 317.749 227.603 317.766 226.546L318.556 190.546C318.571 190.222 318.482 189.901 318.302 189.631C318.122 189.361 317.861 189.156 317.556 189.046C317.246 188.927 316.907 188.912 316.588 189.002C316.269 189.092 315.988 189.283 315.786 189.546L315.766 189.576Z" fill="url(#paint20_linear)"/>
<path d="M350.78 191.04C360.047 191.04 367.56 180.286 367.56 167.02C367.56 153.754 360.047 143 350.78 143C341.513 143 334 153.754 334 167.02C334 180.286 341.513 191.04 350.78 191.04Z" fill="url(#paint21_linear)"/>
<path d="M352.93 187.2C360.071 187.2 365.86 178.201 365.86 167.1C365.86 155.999 360.071 147 352.93 147C345.789 147 340 155.999 340 167.1C340 178.201 345.789 187.2 352.93 187.2Z" fill="white"/>
<path d="M204.614 349.551C204.47 349.551 204.332 349.495 204.229 349.394C204.126 349.293 204.067 349.156 204.064 349.011C204.064 348.491 204.064 347.841 204.064 347.111C203.894 341.481 203.544 329.781 210.754 323.111C215.144 319.021 221.684 317.381 230.194 318.241C256.924 320.951 271.814 313.541 283.294 291.831C288.394 282.191 299.454 280.831 309.224 279.671C316.694 278.761 323.744 277.911 326.924 273.501C328.864 270.811 329.284 266.931 328.214 261.651C328.2 261.581 328.199 261.509 328.213 261.438C328.227 261.368 328.255 261.301 328.295 261.241C328.335 261.182 328.387 261.131 328.447 261.091C328.506 261.052 328.574 261.025 328.644 261.011C328.713 260.997 328.785 260.996 328.854 261.01C328.923 261.023 328.989 261.05 329.048 261.089C329.106 261.128 329.157 261.179 329.195 261.237C329.234 261.296 329.261 261.362 329.274 261.431C330.414 267.031 329.934 271.181 327.804 274.131C324.344 278.921 317.064 279.811 309.354 280.741C299.354 281.951 289.084 283.201 284.254 292.341C272.524 314.511 257.334 322.081 230.084 319.341C221.894 318.511 215.634 320.051 211.484 323.921C204.644 330.301 204.984 341.671 205.144 347.141C205.144 347.881 205.194 348.541 205.194 349.071C205.179 349.211 205.11 349.339 205.002 349.429C204.893 349.519 204.754 349.563 204.614 349.551Z" fill="white"/>
<path d="M322.578 348.591C322.437 348.589 322.303 348.532 322.202 348.434C322.102 348.335 322.043 348.202 322.038 348.061V347.491C321.868 337.491 321.638 323.881 336.788 321.931C345.788 320.781 351.078 318.611 353.028 315.311C354.978 312.011 353.308 307.621 351.658 303.441C350.218 299.801 348.738 296.041 349.658 292.851C351.125 287.902 353.755 283.376 357.328 279.651C361.388 275.001 363.628 272.441 355.808 260.841C355.731 260.721 355.703 260.576 355.731 260.436C355.759 260.296 355.84 260.172 355.958 260.091C356.017 260.052 356.083 260.024 356.153 260.01C356.222 259.997 356.294 259.997 356.364 260.01C356.434 260.024 356.5 260.052 356.559 260.092C356.618 260.131 356.668 260.182 356.708 260.241C364.988 272.531 362.408 275.481 358.138 280.361C354.677 283.977 352.127 288.365 350.698 293.161C349.858 295.991 351.208 299.421 352.638 303.041C354.388 307.471 356.188 312.041 353.938 315.861C351.808 319.471 346.228 321.811 336.938 323.011C322.758 324.831 322.938 337.921 323.138 347.471V348.041C323.139 348.112 323.126 348.183 323.1 348.249C323.075 348.315 323.036 348.375 322.987 348.426C322.937 348.477 322.879 348.518 322.814 348.546C322.749 348.575 322.679 348.59 322.608 348.591H322.578Z" fill="white"/>
<path d="M210.75 240.992H210.41C209.718 239.244 208.537 237.733 207.008 236.641C205.479 235.548 203.667 234.92 201.79 234.832C200.78 234.78 199.769 234.881 198.79 235.132C197.932 233.106 196.433 231.418 194.523 230.326C192.614 229.234 190.398 228.798 188.217 229.087C186.036 229.375 184.01 230.371 182.45 231.922C180.889 233.473 179.881 235.493 179.58 237.672C177.565 237.742 175.654 238.584 174.243 240.024C172.832 241.464 172.029 243.392 172.001 245.407C171.972 247.423 172.721 249.373 174.091 250.852C175.461 252.331 177.347 253.226 179.36 253.352L210.11 254.852C211.019 254.896 211.928 254.761 212.785 254.453C213.642 254.146 214.43 253.673 215.104 253.061C215.778 252.449 216.326 251.71 216.714 250.887C217.103 250.063 217.326 249.172 217.37 248.262C217.413 247.353 217.278 246.444 216.971 245.587C216.663 244.73 216.19 243.942 215.578 243.267C214.966 242.593 214.227 242.046 213.404 241.658C212.581 241.269 211.689 241.046 210.78 241.002L210.75 240.992Z" fill="white"/>
<path d="M254.59 209.08C256.709 209.075 258.791 209.628 260.628 210.683C262.465 211.738 263.991 213.259 265.054 215.092C266.116 216.925 266.677 219.005 266.68 221.124C266.683 223.242 266.128 225.324 265.07 227.16L255.46 220.43L250.46 209.8C251.766 209.32 253.148 209.076 254.54 209.08H254.59ZM254.54 208C252.625 207.997 250.734 208.417 249 209.23L254.56 221.15L265.34 228.69C266.72 226.718 267.532 224.405 267.689 222.004C267.845 219.602 267.339 217.203 266.226 215.069C265.113 212.935 263.436 211.148 261.377 209.901C259.318 208.655 256.957 207.997 254.55 208H254.54Z" fill="white"/>
<path d="M254.235 221.92L264.965 229.46C264.528 230.089 264.036 230.678 263.495 231.22C262.138 232.586 260.498 233.637 258.691 234.3C256.883 234.962 254.952 235.22 253.034 235.056C251.116 234.891 249.257 234.308 247.589 233.346C245.921 232.385 244.485 231.07 243.38 229.493C242.276 227.916 241.531 226.116 241.198 224.22C240.865 222.324 240.953 220.378 241.454 218.519C241.955 216.66 242.857 214.934 244.098 213.462C245.339 211.99 246.888 210.808 248.635 210L254.235 221.92Z" fill="white"/>
<path d="M219.823 303.072C219.043 303.074 218.287 302.797 217.693 302.291C217.099 301.785 216.705 301.083 216.583 300.312L213.043 278.712C212.902 277.849 213.109 276.965 213.619 276.254C214.129 275.543 214.9 275.064 215.763 274.922L251.683 269.042C252.545 268.903 253.427 269.112 254.135 269.621C254.844 270.131 255.321 270.901 255.464 271.762L259.003 293.362C259.142 294.225 258.934 295.107 258.425 295.818C257.915 296.528 257.145 297.007 256.283 297.152L220.363 303.032C220.185 303.06 220.004 303.074 219.823 303.072ZM252.214 270.072H251.854L215.893 275.992C215.316 276.09 214.8 276.412 214.458 276.887C214.115 277.362 213.974 277.953 214.063 278.532L217.604 300.142C217.704 300.721 218.027 301.238 218.503 301.582C218.74 301.752 219.007 301.873 219.29 301.938C219.574 302.003 219.867 302.011 220.153 301.962L256.073 296.082C256.652 295.986 257.168 295.665 257.509 295.189C257.851 294.712 257.989 294.12 257.893 293.542L254.354 271.932C254.308 271.645 254.205 271.37 254.053 271.123C253.9 270.876 253.7 270.661 253.464 270.492C253.098 270.232 252.662 270.089 252.214 270.082V270.072Z" fill="white"/>
<path d="M242.14 284.59L230 280L232.1 292.82L242.14 284.59Z" fill="white"/>
<path d="M390.29 267H383V288.94H390.29V267Z" fill="white"/>
<path d="M390.29 291H383V295.13H390.29V291Z" fill="white"/>
<path d="M390.29 298H383V300.06H390.29V298Z" fill="white"/>
<path d="M390.29 303H383V304.03H390.29V303Z" fill="white"/>
<path d="M379 269.59L386.27 257L393.54 269.59H379Z" fill="white"/>
<path d="M288.6 232H284V245.85H288.6V232Z" fill="white"/>
<path d="M288.6 247H284V249.61H288.6V247Z" fill="white"/>
<path d="M288.6 251H284V252.3H288.6V251Z" fill="white"/>
<path d="M288.6 255H284V255.65H288.6V255Z" fill="white"/>
<path d="M282 232.96L286.59 225L291.19 232.96H282Z" fill="white"/>
<path d="M392.85 152H387V169.6H392.85V152Z" fill="url(#paint22_linear)"/>
<path d="M392.85 170H387V173.31H392.85V170Z" fill="url(#paint23_linear)"/>
<path d="M392.85 176H387V177.66H392.85V176Z" fill="url(#paint24_linear)"/>
<path d="M392.85 180H387V180.83H392.85V180Z" fill="url(#paint25_linear)"/>
<path d="M384 153.1L389.83 143L395.66 153.1H384Z" fill="url(#paint26_linear)"/>
<defs>
<linearGradient id="paint0_linear" x1="444.858" y1="78" x2="444.858" y2="329.771" gradientUnits="userSpaceOnUse">
<stop stop-color="#4070FF"/>
<stop offset="1" stop-color="#365FD9"/>
</linearGradient>
<linearGradient id="paint1_linear" x1="443.78" y1="414" x2="443.78" y2="436.64" gradientUnits="userSpaceOnUse">
<stop stop-color="#4070FF"/>
<stop offset="1" stop-color="#365FD9"/>
</linearGradient>
<linearGradient id="paint2_linear" x1="160.27" y1="153" x2="160.27" y2="180.331" gradientUnits="userSpaceOnUse">
<stop stop-color="#4070FF"/>
<stop offset="1" stop-color="#365FD9"/>
</linearGradient>
<linearGradient id="paint3_linear" x1="152.884" y1="150" x2="152.884" y2="210.757" gradientUnits="userSpaceOnUse">
<stop stop-color="#4070FF"/>
<stop offset="1" stop-color="#365FD9"/>
</linearGradient>
<linearGradient id="paint4_linear" x1="143.95" y1="399" x2="143.95" y2="404.4" gradientUnits="userSpaceOnUse">
<stop stop-color="#4070FF"/>
<stop offset="1" stop-color="#365FD9"/>
</linearGradient>
<linearGradient id="paint5_linear" x1="113.252" y1="151" x2="113.252" y2="176.582" gradientUnits="userSpaceOnUse">
<stop stop-color="#4070FF"/>
<stop offset="1" stop-color="#365FD9"/>
</linearGradient>
<linearGradient id="paint6_linear" x1="146.811" y1="415" x2="146.811" y2="417.424" gradientUnits="userSpaceOnUse">
<stop stop-color="#4070FF"/>
<stop offset="1" stop-color="#365FD9"/>
</linearGradient>
<linearGradient id="paint7_linear" x1="144.198" y1="413" x2="144.198" y2="417.29" gradientUnits="userSpaceOnUse">
<stop stop-color="#4070FF"/>
<stop offset="1" stop-color="#365FD9"/>
</linearGradient>
<linearGradient id="paint8_linear" x1="103.91" y1="415" x2="103.91" y2="417.421" gradientUnits="userSpaceOnUse">
<stop stop-color="#4070FF"/>
<stop offset="1" stop-color="#365FD9"/>
</linearGradient>
<linearGradient id="paint9_linear" x1="101.57" y1="413" x2="101.57" y2="417.289" gradientUnits="userSpaceOnUse">
<stop stop-color="#4070FF"/>
<stop offset="1" stop-color="#365FD9"/>
</linearGradient>
<linearGradient id="paint10_linear" x1="104.96" y1="399" x2="104.96" y2="404.4" gradientUnits="userSpaceOnUse">
<stop stop-color="#4070FF"/>
<stop offset="1" stop-color="#365FD9"/>
</linearGradient>
<linearGradient id="paint11_linear" x1="147.484" y1="207" x2="147.484" y2="212.44" gradientUnits="userSpaceOnUse">
<stop stop-color="#4070FF"/>
<stop offset="1" stop-color="#365FD9"/>
</linearGradient>
<linearGradient id="paint12_linear" x1="410.19" y1="190" x2="410.19" y2="353.8" gradientUnits="userSpaceOnUse">
<stop stop-color="#4070FF"/>
<stop offset="1" stop-color="#365FD9"/>
</linearGradient>
<linearGradient id="paint13_linear" x1="423.665" y1="353" x2="423.665" y2="378.94" gradientUnits="userSpaceOnUse">
<stop stop-color="#4070FF"/>
<stop offset="1" stop-color="#365FD9"/>
</linearGradient>
<linearGradient id="paint14_linear" x1="421.849" y1="371" x2="421.849" y2="378.1" gradientUnits="userSpaceOnUse">
<stop stop-color="#4070FF"/>
<stop offset="1" stop-color="#365FD9"/>
</linearGradient>
<linearGradient id="paint15_linear" x1="405" y1="348.66" x2="152.96" y2="348.66" gradientUnits="userSpaceOnUse">
<stop stop-color="#4070FF"/>
<stop offset="1" stop-color="#365FD9"/>
</linearGradient>
<linearGradient id="paint16_linear" x1="366.4" y1="231" x2="366.4" y2="255.562" gradientUnits="userSpaceOnUse">
<stop stop-color="#4070FF"/>
<stop offset="1" stop-color="#365FD9"/>
</linearGradient>
<linearGradient id="paint17_linear" x1="379.058" y1="188" x2="379.058" y2="233.387" gradientUnits="userSpaceOnUse">
<stop stop-color="#4070FF"/>
<stop offset="1" stop-color="#365FD9"/>
</linearGradient>
<linearGradient id="paint18_linear" x1="370.852" y1="90" x2="370.852" y2="242.497" gradientUnits="userSpaceOnUse">
<stop stop-color="#4070FF"/>
<stop offset="1" stop-color="#365FD9"/>
</linearGradient>
<linearGradient id="paint19_linear" x1="365.02" y1="121" x2="365.02" y2="128.8" gradientUnits="userSpaceOnUse">
<stop stop-color="#4070FF"/>
<stop offset="1" stop-color="#365FD9"/>
</linearGradient>
<linearGradient id="paint20_linear" x1="319.606" y1="188" x2="319.606" y2="234.576" gradientUnits="userSpaceOnUse">
<stop stop-color="#4070FF"/>
<stop offset="1" stop-color="#365FD9"/>
</linearGradient>
<linearGradient id="paint21_linear" x1="367.56" y1="143" x2="367.56" y2="191.04" gradientUnits="userSpaceOnUse">
<stop stop-color="#4070FF"/>
<stop offset="1" stop-color="#365FD9"/>
</linearGradient>
<linearGradient id="paint22_linear" x1="392.85" y1="152" x2="392.85" y2="169.6" gradientUnits="userSpaceOnUse">
<stop stop-color="#4070FF"/>
<stop offset="1" stop-color="#365FD9"/>
</linearGradient>
<linearGradient id="paint23_linear" x1="392.85" y1="170" x2="392.85" y2="173.31" gradientUnits="userSpaceOnUse">
<stop stop-color="#4070FF"/>
<stop offset="1" stop-color="#365FD9"/>
</linearGradient>
<linearGradient id="paint24_linear" x1="392.85" y1="176" x2="392.85" y2="177.66" gradientUnits="userSpaceOnUse">
<stop stop-color="#4070FF"/>
<stop offset="1" stop-color="#365FD9"/>
</linearGradient>
<linearGradient id="paint25_linear" x1="392.85" y1="180" x2="392.85" y2="180.83" gradientUnits="userSpaceOnUse">
<stop stop-color="#4070FF"/>
<stop offset="1" stop-color="#365FD9"/>
</linearGradient>
<linearGradient id="paint26_linear" x1="395.66" y1="143" x2="395.66" y2="153.1" gradientUnits="userSpaceOnUse">
<stop stop-color="#4070FF"/>
<stop offset="1" stop-color="#365FD9"/>
</linearGradient>
</defs>
</svg>
