<svg width="500" height="500" viewBox="0 0 500 500" fill="none" xmlns="http://www.w3.org/2000/svg">
<path opacity="0.1" d="M268.72 145.56C214.07 202.42 89.57 150.29 86.18 261.39C82.92 367.85 221.75 362.52 290.88 339.8C371.03 313.45 434.58 240.24 409.47 153.2C399.77 119.58 378.02 86.93 340.88 81.28C281.53 72.24 297.68 115.41 268.72 145.56Z" fill="url(#paint0_linear)"/>
<path opacity="0.1" d="M250 427.56C357.082 427.56 443.89 422.492 443.89 416.24C443.89 409.988 357.082 404.92 250 404.92C142.917 404.92 56.11 409.988 56.11 416.24C56.11 422.492 142.917 427.56 250 427.56Z" fill="url(#paint1_linear)"/>
<path d="M328.36 136C324.54 133.61 313.57 136 315.36 148C317.15 160 303.05 156.93 306.13 170.89C309.21 184.85 334.2 205.59 349.59 191.51C364.98 177.43 352.01 171.22 352.3 154.51C352.5 144.58 348 126.8 328.36 136Z" fill="#263238"/>
<path d="M351 190.91C350.928 190.91 350.86 190.881 350.81 190.83C350.786 190.807 350.766 190.779 350.753 190.748C350.74 190.717 350.733 190.684 350.733 190.65C350.733 190.616 350.74 190.583 350.753 190.552C350.766 190.521 350.786 190.493 350.81 190.47C360.29 181.05 358.1 175.31 355.33 168.05C353.79 164.05 352.06 159.49 351.91 153.58C351.76 147.2 349.43 138.49 343.36 134.9C339.06 132.36 333.54 132.8 326.96 136.21C326.9 136.239 326.831 136.243 326.768 136.223C326.705 136.202 326.652 136.158 326.62 136.1C326.603 136.07 326.592 136.037 326.588 136.003C326.585 135.968 326.588 135.934 326.598 135.901C326.609 135.868 326.626 135.838 326.648 135.812C326.671 135.786 326.699 135.765 326.73 135.75C333.48 132.25 339.16 131.82 343.63 134.46C349.87 138.16 352.27 147.06 352.43 153.56C352.57 159.39 354.29 163.89 355.81 167.86C358.64 175.3 360.89 181.18 351.17 190.86C351.12 190.895 351.061 190.913 351 190.91Z" fill="#263238"/>
<path d="M353.22 189.54C353.22 189.54 353.38 189.77 353.49 189.92L353.89 190.46C354.183 190.833 354.493 191.203 354.82 191.57C355.49 192.325 356.205 193.04 356.96 193.71C358.508 195.128 360.182 196.403 361.96 197.52C363.765 198.669 365.642 199.701 367.58 200.61C368.58 201.1 369.58 201.49 370.58 201.93C370.77 202.02 370.58 201.93 370.45 202.01C370.32 202.09 370.21 202.16 370.32 202.1C370.81 201.682 371.2 201.159 371.46 200.57C371.902 199.688 372.28 198.776 372.59 197.84C373.261 195.751 373.805 193.624 374.22 191.47C374.67 189.27 375.02 187.02 375.33 184.75C375.64 182.48 375.92 180.18 376.17 177.93H380.24C380.573 182.712 380.536 187.513 380.13 192.29C379.943 194.765 379.565 197.223 379 199.64C378.696 200.953 378.281 202.237 377.76 203.48C377.128 205.062 376.151 206.484 374.9 207.64C373.978 208.447 372.855 208.989 371.65 209.21C370.456 209.41 369.231 209.303 368.09 208.9C366.92 208.48 365.73 208.13 364.57 207.65C362.215 206.73 359.935 205.63 357.75 204.36C355.531 203.041 353.433 201.528 351.48 199.84C350.49 198.962 349.555 198.023 348.68 197.03C348.23 196.53 347.79 196.03 347.37 195.45L346.75 194.57C346.53 194.24 346.38 194.01 346.07 193.47L353.22 189.54Z" fill="#FFC3BD"/>
<path d="M351.85 185.84C361.2 191.84 360.44 195.48 360.44 195.48L354.56 204C354.56 204 339.56 198 338.63 193.29C337.65 188.38 347.31 182.94 351.85 185.84Z" fill="#263238"/>
<path opacity="0.1" d="M351.85 185.84C361.2 191.84 360.44 195.48 360.44 195.48L354.56 204C354.56 204 339.56 198 338.63 193.29C337.65 188.38 347.31 182.94 351.85 185.84Z" fill="white"/>
<path d="M361 194.64C361.174 194.763 361.292 194.949 361.33 195.159C361.367 195.369 361.32 195.584 361.2 195.76L355.2 204.37C355.141 204.458 355.064 204.534 354.975 204.592C354.887 204.65 354.787 204.689 354.682 204.708C354.578 204.727 354.471 204.724 354.367 204.7C354.263 204.677 354.166 204.632 354.08 204.57C353.993 204.509 353.92 204.432 353.864 204.343C353.807 204.253 353.769 204.154 353.752 204.05C353.734 203.945 353.737 203.839 353.761 203.736C353.784 203.633 353.828 203.536 353.89 203.45L359.89 194.84C360.013 194.669 360.197 194.552 360.404 194.515C360.611 194.478 360.825 194.523 361 194.64Z" fill="url(#paint2_linear)"/>
<path d="M376.83 179.89L372.19 173.69L381.09 171.4C381.09 171.4 382.9 176.92 379.94 180.97L376.83 179.89Z" fill="#FFC3BD"/>
<path d="M372.44 166.07L379.85 164.82L381.09 171.4L372.19 173.69L372.44 166.07Z" fill="#FFC3BD"/>
<path d="M297.04 407.6L305.52 408.42L311.58 388.48L303.1 387.66L297.04 407.6Z" fill="#FFC3BD"/>
<path d="M243.09 378.13L249.38 384.03L262.96 369.11L256.67 363.21L243.09 378.13Z" fill="#FFC3BD"/>
<path d="M252.29 381.2L247.56 372.69C247.483 372.541 247.353 372.426 247.196 372.367C247.039 372.308 246.866 372.309 246.71 372.37L239.43 375.14C239.244 375.215 239.077 375.33 238.94 375.476C238.803 375.622 238.699 375.796 238.635 375.986C238.572 376.176 238.55 376.377 238.571 376.577C238.593 376.776 238.657 376.968 238.76 377.14C240.46 380.08 241.43 381.42 243.5 385.14C244.78 387.44 247.27 392.73 249.04 395.91C250.81 399.09 254.04 397.52 253.6 396.03C251.6 389.38 251.96 385.68 252.53 382.75C252.633 382.221 252.548 381.673 252.29 381.2Z" fill="#263238"/>
<path d="M306.53 405.83H296.24C296.056 405.833 295.879 405.895 295.733 406.007C295.587 406.118 295.481 406.274 295.43 406.45L293.19 414.59C293.137 414.783 293.13 414.985 293.169 415.181C293.208 415.377 293.291 415.561 293.414 415.719C293.536 415.877 293.693 416.004 293.873 416.091C294.053 416.178 294.25 416.222 294.45 416.22C298.07 416.22 299.79 416.22 304.31 416.22H318.14C321.9 416.22 322.68 412.42 321.14 412.08C314.14 410.54 310.14 408.41 307.99 406.38C307.594 406.012 307.07 405.815 306.53 405.83Z" fill="#263238"/>
<path opacity="0.2" d="M311.58 388.49L308.46 398.76H299.72L303.1 387.67L311.58 388.49Z" fill="black"/>
<path opacity="0.2" d="M256.67 363.21L262.96 369.12L255.96 376.81L249.67 370.9L256.67 363.21Z" fill="black"/>
<path d="M351.85 185.84C351.85 185.84 355.25 188.15 333.7 234.97L299.77 225.58C304.16 211.92 306.54 203.41 307.77 173.24C312.794 173.573 317.787 174.272 322.71 175.33C327.938 176.386 333.085 177.813 338.11 179.6C342.795 181.441 347.381 183.524 351.85 185.84Z" fill="#263238"/>
<path opacity="0.1" d="M351.85 185.84C351.85 185.84 355.25 188.15 333.7 234.97L299.77 225.58C304.16 211.92 306.54 203.41 307.77 173.24C312.794 173.573 317.787 174.272 322.71 175.33C327.938 176.386 333.085 177.813 338.11 179.6C342.795 181.441 347.381 183.524 351.85 185.84Z" fill="white"/>
<path d="M329.05 158.4C328.65 163.63 327.1 172.98 322.72 175.33C322.72 175.33 320.17 184 331.23 187.19C340.6 189.88 338.12 179.6 338.12 179.6C332.96 176.75 336.12 171.7 337.12 166.04L329.05 158.4Z" fill="#FFC3BD"/>
<path opacity="0.2" d="M329 158.41C328.68 162.6 327.63 169.48 324.94 173.22C328.06 173.53 332.94 172.58 334.38 170.22C335.092 168.566 335.67 166.857 336.11 165.11L329 158.41Z" fill="black"/>
<path d="M342.77 150.83C342.77 159.43 342.92 163.08 338.85 167.73C332.72 174.73 322.16 172.82 319.61 164.38C317.32 156.79 317.74 144 325.94 140.09C327.742 139.22 329.736 138.825 331.733 138.943C333.731 139.061 335.665 139.688 337.351 140.764C339.038 141.841 340.421 143.331 341.37 145.092C342.318 146.854 342.8 148.829 342.77 150.83Z" fill="#FFC3BD"/>
<path d="M325 146.06C329.83 152.81 346.08 162.19 347.17 153.15C348.26 144.11 339.96 135.15 331.74 136.04C323.52 136.93 320.87 140.32 325 146.06Z" fill="#263238"/>
<path d="M346.33 158.86C345.966 159.6 345.46 160.261 344.841 160.804C344.221 161.348 343.5 161.765 342.72 162.03C340.63 162.72 339.48 160.88 339.97 158.85C340.42 157.02 342.04 154.46 344.19 154.65C344.657 154.698 345.105 154.863 345.492 155.129C345.88 155.394 346.194 155.753 346.407 156.172C346.62 156.591 346.724 157.056 346.711 157.526C346.697 157.995 346.566 158.454 346.33 158.86Z" fill="#FFC3BD"/>
<path d="M333.7 235C333.7 235 345.78 283.93 337.86 320.94C332.55 345.73 313.41 395.81 313.41 395.81L298.41 395.43C298.41 395.43 312.9 342.88 315.89 322.21C321.02 286.85 308.81 228.12 308.81 228.12L333.7 235Z" fill="url(#paint3_linear)"/>
<path opacity="0.2" d="M320.23 242L312.75 253.8C314.989 267.792 316.409 281.903 317 296.06C327.55 277.23 322.57 252 320.23 242Z" fill="black"/>
<path d="M316.09 396.56L297.04 396.09L298.32 389.31L317.48 390.75L316.09 396.56Z" fill="#263238"/>
<path d="M326.26 233C326.26 233 319.26 286.5 304.19 316.9C292 341.45 259.47 376.4 259.47 376.4L251.15 367.83C251.15 367.83 273.15 329.83 282.15 313.54C304.37 273.54 284.68 237.69 299.74 225.54L326.26 233Z" fill="url(#paint4_linear)"/>
<path d="M260.31 377.57L249.58 367.1L253.14 362.26L264.84 374.35L260.31 377.57Z" fill="#263238"/>
<path d="M299.81 223.44L297.44 226.06C297.26 226.26 297.44 226.58 297.86 226.69L333.45 236.54C333.75 236.62 334.05 236.54 334.12 236.36L335.27 233.36C335.35 233.16 335.13 232.91 334.8 232.81L300.44 223.3C300.332 223.266 300.217 223.262 300.106 223.286C299.996 223.311 299.894 223.364 299.81 223.44Z" fill="url(#paint5_linear)"/>
<path opacity="0.5" d="M299.81 223.44L297.44 226.06C297.26 226.26 297.44 226.58 297.86 226.69L333.45 236.54C333.75 236.62 334.05 236.54 334.12 236.36L335.27 233.36C335.35 233.16 335.13 232.91 334.8 232.81L300.44 223.3C300.332 223.266 300.217 223.262 300.106 223.286C299.996 223.311 299.894 223.364 299.81 223.44Z" fill="white"/>
<path d="M303.36 228.56L302.44 228.31C302.26 228.26 302.15 228.12 302.19 228.01L303.71 224.19C303.76 224.07 303.95 224.02 304.13 224.07L305.05 224.33C305.23 224.33 305.35 224.51 305.3 224.63L303.78 228.45C303.731 228.512 303.664 228.556 303.588 228.575C303.512 228.595 303.432 228.59 303.36 228.56Z" fill="url(#paint6_linear)"/>
<path d="M330.77 236.15L329.85 235.9C329.67 235.85 329.55 235.71 329.6 235.6L331.12 231.77C331.168 231.708 331.236 231.664 331.311 231.645C331.387 231.625 331.467 231.63 331.54 231.66L332.46 231.92C332.64 231.97 332.75 232.1 332.71 232.21L331.19 236C331.14 236.15 331 236.2 330.77 236.15Z" fill="url(#paint7_linear)"/>
<path d="M317.07 232.36L316.15 232.1C315.96 232.1 315.85 231.92 315.89 231.81L317.42 227.98C317.42 227.87 317.65 227.82 317.83 227.87L318.75 228.12C318.94 228.12 319.05 228.31 319.01 228.42L317.48 232.25C317.44 232.36 317.25 232.41 317.07 232.36Z" fill="url(#paint8_linear)"/>
<path d="M329.91 154C329.91 154.7 329.61 155.29 329.16 155.31C328.71 155.33 328.3 154.8 328.25 154.1C328.2 153.4 328.55 152.81 329.01 152.78C329.47 152.75 329.87 153.29 329.91 154Z" fill="#263238"/>
<path d="M322 154.45C322 155.15 321.7 155.74 321.24 155.77C320.78 155.8 320.39 155.25 320.34 154.55C320.29 153.85 320.64 153.26 321.1 153.24C321.56 153.22 322 153.76 322 154.45Z" fill="#263238"/>
<path d="M321.32 153.26L319.62 152.88C319.62 152.88 320.55 154.14 321.32 153.26Z" fill="#263238"/>
<path d="M324.17 155.53C323.64 157.156 322.894 158.704 321.95 160.13C322.32 160.363 322.736 160.512 323.17 160.568C323.603 160.623 324.044 160.583 324.46 160.45L324.17 155.53Z" fill="#ED847E"/>
<path d="M328.35 162.83C327.934 162.937 327.509 163.001 327.08 163.02C327.057 163.023 327.034 163.021 327.013 163.014C326.991 163.007 326.971 162.996 326.954 162.981C326.937 162.966 326.923 162.947 326.914 162.926C326.905 162.905 326.9 162.883 326.9 162.86C326.899 162.838 326.902 162.815 326.909 162.794C326.916 162.773 326.928 162.754 326.943 162.737C326.957 162.72 326.976 162.706 326.996 162.697C327.016 162.687 327.038 162.681 327.06 162.68C327.934 162.645 328.788 162.406 329.554 161.982C330.319 161.558 330.976 160.962 331.47 160.24C331.496 160.208 331.532 160.187 331.572 160.18C331.612 160.172 331.653 160.18 331.688 160.2C331.723 160.221 331.75 160.253 331.763 160.292C331.776 160.33 331.775 160.372 331.76 160.41C330.972 161.621 329.753 162.486 328.35 162.83Z" fill="#263238"/>
<path d="M332.52 148.89C332.463 148.905 332.404 148.904 332.348 148.888C332.292 148.872 332.241 148.842 332.2 148.8C331.836 148.416 331.386 148.125 330.886 147.951C330.387 147.777 329.853 147.725 329.33 147.8C329.241 147.816 329.15 147.798 329.074 147.75C328.999 147.701 328.943 147.627 328.92 147.54C328.902 147.451 328.919 147.359 328.967 147.283C329.016 147.206 329.092 147.151 329.18 147.13C329.814 147.028 330.462 147.081 331.072 147.283C331.681 147.485 332.232 147.83 332.68 148.29C332.742 148.357 332.776 148.444 332.776 148.535C332.776 148.626 332.742 148.713 332.68 148.78C332.636 148.829 332.581 148.866 332.52 148.89Z" fill="#263238"/>
<path d="M318.58 149.9C318.527 149.932 318.467 149.948 318.405 149.948C318.343 149.948 318.283 149.932 318.23 149.9C318.159 149.846 318.112 149.767 318.099 149.679C318.086 149.591 318.108 149.502 318.16 149.43C318.529 148.905 319.018 148.477 319.587 148.181C320.157 147.885 320.788 147.73 321.43 147.73C321.475 147.733 321.518 147.744 321.559 147.763C321.599 147.783 321.635 147.81 321.665 147.844C321.694 147.877 321.717 147.916 321.732 147.958C321.746 148.001 321.753 148.045 321.75 148.09C321.747 148.135 321.736 148.178 321.717 148.219C321.697 148.259 321.67 148.295 321.636 148.325C321.603 148.354 321.564 148.377 321.522 148.392C321.479 148.407 321.435 148.413 321.39 148.41C320.863 148.418 320.345 148.551 319.879 148.798C319.414 149.045 319.013 149.399 318.71 149.83C318.672 149.863 318.628 149.887 318.58 149.9Z" fill="#263238"/>
<path d="M308.57 186.13C307.7 187.45 306.91 188.51 306.02 189.63C305.13 190.75 304.26 191.8 303.34 192.84C301.495 194.93 299.531 196.914 297.46 198.78C295.4 200.684 293.215 202.448 290.92 204.06C289.79 204.9 288.58 205.63 287.4 206.39L285.55 207.45L284.63 207.97C284.29 208.15 283.85 208.39 283.43 208.56C281.577 209.398 279.517 209.67 277.51 209.34C275.615 208.982 273.845 208.142 272.37 206.9C271.125 205.861 270.028 204.657 269.11 203.32C268.263 202.106 267.511 200.829 266.86 199.5C264.488 194.463 262.851 189.112 262 183.61L266 182.69C266.83 185.07 267.76 187.54 268.81 189.85C269.793 192.159 270.954 194.389 272.28 196.52C273.386 198.448 274.853 200.146 276.6 201.52C277.181 201.965 277.872 202.245 278.6 202.33C279.236 202.357 279.867 202.205 280.42 201.89C280.613 201.792 280.8 201.681 280.98 201.56L281.76 201.06L283.31 200.06C284.31 199.32 285.31 198.63 286.31 197.84C288.279 196.298 290.169 194.656 291.97 192.92C293.8 191.19 295.51 189.34 297.16 187.44C297.99 186.49 298.8 185.53 299.58 184.55C300.36 183.57 301.14 182.55 301.77 181.65L308.57 186.13Z" fill="#FFC3BD"/>
<path d="M266.77 186.38L267.65 177.05L259.26 180.48C259.26 180.48 260.26 185.17 263.46 186.85L266.77 186.38Z" fill="#FFC3BD"/>
<path d="M264.97 172.01L258.48 170.6L259.26 180.48L267.65 177.05L264.97 172.01Z" fill="#FFC3BD"/>
<path d="M307.78 173.24C303.41 173.24 292.89 189.92 292.89 189.92L300.32 197.62C300.32 197.62 314.32 188.18 314.87 182.62C315.35 177.84 313.34 173.29 307.78 173.24Z" fill="#263238"/>
<path opacity="0.1" d="M307.78 173.24C303.41 173.24 292.89 189.92 292.89 189.92L300.32 197.62C300.32 197.62 314.32 188.18 314.87 182.62C315.35 177.84 313.34 173.29 307.78 173.24Z" fill="white"/>
<path d="M301 198C300.85 198.15 300.647 198.234 300.435 198.234C300.223 198.234 300.02 198.15 299.87 198L292.36 190.64C292.21 190.49 292.126 190.287 292.126 190.075C292.126 189.863 292.21 189.66 292.36 189.51C292.512 189.36 292.716 189.276 292.93 189.276C293.143 189.276 293.348 189.36 293.5 189.51L301 196.86C301.15 197.012 301.234 197.217 301.234 197.43C301.234 197.643 301.15 197.848 301 198Z" fill="url(#paint9_linear)"/>
<path d="M254 385.78C254.274 385.773 254.538 385.674 254.75 385.5C254.85 385.435 254.931 385.344 254.982 385.236C255.033 385.129 255.053 385.009 255.04 384.89C254.95 383.81 252.21 382.34 251.89 382.17C251.863 382.153 251.832 382.144 251.8 382.144C251.768 382.144 251.737 382.153 251.71 382.17C251.682 382.19 251.661 382.218 251.65 382.25C251.64 382.282 251.639 382.317 251.65 382.35C251.96 383.45 252.65 385.35 253.65 385.7C253.761 385.748 253.879 385.775 254 385.78ZM252 382.67C253 383.21 254.56 384.25 254.61 384.92C254.617 384.98 254.605 385.041 254.576 385.095C254.548 385.148 254.504 385.192 254.45 385.22C254.349 385.315 254.224 385.382 254.089 385.413C253.954 385.445 253.813 385.44 253.68 385.4C253.14 385.2 252.52 384.19 252 382.67Z" fill="url(#paint10_linear)"/>
<path d="M254.37 383.1C254.803 383.133 255.234 383.024 255.6 382.79C255.72 382.691 255.802 382.552 255.831 382.399C255.86 382.245 255.835 382.087 255.76 381.95C255.707 381.806 255.622 381.676 255.511 381.57C255.4 381.465 255.266 381.386 255.12 381.34C253.95 380.93 251.77 382.12 251.68 382.17C251.654 382.186 251.632 382.208 251.617 382.234C251.601 382.26 251.592 382.29 251.59 382.32C251.59 382.35 251.597 382.379 251.611 382.405C251.625 382.431 251.645 382.453 251.67 382.47C252.511 382.879 253.434 383.095 254.37 383.1ZM254.54 381.59C254.7 381.59 254.859 381.617 255.01 381.67C255.109 381.699 255.2 381.752 255.274 381.823C255.349 381.894 255.406 381.982 255.44 382.08C255.55 382.34 255.44 382.46 255.38 382.53C254.87 382.96 253.07 382.72 252.14 382.32C252.884 381.922 253.7 381.674 254.54 381.59Z" fill="url(#paint11_linear)"/>
<path d="M311.09 407.49C311.789 407.542 312.487 407.378 313.09 407.02C313.245 406.904 313.371 406.753 313.458 406.579C313.545 406.405 313.59 406.214 313.59 406.02C313.603 405.92 313.587 405.817 313.545 405.726C313.502 405.634 313.435 405.555 313.35 405.5C312.42 404.86 308.68 406.58 308.26 406.78C308.226 406.795 308.198 406.821 308.18 406.853C308.162 406.886 308.155 406.923 308.16 406.96C308.164 406.994 308.178 407.026 308.202 407.052C308.225 407.077 308.256 407.094 308.29 407.1C309.207 407.328 310.145 407.459 311.09 407.49ZM312.73 405.72C312.876 405.711 313.021 405.742 313.15 405.81C313.2 405.81 313.25 405.9 313.24 406.04C313.238 406.178 313.204 406.313 313.139 406.435C313.075 406.556 312.983 406.661 312.87 406.74C312.03 407.38 309.98 407.11 308.87 406.91C310.086 406.312 311.389 405.911 312.73 405.72Z" fill="url(#paint12_linear)"/>
<path d="M308.32 407.14H308.38C309.51 406.68 311.86 404.79 311.73 403.85C311.73 403.65 311.57 403.4 311.06 403.34C309.06 403.11 308.19 406.78 308.15 406.94C308.144 406.971 308.146 407.003 308.157 407.033C308.168 407.063 308.186 407.089 308.21 407.11C308.243 407.13 308.281 407.14 308.32 407.14ZM310.88 403.66H311C311.35 403.66 311.37 403.83 311.38 403.88C311.46 404.48 309.78 406.01 308.56 406.65C308.83 405.8 309.59 403.66 310.88 403.66Z" fill="url(#paint13_linear)"/>
<path d="M329.21 152.8L327.51 152.42C327.51 152.42 328.44 153.68 329.21 152.8Z" fill="#263238"/>
<path d="M152.513 411.692L265.613 401.817C273.293 401.147 278.976 394.377 278.306 386.696L254.749 116.902C254.078 109.222 247.308 103.539 239.628 104.21L126.528 114.085C118.847 114.755 113.165 121.525 113.835 129.206L137.392 399C138.062 406.68 144.832 412.363 152.513 411.692Z" fill="url(#paint14_linear)"/>
<path d="M122.3 208.89C123.348 208.791 124.314 208.283 124.99 207.476C125.666 206.669 125.996 205.629 125.91 204.58L122.8 169C122.703 167.952 122.198 166.985 121.393 166.307C120.588 165.63 119.549 165.297 118.5 165.38C117.451 165.477 116.482 165.984 115.804 166.791C115.126 167.598 114.794 168.64 114.88 169.69L118 205.27C118.097 206.318 118.602 207.285 119.407 207.963C120.212 208.64 121.251 208.973 122.3 208.89Z" fill="url(#paint15_linear)"/>
<path d="M260.436 180.748L261.821 180.627C263.444 180.486 264.645 179.055 264.503 177.432L262.605 155.695C262.463 154.072 261.033 152.871 259.41 153.013L258.025 153.133C256.402 153.275 255.201 154.706 255.343 156.329L257.241 178.066C257.382 179.689 258.813 180.89 260.436 180.748Z" fill="#263238"/>
<path d="M262.06 217.342L263.45 217.217C265.079 217.07 266.281 215.631 266.134 214.001L264.17 192.181C264.024 190.552 262.584 189.35 260.955 189.497L259.565 189.622C257.936 189.769 256.734 191.208 256.88 192.838L258.844 214.658C258.991 216.287 260.43 217.489 262.06 217.342Z" fill="#263238"/>
<path d="M154.889 411.479L267.989 401.604C275.67 400.933 281.352 394.163 280.682 386.482L257.125 116.689C256.455 109.008 249.685 103.325 242.004 103.996L128.904 113.871C121.224 114.541 115.541 121.312 116.211 128.992L139.768 398.786C140.438 406.466 147.209 412.149 154.889 411.479Z" fill="#263238"/>
<path opacity="0.4" d="M143.75 394.68L276 383.13C276.691 383.066 277.329 382.732 277.775 382.2C278.221 381.668 278.438 380.982 278.38 380.29L256 123.69C255.937 123.001 255.604 122.364 255.074 121.919C254.544 121.473 253.86 121.254 253.17 121.31L120.87 132.87C120.529 132.9 120.197 132.997 119.893 133.156C119.589 133.314 119.319 133.531 119.099 133.794C118.879 134.057 118.713 134.36 118.61 134.688C118.507 135.015 118.47 135.359 118.5 135.7L140.92 392.31C140.949 392.652 141.045 392.985 141.203 393.289C141.362 393.594 141.579 393.864 141.842 394.084C142.105 394.305 142.409 394.471 142.736 394.573C143.064 394.675 143.408 394.712 143.75 394.68Z" fill="url(#paint16_linear)"/>
<path opacity="0.3" d="M235.69 122.84L219.07 388.1L191.43 390.52L208.05 125.25L235.69 122.84Z" fill="url(#paint17_linear)"/>
<path opacity="0.2" d="M200.121 114.327L171.878 116.793C171.223 116.85 170.739 117.427 170.796 118.082L170.896 119.228C170.953 119.882 171.53 120.367 172.185 120.31L200.428 117.844C201.082 117.786 201.567 117.209 201.51 116.555L201.41 115.409C201.353 114.754 200.775 114.27 200.121 114.327Z" fill="white"/>
<path d="M173.8 217.12H311.41C314.985 217.131 318.41 218.555 320.937 221.083C323.465 223.61 324.889 227.035 324.9 230.61V298.11C324.889 301.685 323.465 305.112 320.938 307.641C318.411 310.17 314.985 311.597 311.41 311.61H263.79L242.6 332.8L221.41 311.61H173.8C170.223 311.599 166.795 310.174 164.266 307.644C161.736 305.115 160.311 301.687 160.3 298.11V230.61C160.311 227.034 161.737 223.607 164.266 221.079C166.796 218.551 170.224 217.128 173.8 217.12Z" fill="url(#paint18_linear)"/>
<path opacity="0.3" d="M173.8 217.12H311.41C314.985 217.131 318.41 218.555 320.937 221.083C323.465 223.61 324.889 227.035 324.9 230.61V298.11C324.889 301.685 323.465 305.112 320.938 307.641C318.411 310.17 314.985 311.597 311.41 311.61H263.79L242.6 332.8L221.41 311.61H173.8C170.223 311.599 166.795 310.174 164.266 307.644C161.736 305.115 160.311 301.687 160.3 298.11V230.61C160.311 227.034 161.737 223.607 164.266 221.079C166.796 218.551 170.224 217.128 173.8 217.12Z" fill="white"/>
<path d="M182.62 240.51V288.21C182.604 290.06 183.321 291.84 184.614 293.163C185.907 294.486 187.671 295.244 189.52 295.27H295.68C297.53 295.244 299.294 294.486 300.587 293.163C301.879 291.84 302.596 290.06 302.58 288.21V240.51C302.579 239.606 302.41 238.711 302.08 237.87C301.577 236.578 300.698 235.467 299.558 234.679C298.417 233.891 297.066 233.463 295.68 233.45H189.52C188.135 233.463 186.785 233.89 185.646 234.678C184.507 235.467 183.631 236.578 183.13 237.87C182.791 238.709 182.618 239.605 182.62 240.51Z" fill="white"/>
<path opacity="0.1" d="M183.13 237.87L234.45 260.22C237.022 261.343 239.799 261.923 242.605 261.923C245.412 261.923 248.188 261.343 250.76 260.22L302.08 237.87C301.577 236.578 300.698 235.467 299.557 234.679C298.417 233.891 297.066 233.463 295.68 233.45H189.52C188.135 233.463 186.785 233.89 185.646 234.678C184.507 235.467 183.631 236.578 183.13 237.87Z" fill="black"/>
<path d="M185.431 237.624C193.445 229.61 193.445 216.618 185.431 208.604C177.418 200.59 164.425 200.591 156.411 208.604C148.398 216.618 148.398 229.61 156.411 237.624C164.425 245.637 177.418 245.637 185.431 237.624Z" fill="#DE5753"/>
<path d="M174.88 235.62H170.1V217.62C168.333 219.264 166.227 220.499 163.93 221.24V216.91C165.405 216.368 166.778 215.58 167.99 214.58C169.355 213.564 170.397 212.175 170.99 210.58H174.87L174.88 235.62Z" fill="white"/>
<path d="M286.37 95.92C285.658 95.9142 284.972 95.6555 284.433 95.1902C283.895 94.7249 283.539 94.0833 283.43 93.38C282.058 84.3648 277.168 76.2613 269.831 70.8458C262.494 65.4304 253.309 63.1447 244.29 64.49C243.558 64.5092 242.844 64.26 242.283 63.7892C241.722 63.3185 241.352 62.6587 241.244 61.9343C241.136 61.21 241.296 60.471 241.695 59.8568C242.094 59.2426 242.704 58.7956 243.41 58.6C253.99 57.0228 264.764 59.7059 273.368 66.0609C281.973 72.4159 287.706 81.924 289.31 92.5C289.419 93.2786 289.219 94.069 288.751 94.7012C288.284 95.3333 287.587 95.7566 286.81 95.88C286.665 95.9077 286.518 95.9211 286.37 95.92Z" fill="url(#paint19_linear)"/>
<path d="M271.58 98.14C270.87 98.1346 270.185 97.8773 269.646 97.4141C269.108 96.9508 268.751 96.3115 268.64 95.61C267.868 90.5128 265.105 85.93 260.958 82.8668C256.812 79.8036 251.619 78.5101 246.52 79.27C245.787 79.292 245.071 79.0447 244.508 78.5747C243.945 78.1048 243.573 77.4448 243.464 76.7196C243.354 75.9944 243.514 75.2541 243.913 74.6388C244.312 74.0234 244.923 73.5756 245.63 73.38C252.291 72.3849 259.075 74.073 264.493 78.0737C269.911 82.0744 273.521 88.061 274.53 94.72C274.642 95.5002 274.443 96.2932 273.975 96.9276C273.507 97.5619 272.809 97.9867 272.03 98.11C271.881 98.13 271.731 98.14 271.58 98.14Z" fill="url(#paint20_linear)"/>
<path d="M256.8 100.37C256.088 100.364 255.402 100.106 254.863 99.6403C254.325 99.175 253.969 98.5333 253.86 97.83C253.773 97.2451 253.572 96.683 253.267 96.1761C252.963 95.6692 252.561 95.2275 252.085 94.8762C251.61 94.525 251.069 94.2712 250.495 94.1294C249.921 93.9876 249.324 93.9607 248.74 94.05C248.014 94.0599 247.31 93.8064 246.757 93.3365C246.203 92.8666 245.839 92.2121 245.732 91.4943C245.625 90.7766 245.781 90.0442 246.172 89.433C246.564 88.8217 247.163 88.373 247.86 88.17C249.221 87.9647 250.609 88.0306 251.945 88.3638C253.28 88.697 254.537 89.291 255.642 90.1117C256.747 90.9324 257.679 91.9634 258.384 93.1456C259.089 94.3278 259.553 95.6377 259.75 97C259.859 97.7786 259.659 98.5691 259.191 99.2012C258.723 99.8333 258.026 100.257 257.25 100.38C257.1 100.392 256.949 100.388 256.8 100.37Z" fill="url(#paint21_linear)"/>
<defs>
<linearGradient id="paint0_linear" x1="415.028" y1="80.0599" x2="415.028" y2="353.233" gradientUnits="userSpaceOnUse">
<stop stop-color="#4070FF"/>
<stop offset="1" stop-color="#365FD9"/>
</linearGradient>
<linearGradient id="paint1_linear" x1="443.89" y1="404.92" x2="443.89" y2="427.56" gradientUnits="userSpaceOnUse">
<stop stop-color="#4070FF"/>
<stop offset="1" stop-color="#365FD9"/>
</linearGradient>
<linearGradient id="paint2_linear" x1="361.342" y1="194.502" x2="361.342" y2="204.72" gradientUnits="userSpaceOnUse">
<stop stop-color="#4070FF"/>
<stop offset="1" stop-color="#365FD9"/>
</linearGradient>
<linearGradient id="paint3_linear" x1="340.551" y1="228.12" x2="340.551" y2="395.81" gradientUnits="userSpaceOnUse">
<stop stop-color="#4070FF"/>
<stop offset="1" stop-color="#365FD9"/>
</linearGradient>
<linearGradient id="paint4_linear" x1="326.26" y1="225.54" x2="326.26" y2="376.4" gradientUnits="userSpaceOnUse">
<stop stop-color="#4070FF"/>
<stop offset="1" stop-color="#365FD9"/>
</linearGradient>
<linearGradient id="paint5_linear" x1="335.286" y1="223.271" x2="335.286" y2="236.571" gradientUnits="userSpaceOnUse">
<stop stop-color="#4070FF"/>
<stop offset="1" stop-color="#365FD9"/>
</linearGradient>
<linearGradient id="paint6_linear" x1="305.311" y1="224.051" x2="305.311" y2="228.587" gradientUnits="userSpaceOnUse">
<stop stop-color="#4070FF"/>
<stop offset="1" stop-color="#365FD9"/>
</linearGradient>
<linearGradient id="paint7_linear" x1="332.718" y1="231.633" x2="332.718" y2="236.169" gradientUnits="userSpaceOnUse">
<stop stop-color="#4070FF"/>
<stop offset="1" stop-color="#365FD9"/>
</linearGradient>
<linearGradient id="paint8_linear" x1="319.018" y1="227.851" x2="319.018" y2="232.379" gradientUnits="userSpaceOnUse">
<stop stop-color="#4070FF"/>
<stop offset="1" stop-color="#365FD9"/>
</linearGradient>
<linearGradient id="paint9_linear" x1="301.234" y1="189.276" x2="301.234" y2="198.234" gradientUnits="userSpaceOnUse">
<stop stop-color="#4070FF"/>
<stop offset="1" stop-color="#365FD9"/>
</linearGradient>
<linearGradient id="paint10_linear" x1="255.044" y1="382.144" x2="255.044" y2="385.78" gradientUnits="userSpaceOnUse">
<stop stop-color="#4070FF"/>
<stop offset="1" stop-color="#365FD9"/>
</linearGradient>
<linearGradient id="paint11_linear" x1="255.843" y1="381.254" x2="255.843" y2="383.106" gradientUnits="userSpaceOnUse">
<stop stop-color="#4070FF"/>
<stop offset="1" stop-color="#365FD9"/>
</linearGradient>
<linearGradient id="paint12_linear" x1="313.594" y1="405.358" x2="313.594" y2="407.499" gradientUnits="userSpaceOnUse">
<stop stop-color="#4070FF"/>
<stop offset="1" stop-color="#365FD9"/>
</linearGradient>
<linearGradient id="paint13_linear" x1="311.735" y1="403.33" x2="311.735" y2="407.14" gradientUnits="userSpaceOnUse">
<stop stop-color="#4070FF"/>
<stop offset="1" stop-color="#365FD9"/>
</linearGradient>
<linearGradient id="paint14_linear" x1="138.606" y1="412.907" x2="112.621" y2="115.299" gradientUnits="userSpaceOnUse">
<stop stop-color="#4070FF"/>
<stop offset="1" stop-color="#365FD9"/>
</linearGradient>
<linearGradient id="paint15_linear" x1="125.924" y1="165.367" x2="125.924" y2="208.903" gradientUnits="userSpaceOnUse">
<stop stop-color="#4070FF"/>
<stop offset="1" stop-color="#365FD9"/>
</linearGradient>
<linearGradient id="paint16_linear" x1="278.389" y1="121.302" x2="278.389" y2="394.691" gradientUnits="userSpaceOnUse">
<stop stop-color="#4070FF"/>
<stop offset="1" stop-color="#365FD9"/>
</linearGradient>
<linearGradient id="paint17_linear" x1="235.69" y1="122.84" x2="235.69" y2="390.52" gradientUnits="userSpaceOnUse">
<stop stop-color="#4070FF"/>
<stop offset="1" stop-color="#365FD9"/>
</linearGradient>
<linearGradient id="paint18_linear" x1="324.9" y1="217.12" x2="324.9" y2="332.8" gradientUnits="userSpaceOnUse">
<stop stop-color="#4070FF"/>
<stop offset="1" stop-color="#365FD9"/>
</linearGradient>
<linearGradient id="paint19_linear" x1="289.339" y1="58.1583" x2="289.339" y2="95.9201" gradientUnits="userSpaceOnUse">
<stop stop-color="#4070FF"/>
<stop offset="1" stop-color="#365FD9"/>
</linearGradient>
<linearGradient id="paint20_linear" x1="274.561" y1="73.1008" x2="274.561" y2="98.14" gradientUnits="userSpaceOnUse">
<stop stop-color="#4070FF"/>
<stop offset="1" stop-color="#365FD9"/>
</linearGradient>
<linearGradient id="paint21_linear" x1="259.779" y1="88.0532" x2="259.779" y2="100.387" gradientUnits="userSpaceOnUse">
<stop stop-color="#4070FF"/>
<stop offset="1" stop-color="#365FD9"/>
</linearGradient>
</defs>
</svg>
