<svg width="500" height="500" viewBox="0 0 500 500" fill="none" xmlns="http://www.w3.org/2000/svg">
<path opacity="0.1" d="M407.54 104.87C404.948 102.085 402.193 99.4575 399.29 96.9999C374.18 75.7099 334.19 63.5799 300.29 74.1299C280.1 80.4099 266.8 97.8899 249.58 109.54C227.92 124.19 199.58 129.19 174.06 134.72C139.63 142.18 107.74 151.92 87.5599 180.17C70.7899 203.66 65.82 234.55 80.62 259.17C94.7 282.55 116.93 302.52 140.99 317.36C161.69 330.13 183.24 334.13 205.8 320.74C220.54 311.99 231.52 298.98 242.8 286.64C255.54 272.64 271.8 255.35 292 251.09C311.22 247.03 331.86 254.35 351.28 253.19C383.37 251.28 412.56 229.62 424.72 202.19C439.14 169.61 431.7 130.83 407.54 104.87Z" fill="url(#paint0_linear)"/>
<path opacity="0.1" d="M250 436.56C357.083 436.56 443.89 431.492 443.89 425.24C443.89 418.988 357.083 413.92 250 413.92C142.918 413.92 56.1101 418.988 56.1101 425.24C56.1101 431.492 142.918 436.56 250 436.56Z" fill="url(#paint1_linear)"/>
<path d="M232.51 138.33H113.22C111.331 138.31 109.459 138.684 107.722 139.427C105.985 140.17 104.422 141.266 103.132 142.646C101.841 144.026 100.852 145.658 100.227 147.441C99.6017 149.224 99.3541 151.117 99.4998 153L116.6 407.4C116.922 411.363 118.709 415.064 121.611 417.781C124.514 420.499 128.324 422.039 132.3 422.1H251.59C253.481 422.121 255.357 421.748 257.096 421.004C258.835 420.259 260.4 419.16 261.69 417.777C262.98 416.393 263.968 414.756 264.589 412.969C265.211 411.182 265.453 409.285 265.3 407.4L248.2 153C247.87 149.044 246.082 145.352 243.182 142.641C240.283 139.93 236.479 138.393 232.51 138.33Z" fill="url(#paint2_linear)"/>
<path opacity="0.15" d="M232.51 138.33H113.22C111.331 138.31 109.459 138.684 107.722 139.427C105.985 140.17 104.422 141.266 103.132 142.646C101.841 144.026 100.852 145.658 100.227 147.441C99.6017 149.224 99.3541 151.117 99.4998 153L116.6 407.4C116.922 411.363 118.709 415.064 121.611 417.781C124.514 420.499 128.324 422.039 132.3 422.1H251.59C253.481 422.121 255.357 421.748 257.096 421.004C258.835 420.259 260.4 419.16 261.69 417.777C262.98 416.393 263.968 414.756 264.589 412.969C265.211 411.182 265.453 409.285 265.3 407.4L248.2 153C247.87 149.044 246.082 145.352 243.182 142.641C240.283 139.93 236.479 138.393 232.51 138.33Z" fill="white"/>
<path d="M99.6462 192.839L98.6484 192.906L100.259 216.902L101.257 216.835L99.6462 192.839Z" fill="url(#paint3_linear)"/>
<path d="M102.143 229.451L101.145 229.518L101.869 240.273L102.867 240.206L102.143 229.451Z" fill="url(#paint4_linear)"/>
<path d="M125.26 410C125.341 410.97 125.067 411.936 124.487 412.717C123.907 413.499 123.062 414.043 122.111 414.246C121.159 414.45 120.166 414.299 119.317 413.823C118.469 413.347 117.822 412.578 117.5 411.66C117.003 410.306 116.7 408.889 116.6 407.45L99.5 153C99.3988 151.568 99.5134 150.128 99.84 148.73C100.041 147.777 100.583 146.93 101.364 146.348C102.145 145.766 103.111 145.489 104.081 145.569C105.052 145.649 105.96 146.08 106.636 146.782C107.311 147.483 107.707 148.407 107.75 149.38L125.26 410Z" fill="url(#paint5_linear)"/>
<path d="M251.59 417.33H140.76C138.008 417.255 135.379 416.174 133.372 414.29C131.365 412.406 130.119 409.851 129.87 407.11L112.77 152.72C112.66 151.492 112.81 150.254 113.21 149.087C113.61 147.921 114.251 146.851 115.092 145.949C115.932 145.046 116.953 144.331 118.088 143.848C119.223 143.366 120.447 143.128 121.68 143.15H232.51C235.26 143.224 237.888 144.304 239.895 146.186C241.902 148.068 243.149 150.62 243.4 153.36L260.5 407.76C260.606 408.988 260.454 410.224 260.053 411.389C259.652 412.554 259.011 413.622 258.171 414.524C257.331 415.426 256.312 416.142 255.178 416.625C254.044 417.108 252.822 417.349 251.59 417.33ZM121.68 144.22C120.594 144.2 119.516 144.409 118.516 144.834C117.516 145.258 116.617 145.889 115.878 146.684C115.138 147.48 114.574 148.422 114.223 149.45C113.872 150.478 113.741 151.568 113.84 152.65L130.94 407C131.162 409.473 132.285 411.779 134.095 413.479C135.906 415.178 138.277 416.154 140.76 416.22H251.59C252.676 416.24 253.754 416.031 254.754 415.606C255.753 415.181 256.652 414.551 257.392 413.755C258.132 412.96 258.696 412.018 259.047 410.99C259.398 409.962 259.528 408.872 259.43 407.79L242.33 153.4C242.108 150.927 240.985 148.621 239.174 146.921C237.364 145.222 234.992 144.246 232.51 144.18L121.68 144.22Z" fill="white"/>
<g opacity="0.5">
<path opacity="0.5" d="M223.987 258.605C240.888 240.732 238.393 210.927 218.413 192.033C198.434 173.139 168.536 172.312 151.634 190.184C134.733 208.057 137.228 237.862 157.208 256.756C177.187 275.65 207.085 276.477 223.987 258.605Z" fill="url(#paint6_linear)"/>
<path opacity="0.5" d="M216.75 251.771C230.27 237.474 228.274 213.631 212.291 198.517C196.309 183.402 172.392 182.74 158.871 197.038C145.351 211.335 147.347 235.178 163.33 250.292C179.312 265.406 203.23 266.069 216.75 251.771Z" fill="white"/>
<path opacity="0.5" d="M209.508 244.971C219.649 234.251 218.155 216.37 206.171 205.033C194.187 193.697 176.25 193.197 166.109 203.917C155.968 214.637 157.462 232.518 169.446 243.855C181.43 255.192 199.366 255.692 209.508 244.971Z" fill="url(#paint7_linear)"/>
<path opacity="0.5" d="M202.284 238.091C209.046 230.941 208.048 219.016 200.054 211.457C192.061 203.898 180.099 203.567 173.337 210.718C166.575 217.868 167.573 229.793 175.567 237.352C183.56 244.911 195.522 245.242 202.284 238.091Z" fill="white"/>
<path opacity="0.5" d="M195.044 231.279C198.426 227.704 197.928 221.742 193.932 217.962C189.936 214.181 183.955 214.015 180.573 217.59C177.191 221.164 177.689 227.127 181.685 230.907C185.681 234.687 191.662 234.854 195.044 231.279Z" fill="url(#paint8_linear)"/>
</g>
<path d="M196.89 288.51C196.71 288.51 196.54 288.51 196.36 288.51C194.988 285.86 192.921 283.632 190.382 282.064C187.842 280.497 184.924 279.649 181.94 279.61C180.41 279.608 178.888 279.845 177.43 280.31C175.992 277.674 173.878 275.468 171.305 273.92C168.732 272.371 165.793 271.536 162.79 271.5C160.903 271.472 159.028 271.817 157.275 272.515C155.521 273.214 153.922 274.251 152.571 275.569C151.219 276.886 150.14 278.457 149.397 280.192C148.654 281.928 148.261 283.792 148.24 285.68C146.747 285.768 145.287 286.154 143.946 286.815C142.605 287.477 141.41 288.4 140.432 289.53C139.453 290.661 138.711 291.976 138.248 293.398C137.786 294.82 137.613 296.32 137.74 297.81C137.999 301.094 139.476 304.163 141.881 306.415C144.286 308.666 147.446 309.938 150.74 309.98H198.36C199.742 309.996 201.113 309.723 202.383 309.178C203.654 308.633 204.797 307.829 205.738 306.817C206.68 305.805 207.399 304.607 207.851 303.301C208.302 301.994 208.476 300.607 208.36 299.23C208.124 296.336 206.818 293.635 204.697 291.653C202.576 289.671 199.793 288.55 196.89 288.51Z" fill="white"/>
<path d="M227.22 172.16H226.81C225.74 170.095 224.129 168.36 222.149 167.139C220.169 165.919 217.895 165.259 215.57 165.23C214.376 165.227 213.188 165.41 212.05 165.77C210.927 163.717 209.279 162 207.274 160.795C205.269 159.589 202.979 158.939 200.64 158.91C197.678 158.867 194.82 160.002 192.694 162.064C190.568 164.126 189.347 166.948 189.3 169.91C188.136 169.979 186.998 170.281 185.952 170.797C184.906 171.312 183.974 172.032 183.211 172.914C182.448 173.795 181.869 174.821 181.508 175.93C181.147 177.038 181.012 178.208 181.11 179.37C181.314 181.928 182.466 184.318 184.339 186.071C186.213 187.825 188.674 188.816 191.24 188.85H228.36C229.439 188.865 230.509 188.654 231.501 188.23C232.494 187.807 233.387 187.18 234.122 186.391C234.858 185.602 235.42 184.667 235.773 183.647C236.125 182.627 236.261 181.545 236.17 180.47C235.972 178.222 234.947 176.128 233.294 174.593C231.64 173.058 229.476 172.191 227.22 172.16Z" fill="white"/>
<path opacity="0.3" d="M242 327.86H173.44C172.945 327.854 172.453 327.952 171.998 328.147C171.542 328.342 171.132 328.629 170.794 328.992C170.457 329.354 170.198 329.783 170.035 330.251C169.873 330.719 169.81 331.216 169.85 331.71L172.63 372.6C172.71 373.639 173.176 374.611 173.937 375.323C174.698 376.036 175.698 376.438 176.74 376.45H185.94L186.71 387.76L197.24 376.45H245.24C245.736 376.457 246.228 376.361 246.684 376.166C247.14 375.972 247.551 375.684 247.889 375.321C248.227 374.959 248.486 374.529 248.648 374.06C248.81 373.592 248.872 373.094 248.83 372.6L246.06 331.71C245.977 330.681 245.516 329.718 244.767 329.008C244.017 328.297 243.032 327.889 242 327.86Z" fill="white"/>
<path d="M241.47 354.74H177.61L177.26 349.57H241.13L241.47 354.74Z" fill="white"/>
<path d="M222 365.48H178.34L177.99 360.31H221.65L222 365.48Z" fill="white"/>
<path d="M240.75 344H176.88L176.53 338.83H240.4L240.75 344Z" fill="white"/>
<path d="M295.64 155L298.27 156.89C299.183 157.557 300.103 158.187 301.03 158.78C302.88 160.01 304.74 161.24 306.62 162.36C308.5 163.48 310.4 164.54 312.28 165.48C314.042 166.369 315.867 167.127 317.74 167.75C317.324 167.647 316.893 167.627 316.47 167.69C316.217 167.721 315.971 167.792 315.74 167.9C315.45 168.05 315.54 168.06 315.69 167.97C316.268 167.569 316.79 167.091 317.24 166.55C318.556 164.979 319.746 163.308 320.8 161.55C321.97 159.71 323.09 157.76 324.16 155.76C325.23 153.76 326.3 151.71 327.29 149.76L327.36 149.63C327.866 148.633 328.726 147.86 329.772 147.463C330.817 147.065 331.973 147.071 333.014 147.479C334.055 147.887 334.907 148.669 335.404 149.671C335.9 150.673 336.006 151.824 335.7 152.9C334.34 157.665 332.619 162.318 330.55 166.82C329.428 169.242 328.107 171.567 326.6 173.77C325.657 175.135 324.552 176.381 323.31 177.48C322.401 178.272 321.371 178.913 320.26 179.38C319.478 179.701 318.658 179.919 317.82 180.03C316.817 180.144 315.803 180.087 314.82 179.86C312.149 179.24 309.533 178.401 307 177.35C304.63 176.385 302.313 175.294 300.06 174.08C297.84 172.9 295.676 171.657 293.57 170.35C292.52 169.69 291.48 169.02 290.45 168.35C289.42 167.68 288.45 166.98 287.32 166.16C286.057 164.996 285.267 163.408 285.098 161.699C284.93 159.99 285.396 158.279 286.407 156.891C287.419 155.503 288.905 154.536 290.583 154.172C292.262 153.809 294.015 154.075 295.51 154.92L295.64 155Z" fill="url(#paint9_linear)"/>
<path opacity="0.2" d="M295.64 155L298.27 156.89C299.183 157.557 300.103 158.187 301.03 158.78C302.88 160.01 304.74 161.24 306.62 162.36C308.5 163.48 310.4 164.54 312.28 165.48C314.042 166.369 315.867 167.127 317.74 167.75C317.324 167.647 316.893 167.627 316.47 167.69C316.217 167.721 315.971 167.792 315.74 167.9C315.45 168.05 315.54 168.06 315.69 167.97C316.268 167.569 316.79 167.091 317.24 166.55C318.556 164.979 319.746 163.308 320.8 161.55C321.97 159.71 323.09 157.76 324.16 155.76C325.23 153.76 326.3 151.71 327.29 149.76L327.36 149.63C327.866 148.633 328.726 147.86 329.772 147.463C330.817 147.065 331.973 147.071 333.014 147.479C334.055 147.887 334.907 148.669 335.404 149.671C335.9 150.673 336.006 151.824 335.7 152.9C334.34 157.665 332.619 162.318 330.55 166.82C329.428 169.242 328.107 171.567 326.6 173.77C325.657 175.135 324.552 176.381 323.31 177.48C322.401 178.272 321.371 178.913 320.26 179.38C319.478 179.701 318.658 179.919 317.82 180.03C316.817 180.144 315.803 180.087 314.82 179.86C312.149 179.24 309.533 178.401 307 177.35C304.63 176.385 302.313 175.294 300.06 174.08C297.84 172.9 295.676 171.657 293.57 170.35C292.52 169.69 291.48 169.02 290.45 168.35C289.42 167.68 288.45 166.98 287.32 166.16C286.057 164.996 285.267 163.408 285.098 161.699C284.93 159.99 285.396 158.279 286.407 156.891C287.419 155.503 288.905 154.536 290.583 154.172C292.262 153.809 294.015 154.075 295.51 154.92L295.64 155Z" fill="black"/>
<path d="M329.81 147.89L332.52 143.31L337.72 148.92C336.969 150.549 335.613 151.822 333.94 152.47C333.564 152.598 333.164 152.638 332.77 152.586C332.376 152.534 332 152.391 331.67 152.17L330.67 151.53C330.086 151.15 329.671 150.56 329.511 149.882C329.351 149.204 329.458 148.491 329.81 147.89Z" fill="#FFB573"/>
<path d="M339.89 140.58L341.04 141.29C341.4 141.513 341.704 141.818 341.926 142.179C342.148 142.541 342.282 142.949 342.318 143.372C342.354 143.795 342.291 144.22 342.133 144.614C341.975 145.008 341.728 145.359 341.41 145.64L337.72 148.92L332.52 143.31L337.05 140.57C337.478 140.309 337.97 140.171 338.471 140.173C338.973 140.175 339.464 140.316 339.89 140.58Z" fill="#FFB573"/>
<path d="M232.02 417.12L239.94 417.35L242.92 399.01L235.01 398.78L232.02 417.12Z" fill="#FFB573"/>
<path d="M241.19 415.12L232.34 414C232.191 413.977 232.04 414.013 231.918 414.101C231.797 414.189 231.714 414.322 231.69 414.47L230.38 421.41C230.332 421.777 230.431 422.149 230.656 422.443C230.881 422.737 231.213 422.93 231.58 422.98C234.67 423.32 236.16 423.32 240.05 423.81C242.44 424.12 248.67 425.62 251.98 425.21C255.29 424.8 254.79 421.55 253.35 421.43C246.9 420.87 244.48 417.8 242.48 415.77C242.133 415.418 241.68 415.189 241.19 415.12Z" fill="#263238"/>
<path opacity="0.2" d="M235 398.79L242.92 399.02L241.38 408.47L233.46 408.24L235 398.79Z" fill="black"/>
<path d="M278.29 223C278.29 223 271.38 288.59 266.78 310.87C261.78 335.27 245.61 406.65 245.61 406.65L231.12 405.58C231.12 405.58 239.06 331.74 245.56 307.84C245.56 283.02 251.56 213.46 251.56 213.46L278.29 223Z" fill="#263238"/>
<path opacity="0.3" d="M255.2 245.17C255.07 240.04 252.29 238.39 249.55 238.45C248.55 250.79 247.48 265.92 246.67 279.57C251.53 271.69 255.56 259.42 255.2 245.17Z" fill="black"/>
<path d="M230.69 405.68L246.21 406.83L247.99 400.98L230.12 400.8L230.69 405.68Z" fill="white"/>
<path d="M151.71 355.65L156.7 361.82L171.63 351.05L166.63 344.89L151.71 355.65Z" fill="#FFB573"/>
<path d="M157.78 361.83L153.34 354.1C153.27 353.969 153.151 353.87 153.009 353.825C152.867 353.78 152.713 353.793 152.58 353.86L146.25 357C145.929 357.183 145.693 357.485 145.593 357.841C145.494 358.197 145.54 358.578 145.72 358.9C147.31 361.57 148.21 362.76 150.16 366.16C151.36 368.25 154.52 374.26 156.16 377.16C157.8 380.06 160.63 378.33 160.16 376.96C158.16 370.8 157.59 366.09 158 363.28C158.091 362.786 158.014 362.275 157.78 361.83Z" fill="#263238"/>
<path opacity="0.2" d="M166.63 344.89L171.63 351.06L163.93 356.6L158.93 350.44L166.63 344.89Z" fill="black"/>
<path d="M263.84 217.36C263.84 217.36 244.35 273.14 235.49 294.1C225.8 317.05 167.85 357.81 167.85 357.81L158.7 346.52C158.7 346.52 198.08 307.05 212.7 288.33C220.8 262.84 238.09 208.15 238.09 208.15L263.84 217.36Z" fill="#263238"/>
<path d="M158.33 346.06L168.22 358.26L173.05 355.47L161.47 342.55L158.33 346.06Z" fill="white"/>
<path d="M278.21 223.38L238.05 208.15C239.05 204.48 244.3 193.7 248.97 178.69C252.502 167.598 255.071 156.223 256.65 144.69C256.691 144.354 256.8 144.03 256.97 143.737C257.141 143.444 257.37 143.19 257.642 142.989C257.914 142.787 258.225 142.644 258.555 142.567C258.884 142.49 259.226 142.48 259.56 142.54C260.31 142.67 261.2 142.84 262.18 143.03C264.71 143.54 267.87 144.26 270.88 145.18C276.658 146.874 282.334 148.897 287.88 151.24C289.737 152.076 291.544 153.021 293.29 154.07C294.329 154.662 295.293 155.377 296.16 156.2C296.473 156.452 296.733 156.764 296.924 157.117C297.115 157.471 297.232 157.86 297.27 158.26C297.27 164 291.52 186.24 278.21 223.38Z" fill="#F0F0F0"/>
<path d="M287.08 150.87C282.56 147.93 282.78 144.57 284.31 141.33C284.694 140.529 285.125 139.751 285.6 139L281.25 131.65L278.05 126.26C277.35 132.18 275.21 142.66 270.21 144.98C272.942 148.838 276.845 151.714 281.34 153.18C288.72 155.48 287.08 150.87 287.08 150.87Z" fill="#FFB573"/>
<path d="M281.06 153.06L280.99 151.18L275.99 152.16L281.06 153.06Z" fill="#E0E0E0"/>
<path d="M281.06 153.06L281.99 151.53L285.22 155.46L281.06 153.06Z" fill="#E0E0E0"/>
<path d="M270.89 144.08C273.931 146.879 277.327 149.266 280.99 151.18C278.99 152.41 277.09 155.65 276.37 158.33C274.75 157.2 268.27 146.54 267.37 143.61L270.89 144.08Z" fill="white"/>
<path d="M286.14 149.73C284.956 150.718 283.511 151.344 281.98 151.53C283.05 153.1 283.98 157.17 283.98 159.53C285.85 158.31 288.74 154.05 289.2 152.12L286.14 149.73Z" fill="white"/>
<path opacity="0.3" d="M286.3 149.59C286.3 149.59 290.67 151.69 294.53 154.07C296.111 155.045 297.333 156.507 298.011 158.237C298.69 159.967 298.787 161.87 298.29 163.66C293.52 180.52 287.08 196.89 284.41 206C281.58 215.71 277.64 227.89 277.64 227.89L270.83 229.5C270.83 229.5 287.9 164.21 286.3 149.59Z" fill="black"/>
<path opacity="0.3" d="M270.79 143.32C270.79 143.32 264.92 142.55 259.79 142.32C257.991 142.239 256.219 142.781 254.773 143.854C253.327 144.926 252.294 146.465 251.85 148.21C249.25 158.49 247.33 178.15 244.7 185.8C241.43 195.36 237 214 237 214L260.26 227.44C260.26 227.44 283.76 155.25 270.79 143.32Z" fill="black"/>
<path d="M270.79 143.32C270.79 143.32 264.92 142.55 259.79 142.32C257.991 142.239 256.219 142.781 254.773 143.854C253.326 144.926 252.294 146.465 251.85 148.21C249.25 158.49 245.71 177.69 243.07 185.35C239.78 194.91 232.8 211.16 232.8 211.16L262.14 224.92C262.14 224.92 283.76 155.25 270.79 143.32Z" fill="url(#paint10_linear)"/>
<path opacity="0.2" d="M270.79 143.32C270.79 143.32 264.92 142.55 259.79 142.32C257.991 142.239 256.219 142.781 254.773 143.854C253.326 144.926 252.294 146.465 251.85 148.21C249.25 158.49 245.71 177.69 243.07 185.35C239.78 194.91 232.8 211.16 232.8 211.16L262.14 224.92C262.14 224.92 283.76 155.25 270.79 143.32Z" fill="black"/>
<path d="M286.3 149.59C286.3 149.59 290.67 151.69 294.53 154.07C296.112 155.045 297.333 156.507 298.012 158.237C298.69 159.967 298.787 161.87 298.29 163.66C293.52 180.52 289.75 198.19 287.85 207.49C285.85 217.39 283.76 226.4 283.76 226.4L272.76 227.89C272.76 227.89 287.9 164.21 286.3 149.59Z" fill="url(#paint11_linear)"/>
<path opacity="0.2" d="M286.3 149.59C286.3 149.59 290.67 151.69 294.53 154.07C296.112 155.045 297.333 156.507 298.012 158.237C298.69 159.967 298.787 161.87 298.29 163.66C293.52 180.52 289.75 198.19 287.85 207.49C285.85 217.39 283.76 226.4 283.76 226.4L272.76 227.89C272.76 227.89 287.9 164.21 286.3 149.59Z" fill="black"/>
<path opacity="0.2" d="M285.6 139C285.124 139.761 284.693 140.549 284.31 141.36C282.17 140.07 279.97 136.51 280.49 134.04C280.653 133.218 280.908 132.416 281.25 131.65L285.6 139Z" fill="black"/>
<path d="M291.77 108.68C297.09 109.37 299.04 116.55 296.1 121.29C291.28 114.3 291.77 108.68 291.77 108.68Z" fill="#263238"/>
<path d="M275.21 121.92C277.01 129.61 277.66 134.19 282.27 137.64C283.755 138.779 285.524 139.49 287.385 139.695C289.246 139.901 291.127 139.594 292.825 138.807C294.524 138.02 295.975 136.783 297.021 135.231C298.067 133.679 298.668 131.87 298.76 130C299.26 122.81 296.24 111.44 288.09 109.38C286.337 108.885 284.484 108.861 282.718 109.309C280.953 109.757 279.336 110.662 278.031 111.933C276.726 113.204 275.778 114.795 275.283 116.549C274.788 118.302 274.762 120.154 275.21 121.92Z" fill="#FFB573"/>
<path d="M277.58 128.77C282.21 128.9 281.49 121.23 279.47 118.33C285.89 119.33 296.53 113.66 297.6 107.72C299.15 99.1101 286.02 99.1101 281.77 101.85C283.6 101.98 284.53 103.53 284.09 104.33C284.09 104.33 277.75 102.41 273.65 104.64C275.44 105.3 277.34 107.88 270.53 108.7C264.05 109.48 266.01 116 269.28 115.88C267.54 118.55 265.45 124.62 269.37 127.2C273.29 129.78 275.97 133.14 275.12 134.52C276.49 134.47 279.4 132.82 277.58 128.77Z" fill="#263238"/>
<path d="M270.21 115.28C267.11 115.58 265.33 118 265.21 121.28C266.538 119.021 268.227 116.994 270.21 115.28Z" fill="#263238"/>
<path d="M273.36 128.87C274.15 130.448 275.507 131.67 277.16 132.29C279.33 133.08 280.47 131.16 279.91 129.02C279.4 127.08 277.66 124.35 275.46 124.49C273.26 124.63 272.4 126.91 273.36 128.87Z" fill="#FFB573"/>
<path d="M287.4 122.51C287.5 123.14 287.93 123.6 288.34 123.51C288.75 123.42 289 122.9 288.9 122.27C288.8 121.64 288.37 121.17 287.95 121.27C287.53 121.37 287.29 121.88 287.4 122.51Z" fill="#263238"/>
<path d="M294.57 121.55C294.67 122.18 295.09 122.64 295.51 122.55C295.93 122.46 296.17 121.94 296.07 121.3C295.97 120.66 295.54 120.21 295.12 120.3C294.7 120.39 294.46 120.91 294.57 121.55Z" fill="#263238"/>
<path d="M292.34 122.17C293.427 124.003 294.752 125.684 296.28 127.17C295.34 128.36 293.35 128.17 293.35 128.17L292.34 122.17Z" fill="#ED893E"/>
<path d="M291.05 130.18C290.31 130.2 289.574 130.069 288.887 129.796C288.199 129.523 287.574 129.112 287.05 128.59C287.017 128.555 286.999 128.508 286.999 128.46C286.999 128.412 287.017 128.365 287.05 128.33C287.068 128.312 287.089 128.298 287.112 128.288C287.135 128.279 287.16 128.274 287.185 128.274C287.21 128.274 287.235 128.279 287.258 128.288C287.281 128.298 287.302 128.312 287.32 128.33C287.899 128.891 288.601 129.311 289.369 129.556C290.138 129.8 290.953 129.863 291.75 129.74C291.776 129.731 291.805 129.728 291.832 129.732C291.86 129.735 291.887 129.744 291.911 129.759C291.934 129.774 291.954 129.794 291.97 129.817C291.985 129.841 291.995 129.867 291.998 129.895C292.002 129.923 292 129.951 291.991 129.977C291.983 130.004 291.969 130.029 291.95 130.049C291.931 130.07 291.908 130.086 291.882 130.096C291.856 130.107 291.828 130.112 291.8 130.11C291.552 130.153 291.301 130.176 291.05 130.18Z" fill="#263238"/>
<path d="M289.05 132.26C288.452 131.819 287.95 131.261 287.575 130.62C287.2 129.978 286.96 129.267 286.87 128.53C286.867 128.481 286.883 128.433 286.915 128.396C286.947 128.359 286.991 128.335 287.04 128.33C287.064 128.327 287.089 128.33 287.113 128.337C287.136 128.344 287.158 128.356 287.177 128.372C287.195 128.388 287.211 128.407 287.222 128.429C287.233 128.451 287.239 128.475 287.24 128.5C287.357 129.298 287.653 130.059 288.107 130.726C288.561 131.393 289.16 131.948 289.86 132.35C289.881 132.361 289.9 132.377 289.915 132.396C289.93 132.415 289.942 132.437 289.948 132.46C289.955 132.483 289.956 132.508 289.953 132.532C289.95 132.556 289.942 132.579 289.93 132.6C289.918 132.622 289.901 132.641 289.881 132.656C289.861 132.671 289.839 132.682 289.814 132.689C289.79 132.696 289.765 132.697 289.74 132.694C289.716 132.691 289.692 132.683 289.67 132.67C289.457 132.544 289.25 132.407 289.05 132.26Z" fill="#263238"/>
<path d="M284.79 120.5C284.731 120.515 284.669 120.515 284.61 120.5C284.565 120.478 284.525 120.447 284.493 120.409C284.46 120.371 284.436 120.327 284.421 120.279C284.406 120.232 284.401 120.181 284.406 120.132C284.411 120.082 284.426 120.034 284.45 119.99C284.714 119.454 285.105 118.991 285.59 118.643C286.075 118.294 286.638 118.07 287.23 117.99C287.279 117.986 287.329 117.992 287.376 118.007C287.423 118.023 287.467 118.048 287.504 118.08C287.541 118.113 287.572 118.153 287.593 118.197C287.615 118.242 287.627 118.291 287.63 118.34C287.634 118.389 287.628 118.439 287.613 118.486C287.597 118.533 287.572 118.577 287.54 118.614C287.507 118.651 287.467 118.682 287.423 118.703C287.378 118.725 287.329 118.738 287.28 118.74C286.821 118.806 286.384 118.981 286.006 119.251C285.629 119.521 285.321 119.877 285.11 120.29C285.083 120.352 285.038 120.405 284.981 120.443C284.924 120.48 284.858 120.5 284.79 120.5Z" fill="#263238"/>
<path d="M297.23 118.68C297.169 118.682 297.109 118.668 297.054 118.64C297 118.612 296.954 118.571 296.92 118.52C296.654 118.118 296.299 117.783 295.883 117.54C295.467 117.297 295.001 117.154 294.52 117.12C294.431 117.106 294.35 117.06 294.292 116.991C294.233 116.922 294.201 116.835 294.201 116.745C294.201 116.655 294.233 116.568 294.292 116.499C294.35 116.43 294.431 116.385 294.52 116.37C295.119 116.404 295.703 116.577 296.223 116.875C296.744 117.174 297.188 117.59 297.52 118.09C297.549 118.13 297.569 118.175 297.58 118.223C297.591 118.271 297.592 118.321 297.584 118.369C297.576 118.417 297.558 118.464 297.531 118.505C297.505 118.546 297.47 118.582 297.43 118.61C297.373 118.655 297.303 118.679 297.23 118.68Z" fill="#263238"/>
<path d="M261.94 155.26C259.94 156.89 257.83 158.7 255.82 160.47C253.81 162.24 251.76 164.06 249.82 165.92C245.96 169.493 242.345 173.321 239 177.38L237.86 178.86L237.72 179.05C237.75 179.005 237.777 178.959 237.8 178.91C237.86 178.798 237.91 178.681 237.95 178.56C238.026 178.359 238.067 178.145 238.07 177.93C238.07 177.59 238.01 177.59 238.07 177.75C238.114 178.058 238.201 178.357 238.33 178.64C238.733 179.584 239.236 180.483 239.83 181.32C240.519 182.331 241.26 183.306 242.05 184.24C243.66 186.24 245.46 188.15 247.35 190.04C249.24 191.93 251.24 193.84 253.15 195.59L253.28 195.7C254.122 196.457 254.648 197.505 254.75 198.633C254.853 199.761 254.526 200.886 253.834 201.783C253.142 202.679 252.137 203.282 251.02 203.468C249.902 203.655 248.756 203.413 247.81 202.79C242.794 199.61 238.104 195.943 233.81 191.84C232.72 190.75 231.65 189.61 230.6 188.35C229.464 186.984 228.46 185.514 227.6 183.96C227.079 183.004 226.653 181.999 226.33 180.96C225.895 179.561 225.739 178.09 225.87 176.63C225.952 175.716 226.16 174.817 226.49 173.96C226.663 173.516 226.867 173.085 227.1 172.67L227.46 172.08L227.62 171.84L228.92 169.91C232.385 165.072 236.241 160.527 240.45 156.32C242.45 154.24 244.55 152.21 246.68 150.25C248.81 148.29 250.92 146.4 253.27 144.48C254.714 143.625 256.417 143.317 258.07 143.612C259.722 143.908 261.213 144.787 262.271 146.09C263.329 147.393 263.884 149.033 263.834 150.71C263.784 152.388 263.133 153.992 262 155.23L261.94 155.26Z" fill="url(#paint12_linear)"/>
<path opacity="0.2" d="M261.94 155.26C259.94 156.89 257.83 158.7 255.82 160.47C253.81 162.24 251.76 164.06 249.82 165.92C245.96 169.493 242.345 173.321 239 177.38L237.86 178.86L237.72 179.05C237.75 179.005 237.777 178.959 237.8 178.91C237.86 178.798 237.91 178.681 237.95 178.56C238.026 178.359 238.067 178.145 238.07 177.93C238.07 177.59 238.01 177.59 238.07 177.75C238.114 178.058 238.201 178.357 238.33 178.64C238.733 179.584 239.236 180.483 239.83 181.32C240.519 182.331 241.26 183.306 242.05 184.24C243.66 186.24 245.46 188.15 247.35 190.04C249.24 191.93 251.24 193.84 253.15 195.59L253.28 195.7C254.122 196.457 254.648 197.505 254.75 198.633C254.853 199.761 254.526 200.886 253.834 201.783C253.142 202.679 252.137 203.282 251.02 203.468C249.902 203.655 248.756 203.413 247.81 202.79C242.794 199.61 238.104 195.943 233.81 191.84C232.72 190.75 231.65 189.61 230.6 188.35C229.464 186.984 228.46 185.514 227.6 183.96C227.079 183.004 226.653 181.999 226.33 180.96C225.895 179.561 225.739 178.09 225.87 176.63C225.952 175.716 226.16 174.817 226.49 173.96C226.663 173.516 226.867 173.085 227.1 172.67L227.46 172.08L227.62 171.84L228.92 169.91C232.385 165.072 236.241 160.527 240.45 156.32C242.45 154.24 244.55 152.21 246.68 150.25C248.81 148.29 250.92 146.4 253.27 144.48C254.714 143.625 256.417 143.317 258.07 143.612C259.722 143.908 261.213 144.787 262.271 146.09C263.329 147.393 263.884 149.033 263.834 150.71C263.784 152.388 263.133 153.992 262 155.23L261.94 155.26Z" fill="black"/>
<path d="M254.67 197.24L261.47 201.4L252.78 206.35C252.78 206.35 247 202.03 249.47 199.24L252.37 197.24C252.712 197.018 253.112 196.899 253.52 196.899C253.928 196.899 254.328 197.018 254.67 197.24Z" fill="#FFB573"/>
<path d="M261.84 209L258.1 211.2C257.841 211.355 257.554 211.455 257.255 211.497C256.957 211.538 256.653 211.519 256.362 211.441C256.071 211.362 255.799 211.226 255.561 211.041C255.324 210.855 255.126 210.624 254.98 210.36L252.78 206.36L261.47 201.41L262.87 206.41C263.009 206.895 262.983 207.412 262.797 207.881C262.61 208.35 262.274 208.743 261.84 209Z" fill="#FFB573"/>
<path d="M326.89 138.38L336.1 136.57C333.57 141.03 337.29 145.3 340.63 147.98C342.22 149.26 341.1 151.55 338.63 151.98L332.63 153.16C325.39 154.62 326.89 138.38 326.89 138.38Z" fill="url(#paint13_linear)"/>
<path d="M323.23 139.09L344.35 135C347.648 134.343 350.551 132.406 352.425 129.614C354.299 126.822 354.991 123.401 354.35 120.1C353.688 116.805 351.75 113.905 348.959 112.032C346.168 110.159 342.751 109.464 339.45 110.1L318.34 114.24C315.044 114.905 312.144 116.844 310.271 119.637C308.398 122.429 307.704 125.848 308.34 129.15C309.014 132.433 310.955 135.319 313.743 137.18C316.53 139.041 319.939 139.727 323.23 139.09Z" fill="url(#paint14_linear)"/>
<path opacity="0.3" d="M323.23 139.09L344.35 135C347.648 134.343 350.551 132.406 352.425 129.614C354.299 126.822 354.991 123.401 354.35 120.1C353.688 116.805 351.75 113.905 348.959 112.032C346.168 110.159 342.751 109.464 339.45 110.1L318.34 114.24C315.044 114.905 312.144 116.844 310.271 119.637C308.398 122.429 307.704 125.848 308.34 129.15C309.014 132.433 310.955 135.319 313.743 137.18C316.53 139.041 319.939 139.727 323.23 139.09Z" fill="white"/>
<path d="M380.71 143.4L344.71 142.92C341.59 143.53 333.71 103.13 336.79 102.52L369.93 88.52L380.71 143.4Z" fill="url(#paint15_linear)"/>
<path d="M372.45 116.51C375.45 131.67 379.12 143.71 380.71 143.4C382.3 143.09 381.18 130.54 378.2 115.4C375.22 100.26 371.53 88.1999 369.94 88.5099C368.35 88.8199 369.48 101.34 372.45 116.51Z" fill="url(#paint16_linear)"/>
<path opacity="0.3" d="M372.45 116.51C375.45 131.67 379.12 143.71 380.71 143.4C382.3 143.09 381.18 130.54 378.2 115.4C375.22 100.26 371.53 88.1999 369.94 88.5099C368.35 88.8199 369.48 101.34 372.45 116.51Z" fill="black"/>
<path d="M386 114.64C385.27 110.93 377 109.42 375.25 109.77C373.5 110.12 372.65 113.4 373.37 117.11C374.09 120.82 376.12 123.54 377.88 123.2C379.64 122.86 386.7 118.34 386 114.64Z" fill="url(#paint17_linear)"/>
<path d="M441.686 105.015L394.845 112.593L395.016 113.649L441.857 106.071L441.686 105.015Z" fill="url(#paint18_linear)"/>
<path d="M409.636 84.7907L390.429 101.166L391.124 101.98L410.331 85.6049L409.636 84.7907Z" fill="url(#paint19_linear)"/>
<path d="M419.145 135.432L418.789 136.441L425.833 138.927L426.189 137.918L419.145 135.432Z" fill="url(#paint20_linear)"/>
<path d="M393.622 126.737L393.282 127.752L411.106 133.729L411.446 132.715L393.622 126.737Z" fill="url(#paint21_linear)"/>
<defs>
<linearGradient id="paint0_linear" x1="432.05" y1="70.2585" x2="432.05" y2="329.052" gradientUnits="userSpaceOnUse">
<stop stop-color="#4070FF"/>
<stop offset="1" stop-color="#365FD9"/>
</linearGradient>
<linearGradient id="paint1_linear" x1="443.89" y1="413.92" x2="443.89" y2="436.56" gradientUnits="userSpaceOnUse">
<stop stop-color="#4070FF"/>
<stop offset="1" stop-color="#365FD9"/>
</linearGradient>
<linearGradient id="paint2_linear" x1="265.344" y1="138.329" x2="265.344" y2="422.101" gradientUnits="userSpaceOnUse">
<stop stop-color="#4070FF"/>
<stop offset="1" stop-color="#365FD9"/>
</linearGradient>
<linearGradient id="paint3_linear" x1="99.6462" y1="192.839" x2="101.257" y2="216.835" gradientUnits="userSpaceOnUse">
<stop stop-color="#4070FF"/>
<stop offset="1" stop-color="#365FD9"/>
</linearGradient>
<linearGradient id="paint4_linear" x1="102.143" y1="229.451" x2="102.867" y2="240.206" gradientUnits="userSpaceOnUse">
<stop stop-color="#4070FF"/>
<stop offset="1" stop-color="#365FD9"/>
</linearGradient>
<linearGradient id="paint5_linear" x1="125.274" y1="145.556" x2="125.274" y2="414.335" gradientUnits="userSpaceOnUse">
<stop stop-color="#4070FF"/>
<stop offset="1" stop-color="#365FD9"/>
</linearGradient>
<linearGradient id="paint6_linear" x1="182.237" y1="157.823" x2="254.59" y2="226.243" gradientUnits="userSpaceOnUse">
<stop stop-color="#4070FF"/>
<stop offset="1" stop-color="#365FD9"/>
</linearGradient>
<linearGradient id="paint7_linear" x1="184.472" y1="184.506" x2="227.87" y2="225.56" gradientUnits="userSpaceOnUse">
<stop stop-color="#4070FF"/>
<stop offset="1" stop-color="#365FD9"/>
</linearGradient>
<linearGradient id="paint8_linear" x1="186.696" y1="211.117" x2="201.167" y2="224.806" gradientUnits="userSpaceOnUse">
<stop stop-color="#4070FF"/>
<stop offset="1" stop-color="#365FD9"/>
</linearGradient>
<linearGradient id="paint9_linear" x1="335.872" y1="147.169" x2="335.872" y2="180.087" gradientUnits="userSpaceOnUse">
<stop stop-color="#4070FF"/>
<stop offset="1" stop-color="#365FD9"/>
</linearGradient>
<linearGradient id="paint10_linear" x1="274.934" y1="142.312" x2="274.934" y2="224.92" gradientUnits="userSpaceOnUse">
<stop stop-color="#4070FF"/>
<stop offset="1" stop-color="#365FD9"/>
</linearGradient>
<linearGradient id="paint11_linear" x1="298.603" y1="149.59" x2="298.603" y2="227.89" gradientUnits="userSpaceOnUse">
<stop stop-color="#4070FF"/>
<stop offset="1" stop-color="#365FD9"/>
</linearGradient>
<linearGradient id="paint12_linear" x1="263.837" y1="143.503" x2="263.837" y2="203.53" gradientUnits="userSpaceOnUse">
<stop stop-color="#4070FF"/>
<stop offset="1" stop-color="#365FD9"/>
</linearGradient>
<linearGradient id="paint13_linear" x1="341.368" y1="136.57" x2="341.368" y2="153.253" gradientUnits="userSpaceOnUse">
<stop stop-color="#4070FF"/>
<stop offset="1" stop-color="#365FD9"/>
</linearGradient>
<linearGradient id="paint14_linear" x1="354.583" y1="109.87" x2="354.583" y2="139.322" gradientUnits="userSpaceOnUse">
<stop stop-color="#4070FF"/>
<stop offset="1" stop-color="#365FD9"/>
</linearGradient>
<linearGradient id="paint15_linear" x1="380.71" y1="88.52" x2="380.71" y2="143.4" gradientUnits="userSpaceOnUse">
<stop stop-color="#4070FF"/>
<stop offset="1" stop-color="#365FD9"/>
</linearGradient>
<linearGradient id="paint16_linear" x1="381.433" y1="88.504" x2="381.433" y2="143.406" gradientUnits="userSpaceOnUse">
<stop stop-color="#4070FF"/>
<stop offset="1" stop-color="#365FD9"/>
</linearGradient>
<linearGradient id="paint17_linear" x1="386.049" y1="109.721" x2="386.049" y2="123.229" gradientUnits="userSpaceOnUse">
<stop stop-color="#4070FF"/>
<stop offset="1" stop-color="#365FD9"/>
</linearGradient>
<linearGradient id="paint18_linear" x1="441.686" y1="105.015" x2="441.857" y2="106.071" gradientUnits="userSpaceOnUse">
<stop stop-color="#4070FF"/>
<stop offset="1" stop-color="#365FD9"/>
</linearGradient>
<linearGradient id="paint19_linear" x1="409.636" y1="84.7907" x2="410.331" y2="85.6049" gradientUnits="userSpaceOnUse">
<stop stop-color="#4070FF"/>
<stop offset="1" stop-color="#365FD9"/>
</linearGradient>
<linearGradient id="paint20_linear" x1="419.145" y1="135.432" x2="426.189" y2="137.918" gradientUnits="userSpaceOnUse">
<stop stop-color="#4070FF"/>
<stop offset="1" stop-color="#365FD9"/>
</linearGradient>
<linearGradient id="paint21_linear" x1="393.622" y1="126.737" x2="411.446" y2="132.715" gradientUnits="userSpaceOnUse">
<stop stop-color="#4070FF"/>
<stop offset="1" stop-color="#365FD9"/>
</linearGradient>
</defs>
</svg>
