<svg width="500" height="500" viewBox="0 0 500 500" fill="none" xmlns="http://www.w3.org/2000/svg">
<path opacity="0.1" d="M247.852 119.11C152.512 114.95 126.852 208.4 184.532 262.78C241.352 315.59 381.772 324.78 414.582 253.14C446.202 186.24 372.202 65.2399 302.922 83.9399C282.082 91.4099 271.402 116.13 247.852 119.11Z" fill="url(#paint0_linear)"/>
<path opacity="0.1" d="M249.89 436.64C356.972 436.64 443.78 431.572 443.78 425.32C443.78 419.068 356.972 414 249.89 414C142.808 414 56 419.068 56 425.32C56 431.572 142.808 436.64 249.89 436.64Z" fill="url(#paint1_linear)"/>
<path d="M286.59 410.89L279 408.26L283.06 390L290.65 392.63L286.59 410.89Z" fill="#B55B52"/>
<path d="M350.1 416.59H342.07L340 398H348.03L350.1 416.59Z" fill="#B55B52"/>
<path d="M341.863 416H351.053C351.212 416.001 351.366 416.056 351.489 416.156C351.613 416.256 351.699 416.395 351.733 416.55L353.323 423.69C353.359 423.864 353.355 424.043 353.313 424.216C353.27 424.388 353.189 424.548 353.075 424.685C352.962 424.821 352.819 424.93 352.658 425.004C352.496 425.077 352.32 425.114 352.143 425.11C348.993 425.06 346.703 424.87 342.733 424.87C340.293 424.87 333.533 425.13 330.163 425.13C326.793 425.13 326.353 421.8 327.733 421.49C333.913 420.14 338.573 418.28 340.553 416.49C340.916 416.174 341.381 416 341.863 416Z" fill="#263238"/>
<path d="M279.375 408.191L287.655 411.061C287.806 411.112 287.935 411.214 288.02 411.348C288.106 411.483 288.143 411.643 288.125 411.801L287.285 419.061C287.271 419.239 287.216 419.411 287.125 419.565C287.033 419.718 286.908 419.848 286.758 419.945C286.608 420.041 286.437 420.102 286.26 420.122C286.083 420.143 285.903 420.122 285.735 420.061C282.735 418.971 278.505 417.301 274.735 416.001C270.345 414.481 268.255 414.151 263.105 412.371C259.995 411.291 260.875 407.931 262.285 408.001C268.705 408.351 271.115 409.561 277.335 408.171C278.004 407.991 278.71 407.998 279.375 408.191Z" fill="#263238"/>
<path d="M326.89 176.64C324.61 179.08 322.39 181.3 320.05 183.53C317.71 185.76 315.35 187.9 312.9 190.02C307.934 194.371 302.62 198.308 297.01 201.79C295.506 202.701 293.958 203.535 292.37 204.29C291.56 204.69 290.69 205.06 289.82 205.42L288.45 205.92C287.97 206.08 287.45 206.23 286.93 206.37C282.824 207.438 278.497 207.295 274.47 205.96C270.864 204.74 267.548 202.79 264.73 200.23C263.411 199.055 262.184 197.782 261.06 196.42C260.5 195.75 259.97 195.05 259.47 194.34C258.97 193.63 258.53 192.94 258 192.06L263.52 187.87L265.1 189.13C265.66 189.57 266.23 189.98 266.8 190.39C267.925 191.187 269.094 191.921 270.3 192.59C272.47 193.823 274.839 194.666 277.3 195.08C279.326 195.388 281.397 195.15 283.3 194.39L284.01 194.09L284.81 193.72C285.36 193.44 285.91 193.17 286.49 192.83C287.63 192.2 288.78 191.43 289.95 190.65C292.28 189.07 294.6 187.28 296.88 185.39C299.16 183.5 301.42 181.54 303.66 179.51C305.9 177.48 308.1 175.41 310.29 173.32C312.48 171.23 314.69 169.06 316.74 167L326.89 176.64Z" fill="#263238"/>
<path d="M264 188.77L259 181L254 190.7C254 190.7 259.8 196.81 262.67 194.02L264 188.77Z" fill="#B55B52"/>
<path d="M252.69 179L250 185.83L253.66 190.03L258.7 180.33L252.69 179Z" fill="#B55B52"/>
<path opacity="0.2" d="M283.09 390L281 399.41L288.59 402.04L290.68 392.62L283.09 390Z" fill="black"/>
<path opacity="0.2" d="M348.03 398H340L341.07 407.58H349.1L348.03 398Z" fill="black"/>
<path d="M360.594 176.262C352.384 204.042 353.254 233.532 352.174 239.522C345.934 238.692 319.174 234.772 306.324 233.042C304.324 200.862 312.084 179.302 315.604 169.732C316.293 167.852 317.521 166.218 319.134 165.033C320.748 163.849 322.675 163.166 324.674 163.072H324.784C325.964 163.022 327.234 162.992 328.554 163.002C329.284 163.002 330.024 163.002 330.774 163.002C336.846 163.468 342.886 164.283 348.864 165.442C349.994 165.652 351.144 165.892 352.254 166.142C353.364 166.392 354.254 166.632 355.254 166.882H355.384C356.355 167.135 357.264 167.583 358.056 168.198C358.848 168.812 359.508 169.581 359.995 170.458C360.482 171.335 360.786 172.301 360.889 173.299C360.992 174.296 360.892 175.304 360.594 176.262Z" fill="#263238"/>
<path d="M338.1 185L338 186.44L347.42 188L347.72 186.82L338.1 185Z" fill="white"/>
<path opacity="0.3" d="M330.028 163C327.868 165.26 325.328 184.1 328.478 192.85C333.798 184.02 344.478 168.16 348.108 165.44C342.133 164.281 336.097 163.466 330.028 163Z" fill="white"/>
<path d="M349.034 145C347.114 150.66 344.534 161.17 348.084 165.6C346.744 166.92 341.184 168.03 336.084 167.25C331.894 166.61 329.894 164.79 330.004 163.17C336.704 162.49 337.184 157.65 336.664 152.98L349.034 145Z" fill="#B55B52"/>
<path opacity="0.2" d="M344.28 148L337 152.69C337.134 153.781 337.174 154.882 337.12 155.98C339.65 155.98 343.42 153.69 344.04 151.13C344.305 150.109 344.387 149.049 344.28 148Z" fill="black"/>
<path d="M331.927 140.48C330.807 137.94 330.387 132.99 332.497 126.61C334.217 121.41 339.667 123.09 343.437 124C347.207 124.91 345.817 130 343.077 133.71C340.137 137.66 331.927 140.48 331.927 140.48Z" fill="#263238"/>
<path d="M354.1 137.12C351.8 144.75 350.85 149.33 346 152.38C338.72 156.97 330 151.18 330 143.02C330 135.67 333.73 124.43 342 123.14C343.829 122.843 345.704 123.019 347.446 123.652C349.188 124.284 350.74 125.352 351.952 126.753C353.165 128.154 353.999 129.842 354.375 131.657C354.751 133.472 354.656 135.353 354.1 137.12Z" fill="#B55B52"/>
<path d="M348.328 144.659C346.988 142.229 346.448 135.839 347.728 130.799C348.728 126.979 354.948 126.109 358.398 127.879C362.508 129.989 361.738 134.129 358.648 137.509C355.308 141.169 348.328 144.659 348.328 144.659Z" fill="#263238"/>
<path d="M357.59 130.429C360.67 130.249 362.71 126.159 360.21 124.199C357.27 121.899 353.21 124.199 349.51 119.109C346.04 114.329 337.43 113.499 334.191 117.789C332.331 120.259 333.99 121.249 329.001 124.249C326.091 125.999 327.001 128.969 327.751 130.429C327.671 129.329 328.131 126.499 330.841 125.889C333.11 125.379 334.45 127.339 336.01 125.579C336.01 125.579 341.29 130.429 351.29 131.199C356.86 131.629 357.59 130.429 357.59 130.429Z" fill="#263238"/>
<path d="M354.94 145.92C353.51 147.324 351.584 148.107 349.58 148.1C346.93 148.1 346.35 145.5 347.71 143.39C348.94 141.49 351.8 139.21 354.17 140.27C356.54 141.33 356.68 144.18 354.94 145.92Z" fill="#B55B52"/>
<path d="M279 396.73L291.85 401.17C291.85 401.17 304.43 351.59 308.37 326.89C309.57 319.37 312.25 308.97 315.49 297.89C319.58 283.89 324.49 268.81 328.58 257C332.83 244.56 336.02 235.77 336.02 235.77L308.02 232C308.02 232 289.33 295.59 286.02 319.87C282.67 345.09 279 396.73 279 396.73Z" fill="#263238"/>
<path opacity="0.2" d="M316.038 298.37C320.128 284.37 325.038 269.29 329.128 257.48L326.618 251C319.108 258.84 315.588 284.36 316.038 298.37Z" fill="black"/>
<path d="M323.486 234C323.486 234 322.106 302.78 323.996 326.22C326.056 351.89 337.536 405.68 337.536 405.68H352.246C352.246 405.68 350.196 356.34 347.186 331.41C343.756 303.01 350.946 237.7 350.946 237.7L323.486 234Z" fill="#263238"/>
<path d="M335.17 406.5H352.49V401.33L334 401L335.17 406.5Z" fill="#263238"/>
<path d="M277 396.41L292.31 401.71L294.02 396.77L277.7 390L277 396.41Z" fill="#263238"/>
<path d="M341.526 136.316C341.376 136.946 340.926 137.376 340.526 137.316C340.126 137.256 339.896 136.636 340.046 136.006C340.196 135.376 340.646 134.946 341.046 135.006C341.446 135.066 341.676 135.686 341.526 136.316Z" fill="#263238"/>
<path d="M334.517 134.326C334.367 134.956 333.917 135.396 333.517 135.326C333.117 135.256 332.897 134.636 333.047 134.006C333.197 133.376 333.647 132.946 334.047 133.006C334.447 133.066 334.667 133.696 334.517 134.326Z" fill="#263238"/>
<path d="M336.28 135C335.075 136.749 333.635 138.324 332 139.68C332.359 140.088 332.803 140.413 333.3 140.633C333.797 140.852 334.337 140.96 334.88 140.95L336.28 135Z" fill="#A02724"/>
<path d="M338.024 143.561C338.739 143.635 339.462 143.565 340.149 143.353C340.836 143.142 341.474 142.794 342.024 142.331C342.061 142.297 342.083 142.249 342.085 142.198C342.086 142.147 342.068 142.098 342.034 142.061C341.999 142.024 341.951 142.002 341.901 142C341.85 141.998 341.801 142.017 341.764 142.051C341.141 142.563 340.406 142.92 339.618 143.094C338.831 143.267 338.014 143.253 337.234 143.051C337.209 143.045 337.184 143.044 337.159 143.048C337.135 143.052 337.111 143.06 337.09 143.073C337.068 143.086 337.05 143.103 337.035 143.124C337.02 143.144 337.01 143.167 337.004 143.191C336.994 143.24 337.003 143.291 337.029 143.333C337.055 143.376 337.096 143.407 337.144 143.421C337.474 143.481 337.754 143.531 338.024 143.561Z" fill="#263238"/>
<path d="M344.714 134.736C344.776 134.755 344.842 134.755 344.904 134.736C344.95 134.716 344.992 134.688 345.026 134.652C345.061 134.616 345.088 134.573 345.106 134.526C345.124 134.48 345.132 134.43 345.13 134.38C345.128 134.33 345.115 134.281 345.094 134.236C344.863 133.679 344.502 133.185 344.041 132.797C343.58 132.409 343.032 132.138 342.444 132.006C342.395 131.997 342.344 131.998 342.295 132.009C342.247 132.02 342.201 132.041 342.16 132.069C342.119 132.098 342.084 132.135 342.057 132.177C342.031 132.219 342.012 132.266 342.004 132.316C341.989 132.416 342.015 132.519 342.075 132.601C342.134 132.683 342.224 132.738 342.324 132.756C342.788 132.867 343.219 133.088 343.581 133.399C343.942 133.71 344.225 134.103 344.404 134.546C344.435 134.601 344.48 134.648 344.534 134.681C344.588 134.715 344.65 134.733 344.714 134.736Z" fill="#263238"/>
<path d="M332.34 131.083C332.404 131.09 332.469 131.081 332.528 131.056C332.587 131.032 332.64 130.993 332.68 130.943C332.969 130.563 333.346 130.257 333.777 130.052C334.208 129.847 334.682 129.748 335.16 129.763C335.209 129.768 335.259 129.764 335.307 129.749C335.355 129.735 335.399 129.711 335.437 129.68C335.475 129.648 335.507 129.609 335.53 129.565C335.553 129.52 335.566 129.472 335.57 129.423C335.579 129.324 335.549 129.225 335.488 129.147C335.427 129.069 335.338 129.017 335.24 129.003C334.635 128.98 334.033 129.103 333.486 129.361C332.938 129.618 332.459 130.003 332.09 130.483C332.057 130.521 332.033 130.566 332.018 130.614C332.002 130.662 331.997 130.713 332.002 130.763C332.006 130.813 332.021 130.862 332.045 130.907C332.068 130.951 332.101 130.991 332.14 131.023C332.2 131.06 332.269 131.081 332.34 131.083Z" fill="#263238"/>
<path d="M338.946 417.04C339.654 417.02 340.358 416.923 341.046 416.75C341.083 416.741 341.118 416.721 341.144 416.692C341.171 416.664 341.189 416.628 341.196 416.59C341.199 416.553 341.192 416.516 341.176 416.483C341.16 416.449 341.136 416.421 341.106 416.4C340.816 416.22 338.226 414.63 337.336 415.08C337.237 415.132 337.155 415.21 337.097 415.305C337.038 415.4 337.007 415.509 337.006 415.62C336.987 415.806 337.014 415.995 337.084 416.169C337.153 416.343 337.264 416.497 337.406 416.62C337.857 416.929 338.4 417.076 338.946 417.04ZM340.496 416.48C339.136 416.75 338.086 416.7 337.646 416.33C337.549 416.247 337.474 416.142 337.429 416.023C337.383 415.904 337.369 415.776 337.386 415.65C337.383 415.604 337.392 415.559 337.413 415.518C337.435 415.478 337.466 415.444 337.506 415.42C337.966 415.18 339.446 415.87 340.496 416.52V416.48Z" fill="url(#paint2_linear)"/>
<path d="M340.372 416.601C340.405 416.61 340.44 416.61 340.472 416.601C340.501 416.582 340.524 416.557 340.539 416.527C340.555 416.498 340.563 416.465 340.562 416.431C340.562 416.331 340.362 414.011 339.422 413.251C339.313 413.154 339.184 413.083 339.044 413.041C338.904 413 338.757 412.989 338.612 413.011C338.471 413.01 338.334 413.059 338.225 413.148C338.115 413.238 338.04 413.362 338.012 413.501C337.842 414.401 339.452 416.161 340.282 416.611L340.372 416.601ZM338.752 413.371C338.912 413.37 339.066 413.431 339.182 413.541C339.748 414.261 340.079 415.137 340.132 416.051C339.312 415.421 338.282 414.051 338.382 413.571C338.382 413.521 338.382 413.401 338.662 413.371H338.752Z" fill="url(#paint3_linear)"/>
<path d="M278.313 409.031C278.348 409.031 278.382 409.022 278.412 409.005C278.442 408.987 278.466 408.962 278.483 408.931C278.504 408.898 278.516 408.86 278.516 408.821C278.516 408.782 278.504 408.744 278.483 408.711C278.203 408.421 275.683 405.811 274.583 406.011C274.481 406.029 274.386 406.073 274.306 406.138C274.226 406.202 274.163 406.286 274.123 406.381C274.042 406.535 274 406.707 274 406.881C274 407.055 274.042 407.227 274.123 407.381C274.703 408.381 276.983 408.861 278.283 409.041L278.313 409.031ZM274.693 406.381C275.333 406.381 276.773 407.581 277.773 408.571C276.003 408.271 274.773 407.761 274.463 407.191C274.408 407.091 274.38 406.979 274.38 406.866C274.38 406.752 274.408 406.641 274.463 406.541C274.474 406.5 274.497 406.463 274.529 406.434C274.561 406.406 274.6 406.387 274.643 406.381H274.693Z" fill="url(#paint4_linear)"/>
<path d="M278.801 408.156H278.851C278.884 408.145 278.914 408.127 278.938 408.103C278.962 408.079 278.981 408.049 278.991 408.016C278.991 407.926 279.511 405.816 278.821 404.686C278.725 404.523 278.596 404.382 278.443 404.27C278.29 404.158 278.116 404.079 277.931 404.036C277.421 403.916 277.191 404.116 277.091 404.306C276.651 405.116 277.901 407.376 278.671 408.106C278.688 408.123 278.709 408.137 278.731 408.145C278.753 408.154 278.777 408.158 278.801 408.156ZM277.651 404.416H277.841C277.977 404.447 278.105 404.505 278.217 404.588C278.329 404.67 278.422 404.776 278.491 404.896C278.837 405.747 278.907 406.684 278.691 407.576C277.951 406.696 277.161 404.976 277.421 404.496C277.448 404.463 277.484 404.438 277.525 404.423C277.566 404.409 277.609 404.407 277.651 404.416Z" fill="url(#paint5_linear)"/>
<path d="M358.25 169C359.32 170.44 360.25 171.72 361.15 173.11C362.05 174.5 362.95 175.85 363.83 177.24C365.57 180.02 367.207 182.883 368.74 185.83C370.304 188.811 371.709 191.871 372.95 195C374.289 198.289 375.314 201.698 376.01 205.18C376.19 206.1 376.33 207.05 376.44 208.01C376.44 208.08 376.44 208.38 376.5 208.57C376.56 208.76 376.5 209.01 376.5 209.2C376.5 209.61 376.5 210 376.5 210.36C376.449 211.032 376.356 211.7 376.22 212.36C375.749 214.397 375.005 216.361 374.01 218.2C372.371 221.263 370.453 224.169 368.28 226.88C366.21 229.5 364.06 231.96 361.82 234.31C359.58 236.66 357.28 238.9 354.77 241.07L349.61 236.44C352.98 231.3 356.46 226.08 359.4 220.88C360.838 218.428 362.094 215.875 363.16 213.24C363.561 212.251 363.836 211.217 363.98 210.16C363.998 210.044 363.998 209.926 363.98 209.81C363.98 209.81 363.98 209.9 363.98 209.81C363.85 209.22 363.72 208.62 363.54 208C362.762 205.356 361.782 202.775 360.61 200.28C359.38 197.68 358.03 195.05 356.55 192.46C355.07 189.87 353.55 187.3 351.92 184.74C351.12 183.473 350.303 182.207 349.47 180.94L347 177.27L358.25 169Z" fill="#263238"/>
<path d="M351 235L343 237.44L350.18 245.06C350.18 245.06 356.29 241.42 354.72 237.97L351 235Z" fill="#B55B52"/>
<path d="M340 243.78L345.8 249.6L350.47 245.61L343.29 238L340 243.78Z" fill="#B55B52"/>
<path opacity="0.3" d="M322 235.49C322 235.49 323.53 225.07 326.18 220C326.73 224.44 328.59 236.11 328.59 236.11L322 235.49Z" fill="white"/>
<path d="M88.9998 131.981L88 132L88.4649 155.996L89.4647 155.976L88.9998 131.981Z" fill="url(#paint6_linear)"/>
<path d="M89.9998 163.981L89 164L89.1999 174.318L90.1998 174.299L89.9998 163.981Z" fill="url(#paint7_linear)"/>
<path d="M286.27 108H91L96.14 374.78H291.41L286.27 108Z" fill="url(#paint8_linear)"/>
<path opacity="0.8" d="M275.53 117H103L107.8 365.57H280.32L275.53 117Z" fill="white"/>
<path d="M275.52 116H103L110.01 364.56H282.54L275.52 116Z" fill="white"/>
<path opacity="0.2" d="M153 166.56L162.25 139C167.965 141.065 172.93 144.794 176.507 149.705C180.084 154.617 182.109 160.487 182.32 166.56C182.539 173.383 180.293 180.057 175.995 185.361C171.696 190.664 165.631 194.242 158.91 195.44L153 166.56Z" fill="url(#paint9_linear)"/>
<path d="M153.332 166.31L159.242 195.19C157.564 195.481 155.865 195.628 154.162 195.63C146.333 195.551 138.834 192.462 133.22 187.003C127.607 181.544 124.31 174.134 124.012 166.31C123.901 162.5 124.556 158.706 125.938 155.154C127.32 151.601 129.401 148.363 132.058 145.629C134.715 142.896 137.893 140.724 141.405 139.242C144.917 137.759 148.69 136.997 152.502 137C155.939 137.004 159.35 137.602 162.582 138.77L153.332 166.31Z" fill="url(#paint10_linear)"/>
<path opacity="0.2" d="M225.72 166.31L224.99 137C232.801 137.058 240.288 140.136 245.88 145.59C257.58 156.97 258.11 175.69 247.05 187.06C235.99 198.43 217.28 198.44 205.58 187.06C201.216 182.825 198.226 177.376 197 171.42L225.72 166.31Z" fill="url(#paint11_linear)"/>
<path d="M226.374 166.335L197.644 171.425C196.704 167.088 196.794 162.591 197.906 158.294C199.017 153.998 201.12 150.021 204.045 146.684C206.97 143.346 210.637 140.741 214.751 139.076C218.864 137.41 223.311 136.732 227.734 137.095L226.374 166.335Z" fill="url(#paint12_linear)"/>
<path d="M262.64 341.45H127.77L126 279.01L127.07 279L128.8 340.38H262.61L262.64 341.45Z" fill="url(#paint13_linear)"/>
<path d="M262.18 339C262.5 339.003 262.805 339.129 263.033 339.353C263.261 339.577 263.392 339.881 263.4 340.2C263.406 340.356 263.379 340.512 263.323 340.659C263.266 340.805 263.181 340.938 263.071 341.05C262.962 341.162 262.831 341.251 262.687 341.311C262.542 341.371 262.387 341.401 262.23 341.4C261.909 341.4 261.601 341.275 261.371 341.05C261.141 340.826 261.008 340.521 261 340.2C260.998 340.043 261.026 339.888 261.084 339.742C261.142 339.597 261.229 339.464 261.339 339.353C261.448 339.241 261.579 339.152 261.724 339.092C261.868 339.031 262.024 339 262.18 339Z" fill="url(#paint14_linear)"/>
<path d="M127.401 279.19C127.388 278.87 127.251 278.567 127.02 278.345C126.789 278.123 126.481 278 126.161 278C126.004 278.001 125.85 278.034 125.707 278.096C125.563 278.158 125.434 278.248 125.325 278.36C125.217 278.473 125.133 278.606 125.077 278.752C125.021 278.898 124.995 279.054 125.001 279.21C125.009 279.53 125.142 279.834 125.372 280.057C125.602 280.279 125.911 280.403 126.231 280.4C126.388 280.4 126.543 280.369 126.688 280.307C126.832 280.246 126.963 280.156 127.072 280.043C127.182 279.93 127.267 279.797 127.323 279.65C127.38 279.503 127.406 279.347 127.401 279.19Z" fill="url(#paint15_linear)"/>
<path d="M131.77 337L131 336.25L146.93 319.86H156.45L160.81 315.38H174.52L203.17 285.9H209.93L219.74 295.44H225.84L243.76 277H260.09L260.11 278.06H244.23L226.31 296.5H219.32L209.51 286.96H203.63L174.98 316.44H161.27L156.92 320.93H147.39L131.77 337Z" fill="url(#paint16_linear)"/>
<path d="M133.071 337.06C132.903 337.231 132.687 337.348 132.452 337.396C132.217 337.443 131.973 337.42 131.751 337.329C131.529 337.238 131.339 337.083 131.205 336.884C131.071 336.685 131 336.45 131 336.21C131 335.97 131.071 335.735 131.205 335.536C131.339 335.337 131.529 335.182 131.751 335.091C131.973 334.999 132.217 334.976 132.452 335.024C132.687 335.072 132.903 335.189 133.071 335.36C133.295 335.586 133.42 335.892 133.42 336.21C133.42 336.528 133.295 336.834 133.071 337.06Z" fill="url(#paint17_linear)"/>
<path d="M260.23 278.4C260.386 278.4 260.541 278.369 260.685 278.308C260.829 278.247 260.959 278.159 261.068 278.047C261.177 277.935 261.263 277.802 261.32 277.657C261.377 277.512 261.404 277.356 261.4 277.2C261.392 276.881 261.261 276.577 261.033 276.353C260.805 276.129 260.5 276.003 260.18 276C260.024 276 259.868 276.031 259.724 276.092C259.579 276.152 259.448 276.241 259.339 276.353C259.229 276.464 259.142 276.597 259.084 276.742C259.026 276.888 258.998 277.043 259 277.2C259.01 277.52 259.144 277.824 259.374 278.048C259.603 278.271 259.91 278.398 260.23 278.4Z" fill="url(#paint18_linear)"/>
<g opacity="0.2">
<path opacity="0.2" d="M131.77 331.18L131 330.43L150.01 310.86H165.62L176.2 321.16H188.03L198.36 310.52H211.64L215.97 306.07H228.78L237.59 297H241.91L262.02 316.57L261.29 317.32L241.49 298.07H238.05L229.24 307.14H216.44L212.11 311.59H198.82L188.49 322.22H175.79L165.2 311.93H150.48L131.77 331.18Z" fill="url(#paint19_linear)"/>
<path opacity="0.2" d="M132.076 332.055C131.908 332.227 131.693 332.345 131.457 332.395C131.222 332.444 130.977 332.422 130.754 332.331C130.531 332.24 130.34 332.085 130.206 331.885C130.072 331.686 130 331.451 130 331.21C130 330.969 130.072 330.734 130.206 330.535C130.34 330.335 130.531 330.18 130.754 330.089C130.977 329.999 131.222 329.976 131.457 330.025C131.693 330.075 131.908 330.193 132.076 330.365C132.188 330.476 132.276 330.607 132.337 330.752C132.397 330.897 132.428 331.053 132.428 331.21C132.428 331.367 132.397 331.523 132.337 331.668C132.276 331.813 132.188 331.944 132.076 332.055Z" fill="url(#paint20_linear)"/>
<path opacity="0.2" d="M260.349 318.04C260.516 318.204 260.728 318.315 260.958 318.359C261.189 318.403 261.427 318.378 261.643 318.287C261.859 318.196 262.043 318.044 262.173 317.849C262.302 317.653 262.372 317.424 262.372 317.19C262.372 316.956 262.302 316.727 262.173 316.531C262.043 316.336 261.859 316.184 261.643 316.093C261.427 316.002 261.189 315.977 260.958 316.021C260.728 316.065 260.516 316.176 260.349 316.34C260.125 316.566 260 316.872 260 317.19C260 317.508 260.125 317.814 260.349 318.04Z" fill="url(#paint21_linear)"/>
</g>
<path d="M138.71 228.3H124.41L124 214H138.3L138.71 228.3Z" fill="url(#paint22_linear)"/>
<path d="M212.36 223.18H147.15L147 218H212.21L212.36 223.18Z" fill="#E0E0E0"/>
<path d="M257.43 223.18H221.15L221 218H257.28L257.43 223.18Z" fill="#E0E0E0"/>
<path d="M185.66 246.18H148.14L148 241H185.51L185.66 246.18Z" fill="#E0E0E0"/>
<path d="M241.39 246.18H194.15L194 241H241.25L241.39 246.18Z" fill="#E0E0E0"/>
<path opacity="0.2" d="M139.7 250.3H125.4L125 236H139.3L139.7 250.3Z" fill="url(#paint23_linear)"/>
<path d="M259.49 193L342.33 239.68L341.29 241.51L259 193.87L259.49 193Z" fill="#E0E0E0"/>
<defs>
<linearGradient id="paint0_linear" x1="422.104" y1="82" x2="422.104" y2="304.629" gradientUnits="userSpaceOnUse">
<stop stop-color="#4070FF"/>
<stop offset="1" stop-color="#365FD9"/>
</linearGradient>
<linearGradient id="paint1_linear" x1="443.78" y1="414" x2="443.78" y2="436.64" gradientUnits="userSpaceOnUse">
<stop stop-color="#4070FF"/>
<stop offset="1" stop-color="#365FD9"/>
</linearGradient>
<linearGradient id="paint2_linear" x1="341.196" y1="415" x2="341.196" y2="417.045" gradientUnits="userSpaceOnUse">
<stop stop-color="#4070FF"/>
<stop offset="1" stop-color="#365FD9"/>
</linearGradient>
<linearGradient id="paint3_linear" x1="340.562" y1="413" x2="340.562" y2="416.611" gradientUnits="userSpaceOnUse">
<stop stop-color="#4070FF"/>
<stop offset="1" stop-color="#365FD9"/>
</linearGradient>
<linearGradient id="paint4_linear" x1="278.516" y1="406" x2="278.516" y2="409.041" gradientUnits="userSpaceOnUse">
<stop stop-color="#4070FF"/>
<stop offset="1" stop-color="#365FD9"/>
</linearGradient>
<linearGradient id="paint5_linear" x1="279.179" y1="404" x2="279.179" y2="408.157" gradientUnits="userSpaceOnUse">
<stop stop-color="#4070FF"/>
<stop offset="1" stop-color="#365FD9"/>
</linearGradient>
<linearGradient id="paint6_linear" x1="88.9998" y1="131.981" x2="89.4647" y2="155.976" gradientUnits="userSpaceOnUse">
<stop stop-color="#4070FF"/>
<stop offset="1" stop-color="#365FD9"/>
</linearGradient>
<linearGradient id="paint7_linear" x1="89.9998" y1="163.981" x2="90.1998" y2="174.299" gradientUnits="userSpaceOnUse">
<stop stop-color="#4070FF"/>
<stop offset="1" stop-color="#365FD9"/>
</linearGradient>
<linearGradient id="paint8_linear" x1="291.41" y1="108" x2="291.41" y2="374.78" gradientUnits="userSpaceOnUse">
<stop stop-color="#4070FF"/>
<stop offset="1" stop-color="#365FD9"/>
</linearGradient>
<linearGradient id="paint9_linear" x1="182.335" y1="139" x2="182.335" y2="195.44" gradientUnits="userSpaceOnUse">
<stop stop-color="#4070FF"/>
<stop offset="1" stop-color="#365FD9"/>
</linearGradient>
<linearGradient id="paint10_linear" x1="162.582" y1="137" x2="162.582" y2="195.63" gradientUnits="userSpaceOnUse">
<stop stop-color="#4070FF"/>
<stop offset="1" stop-color="#365FD9"/>
</linearGradient>
<linearGradient id="paint11_linear" x1="255.012" y1="137" x2="255.012" y2="195.591" gradientUnits="userSpaceOnUse">
<stop stop-color="#4070FF"/>
<stop offset="1" stop-color="#365FD9"/>
</linearGradient>
<linearGradient id="paint12_linear" x1="227.734" y1="137" x2="227.734" y2="171.425" gradientUnits="userSpaceOnUse">
<stop stop-color="#4070FF"/>
<stop offset="1" stop-color="#365FD9"/>
</linearGradient>
<linearGradient id="paint13_linear" x1="262.64" y1="279" x2="262.64" y2="341.45" gradientUnits="userSpaceOnUse">
<stop stop-color="#4070FF"/>
<stop offset="1" stop-color="#365FD9"/>
</linearGradient>
<linearGradient id="paint14_linear" x1="263.401" y1="339" x2="263.401" y2="341.4" gradientUnits="userSpaceOnUse">
<stop stop-color="#4070FF"/>
<stop offset="1" stop-color="#365FD9"/>
</linearGradient>
<linearGradient id="paint15_linear" x1="127.401" y1="278" x2="127.401" y2="280.4" gradientUnits="userSpaceOnUse">
<stop stop-color="#4070FF"/>
<stop offset="1" stop-color="#365FD9"/>
</linearGradient>
<linearGradient id="paint16_linear" x1="260.11" y1="277" x2="260.11" y2="337" gradientUnits="userSpaceOnUse">
<stop stop-color="#4070FF"/>
<stop offset="1" stop-color="#365FD9"/>
</linearGradient>
<linearGradient id="paint17_linear" x1="133.42" y1="335" x2="133.42" y2="337.42" gradientUnits="userSpaceOnUse">
<stop stop-color="#4070FF"/>
<stop offset="1" stop-color="#365FD9"/>
</linearGradient>
<linearGradient id="paint18_linear" x1="261.401" y1="276" x2="261.401" y2="278.4" gradientUnits="userSpaceOnUse">
<stop stop-color="#4070FF"/>
<stop offset="1" stop-color="#365FD9"/>
</linearGradient>
<linearGradient id="paint19_linear" x1="262.02" y1="297" x2="262.02" y2="331.18" gradientUnits="userSpaceOnUse">
<stop stop-color="#4070FF"/>
<stop offset="1" stop-color="#365FD9"/>
</linearGradient>
<linearGradient id="paint20_linear" x1="132.428" y1="330" x2="132.428" y2="332.42" gradientUnits="userSpaceOnUse">
<stop stop-color="#4070FF"/>
<stop offset="1" stop-color="#365FD9"/>
</linearGradient>
<linearGradient id="paint21_linear" x1="262.372" y1="316" x2="262.372" y2="318.38" gradientUnits="userSpaceOnUse">
<stop stop-color="#4070FF"/>
<stop offset="1" stop-color="#365FD9"/>
</linearGradient>
<linearGradient id="paint22_linear" x1="138.71" y1="214" x2="138.71" y2="228.3" gradientUnits="userSpaceOnUse">
<stop stop-color="#4070FF"/>
<stop offset="1" stop-color="#365FD9"/>
</linearGradient>
<linearGradient id="paint23_linear" x1="139.7" y1="236" x2="139.7" y2="250.3" gradientUnits="userSpaceOnUse">
<stop stop-color="#4070FF"/>
<stop offset="1" stop-color="#365FD9"/>
</linearGradient>
</defs>
</svg>
