<svg width="500" height="500" viewBox="0 0 500 500" fill="none" xmlns="http://www.w3.org/2000/svg">
<path opacity="0.1" d="M153.1 261.77C187 214.34 266.1 226.31 308.65 254.37C350.43 281.96 382.73 334.24 434.4 282.78C473.07 244.26 462.75 171.27 424.14 136.63C377.33 94.63 346.48 161.63 297.58 146.16C263.02 135.22 264.91 89.41 235.28 73.56C169.41 38.32 164.08 138.8 125.12 154.41C98.59 165 72.74 153.29 48.06 176.56C26 197.33 21.25 229 28 257.5C46.52 336.16 116.06 313.65 153.1 261.77Z" fill="url(#paint0_linear)"/>
<path opacity="0.1" d="M250 427.56C357.082 427.56 443.89 422.492 443.89 416.24C443.89 409.988 357.082 404.92 250 404.92C142.918 404.92 56.11 409.988 56.11 416.24C56.11 422.492 142.918 427.56 250 427.56Z" fill="url(#paint1_linear)"/>
<path d="M131.91 186.65L131.02 186.19C138.789 171.022 149.221 157.375 161.82 145.9L162.5 146.64C149.988 158.035 139.626 171.587 131.91 186.65Z" fill="url(#paint2_linear)"/>
<path d="M119.39 222.35L118.39 222.15C119.838 215.079 121.823 208.128 124.33 201.36L125.27 201.71C122.783 208.429 120.818 215.329 119.39 222.35Z" fill="url(#paint3_linear)"/>
<path d="M354.855 348.207C408.798 294.264 408.798 206.805 354.855 152.862C300.912 98.9189 213.453 98.9189 159.51 152.862C105.566 206.805 105.566 294.264 159.51 348.207C213.453 402.15 300.912 402.15 354.855 348.207Z" fill="url(#paint4_linear)"/>
<path opacity="0.4" d="M257.18 381.56C329.42 381.56 388.18 322.78 388.18 250.56C388.18 178.34 329.4 119.56 257.18 119.56C184.96 119.56 126.18 178.33 126.18 250.56C126.18 322.79 184.93 381.56 257.18 381.56ZM257.18 120.56C291.644 120.605 324.684 134.316 349.054 158.686C373.424 183.056 387.135 216.096 387.18 250.56C387.18 322.25 328.85 380.56 257.18 380.56C185.51 380.56 127.18 322.23 127.18 250.56C127.18 178.89 185.48 120.52 257.18 120.52V120.56Z" fill="#FAFAFA"/>
<path opacity="0.9" d="M336.981 330.394C381.145 286.23 381.145 214.625 336.981 170.461C292.817 126.296 221.212 126.296 177.048 170.461C132.883 214.625 132.883 286.23 177.048 330.394C221.212 374.558 292.817 374.558 336.981 330.394Z" fill="#FAFAFA"/>
<mask id="mask0" mask-type="alpha" maskUnits="userSpaceOnUse" x="143" y="137" width="228" height="227">
<path opacity="0.9" d="M336.981 330.394C381.145 286.23 381.145 214.625 336.981 170.461C292.817 126.296 221.212 126.296 177.048 170.461C132.883 214.625 132.883 286.23 177.048 330.394C221.212 374.558 292.817 374.558 336.981 330.394Z" fill="#FAFAFA"/>
</mask>
<g mask="url(#mask0)">
<g opacity="0.4">
<path opacity="0.4" d="M176.99 313.68H150.4L155.54 301.06H171.85L176.99 313.68Z" fill="url(#paint5_linear)"/>
<path opacity="0.2" d="M176.99 313.68H150.4L155.54 301.06H171.85L176.99 313.68Z" fill="#FAFAFA"/>
<path opacity="0.4" d="M217.4 313.68H176.99L171.85 301.06H212.26L217.4 313.68Z" fill="url(#paint6_linear)"/>
<path opacity="0.3" d="M217.4 313.68H176.99L171.85 301.06H212.26L217.4 313.68Z" fill="black"/>
<path opacity="0.4" d="M210.93 313.68H184.33L189.47 301.06H205.79L210.93 313.68Z" fill="url(#paint7_linear)"/>
<path opacity="0.2" d="M210.93 313.68H184.33L189.47 301.06H205.79L210.93 313.68Z" fill="#FAFAFA"/>
<path opacity="0.4" d="M251.33 313.68H210.93L205.79 301.06H246.19L251.33 313.68Z" fill="url(#paint8_linear)"/>
<path opacity="0.3" d="M251.33 313.68H210.93L205.79 301.06H246.19L251.33 313.68Z" fill="black"/>
<path opacity="0.4" d="M244.86 313.68H218.27L223.41 301.06H239.72L244.86 313.68Z" fill="url(#paint9_linear)"/>
<path opacity="0.2" d="M244.86 313.68H218.27L223.41 301.06H239.72L244.86 313.68Z" fill="#FAFAFA"/>
<path opacity="0.4" d="M285.26 313.68H244.86L239.72 301.06H280.13L285.26 313.68Z" fill="url(#paint10_linear)"/>
<path opacity="0.3" d="M285.26 313.68H244.86L239.72 301.06H280.13L285.26 313.68Z" fill="black"/>
<path opacity="0.4" d="M278.79 313.68H252.2L257.34 301.06H273.65L278.79 313.68Z" fill="url(#paint11_linear)"/>
<path opacity="0.2" d="M278.79 313.68H252.2L257.34 301.06H273.65L278.79 313.68Z" fill="#FAFAFA"/>
<path opacity="0.4" d="M319.2 313.68H278.79L273.65 301.06H314.06L319.2 313.68Z" fill="url(#paint12_linear)"/>
<path opacity="0.3" d="M319.2 313.68H278.79L273.65 301.06H314.06L319.2 313.68Z" fill="black"/>
<path opacity="0.4" d="M312.73 313.68H286.13L291.27 301.06H307.59L312.73 313.68Z" fill="url(#paint13_linear)"/>
<path opacity="0.2" d="M312.73 313.68H286.13L291.27 301.06H307.59L312.73 313.68Z" fill="#FAFAFA"/>
<path opacity="0.4" d="M353.13 313.68H312.73L307.59 301.06H347.99L353.13 313.68Z" fill="url(#paint14_linear)"/>
<path opacity="0.3" d="M353.13 313.68H312.73L307.59 301.06H347.99L353.13 313.68Z" fill="black"/>
<path opacity="0.4" d="M346.66 313.68H320.07L325.21 301.06H341.52L346.66 313.68Z" fill="url(#paint15_linear)"/>
<path opacity="0.2" d="M346.66 313.68H320.07L325.21 301.06H341.52L346.66 313.68Z" fill="#FAFAFA"/>
<path opacity="0.4" d="M387.06 313.68H346.66L341.52 301.06H381.93L387.06 313.68Z" fill="url(#paint16_linear)"/>
<path opacity="0.3" d="M387.06 313.68H346.66L341.52 301.06H381.93L387.06 313.68Z" fill="black"/>
<path opacity="0.4" d="M380.59 313.68H354L359.14 301.06H375.45L380.59 313.68Z" fill="url(#paint17_linear)"/>
<path opacity="0.2" d="M380.59 313.68H354L359.14 301.06H375.45L380.59 313.68Z" fill="#FAFAFA"/>
<path opacity="0.4" d="M187.36 301.06H160.76L165.9 288.43H182.22L187.36 301.06Z" fill="url(#paint18_linear)"/>
<path opacity="0.2" d="M187.36 301.06H160.76L165.9 288.43H182.22L187.36 301.06Z" fill="#FAFAFA"/>
<path opacity="0.4" d="M227.76 301.06H187.36L182.22 288.43H222.62L227.76 301.06Z" fill="url(#paint19_linear)"/>
<path opacity="0.3" d="M227.76 301.06H187.36L182.22 288.43H222.62L227.76 301.06Z" fill="black"/>
<path opacity="0.4" d="M221.29 301.06H194.7L199.84 288.43H216.15L221.29 301.06Z" fill="url(#paint20_linear)"/>
<path opacity="0.2" d="M221.29 301.06H194.7L199.84 288.43H216.15L221.29 301.06Z" fill="#FAFAFA"/>
<path opacity="0.4" d="M261.69 301.06H221.29L216.15 288.43H256.56L261.69 301.06Z" fill="url(#paint21_linear)"/>
<path opacity="0.3" d="M261.69 301.06H221.29L216.15 288.43H256.56L261.69 301.06Z" fill="black"/>
<path opacity="0.4" d="M255.22 301.06H228.63L233.77 288.43H250.08L255.22 301.06Z" fill="url(#paint22_linear)"/>
<path opacity="0.2" d="M255.22 301.06H228.63L233.77 288.43H250.08L255.22 301.06Z" fill="#FAFAFA"/>
<path opacity="0.4" d="M295.63 301.06H255.22L250.08 288.43H290.49L295.63 301.06Z" fill="url(#paint23_linear)"/>
<path opacity="0.3" d="M295.63 301.06H255.22L250.08 288.43H290.49L295.63 301.06Z" fill="black"/>
<path opacity="0.4" d="M289.16 301.06H262.56L267.7 288.43H284.02L289.16 301.06Z" fill="url(#paint24_linear)"/>
<path opacity="0.2" d="M289.16 301.06H262.56L267.7 288.43H284.02L289.16 301.06Z" fill="#FAFAFA"/>
<path opacity="0.4" d="M329.56 301.06H289.16L284.02 288.43H324.42L329.56 301.06Z" fill="url(#paint25_linear)"/>
<path opacity="0.3" d="M329.56 301.06H289.16L284.02 288.43H324.42L329.56 301.06Z" fill="black"/>
<path opacity="0.4" d="M323.09 301.06H296.5L301.64 288.43H317.95L323.09 301.06Z" fill="url(#paint26_linear)"/>
<path opacity="0.2" d="M323.09 301.06H296.5L301.64 288.43H317.95L323.09 301.06Z" fill="#FAFAFA"/>
<path opacity="0.4" d="M363.5 301.06H323.09L317.95 288.43H358.36L363.5 301.06Z" fill="url(#paint27_linear)"/>
<path opacity="0.3" d="M363.5 301.06H323.09L317.95 288.43H358.36L363.5 301.06Z" fill="black"/>
<path opacity="0.4" d="M357.02 301.06H330.43L335.57 288.43H351.88L357.02 301.06Z" fill="url(#paint28_linear)"/>
<path opacity="0.2" d="M357.02 301.06H330.43L335.57 288.43H351.88L357.02 301.06Z" fill="#FAFAFA"/>
<path opacity="0.4" d="M397.43 301.06H357.02L351.88 288.43H392.29L397.43 301.06Z" fill="url(#paint29_linear)"/>
<path opacity="0.3" d="M397.43 301.06H357.02L351.88 288.43H392.29L397.43 301.06Z" fill="black"/>
<path opacity="0.4" d="M390.96 301.06H364.37L369.5 288.43H385.82L390.96 301.06Z" fill="url(#paint30_linear)"/>
<path opacity="0.2" d="M390.96 301.06H364.37L369.5 288.43H385.82L390.96 301.06Z" fill="#FAFAFA"/>
<path opacity="0.4" d="M196.24 288.43H169.65L174.79 275.81H191.1L196.24 288.43Z" fill="url(#paint31_linear)"/>
<path opacity="0.2" d="M196.24 288.43H169.65L174.79 275.81H191.1L196.24 288.43Z" fill="#FAFAFA"/>
<path opacity="0.4" d="M236.65 288.43H196.24L191.1 275.81H231.51L236.65 288.43Z" fill="url(#paint32_linear)"/>
<path opacity="0.3" d="M236.65 288.43H196.24L191.1 275.81H231.51L236.65 288.43Z" fill="black"/>
<path opacity="0.4" d="M230.18 288.43H203.58L208.72 275.81H225.03L230.18 288.43Z" fill="url(#paint33_linear)"/>
<path opacity="0.2" d="M230.18 288.43H203.58L208.72 275.81H225.03L230.18 288.43Z" fill="#FAFAFA"/>
<path opacity="0.4" d="M270.58 288.43H230.18L225.03 275.81H265.44L270.58 288.43Z" fill="url(#paint34_linear)"/>
<path opacity="0.3" d="M270.58 288.43H230.18L225.03 275.81H265.44L270.58 288.43Z" fill="black"/>
<path opacity="0.4" d="M264.11 288.43H237.52L242.66 275.81H258.97L264.11 288.43Z" fill="url(#paint35_linear)"/>
<path opacity="0.2" d="M264.11 288.43H237.52L242.66 275.81H258.97L264.11 288.43Z" fill="#FAFAFA"/>
<path opacity="0.4" d="M304.51 288.43H264.11L258.97 275.81H299.37L304.51 288.43Z" fill="url(#paint36_linear)"/>
<path opacity="0.3" d="M304.51 288.43H264.11L258.97 275.81H299.37L304.51 288.43Z" fill="black"/>
<path opacity="0.4" d="M298.04 288.43H271.45L276.59 275.81H292.9L298.04 288.43Z" fill="url(#paint37_linear)"/>
<path opacity="0.2" d="M298.04 288.43H271.45L276.59 275.81H292.9L298.04 288.43Z" fill="#FAFAFA"/>
<path opacity="0.4" d="M338.45 288.43H298.04L292.9 275.81H333.31L338.45 288.43Z" fill="url(#paint38_linear)"/>
<path opacity="0.3" d="M338.45 288.43H298.04L292.9 275.81H333.31L338.45 288.43Z" fill="black"/>
<path opacity="0.4" d="M331.98 288.43H305.38L310.52 275.81H326.84L331.98 288.43Z" fill="url(#paint39_linear)"/>
<path opacity="0.2" d="M331.98 288.43H305.38L310.52 275.81H326.84L331.98 288.43Z" fill="#FAFAFA"/>
<path opacity="0.4" d="M372.38 288.43H331.98L326.84 275.81H367.24L372.38 288.43Z" fill="url(#paint40_linear)"/>
<path opacity="0.3" d="M372.38 288.43H331.98L326.84 275.81H367.24L372.38 288.43Z" fill="black"/>
<path opacity="0.4" d="M365.91 288.43H339.32L344.46 275.81H360.77L365.91 288.43Z" fill="url(#paint41_linear)"/>
<path opacity="0.2" d="M365.91 288.43H339.32L344.46 275.81H360.77L365.91 288.43Z" fill="#FAFAFA"/>
<path opacity="0.4" d="M406.31 288.43H365.91L360.77 275.81H401.18L406.31 288.43Z" fill="url(#paint42_linear)"/>
<path opacity="0.3" d="M406.31 288.43H365.91L360.77 275.81H401.18L406.31 288.43Z" fill="black"/>
<path opacity="0.4" d="M206.6 275.81H180.01L185.15 263.19H201.47L206.6 275.81Z" fill="url(#paint43_linear)"/>
<path opacity="0.2" d="M206.6 275.81H180.01L185.15 263.19H201.47L206.6 275.81Z" fill="#FAFAFA"/>
<path opacity="0.4" d="M247.01 275.81H206.6L201.47 263.19H241.87L247.01 275.81Z" fill="url(#paint44_linear)"/>
<path opacity="0.3" d="M247.01 275.81H206.6L201.47 263.19H241.87L247.01 275.81Z" fill="black"/>
<path opacity="0.4" d="M240.54 275.81H213.95L219.09 263.19H235.4L240.54 275.81Z" fill="url(#paint45_linear)"/>
<path opacity="0.2" d="M240.54 275.81H213.95L219.09 263.19H235.4L240.54 275.81Z" fill="#FAFAFA"/>
<path opacity="0.4" d="M280.94 275.81H240.54L235.4 263.19H275.81L280.94 275.81Z" fill="url(#paint46_linear)"/>
<path opacity="0.3" d="M280.94 275.81H240.54L235.4 263.19H275.81L280.94 275.81Z" fill="black"/>
<path opacity="0.4" d="M274.47 275.81H247.88L253.02 263.19H269.33L274.47 275.81Z" fill="url(#paint47_linear)"/>
<path opacity="0.2" d="M274.47 275.81H247.88L253.02 263.19H269.33L274.47 275.81Z" fill="#FAFAFA"/>
<path opacity="0.4" d="M314.88 275.81H274.47L269.33 263.19H309.74L314.88 275.81Z" fill="url(#paint48_linear)"/>
<path opacity="0.3" d="M314.88 275.81H274.47L269.33 263.19H309.74L314.88 275.81Z" fill="black"/>
<path opacity="0.4" d="M308.41 275.81H281.81L286.95 263.19H303.27L308.41 275.81Z" fill="url(#paint49_linear)"/>
<path opacity="0.2" d="M308.41 275.81H281.81L286.95 263.19H303.27L308.41 275.81Z" fill="#FAFAFA"/>
<path opacity="0.4" d="M348.81 275.81H308.41L303.27 263.19H343.67L348.81 275.81Z" fill="url(#paint50_linear)"/>
<path opacity="0.3" d="M348.81 275.81H308.41L303.27 263.19H343.67L348.81 275.81Z" fill="black"/>
<path opacity="0.4" d="M342.34 275.81H315.75L320.89 263.19H337.2L342.34 275.81Z" fill="url(#paint51_linear)"/>
<path opacity="0.2" d="M342.34 275.81H315.75L320.89 263.19H337.2L342.34 275.81Z" fill="#FAFAFA"/>
<path opacity="0.4" d="M382.74 275.81H342.34L337.2 263.19H377.61L382.74 275.81Z" fill="url(#paint52_linear)"/>
<path opacity="0.3" d="M382.74 275.81H342.34L337.2 263.19H377.61L382.74 275.81Z" fill="black"/>
<path opacity="0.4" d="M376.27 275.81H349.68L354.82 263.19H371.13L376.27 275.81Z" fill="url(#paint53_linear)"/>
<path opacity="0.2" d="M376.27 275.81H349.68L354.82 263.19H371.13L376.27 275.81Z" fill="#FAFAFA"/>
<path opacity="0.4" d="M175.85 364.17H135.45L130.31 351.55H170.72L175.85 364.17Z" fill="url(#paint54_linear)"/>
<path opacity="0.3" d="M175.85 364.17H135.45L130.31 351.55H170.72L175.85 364.17Z" fill="black"/>
<path opacity="0.4" d="M169.38 364.17H142.79L147.93 351.55H164.24L169.38 364.17Z" fill="url(#paint55_linear)"/>
<path opacity="0.2" d="M169.38 364.17H142.79L147.93 351.55H164.24L169.38 364.17Z" fill="#FAFAFA"/>
<path opacity="0.4" d="M209.79 364.17H169.38L164.24 351.55H204.65L209.79 364.17Z" fill="url(#paint56_linear)"/>
<path opacity="0.3" d="M209.79 364.17H169.38L164.24 351.55H204.65L209.79 364.17Z" fill="black"/>
<path opacity="0.4" d="M203.32 364.17H176.72L181.86 351.55H198.18L203.32 364.17Z" fill="url(#paint57_linear)"/>
<path opacity="0.2" d="M203.32 364.17H176.72L181.86 351.55H198.18L203.32 364.17Z" fill="#FAFAFA"/>
<path opacity="0.4" d="M243.72 364.17H203.32L198.18 351.55H238.58L243.72 364.17Z" fill="url(#paint58_linear)"/>
<path opacity="0.3" d="M243.72 364.17H203.32L198.18 351.55H238.58L243.72 364.17Z" fill="black"/>
<path opacity="0.4" d="M237.25 364.17H210.66L215.8 351.55H232.11L237.25 364.17Z" fill="url(#paint59_linear)"/>
<path opacity="0.2" d="M237.25 364.17H210.66L215.8 351.55H232.11L237.25 364.17Z" fill="#FAFAFA"/>
<path opacity="0.4" d="M277.65 364.17H237.25L232.11 351.55H272.51L277.65 364.17Z" fill="url(#paint60_linear)"/>
<path opacity="0.3" d="M277.65 364.17H237.25L232.11 351.55H272.51L277.65 364.17Z" fill="black"/>
<path opacity="0.4" d="M271.18 364.17H244.59L249.73 351.55H266.04L271.18 364.17Z" fill="url(#paint61_linear)"/>
<path opacity="0.2" d="M271.18 364.17H244.59L249.73 351.55H266.04L271.18 364.17Z" fill="#FAFAFA"/>
<path opacity="0.4" d="M311.59 364.17H271.18L266.04 351.55H306.45L311.59 364.17Z" fill="url(#paint62_linear)"/>
<path opacity="0.3" d="M311.59 364.17H271.18L266.04 351.55H306.45L311.59 364.17Z" fill="black"/>
<path opacity="0.4" d="M305.12 364.17H278.52L283.66 351.55H299.98L305.12 364.17Z" fill="url(#paint63_linear)"/>
<path opacity="0.2" d="M305.12 364.17H278.52L283.66 351.55H299.98L305.12 364.17Z" fill="#FAFAFA"/>
<path opacity="0.4" d="M345.52 364.17H305.12L299.98 351.55H340.38L345.52 364.17Z" fill="url(#paint64_linear)"/>
<path opacity="0.3" d="M345.52 364.17H305.12L299.98 351.55H340.38L345.52 364.17Z" fill="black"/>
<path opacity="0.4" d="M339.05 364.17H312.46L317.6 351.55H333.91L339.05 364.17Z" fill="url(#paint65_linear)"/>
<path opacity="0.2" d="M339.05 364.17H312.46L317.6 351.55H333.91L339.05 364.17Z" fill="#FAFAFA"/>
<path opacity="0.4" d="M379.45 364.17H339.05L333.91 351.55H374.32L379.45 364.17Z" fill="url(#paint66_linear)"/>
<path opacity="0.3" d="M379.45 364.17H339.05L333.91 351.55H374.32L379.45 364.17Z" fill="black"/>
<path opacity="0.4" d="M372.98 364.17H346.39L351.53 351.55H367.84L372.98 364.17Z" fill="url(#paint67_linear)"/>
<path opacity="0.2" d="M372.98 364.17H346.39L351.53 351.55H367.84L372.98 364.17Z" fill="#FAFAFA"/>
<path opacity="0.4" d="M413.39 364.17H372.98L367.84 351.55H408.25L413.39 364.17Z" fill="url(#paint68_linear)"/>
<path opacity="0.3" d="M413.39 364.17H372.98L367.84 351.55H408.25L413.39 364.17Z" fill="black"/>
<path opacity="0.4" d="M145.81 351.55H119.22L124.36 338.93H140.67L145.81 351.55Z" fill="url(#paint69_linear)"/>
<path opacity="0.2" d="M145.81 351.55H119.22L124.36 338.93H140.67L145.81 351.55Z" fill="#FAFAFA"/>
<path opacity="0.4" d="M186.22 351.55H145.81L140.67 338.93H181.08L186.22 351.55Z" fill="url(#paint70_linear)"/>
<path opacity="0.3" d="M186.22 351.55H145.81L140.67 338.93H181.08L186.22 351.55Z" fill="black"/>
<path opacity="0.4" d="M179.75 351.55H153.16L158.29 338.93H174.61L179.75 351.55Z" fill="url(#paint71_linear)"/>
<path opacity="0.2" d="M179.75 351.55H153.16L158.29 338.93H174.61L179.75 351.55Z" fill="#FAFAFA"/>
<path opacity="0.4" d="M220.15 351.55H179.75L174.61 338.93H215.01L220.15 351.55Z" fill="url(#paint72_linear)"/>
<path opacity="0.3" d="M220.15 351.55H179.75L174.61 338.93H215.01L220.15 351.55Z" fill="black"/>
<path opacity="0.4" d="M213.68 351.55H187.09L192.23 338.93H208.54L213.68 351.55Z" fill="url(#paint73_linear)"/>
<path opacity="0.2" d="M213.68 351.55H187.09L192.23 338.93H208.54L213.68 351.55Z" fill="#FAFAFA"/>
<path opacity="0.4" d="M254.09 351.55H213.68L208.54 338.93H248.95L254.09 351.55Z" fill="url(#paint74_linear)"/>
<path opacity="0.3" d="M254.09 351.55H213.68L208.54 338.93H248.95L254.09 351.55Z" fill="black"/>
<path opacity="0.4" d="M247.61 351.55H221.02L226.16 338.93H242.47L247.61 351.55Z" fill="url(#paint75_linear)"/>
<path opacity="0.2" d="M247.61 351.55H221.02L226.16 338.93H242.47L247.61 351.55Z" fill="#FAFAFA"/>
<path opacity="0.4" d="M288.02 351.55H247.61L242.47 338.93H282.88L288.02 351.55Z" fill="url(#paint76_linear)"/>
<path opacity="0.3" d="M288.02 351.55H247.61L242.47 338.93H282.88L288.02 351.55Z" fill="black"/>
<path opacity="0.4" d="M281.55 351.55H254.96L260.1 338.93H276.41L281.55 351.55Z" fill="url(#paint77_linear)"/>
<path opacity="0.2" d="M281.55 351.55H254.96L260.1 338.93H276.41L281.55 351.55Z" fill="#FAFAFA"/>
<path opacity="0.4" d="M321.95 351.55H281.55L276.41 338.93H316.81L321.95 351.55Z" fill="url(#paint78_linear)"/>
<path opacity="0.3" d="M321.95 351.55H281.55L276.41 338.93H316.81L321.95 351.55Z" fill="black"/>
<path opacity="0.4" d="M315.48 351.55H288.89L294.03 338.93H310.34L315.48 351.55Z" fill="url(#paint79_linear)"/>
<path opacity="0.2" d="M315.48 351.55H288.89L294.03 338.93H310.34L315.48 351.55Z" fill="#FAFAFA"/>
<path opacity="0.4" d="M355.89 351.55H315.48L310.34 338.93H350.75L355.89 351.55Z" fill="url(#paint80_linear)"/>
<path opacity="0.3" d="M355.89 351.55H315.48L310.34 338.93H350.75L355.89 351.55Z" fill="black"/>
<path opacity="0.4" d="M349.41 351.55H322.82L327.96 338.93H344.27L349.41 351.55Z" fill="url(#paint81_linear)"/>
<path opacity="0.2" d="M349.41 351.55H322.82L327.96 338.93H344.27L349.41 351.55Z" fill="#FAFAFA"/>
<path opacity="0.4" d="M389.82 351.55H349.41L344.27 338.93H384.68L389.82 351.55Z" fill="url(#paint82_linear)"/>
<path opacity="0.3" d="M389.82 351.55H349.41L344.27 338.93H384.68L389.82 351.55Z" fill="black"/>
<path opacity="0.4" d="M383.35 351.55H356.76L361.89 338.93H378.21L383.35 351.55Z" fill="url(#paint83_linear)"/>
<path opacity="0.2" d="M383.35 351.55H356.76L361.89 338.93H378.21L383.35 351.55Z" fill="#FAFAFA"/>
<path opacity="0.4" d="M154.7 338.93H128.11L133.25 326.3H149.56L154.7 338.93Z" fill="url(#paint84_linear)"/>
<path opacity="0.2" d="M154.7 338.93H128.11L133.25 326.3H149.56L154.7 338.93Z" fill="#FAFAFA"/>
<path opacity="0.4" d="M195.1 338.93H154.7L149.56 326.3H189.96L195.1 338.93Z" fill="url(#paint85_linear)"/>
<path opacity="0.3" d="M195.1 338.93H154.7L149.56 326.3H189.96L195.1 338.93Z" fill="black"/>
<path opacity="0.4" d="M188.63 338.93H162.04L167.18 326.3H183.49L188.63 338.93Z" fill="url(#paint86_linear)"/>
<path opacity="0.2" d="M188.63 338.93H162.04L167.18 326.3H183.49L188.63 338.93Z" fill="#FAFAFA"/>
<path opacity="0.4" d="M229.04 338.93H188.63L183.49 326.3H223.9L229.04 338.93Z" fill="url(#paint87_linear)"/>
<path opacity="0.3" d="M229.04 338.93H188.63L183.49 326.3H223.9L229.04 338.93Z" fill="black"/>
<path opacity="0.4" d="M222.56 338.93H195.97L201.11 326.3H217.43L222.56 338.93Z" fill="url(#paint88_linear)"/>
<path opacity="0.2" d="M222.56 338.93H195.97L201.11 326.3H217.43L222.56 338.93Z" fill="#FAFAFA"/>
<path opacity="0.4" d="M262.97 338.93H222.56L217.43 326.3H257.83L262.97 338.93Z" fill="url(#paint89_linear)"/>
<path opacity="0.3" d="M262.97 338.93H222.56L217.43 326.3H257.83L262.97 338.93Z" fill="black"/>
<path opacity="0.4" d="M256.5 338.93H229.91L235.05 326.3H251.36L256.5 338.93Z" fill="url(#paint90_linear)"/>
<path opacity="0.2" d="M256.5 338.93H229.91L235.05 326.3H251.36L256.5 338.93Z" fill="#FAFAFA"/>
<path opacity="0.4" d="M296.9 338.93H256.5L251.36 326.3H291.76L296.9 338.93Z" fill="url(#paint91_linear)"/>
<path opacity="0.3" d="M296.9 338.93H256.5L251.36 326.3H291.76L296.9 338.93Z" fill="black"/>
<path opacity="0.4" d="M290.43 338.93H263.84L268.98 326.3H285.29L290.43 338.93Z" fill="url(#paint92_linear)"/>
<path opacity="0.2" d="M290.43 338.93H263.84L268.98 326.3H285.29L290.43 338.93Z" fill="#FAFAFA"/>
<path opacity="0.4" d="M330.84 338.93H290.43L285.29 326.3H325.7L330.84 338.93Z" fill="url(#paint93_linear)"/>
<path opacity="0.3" d="M330.84 338.93H290.43L285.29 326.3H325.7L330.84 338.93Z" fill="black"/>
<path opacity="0.4" d="M324.37 338.93H297.77L302.91 326.3H319.23L324.37 338.93Z" fill="url(#paint94_linear)"/>
<path opacity="0.2" d="M324.37 338.93H297.77L302.91 326.3H319.23L324.37 338.93Z" fill="#FAFAFA"/>
<path opacity="0.4" d="M364.77 338.93H324.37L319.23 326.3H359.63L364.77 338.93Z" fill="url(#paint95_linear)"/>
<path opacity="0.3" d="M364.77 338.93H324.37L319.23 326.3H359.63L364.77 338.93Z" fill="black"/>
<path opacity="0.4" d="M358.3 338.93H331.71L336.85 326.3H353.16L358.3 338.93Z" fill="url(#paint96_linear)"/>
<path opacity="0.2" d="M358.3 338.93H331.71L336.85 326.3H353.16L358.3 338.93Z" fill="#FAFAFA"/>
<path opacity="0.4" d="M398.7 338.93H358.3L353.16 326.3H393.56L398.7 338.93Z" fill="url(#paint97_linear)"/>
<path opacity="0.3" d="M398.7 338.93H358.3L353.16 326.3H393.56L398.7 338.93Z" fill="black"/>
<path opacity="0.4" d="M165.06 326.3H138.47L143.61 313.68H159.92L165.06 326.3Z" fill="url(#paint98_linear)"/>
<path opacity="0.2" d="M165.06 326.3H138.47L143.61 313.68H159.92L165.06 326.3Z" fill="#FAFAFA"/>
<path opacity="0.4" d="M205.47 326.3H165.06L159.92 313.68H200.33L205.47 326.3Z" fill="url(#paint99_linear)"/>
<path opacity="0.3" d="M205.47 326.3H165.06L159.92 313.68H200.33L205.47 326.3Z" fill="black"/>
<path opacity="0.4" d="M199 326.3H172.4L177.54 313.68H193.86L199 326.3Z" fill="url(#paint100_linear)"/>
<path opacity="0.2" d="M199 326.3H172.4L177.54 313.68H193.86L199 326.3Z" fill="#FAFAFA"/>
<path opacity="0.4" d="M239.4 326.3H199L193.86 313.68H234.26L239.4 326.3Z" fill="url(#paint101_linear)"/>
<path opacity="0.3" d="M239.4 326.3H199L193.86 313.68H234.26L239.4 326.3Z" fill="black"/>
<path opacity="0.4" d="M232.93 326.3H206.34L211.48 313.68H227.79L232.93 326.3Z" fill="url(#paint102_linear)"/>
<path opacity="0.2" d="M232.93 326.3H206.34L211.48 313.68H227.79L232.93 326.3Z" fill="#FAFAFA"/>
<path opacity="0.4" d="M273.33 326.3H232.93L227.79 313.68H268.19L273.33 326.3Z" fill="url(#paint103_linear)"/>
<path opacity="0.3" d="M273.33 326.3H232.93L227.79 313.68H268.19L273.33 326.3Z" fill="black"/>
<path opacity="0.4" d="M266.86 326.3H240.27L245.41 313.68H261.72L266.86 326.3Z" fill="url(#paint104_linear)"/>
<path opacity="0.2" d="M266.86 326.3H240.27L245.41 313.68H261.72L266.86 326.3Z" fill="#FAFAFA"/>
<path opacity="0.4" d="M307.27 326.3H266.86L261.72 313.68H302.13L307.27 326.3Z" fill="url(#paint105_linear)"/>
<path opacity="0.3" d="M307.27 326.3H266.86L261.72 313.68H302.13L307.27 326.3Z" fill="black"/>
<path opacity="0.4" d="M300.8 326.3H274.2L279.34 313.68H295.66L300.8 326.3Z" fill="url(#paint106_linear)"/>
<path opacity="0.2" d="M300.8 326.3H274.2L279.34 313.68H295.66L300.8 326.3Z" fill="#FAFAFA"/>
<path opacity="0.4" d="M341.2 326.3H300.8L295.66 313.68H336.06L341.2 326.3Z" fill="url(#paint107_linear)"/>
<path opacity="0.3" d="M341.2 326.3H300.8L295.66 313.68H336.06L341.2 326.3Z" fill="black"/>
<path opacity="0.4" d="M334.73 326.3H308.14L313.28 313.68H329.59L334.73 326.3Z" fill="url(#paint108_linear)"/>
<path opacity="0.2" d="M334.73 326.3H308.14L313.28 313.68H329.59L334.73 326.3Z" fill="#FAFAFA"/>
<path opacity="0.4" d="M375.13 326.3H334.73L329.59 313.68H370L375.13 326.3Z" fill="url(#paint109_linear)"/>
<path opacity="0.3" d="M375.13 326.3H334.73L329.59 313.68H370L375.13 326.3Z" fill="black"/>
<path opacity="0.4" d="M368.66 326.3H342.07L347.21 313.68H363.52L368.66 326.3Z" fill="url(#paint110_linear)"/>
<path opacity="0.2" d="M368.66 326.3H342.07L347.21 313.68H363.52L368.66 326.3Z" fill="#FAFAFA"/>
<path opacity="0.4" d="M409.07 326.3H368.66L363.52 313.68H403.93L409.07 326.3Z" fill="url(#paint111_linear)"/>
<path opacity="0.3" d="M409.07 326.3H368.66L363.52 313.68H403.93L409.07 326.3Z" fill="black"/>
</g>
</g>
<path d="M222.18 160C227.84 161.34 233.64 162.68 239.37 163.9C245.1 165.12 250.86 166.23 256.5 166.99L258.59 167.23L259.1 167.28H259.02C259.02 167.28 259.07 167.28 259.18 167.28C260.082 167.05 260.937 166.668 261.71 166.15C263.955 164.675 266.063 163.001 268.01 161.15C272.17 157.3 276.23 152.94 280.14 148.6L284.71 151.77C281.716 157.197 278.218 162.33 274.26 167.1C272.169 169.662 269.805 171.989 267.21 174.04C265.594 175.338 263.754 176.327 261.78 176.96C261.128 177.158 260.458 177.292 259.78 177.36C259.38 177.385 258.98 177.385 258.58 177.36H257.97L255.59 177.24C249.436 176.784 243.313 175.979 237.25 174.83C231.25 173.73 225.37 172.43 219.42 170.83L222.18 160Z" fill="#7F3E3B"/>
<path d="M213.6 170.16C217.6 175.94 241.6 178.16 241.6 178.16L243.07 162.78C236.959 160.639 230.671 159.04 224.28 158C207.33 155.58 209.24 163.82 213.6 170.16Z" fill="url(#paint112_linear)"/>
<path opacity="0.2" d="M213.6 170.16C217.6 175.94 241.6 178.16 241.6 178.16L243.07 162.78C236.959 160.639 230.671 159.04 224.28 158C207.33 155.58 209.24 163.82 213.6 170.16Z" fill="white"/>
<path d="M279.2 150.52L281.11 143.44L287.7 146.27C287.7 146.27 284.92 153.9 282.41 153.52L279.2 150.52Z" fill="#7F3E3B"/>
<path d="M286.55 139.06L292 138.72L287.7 146.27L281.11 143.44L286.55 139.06Z" fill="#7F3E3B"/>
<path d="M229.72 159.71C229.72 159.71 239.24 182.1 232.38 223.79H192.72C192.24 217.7 195.03 188.01 188.17 159.33C192.532 158.481 196.945 157.919 201.38 157.65C206.995 157.33 212.625 157.33 218.24 157.65C222.114 158.043 225.951 158.732 229.72 159.71Z" fill="url(#paint113_linear)"/>
<path opacity="0.2" d="M229.72 159.71C229.72 159.71 239.24 182.1 232.38 223.79H192.72C192.24 217.7 195.03 188.01 188.17 159.33C192.532 158.481 196.945 157.919 201.38 157.65C206.995 157.33 212.625 157.33 218.24 157.65C222.114 158.043 225.951 158.732 229.72 159.71Z" fill="white"/>
<path opacity="0.3" d="M189.41 165.07C191.265 174.884 192.362 184.827 192.69 194.81C194.143 188.961 195.126 183.005 195.63 177C196.05 170.35 193.47 166.14 189.41 165.07Z" fill="black"/>
<path d="M217.89 191.47C214.37 187.6 208.32 179.89 206.44 172.96L215.88 167.96L224.67 172.46C224.58 178.35 221.44 186.33 219.19 191.19C218.9 191.78 218.3 191.93 217.89 191.47Z" fill="#FAFAFA"/>
<path d="M202.4 138.67C203.65 144.1 205.05 154.03 201.4 157.67C201.4 157.67 202.99 162.16 213.07 162.16C224.15 162.16 218.26 157.67 218.26 157.67C212.16 156.23 212.16 151.74 213.07 147.53L202.4 138.67Z" fill="#7F3E3B"/>
<path opacity="0.2" d="M206.74 142.28L213.05 147.5C212.823 148.486 212.682 149.49 212.63 150.5C210.31 150.17 207.05 147.63 206.72 145.21C206.543 144.241 206.55 143.247 206.74 142.28Z" fill="black"/>
<path d="M218.7 135.57C220.34 134.17 221.08 125.8 217.85 121.79C214.62 117.78 211.85 127.5 211.85 127.5C211.85 127.5 213.33 140.17 218.7 135.57Z" fill="#263238"/>
<path d="M200 133C202.26 140 203.22 144.23 207.78 147.1C209.251 148.045 210.953 148.571 212.701 148.619C214.449 148.667 216.177 148.237 217.698 147.374C219.218 146.511 220.474 145.248 221.33 143.723C222.185 142.198 222.607 140.468 222.55 138.72C222.46 131.99 218.78 121.63 211.03 120.34C209.36 120.015 207.634 120.135 206.026 120.688C204.417 121.241 202.982 122.207 201.865 123.49C200.747 124.772 199.987 126.326 199.659 127.995C199.332 129.665 199.45 131.39 200 133Z" fill="#7F3E3B"/>
<path d="M218.88 118.54C219.113 118.115 219.227 117.634 219.21 117.15C219.206 116.567 219.016 116.001 218.669 115.533C218.322 115.065 217.835 114.719 217.279 114.546C216.723 114.372 216.126 114.38 215.574 114.568C215.023 114.755 214.545 115.113 214.21 115.59C213.643 114.94 212.939 114.424 212.149 114.078C211.359 113.733 210.502 113.566 209.64 113.59C208.733 113.62 207.846 113.864 207.05 114.3C206.536 113.862 205.875 113.633 205.2 113.66C204.544 113.684 203.918 113.94 203.434 114.384C202.95 114.827 202.64 115.429 202.56 116.08C202.279 116.035 201.995 116.015 201.71 116.02C200.533 116.062 199.421 116.568 198.617 117.429C197.813 118.289 197.382 119.433 197.42 120.61C197.42 120.61 197.42 120.61 197.42 120.67C197.25 120.66 197.08 120.66 196.91 120.67C196.436 120.687 195.97 120.797 195.538 120.994C195.106 121.191 194.718 121.471 194.395 121.819C194.072 122.166 193.82 122.574 193.654 123.018C193.489 123.463 193.413 123.936 193.43 124.41V124.47C192.978 124.715 192.605 125.082 192.352 125.53C192.099 125.977 191.977 126.487 192 127C192.021 127.546 192.201 128.074 192.52 128.519C192.838 128.963 193.28 129.304 193.79 129.5C193.858 130.347 194.226 131.142 194.827 131.743C195.428 132.344 196.223 132.711 197.07 132.78C197.46 136.28 198.72 141.7 202.81 138.9C204.37 137.83 205.81 131.34 204.26 126.84C204.38 126.84 204.51 126.84 204.64 126.84C205.315 126.815 205.976 126.635 206.57 126.314C207.165 125.994 207.678 125.54 208.07 124.99C208.925 125.271 209.834 125.352 210.725 125.225C211.617 125.099 212.467 124.768 213.21 124.26C213.531 124.372 213.87 124.426 214.21 124.42C214.676 124.399 215.13 124.261 215.53 124.02C216.098 124.406 216.773 124.606 217.46 124.59C218.174 124.568 218.861 124.311 219.414 123.858C219.967 123.405 220.354 122.782 220.516 122.086C220.678 121.39 220.605 120.66 220.31 120.01C220.014 119.359 219.511 118.825 218.88 118.49V118.54Z" fill="#263238"/>
<path d="M198.79 141.54C200.131 142.843 201.92 143.584 203.79 143.61C206.26 143.61 206.79 141.27 205.46 139.31C204.28 137.56 201.58 135.44 199.4 136.38C197.22 137.32 197.15 139.93 198.79 141.54Z" fill="#7F3E3B"/>
<path d="M211.42 132.6C211.56 133.18 211.99 133.6 212.42 133.5C212.85 133.4 212.99 132.87 212.84 132.29C212.69 131.71 212.26 131.29 211.84 131.4C211.42 131.51 211.27 132 211.42 132.6Z" fill="#263238"/>
<path d="M218 131.15C218.15 131.73 218.58 132.15 219 132.05C219.42 131.95 219.57 131.43 219.42 130.85C219.27 130.27 218.84 129.85 218.42 129.95C218 130.05 217.87 130.57 218 131.15Z" fill="#263238"/>
<path d="M216 131.9C217.157 133.521 218.522 134.984 220.06 136.25C219.726 136.621 219.315 136.914 218.855 137.11C218.396 137.305 217.899 137.397 217.4 137.38L216 131.9Z" fill="#630F0F"/>
<path d="M214.87 139.49C213.652 139.502 212.47 139.076 211.54 138.29C211.508 138.258 211.49 138.215 211.49 138.17C211.49 138.125 211.508 138.082 211.54 138.05C211.556 138.033 211.575 138.019 211.597 138.009C211.618 138 211.642 137.995 211.665 137.995C211.688 137.995 211.712 138 211.733 138.009C211.755 138.019 211.774 138.033 211.79 138.05C212.375 138.526 213.061 138.863 213.795 139.036C214.53 139.209 215.294 139.214 216.03 139.05C216.075 139.041 216.122 139.049 216.161 139.073C216.2 139.097 216.228 139.136 216.24 139.18C216.246 139.203 216.247 139.227 216.243 139.25C216.239 139.274 216.23 139.296 216.217 139.316C216.203 139.336 216.186 139.353 216.166 139.365C216.146 139.378 216.124 139.386 216.1 139.39C215.695 139.47 215.282 139.504 214.87 139.49Z" fill="#263238"/>
<path d="M208.8 130.93C208.754 130.939 208.706 130.939 208.66 130.93C208.617 130.913 208.578 130.887 208.546 130.854C208.513 130.821 208.488 130.782 208.471 130.739C208.454 130.696 208.446 130.65 208.448 130.603C208.449 130.557 208.46 130.512 208.48 130.47C208.693 129.963 209.027 129.516 209.452 129.168C209.878 128.819 210.381 128.58 210.92 128.47C211.012 128.461 211.104 128.487 211.178 128.542C211.252 128.598 211.303 128.679 211.32 128.77C211.332 128.863 211.307 128.956 211.251 129.031C211.195 129.105 211.112 129.155 211.02 129.17C210.597 129.265 210.203 129.462 209.872 129.742C209.542 130.022 209.283 130.378 209.12 130.78C209.085 130.831 209.037 130.872 208.98 130.898C208.924 130.925 208.862 130.936 208.8 130.93Z" fill="#263238"/>
<path d="M220.25 128.28C220.198 128.28 220.147 128.269 220.1 128.246C220.053 128.224 220.012 128.191 219.98 128.15C219.699 127.8 219.342 127.518 218.937 127.324C218.532 127.13 218.089 127.03 217.64 127.03C217.547 127.038 217.455 127.009 217.384 126.949C217.312 126.889 217.268 126.803 217.26 126.71C217.252 126.617 217.281 126.525 217.341 126.454C217.401 126.382 217.487 126.338 217.58 126.33C218.142 126.318 218.699 126.436 219.209 126.673C219.719 126.911 220.167 127.262 220.52 127.7C220.579 127.773 220.606 127.867 220.597 127.96C220.587 128.053 220.542 128.139 220.47 128.2C220.408 128.251 220.33 128.279 220.25 128.28Z" fill="#263238"/>
<path d="M196 170L194.56 173.11C194.08 174.18 193.61 175.26 193.15 176.34C192.23 178.5 191.36 180.69 190.52 182.87C189.68 185.05 188.94 187.25 188.23 189.45C187.52 191.65 186.97 193.84 186.51 196.02V196.21V196.15C186.514 196.097 186.514 196.043 186.51 195.99C186.497 195.879 186.466 195.771 186.42 195.67C186.34 195.48 186.25 195.44 186.29 195.55C186.654 196.061 187.125 196.488 187.67 196.8C189.465 197.894 191.377 198.783 193.37 199.45C197.833 200.983 202.381 202.258 206.99 203.27L206.53 208.82C201.372 208.986 196.21 208.583 191.14 207.62C188.355 207.116 185.649 206.248 183.09 205.04C181.428 204.249 179.935 203.145 178.69 201.79C177.84 200.821 177.2 199.688 176.81 198.46C176.598 197.764 176.47 197.046 176.43 196.32C176.41 195.96 176.41 195.6 176.43 195.24L176.48 194.72V194.45C177.146 189.243 178.335 184.117 180.03 179.15C180.843 176.71 181.74 174.307 182.72 171.94C183.22 170.76 183.72 169.59 184.27 168.42C184.82 167.25 185.35 166.13 186 164.88L196 170Z" fill="#7F3E3B"/>
<path d="M188.17 159.33C181.17 160.33 174 186.04 174 186.04L190.87 192.46C190.87 192.46 195.11 181.41 198.01 172.83C201.05 163.84 195.65 158.23 188.17 159.33Z" fill="url(#paint114_linear)"/>
<path opacity="0.2" d="M188.17 159.33C181.17 160.33 174 186.04 174 186.04L190.87 192.46C190.87 192.46 195.11 181.41 198.01 172.83C201.05 163.84 195.65 158.23 188.17 159.33Z" fill="white"/>
<path d="M198.81 412.37H206.23L207.19 395.2H199.78L198.81 412.37Z" fill="#7F3E3B"/>
<path opacity="0.2" d="M199.77 395.2H207.19L206.69 404.05H199.27L199.77 395.2Z" fill="black"/>
<path d="M206.62 411.51H198.29C198.221 411.506 198.152 411.516 198.086 411.539C198.021 411.562 197.961 411.598 197.91 411.644C197.859 411.691 197.817 411.747 197.788 411.81C197.759 411.873 197.743 411.941 197.74 412.01L197.33 418.6C197.329 418.772 197.361 418.943 197.426 419.102C197.49 419.261 197.586 419.407 197.707 419.529C197.827 419.652 197.971 419.749 198.129 419.816C198.288 419.883 198.458 419.919 198.63 419.92C201.53 419.87 202.92 419.7 206.63 419.7C208.88 419.7 218.46 419.94 221.57 419.94C224.68 419.94 224.57 416.86 223.28 416.58C217.36 415.33 210.04 413.58 207.94 411.96C207.563 411.665 207.098 411.507 206.62 411.51Z" fill="#263238"/>
<path d="M209.24 412.79C209.736 412.838 210.231 412.699 210.63 412.4C210.746 412.278 210.826 412.128 210.863 411.964C210.9 411.8 210.892 411.63 210.84 411.47C210.822 411.363 210.776 411.263 210.708 411.179C210.64 411.095 210.551 411.03 210.45 410.99C209.54 410.63 207.45 412.06 207.21 412.23C207.184 412.249 207.164 412.275 207.152 412.305C207.139 412.335 207.135 412.368 207.14 412.4C207.149 412.431 207.166 412.459 207.188 412.482C207.211 412.505 207.239 412.521 207.27 412.53C207.916 412.685 208.576 412.772 209.24 412.79ZM210.1 411.26C210.176 411.245 210.254 411.245 210.33 411.26C210.379 411.281 210.422 411.314 210.456 411.356C210.489 411.398 210.511 411.447 210.52 411.5C210.555 411.607 210.563 411.72 210.542 411.831C210.521 411.941 210.472 412.044 210.4 412.13C210.05 412.47 209.06 412.51 207.73 412.25C208.439 411.753 209.248 411.415 210.1 411.26Z" fill="url(#paint115_linear)"/>
<path d="M207.31 412.53H207.39C208.13 412.09 209.23 410.53 209.06 409.74C209.029 409.597 208.951 409.468 208.839 409.374C208.727 409.28 208.586 409.226 208.44 409.22C208.308 409.203 208.174 409.216 208.048 409.257C207.921 409.299 207.806 409.368 207.71 409.46C206.97 410.18 207.13 412.31 207.14 412.4C207.142 412.428 207.152 412.454 207.168 412.477C207.184 412.5 207.205 412.518 207.23 412.53C207.256 412.54 207.284 412.54 207.31 412.53ZM208.31 409.53H208.39C208.65 409.53 208.7 409.69 208.73 409.79C208.85 410.35 208.06 411.53 207.45 412.05C207.348 411.229 207.517 410.397 207.93 409.68C207.982 409.63 208.043 409.592 208.11 409.566C208.177 409.54 208.248 409.528 208.32 409.53H208.31Z" fill="url(#paint116_linear)"/>
<path d="M264.69 394.05L271.99 392.78L270 375.7L262.7 376.97L264.69 394.05Z" fill="#7F3E3B"/>
<path opacity="0.2" d="M262.7 376.98L270.01 375.71L271.03 384.51L263.72 385.78L262.7 376.98Z" fill="black"/>
<path d="M272 391.89L263.77 390.63C263.632 390.604 263.489 390.633 263.373 390.712C263.257 390.791 263.177 390.912 263.15 391.05L261.75 397.5C261.698 397.843 261.783 398.193 261.987 398.474C262.191 398.754 262.498 398.943 262.84 399C265.71 399.39 267.11 399.43 270.73 400C272.96 400.34 282.39 402 285.47 402.48C288.55 402.96 288.92 399.9 287.66 399.42C282 397.3 275.02 394.49 273.19 392.55C272.883 392.198 272.462 391.964 272 391.89Z" fill="#263238"/>
<path d="M232.38 223.79C232.38 223.79 255.38 277.56 260.03 298.3C265.14 321.01 273.8 381.86 273.8 381.86L260.42 384.19C260.42 384.19 248.1 327.35 241 305.44C233.29 281.67 202.5 223.79 202.5 223.79H232.38Z" fill="#263238"/>
<path opacity="0.3" d="M213.42 235.67L212.88 243.8C216.35 250.64 220.35 258.62 224.26 266.72C226 258.7 221.56 239.43 213.42 235.67Z" fill="black"/>
<path d="M219.11 223.79C219.11 223.79 218.98 280.44 217.78 301.67C216.46 324.91 209.87 401.92 209.87 401.92H196.29C196.29 401.92 196.7 326.79 195.88 303.78C194.99 278.78 192.69 223.78 192.69 223.78L219.11 223.79Z" fill="#263238"/>
<path d="M195.75 402.04H210.42L211.23 396.89L195.04 397.69L195.75 402.04Z" fill="url(#paint117_linear)"/>
<path opacity="0.3" d="M195.75 402.04H210.42L211.23 396.89L195.04 397.69L195.75 402.04Z" fill="black"/>
<path d="M259.88 384.28L274.33 381.77L274.25 376.55L258.44 380.12L259.88 384.28Z" fill="url(#paint118_linear)"/>
<path opacity="0.3" d="M259.88 384.28L274.33 381.77L274.25 376.55L258.44 380.12L259.88 384.28Z" fill="black"/>
<path d="M274.44 393.55C274.921 393.673 275.431 393.612 275.87 393.38C276 393.274 276.101 393.136 276.164 392.981C276.227 392.825 276.249 392.657 276.23 392.49C276.226 392.38 276.194 392.274 276.138 392.179C276.082 392.085 276.004 392.006 275.91 391.95C275.07 391.46 272.78 392.56 272.52 392.69C272.492 392.703 272.469 392.725 272.453 392.752C272.437 392.778 272.429 392.809 272.43 392.84C272.428 392.872 272.437 392.905 272.455 392.932C272.473 392.959 272.499 392.979 272.53 392.99C273.143 393.248 273.784 393.436 274.44 393.55ZM275.52 392.17C275.598 392.175 275.673 392.199 275.74 392.24C275.79 392.264 275.831 392.303 275.857 392.351C275.884 392.4 275.896 392.455 275.89 392.51C275.91 392.62 275.902 392.733 275.865 392.838C275.828 392.943 275.764 393.037 275.68 393.11C275.28 393.4 274.3 393.29 273.02 392.82C273.796 392.424 274.649 392.203 275.52 392.17Z" fill="url(#paint119_linear)"/>
<path d="M272.57 393C272.599 393.01 272.631 393.01 272.66 393C273.45 392.68 274.78 391.32 274.73 390.5C274.721 390.352 274.663 390.212 274.565 390.102C274.467 389.991 274.335 389.916 274.19 389.89C274.063 389.853 273.93 389.846 273.8 389.868C273.67 389.891 273.547 389.943 273.44 390.02C272.59 390.62 272.44 392.75 272.44 392.84C272.436 392.868 272.441 392.896 272.454 392.921C272.466 392.945 272.486 392.966 272.51 392.98C272.527 392.994 272.548 393.001 272.57 393ZM274.02 390.18H274.1C274.35 390.25 274.39 390.38 274.4 390.49C274.4 391.06 273.48 392.1 272.79 392.49C272.817 391.662 273.112 390.866 273.63 390.22C273.744 390.16 273.876 390.146 274 390.18H274.02Z" fill="url(#paint120_linear)"/>
<path d="M205.88 203.21L211.96 201.54L212.8 209.23C212.8 209.23 206.8 211.03 205.31 207.88L205.88 203.21Z" fill="#7F3E3B"/>
<path d="M217.48 202.6L217.11 209.53L212.8 209.23L211.96 201.54L217.48 202.6Z" fill="#7F3E3B"/>
<path d="M318.88 384.19C286.94 379.38 262.68 319.68 262.68 250.54C262.68 181.4 286.94 121.7 318.88 116.89L348.65 112.41V388.67L318.88 384.19Z" fill="url(#paint121_linear)"/>
<path opacity="0.3" d="M318.88 384.19C286.94 379.38 262.68 319.68 262.68 250.54C262.68 181.4 286.94 121.7 318.88 116.89L348.65 112.41V388.67L318.88 384.19Z" fill="black"/>
<path d="M348.65 388.67C377.463 388.67 400.82 326.827 400.82 250.54C400.82 174.253 377.463 112.41 348.65 112.41C319.837 112.41 296.48 174.253 296.48 250.54C296.48 326.827 319.837 388.67 348.65 388.67Z" fill="url(#paint122_linear)"/>
<path opacity="0.2" d="M358.31 182C342.31 182 329.42 212.69 329.42 250.55C329.42 288.41 342.35 319.09 358.31 319.09C374.27 319.09 387.2 288.41 387.2 250.55C387.2 212.69 374.27 182 358.31 182ZM381.31 250.55C381.31 261.44 379.55 271.34 376.67 278.77L368.33 250L376.51 221.83C379.51 229.3 381.35 239.4 381.35 250.54L381.31 250.55ZM363.72 208.84C367.25 208.84 370.52 211.3 373.27 215.53L365.8 241.44L357.18 211.84C358.892 210.011 361.256 208.929 363.76 208.83L363.72 208.84ZM346.15 250.55C346.15 236.45 349.1 224 353.61 216.45L363.37 250L353.47 284.32C349.06 276.76 346.19 264.45 346.19 250.54L346.15 250.55ZM363.72 292.26C362.44 292.19 361.186 291.865 360.032 291.306C358.878 290.746 357.848 289.962 357 289L365.84 258.53L373.55 285.17C370.75 289.66 367.39 292.25 363.76 292.25L363.72 292.26Z" fill="#FAFAFA"/>
<path opacity="0.4" d="M350.06 385.17C326.56 385.17 301.4 331.07 301.4 250.54C301.4 170.01 326.56 115.91 350.06 115.91C373.56 115.91 398.73 170.01 398.73 250.54C398.73 331.07 373.57 385.17 350.06 385.17ZM350.06 116.91C327.06 116.91 302.4 170.6 302.4 250.54C302.4 330.48 327 384.17 350.06 384.17C373.12 384.17 397.73 330.47 397.73 250.54C397.73 170.61 373.08 116.91 350.06 116.91Z" fill="#FAFAFA"/>
<defs>
<linearGradient id="paint0_linear" x1="458.758" y1="66.1167" x2="458.758" y2="308.823" gradientUnits="userSpaceOnUse">
<stop stop-color="#4070FF"/>
<stop offset="1" stop-color="#365FD9"/>
</linearGradient>
<linearGradient id="paint1_linear" x1="443.89" y1="404.92" x2="443.89" y2="427.56" gradientUnits="userSpaceOnUse">
<stop stop-color="#4070FF"/>
<stop offset="1" stop-color="#365FD9"/>
</linearGradient>
<linearGradient id="paint2_linear" x1="162.5" y1="145.9" x2="162.5" y2="186.65" gradientUnits="userSpaceOnUse">
<stop stop-color="#4070FF"/>
<stop offset="1" stop-color="#365FD9"/>
</linearGradient>
<linearGradient id="paint3_linear" x1="125.27" y1="201.36" x2="125.27" y2="222.35" gradientUnits="userSpaceOnUse">
<stop stop-color="#4070FF"/>
<stop offset="1" stop-color="#365FD9"/>
</linearGradient>
<linearGradient id="paint4_linear" x1="257.182" y1="55.1893" x2="452.528" y2="250.535" gradientUnits="userSpaceOnUse">
<stop stop-color="#4070FF"/>
<stop offset="1" stop-color="#365FD9"/>
</linearGradient>
<linearGradient id="paint5_linear" x1="176.99" y1="301.06" x2="176.99" y2="313.68" gradientUnits="userSpaceOnUse">
<stop stop-color="#4070FF"/>
<stop offset="1" stop-color="#365FD9"/>
</linearGradient>
<linearGradient id="paint6_linear" x1="217.4" y1="301.06" x2="217.4" y2="313.68" gradientUnits="userSpaceOnUse">
<stop stop-color="#4070FF"/>
<stop offset="1" stop-color="#365FD9"/>
</linearGradient>
<linearGradient id="paint7_linear" x1="210.93" y1="301.06" x2="210.93" y2="313.68" gradientUnits="userSpaceOnUse">
<stop stop-color="#4070FF"/>
<stop offset="1" stop-color="#365FD9"/>
</linearGradient>
<linearGradient id="paint8_linear" x1="251.33" y1="301.06" x2="251.33" y2="313.68" gradientUnits="userSpaceOnUse">
<stop stop-color="#4070FF"/>
<stop offset="1" stop-color="#365FD9"/>
</linearGradient>
<linearGradient id="paint9_linear" x1="244.86" y1="301.06" x2="244.86" y2="313.68" gradientUnits="userSpaceOnUse">
<stop stop-color="#4070FF"/>
<stop offset="1" stop-color="#365FD9"/>
</linearGradient>
<linearGradient id="paint10_linear" x1="285.26" y1="301.06" x2="285.26" y2="313.68" gradientUnits="userSpaceOnUse">
<stop stop-color="#4070FF"/>
<stop offset="1" stop-color="#365FD9"/>
</linearGradient>
<linearGradient id="paint11_linear" x1="278.79" y1="301.06" x2="278.79" y2="313.68" gradientUnits="userSpaceOnUse">
<stop stop-color="#4070FF"/>
<stop offset="1" stop-color="#365FD9"/>
</linearGradient>
<linearGradient id="paint12_linear" x1="319.2" y1="301.06" x2="319.2" y2="313.68" gradientUnits="userSpaceOnUse">
<stop stop-color="#4070FF"/>
<stop offset="1" stop-color="#365FD9"/>
</linearGradient>
<linearGradient id="paint13_linear" x1="312.73" y1="301.06" x2="312.73" y2="313.68" gradientUnits="userSpaceOnUse">
<stop stop-color="#4070FF"/>
<stop offset="1" stop-color="#365FD9"/>
</linearGradient>
<linearGradient id="paint14_linear" x1="353.13" y1="301.06" x2="353.13" y2="313.68" gradientUnits="userSpaceOnUse">
<stop stop-color="#4070FF"/>
<stop offset="1" stop-color="#365FD9"/>
</linearGradient>
<linearGradient id="paint15_linear" x1="346.66" y1="301.06" x2="346.66" y2="313.68" gradientUnits="userSpaceOnUse">
<stop stop-color="#4070FF"/>
<stop offset="1" stop-color="#365FD9"/>
</linearGradient>
<linearGradient id="paint16_linear" x1="387.06" y1="301.06" x2="387.06" y2="313.68" gradientUnits="userSpaceOnUse">
<stop stop-color="#4070FF"/>
<stop offset="1" stop-color="#365FD9"/>
</linearGradient>
<linearGradient id="paint17_linear" x1="380.59" y1="301.06" x2="380.59" y2="313.68" gradientUnits="userSpaceOnUse">
<stop stop-color="#4070FF"/>
<stop offset="1" stop-color="#365FD9"/>
</linearGradient>
<linearGradient id="paint18_linear" x1="187.36" y1="288.43" x2="187.36" y2="301.06" gradientUnits="userSpaceOnUse">
<stop stop-color="#4070FF"/>
<stop offset="1" stop-color="#365FD9"/>
</linearGradient>
<linearGradient id="paint19_linear" x1="227.76" y1="288.43" x2="227.76" y2="301.06" gradientUnits="userSpaceOnUse">
<stop stop-color="#4070FF"/>
<stop offset="1" stop-color="#365FD9"/>
</linearGradient>
<linearGradient id="paint20_linear" x1="221.29" y1="288.43" x2="221.29" y2="301.06" gradientUnits="userSpaceOnUse">
<stop stop-color="#4070FF"/>
<stop offset="1" stop-color="#365FD9"/>
</linearGradient>
<linearGradient id="paint21_linear" x1="261.69" y1="288.43" x2="261.69" y2="301.06" gradientUnits="userSpaceOnUse">
<stop stop-color="#4070FF"/>
<stop offset="1" stop-color="#365FD9"/>
</linearGradient>
<linearGradient id="paint22_linear" x1="255.22" y1="288.43" x2="255.22" y2="301.06" gradientUnits="userSpaceOnUse">
<stop stop-color="#4070FF"/>
<stop offset="1" stop-color="#365FD9"/>
</linearGradient>
<linearGradient id="paint23_linear" x1="295.63" y1="288.43" x2="295.63" y2="301.06" gradientUnits="userSpaceOnUse">
<stop stop-color="#4070FF"/>
<stop offset="1" stop-color="#365FD9"/>
</linearGradient>
<linearGradient id="paint24_linear" x1="289.16" y1="288.43" x2="289.16" y2="301.06" gradientUnits="userSpaceOnUse">
<stop stop-color="#4070FF"/>
<stop offset="1" stop-color="#365FD9"/>
</linearGradient>
<linearGradient id="paint25_linear" x1="329.56" y1="288.43" x2="329.56" y2="301.06" gradientUnits="userSpaceOnUse">
<stop stop-color="#4070FF"/>
<stop offset="1" stop-color="#365FD9"/>
</linearGradient>
<linearGradient id="paint26_linear" x1="323.09" y1="288.43" x2="323.09" y2="301.06" gradientUnits="userSpaceOnUse">
<stop stop-color="#4070FF"/>
<stop offset="1" stop-color="#365FD9"/>
</linearGradient>
<linearGradient id="paint27_linear" x1="363.5" y1="288.43" x2="363.5" y2="301.06" gradientUnits="userSpaceOnUse">
<stop stop-color="#4070FF"/>
<stop offset="1" stop-color="#365FD9"/>
</linearGradient>
<linearGradient id="paint28_linear" x1="357.02" y1="288.43" x2="357.02" y2="301.06" gradientUnits="userSpaceOnUse">
<stop stop-color="#4070FF"/>
<stop offset="1" stop-color="#365FD9"/>
</linearGradient>
<linearGradient id="paint29_linear" x1="397.43" y1="288.43" x2="397.43" y2="301.06" gradientUnits="userSpaceOnUse">
<stop stop-color="#4070FF"/>
<stop offset="1" stop-color="#365FD9"/>
</linearGradient>
<linearGradient id="paint30_linear" x1="390.96" y1="288.43" x2="390.96" y2="301.06" gradientUnits="userSpaceOnUse">
<stop stop-color="#4070FF"/>
<stop offset="1" stop-color="#365FD9"/>
</linearGradient>
<linearGradient id="paint31_linear" x1="196.24" y1="275.81" x2="196.24" y2="288.43" gradientUnits="userSpaceOnUse">
<stop stop-color="#4070FF"/>
<stop offset="1" stop-color="#365FD9"/>
</linearGradient>
<linearGradient id="paint32_linear" x1="236.65" y1="275.81" x2="236.65" y2="288.43" gradientUnits="userSpaceOnUse">
<stop stop-color="#4070FF"/>
<stop offset="1" stop-color="#365FD9"/>
</linearGradient>
<linearGradient id="paint33_linear" x1="230.18" y1="275.81" x2="230.18" y2="288.43" gradientUnits="userSpaceOnUse">
<stop stop-color="#4070FF"/>
<stop offset="1" stop-color="#365FD9"/>
</linearGradient>
<linearGradient id="paint34_linear" x1="270.58" y1="275.81" x2="270.58" y2="288.43" gradientUnits="userSpaceOnUse">
<stop stop-color="#4070FF"/>
<stop offset="1" stop-color="#365FD9"/>
</linearGradient>
<linearGradient id="paint35_linear" x1="264.11" y1="275.81" x2="264.11" y2="288.43" gradientUnits="userSpaceOnUse">
<stop stop-color="#4070FF"/>
<stop offset="1" stop-color="#365FD9"/>
</linearGradient>
<linearGradient id="paint36_linear" x1="304.51" y1="275.81" x2="304.51" y2="288.43" gradientUnits="userSpaceOnUse">
<stop stop-color="#4070FF"/>
<stop offset="1" stop-color="#365FD9"/>
</linearGradient>
<linearGradient id="paint37_linear" x1="298.04" y1="275.81" x2="298.04" y2="288.43" gradientUnits="userSpaceOnUse">
<stop stop-color="#4070FF"/>
<stop offset="1" stop-color="#365FD9"/>
</linearGradient>
<linearGradient id="paint38_linear" x1="338.45" y1="275.81" x2="338.45" y2="288.43" gradientUnits="userSpaceOnUse">
<stop stop-color="#4070FF"/>
<stop offset="1" stop-color="#365FD9"/>
</linearGradient>
<linearGradient id="paint39_linear" x1="331.98" y1="275.81" x2="331.98" y2="288.43" gradientUnits="userSpaceOnUse">
<stop stop-color="#4070FF"/>
<stop offset="1" stop-color="#365FD9"/>
</linearGradient>
<linearGradient id="paint40_linear" x1="372.38" y1="275.81" x2="372.38" y2="288.43" gradientUnits="userSpaceOnUse">
<stop stop-color="#4070FF"/>
<stop offset="1" stop-color="#365FD9"/>
</linearGradient>
<linearGradient id="paint41_linear" x1="365.91" y1="275.81" x2="365.91" y2="288.43" gradientUnits="userSpaceOnUse">
<stop stop-color="#4070FF"/>
<stop offset="1" stop-color="#365FD9"/>
</linearGradient>
<linearGradient id="paint42_linear" x1="406.31" y1="275.81" x2="406.31" y2="288.43" gradientUnits="userSpaceOnUse">
<stop stop-color="#4070FF"/>
<stop offset="1" stop-color="#365FD9"/>
</linearGradient>
<linearGradient id="paint43_linear" x1="206.6" y1="263.19" x2="206.6" y2="275.81" gradientUnits="userSpaceOnUse">
<stop stop-color="#4070FF"/>
<stop offset="1" stop-color="#365FD9"/>
</linearGradient>
<linearGradient id="paint44_linear" x1="247.01" y1="263.19" x2="247.01" y2="275.81" gradientUnits="userSpaceOnUse">
<stop stop-color="#4070FF"/>
<stop offset="1" stop-color="#365FD9"/>
</linearGradient>
<linearGradient id="paint45_linear" x1="240.54" y1="263.19" x2="240.54" y2="275.81" gradientUnits="userSpaceOnUse">
<stop stop-color="#4070FF"/>
<stop offset="1" stop-color="#365FD9"/>
</linearGradient>
<linearGradient id="paint46_linear" x1="280.94" y1="263.19" x2="280.94" y2="275.81" gradientUnits="userSpaceOnUse">
<stop stop-color="#4070FF"/>
<stop offset="1" stop-color="#365FD9"/>
</linearGradient>
<linearGradient id="paint47_linear" x1="274.47" y1="263.19" x2="274.47" y2="275.81" gradientUnits="userSpaceOnUse">
<stop stop-color="#4070FF"/>
<stop offset="1" stop-color="#365FD9"/>
</linearGradient>
<linearGradient id="paint48_linear" x1="314.88" y1="263.19" x2="314.88" y2="275.81" gradientUnits="userSpaceOnUse">
<stop stop-color="#4070FF"/>
<stop offset="1" stop-color="#365FD9"/>
</linearGradient>
<linearGradient id="paint49_linear" x1="308.41" y1="263.19" x2="308.41" y2="275.81" gradientUnits="userSpaceOnUse">
<stop stop-color="#4070FF"/>
<stop offset="1" stop-color="#365FD9"/>
</linearGradient>
<linearGradient id="paint50_linear" x1="348.81" y1="263.19" x2="348.81" y2="275.81" gradientUnits="userSpaceOnUse">
<stop stop-color="#4070FF"/>
<stop offset="1" stop-color="#365FD9"/>
</linearGradient>
<linearGradient id="paint51_linear" x1="342.34" y1="263.19" x2="342.34" y2="275.81" gradientUnits="userSpaceOnUse">
<stop stop-color="#4070FF"/>
<stop offset="1" stop-color="#365FD9"/>
</linearGradient>
<linearGradient id="paint52_linear" x1="382.74" y1="263.19" x2="382.74" y2="275.81" gradientUnits="userSpaceOnUse">
<stop stop-color="#4070FF"/>
<stop offset="1" stop-color="#365FD9"/>
</linearGradient>
<linearGradient id="paint53_linear" x1="376.27" y1="263.19" x2="376.27" y2="275.81" gradientUnits="userSpaceOnUse">
<stop stop-color="#4070FF"/>
<stop offset="1" stop-color="#365FD9"/>
</linearGradient>
<linearGradient id="paint54_linear" x1="175.85" y1="351.55" x2="175.85" y2="364.17" gradientUnits="userSpaceOnUse">
<stop stop-color="#4070FF"/>
<stop offset="1" stop-color="#365FD9"/>
</linearGradient>
<linearGradient id="paint55_linear" x1="169.38" y1="351.55" x2="169.38" y2="364.17" gradientUnits="userSpaceOnUse">
<stop stop-color="#4070FF"/>
<stop offset="1" stop-color="#365FD9"/>
</linearGradient>
<linearGradient id="paint56_linear" x1="209.79" y1="351.55" x2="209.79" y2="364.17" gradientUnits="userSpaceOnUse">
<stop stop-color="#4070FF"/>
<stop offset="1" stop-color="#365FD9"/>
</linearGradient>
<linearGradient id="paint57_linear" x1="203.32" y1="351.55" x2="203.32" y2="364.17" gradientUnits="userSpaceOnUse">
<stop stop-color="#4070FF"/>
<stop offset="1" stop-color="#365FD9"/>
</linearGradient>
<linearGradient id="paint58_linear" x1="243.72" y1="351.55" x2="243.72" y2="364.17" gradientUnits="userSpaceOnUse">
<stop stop-color="#4070FF"/>
<stop offset="1" stop-color="#365FD9"/>
</linearGradient>
<linearGradient id="paint59_linear" x1="237.25" y1="351.55" x2="237.25" y2="364.17" gradientUnits="userSpaceOnUse">
<stop stop-color="#4070FF"/>
<stop offset="1" stop-color="#365FD9"/>
</linearGradient>
<linearGradient id="paint60_linear" x1="277.65" y1="351.55" x2="277.65" y2="364.17" gradientUnits="userSpaceOnUse">
<stop stop-color="#4070FF"/>
<stop offset="1" stop-color="#365FD9"/>
</linearGradient>
<linearGradient id="paint61_linear" x1="271.18" y1="351.55" x2="271.18" y2="364.17" gradientUnits="userSpaceOnUse">
<stop stop-color="#4070FF"/>
<stop offset="1" stop-color="#365FD9"/>
</linearGradient>
<linearGradient id="paint62_linear" x1="311.59" y1="351.55" x2="311.59" y2="364.17" gradientUnits="userSpaceOnUse">
<stop stop-color="#4070FF"/>
<stop offset="1" stop-color="#365FD9"/>
</linearGradient>
<linearGradient id="paint63_linear" x1="305.12" y1="351.55" x2="305.12" y2="364.17" gradientUnits="userSpaceOnUse">
<stop stop-color="#4070FF"/>
<stop offset="1" stop-color="#365FD9"/>
</linearGradient>
<linearGradient id="paint64_linear" x1="345.52" y1="351.55" x2="345.52" y2="364.17" gradientUnits="userSpaceOnUse">
<stop stop-color="#4070FF"/>
<stop offset="1" stop-color="#365FD9"/>
</linearGradient>
<linearGradient id="paint65_linear" x1="339.05" y1="351.55" x2="339.05" y2="364.17" gradientUnits="userSpaceOnUse">
<stop stop-color="#4070FF"/>
<stop offset="1" stop-color="#365FD9"/>
</linearGradient>
<linearGradient id="paint66_linear" x1="379.45" y1="351.55" x2="379.45" y2="364.17" gradientUnits="userSpaceOnUse">
<stop stop-color="#4070FF"/>
<stop offset="1" stop-color="#365FD9"/>
</linearGradient>
<linearGradient id="paint67_linear" x1="372.98" y1="351.55" x2="372.98" y2="364.17" gradientUnits="userSpaceOnUse">
<stop stop-color="#4070FF"/>
<stop offset="1" stop-color="#365FD9"/>
</linearGradient>
<linearGradient id="paint68_linear" x1="413.39" y1="351.55" x2="413.39" y2="364.17" gradientUnits="userSpaceOnUse">
<stop stop-color="#4070FF"/>
<stop offset="1" stop-color="#365FD9"/>
</linearGradient>
<linearGradient id="paint69_linear" x1="145.81" y1="338.93" x2="145.81" y2="351.55" gradientUnits="userSpaceOnUse">
<stop stop-color="#4070FF"/>
<stop offset="1" stop-color="#365FD9"/>
</linearGradient>
<linearGradient id="paint70_linear" x1="186.22" y1="338.93" x2="186.22" y2="351.55" gradientUnits="userSpaceOnUse">
<stop stop-color="#4070FF"/>
<stop offset="1" stop-color="#365FD9"/>
</linearGradient>
<linearGradient id="paint71_linear" x1="179.75" y1="338.93" x2="179.75" y2="351.55" gradientUnits="userSpaceOnUse">
<stop stop-color="#4070FF"/>
<stop offset="1" stop-color="#365FD9"/>
</linearGradient>
<linearGradient id="paint72_linear" x1="220.15" y1="338.93" x2="220.15" y2="351.55" gradientUnits="userSpaceOnUse">
<stop stop-color="#4070FF"/>
<stop offset="1" stop-color="#365FD9"/>
</linearGradient>
<linearGradient id="paint73_linear" x1="213.68" y1="338.93" x2="213.68" y2="351.55" gradientUnits="userSpaceOnUse">
<stop stop-color="#4070FF"/>
<stop offset="1" stop-color="#365FD9"/>
</linearGradient>
<linearGradient id="paint74_linear" x1="254.09" y1="338.93" x2="254.09" y2="351.55" gradientUnits="userSpaceOnUse">
<stop stop-color="#4070FF"/>
<stop offset="1" stop-color="#365FD9"/>
</linearGradient>
<linearGradient id="paint75_linear" x1="247.61" y1="338.93" x2="247.61" y2="351.55" gradientUnits="userSpaceOnUse">
<stop stop-color="#4070FF"/>
<stop offset="1" stop-color="#365FD9"/>
</linearGradient>
<linearGradient id="paint76_linear" x1="288.02" y1="338.93" x2="288.02" y2="351.55" gradientUnits="userSpaceOnUse">
<stop stop-color="#4070FF"/>
<stop offset="1" stop-color="#365FD9"/>
</linearGradient>
<linearGradient id="paint77_linear" x1="281.55" y1="338.93" x2="281.55" y2="351.55" gradientUnits="userSpaceOnUse">
<stop stop-color="#4070FF"/>
<stop offset="1" stop-color="#365FD9"/>
</linearGradient>
<linearGradient id="paint78_linear" x1="321.95" y1="338.93" x2="321.95" y2="351.55" gradientUnits="userSpaceOnUse">
<stop stop-color="#4070FF"/>
<stop offset="1" stop-color="#365FD9"/>
</linearGradient>
<linearGradient id="paint79_linear" x1="315.48" y1="338.93" x2="315.48" y2="351.55" gradientUnits="userSpaceOnUse">
<stop stop-color="#4070FF"/>
<stop offset="1" stop-color="#365FD9"/>
</linearGradient>
<linearGradient id="paint80_linear" x1="355.89" y1="338.93" x2="355.89" y2="351.55" gradientUnits="userSpaceOnUse">
<stop stop-color="#4070FF"/>
<stop offset="1" stop-color="#365FD9"/>
</linearGradient>
<linearGradient id="paint81_linear" x1="349.41" y1="338.93" x2="349.41" y2="351.55" gradientUnits="userSpaceOnUse">
<stop stop-color="#4070FF"/>
<stop offset="1" stop-color="#365FD9"/>
</linearGradient>
<linearGradient id="paint82_linear" x1="389.82" y1="338.93" x2="389.82" y2="351.55" gradientUnits="userSpaceOnUse">
<stop stop-color="#4070FF"/>
<stop offset="1" stop-color="#365FD9"/>
</linearGradient>
<linearGradient id="paint83_linear" x1="383.35" y1="338.93" x2="383.35" y2="351.55" gradientUnits="userSpaceOnUse">
<stop stop-color="#4070FF"/>
<stop offset="1" stop-color="#365FD9"/>
</linearGradient>
<linearGradient id="paint84_linear" x1="154.7" y1="326.3" x2="154.7" y2="338.93" gradientUnits="userSpaceOnUse">
<stop stop-color="#4070FF"/>
<stop offset="1" stop-color="#365FD9"/>
</linearGradient>
<linearGradient id="paint85_linear" x1="195.1" y1="326.3" x2="195.1" y2="338.93" gradientUnits="userSpaceOnUse">
<stop stop-color="#4070FF"/>
<stop offset="1" stop-color="#365FD9"/>
</linearGradient>
<linearGradient id="paint86_linear" x1="188.63" y1="326.3" x2="188.63" y2="338.93" gradientUnits="userSpaceOnUse">
<stop stop-color="#4070FF"/>
<stop offset="1" stop-color="#365FD9"/>
</linearGradient>
<linearGradient id="paint87_linear" x1="229.04" y1="326.3" x2="229.04" y2="338.93" gradientUnits="userSpaceOnUse">
<stop stop-color="#4070FF"/>
<stop offset="1" stop-color="#365FD9"/>
</linearGradient>
<linearGradient id="paint88_linear" x1="222.56" y1="326.3" x2="222.56" y2="338.93" gradientUnits="userSpaceOnUse">
<stop stop-color="#4070FF"/>
<stop offset="1" stop-color="#365FD9"/>
</linearGradient>
<linearGradient id="paint89_linear" x1="262.97" y1="326.3" x2="262.97" y2="338.93" gradientUnits="userSpaceOnUse">
<stop stop-color="#4070FF"/>
<stop offset="1" stop-color="#365FD9"/>
</linearGradient>
<linearGradient id="paint90_linear" x1="256.5" y1="326.3" x2="256.5" y2="338.93" gradientUnits="userSpaceOnUse">
<stop stop-color="#4070FF"/>
<stop offset="1" stop-color="#365FD9"/>
</linearGradient>
<linearGradient id="paint91_linear" x1="296.9" y1="326.3" x2="296.9" y2="338.93" gradientUnits="userSpaceOnUse">
<stop stop-color="#4070FF"/>
<stop offset="1" stop-color="#365FD9"/>
</linearGradient>
<linearGradient id="paint92_linear" x1="290.43" y1="326.3" x2="290.43" y2="338.93" gradientUnits="userSpaceOnUse">
<stop stop-color="#4070FF"/>
<stop offset="1" stop-color="#365FD9"/>
</linearGradient>
<linearGradient id="paint93_linear" x1="330.84" y1="326.3" x2="330.84" y2="338.93" gradientUnits="userSpaceOnUse">
<stop stop-color="#4070FF"/>
<stop offset="1" stop-color="#365FD9"/>
</linearGradient>
<linearGradient id="paint94_linear" x1="324.37" y1="326.3" x2="324.37" y2="338.93" gradientUnits="userSpaceOnUse">
<stop stop-color="#4070FF"/>
<stop offset="1" stop-color="#365FD9"/>
</linearGradient>
<linearGradient id="paint95_linear" x1="364.77" y1="326.3" x2="364.77" y2="338.93" gradientUnits="userSpaceOnUse">
<stop stop-color="#4070FF"/>
<stop offset="1" stop-color="#365FD9"/>
</linearGradient>
<linearGradient id="paint96_linear" x1="358.3" y1="326.3" x2="358.3" y2="338.93" gradientUnits="userSpaceOnUse">
<stop stop-color="#4070FF"/>
<stop offset="1" stop-color="#365FD9"/>
</linearGradient>
<linearGradient id="paint97_linear" x1="398.7" y1="326.3" x2="398.7" y2="338.93" gradientUnits="userSpaceOnUse">
<stop stop-color="#4070FF"/>
<stop offset="1" stop-color="#365FD9"/>
</linearGradient>
<linearGradient id="paint98_linear" x1="165.06" y1="313.68" x2="165.06" y2="326.3" gradientUnits="userSpaceOnUse">
<stop stop-color="#4070FF"/>
<stop offset="1" stop-color="#365FD9"/>
</linearGradient>
<linearGradient id="paint99_linear" x1="205.47" y1="313.68" x2="205.47" y2="326.3" gradientUnits="userSpaceOnUse">
<stop stop-color="#4070FF"/>
<stop offset="1" stop-color="#365FD9"/>
</linearGradient>
<linearGradient id="paint100_linear" x1="199" y1="313.68" x2="199" y2="326.3" gradientUnits="userSpaceOnUse">
<stop stop-color="#4070FF"/>
<stop offset="1" stop-color="#365FD9"/>
</linearGradient>
<linearGradient id="paint101_linear" x1="239.4" y1="313.68" x2="239.4" y2="326.3" gradientUnits="userSpaceOnUse">
<stop stop-color="#4070FF"/>
<stop offset="1" stop-color="#365FD9"/>
</linearGradient>
<linearGradient id="paint102_linear" x1="232.93" y1="313.68" x2="232.93" y2="326.3" gradientUnits="userSpaceOnUse">
<stop stop-color="#4070FF"/>
<stop offset="1" stop-color="#365FD9"/>
</linearGradient>
<linearGradient id="paint103_linear" x1="273.33" y1="313.68" x2="273.33" y2="326.3" gradientUnits="userSpaceOnUse">
<stop stop-color="#4070FF"/>
<stop offset="1" stop-color="#365FD9"/>
</linearGradient>
<linearGradient id="paint104_linear" x1="266.86" y1="313.68" x2="266.86" y2="326.3" gradientUnits="userSpaceOnUse">
<stop stop-color="#4070FF"/>
<stop offset="1" stop-color="#365FD9"/>
</linearGradient>
<linearGradient id="paint105_linear" x1="307.27" y1="313.68" x2="307.27" y2="326.3" gradientUnits="userSpaceOnUse">
<stop stop-color="#4070FF"/>
<stop offset="1" stop-color="#365FD9"/>
</linearGradient>
<linearGradient id="paint106_linear" x1="300.8" y1="313.68" x2="300.8" y2="326.3" gradientUnits="userSpaceOnUse">
<stop stop-color="#4070FF"/>
<stop offset="1" stop-color="#365FD9"/>
</linearGradient>
<linearGradient id="paint107_linear" x1="341.2" y1="313.68" x2="341.2" y2="326.3" gradientUnits="userSpaceOnUse">
<stop stop-color="#4070FF"/>
<stop offset="1" stop-color="#365FD9"/>
</linearGradient>
<linearGradient id="paint108_linear" x1="334.73" y1="313.68" x2="334.73" y2="326.3" gradientUnits="userSpaceOnUse">
<stop stop-color="#4070FF"/>
<stop offset="1" stop-color="#365FD9"/>
</linearGradient>
<linearGradient id="paint109_linear" x1="375.13" y1="313.68" x2="375.13" y2="326.3" gradientUnits="userSpaceOnUse">
<stop stop-color="#4070FF"/>
<stop offset="1" stop-color="#365FD9"/>
</linearGradient>
<linearGradient id="paint110_linear" x1="368.66" y1="313.68" x2="368.66" y2="326.3" gradientUnits="userSpaceOnUse">
<stop stop-color="#4070FF"/>
<stop offset="1" stop-color="#365FD9"/>
</linearGradient>
<linearGradient id="paint111_linear" x1="409.07" y1="313.68" x2="409.07" y2="326.3" gradientUnits="userSpaceOnUse">
<stop stop-color="#4070FF"/>
<stop offset="1" stop-color="#365FD9"/>
</linearGradient>
<linearGradient id="paint112_linear" x1="243.07" y1="157.567" x2="243.07" y2="178.16" gradientUnits="userSpaceOnUse">
<stop stop-color="#4070FF"/>
<stop offset="1" stop-color="#365FD9"/>
</linearGradient>
<linearGradient id="paint113_linear" x1="234.865" y1="157.41" x2="234.865" y2="223.79" gradientUnits="userSpaceOnUse">
<stop stop-color="#4070FF"/>
<stop offset="1" stop-color="#365FD9"/>
</linearGradient>
<linearGradient id="paint114_linear" x1="198.873" y1="159.193" x2="198.873" y2="192.46" gradientUnits="userSpaceOnUse">
<stop stop-color="#4070FF"/>
<stop offset="1" stop-color="#365FD9"/>
</linearGradient>
<linearGradient id="paint115_linear" x1="210.886" y1="410.932" x2="210.886" y2="412.799" gradientUnits="userSpaceOnUse">
<stop stop-color="#4070FF"/>
<stop offset="1" stop-color="#365FD9"/>
</linearGradient>
<linearGradient id="paint116_linear" x1="209.078" y1="409.213" x2="209.078" y2="412.538" gradientUnits="userSpaceOnUse">
<stop stop-color="#4070FF"/>
<stop offset="1" stop-color="#365FD9"/>
</linearGradient>
<linearGradient id="paint117_linear" x1="211.23" y1="396.89" x2="211.23" y2="402.04" gradientUnits="userSpaceOnUse">
<stop stop-color="#4070FF"/>
<stop offset="1" stop-color="#365FD9"/>
</linearGradient>
<linearGradient id="paint118_linear" x1="274.33" y1="376.55" x2="274.33" y2="384.28" gradientUnits="userSpaceOnUse">
<stop stop-color="#4070FF"/>
<stop offset="1" stop-color="#365FD9"/>
</linearGradient>
<linearGradient id="paint119_linear" x1="276.237" y1="391.825" x2="276.237" y2="393.612" gradientUnits="userSpaceOnUse">
<stop stop-color="#4070FF"/>
<stop offset="1" stop-color="#365FD9"/>
</linearGradient>
<linearGradient id="paint120_linear" x1="274.731" y1="389.856" x2="274.731" y2="393.007" gradientUnits="userSpaceOnUse">
<stop stop-color="#4070FF"/>
<stop offset="1" stop-color="#365FD9"/>
</linearGradient>
<linearGradient id="paint121_linear" x1="348.65" y1="112.41" x2="348.65" y2="388.67" gradientUnits="userSpaceOnUse">
<stop stop-color="#4070FF"/>
<stop offset="1" stop-color="#365FD9"/>
</linearGradient>
<linearGradient id="paint122_linear" x1="400.82" y1="112.41" x2="400.82" y2="388.67" gradientUnits="userSpaceOnUse">
<stop stop-color="#4070FF"/>
<stop offset="1" stop-color="#365FD9"/>
</linearGradient>
</defs>
</svg>
