<svg width="500" height="500" viewBox="0 0 500 500" fill="none" xmlns="http://www.w3.org/2000/svg">
<path opacity="0.1" d="M72.4401 151.15C83.3801 126.43 107.74 110.09 138.74 105.89C169.21 101.75 191.58 130.19 225.44 143.3C252.92 153.95 279.66 151.97 307.05 161.64C333.18 170.87 358.55 188.7 376.05 211.42C398.87 241.02 402.63 270.62 398.93 298.56C396.64 315.85 392.93 332.12 383.8 345.67C363.53 375.67 322.64 383.74 277.28 363.11C260 355.22 243.38 344.62 227 333.9C186.27 307.2 146.07 279.48 105.65 252.21C98.3601 247.29 90.9301 242.21 84.9401 235.87C75.2201 225.48 70.3801 212.66 68.0001 200.74C64.3401 182 66.2201 165.2 72.4401 151.15Z" fill="url(#paint0_linear)"/>
<path opacity="0.1" d="M250 444.56C357.083 444.56 443.89 439.492 443.89 433.24C443.89 426.988 357.083 421.92 250 421.92C142.918 421.92 56.1101 426.988 56.1101 433.24C56.1101 439.492 142.918 444.56 250 444.56Z" fill="url(#paint1_linear)"/>
<path d="M284.62 135.79C278.62 127.67 280.01 120.58 284.62 115.48C290.37 109.08 299.76 109.13 306.02 112.4C315.82 117.51 317.93 139.9 301.56 143.06C295.752 141.032 290.091 138.603 284.62 135.79Z" fill="#263238"/>
<path d="M304.11 113.81C310.11 110.28 308.44 103.43 313.86 99.81C321.4 94.81 337.65 96.98 332.57 109.48C327.49 121.98 345.57 122.7 340.32 135.12C335.07 147.54 319.82 155.12 315.9 137.12C312.97 123.63 325.42 106.25 315.37 108.12C309.1 109.28 307.01 115.73 307.01 115.73L304.11 113.81Z" fill="#263238"/>
<path d="M289.2 166.75C288.38 169.02 287.49 171.08 286.54 173.21C285.59 175.34 284.54 177.39 283.44 179.44C281.226 183.742 278.444 187.728 275.17 191.29C274.234 192.287 273.206 193.195 272.1 194C271.006 194.776 269.841 195.446 268.62 196C266.371 197.006 264.025 197.784 261.62 198.32C257.063 199.372 252.397 199.879 247.72 199.83C247.195 199.821 246.692 199.623 246.302 199.271C245.912 198.92 245.663 198.439 245.601 197.918C245.539 197.396 245.668 196.87 245.963 196.437C246.259 196.003 246.702 195.692 247.21 195.56H247.31C251.494 194.582 255.612 193.343 259.64 191.85C261.534 191.144 263.367 190.285 265.12 189.28C265.901 188.832 266.644 188.321 267.34 187.75C268.014 187.186 268.636 186.564 269.2 185.89C270.488 184.368 271.649 182.742 272.67 181.03C273.75 179.26 274.79 177.43 275.75 175.52C277.65 171.74 279.45 167.7 281 163.82V163.76C281.411 162.682 282.234 161.811 283.287 161.34C284.34 160.868 285.537 160.834 286.615 161.245C287.693 161.656 288.564 162.479 289.036 163.532C289.507 164.585 289.541 165.782 289.13 166.86L289.2 166.75Z" fill="#B55B52"/>
<path d="M287.9 159.35C279.64 160.29 275.09 172.68 275.09 172.68L283.55 184.6C283.55 184.6 293.55 173.27 294.42 168.21C295.29 163 294 158.64 287.9 159.35Z" fill="#263238"/>
<path opacity="0.2" d="M283.38 166.93C286.15 165.19 289.17 166.15 291.74 169.38C292.272 170.307 292.628 171.324 292.79 172.38C290.29 176.91 283.54 184.59 283.54 184.59L279.67 179.14C279.38 175.92 281.59 168 283.38 166.93Z" fill="black"/>
<path d="M249.23 196L243 192.64L242.83 200.76C242.83 200.76 246.99 201.66 249.74 199.44L249.23 196Z" fill="#B55B52"/>
<path d="M236.75 192.92L237.84 199.55L242.87 200.76L243.04 192.64L236.75 192.92Z" fill="#B55B52"/>
<path d="M268.15 178.31L262.69 173.83L225.49 229.72L231 234.2C237.28 239.34 250.69 231 261 215.56C271.31 200.12 274.43 183.45 268.15 178.31Z" fill="url(#paint2_linear)"/>
<path opacity="0.1" d="M268.15 178.31L262.69 173.83L225.49 229.72L231 234.2C237.28 239.34 250.69 231 261 215.56C271.31 200.12 274.43 183.45 268.15 178.31Z" fill="black"/>
<path d="M256.433 209.583C266.358 193.897 268.879 177.686 262.065 173.375C255.251 169.064 241.681 178.285 231.757 193.972C221.833 209.658 219.312 225.87 226.126 230.181C232.94 234.492 246.509 225.27 256.433 209.583Z" fill="url(#paint3_linear)"/>
<path d="M237.19 210.94L242.19 203.4C241.682 201.854 241.658 200.19 242.12 198.63C242.693 196.663 243.581 194.802 244.75 193.12C245.805 191.42 247.184 189.945 248.81 188.78C250.2 187.86 251.39 187.64 252.36 188.12L253.58 186.3L254.64 187.17L253.44 189C253.766 189.509 253.984 190.08 254.08 190.677C254.176 191.274 254.149 191.884 254 192.47C253.611 194.235 252.935 195.924 252 197.47L249.75 196.55C250.45 195.483 250.8 194.225 250.75 192.95L246.06 199.95C246.706 201.536 246.839 203.284 246.44 204.95C245.166 208.947 242.729 212.474 239.44 215.08C237.92 216.133 236.57 216.437 235.39 215.99L234.18 217.81L233.12 216.94L234.27 215.21C233.912 214.615 233.682 213.952 233.594 213.264C233.506 212.575 233.563 211.876 233.76 211.21C234.301 208.98 235.192 206.85 236.4 204.9L238.7 206C238.191 206.899 237.781 207.851 237.48 208.84C237.263 209.518 237.165 210.228 237.19 210.94ZM249.77 192C249.213 192.055 248.687 192.286 248.27 192.66C247.11 193.619 246.252 194.894 245.8 196.33C245.594 196.941 245.535 197.592 245.63 198.23L249.77 192ZM238.09 212C238.397 212.047 238.711 212.024 239.009 211.934C239.306 211.844 239.58 211.689 239.81 211.48C241.24 210.366 242.288 208.836 242.81 207.1C243.01 206.405 242.992 205.665 242.76 204.98L238.09 212Z" fill="white"/>
<path opacity="0.1" d="M261.05 192.38C261.79 187.48 261.05 183.55 258.73 181.62C253.62 177.43 242.73 184.23 234.32 196.8C230.785 201.977 228.176 207.73 226.61 213.8C227.47 208.06 230.32 200.99 234.83 194.2C243.2 181.63 254.13 174.84 259.24 179.02C262 181.27 262.5 186.28 261.05 192.38Z" fill="black"/>
<path d="M333.55 378.81L325.15 379.61L320.87 360.04L329.27 359.24L333.55 378.81Z" fill="#B55B52"/>
<path d="M380.34 366.71L372.53 369.77L365 351.21L372.81 348.15L380.34 366.71Z" fill="#B55B52"/>
<path d="M370.26 365.93L378.82 361.67C378.968 361.597 379.136 361.579 379.296 361.619C379.455 361.66 379.595 361.756 379.69 361.89L384.03 368.18C384.14 368.343 384.214 368.527 384.246 368.721C384.278 368.915 384.268 369.114 384.217 369.303C384.166 369.493 384.074 369.669 383.949 369.821C383.824 369.972 383.667 370.094 383.49 370.18C380.49 371.62 379.17 372.33 375.4 374.18C373.08 375.33 367.91 378.04 364.71 379.63C361.51 381.22 359.77 378.14 360.96 377.19C366.29 372.94 368.05 369.73 369.22 367.04C369.426 366.559 369.794 366.167 370.26 365.93Z" fill="#263238"/>
<path d="M323.51 375.25H333.61C333.791 375.251 333.966 375.311 334.109 375.421C334.251 375.531 334.354 375.686 334.4 375.86L336.6 383.86C336.655 384.049 336.665 384.248 336.629 384.441C336.592 384.634 336.511 384.816 336.391 384.972C336.271 385.128 336.116 385.253 335.939 385.338C335.762 385.423 335.567 385.465 335.37 385.46C331.84 385.4 330.15 385.46 325.71 385.46H312.15C308.46 385.46 307.65 381.72 309.15 381.39C316 379.87 319.95 377.78 322.06 375.79C322.455 375.428 322.975 375.235 323.51 375.25Z" fill="#263238"/>
<path opacity="0.2" d="M320.88 360.05L323.08 370.13H331.66L329.28 359.24L320.88 360.05Z" fill="black"/>
<path opacity="0.2" d="M372.81 348.16L365 351.22L368.89 360.78L376.69 357.72L372.81 348.16Z" fill="black"/>
<path d="M313.54 150.9C320.22 150.13 324.54 153.31 324.84 159.98C325.72 183.49 328.32 188.9 332.25 201.06L298.94 210.33C287.1 184.69 282.94 172.6 281.62 166.91C281.346 165.588 281.512 164.212 282.093 162.993C282.675 161.774 283.64 160.779 284.84 160.16C293.707 155.221 303.459 152.075 313.54 150.9Z" fill="#263238"/>
<path d="M303.41 135.14C303.81 140.27 305.14 149.14 309.41 151.49C309.41 151.49 308.78 154.66 297.74 165.23C290.93 159.49 294.41 155.64 294.41 155.64C299.48 152.83 298.29 149.17 296.29 145.64L303.41 135.14Z" fill="#B55B52"/>
<path opacity="0.2" d="M302.64 136.29C303.369 139.205 303.471 142.242 302.94 145.2C302.56 147.2 300.38 148.72 297.94 149.59C297.607 148.201 297.061 146.871 296.32 145.65L302.64 136.29Z" fill="black"/>
<path d="M305.37 125.45C307 133.74 307.87 137.21 304.85 142.45C300.3 150.37 289.76 150.57 285.68 142.93C282.01 136.06 279.95 123.66 287.09 118.32C288.66 117.137 290.507 116.375 292.455 116.106C294.403 115.838 296.387 116.072 298.219 116.786C300.051 117.501 301.669 118.672 302.921 120.188C304.173 121.705 305.016 123.516 305.37 125.45Z" fill="#B55B52"/>
<path d="M309.7 130.5C309.822 131.299 309.784 132.115 309.588 132.899C309.392 133.684 309.043 134.422 308.56 135.07C307.26 136.8 305.3 135.96 304.56 134.07C303.9 132.35 303.77 129.37 305.61 128.33C306.013 128.109 306.464 127.992 306.923 127.989C307.382 127.986 307.835 128.097 308.24 128.312C308.646 128.527 308.992 128.84 309.247 129.222C309.501 129.604 309.657 130.043 309.7 130.5Z" fill="#B55B52"/>
<path d="M298.1 121.06C297.79 124.23 300.33 129.65 305.1 130.91C310.04 125.23 306.78 117.44 302.24 117.28C297.7 117.12 298.1 121.06 298.1 121.06Z" fill="#263238"/>
<path d="M291.44 112.42C284.15 112.75 276.33 116 279.04 127.42C285.4 126.09 303.1 124.11 304.46 119.57C302.67 113.74 296.22 112.2 291.44 112.42Z" fill="#263238"/>
<path d="M298.94 210.33C298.94 210.33 297 277.61 302.41 303C308.02 329.42 320.69 367.18 320.69 367.18L332.59 366.41C332.59 366.41 324.9 317.04 322.59 296.67C319.33 268.59 323.38 203.52 323.38 203.52L298.94 210.33Z" fill="url(#paint4_linear)"/>
<path opacity="0.2" d="M315.7 231.37C316.24 225.27 320.84 226.44 321.87 234.7C321.42 247.7 321.1 262.79 321.36 276C316.4 266.31 314.47 245.25 315.7 231.37Z" fill="black"/>
<path d="M334.1 367.18L319.77 368.15L317.78 361.43L333.29 359.79L334.1 367.18Z" fill="#263238"/>
<path d="M310.69 207.06C310.69 207.06 320.83 263.46 334.6 293.81C345.72 318.32 365.87 357.81 365.87 357.81L376.8 353.72C376.8 353.72 359.71 308.89 353.53 291.65C338.14 248.65 346.53 222.55 332.25 201.06L310.69 207.06Z" fill="url(#paint5_linear)"/>
<path d="M378.09 354.76L365.48 359.15L361.89 352.69L376.9 348.97L378.09 354.76Z" fill="#263238"/>
<path d="M332.2 199L334.54 201.57C334.72 201.77 334.54 202.08 334.12 202.18L299.19 211.91C298.89 211.99 298.6 211.91 298.53 211.73L297.4 208.83C297.32 208.63 297.53 208.38 297.86 208.29L331.59 198.9C331.691 198.861 331.801 198.849 331.909 198.867C332.016 198.885 332.117 198.93 332.2 199Z" fill="#263238"/>
<path d="M328.72 204L329.63 203.74C329.81 203.69 329.92 203.56 329.87 203.45L328.37 199.7C328.37 199.59 328.15 199.54 327.97 199.59L327.06 199.84C326.88 199.84 326.77 200.02 326.81 200.13L328.32 203.89C328.36 204 328.54 204.05 328.72 204Z" fill="url(#paint6_linear)"/>
<path d="M301.82 211.48L302.73 211.23C302.9 211.23 303.02 211.05 302.97 210.94L301.47 207.19C301.47 207.08 301.24 207.03 301.06 207.08L300.16 207.33C299.98 207.33 299.87 207.51 299.91 207.62L301.41 211.38C301.46 211.49 301.64 211.53 301.82 211.48Z" fill="url(#paint7_linear)"/>
<path d="M315.27 207.74L316.18 207.49C316.36 207.44 316.47 207.31 316.42 207.2L314.92 203.44C314.92 203.33 314.69 203.28 314.51 203.33L313.61 203.58C313.43 203.58 313.32 203.77 313.36 203.88L314.87 207.63C314.91 207.74 315.09 207.79 315.27 207.74Z" fill="url(#paint8_linear)"/>
<path d="M293.59 131C293.76 131.67 293.59 132.3 293.12 132.41C292.65 132.52 292.19 132.08 292.02 131.41C291.85 130.74 292.02 130.12 292.49 130C292.96 129.88 293.42 130.31 293.59 131Z" fill="#263238"/>
<path d="M286.08 132.94C286.26 133.6 286.08 134.23 285.61 134.35C285.14 134.47 284.68 134.01 284.51 133.35C284.34 132.69 284.51 132.05 284.98 131.94C285.45 131.83 285.91 132.27 286.08 132.94Z" fill="#263238"/>
<path d="M285.18 131.93L283.47 131.88C283.47 131.88 284.61 132.92 285.18 131.93Z" fill="#263238"/>
<path d="M288.37 133.56C288.174 135.23 287.75 136.865 287.11 138.42C287.511 138.574 287.942 138.637 288.37 138.606C288.799 138.575 289.215 138.45 289.59 138.24L288.37 133.56Z" fill="#A02724"/>
<path d="M292.53 140.25C292.492 140.243 292.456 140.225 292.428 140.199C292.399 140.172 292.379 140.138 292.37 140.1C292.363 140.075 292.36 140.049 292.363 140.023C292.366 139.997 292.375 139.972 292.388 139.95C292.401 139.927 292.419 139.907 292.44 139.892C292.461 139.877 292.485 139.866 292.51 139.86C293.342 139.663 294.115 139.272 294.766 138.72C295.418 138.167 295.93 137.468 296.26 136.68C296.268 136.654 296.281 136.63 296.299 136.609C296.316 136.588 296.338 136.571 296.362 136.559C296.386 136.547 296.413 136.54 296.44 136.538C296.467 136.537 296.495 136.541 296.52 136.55C296.569 136.568 296.609 136.604 296.633 136.65C296.657 136.696 296.663 136.75 296.65 136.8C296.306 137.652 295.763 138.409 295.067 139.009C294.372 139.609 293.543 140.034 292.65 140.25C292.611 140.262 292.569 140.262 292.53 140.25Z" fill="#263238"/>
<path d="M295.06 128C294.989 127.991 294.922 127.959 294.87 127.91C294.482 127.585 294.022 127.357 293.528 127.246C293.034 127.135 292.52 127.143 292.03 127.27C291.928 127.302 291.817 127.292 291.722 127.244C291.627 127.195 291.554 127.111 291.52 127.01C291.501 126.96 291.493 126.907 291.496 126.854C291.498 126.801 291.512 126.749 291.535 126.701C291.558 126.653 291.591 126.611 291.632 126.576C291.672 126.542 291.719 126.516 291.77 126.5C292.389 126.332 293.039 126.315 293.665 126.451C294.292 126.587 294.876 126.871 295.37 127.28C295.437 127.337 295.484 127.414 295.504 127.499C295.524 127.584 295.516 127.674 295.481 127.755C295.446 127.835 295.387 127.902 295.311 127.947C295.235 127.991 295.147 128.01 295.06 128Z" fill="#263238"/>
<path d="M281.61 130.38H281.53C281.48 130.363 281.434 130.336 281.394 130.302C281.355 130.267 281.322 130.224 281.299 130.177C281.276 130.13 281.262 130.078 281.259 130.025C281.256 129.973 281.263 129.92 281.28 129.87C281.475 129.259 281.814 128.704 282.268 128.252C282.722 127.799 283.279 127.462 283.89 127.27C283.941 127.256 283.995 127.253 284.047 127.261C284.1 127.268 284.15 127.286 284.196 127.312C284.241 127.339 284.281 127.375 284.313 127.418C284.344 127.46 284.367 127.509 284.38 127.56C284.404 127.665 284.386 127.775 284.33 127.866C284.274 127.958 284.184 128.024 284.08 128.05C283.605 128.212 283.176 128.486 282.828 128.847C282.48 129.209 282.224 129.649 282.08 130.13C282.046 130.222 281.979 130.298 281.893 130.344C281.806 130.391 281.705 130.403 281.61 130.38Z" fill="#263238"/>
<path d="M320.75 166.64C318.15 172 315.45 177.26 312.6 182.49C311.18 185.11 309.76 187.73 308.25 190.31C306.74 192.89 305.25 195.48 303.46 198.07C303.05 198.71 302.54 199.39 302.06 200.07L301.88 200.31L301.79 200.44L301.64 200.63C301.43 200.89 301.22 201.11 301.01 201.33C300.628 201.717 300.217 202.075 299.78 202.4C298.34 203.453 296.775 204.323 295.12 204.99C292.2 206.169 289.191 207.112 286.12 207.81C280.242 209.169 274.273 210.101 268.26 210.6L267.58 206.34C270.37 205.6 273.21 204.82 276 204.01C278.79 203.2 281.56 202.34 284.26 201.4C286.889 200.514 289.458 199.459 291.95 198.24C293.001 197.722 293.99 197.088 294.9 196.35C295.049 196.226 295.186 196.089 295.31 195.94C295.346 195.895 295.38 195.849 295.41 195.8L295.63 195.46C295.98 194.91 296.34 194.39 296.7 193.77C298.12 191.38 299.52 188.82 300.88 186.26L304.93 178.49L312.93 162.81L320.75 166.64Z" fill="#B55B52"/>
<path d="M270.32 206.38L264.43 204.12L264.93 212.43C264.93 212.43 269.56 212.43 271.7 209.58L270.32 206.38Z" fill="#B55B52"/>
<path d="M259.8 204.36L258.54 210.47L264.93 212.43L264.43 204.12L259.8 204.36Z" fill="#B55B52"/>
<path d="M313.5 155.2C310.21 156.71 306.39 170.38 306.39 170.38L320.64 172C320.64 172 323.4 165.36 322.84 161.95C322 156.5 317.25 153.48 313.5 155.2Z" fill="#263238"/>
<path d="M366 368.37C365.945 368.276 365.901 368.175 365.87 368.07C365.824 367.958 365.809 367.836 365.826 367.716C365.844 367.596 365.894 367.484 365.97 367.39C366.66 366.55 369.72 366.89 370.06 366.93C370.099 366.933 370.137 366.948 370.167 366.973C370.198 366.998 370.22 367.032 370.23 367.07C370.243 367.107 370.244 367.147 370.233 367.184C370.223 367.222 370.201 367.255 370.17 367.28C369.3 368.01 367.68 369.18 366.64 368.88C366.504 368.845 366.376 368.781 366.266 368.693C366.155 368.606 366.065 368.495 366 368.37ZM369.53 367.28C368.3 367.18 366.65 367.2 366.28 367.64C366.252 367.687 366.237 367.74 366.237 367.795C366.237 367.85 366.252 367.903 366.28 367.95C366.309 368.077 366.371 368.194 366.458 368.29C366.546 368.387 366.657 368.459 366.78 368.5C367.33 368.66 368.35 368.21 369.55 367.28H369.53Z" fill="url(#paint9_linear)"/>
<path d="M366.75 365.61C366.712 365.537 366.681 365.46 366.66 365.38C366.619 365.225 366.63 365.061 366.694 364.914C366.758 364.767 366.869 364.646 367.01 364.57C367.14 364.485 367.287 364.429 367.441 364.407C367.594 364.385 367.751 364.396 367.9 364.44C369.09 364.76 370.19 366.95 370.24 367.04C370.258 367.07 370.267 367.105 370.267 367.14C370.267 367.175 370.258 367.21 370.24 367.24C370.22 367.269 370.193 367.292 370.162 367.308C370.13 367.324 370.095 367.331 370.06 367.33C368.788 367.167 367.615 366.558 366.75 365.61ZM369.66 366.82C369.25 366.1 368.49 365.01 367.79 364.82C367.698 364.79 367.601 364.782 367.506 364.796C367.41 364.81 367.32 364.846 367.24 364.9C367.02 365.04 367.02 365.17 367.05 365.26C367.2 365.84 368.68 366.65 369.69 366.86L369.66 366.82Z" fill="url(#paint10_linear)"/>
<path d="M319 376.91C318.301 376.967 317.601 376.802 317 376.44C316.842 376.326 316.713 376.175 316.624 376.002C316.536 375.828 316.49 375.635 316.49 375.44C316.476 375.334 316.492 375.226 316.536 375.129C316.58 375.032 316.651 374.949 316.74 374.89C317.65 374.27 321.09 375.83 321.74 376.15C321.779 376.168 321.812 376.198 321.833 376.236C321.855 376.274 321.864 376.317 321.86 376.36C321.855 376.401 321.836 376.44 321.808 376.471C321.779 376.501 321.741 376.522 321.7 376.53C320.816 376.751 319.911 376.878 319 376.91ZM317.39 375.17C317.251 375.162 317.112 375.193 316.99 375.26C316.99 375.26 316.91 375.33 316.92 375.45C316.923 375.581 316.956 375.71 317.017 375.826C317.077 375.942 317.164 376.043 317.27 376.12C317.86 376.57 319.27 376.63 321.07 376.29C319.918 375.732 318.687 375.354 317.42 375.17H317.39Z" fill="url(#paint11_linear)"/>
<path d="M321.75 376.57H321.67C320.53 376.11 318.23 374.26 318.36 373.31C318.36 373.1 318.53 372.84 319.05 372.78C321.05 372.54 321.91 376.19 321.95 376.34C321.956 376.377 321.953 376.414 321.941 376.449C321.929 376.484 321.908 376.515 321.88 376.54C321.841 376.564 321.796 376.574 321.75 376.57ZM319.24 373.15H319.1C318.89 373.15 318.78 373.24 318.76 373.34C318.69 373.89 320.28 375.34 321.44 375.98C321.17 375.11 320.45 373.15 319.24 373.15Z" fill="url(#paint12_linear)"/>
<path d="M292.69 130H290.97C290.97 130 292.12 131 292.69 130Z" fill="#263238"/>
<path d="M296.62 385.47H351.34C351.717 385.47 352.078 385.62 352.344 385.886C352.611 386.152 352.76 386.513 352.76 386.89V391.51H295.21V386.89C295.21 386.515 295.358 386.155 295.622 385.889C295.887 385.623 296.245 385.473 296.62 385.47Z" fill="#263238"/>
<path d="M353.25 406.8H295.7V412.83H353.25V406.8Z" fill="#263238"/>
<path opacity="0.5" d="M353.25 406.8H315.2V412.83H353.25V406.8Z" fill="black"/>
<path d="M320.74 391.5L314.27 432C314.216 432.333 314.046 432.636 313.789 432.856C313.533 433.075 313.208 433.197 312.87 433.2H309.7C309.495 433.2 309.293 433.155 309.107 433.069C308.921 432.983 308.756 432.858 308.623 432.702C308.49 432.546 308.392 432.363 308.337 432.166C308.281 431.969 308.268 431.762 308.3 431.56L314.71 391.46L320.74 391.5Z" fill="#263238"/>
<path opacity="0.5" d="M320.74 391.5L320.25 394.58H314.21L314.71 391.5H320.74Z" fill="black"/>
<path d="M301.24 391.5L294.77 432C294.716 432.333 294.546 432.636 294.289 432.856C294.033 433.075 293.708 433.197 293.37 433.2H290.2C289.995 433.2 289.793 433.155 289.607 433.069C289.421 432.983 289.256 432.858 289.123 432.702C288.99 432.546 288.892 432.363 288.837 432.166C288.781 431.969 288.768 431.762 288.8 431.56L295.21 391.46L301.24 391.5Z" fill="#263238"/>
<path d="M359.16 431.6L352.76 391.5H346.76L353.2 432C353.252 432.334 353.422 432.638 353.679 432.858C353.935 433.078 354.262 433.199 354.6 433.2H357.76C357.961 433.199 358.159 433.155 358.342 433.071C358.525 432.988 358.688 432.866 358.82 432.715C358.953 432.564 359.051 432.386 359.11 432.194C359.168 432.002 359.186 431.799 359.16 431.6Z" fill="#263238"/>
<path opacity="0.5" d="M353.25 394.58L352.76 391.5H346.72L347.21 394.58H353.25Z" fill="black"/>
<path d="M339.66 431.6L333.26 391.5H327.26L333.7 432C333.752 432.334 333.922 432.638 334.179 432.858C334.435 433.078 334.762 433.199 335.1 433.2H338.26C338.461 433.199 338.659 433.155 338.842 433.071C339.025 432.988 339.188 432.866 339.32 432.715C339.453 432.564 339.551 432.386 339.61 432.194C339.668 432.002 339.686 431.799 339.66 431.6Z" fill="#263238"/>
<path opacity="0.5" d="M339.66 431.6L333.26 391.5H327.26L333.7 432C333.752 432.334 333.922 432.638 334.179 432.858C334.435 433.078 334.762 433.199 335.1 433.2H338.26C338.461 433.199 338.659 433.155 338.842 433.071C339.025 432.988 339.188 432.866 339.32 432.715C339.453 432.564 339.551 432.386 339.61 432.194C339.668 432.002 339.686 431.799 339.66 431.6Z" fill="black"/>
<path opacity="0.5" d="M314.71 385.47H351.34C351.717 385.47 352.078 385.62 352.344 385.886C352.611 386.152 352.76 386.513 352.76 386.89V391.51H314.76V385.51L314.71 385.47Z" fill="black"/>
<path d="M145.78 427.73L153.79 413.03L125.14 387.92L122.9 427.73H145.78Z" fill="url(#paint13_linear)"/>
<path opacity="0.1" d="M145.78 427.73L153.79 413.03L125.14 387.92L122.9 427.73H145.78Z" fill="black"/>
<path d="M244.52 260.22C260.59 249.22 274.05 250.35 278.52 253.56C282.99 256.77 268.79 281.15 268.79 281.15C263.48 279.607 258.564 276.94 254.376 273.328C250.188 269.717 246.827 265.246 244.52 260.22Z" fill="url(#paint14_linear)"/>
<path opacity="0.2" d="M252.17 271.27C261.22 262.38 270.45 259.53 272.95 261.02C275.45 262.51 267.42 279.65 267.42 279.65C267.42 279.65 256.57 281.21 252.17 271.27Z" fill="black"/>
<path d="M104.89 294.7L103.98 294.24C106.492 289.296 109.448 284.59 112.81 280.18L113.62 280.8C110.3 285.163 107.379 289.815 104.89 294.7Z" fill="url(#paint15_linear)"/>
<path d="M100.13 306L99.1301 305.67C99.8901 303.44 100.75 301.21 101.69 299.05L102.63 299.46C101.73 301.58 100.88 303.78 100.13 306Z" fill="url(#paint16_linear)"/>
<path d="M287.11 333.75C287.11 383.4 249.73 423.64 195.77 423.64C141.81 423.64 98.0701 383.4 98.0701 333.75C98.0701 284.1 141.81 243.86 195.77 243.86C249.73 243.86 287.11 284.1 287.11 333.75Z" fill="url(#paint17_linear)"/>
<path opacity="0.1" d="M182.75 414.12L178.84 422.3C181.667 422.76 184.537 423.093 187.45 423.3L182.75 414.12Z" fill="black"/>
<path d="M176.83 433.24L188.07 413.03L152.12 399.89L147.52 433.24H176.83Z" fill="url(#paint18_linear)"/>
<path d="M229.19 433.24L219.45 413.03L253.68 399.89L255.95 433.24H229.19Z" fill="url(#paint19_linear)"/>
<path opacity="0.2" d="M253.78 346.74C253.78 360.18 241.9 371.07 227.29 371.07C212.68 371.07 200.85 360.18 200.85 346.74C200.85 333.3 212.69 322.41 227.29 322.41C241.89 322.41 253.78 333.3 253.78 346.74Z" fill="black"/>
<path opacity="0.2" d="M218.51 354.7C220.99 354.7 223 350.957 223 346.34C223 341.723 220.99 337.98 218.51 337.98C216.03 337.98 214.02 341.723 214.02 346.34C214.02 350.957 216.03 354.7 218.51 354.7Z" fill="black"/>
<path opacity="0.4" d="M186.4 301.36C187.69 305.29 186.5 309.58 183.75 310.93C181 312.28 177.75 310.18 176.43 306.25C175.11 302.32 176.32 298.03 179.07 296.68C181.82 295.33 185.11 297.42 186.4 301.36Z" fill="black"/>
<path opacity="0.4" d="M256 301.54C255 305.47 256.23 309.71 258.71 311C261.19 312.29 263.99 310.15 264.97 306.21C265.95 302.27 264.74 298.04 262.26 296.75C259.78 295.46 257 297.6 256 301.54Z" fill="black"/>
<path opacity="0.2" d="M242.4 354.7C244.88 354.7 246.89 350.957 246.89 346.34C246.89 341.723 244.88 337.98 242.4 337.98C239.92 337.98 237.91 341.723 237.91 346.34C237.91 350.957 239.92 354.7 242.4 354.7Z" fill="black"/>
<path d="M167.21 259.4C149.8 244.98 134.21 243.86 128.83 246.48C123.45 249.1 137.44 277.37 137.44 277.37C137.44 277.37 156.54 276.25 167.21 259.4Z" fill="url(#paint20_linear)"/>
<path opacity="0.2" d="M157.41 269.78C147.86 258.78 137.54 254.2 134.53 255.34C131.52 256.48 139.15 276 139.15 276C139.15 276 151.45 279.54 157.41 269.78Z" fill="black"/>
<path opacity="0.4" d="M202.37 251.68H217.08C217.08 251.68 213.88 248.16 203.02 247.09C196.87 246.59 190.68 246.927 184.62 248.09C184.62 248.09 196.74 247.82 202.37 251.68Z" fill="black"/>
<defs>
<linearGradient id="paint0_linear" x1="400.167" y1="105.482" x2="400.167" y2="374.568" gradientUnits="userSpaceOnUse">
<stop stop-color="#4070FF"/>
<stop offset="1" stop-color="#365FD9"/>
</linearGradient>
<linearGradient id="paint1_linear" x1="443.89" y1="421.92" x2="443.89" y2="444.56" gradientUnits="userSpaceOnUse">
<stop stop-color="#4070FF"/>
<stop offset="1" stop-color="#365FD9"/>
</linearGradient>
<linearGradient id="paint2_linear" x1="271.384" y1="173.83" x2="271.384" y2="235.717" gradientUnits="userSpaceOnUse">
<stop stop-color="#4070FF"/>
<stop offset="1" stop-color="#365FD9"/>
</linearGradient>
<linearGradient id="paint3_linear" x1="249.727" y1="165.569" x2="274.403" y2="181.18" gradientUnits="userSpaceOnUse">
<stop stop-color="#4070FF"/>
<stop offset="1" stop-color="#365FD9"/>
</linearGradient>
<linearGradient id="paint4_linear" x1="332.59" y1="203.52" x2="332.59" y2="367.18" gradientUnits="userSpaceOnUse">
<stop stop-color="#4070FF"/>
<stop offset="1" stop-color="#365FD9"/>
</linearGradient>
<linearGradient id="paint5_linear" x1="376.8" y1="201.06" x2="376.8" y2="357.81" gradientUnits="userSpaceOnUse">
<stop stop-color="#4070FF"/>
<stop offset="1" stop-color="#365FD9"/>
</linearGradient>
<linearGradient id="paint6_linear" x1="329.882" y1="199.571" x2="329.882" y2="204.019" gradientUnits="userSpaceOnUse">
<stop stop-color="#4070FF"/>
<stop offset="1" stop-color="#365FD9"/>
</linearGradient>
<linearGradient id="paint7_linear" x1="302.982" y1="207.061" x2="302.982" y2="211.501" gradientUnits="userSpaceOnUse">
<stop stop-color="#4070FF"/>
<stop offset="1" stop-color="#365FD9"/>
</linearGradient>
<linearGradient id="paint8_linear" x1="316.432" y1="203.311" x2="316.432" y2="207.759" gradientUnits="userSpaceOnUse">
<stop stop-color="#4070FF"/>
<stop offset="1" stop-color="#365FD9"/>
</linearGradient>
<linearGradient id="paint9_linear" x1="370.241" y1="366.828" x2="370.241" y2="368.928" gradientUnits="userSpaceOnUse">
<stop stop-color="#4070FF"/>
<stop offset="1" stop-color="#365FD9"/>
</linearGradient>
<linearGradient id="paint10_linear" x1="370.267" y1="364.396" x2="370.267" y2="367.33" gradientUnits="userSpaceOnUse">
<stop stop-color="#4070FF"/>
<stop offset="1" stop-color="#365FD9"/>
</linearGradient>
<linearGradient id="paint11_linear" x1="321.861" y1="374.746" x2="321.861" y2="376.921" gradientUnits="userSpaceOnUse">
<stop stop-color="#4070FF"/>
<stop offset="1" stop-color="#365FD9"/>
</linearGradient>
<linearGradient id="paint12_linear" x1="321.953" y1="372.769" x2="321.953" y2="376.571" gradientUnits="userSpaceOnUse">
<stop stop-color="#4070FF"/>
<stop offset="1" stop-color="#365FD9"/>
</linearGradient>
<linearGradient id="paint13_linear" x1="153.79" y1="387.92" x2="153.79" y2="427.73" gradientUnits="userSpaceOnUse">
<stop stop-color="#4070FF"/>
<stop offset="1" stop-color="#365FD9"/>
</linearGradient>
<linearGradient id="paint14_linear" x1="279.391" y1="251.349" x2="279.391" y2="281.15" gradientUnits="userSpaceOnUse">
<stop stop-color="#4070FF"/>
<stop offset="1" stop-color="#365FD9"/>
</linearGradient>
<linearGradient id="paint15_linear" x1="113.62" y1="280.18" x2="113.62" y2="294.7" gradientUnits="userSpaceOnUse">
<stop stop-color="#4070FF"/>
<stop offset="1" stop-color="#365FD9"/>
</linearGradient>
<linearGradient id="paint16_linear" x1="102.63" y1="299.05" x2="102.63" y2="306" gradientUnits="userSpaceOnUse">
<stop stop-color="#4070FF"/>
<stop offset="1" stop-color="#365FD9"/>
</linearGradient>
<linearGradient id="paint17_linear" x1="287.11" y1="243.86" x2="287.11" y2="423.64" gradientUnits="userSpaceOnUse">
<stop stop-color="#4070FF"/>
<stop offset="1" stop-color="#365FD9"/>
</linearGradient>
<linearGradient id="paint18_linear" x1="188.07" y1="399.89" x2="188.07" y2="433.24" gradientUnits="userSpaceOnUse">
<stop stop-color="#4070FF"/>
<stop offset="1" stop-color="#365FD9"/>
</linearGradient>
<linearGradient id="paint19_linear" x1="255.95" y1="399.89" x2="255.95" y2="433.24" gradientUnits="userSpaceOnUse">
<stop stop-color="#4070FF"/>
<stop offset="1" stop-color="#365FD9"/>
</linearGradient>
<linearGradient id="paint20_linear" x1="167.21" y1="245.363" x2="167.21" y2="277.37" gradientUnits="userSpaceOnUse">
<stop stop-color="#4070FF"/>
<stop offset="1" stop-color="#365FD9"/>
</linearGradient>
</defs>
</svg>
