<svg width="500" height="500" viewBox="0 0 500 500" fill="none" xmlns="http://www.w3.org/2000/svg">
<path opacity="0.1" d="M220.78 139.56C163.37 179.56 27.5901 168.42 56.6601 278.45C81.0401 370.58 224.04 364.43 290.31 334.51C358.11 303.89 448.49 252.78 412.47 160.25C397.54 121.91 341.04 78.6903 299.31 78.8403C247.77 79.0403 257.04 114.25 220.78 139.56Z" fill="url(#paint0_linear)"/>
<path opacity="0.1" d="M249.971 436.585C357.054 436.585 443.861 431.517 443.861 425.265C443.861 419.014 357.054 413.945 249.971 413.945C142.889 413.945 56.0811 419.014 56.0811 425.265C56.0811 431.517 142.889 436.585 249.971 436.585Z" fill="url(#paint1_linear)"/>
<path d="M328.039 197.19C327.529 198.7 327.039 200 326.499 201.37C325.959 202.74 325.399 204.06 324.819 205.37C323.649 208.04 322.349 210.65 320.939 213.23C319.511 215.849 317.928 218.38 316.199 220.81C314.387 223.381 312.309 225.755 309.999 227.89C309.379 228.44 308.749 228.99 308.049 229.5C307.679 229.77 307.409 230 306.959 230.29C306.509 230.58 306.079 230.84 305.609 231.09C303.673 232.115 301.509 232.635 299.319 232.6C297.313 232.559 295.336 232.11 293.509 231.28C291.93 230.559 290.443 229.653 289.079 228.58C286.654 226.63 284.496 224.371 282.659 221.86C281.749 220.68 280.939 219.43 280.159 218.18C279.379 216.93 278.679 215.69 277.989 214.28L282.639 211.39C283.439 212.32 284.359 213.39 285.259 214.31C286.159 215.23 287.109 216.18 288.049 217.07C289.836 218.786 291.804 220.301 293.919 221.59C295.919 222.75 297.919 223.33 299.129 223.13C299.732 223.041 300.307 222.815 300.809 222.47L301.229 222.15C301.349 222.06 301.599 221.82 301.789 221.67C302.189 221.33 302.589 220.93 302.979 220.53C306.3 216.779 309.081 212.582 311.239 208.06C312.449 205.73 313.549 203.32 314.629 200.89C315.159 199.68 315.679 198.45 316.169 197.22C316.659 195.99 317.169 194.71 317.589 193.59L328.039 197.19Z" fill="#E4897B"/>
<path d="M330.938 193.504C332.498 200.294 317.608 217.654 317.608 217.654L304.218 207.914C307.183 202.289 310.743 196.999 314.838 192.134C320.938 185.164 329.218 186.054 330.938 193.504Z" fill="url(#paint2_linear)"/>
<path opacity="0.7" d="M330.938 193.504C332.498 200.294 317.608 217.654 317.608 217.654L304.218 207.914C307.183 202.289 310.743 196.999 314.838 192.134C320.938 185.164 329.218 186.054 330.938 193.504Z" fill="white"/>
<path d="M363.61 192.501C360.972 200.21 358.913 208.105 357.45 216.121C356.4 221.711 355.64 227.061 355.07 231.921C353.73 243.311 353.42 252.041 352.89 254.971L314.27 249.771C311.65 208.071 323.11 187.411 323.11 187.411C326.216 187.035 329.342 186.852 332.47 186.861C333.13 186.861 333.8 186.861 334.47 186.911C339.982 187.331 345.464 188.069 350.89 189.121C351.89 189.311 352.96 189.531 353.97 189.761C359.12 190.921 363.61 192.501 363.61 192.501Z" fill="url(#paint3_linear)"/>
<path opacity="0.7" d="M363.61 192.501C360.972 200.21 358.913 208.105 357.45 216.121C356.4 221.711 355.64 227.061 355.07 231.921C353.73 243.311 353.42 252.041 352.89 254.971L314.27 249.771C311.65 208.071 323.11 187.411 323.11 187.411C326.216 187.035 329.342 186.852 332.47 186.861C333.13 186.861 333.8 186.861 334.47 186.911C339.982 187.331 345.464 188.069 350.89 189.121C351.89 189.311 352.96 189.531 353.97 189.761C359.12 190.921 363.61 192.501 363.61 192.501Z" fill="white"/>
<path d="M357.373 216.195C356.323 221.785 355.563 227.135 354.993 231.995L349.773 219.935L357.373 216.195Z" fill="url(#paint4_linear)"/>
<path opacity="0.5" d="M357.373 216.195C356.323 221.785 355.563 227.135 354.993 231.995L349.773 219.935L357.373 216.195Z" fill="white"/>
<path d="M295.05 412.209L288.17 409.819L291.86 393.239L298.74 395.629L295.05 412.209Z" fill="#E4897B"/>
<path d="M361.18 416.158H353.9L348.22 399.278H355.51L361.18 416.158Z" fill="#E4897B"/>
<path d="M291.806 393.239L289.896 401.779L296.786 404.169L298.686 395.619L291.806 393.239Z" fill="#CE6F64"/>
<path d="M355.51 399.278H348.22L351.15 407.978H358.44L355.51 399.278Z" fill="#CE6F64"/>
<path d="M287.825 399.251L299.495 403.251C299.495 403.251 310.905 358.251 314.495 335.821C315.575 329.001 318.015 319.561 320.955 309.481C324.655 296.781 329.165 283.081 332.825 272.361C336.695 261.071 339.595 253.091 339.595 253.091L314.205 249.671C314.205 249.671 294.865 308.971 292.685 331.101C290.405 354.141 287.825 399.251 287.825 399.251Z" fill="url(#paint5_linear)"/>
<path opacity="0.6" d="M287.825 399.251L299.495 403.251C299.495 403.251 310.905 358.251 314.495 335.821C315.575 329.001 318.015 319.561 320.955 309.481C324.655 296.781 329.165 283.081 332.825 272.361C336.695 261.071 339.595 253.091 339.595 253.091L314.205 249.671C314.205 249.671 294.865 308.971 292.685 331.101C290.405 354.141 287.825 399.251 287.825 399.251Z" fill="black"/>
<path opacity="0.4" d="M320.992 309.572C324.692 296.872 329.202 283.172 332.862 272.452L330.592 266.582C323.782 273.692 320.572 296.852 320.992 309.572Z" fill="black"/>
<path d="M327.954 251.569C327.954 251.569 326.704 313.989 328.414 335.269C330.294 358.569 347.754 406.269 347.754 406.269H361.104C361.104 406.269 352.194 362.659 349.464 340.029C346.354 314.249 352.874 254.969 352.874 254.969L327.954 251.569Z" fill="url(#paint6_linear)"/>
<path opacity="0.6" d="M327.954 251.569C327.954 251.569 326.704 313.989 328.414 335.269C330.294 358.569 347.754 406.269 347.754 406.269H361.104C361.104 406.269 352.194 362.659 349.464 340.029C346.354 314.249 352.874 254.969 352.874 254.969L327.954 251.569Z" fill="black"/>
<path d="M352.9 415.326H361.79C361.935 415.327 362.075 415.377 362.188 415.468C362.3 415.558 362.379 415.685 362.41 415.826L363.85 422.306C363.883 422.464 363.881 422.627 363.842 422.783C363.803 422.94 363.73 423.085 363.627 423.209C363.524 423.333 363.394 423.432 363.248 423.499C363.101 423.566 362.941 423.599 362.78 423.596C359.92 423.546 357.84 423.386 354.24 423.386C352.02 423.386 345.34 423.616 342.29 423.616C339.24 423.616 338.83 420.616 340.08 420.316C345.69 419.086 349.92 417.396 351.72 415.776C352.046 415.487 352.465 415.327 352.9 415.326Z" fill="#263238"/>
<path d="M288.354 409.011L295.874 411.611C296.012 411.66 296.129 411.753 296.207 411.877C296.285 412 296.319 412.146 296.304 412.291L295.544 418.881C295.527 419.041 295.473 419.195 295.387 419.332C295.301 419.468 295.186 419.583 295.049 419.667C294.912 419.752 294.758 419.805 294.597 419.821C294.437 419.837 294.275 419.817 294.124 419.761C291.434 418.761 287.564 417.261 284.124 416.081C280.124 414.701 276.624 413.731 271.944 412.081C269.124 411.081 269.324 407.971 270.604 408.081C276.394 408.771 280.834 410.161 286.484 408.901C287.106 408.766 287.753 408.804 288.354 409.011Z" fill="#263238"/>
<path d="M282.533 214.252L285.473 206.852L276.173 206.532C275.567 207.899 275.416 209.424 275.74 210.883C276.063 212.342 276.846 213.66 277.973 214.642L282.533 214.252Z" fill="#E4897B"/>
<path d="M286.573 201.873L279.283 203.283L276.263 206.533L285.563 206.853L286.573 201.873Z" fill="#E4897B"/>
<path d="M332.623 217.257C331.133 217.25 329.702 216.674 328.623 215.647C327.808 214.825 327.182 213.836 326.786 212.748C326.391 211.66 326.236 210.5 326.333 209.347C326.543 204.647 329.983 200.457 333.983 200.017C334.839 199.914 335.707 200 336.526 200.27C337.345 200.539 338.095 200.986 338.723 201.577C339.538 202.399 340.164 203.388 340.56 204.475C340.955 205.563 341.11 206.723 341.013 207.877C340.803 212.587 337.363 216.777 333.363 217.217C333.117 217.246 332.87 217.26 332.623 217.257ZM334.623 200.977H334.043C330.513 201.367 327.473 205.137 327.273 209.367C327.187 210.377 327.321 211.393 327.666 212.347C328.012 213.3 328.56 214.166 329.273 214.887C329.794 215.382 330.419 215.756 331.102 215.983C331.784 216.209 332.509 216.282 333.223 216.197C336.753 215.797 339.793 212.037 339.993 207.807C340.076 206.795 339.94 205.778 339.595 204.824C339.25 203.87 338.704 203.001 337.993 202.277C337.086 201.416 335.883 200.936 334.633 200.937L334.623 200.977Z" fill="#FAFAFA"/>
<path d="M351.775 170.468C350.035 175.618 347.695 185.158 350.915 189.178C349.06 190.656 346.909 191.719 344.607 192.293C342.306 192.868 339.907 192.941 337.575 192.508C333.045 191.798 333.245 188.588 334.495 186.968C340.575 186.358 341.015 181.968 340.495 177.718L351.775 170.468Z" fill="#E4897B"/>
<path d="M347.105 173.401L340.455 177.691C340.577 178.686 340.613 179.69 340.565 180.691C342.865 180.691 346.285 178.611 346.845 176.291C347.109 175.352 347.198 174.372 347.105 173.401Z" fill="#CE6F64"/>
<path d="M338.358 149.772C332.718 149.312 330.758 162.902 334.278 165.512C337.798 168.122 348.928 150.632 338.358 149.772Z" fill="#263238"/>
<path d="M353.416 162.626C352.016 169.716 351.556 173.946 347.416 177.126C341.236 181.916 332.846 177.456 332.106 170.126C331.436 163.486 333.846 153.006 341.226 151.126C342.848 150.695 344.553 150.686 346.18 151.099C347.806 151.511 349.301 152.332 350.521 153.484C351.742 154.635 352.648 156.079 353.155 157.679C353.662 159.279 353.751 160.982 353.416 162.626Z" fill="#E4897B"/>
<path d="M351.924 169.442C348.424 171.622 345.064 152.252 354.764 152.702C366.654 153.262 359.354 164.872 351.924 169.442Z" fill="#263238"/>
<path d="M354.526 156.162C349.866 153.572 342.906 156.822 338.136 154.552C333.366 152.282 325.186 154.272 329.026 147.322C330.186 149.322 335.166 149.442 337.756 146.602C340.346 143.762 343.756 142.942 345.756 146.052C347.756 149.162 353.306 142.942 358.036 146.942C362.136 150.372 361.556 160.072 354.526 156.162Z" fill="#263238"/>
<path d="M358.401 154.507C358.401 154.507 362.621 154.367 363.401 152.177C363.451 154.337 362.401 155.757 358.401 154.507Z" fill="#263238"/>
<path d="M355.605 170.984C354.437 172.378 352.766 173.254 350.956 173.424C348.556 173.614 347.805 171.364 348.855 169.334C349.795 167.504 352.186 165.204 354.406 165.954C354.89 166.126 355.324 166.416 355.668 166.798C356.012 167.18 356.254 167.643 356.373 168.143C356.493 168.643 356.485 169.165 356.351 169.661C356.217 170.157 355.96 170.612 355.605 170.984Z" fill="#E4897B"/>
<path d="M346.101 406.521H361.821V401.821L344.251 401.521L346.101 406.521Z" fill="url(#paint7_linear)"/>
<path d="M286.282 399.046L300.172 403.856L301.722 399.376L286.272 393.756L286.282 399.046Z" fill="url(#paint8_linear)"/>
<path d="M342.329 163.047C342.407 162.467 342.16 161.954 341.777 161.903C341.393 161.851 341.019 162.28 340.941 162.86C340.863 163.44 341.11 163.952 341.494 164.004C341.877 164.055 342.251 163.627 342.329 163.047Z" fill="#263238"/>
<path d="M335.638 162.299C335.558 162.879 335.188 163.299 334.808 163.299C334.428 163.299 334.178 162.739 334.258 162.149C334.338 161.559 334.708 161.149 335.088 161.149C335.468 161.149 335.718 161.719 335.638 162.299Z" fill="#263238"/>
<path d="M337.693 162.703C336.76 164.39 335.599 165.942 334.243 167.313C334.602 167.65 335.031 167.905 335.499 168.058C335.967 168.212 336.463 168.261 336.953 168.203L337.693 162.703Z" fill="#DE5753"/>
<path d="M339.304 170.137C339.047 170.14 338.79 170.123 338.534 170.087C338.49 170.08 338.45 170.056 338.423 170.021C338.395 169.986 338.381 169.942 338.384 169.897C338.392 169.851 338.417 169.81 338.454 169.782C338.491 169.754 338.538 169.742 338.584 169.747C339.306 169.859 340.045 169.8 340.739 169.574C341.434 169.348 342.066 168.962 342.584 168.447C342.618 168.415 342.663 168.397 342.709 168.397C342.756 168.397 342.801 168.415 342.834 168.447C342.866 168.479 342.884 168.522 342.884 168.567C342.884 168.612 342.866 168.655 342.834 168.687C342.373 169.152 341.822 169.52 341.216 169.769C340.61 170.018 339.96 170.143 339.304 170.137Z" fill="#263238"/>
<path d="M344.686 161.215C344.625 161.216 344.565 161.201 344.513 161.171C344.46 161.141 344.416 161.098 344.386 161.045C344.187 160.667 343.903 160.339 343.555 160.089C343.208 159.84 342.808 159.674 342.386 159.605C342.335 159.609 342.285 159.602 342.237 159.585C342.19 159.568 342.147 159.54 342.111 159.505C342.075 159.469 342.048 159.426 342.03 159.379C342.012 159.332 342.005 159.281 342.008 159.231C342.012 159.181 342.027 159.132 342.051 159.087C342.075 159.043 342.109 159.005 342.15 158.975C342.19 158.945 342.237 158.924 342.286 158.914C342.336 158.903 342.387 158.904 342.436 158.915C342.978 158.988 343.495 159.188 343.945 159.499C344.396 159.811 344.766 160.224 345.026 160.705C345.049 160.744 345.064 160.788 345.07 160.833C345.075 160.878 345.072 160.924 345.06 160.968C345.048 161.011 345.027 161.052 344.999 161.088C344.971 161.124 344.936 161.153 344.896 161.175C344.832 161.211 344.758 161.225 344.686 161.215Z" fill="#263238"/>
<path d="M333.207 159.606C333.145 159.621 333.08 159.621 333.017 159.606C332.941 159.555 332.888 159.476 332.869 159.386C332.851 159.296 332.868 159.203 332.918 159.126C333.211 158.662 333.611 158.275 334.084 157.997C334.557 157.718 335.09 157.557 335.638 157.526C335.729 157.528 335.815 157.566 335.879 157.632C335.942 157.697 335.978 157.785 335.978 157.876C335.978 157.966 335.942 158.052 335.878 158.116C335.814 158.18 335.728 158.216 335.638 158.216C335.206 158.246 334.787 158.379 334.417 158.604C334.046 158.828 333.735 159.137 333.508 159.506C333.469 159.545 333.422 159.574 333.369 159.592C333.317 159.609 333.262 159.614 333.207 159.606Z" fill="#263238"/>
<path d="M350.507 416.66C350.008 416.697 349.51 416.563 349.097 416.28C348.966 416.17 348.865 416.029 348.804 415.87C348.743 415.711 348.723 415.539 348.747 415.37C348.746 415.269 348.773 415.171 348.824 415.084C348.875 414.998 348.949 414.927 349.037 414.88C349.847 414.48 352.197 415.88 352.457 416.08C352.485 416.098 352.507 416.123 352.521 416.153C352.535 416.183 352.541 416.217 352.537 416.25C352.534 416.284 352.519 416.316 352.496 416.341C352.472 416.366 352.441 416.383 352.407 416.39C351.787 416.556 351.149 416.646 350.507 416.66ZM349.417 415.15C349.345 415.133 349.27 415.133 349.197 415.15C349.147 415.15 349.097 415.22 349.087 415.35C349.071 415.465 349.083 415.584 349.123 415.693C349.163 415.803 349.23 415.902 349.317 415.98C350.133 416.348 351.059 416.394 351.907 416.11C351.147 415.633 350.301 415.307 349.417 415.15Z" fill="url(#paint9_linear)"/>
<path d="M352.441 416.362H352.361C351.611 415.952 350.151 414.362 350.301 413.542C350.326 413.415 350.395 413.301 350.495 413.219C350.596 413.137 350.721 413.092 350.851 413.092C350.983 413.073 351.117 413.083 351.245 413.121C351.373 413.159 351.491 413.224 351.591 413.312C352.431 414.002 352.591 416.102 352.591 416.192C352.596 416.223 352.592 416.254 352.58 416.282C352.567 416.311 352.547 416.335 352.521 416.352C352.495 416.361 352.468 416.364 352.441 416.362ZM350.971 413.362H350.891C350.671 413.362 350.651 413.492 350.641 413.532C350.551 414.012 351.481 415.222 352.231 415.792C352.176 414.964 351.877 414.17 351.371 413.512C351.255 413.429 351.113 413.39 350.971 413.402V413.362Z" fill="url(#paint10_linear)"/>
<path d="M287.388 409.804C286.208 409.634 284.138 409.224 283.618 408.294C283.547 408.154 283.511 408 283.511 407.844C283.511 407.688 283.547 407.533 283.618 407.394C283.651 407.307 283.706 407.229 283.778 407.17C283.85 407.11 283.936 407.07 284.028 407.054C285.028 406.864 287.308 409.244 287.568 409.514C287.587 409.542 287.597 409.575 287.597 409.609C287.597 409.643 287.587 409.676 287.568 409.704C287.552 409.737 287.526 409.764 287.493 409.782C287.461 409.8 287.424 409.808 287.388 409.804ZM284.098 407.394H284.028C283.992 407.403 283.959 407.421 283.931 407.445C283.904 407.469 283.882 407.5 283.868 407.534C283.819 407.624 283.793 407.726 283.793 407.829C283.793 407.932 283.819 408.033 283.868 408.124C284.158 408.654 285.268 409.124 286.868 409.384C285.948 408.484 284.678 407.394 284.098 407.394Z" fill="url(#paint11_linear)"/>
<path d="M287.394 409.791C287.349 409.791 287.306 409.773 287.274 409.741C286.574 409.081 285.444 407.021 285.834 406.291C285.924 406.111 286.134 405.931 286.604 406.041C286.771 406.08 286.927 406.152 287.065 406.253C287.203 406.355 287.318 406.483 287.404 406.631C287.765 407.591 287.818 408.64 287.554 409.631C287.547 409.659 287.533 409.684 287.514 409.705C287.495 409.726 287.471 409.742 287.444 409.751L287.394 409.791ZM286.344 406.351C286.303 406.345 286.261 406.352 286.224 406.37C286.186 406.387 286.155 406.416 286.134 406.451C285.904 406.891 286.614 408.451 287.284 409.251C287.479 408.44 287.42 407.588 287.114 406.811C287.05 406.703 286.965 406.609 286.863 406.535C286.762 406.461 286.646 406.409 286.524 406.381L286.344 406.351Z" fill="url(#paint12_linear)"/>
<path d="M367.602 201.047C367.472 202.527 367.322 203.837 367.122 205.197C366.922 206.557 366.712 207.897 366.482 209.197C366.002 211.887 365.432 214.557 364.742 217.197C364.052 219.837 363.232 222.497 362.282 225.137L361.542 227.137L360.702 229.137C360.442 229.787 360.112 230.437 359.792 231.137L359.322 232.137L359.202 232.387L358.992 232.777C358.84 233.059 358.673 233.333 358.492 233.597C357.379 235.148 355.981 236.471 354.372 237.497C353.091 238.334 351.755 239.083 350.372 239.737C347.843 240.93 345.238 241.953 342.572 242.797C337.427 244.442 332.161 245.682 326.822 246.507L325.442 241.217C330.182 239.317 334.982 237.277 339.522 235.117C341.738 234.074 343.897 232.916 345.992 231.647C346.934 231.08 347.837 230.448 348.692 229.757C349.269 229.326 349.764 228.794 350.152 228.187L350.232 227.977L350.552 227.157C350.772 226.607 350.992 226.067 351.172 225.487L351.752 223.787L352.282 222.047C352.952 219.707 353.562 217.317 354.082 214.877C354.602 212.437 355.082 209.977 355.482 207.507C355.882 205.037 356.262 202.507 356.572 200.147L367.602 201.047Z" fill="#E4897B"/>
<path d="M369.005 196.578C373.085 202.228 368.375 219.648 368.375 219.648L349.255 220.258C350.207 213.49 351.671 206.805 353.635 200.258C356.675 190.918 364.005 189.728 369.005 196.578Z" fill="url(#paint13_linear)"/>
<path opacity="0.7" d="M369.005 196.578C373.085 202.228 368.375 219.648 368.375 219.648L349.255 220.258C350.207 213.49 351.671 206.805 353.635 200.258C356.675 190.918 364.005 189.728 369.005 196.578Z" fill="white"/>
<path d="M227.746 130.381C214.22 124.516 199.638 121.481 184.896 121.461C132.896 121.461 91.7657 159.281 86.1057 208.911L92.5557 205.801L190.556 226.461L227.746 130.381Z" fill="url(#paint14_linear)"/>
<path opacity="0.4" d="M227.746 130.381C214.22 124.516 199.638 121.481 184.896 121.461C132.896 121.461 91.7657 159.281 86.1057 208.911L92.5557 205.801L190.556 226.461L227.746 130.381Z" fill="white"/>
<path d="M234.323 127.275C220.792 121.406 206.202 118.37 191.453 118.355C139.453 118.355 98.3228 156.175 92.6628 205.805L197.143 223.355L234.323 127.275Z" fill="url(#paint15_linear)"/>
<path opacity="0.6" d="M234.323 127.275C220.792 121.406 206.202 118.37 191.453 118.355C139.453 118.355 98.3228 156.175 92.6628 205.805L197.143 223.355L234.323 127.275Z" fill="white"/>
<path d="M247.892 123.058L210.692 219.138L303.102 274.138L309.552 271.028C309.552 271.028 316.692 237.658 315.692 219.098C313.442 177.698 254.322 119.908 254.322 119.908L247.892 123.058Z" fill="url(#paint16_linear)"/>
<path opacity="0.1" d="M247.892 123.058L210.692 219.138L303.102 274.138L309.552 271.028C309.552 271.028 316.692 237.658 315.692 219.098C313.442 177.698 254.322 119.908 254.322 119.908L247.892 123.058Z" fill="white"/>
<path d="M254.439 119.908L217.249 216.008L309.669 271.008C319.024 254.251 323.389 235.166 322.249 216.008C319.929 173.098 292.189 136.218 254.439 119.908Z" fill="url(#paint17_linear)"/>
<path opacity="0.2" d="M254.439 119.908L217.249 216.008L309.669 271.008C319.024 254.251 323.389 235.166 322.249 216.008C319.929 173.098 292.189 136.218 254.439 119.908Z" fill="white"/>
<g style="mix-blend-mode:color-dodge" opacity="0.4">
<path d="M307.163 262.873C307.121 262.887 307.076 262.887 307.033 262.873L224.443 213.683C224.392 213.652 224.354 213.604 224.336 213.547C224.317 213.49 224.32 213.429 224.343 213.373L257.343 128.013C257.355 127.98 257.374 127.949 257.399 127.923C257.423 127.897 257.453 127.877 257.486 127.864C257.52 127.851 257.555 127.845 257.591 127.846C257.627 127.848 257.661 127.857 257.693 127.873C274.387 136.298 288.608 148.913 298.963 164.483C309.29 179.907 315.302 197.813 316.373 216.343C317.29 232.325 314.197 248.283 307.373 262.763C307.358 262.797 307.336 262.827 307.309 262.851C307.281 262.876 307.249 262.893 307.213 262.903L307.163 262.873ZM224.903 213.303L307.073 262.243C313.781 247.9 316.816 232.112 315.903 216.303C313.903 179.203 291.613 145.533 257.743 128.383L224.903 213.303Z" fill="#FAFAFA"/>
</g>
<g style="mix-blend-mode:color-dodge" opacity="0.4">
<path d="M193.328 216.821L99.3982 201.051C99.3346 201.038 99.2778 201.003 99.2382 200.951C99.2142 200.89 99.2142 200.822 99.2382 200.761C102.906 179.217 114.1 159.674 130.828 145.611C147.913 131.559 169.377 123.931 191.498 124.051C203.522 124.051 215.45 126.184 226.728 130.351C226.761 130.359 226.79 130.376 226.815 130.398C226.839 130.421 226.858 130.449 226.868 130.481C226.894 130.545 226.894 130.617 226.868 130.681L193.588 216.681C193.565 216.729 193.528 216.768 193.481 216.794C193.434 216.819 193.381 216.828 193.328 216.821ZM99.7382 200.601L193.168 216.291L226.278 130.731C215.124 126.644 203.338 124.552 191.458 124.551C145.308 124.551 107.618 155.811 99.7382 200.601Z" fill="#FAFAFA"/>
</g>
<path d="M190.565 226.502L92.5647 205.842L86.0847 208.972C85.4214 214.797 85.2508 220.668 85.5747 226.522C88.7147 284.522 138.275 331.522 196.265 331.522C234.065 331.522 266.115 311.522 282.975 281.522L190.565 226.502Z" fill="url(#paint18_linear)"/>
<path opacity="0.2" d="M190.565 226.502L92.5647 205.842L86.0847 208.972C85.4214 214.797 85.2508 220.668 85.5747 226.522C88.7147 284.522 138.275 331.522 196.265 331.522C234.065 331.522 266.115 311.522 282.975 281.522L190.565 226.502Z" fill="black"/>
<path d="M197.125 223.392L92.6453 205.842C91.9837 211.667 91.8097 217.537 92.1253 223.392C95.2753 281.392 144.825 328.392 202.815 328.392C240.625 328.392 272.675 308.392 289.535 278.392L197.125 223.392Z" fill="url(#paint19_linear)"/>
<path opacity="0.1" d="M197.125 223.392L92.6453 205.842C91.9837 211.667 91.8097 217.537 92.1253 223.392C95.2753 281.392 144.825 328.392 202.815 328.392C240.625 328.392 272.675 308.392 289.535 278.392L197.125 223.392Z" fill="black"/>
<g style="mix-blend-mode:color-dodge" opacity="0.4">
<path d="M202.798 322.625C147.908 322.625 100.798 277.955 97.7982 223.065C97.6232 219.651 97.6232 216.23 97.7982 212.815C97.797 212.78 97.8045 212.745 97.8203 212.714C97.836 212.682 97.8594 212.655 97.8882 212.635C97.9145 212.61 97.9463 212.592 97.981 212.581C98.0158 212.571 98.0525 212.569 98.0882 212.575L195.018 228.855H195.098L281.358 280.235C281.388 280.252 281.414 280.275 281.435 280.303C281.456 280.33 281.47 280.362 281.478 280.395C281.501 280.456 281.501 280.524 281.478 280.585C273.089 293.553 261.555 304.187 247.948 311.495C234.039 318.852 218.533 322.674 202.798 322.625ZM98.3082 213.115C98.1582 216.415 98.1682 219.745 98.3082 223.035C101.308 277.665 148.128 322.125 202.758 322.125C235.208 322.125 263.668 306.975 280.868 280.565L194.868 229.345L98.3082 213.115Z" fill="#FAFAFA"/>
</g>
<path d="M83.627 239.781C82.8777 235.48 82.3802 231.14 82.137 226.781L83.137 226.721C83.3708 231.053 83.8617 235.367 84.607 239.641L83.627 239.781Z" fill="url(#paint20_linear)"/>
<path opacity="0.2" d="M83.627 239.781C82.8777 235.48 82.3802 231.14 82.137 226.781L83.137 226.721C83.3708 231.053 83.8617 235.367 84.607 239.641L83.627 239.781Z" fill="black"/>
<path d="M85.8901 250.012C85.3301 248.012 84.8201 245.892 84.3801 243.842L85.3801 243.632C85.8201 245.632 86.3201 247.722 86.8701 249.752L85.8901 250.012Z" fill="url(#paint21_linear)"/>
<path opacity="0.2" d="M85.8901 250.012C85.3301 248.012 84.8201 245.892 84.3801 243.842L85.3801 243.632C85.8201 245.632 86.3201 247.722 86.8701 249.752L85.8901 250.012Z" fill="black"/>
<path d="M327.406 241.065L320.266 239.145L321.816 248.315C321.816 248.315 328.256 248.605 328.816 245.205L327.406 241.065Z" fill="#E4897B"/>
<path d="M314.571 241.475L316.211 249.005L321.741 248.315L320.191 239.145L314.571 241.475Z" fill="#E4897B"/>
<defs>
<linearGradient id="paint0_linear" x1="420.665" y1="78.8399" x2="420.665" y2="354.251" gradientUnits="userSpaceOnUse">
<stop stop-color="#4070FF"/>
<stop offset="1" stop-color="#365FD9"/>
</linearGradient>
<linearGradient id="paint1_linear" x1="443.861" y1="413.945" x2="443.861" y2="436.585" gradientUnits="userSpaceOnUse">
<stop stop-color="#4070FF"/>
<stop offset="1" stop-color="#365FD9"/>
</linearGradient>
<linearGradient id="paint2_linear" x1="331.052" y1="187.378" x2="331.052" y2="217.654" gradientUnits="userSpaceOnUse">
<stop stop-color="#4070FF"/>
<stop offset="1" stop-color="#365FD9"/>
</linearGradient>
<linearGradient id="paint3_linear" x1="363.61" y1="186.86" x2="363.61" y2="254.971" gradientUnits="userSpaceOnUse">
<stop stop-color="#4070FF"/>
<stop offset="1" stop-color="#365FD9"/>
</linearGradient>
<linearGradient id="paint4_linear" x1="357.373" y1="216.195" x2="357.373" y2="231.995" gradientUnits="userSpaceOnUse">
<stop stop-color="#4070FF"/>
<stop offset="1" stop-color="#365FD9"/>
</linearGradient>
<linearGradient id="paint5_linear" x1="339.595" y1="249.671" x2="339.595" y2="403.251" gradientUnits="userSpaceOnUse">
<stop stop-color="#4070FF"/>
<stop offset="1" stop-color="#365FD9"/>
</linearGradient>
<linearGradient id="paint6_linear" x1="361.104" y1="251.569" x2="361.104" y2="406.269" gradientUnits="userSpaceOnUse">
<stop stop-color="#4070FF"/>
<stop offset="1" stop-color="#365FD9"/>
</linearGradient>
<linearGradient id="paint7_linear" x1="361.821" y1="401.521" x2="361.821" y2="406.521" gradientUnits="userSpaceOnUse">
<stop stop-color="#4070FF"/>
<stop offset="1" stop-color="#365FD9"/>
</linearGradient>
<linearGradient id="paint8_linear" x1="301.722" y1="393.756" x2="301.722" y2="403.856" gradientUnits="userSpaceOnUse">
<stop stop-color="#4070FF"/>
<stop offset="1" stop-color="#365FD9"/>
</linearGradient>
<linearGradient id="paint9_linear" x1="352.538" y1="414.808" x2="352.538" y2="416.666" gradientUnits="userSpaceOnUse">
<stop stop-color="#4070FF"/>
<stop offset="1" stop-color="#365FD9"/>
</linearGradient>
<linearGradient id="paint10_linear" x1="352.593" y1="413.083" x2="352.593" y2="416.363" gradientUnits="userSpaceOnUse">
<stop stop-color="#4070FF"/>
<stop offset="1" stop-color="#365FD9"/>
</linearGradient>
<linearGradient id="paint11_linear" x1="287.597" y1="407.043" x2="287.597" y2="409.805" gradientUnits="userSpaceOnUse">
<stop stop-color="#4070FF"/>
<stop offset="1" stop-color="#365FD9"/>
</linearGradient>
<linearGradient id="paint12_linear" x1="287.72" y1="406.008" x2="287.72" y2="409.791" gradientUnits="userSpaceOnUse">
<stop stop-color="#4070FF"/>
<stop offset="1" stop-color="#365FD9"/>
</linearGradient>
<linearGradient id="paint13_linear" x1="370.668" y1="192.21" x2="370.668" y2="220.258" gradientUnits="userSpaceOnUse">
<stop stop-color="#4070FF"/>
<stop offset="1" stop-color="#365FD9"/>
</linearGradient>
<linearGradient id="paint14_linear" x1="227.746" y1="121.461" x2="227.746" y2="226.461" gradientUnits="userSpaceOnUse">
<stop stop-color="#4070FF"/>
<stop offset="1" stop-color="#365FD9"/>
</linearGradient>
<linearGradient id="paint15_linear" x1="234.323" y1="118.355" x2="234.323" y2="223.355" gradientUnits="userSpaceOnUse">
<stop stop-color="#4070FF"/>
<stop offset="1" stop-color="#365FD9"/>
</linearGradient>
<linearGradient id="paint16_linear" x1="315.788" y1="119.908" x2="315.788" y2="274.138" gradientUnits="userSpaceOnUse">
<stop stop-color="#4070FF"/>
<stop offset="1" stop-color="#365FD9"/>
</linearGradient>
<linearGradient id="paint17_linear" x1="322.427" y1="119.908" x2="322.427" y2="271.008" gradientUnits="userSpaceOnUse">
<stop stop-color="#4070FF"/>
<stop offset="1" stop-color="#365FD9"/>
</linearGradient>
<linearGradient id="paint18_linear" x1="282.975" y1="205.842" x2="282.975" y2="331.522" gradientUnits="userSpaceOnUse">
<stop stop-color="#4070FF"/>
<stop offset="1" stop-color="#365FD9"/>
</linearGradient>
<linearGradient id="paint19_linear" x1="289.535" y1="205.842" x2="289.535" y2="328.392" gradientUnits="userSpaceOnUse">
<stop stop-color="#4070FF"/>
<stop offset="1" stop-color="#365FD9"/>
</linearGradient>
<linearGradient id="paint20_linear" x1="84.607" y1="226.721" x2="84.607" y2="239.781" gradientUnits="userSpaceOnUse">
<stop stop-color="#4070FF"/>
<stop offset="1" stop-color="#365FD9"/>
</linearGradient>
<linearGradient id="paint21_linear" x1="86.8701" y1="243.632" x2="86.8701" y2="250.012" gradientUnits="userSpaceOnUse">
<stop stop-color="#4070FF"/>
<stop offset="1" stop-color="#365FD9"/>
</linearGradient>
</defs>
</svg>
