<svg width="500" height="500" viewBox="0 0 500 500" fill="none" xmlns="http://www.w3.org/2000/svg">
<path opacity="0.1" d="M141.5 158.12C64.5999 203 60 354.53 169.38 351.63C218.29 350.33 232.58 299.04 276.72 281.04C318.16 264.13 353.89 298.04 395.72 259.64C445.01 214.44 452.09 103.89 378.83 96.5C346.93 93.28 334.63 125.13 306.76 132.18C250.26 146.48 198.64 124.79 141.5 158.12Z" fill="url(#paint0_linear)"/>
<path opacity="0.1" d="M250 427.56C357.082 427.56 443.89 422.492 443.89 416.24C443.89 409.988 357.082 404.92 250 404.92C142.917 404.92 56.11 409.988 56.11 416.24C56.11 422.492 142.917 427.56 250 427.56Z" fill="url(#paint1_linear)"/>
<path d="M48.86 150.56L276.83 183.38L307.42 214.25L48.86 150.56Z" fill="url(#paint2_linear)"/>
<path opacity="0.6" d="M48.86 150.56L276.83 183.38L307.42 214.25L48.86 150.56Z" fill="white"/>
<path d="M48.86 150.56L276.83 183.38L266.25 228.02L48.86 150.56Z" fill="url(#paint3_linear)"/>
<path opacity="0.2" d="M48.86 150.56L276.83 183.38L266.25 228.02L48.86 150.56Z" fill="black"/>
<path d="M209.835 185.432C225.453 169.814 225.453 144.493 209.835 128.875C194.218 113.257 168.896 113.257 153.279 128.875C137.661 144.493 137.661 169.814 153.279 185.432C168.896 201.05 194.218 201.05 209.835 185.432Z" fill="url(#paint4_linear)"/>
<path opacity="0.2" d="M209.835 185.432C225.453 169.814 225.453 144.493 209.835 128.875C194.218 113.257 168.896 113.257 153.279 128.875C137.661 144.493 137.661 169.814 153.279 185.432C168.896 201.05 194.218 201.05 209.835 185.432Z" fill="black"/>
<path opacity="0.2" d="M214.665 162.8C217.783 144.517 205.49 127.168 187.207 124.049C168.924 120.931 151.575 133.224 148.456 151.507C145.337 169.79 157.631 187.139 175.914 190.258C194.197 193.377 211.546 181.083 214.665 162.8Z" fill="black"/>
<path d="M216.269 160.37C217.516 142.565 204.092 127.121 186.288 125.875C168.483 124.628 153.039 138.052 151.792 155.856C150.546 173.661 163.969 189.105 181.774 190.352C199.579 191.598 215.023 178.175 216.269 160.37Z" fill="url(#paint5_linear)"/>
<path opacity="0.2" d="M216.269 160.37C217.516 142.565 204.092 127.121 186.288 125.875C168.483 124.628 153.039 138.052 151.792 155.856C150.546 173.661 163.969 189.105 181.774 190.352C199.579 191.598 215.023 178.175 216.269 160.37Z" fill="black"/>
<path d="M194.837 154.076L196.942 163.195C197.031 163.543 197.047 163.906 196.989 164.261C196.93 164.615 196.798 164.954 196.602 165.255C196.411 165.563 196.161 165.829 195.865 166.038C195.57 166.247 195.235 166.395 194.882 166.473L186.863 168.327L188.339 174.743C188.426 175.09 188.44 175.451 188.379 175.803C188.318 176.156 188.183 176.491 187.985 176.789C187.794 177.091 187.543 177.351 187.247 177.552C186.951 177.753 186.616 177.89 186.264 177.955C185.912 178.044 185.546 178.06 185.187 178.005C184.828 177.949 184.484 177.822 184.175 177.63C183.867 177.449 183.6 177.206 183.392 176.916C183.183 176.626 183.038 176.296 182.964 175.947L181.487 169.456L173.534 171.295C173.192 171.378 172.836 171.39 172.488 171.332C172.14 171.274 171.808 171.145 171.511 170.955C171.203 170.774 170.935 170.531 170.725 170.241C170.516 169.952 170.368 169.621 170.293 169.272C170.209 168.927 170.196 168.568 170.254 168.218C170.312 167.868 170.441 167.533 170.633 167.234C170.815 166.928 171.059 166.663 171.349 166.456C171.638 166.249 171.968 166.104 172.316 166.03L190.924 161.74L190.052 157.952L171.496 162.227C171.153 162.315 170.795 162.332 170.445 162.278C170.095 162.223 169.759 162.098 169.458 161.91C169.15 161.725 168.884 161.478 168.677 161.184C168.47 160.89 168.326 160.557 168.255 160.204L166.158 151.122C165.996 150.424 166.119 149.69 166.498 149.082C166.878 148.474 167.483 148.042 168.181 147.88L176.097 146.056L174.62 139.632C174.534 139.293 174.518 138.939 174.571 138.593C174.624 138.247 174.746 137.915 174.93 137.617C175.125 137.294 175.386 137.016 175.697 136.802C176.008 136.588 176.36 136.443 176.732 136.376C177.073 136.293 177.428 136.28 177.775 136.339C178.121 136.397 178.452 136.525 178.748 136.716C179.051 136.902 179.313 137.148 179.519 137.439C179.724 137.729 179.869 138.059 179.944 138.407L181.421 144.823L189.543 142.963C189.894 142.878 190.259 142.864 190.616 142.924C190.972 142.984 191.313 143.115 191.618 143.31C191.926 143.487 192.194 143.726 192.405 144.012C192.616 144.298 192.765 144.624 192.844 144.971C192.999 145.685 192.869 146.432 192.481 147.051C192.094 147.671 191.479 148.114 190.769 148.286L172.161 152.577L172.973 156.342L191.514 152.067C191.866 151.982 192.231 151.969 192.587 152.029C192.944 152.088 193.285 152.219 193.589 152.414C193.902 152.588 194.175 152.826 194.39 153.112C194.605 153.398 194.758 153.726 194.837 154.076Z" fill="url(#paint6_linear)"/>
<g opacity="0.7">
<path opacity="0.7" d="M194.837 154.076L196.942 163.195C197.031 163.543 197.047 163.906 196.989 164.261C196.93 164.615 196.798 164.954 196.602 165.255C196.411 165.563 196.161 165.829 195.865 166.038C195.57 166.247 195.235 166.395 194.882 166.473L186.863 168.327L188.339 174.743C188.426 175.09 188.44 175.451 188.379 175.803C188.318 176.156 188.183 176.491 187.985 176.789C187.794 177.091 187.543 177.351 187.247 177.552C186.951 177.753 186.616 177.89 186.264 177.955C185.912 178.044 185.546 178.06 185.187 178.005C184.828 177.949 184.484 177.822 184.175 177.63C183.867 177.449 183.6 177.206 183.392 176.916C183.183 176.626 183.038 176.296 182.964 175.947L181.487 169.456L173.534 171.295C173.192 171.378 172.836 171.39 172.488 171.332C172.14 171.274 171.808 171.145 171.511 170.955C171.203 170.774 170.935 170.531 170.725 170.241C170.516 169.952 170.368 169.621 170.293 169.272C170.209 168.927 170.196 168.568 170.254 168.218C170.312 167.868 170.441 167.533 170.633 167.234C170.815 166.928 171.059 166.663 171.349 166.456C171.638 166.249 171.968 166.104 172.316 166.03L190.924 161.74L190.052 157.952L171.496 162.227C171.153 162.315 170.795 162.332 170.445 162.278C170.095 162.223 169.759 162.098 169.458 161.91C169.15 161.725 168.884 161.478 168.677 161.184C168.47 160.89 168.326 160.557 168.255 160.204L166.158 151.122C165.996 150.424 166.119 149.69 166.498 149.082C166.878 148.474 167.483 148.042 168.181 147.88L176.097 146.056L174.62 139.632C174.534 139.293 174.518 138.939 174.571 138.593C174.624 138.247 174.746 137.915 174.93 137.617C175.125 137.294 175.386 137.016 175.697 136.802C176.008 136.588 176.36 136.443 176.732 136.376C177.073 136.293 177.428 136.28 177.775 136.339C178.121 136.397 178.452 136.525 178.748 136.716C179.051 136.902 179.313 137.148 179.519 137.439C179.724 137.729 179.869 138.059 179.944 138.407L181.421 144.823L189.543 142.963C189.894 142.878 190.259 142.864 190.616 142.924C190.972 142.984 191.313 143.115 191.618 143.31C191.926 143.487 192.194 143.726 192.405 144.012C192.616 144.298 192.765 144.624 192.844 144.971C192.999 145.685 192.869 146.432 192.481 147.051C192.094 147.671 191.479 148.114 190.769 148.286L172.161 152.577L172.973 156.342L191.514 152.067C191.866 151.982 192.231 151.969 192.587 152.029C192.944 152.088 193.285 152.219 193.589 152.414C193.902 152.588 194.175 152.826 194.39 153.112C194.605 153.398 194.758 153.726 194.837 154.076Z" fill="white"/>
</g>
<path d="M266.897 125.35C276.846 113.576 275.368 95.9654 263.594 86.0156C251.82 76.0658 234.209 77.5446 224.259 89.3186C214.309 101.093 215.788 118.703 227.562 128.653C239.336 138.603 256.947 137.124 266.897 125.35Z" fill="url(#paint7_linear)"/>
<path opacity="0.2" d="M266.897 125.35C276.846 113.576 275.368 95.9654 263.594 86.0156C251.82 76.0658 234.209 77.5446 224.259 89.3186C214.309 101.093 215.788 118.703 227.562 128.653C239.336 138.603 256.947 137.124 266.897 125.35Z" fill="black"/>
<path opacity="0.2" d="M263.643 122.246C271.891 112.27 270.489 97.497 260.513 89.2498C250.536 81.0026 235.763 82.4043 227.516 92.3805C219.269 102.357 220.671 117.13 230.647 125.377C240.623 133.624 255.396 132.222 263.643 122.246Z" fill="black"/>
<path d="M264.351 122.491C271.896 112.619 270.01 98.4984 260.137 90.953C250.264 83.4075 236.144 85.2941 228.599 95.1667C221.053 105.039 222.94 119.159 232.813 126.705C242.685 134.25 256.805 132.364 264.351 122.491Z" fill="url(#paint8_linear)"/>
<path opacity="0.2" d="M264.351 122.491C271.896 112.619 270.01 98.4984 260.137 90.953C250.264 83.4075 236.144 85.2941 228.599 95.1667C221.053 105.039 222.94 119.159 232.813 126.705C242.685 134.25 256.805 132.364 264.351 122.491Z" fill="black"/>
<path d="M254.803 109.624L253.215 115.959C253.158 116.2 253.05 116.426 252.9 116.623C252.75 116.821 252.561 116.984 252.344 117.104C252.125 117.237 251.881 117.325 251.627 117.361C251.373 117.398 251.115 117.383 250.867 117.318L245.336 115.922L244.214 120.353C244.157 120.595 244.05 120.822 243.9 121.021C243.75 121.219 243.56 121.384 243.343 121.505C243.133 121.635 242.9 121.721 242.656 121.758C242.412 121.794 242.163 121.781 241.925 121.719C241.679 121.661 241.448 121.555 241.244 121.407C241.039 121.258 240.867 121.071 240.736 120.855C240.603 120.644 240.514 120.408 240.476 120.162C240.438 119.915 240.451 119.664 240.515 119.422L241.644 114.918L236.106 113.567C235.866 113.509 235.641 113.404 235.443 113.257C235.245 113.109 235.079 112.924 234.955 112.71C234.821 112.501 234.732 112.266 234.694 112.021C234.656 111.776 234.669 111.525 234.733 111.285C234.788 111.042 234.893 110.814 235.04 110.613C235.187 110.412 235.374 110.244 235.59 110.119C235.802 109.989 236.038 109.904 236.285 109.868C236.531 109.833 236.782 109.848 237.022 109.912L249.944 113.153L250.609 110.525L237.724 107.29C237.482 107.236 237.255 107.133 237.055 106.987C236.856 106.841 236.689 106.655 236.564 106.441C236.43 106.231 236.343 105.994 236.307 105.747C236.272 105.5 236.289 105.249 236.357 105.009L237.938 98.6955C237.997 98.4548 238.104 98.2284 238.251 98.0292C238.399 97.83 238.584 97.6621 238.797 97.535C239.01 97.408 239.246 97.3244 239.491 97.2891C239.737 97.2539 239.987 97.2675 240.227 97.3294L245.706 98.7029L246.828 94.2725C246.882 94.0224 246.988 93.7863 247.138 93.579C247.288 93.3717 247.479 93.1977 247.7 93.068C247.92 92.9382 248.165 92.8556 248.419 92.8253C248.674 92.7949 248.931 92.8175 249.176 92.8917C249.414 92.9468 249.638 93.0507 249.834 93.1969C250.03 93.3431 250.193 93.5283 250.313 93.7408C250.444 93.9514 250.53 94.1863 250.567 94.4313C250.604 94.6764 250.59 94.9263 250.527 95.1659L249.405 99.5963L255.017 101.007C255.263 101.065 255.495 101.174 255.698 101.325C255.901 101.476 256.071 101.667 256.198 101.885C256.333 102.093 256.423 102.326 256.464 102.57C256.505 102.814 256.495 103.063 256.435 103.303C256.373 103.549 256.263 103.78 256.111 103.983C255.958 104.186 255.767 104.356 255.548 104.485C255.33 104.62 255.087 104.71 254.833 104.748C254.579 104.786 254.32 104.772 254.072 104.706L241.142 101.464L240.493 104.078L253.37 107.305C253.616 107.364 253.848 107.472 254.051 107.623C254.254 107.774 254.424 107.965 254.552 108.184C254.694 108.392 254.79 108.628 254.833 108.877C254.877 109.125 254.866 109.38 254.803 109.624Z" fill="url(#paint9_linear)"/>
<g opacity="0.7">
<path opacity="0.7" d="M254.803 109.624L253.215 115.959C253.158 116.2 253.05 116.426 252.9 116.623C252.75 116.821 252.561 116.984 252.344 117.104C252.125 117.237 251.881 117.325 251.627 117.361C251.373 117.398 251.115 117.383 250.867 117.318L245.336 115.922L244.214 120.353C244.157 120.595 244.05 120.822 243.9 121.021C243.75 121.219 243.56 121.384 243.343 121.505C243.133 121.635 242.9 121.721 242.656 121.758C242.412 121.794 242.163 121.781 241.925 121.719C241.679 121.661 241.448 121.555 241.244 121.407C241.039 121.258 240.867 121.071 240.736 120.855C240.603 120.644 240.514 120.408 240.476 120.162C240.438 119.915 240.451 119.664 240.515 119.422L241.644 114.918L236.106 113.567C235.866 113.509 235.641 113.404 235.443 113.257C235.245 113.109 235.079 112.924 234.955 112.71C234.821 112.501 234.732 112.266 234.694 112.021C234.656 111.776 234.669 111.525 234.733 111.285C234.788 111.042 234.893 110.814 235.04 110.613C235.187 110.412 235.374 110.244 235.59 110.119C235.802 109.989 236.038 109.904 236.285 109.868C236.531 109.833 236.782 109.848 237.022 109.912L249.944 113.153L250.609 110.525L237.724 107.29C237.482 107.236 237.255 107.133 237.055 106.987C236.856 106.841 236.689 106.655 236.564 106.441C236.43 106.231 236.343 105.994 236.307 105.747C236.272 105.5 236.289 105.249 236.357 105.009L237.938 98.6955C237.997 98.4548 238.104 98.2284 238.251 98.0292C238.399 97.83 238.584 97.6621 238.797 97.535C239.01 97.408 239.246 97.3244 239.491 97.2891C239.737 97.2539 239.987 97.2675 240.227 97.3294L245.706 98.7029L246.828 94.2725C246.882 94.0224 246.988 93.7863 247.138 93.579C247.288 93.3717 247.479 93.1977 247.7 93.068C247.92 92.9382 248.165 92.8556 248.419 92.8253C248.674 92.7949 248.931 92.8175 249.176 92.8917C249.414 92.9468 249.638 93.0507 249.834 93.1969C250.03 93.3431 250.193 93.5283 250.313 93.7408C250.444 93.9514 250.53 94.1863 250.567 94.4313C250.604 94.6764 250.59 94.9263 250.527 95.1659L249.405 99.5963L255.017 101.007C255.263 101.065 255.495 101.174 255.698 101.325C255.901 101.476 256.071 101.667 256.198 101.885C256.333 102.093 256.423 102.326 256.464 102.57C256.505 102.814 256.495 103.063 256.435 103.303C256.373 103.549 256.263 103.78 256.111 103.983C255.958 104.186 255.767 104.356 255.548 104.485C255.33 104.62 255.087 104.71 254.833 104.748C254.579 104.786 254.32 104.772 254.072 104.706L241.142 101.464L240.493 104.078L253.37 107.305C253.616 107.364 253.848 107.472 254.051 107.623C254.254 107.774 254.424 107.965 254.552 108.184C254.694 108.392 254.79 108.628 254.833 108.877C254.877 109.125 254.866 109.38 254.803 109.624Z" fill="white"/>
</g>
<path d="M48.86 150.56L236.89 195.25L266.25 228.02L48.86 150.56Z" fill="url(#paint10_linear)"/>
<path opacity="0.6" d="M48.86 150.56L236.89 195.25L266.25 228.02L48.86 150.56Z" fill="white"/>
<path d="M117.449 193.635L116.944 194.498L137.868 206.755L138.374 205.892L117.449 193.635Z" fill="url(#paint11_linear)"/>
<path d="M147.612 211.296L147.106 212.158L154.631 216.566L155.136 215.703L147.612 211.296Z" fill="url(#paint12_linear)"/>
<path d="M48.86 150.56L236.89 195.25L200.34 239.3L48.86 150.56Z" fill="url(#paint13_linear)"/>
<path d="M300.36 255.26C300.107 255.261 299.856 255.213 299.62 255.12L269 243C268.51 242.803 268.118 242.42 267.91 241.934C267.701 241.449 267.693 240.901 267.887 240.41C268.081 239.919 268.462 239.524 268.946 239.313C269.43 239.101 269.978 239.089 270.47 239.28L301.1 251.4C301.533 251.571 301.893 251.888 302.118 252.297C302.342 252.705 302.417 253.179 302.329 253.637C302.241 254.094 301.997 254.507 301.637 254.803C301.278 255.1 300.826 255.261 300.36 255.26Z" fill="url(#paint14_linear)"/>
<path opacity="0.3" d="M300.36 255.26C300.107 255.261 299.856 255.213 299.62 255.12L269 243C268.51 242.803 268.118 242.42 267.91 241.934C267.701 241.449 267.693 240.901 267.887 240.41C268.081 239.919 268.462 239.524 268.946 239.313C269.43 239.101 269.978 239.089 270.47 239.28L301.1 251.4C301.533 251.571 301.893 251.888 302.118 252.297C302.342 252.705 302.417 253.179 302.329 253.637C302.241 254.094 301.997 254.507 301.637 254.803C301.278 255.1 300.826 255.261 300.36 255.26Z" fill="black"/>
<path d="M298.55 237.7C298.299 237.698 298.051 237.647 297.82 237.55L281.37 231C281.124 230.905 280.899 230.762 280.709 230.579C280.519 230.397 280.366 230.178 280.26 229.937C280.155 229.695 280.098 229.435 280.093 229.171C280.088 228.907 280.136 228.645 280.233 228.4C280.33 228.155 280.474 227.931 280.658 227.742C280.842 227.553 281.061 227.402 281.303 227.298C281.546 227.193 281.806 227.138 282.07 227.135C282.334 227.132 282.595 227.181 282.84 227.28L299.29 233.8C299.783 233.994 300.179 234.376 300.391 234.861C300.602 235.347 300.613 235.897 300.42 236.39C300.279 236.773 300.025 237.104 299.69 237.338C299.356 237.572 298.958 237.699 298.55 237.7Z" fill="url(#paint15_linear)"/>
<path opacity="0.5" d="M298.55 237.7C298.299 237.698 298.051 237.647 297.82 237.55L281.37 231C281.124 230.905 280.899 230.762 280.709 230.579C280.519 230.397 280.366 230.178 280.26 229.937C280.155 229.695 280.098 229.435 280.093 229.171C280.088 228.907 280.136 228.645 280.233 228.4C280.33 228.155 280.474 227.931 280.658 227.742C280.842 227.553 281.061 227.402 281.303 227.298C281.546 227.193 281.806 227.138 282.07 227.135C282.334 227.132 282.595 227.181 282.84 227.28L299.29 233.8C299.783 233.994 300.179 234.376 300.391 234.861C300.602 235.347 300.613 235.897 300.42 236.39C300.279 236.773 300.025 237.104 299.69 237.338C299.356 237.572 298.958 237.699 298.55 237.7Z" fill="white"/>
<path d="M264.16 255C263.91 254.997 263.663 254.95 263.43 254.86L233.56 243C233.314 242.905 233.089 242.762 232.899 242.579C232.709 242.397 232.556 242.178 232.45 241.937C232.345 241.695 232.288 241.435 232.283 241.171C232.278 240.907 232.326 240.645 232.423 240.4C232.52 240.155 232.664 239.931 232.848 239.742C233.032 239.553 233.251 239.402 233.493 239.298C233.736 239.193 233.996 239.138 234.26 239.135C234.524 239.132 234.785 239.181 235.03 239.28L264.9 251.1C265.333 251.271 265.693 251.588 265.918 251.997C266.142 252.405 266.217 252.879 266.129 253.337C266.041 253.794 265.797 254.207 265.437 254.503C265.078 254.8 264.626 254.961 264.16 254.96V255Z" fill="url(#paint16_linear)"/>
<path opacity="0.3" d="M264.16 255C263.91 254.997 263.663 254.95 263.43 254.86L233.56 243C233.314 242.905 233.089 242.762 232.899 242.579C232.709 242.397 232.556 242.178 232.45 241.937C232.345 241.695 232.288 241.435 232.283 241.171C232.278 240.907 232.326 240.645 232.423 240.4C232.52 240.155 232.664 239.931 232.848 239.742C233.032 239.553 233.251 239.402 233.493 239.298C233.736 239.193 233.996 239.138 234.26 239.135C234.524 239.132 234.785 239.181 235.03 239.28L264.9 251.1C265.333 251.271 265.693 251.588 265.918 251.997C266.142 252.405 266.217 252.879 266.129 253.337C266.041 253.794 265.797 254.207 265.437 254.503C265.078 254.8 264.626 254.961 264.16 254.96V255Z" fill="black"/>
<path d="M372.3 164.82C374.95 169.99 377.38 175.17 379.69 180.47C382 185.77 384.15 191.14 386.03 196.77L386.71 198.9C386.83 199.28 387 199.9 387.1 200.34C387.2 200.78 387.29 201.28 387.34 201.7C387.569 203.313 387.686 204.941 387.69 206.57C387.705 209.575 387.565 212.579 387.27 215.57C386.712 221.36 385.803 227.11 384.55 232.79L379.06 232.18C378.99 226.55 378.94 220.86 378.74 215.31C378.65 212.55 378.49 209.78 378.21 207.18C378.083 205.959 377.883 204.747 377.61 203.55C377.56 203.27 377.48 203.06 377.42 202.83C377.36 202.6 377.3 202.52 377.2 202.22L376.44 200.33C374.35 195.27 372 190.17 369.6 185.09L362.34 169.85L372.3 164.82Z" fill="#E4897B"/>
<path d="M379.14 230.42L376.58 235.21L384.76 237.49C384.76 237.49 386.32 233.64 384.46 230.6L379.14 230.42Z" fill="#E4897B"/>
<path d="M373.45 242.11L380.97 242.71L384.76 237.49L376.58 235.21L373.45 242.11Z" fill="#E4897B"/>
<path d="M337.87 130.26C337.76 130.85 337.35 131.26 336.97 131.18C336.59 131.1 336.38 130.57 336.5 129.99C336.62 129.41 337.02 128.99 337.4 129.07C337.78 129.15 338 129.68 337.87 130.26Z" fill="#263238"/>
<path d="M337.41 131.26C336.354 132.896 335.079 134.38 333.62 135.67C333.961 136.032 334.376 136.316 334.837 136.503C335.297 136.689 335.793 136.774 336.29 136.75L337.41 131.26Z" fill="#DE5753"/>
<path d="M340.65 127.47C340.555 127.468 340.466 127.428 340.4 127.36C340.113 127.031 339.752 126.775 339.347 126.612C338.942 126.448 338.505 126.383 338.07 126.42C337.987 126.421 337.907 126.392 337.843 126.339C337.779 126.286 337.736 126.212 337.722 126.131C337.707 126.049 337.722 125.965 337.764 125.894C337.806 125.822 337.872 125.768 337.95 125.74C338.506 125.67 339.071 125.738 339.594 125.938C340.118 126.139 340.583 126.466 340.95 126.89C341.014 126.955 341.05 127.043 341.05 127.135C341.05 127.227 341.014 127.315 340.95 127.38C340.91 127.417 340.862 127.444 340.81 127.459C340.758 127.475 340.704 127.479 340.65 127.47Z" fill="#263238"/>
<path d="M354.41 138.43C353.36 143.81 352.31 153.65 356.07 157.24C356.07 157.24 354.6 162.69 344.61 162.69C333.61 162.69 339.37 157.24 339.37 157.24C345.37 155.81 345.2 151.36 344.16 147.19L354.41 138.43Z" fill="#E4897B"/>
<path d="M357.58 160.63C358.37 158 359.24 154.99 357.44 154.04C355.44 153.04 344.57 151.94 340.82 153.89C337.07 155.84 338.14 161.19 338.14 161.19L357.58 160.63Z" fill="#263238"/>
<path d="M380.64 410C380.329 410.041 380.014 410.02 379.712 409.938C379.409 409.855 379.127 409.713 378.88 409.52C378.793 409.399 378.746 409.254 378.746 409.105C378.746 408.956 378.793 408.811 378.88 408.69C378.937 408.586 379.016 408.496 379.111 408.425C379.206 408.355 379.314 408.305 379.43 408.28C380.51 408.04 382.53 409.42 382.62 409.48C382.646 409.502 382.666 409.529 382.678 409.561C382.69 409.592 382.694 409.626 382.69 409.66C382.684 409.692 382.669 409.722 382.646 409.745C382.622 409.769 382.592 409.784 382.56 409.79C381.929 409.926 381.286 409.996 380.64 410ZM379.72 408.6H379.51C379.442 408.614 379.378 408.643 379.323 408.684C379.268 408.726 379.222 408.779 379.19 408.84C379.03 409.12 379.13 409.24 379.19 409.28C379.5 409.7 381 409.7 382.1 409.52C381.383 409.047 380.57 408.739 379.72 408.62V408.6Z" fill="url(#paint17_linear)"/>
<path d="M382.52 409.82H382.44C381.68 409.4 380.21 407.82 380.36 406.98C380.386 406.85 380.455 406.733 380.558 406.65C380.66 406.566 380.788 406.52 380.92 406.52C381.052 406.506 381.185 406.518 381.312 406.556C381.439 406.594 381.557 406.656 381.66 406.74C382.51 407.44 382.66 409.56 382.66 409.65C382.664 409.682 382.659 409.714 382.644 409.742C382.63 409.771 382.608 409.794 382.58 409.81C382.561 409.818 382.541 409.821 382.52 409.82ZM381.04 406.82H381C380.77 406.82 380.75 406.96 380.74 407C380.65 407.49 381.59 408.7 382.34 409.27C382.289 408.435 381.99 407.634 381.48 406.97C381.413 406.917 381.336 406.879 381.253 406.857C381.171 406.834 381.085 406.829 381 406.84L381.04 406.82Z" fill="url(#paint18_linear)"/>
<path d="M336.53 410C335.59 410 334.68 409.87 334.37 409.45C334.292 409.339 334.25 409.206 334.25 409.07C334.25 408.934 334.292 408.801 334.37 408.69C334.431 408.587 334.512 408.498 334.608 408.428C334.704 408.357 334.814 408.307 334.93 408.28C336.14 407.95 338.72 409.41 338.83 409.47C338.859 409.489 338.883 409.516 338.897 409.548C338.911 409.58 338.916 409.616 338.91 409.65C338.904 409.685 338.888 409.717 338.862 409.743C338.837 409.768 338.805 409.784 338.77 409.79C338.031 409.929 337.282 409.999 336.53 410ZM335.36 408.58C335.251 408.564 335.139 408.564 335.03 408.58C334.96 408.594 334.893 408.622 334.834 408.664C334.776 408.705 334.727 408.758 334.69 408.82C334.56 409.04 334.61 409.14 334.69 409.2C335.02 409.66 336.88 409.69 338.26 409.5C337.361 409.015 336.376 408.709 335.36 408.6V408.58Z" fill="url(#paint19_linear)"/>
<path d="M338.75 409.82H338.68C337.79 409.43 336.04 407.82 336.17 407.01C336.17 406.81 336.34 406.57 336.82 406.52C336.999 406.493 337.181 406.506 337.354 406.558C337.527 406.61 337.686 406.699 337.82 406.82C338.76 407.58 338.95 409.56 338.96 409.65C338.964 409.681 338.959 409.712 338.947 409.74C338.935 409.768 338.915 409.792 338.89 409.81C338.869 409.822 338.845 409.828 338.821 409.83C338.797 409.832 338.773 409.828 338.75 409.82ZM336.96 406.82H336.85C336.54 406.82 336.52 406.98 336.51 407.02C336.43 407.52 337.63 408.77 338.51 409.31C338.424 408.47 338.074 407.679 337.51 407.05C337.367 406.927 337.188 406.853 337 406.84L336.96 406.82Z" fill="url(#paint20_linear)"/>
<path d="M346.83 409.64H339.48L338.75 392.63H346.1L346.83 409.64Z" fill="#E4897B"/>
<path d="M390.94 409.64H383.59L379.9 392.63H387.24L390.94 409.64Z" fill="#E4897B"/>
<path d="M383.07 408.79H391.32C391.467 408.791 391.61 408.842 391.724 408.935C391.839 409.027 391.918 409.156 391.95 409.3L393.4 415.83C393.433 415.989 393.43 416.153 393.391 416.311C393.351 416.469 393.277 416.615 393.173 416.74C393.07 416.865 392.939 416.965 392.791 417.033C392.643 417.1 392.482 417.133 392.32 417.13C389.44 417.08 388.04 416.91 384.41 416.91C382.18 416.91 377.58 417.15 374.49 417.15C371.4 417.15 371.01 414.15 372.27 413.82C377.93 412.58 380.06 410.87 381.87 409.25C382.199 408.953 382.627 408.789 383.07 408.79Z" fill="#263238"/>
<path d="M339.53 408.79H347.53C347.677 408.791 347.82 408.842 347.934 408.935C348.049 409.027 348.128 409.156 348.16 409.3L349.61 415.83C349.645 415.988 349.643 416.151 349.606 416.308C349.569 416.465 349.496 416.611 349.394 416.736C349.292 416.861 349.164 416.962 349.017 417.03C348.871 417.098 348.711 417.132 348.55 417.13C345.66 417.08 341.48 416.91 337.84 416.91C333.59 416.91 329.91 417.15 324.92 417.15C321.92 417.15 321.07 414.15 322.33 413.82C328.08 412.56 332.77 412.43 337.74 409.37C338.269 409.01 338.89 408.809 339.53 408.79Z" fill="#263238"/>
<path d="M336 170.14C329.857 169.664 323.745 168.853 317.69 167.71C314.69 167.13 311.63 166.48 308.59 165.66C305.474 164.863 302.414 163.86 299.43 162.66C298.66 162.34 297.88 161.99 297.11 161.66C296.243 161.233 295.408 160.745 294.61 160.2C293.17 159.25 291.93 158.26 290.7 157.28C288.25 155.28 285.98 153.28 283.7 151.23C279.23 147.09 274.99 142.81 270.9 138.31L274.58 134.2L289.09 144.63C291.48 146.35 293.9 148.04 296.28 149.63C297.46 150.42 298.67 151.16 299.78 151.79C300.244 152.055 300.725 152.289 301.22 152.49C301.81 152.72 302.41 152.95 303.04 153.17C308.445 154.834 313.972 156.071 319.57 156.87C325.28 157.77 331.18 158.51 336.88 159.11L336 170.14Z" fill="#E4897B"/>
<path d="M369.22 158.9C376.11 160.48 383.07 180.61 383.07 180.61L368.9 190.78C368.9 190.78 364.9 181.4 361.04 173.2C357 164.61 362.18 157.29 369.22 158.9Z" fill="url(#paint21_linear)"/>
<path opacity="0.4" d="M369.22 158.9C376.11 160.48 383.07 180.61 383.07 180.61L368.9 190.78C368.9 190.78 364.9 181.4 361.04 173.2C357 164.61 362.18 157.29 369.22 158.9Z" fill="black"/>
<path d="M365.25 169.9L362.44 176.19C365.35 182.47 368.01 188.69 368.72 190.35C368.62 182.92 367.21 173.7 365.25 169.9Z" fill="url(#paint22_linear)"/>
<path opacity="0.6" d="M365.25 169.9L362.44 176.19C365.35 182.47 368.01 188.69 368.72 190.35C368.62 182.92 367.21 173.7 365.25 169.9Z" fill="black"/>
<path d="M328.07 159.28C328.07 159.28 320.25 168.11 327.63 222.78H366.92C367.2 216.78 363.41 187.32 369.22 158.9C364.877 158.064 360.485 157.509 356.07 157.24C350.508 156.92 344.932 156.92 339.37 157.24C335.556 157.624 331.778 158.306 328.07 159.28Z" fill="url(#paint23_linear)"/>
<path opacity="0.4" d="M328.07 159.28C328.07 159.28 320.25 168.11 327.63 222.78H366.92C367.2 216.78 363.41 187.32 369.22 158.9C364.877 158.064 360.485 157.509 356.07 157.24C350.508 156.92 344.932 156.92 339.37 157.24C335.556 157.624 331.778 158.306 328.07 159.28Z" fill="black"/>
<path d="M325.16 169.9C324.9 171.97 324.7 174.42 324.57 177.31C328.45 176.145 332.137 174.413 335.51 172.17L325.16 169.9Z" fill="url(#paint24_linear)"/>
<path opacity="0.6" d="M325.16 169.9C324.9 171.97 324.7 174.42 324.57 177.31C328.45 176.145 332.137 174.413 335.51 172.17L325.16 169.9Z" fill="black"/>
<path d="M342 171C336.74 175.66 316.66 175.19 316.66 175.19L316 155.75C322.781 156.716 329.621 157.21 336.47 157.23C347.66 157 347.74 165.86 342 171Z" fill="url(#paint25_linear)"/>
<path opacity="0.4" d="M342 171C336.74 175.66 316.66 175.19 316.66 175.19L316 155.75C322.781 156.716 329.621 157.21 336.47 157.23C347.66 157 347.74 165.86 342 171Z" fill="black"/>
<path d="M274.77 134.24L269.77 128.35L264.38 134.35C264.38 134.35 267.7 139.93 272.97 139.05L274.77 134.24Z" fill="#E4897B"/>
<path d="M262.61 121.48L260.67 129.17L264.34 134.31L269.73 128.35L262.61 121.48Z" fill="#E4897B"/>
<path d="M338.75 392.64L339.13 401.4H346.48L346.1 392.64H338.75Z" fill="#CE6F64"/>
<path d="M387.25 392.64H379.9L381.8 401.4H389.15L387.25 392.64Z" fill="#CE6F64"/>
<path d="M343.17 123C336.58 120 334.5 106.67 353.46 110C353.46 110 350.6 113.16 356.4 115.16C362.2 117.16 357.35 129.51 343.17 123Z" fill="#263238"/>
<path d="M357.49 133C355.6 140 354.86 144.26 350.49 147.19C343.95 151.59 335.82 146.54 335.56 139.07C335.33 132.36 338.46 121.97 346.01 120.55C347.676 120.223 349.399 120.329 351.013 120.857C352.627 121.385 354.079 122.318 355.23 123.566C356.381 124.815 357.193 126.337 357.589 127.989C357.985 129.64 357.951 131.365 357.49 133Z" fill="#E4897B"/>
<path d="M353.2 113.5C357.69 116 363.77 117.5 363.2 121.06C362.45 125.41 366.87 122.69 365.84 129.16C365.17 133.39 357.37 146.21 351.84 145.59C343.58 144.59 344.63 132.03 344.6 125.41C344.58 121.5 344.4 108.57 353.2 113.5Z" fill="#263238"/>
<path d="M343.61 119.11C341.61 119.58 338.96 131.11 346.71 132.17C355.62 133.38 343.61 119.11 343.61 119.11Z" fill="#263238"/>
<path d="M343.81 123.2C341.36 123.42 335.81 120.47 336.49 116.03C336.49 116 340 121.22 343.81 123.2Z" fill="#263238"/>
<path d="M347.45 133.09C346.698 134.739 345.422 136.092 343.82 136.94C341.71 138.04 340.52 136.44 341 134.32C341.43 132.42 343.05 129.55 345.22 129.32C347.39 129.09 348.32 131.09 347.45 133.09Z" fill="#E4897B"/>
<path d="M358.45 125C359.945 124.352 361.255 123.342 362.264 122.063C363.272 120.784 363.948 119.275 364.23 117.67C364.23 117.67 367.53 126.84 358.45 125Z" fill="#263238"/>
<path d="M366.79 124.85C366.094 124.383 365.293 124.095 364.459 124.013C363.625 123.931 362.784 124.057 362.01 124.38C362.01 124.38 365.09 120.39 366.79 124.85Z" fill="#263238"/>
<path d="M341.57 222.78C341.57 222.78 349.91 278.92 354.48 299.95C359.48 322.95 378.38 399.71 378.38 399.71H391.83C391.83 399.71 379.38 324.84 376.52 302C373.42 277.25 366.92 222.74 366.92 222.74L341.57 222.78Z" fill="url(#paint26_linear)"/>
<path opacity="0.5" d="M341.57 222.78C341.57 222.78 349.91 278.92 354.48 299.95C359.48 322.95 378.38 399.71 378.38 399.71H391.83C391.83 399.71 379.38 324.84 376.52 302C373.42 277.25 366.92 222.74 366.92 222.74L341.57 222.78Z" fill="white"/>
<path d="M376.23 394.75C376.17 394.75 377.62 399.92 377.62 399.92H392.76L392.48 395.31L376.23 394.75Z" fill="url(#paint27_linear)"/>
<path opacity="0.1" d="M376.23 394.75C376.17 394.75 377.62 399.92 377.62 399.92H392.76L392.48 395.31L376.23 394.75Z" fill="black"/>
<path d="M346.84 242.78C356.48 244.67 355.46 280.62 354.3 299.11C351.52 286.04 347.45 260.89 344.67 243.04C345.343 242.709 346.108 242.617 346.84 242.78Z" fill="url(#paint28_linear)"/>
<path opacity="0.4" d="M346.84 242.78C356.48 244.67 355.46 280.62 354.3 299.11C351.52 286.04 347.45 260.89 344.67 243.04C345.343 242.709 346.108 242.617 346.84 242.78Z" fill="white"/>
<path d="M327.63 222.78C327.63 222.78 326.63 277.7 327.42 300.11C328.25 323.41 336.42 399.71 336.42 399.71H348.86C348.86 399.71 349.32 324.77 349.86 301.89C350.47 276.94 353.48 222.78 353.48 222.78H327.63Z" fill="url(#paint29_linear)"/>
<path opacity="0.5" d="M327.63 222.78C327.63 222.78 326.63 277.7 327.42 300.11C328.25 323.41 336.42 399.71 336.42 399.71H348.86C348.86 399.71 349.32 324.77 349.86 301.89C350.47 276.94 353.48 222.78 353.48 222.78H327.63Z" fill="white"/>
<path d="M339 390.77C338.97 390.77 338.941 390.759 338.919 390.738C338.896 390.718 338.883 390.69 338.88 390.66C336.68 369.54 331.51 318.44 330.88 300.11C330.21 281.4 330.82 239.42 331.02 227C331.02 226.968 331.033 226.938 331.055 226.915C331.078 226.893 331.108 226.88 331.14 226.88C331.173 226.88 331.205 226.892 331.229 226.914C331.253 226.937 331.268 226.967 331.27 227C331.07 239.42 330.46 281.4 331.13 300.1C331.78 318.43 336.95 369.51 339.13 390.63C339.13 390.664 339.118 390.697 339.096 390.723C339.074 390.748 339.044 390.765 339.01 390.77H339Z" fill="url(#paint30_linear)"/>
<path opacity="0.4" d="M339 390.77C338.97 390.77 338.941 390.759 338.919 390.738C338.896 390.718 338.883 390.69 338.88 390.66C336.68 369.54 331.51 318.44 330.88 300.11C330.21 281.4 330.82 239.42 331.02 227C331.02 226.968 331.033 226.938 331.055 226.915C331.078 226.893 331.108 226.88 331.14 226.88C331.173 226.88 331.205 226.892 331.229 226.914C331.253 226.937 331.268 226.967 331.27 227C331.07 239.42 330.46 281.4 331.13 300.1C331.78 318.43 336.95 369.51 339.13 390.63C339.13 390.664 339.118 390.697 339.096 390.723C339.074 390.748 339.044 390.765 339.01 390.77H339Z" fill="white"/>
<path d="M334 394.75C333.95 394.75 334.71 399.92 334.71 399.92H349.84L350.25 395.31L334 394.75Z" fill="url(#paint31_linear)"/>
<path opacity="0.1" d="M334 394.75C333.95 394.75 334.71 399.92 334.71 399.92H349.84L350.25 395.31L334 394.75Z" fill="black"/>
<defs>
<linearGradient id="paint0_linear" x1="433.305" y1="96.2721" x2="433.305" y2="351.671" gradientUnits="userSpaceOnUse">
<stop stop-color="#4070FF"/>
<stop offset="1" stop-color="#365FD9"/>
</linearGradient>
<linearGradient id="paint1_linear" x1="443.89" y1="404.92" x2="443.89" y2="427.56" gradientUnits="userSpaceOnUse">
<stop stop-color="#4070FF"/>
<stop offset="1" stop-color="#365FD9"/>
</linearGradient>
<linearGradient id="paint2_linear" x1="307.42" y1="150.56" x2="307.42" y2="214.25" gradientUnits="userSpaceOnUse">
<stop stop-color="#4070FF"/>
<stop offset="1" stop-color="#365FD9"/>
</linearGradient>
<linearGradient id="paint3_linear" x1="276.83" y1="150.56" x2="276.83" y2="228.02" gradientUnits="userSpaceOnUse">
<stop stop-color="#4070FF"/>
<stop offset="1" stop-color="#365FD9"/>
</linearGradient>
<linearGradient id="paint4_linear" x1="181.557" y1="100.597" x2="238.114" y2="157.153" gradientUnits="userSpaceOnUse">
<stop stop-color="#4070FF"/>
<stop offset="1" stop-color="#365FD9"/>
</linearGradient>
<linearGradient id="paint5_linear" x1="154.049" y1="123.618" x2="218.526" y2="128.131" gradientUnits="userSpaceOnUse">
<stop stop-color="#4070FF"/>
<stop offset="1" stop-color="#365FD9"/>
</linearGradient>
<linearGradient id="paint6_linear" x1="197.023" y1="136.303" x2="197.023" y2="178.037" gradientUnits="userSpaceOnUse">
<stop stop-color="#4070FF"/>
<stop offset="1" stop-color="#365FD9"/>
</linearGradient>
<linearGradient id="paint7_linear" x1="242.275" y1="67.9999" x2="284.912" y2="104.031" gradientUnits="userSpaceOnUse">
<stop stop-color="#4070FF"/>
<stop offset="1" stop-color="#365FD9"/>
</linearGradient>
<linearGradient id="paint8_linear" x1="242.261" y1="77.2907" x2="278.013" y2="104.615" gradientUnits="userSpaceOnUse">
<stop stop-color="#4070FF"/>
<stop offset="1" stop-color="#365FD9"/>
</linearGradient>
<linearGradient id="paint9_linear" x1="256.488" y1="92.8122" x2="256.488" y2="121.778" gradientUnits="userSpaceOnUse">
<stop stop-color="#4070FF"/>
<stop offset="1" stop-color="#365FD9"/>
</linearGradient>
<linearGradient id="paint10_linear" x1="266.25" y1="150.56" x2="266.25" y2="228.02" gradientUnits="userSpaceOnUse">
<stop stop-color="#4070FF"/>
<stop offset="1" stop-color="#365FD9"/>
</linearGradient>
<linearGradient id="paint11_linear" x1="117.449" y1="193.635" x2="138.374" y2="205.892" gradientUnits="userSpaceOnUse">
<stop stop-color="#4070FF"/>
<stop offset="1" stop-color="#365FD9"/>
</linearGradient>
<linearGradient id="paint12_linear" x1="147.612" y1="211.296" x2="155.136" y2="215.703" gradientUnits="userSpaceOnUse">
<stop stop-color="#4070FF"/>
<stop offset="1" stop-color="#365FD9"/>
</linearGradient>
<linearGradient id="paint13_linear" x1="236.89" y1="150.56" x2="236.89" y2="239.3" gradientUnits="userSpaceOnUse">
<stop stop-color="#4070FF"/>
<stop offset="1" stop-color="#365FD9"/>
</linearGradient>
<linearGradient id="paint14_linear" x1="302.365" y1="239.145" x2="302.365" y2="255.26" gradientUnits="userSpaceOnUse">
<stop stop-color="#4070FF"/>
<stop offset="1" stop-color="#365FD9"/>
</linearGradient>
<linearGradient id="paint15_linear" x1="300.558" y1="227.135" x2="300.558" y2="237.7" gradientUnits="userSpaceOnUse">
<stop stop-color="#4070FF"/>
<stop offset="1" stop-color="#365FD9"/>
</linearGradient>
<linearGradient id="paint16_linear" x1="266.165" y1="239.135" x2="266.165" y2="255" gradientUnits="userSpaceOnUse">
<stop stop-color="#4070FF"/>
<stop offset="1" stop-color="#365FD9"/>
</linearGradient>
<linearGradient id="paint17_linear" x1="382.692" y1="408.252" x2="382.692" y2="410.021" gradientUnits="userSpaceOnUse">
<stop stop-color="#4070FF"/>
<stop offset="1" stop-color="#365FD9"/>
</linearGradient>
<linearGradient id="paint18_linear" x1="382.661" y1="406.514" x2="382.661" y2="409.82" gradientUnits="userSpaceOnUse">
<stop stop-color="#4070FF"/>
<stop offset="1" stop-color="#365FD9"/>
</linearGradient>
<linearGradient id="paint19_linear" x1="338.912" y1="408.232" x2="338.912" y2="410" gradientUnits="userSpaceOnUse">
<stop stop-color="#4070FF"/>
<stop offset="1" stop-color="#365FD9"/>
</linearGradient>
<linearGradient id="paint20_linear" x1="338.961" y1="406.506" x2="338.961" y2="409.831" gradientUnits="userSpaceOnUse">
<stop stop-color="#4070FF"/>
<stop offset="1" stop-color="#365FD9"/>
</linearGradient>
<linearGradient id="paint21_linear" x1="383.07" y1="158.676" x2="383.07" y2="190.78" gradientUnits="userSpaceOnUse">
<stop stop-color="#4070FF"/>
<stop offset="1" stop-color="#365FD9"/>
</linearGradient>
<linearGradient id="paint22_linear" x1="368.72" y1="169.9" x2="368.72" y2="190.35" gradientUnits="userSpaceOnUse">
<stop stop-color="#4070FF"/>
<stop offset="1" stop-color="#365FD9"/>
</linearGradient>
<linearGradient id="paint23_linear" x1="369.22" y1="157" x2="369.22" y2="222.78" gradientUnits="userSpaceOnUse">
<stop stop-color="#4070FF"/>
<stop offset="1" stop-color="#365FD9"/>
</linearGradient>
<linearGradient id="paint24_linear" x1="335.51" y1="169.9" x2="335.51" y2="177.31" gradientUnits="userSpaceOnUse">
<stop stop-color="#4070FF"/>
<stop offset="1" stop-color="#365FD9"/>
</linearGradient>
<linearGradient id="paint25_linear" x1="345.761" y1="155.75" x2="345.761" y2="175.203" gradientUnits="userSpaceOnUse">
<stop stop-color="#4070FF"/>
<stop offset="1" stop-color="#365FD9"/>
</linearGradient>
<linearGradient id="paint26_linear" x1="391.83" y1="222.74" x2="391.83" y2="399.71" gradientUnits="userSpaceOnUse">
<stop stop-color="#4070FF"/>
<stop offset="1" stop-color="#365FD9"/>
</linearGradient>
<linearGradient id="paint27_linear" x1="392.76" y1="394.75" x2="392.76" y2="399.92" gradientUnits="userSpaceOnUse">
<stop stop-color="#4070FF"/>
<stop offset="1" stop-color="#365FD9"/>
</linearGradient>
<linearGradient id="paint28_linear" x1="355.026" y1="242.701" x2="355.026" y2="299.11" gradientUnits="userSpaceOnUse">
<stop stop-color="#4070FF"/>
<stop offset="1" stop-color="#365FD9"/>
</linearGradient>
<linearGradient id="paint29_linear" x1="353.48" y1="222.78" x2="353.48" y2="399.71" gradientUnits="userSpaceOnUse">
<stop stop-color="#4070FF"/>
<stop offset="1" stop-color="#365FD9"/>
</linearGradient>
<linearGradient id="paint30_linear" x1="339.13" y1="226.88" x2="339.13" y2="390.77" gradientUnits="userSpaceOnUse">
<stop stop-color="#4070FF"/>
<stop offset="1" stop-color="#365FD9"/>
</linearGradient>
<linearGradient id="paint31_linear" x1="350.25" y1="394.75" x2="350.25" y2="399.92" gradientUnits="userSpaceOnUse">
<stop stop-color="#4070FF"/>
<stop offset="1" stop-color="#365FD9"/>
</linearGradient>
</defs>
</svg>
