<svg width="500" height="500" viewBox="0 0 500 500" fill="none" xmlns="http://www.w3.org/2000/svg">
<path opacity="0.1" d="M248.89 201.09C213.18 209.52 176.03 188.53 140.81 200.85C109.81 211.68 73.81 247.39 69.56 281.27C64.78 319.06 94.56 348.47 130.77 354.5C170.62 361.14 199.92 332.96 233.77 318.55C293.07 293.32 445.77 267.07 410.55 165.86C399.63 134.45 352.28 95.4301 320.05 120.14C289.05 143.9 299.17 189.22 248.89 201.09Z" fill="url(#paint0_linear)"/>
<path opacity="0.1" d="M250 427.56C357.082 427.56 443.89 422.492 443.89 416.24C443.89 409.988 357.082 404.92 250 404.92C142.917 404.92 56.11 409.988 56.11 416.24C56.11 422.492 142.917 427.56 250 427.56Z" fill="url(#paint1_linear)"/>
<path d="M231.73 118.33C228.23 117.26 223.89 123.56 221.22 130.62C218.55 137.68 214.14 138.89 209.42 141.72C218.14 153.92 238.47 151.37 245.23 149.83C251.99 148.29 258.04 153.67 266.67 147.34C274.4 141.67 273.83 124.78 260.18 117.08C263.2 106.71 232.06 105.67 231.73 118.33Z" fill="#263238"/>
<path d="M268.74 224.17H259.14C258.358 224.189 257.582 224.033 256.868 223.714C256.154 223.395 255.52 222.921 255.012 222.326C254.505 221.731 254.136 221.031 253.933 220.276C253.73 219.52 253.698 218.729 253.84 217.96L254.92 210.63C255.208 208.932 256.074 207.386 257.372 206.254C258.669 205.122 260.319 204.474 262.04 204.42H271.63C272.412 204.399 273.189 204.554 273.904 204.872C274.619 205.191 275.254 205.665 275.762 206.26C276.27 206.855 276.639 207.557 276.841 208.313C277.043 209.069 277.073 209.861 276.93 210.63L275.86 218C275.56 219.689 274.69 221.224 273.393 222.347C272.097 223.47 270.454 224.114 268.74 224.17Z" fill="white"/>
<path d="M268.74 224.42H259.14C258.332 224.436 257.53 224.275 256.791 223.949C256.051 223.622 255.392 223.138 254.86 222.53C254.325 221.901 253.934 221.162 253.717 220.365C253.499 219.569 253.459 218.734 253.6 217.92L254.67 210.59C254.967 208.833 255.864 207.233 257.208 206.063C258.551 204.892 260.259 204.224 262.04 204.17H271.63C272.439 204.153 273.241 204.312 273.982 204.637C274.723 204.962 275.384 205.444 275.92 206.05C276.452 206.681 276.841 207.42 277.058 208.216C277.276 209.012 277.317 209.846 277.18 210.66L276.1 218C275.805 219.756 274.91 221.356 273.568 222.526C272.226 223.697 270.52 224.366 268.74 224.42ZM262 204.67C260.338 204.721 258.744 205.347 257.492 206.441C256.239 207.535 255.404 209.03 255.13 210.67L254.09 218C253.964 218.743 254.001 219.505 254.2 220.232C254.399 220.959 254.754 221.634 255.24 222.21C255.723 222.766 256.323 223.209 256.997 223.506C257.672 223.804 258.403 223.948 259.14 223.93H268.74C270.402 223.879 271.995 223.253 273.248 222.159C274.501 221.065 275.335 219.57 275.61 217.93L276.68 210.6C276.81 209.858 276.775 209.096 276.578 208.368C276.381 207.641 276.026 206.966 275.54 206.39C275.055 205.834 274.453 205.392 273.777 205.097C273.101 204.801 272.367 204.659 271.63 204.68L262 204.67Z" fill="#407BFF"/>
<path d="M275.39 213.92H275.34C275.308 213.913 275.277 213.9 275.25 213.881C275.223 213.862 275.2 213.838 275.182 213.81C275.165 213.782 275.153 213.751 275.147 213.718C275.142 213.686 275.143 213.652 275.15 213.62C275.98 209.74 275.86 207.96 272.95 207.03C272.918 207.02 272.889 207.003 272.864 206.981C272.839 206.959 272.819 206.933 272.804 206.903C272.789 206.874 272.78 206.841 272.778 206.808C272.775 206.775 272.779 206.742 272.79 206.71C272.8 206.679 272.817 206.649 272.839 206.624C272.861 206.599 272.887 206.579 272.917 206.564C272.947 206.549 272.979 206.54 273.012 206.538C273.045 206.535 273.078 206.54 273.11 206.55C276.64 207.69 276.39 210.24 275.64 213.73C275.625 213.785 275.592 213.833 275.547 213.867C275.502 213.901 275.447 213.92 275.39 213.92Z" fill="#407BFF"/>
<path d="M293.46 112.35L310.27 94.95L348.25 124.31L331.44 141.72L293.46 112.35Z" fill="#263238"/>
<path d="M311.24 93.95L310.27 94.95L348.25 124.31L350.55 116.14L311.24 93.95Z" fill="#407BFF"/>
<path d="M298.78 106.9C296.32 105.23 294.72 103.18 294.38 101.27C294.282 100.813 294.28 100.341 294.373 99.8838C294.466 99.4262 294.652 98.9926 294.92 98.61C297.67 94.79 301.16 97.16 304.85 99.67L305.34 100L305.07 100.39L304.58 100.06C300.94 97.58 297.79 95.43 295.3 98.88C295.073 99.2128 294.915 99.588 294.836 99.9832C294.757 100.378 294.758 100.785 294.84 101.18C295.16 102.97 296.69 104.92 299.05 106.51L298.78 106.9Z" fill="#263238"/>
<path d="M264.69 159.57L279 148.82L286.18 143.44L287.93 142.12L288.8 141.47L289.22 141.15L289.43 140.97C290.249 140.179 290.962 139.285 291.55 138.31C292.906 135.996 293.974 133.524 294.73 130.95C295.543 128.207 296.211 125.423 296.73 122.61C297.28 119.75 297.73 116.85 298.03 113.92C298.33 110.99 298.65 108.02 298.84 105.13V105.05C298.878 104.475 299.133 103.937 299.554 103.543C299.975 103.15 300.529 102.931 301.105 102.931C301.681 102.931 302.235 103.15 302.656 103.543C303.077 103.937 303.332 104.475 303.37 105.05C303.883 111.211 303.856 117.404 303.29 123.56C303.014 126.707 302.523 129.831 301.82 132.91C301.109 136.179 299.969 139.34 298.43 142.31C297.559 143.973 296.458 145.504 295.16 146.86L294.56 147.44L294.1 147.84L293.22 148.6L291.45 150.12C289.15 152.08 286.817 154.013 284.45 155.92L277.33 161.56C274.91 163.39 272.52 165.22 270.01 166.99C269.026 167.634 267.832 167.875 266.676 167.663C265.519 167.451 264.488 166.803 263.797 165.851C263.106 164.9 262.806 163.72 262.961 162.554C263.116 161.389 263.714 160.327 264.63 159.59L264.69 159.57Z" fill="#FFC3BD"/>
<path d="M298.92 107.47L291.11 103.8L299.18 99.5901C299.18 99.5901 305.42 102.78 303.42 107.33L298.92 107.47Z" fill="#FFC3BD"/>
<path d="M289.47 98.43L296.42 95.27L299.18 99.59L291.11 103.8L289.47 98.43Z" fill="#FFC3BD"/>
<path d="M273.82 163.66C273.96 170.15 273.05 183.66 268.49 211.66H232.14C232.75 196.87 233.47 187.6 226.4 157.24C231.256 156.242 236.18 155.61 241.13 155.35C246.626 154.954 252.144 154.954 257.64 155.35C261.19 155.67 264.99 156.25 267.89 156.74C269.529 157.023 271.018 157.87 272.1 159.133C273.183 160.396 273.791 161.997 273.82 163.66Z" fill="#263238"/>
<path d="M273 207C272.933 206.99 272.872 206.954 272.831 206.9C272.79 206.846 272.771 206.778 272.78 206.71C276.09 184 243 159.31 236 156C235.967 155.989 235.936 155.971 235.91 155.947C235.884 155.923 235.863 155.894 235.849 155.862C235.835 155.829 235.828 155.794 235.829 155.759C235.829 155.724 235.837 155.689 235.852 155.657C235.867 155.625 235.889 155.597 235.915 155.573C235.942 155.55 235.973 155.533 236.007 155.523C236.041 155.513 236.076 155.51 236.111 155.515C236.146 155.519 236.18 155.531 236.21 155.55C240.37 157.55 250.49 164.75 259 174.07C266.51 182.28 275.08 194.62 273.31 206.81C273.293 206.876 273.252 206.933 273.194 206.968C273.136 207.004 273.066 207.015 273 207Z" fill="#407BFF"/>
<path d="M242.77 136.79C243.77 142.1 244.85 151.79 241.13 155.38C245.302 159.789 250.331 163.298 255.91 165.69C263.01 161.24 257.64 155.38 257.64 155.38C251.72 153.96 251.87 149.57 252.9 145.44L242.77 136.79Z" fill="#FFC3BD"/>
<path opacity="0.2" d="M246.9 140.32L252.9 145.44C252.645 146.4 252.474 147.38 252.39 148.37C250.13 148.04 247.02 145.56 246.78 143.19C246.646 142.234 246.687 141.262 246.9 140.32Z" fill="black"/>
<path d="M236.46 130C239.95 138.16 241.26 141.7 247 144.48C255.65 148.66 264.92 142.59 263.93 133.54C263.05 125.4 257.49 113.41 248.13 113C246.066 112.901 244.012 113.331 242.161 114.249C240.31 115.167 238.725 116.543 237.556 118.247C236.387 119.95 235.672 121.924 235.48 123.981C235.289 126.038 235.626 128.11 236.46 130Z" fill="#FFC3BD"/>
<path d="M246.71 117.46C248.71 122.35 240.88 131.92 235.26 135.68C228.1 120.78 232.36 114.59 246.71 117.46Z" fill="#263238"/>
<path d="M253.14 112.54C262.81 115 239.39 123.13 232.64 123.54C239.64 112.08 244.06 109.58 253.14 112.54Z" fill="#263238"/>
<path d="M268.49 211.69C268.49 211.69 265.36 277.16 265.66 304.46C265.97 332.86 247.34 404.13 247.34 404.13L240.17 402.13C240.17 402.13 243.62 344.13 247.01 304.54C241.89 274.14 239.06 211.65 239.06 211.65L268.49 211.69Z" fill="#FFC3BD"/>
<path d="M246.76 402.49L240.08 400.94C239.909 400.899 239.729 400.92 239.573 401.001C239.417 401.082 239.295 401.216 239.23 401.38L236.5 408.05C236.433 408.243 236.407 408.449 236.425 408.653C236.442 408.857 236.503 409.055 236.602 409.234C236.701 409.413 236.836 409.569 237 409.693C237.163 409.816 237.35 409.904 237.55 409.95C241.01 410.69 241.25 410.53 245.55 411.54C248.23 412.16 252.85 414.4 256.64 414.4C260.43 414.4 259.72 410.82 258.13 410.54C252.38 409.49 252.13 407.45 248.05 403.37C247.707 402.966 247.261 402.662 246.76 402.49Z" fill="#407BFF"/>
<path d="M259 211.69C259 211.69 238.93 305.76 234.14 314.81C227.68 327.03 167.35 309.7 165.29 309.74L164.99 303.55C164.99 303.55 194.7 302.87 219.32 304.1C219.32 273.27 232.15 211.69 232.15 211.69H259Z" fill="#FFC3BD"/>
<path d="M166.12 309.66L170.6 304.46C170.715 304.329 170.779 304.16 170.779 303.985C170.779 303.81 170.715 303.641 170.6 303.51L166 298C165.86 297.85 165.691 297.731 165.502 297.651C165.313 297.571 165.109 297.532 164.904 297.537C164.699 297.541 164.497 297.59 164.312 297.678C164.127 297.767 163.962 297.893 163.83 298.05C161.57 300.76 161.6 301.05 158.68 304.43C156.89 306.51 155.58 308.25 152.91 310.93C150.24 313.61 152.78 316.45 154.1 315.53C158.9 312.18 159.21 312.2 164.74 310.45C165.263 310.316 165.739 310.043 166.12 309.66Z" fill="#407BFF"/>
<path d="M250 127.81C250.24 128.49 250.8 128.91 251.24 128.76C251.68 128.61 251.85 127.92 251.61 127.24C251.37 126.56 250.81 126.13 250.36 126.29C249.91 126.45 249.72 127.13 250 127.81Z" fill="#263238"/>
<path d="M257.64 125.07C257.89 125.75 258.44 126.17 258.89 126.01C259.34 125.85 259.5 125.18 259.25 124.5C259 123.82 258.45 123.39 258.01 123.5C257.57 123.61 257.4 124.39 257.64 125.07Z" fill="#263238"/>
<path d="M257.83 123.66L259.29 122.66C259.29 122.66 258.91 124.18 257.83 123.66Z" fill="#263238"/>
<path d="M256 127C257.167 128.338 258.513 129.509 260 130.48C259.742 130.852 259.407 131.162 259.016 131.39C258.626 131.618 258.19 131.758 257.74 131.8L256 127Z" fill="#ED847E"/>
<path d="M255.13 135.6C255.527 135.525 255.918 135.421 256.3 135.29C256.353 135.271 256.397 135.232 256.421 135.182C256.445 135.131 256.449 135.073 256.43 135.02C256.411 134.967 256.373 134.923 256.322 134.899C256.271 134.875 256.213 134.871 256.16 134.89C255.322 135.214 254.419 135.334 253.525 135.24C252.631 135.146 251.773 134.841 251.02 134.35C250.998 134.333 250.972 134.32 250.945 134.313C250.918 134.306 250.89 134.304 250.862 134.308C250.834 134.311 250.807 134.321 250.783 134.335C250.758 134.349 250.737 134.368 250.72 134.39C250.703 134.412 250.69 134.438 250.683 134.465C250.676 134.492 250.674 134.52 250.678 134.548C250.682 134.576 250.691 134.603 250.705 134.627C250.719 134.652 250.738 134.673 250.76 134.69C252.043 135.55 253.61 135.876 255.13 135.6Z" fill="#263238"/>
<path d="M236.09 135.05C236.994 136.493 238.432 137.521 240.09 137.91C242.31 138.4 243.29 136.38 242.57 134.35C241.91 132.52 239.97 130.07 237.79 130.49C237.319 130.597 236.883 130.82 236.519 131.137C236.156 131.455 235.877 131.859 235.709 132.311C235.54 132.763 235.487 133.25 235.553 133.729C235.62 134.207 235.804 134.661 236.09 135.05Z" fill="#FFC3BD"/>
<path d="M242.29 138.53C242.29 138.926 242.173 139.312 241.953 139.641C241.733 139.97 241.421 140.226 241.055 140.378C240.69 140.529 240.288 140.569 239.9 140.492C239.512 140.414 239.155 140.224 238.876 139.944C238.596 139.665 238.406 139.308 238.328 138.92C238.251 138.532 238.291 138.13 238.442 137.765C238.594 137.399 238.85 137.087 239.179 136.867C239.508 136.647 239.894 136.53 240.29 136.53C240.82 136.53 241.329 136.741 241.704 137.116C242.079 137.491 242.29 138 242.29 138.53Z" fill="#407BFF"/>
<path d="M247.51 124.94C247.622 124.911 247.719 124.839 247.78 124.74C248.024 124.267 248.376 123.858 248.806 123.546C249.237 123.233 249.735 123.026 250.26 122.94C250.315 122.936 250.369 122.922 250.419 122.897C250.468 122.872 250.512 122.838 250.548 122.796C250.585 122.754 250.612 122.706 250.63 122.653C250.647 122.601 250.654 122.545 250.65 122.49C250.646 122.435 250.631 122.381 250.607 122.331C250.582 122.282 250.548 122.238 250.506 122.201C250.464 122.165 250.416 122.138 250.363 122.12C250.311 122.103 250.255 122.096 250.2 122.1C249.531 122.19 248.894 122.439 248.342 122.827C247.791 123.216 247.34 123.731 247.03 124.33C247.004 124.379 246.987 124.432 246.981 124.487C246.976 124.542 246.981 124.597 246.997 124.65C247.012 124.703 247.039 124.753 247.073 124.795C247.108 124.838 247.151 124.874 247.2 124.9C247.246 124.928 247.297 124.946 247.351 124.953C247.404 124.96 247.458 124.956 247.51 124.94Z" fill="#263238"/>
<path d="M260 120.17C260.092 120.118 260.16 120.032 260.19 119.93C260.207 119.877 260.213 119.821 260.208 119.765C260.203 119.71 260.187 119.656 260.161 119.606C260.135 119.557 260.1 119.513 260.056 119.478C260.013 119.442 259.964 119.416 259.91 119.4C259.269 119.193 258.588 119.141 257.924 119.251C257.259 119.361 256.63 119.628 256.09 120.03C256.038 120.063 255.993 120.106 255.96 120.158C255.926 120.209 255.903 120.267 255.894 120.328C255.885 120.389 255.888 120.451 255.905 120.51C255.922 120.57 255.951 120.625 255.991 120.672C256.03 120.719 256.08 120.757 256.136 120.783C256.191 120.809 256.252 120.823 256.313 120.824C256.375 120.825 256.436 120.812 256.492 120.787C256.549 120.763 256.599 120.726 256.64 120.68C257.067 120.37 257.562 120.166 258.084 120.084C258.605 120.003 259.138 120.046 259.64 120.21C259.699 120.229 259.762 120.236 259.824 120.229C259.886 120.222 259.946 120.202 260 120.17Z" fill="#263238"/>
<path d="M250.14 126.4L251.61 125.35C251.61 125.35 251.22 126.92 250.14 126.4Z" fill="#263238"/>
<path d="M268.49 211.69L267.38 294.85L218.83 285C216.83 245.57 222.1 222.63 232.14 211.68L268.49 211.69Z" fill="#263238"/>
<path d="M268.37 213.67L231.47 212.48C231.39 212.477 231.312 212.456 231.242 212.418C231.171 212.381 231.11 212.328 231.063 212.263C231.016 212.199 230.984 212.125 230.97 212.046C230.955 211.968 230.959 211.887 230.98 211.81L231.54 209.81C231.571 209.697 231.64 209.599 231.734 209.53C231.828 209.461 231.943 209.426 232.06 209.43L268.46 210.62C268.599 210.625 268.73 210.685 268.825 210.786C268.921 210.887 268.973 211.021 268.97 211.16L268.91 213.16C268.905 213.299 268.845 213.43 268.744 213.525C268.643 213.621 268.509 213.673 268.37 213.67Z" fill="#407BFF"/>
<path opacity="0.4" d="M257.71 270.79L247.12 251.34L248.43 233.91L257.71 270.79Z" fill="black"/>
<path d="M228.16 165.67C225.01 160.58 222.16 155.49 219.48 150.18C216.711 144.855 214.328 139.337 212.35 133.67C211.86 132.21 211.42 130.67 211.04 129.15C210.84 128.38 210.68 127.57 210.53 126.76L210.2 124.51C209.82 121.51 209.5 118.67 209.2 115.76C208.68 109.94 208.28 104.13 208.11 98.2901C208.095 97.7288 208.287 97.1816 208.65 96.7532C209.013 96.3248 209.521 96.0455 210.077 95.9687C210.633 95.8919 211.198 96.023 211.664 96.337C212.129 96.6509 212.463 97.1256 212.6 97.6701C213.99 103.33 215.2 109.01 216.39 114.67L218.14 123.11L218.59 125.11C218.75 125.71 218.9 126.32 219.09 126.95C219.46 128.2 219.9 129.46 220.4 130.74C221.4 133.28 222.51 135.84 223.72 138.37C224.93 140.9 226.2 143.44 227.53 145.95C230.21 150.95 233.04 155.95 235.91 160.81V160.87C236.54 161.907 236.732 163.152 236.444 164.33C236.156 165.509 235.412 166.525 234.375 167.155C233.338 167.785 232.093 167.977 230.915 167.689C229.736 167.401 228.72 166.657 228.09 165.62L228.16 165.67Z" fill="#FFC3BD"/>
<path d="M211.69 100.28L220.29 95.8701L211.9 92.3501C211.9 92.3501 207.4 95.9201 208.06 99.5901L211.69 100.28Z" fill="#FFC3BD"/>
<path d="M223.45 89.04L216.27 86.48L210.83 93.34L220.29 95.87L223.45 89.04Z" fill="#FFC3BD"/>
<path d="M177.782 99.5347L174.386 101.648L174.915 102.497L178.311 100.384L177.782 99.5347Z" fill="#407BFF"/>
<path d="M188.116 93.0992L180.934 97.5698L181.463 98.4188L188.645 93.9482L188.116 93.0992Z" fill="#407BFF"/>
<path d="M202.5 88.27L220.54 104.43L180.01 136.27L163.92 112.27L202.5 88.27Z" fill="#407BFF"/>
<path d="M221.57 105.36L220.54 104.43L180.01 136.27L189.28 140.32L221.57 105.36Z" fill="#263238"/>
<path d="M208.35 93.76C208.315 93.7596 208.281 93.7513 208.25 93.7357C208.218 93.7201 208.191 93.6977 208.17 93.67C208.148 93.6477 208.13 93.6212 208.118 93.592C208.106 93.5629 208.099 93.5316 208.099 93.5C208.099 93.4684 208.106 93.4371 208.118 93.408C208.13 93.3788 208.148 93.3523 208.17 93.33C210.17 91.6 211.68 90.23 213.42 89.73C213.45 89.7208 213.482 89.7176 213.513 89.7206C213.545 89.7236 213.575 89.7329 213.603 89.7477C213.631 89.7626 213.656 89.7828 213.676 89.8072C213.696 89.8316 213.711 89.8598 213.72 89.89C213.729 89.9202 213.732 89.9519 213.729 89.9834C213.726 90.0148 213.717 90.0453 213.702 90.0732C213.687 90.1011 213.667 90.1258 213.643 90.1458C213.618 90.1658 213.59 90.1809 213.56 90.19C211.92 90.66 210.4 92 208.49 93.69C208.454 93.7305 208.404 93.7556 208.35 93.76Z" fill="#263238"/>
<path d="M215.1 99.7999C215.066 99.7994 215.033 99.7921 215.002 99.7783C214.971 99.7646 214.943 99.7447 214.92 99.7199C214.898 99.6976 214.88 99.6711 214.868 99.6419C214.856 99.6127 214.849 99.5815 214.849 99.5499C214.849 99.5183 214.856 99.487 214.868 99.4578C214.88 99.4287 214.898 99.4022 214.92 99.3799C217.46 97.1299 219.05 95.1499 219.51 93.6599C219.531 93.5981 219.575 93.5467 219.632 93.5169C219.69 93.487 219.758 93.4809 219.82 93.4999C219.88 93.5205 219.929 93.5628 219.959 93.6185C219.988 93.6741 219.996 93.7389 219.98 93.7999C219.48 95.3999 217.89 97.3999 215.24 99.7399C215.201 99.7739 215.152 99.7949 215.1 99.7999Z" fill="#263238"/>
<defs>
<linearGradient id="paint0_linear" x1="415.761" y1="112.325" x2="415.761" y2="355.497" gradientUnits="userSpaceOnUse">
<stop stop-color="#4070FF"/>
<stop offset="1" stop-color="#365FD9"/>
</linearGradient>
<linearGradient id="paint1_linear" x1="443.89" y1="404.92" x2="443.89" y2="427.56" gradientUnits="userSpaceOnUse">
<stop stop-color="#4070FF"/>
<stop offset="1" stop-color="#365FD9"/>
</linearGradient>
</defs>
</svg>
