<svg width="500" height="500" viewBox="0 0 500 500" fill="none" xmlns="http://www.w3.org/2000/svg">
<path opacity="0.1" d="M220.1 287.51C262.16 277.58 307.85 312.35 351.4 305.51C393.4 298.95 427.9 265.45 411.06 220.06C394.74 176.06 347.14 147.3 302.87 147.55C275.45 147.7 261.11 147.28 236.81 128.63C218 114.25 203.29 96.08 180.32 88.3C135.69 73.18 114.6 100.18 111.75 135.67C108.67 174.09 78.4201 194.58 71.4401 231.48C65.5301 262.69 77.5501 304.42 118.63 314.94C157 324.76 187.56 295.19 220.1 287.51Z" fill="url(#paint0_linear)"/>
<path opacity="0.1" d="M250 427.56C357.082 427.56 443.89 422.492 443.89 416.24C443.89 409.988 357.082 404.92 250 404.92C142.917 404.92 56.1099 409.988 56.1099 416.24C56.1099 422.492 142.917 427.56 250 427.56Z" fill="url(#paint1_linear)"/>
<path d="M165.6 143.11C165.79 140.9 175.31 132.75 185.25 138.44C195.19 144.13 188 161.33 198.81 163C191.81 170 169.01 178.55 162 170.52C154.99 162.49 154.09 140 165.6 143.11Z" fill="#263238"/>
<path d="M205.64 198.57C205.9 202.27 206.29 206.19 206.81 209.93C207.275 213.616 208.024 217.26 209.05 220.83C209.17 221.26 209.32 221.67 209.46 222.07L209.84 223.13C209.918 223.36 210.033 223.576 210.18 223.77C210.41 224.11 211.74 224.42 213.3 224.22C216.864 223.613 220.323 222.498 223.57 220.91L226.11 224.64C225.302 225.35 224.458 226.018 223.58 226.64C222.72 227.26 221.84 227.86 220.91 228.4C218.981 229.581 216.903 230.499 214.73 231.13C213.473 231.482 212.175 231.67 210.87 231.69C209.251 231.702 207.653 231.314 206.22 230.56C204.671 229.711 203.401 228.433 202.56 226.88L202.29 226.35L202.12 225.97L201.77 225.19C201.53 224.68 201.3 224.19 201.12 223.65C199.625 219.665 198.53 215.541 197.85 211.34C197.152 207.259 196.715 203.137 196.54 199L205.64 198.57Z" fill="#E9A472"/>
<path d="M200.75 188.63C208.86 194.83 208.53 206.53 208.53 206.53L194 210C194 210 189.55 198.24 191.36 193.93C193.27 189.44 196.19 185.13 200.75 188.63Z" fill="url(#paint2_linear)"/>
<path d="M222.78 221.78L228.11 216.44L230.98 224.79C230.98 224.79 226.48 227.22 222.17 224.92L222.78 221.78Z" fill="#E9A472"/>
<path d="M235.49 215.62L236.47 222.21L230.98 224.78L228.11 216.44L235.49 215.62Z" fill="#E9A472"/>
<path d="M153.76 409.3L161.92 410.09L170.41 390.68L162.25 389.88L153.76 409.3Z" fill="#E9A472"/>
<path d="M101.23 380.6L107.35 386.35L120.58 371.82L114.45 366.06L101.23 380.6Z" fill="#E9A472"/>
<path d="M110.18 383.59L105.58 375.3C105.503 375.156 105.377 375.045 105.224 374.988C105.071 374.931 104.903 374.932 104.75 374.99L97.6602 377.69C97.4847 377.764 97.3269 377.875 97.1968 378.014C97.0667 378.153 96.9674 378.318 96.9051 378.498C96.8429 378.678 96.8192 378.869 96.8356 379.059C96.852 379.249 96.908 379.433 97.0002 379.6C98.6602 382.46 99.6002 383.76 101.63 387.41C102.87 389.65 105.3 394.8 107.02 397.9C108.74 401 111.89 399.46 111.45 398.02C109.45 391.54 109.86 387.94 110.45 385.08C110.541 384.567 110.445 384.038 110.18 383.59Z" fill="#263238"/>
<path d="M163 407.57H153C152.82 407.571 152.645 407.631 152.502 407.741C152.359 407.851 152.256 408.006 152.21 408.18L150 416.11C149.947 416.297 149.938 416.493 149.975 416.684C150.012 416.875 150.092 417.054 150.211 417.208C150.33 417.362 150.483 417.486 150.658 417.569C150.834 417.653 151.026 417.694 151.22 417.69C154.75 417.69 156.42 417.69 160.83 417.69H174.29C177.95 417.69 178.72 413.99 177.2 413.69C170.41 412.19 166.5 410.12 164.4 408.14C164.022 407.781 163.522 407.578 163 407.57Z" fill="#263238"/>
<path opacity="0.2" d="M170.4 390.69L166.03 400.69H157.52L162.24 389.89L170.4 390.69Z" fill="black"/>
<path opacity="0.2" d="M114.45 366.07L120.57 371.82L113.75 379.31L107.63 373.56L114.45 366.07Z" fill="black"/>
<path d="M198.3 187.42C198.3 187.42 202 189 189.67 237.7L155.51 234.75C157.29 220.89 158.04 212.32 153.87 183.21C158.738 182.635 163.641 182.414 168.54 182.55C173.735 182.631 178.918 183.078 184.05 183.89C188.856 184.827 193.612 186.005 198.3 187.42Z" fill="url(#paint3_linear)"/>
<path d="M174.65 199.82C174.621 199.83 174.589 199.83 174.56 199.82C167.17 193.74 162.56 184.36 164.04 182.15C164.059 182.118 164.089 182.095 164.125 182.086C164.16 182.077 164.198 182.082 164.23 182.1C164.262 182.121 164.286 182.153 164.295 182.19C164.304 182.227 164.299 182.267 164.28 182.3C162.94 184.37 167.52 193.58 174.58 199.46C176.36 194.09 179.39 191.94 179.42 191.92C179.452 191.906 179.487 191.903 179.521 191.912C179.554 191.922 179.583 191.942 179.603 191.97C179.624 191.999 179.633 192.033 179.631 192.068C179.628 192.102 179.614 192.135 179.59 192.16C179.59 192.16 176.53 194.33 174.78 199.75C174.773 199.771 174.762 199.79 174.746 199.806C174.73 199.821 174.711 199.833 174.69 199.84L174.65 199.82Z" fill="white"/>
<path d="M186.47 200.15C186.446 200.145 186.423 200.132 186.405 200.115C186.388 200.097 186.375 200.074 186.37 200.05C184.82 194.47 181.73 192.25 181.7 192.23C181.677 192.202 181.665 192.166 181.665 192.13C181.665 192.094 181.677 192.058 181.7 192.03C181.728 192.005 181.763 191.992 181.8 191.992C181.837 191.992 181.873 192.005 181.9 192.03C181.9 192.03 185.01 194.26 186.61 199.75C190.32 195.2 188.21 186.55 186.77 184.33C186.751 184.297 186.746 184.257 186.755 184.22C186.765 184.183 186.788 184.151 186.82 184.13C186.846 184.106 186.88 184.093 186.915 184.093C186.95 184.093 186.984 184.106 187.01 184.13C188.5 186.44 190.69 195.5 186.65 200.13C186.626 200.151 186.595 200.164 186.563 200.168C186.531 200.171 186.499 200.165 186.47 200.15Z" fill="white"/>
<path d="M171.59 165.22C172.13 170.29 172.32 179.52 168.54 182.55C172.213 185.957 176.315 188.871 180.74 191.22C186.68 187.12 184.05 183.89 184.05 183.89C178.6 182.08 179.05 177.97 180.41 174.17L171.59 165.22Z" fill="#E9A472"/>
<path opacity="0.2" d="M175.18 168.87L180.4 174.17C180.084 175.051 179.847 175.958 179.69 176.88C177.59 176.39 174.55 174.21 174.51 171.96C174.555 170.899 174.781 169.854 175.18 168.87Z" fill="black"/>
<path d="M167.12 157.29C169.24 165.4 169.96 168.87 174.93 172.29C182.41 177.4 191.93 173.03 192.26 164.45C192.57 156.73 189.06 144.77 180.38 143.08C178.471 142.7 176.496 142.814 174.644 143.411C172.791 144.008 171.121 145.069 169.793 146.492C168.465 147.915 167.522 149.654 167.055 151.544C166.587 153.434 166.609 155.411 167.12 157.29Z" fill="#E9A472"/>
<path d="M169.43 163.36C172.18 167.36 179.35 143.53 170.06 144.28C160.77 145.03 161.89 155.12 169.43 163.36Z" fill="#263238"/>
<path d="M170.66 145.64C176.03 148.37 191.66 151.64 189.52 147.29C188.352 145.108 186.613 143.284 184.489 142.014C182.365 140.744 179.935 140.076 177.46 140.08C172.36 140 165.92 143.24 170.66 145.64Z" fill="#263238"/>
<path d="M166.45 164.16C166.823 164.873 167.333 165.505 167.95 166.019C168.568 166.534 169.282 166.922 170.05 167.16C172.11 167.78 173.18 165.95 172.64 163.99C172.16 162.22 170.51 159.77 168.43 159.99C167.975 160.05 167.542 160.223 167.172 160.493C166.801 160.764 166.503 161.122 166.306 161.537C166.11 161.951 166.02 162.408 166.045 162.867C166.07 163.325 166.209 163.769 166.45 164.16Z" fill="#E9A472"/>
<path d="M189.67 237.7C189.67 237.7 201.23 288.83 193.52 324.88C188.35 349.02 169.71 397.79 169.71 397.79L155.14 397.42C155.14 397.42 169.25 346.24 172.14 326.11C177.14 291.68 164.64 235.54 164.64 235.54L189.67 237.7Z" fill="#263238"/>
<path opacity="0.2" d="M176.34 248L169.06 259.5C171.256 273.126 172.648 286.87 173.23 300.66C183.47 282.33 178.62 257.74 176.34 248Z" fill="black"/>
<path d="M171.76 398.55L153.76 398.09L154.81 392.56L173.17 393.43L171.76 398.55Z" fill="url(#paint4_linear)"/>
<path d="M182.2 237.16C182.2 237.16 175.42 291.38 160.72 320.98C148.85 344.9 117.17 378.93 117.17 378.93L109.07 370.59C109.07 370.59 130.47 333.59 139.29 317.71C160.93 278.77 143.29 249.05 155.51 234.71L182.2 237.16Z" fill="#263238"/>
<path d="M117.99 380.05L107.54 369.86L111.01 365.14L122.09 376.21L117.99 380.05Z" fill="url(#paint5_linear)"/>
<path d="M155.17 232.7L153.37 235.62C153.23 235.85 153.49 236.11 153.88 236.15L189.71 239.25C190.02 239.25 190.29 239.14 190.32 238.95L190.89 235.95C190.89 235.74 190.68 235.54 190.35 235.51L155.75 232.51C155.646 232.49 155.537 232.497 155.436 232.53C155.334 232.563 155.243 232.622 155.17 232.7Z" fill="url(#paint6_linear)"/>
<path opacity="0.3" d="M155.17 232.7L153.37 235.62C153.23 235.85 153.49 236.11 153.88 236.15L189.71 239.25C190.02 239.25 190.29 239.14 190.32 238.95L190.89 235.95C190.89 235.74 190.68 235.54 190.35 235.51L155.75 232.51C155.646 232.49 155.537 232.497 155.436 232.53C155.334 232.563 155.243 232.622 155.17 232.7Z" fill="black"/>
<path d="M159.48 237L158.56 236.92C158.37 236.92 158.24 236.79 158.26 236.68L159.04 232.74C159.04 232.63 159.23 232.55 159.42 232.56L160.34 232.64C160.53 232.64 160.66 232.77 160.64 232.88L159.86 236.82C159.84 236.9 159.67 237 159.48 237Z" fill="#263238"/>
<path d="M187.08 239.35L186.15 239.27C185.97 239.27 185.83 239.15 185.86 239.03L186.63 235.1C186.63 234.98 186.83 234.9 187.01 234.92L187.94 235C188.12 235 188.25 235.12 188.23 235.24L187.45 239.17C187.43 239.29 187.26 239.37 187.08 239.35Z" fill="#263238"/>
<path d="M173.28 238.16L172.35 238.08C172.17 238.08 172.04 237.96 172.06 237.84L172.84 233.91C172.84 233.79 173.03 233.71 173.21 233.73L174.14 233.81C174.33 233.81 174.46 233.93 174.44 234.04L173.66 237.98C173.625 238.047 173.569 238.101 173.5 238.133C173.432 238.166 173.354 238.175 173.28 238.16Z" fill="#263238"/>
<path d="M180.85 157C180.98 157.67 181.44 158.14 181.85 158.05C182.26 157.96 182.54 157.36 182.41 156.69C182.28 156.02 181.82 155.55 181.41 155.63C181 155.71 180.71 156.34 180.85 157Z" fill="#263238"/>
<path d="M188.4 155.52C188.53 156.19 188.99 156.67 189.4 156.58C189.81 156.49 190.08 155.88 189.95 155.21C189.82 154.54 189.36 154.07 188.95 154.16C188.54 154.25 188.27 154.86 188.4 155.52Z" fill="#263238"/>
<path d="M188.77 154.23L190.28 153.46C190.28 153.46 189.7 154.87 188.77 154.23Z" fill="#263238"/>
<path d="M185.8 157.19C186.69 158.599 187.766 159.881 189 161C188.707 161.308 188.351 161.549 187.955 161.706C187.56 161.864 187.135 161.933 186.71 161.91L185.8 157.19Z" fill="#CC8450"/>
<path d="M183.64 165.09C182.232 165.109 180.87 164.59 179.83 163.64C179.799 163.608 179.781 163.565 179.781 163.52C179.781 163.475 179.799 163.432 179.83 163.4C179.845 163.385 179.863 163.372 179.883 163.364C179.903 163.356 179.924 163.351 179.945 163.351C179.967 163.351 179.988 163.356 180.008 163.364C180.028 163.372 180.045 163.385 180.06 163.4C180.701 163.961 181.465 164.365 182.289 164.579C183.114 164.792 183.977 164.81 184.81 164.63C184.854 164.621 184.9 164.63 184.937 164.654C184.974 164.678 185.001 164.716 185.01 164.76C185.015 164.781 185.015 164.803 185.01 164.824C185.006 164.845 184.998 164.865 184.986 164.883C184.974 164.9 184.958 164.915 184.94 164.927C184.922 164.939 184.901 164.946 184.88 164.95C184.473 165.038 184.057 165.085 183.64 165.09Z" fill="#263238"/>
<path d="M176.31 154.42C176.254 154.434 176.196 154.434 176.14 154.42C176.102 154.397 176.069 154.368 176.043 154.332C176.017 154.296 175.998 154.256 175.988 154.213C175.978 154.17 175.976 154.126 175.983 154.082C175.991 154.039 176.007 153.997 176.03 153.96C176.337 153.419 176.77 152.96 177.292 152.622C177.815 152.284 178.411 152.078 179.03 152.02C179.073 152.019 179.117 152.026 179.157 152.041C179.198 152.057 179.235 152.08 179.266 152.11C179.298 152.139 179.323 152.175 179.341 152.214C179.359 152.254 179.369 152.297 179.37 152.34C179.371 152.383 179.364 152.427 179.349 152.467C179.333 152.508 179.31 152.545 179.281 152.576C179.251 152.608 179.215 152.633 179.176 152.651C179.136 152.669 179.093 152.679 179.05 152.68C178.538 152.735 178.047 152.912 177.617 153.195C177.188 153.479 176.832 153.861 176.58 154.31C176.547 154.348 176.505 154.377 176.458 154.396C176.411 154.416 176.361 154.424 176.31 154.42Z" fill="#263238"/>
<path d="M190.5 151.74C190.444 151.754 190.386 151.754 190.33 151.74C189.891 151.476 189.395 151.321 188.883 151.288C188.372 151.255 187.86 151.345 187.39 151.55C187.312 151.589 187.221 151.597 187.137 151.571C187.053 151.545 186.983 151.487 186.94 151.41C186.919 151.371 186.907 151.329 186.902 151.285C186.898 151.242 186.903 151.197 186.916 151.156C186.929 151.114 186.95 151.075 186.978 151.041C187.007 151.008 187.041 150.98 187.08 150.96C187.649 150.703 188.272 150.587 188.895 150.622C189.518 150.656 190.124 150.841 190.66 151.16C190.698 151.181 190.732 151.209 190.759 151.243C190.787 151.277 190.807 151.316 190.819 151.358C190.831 151.4 190.835 151.444 190.83 151.487C190.825 151.53 190.811 151.572 190.79 151.61C190.756 151.654 190.712 151.688 190.661 151.711C190.611 151.734 190.556 151.744 190.5 151.74Z" fill="#263238"/>
<path d="M158.74 196C157.4 198.22 155.98 200.5 154.65 202.78C153.32 205.06 151.95 207.32 150.65 209.61C149.35 211.9 148.14 214.19 147.11 216.47C146.83 217.04 146.61 217.6 146.35 218.16C146.09 218.72 145.93 219.25 145.72 219.8C145.625 220.049 145.555 220.307 145.51 220.57C145.51 220.7 145.51 220.66 145.45 220.64C145.39 220.62 145.62 221.02 146.45 221.37C147.415 221.754 148.422 222.022 149.45 222.17C151.914 222.526 154.403 222.669 156.89 222.6C162.147 222.458 167.392 222.024 172.6 221.3L173.6 225.69C168.287 227.355 162.835 228.54 157.31 229.23C154.41 229.605 151.48 229.702 148.56 229.52C146.903 229.413 145.266 229.093 143.69 228.57C142.728 228.243 141.813 227.789 140.97 227.22C139.878 226.501 138.979 225.525 138.351 224.378C137.724 223.231 137.387 221.947 137.37 220.64C137.358 219.554 137.506 218.472 137.81 217.43C138.03 216.7 138.24 215.94 138.48 215.24C138.72 214.54 138.96 213.84 139.23 213.16C140.29 210.46 141.46 207.92 142.73 205.44C144 202.96 145.31 200.53 146.67 198.14C148.03 195.75 149.45 193.42 151.02 191.08L158.74 196Z" fill="#E9A472"/>
<path d="M170.56 222.32L177.23 218.79L177.48 226.22C177.48 226.22 172.82 227.9 170.06 225.74L170.56 222.32Z" fill="#E9A472"/>
<path d="M181.29 219.32L180.29 225.9L177.48 226.22L177.22 218.79L181.29 219.32Z" fill="#E9A472"/>
<path d="M153.87 183.21C149.68 184 143.81 196 143.81 196L156.81 207.25C156.81 207.25 162.76 196.39 162.32 190.93C161.94 186.26 159.2 182.27 153.87 183.21Z" fill="url(#paint7_linear)"/>
<path d="M111.8 388.05C111.688 388.048 111.577 388.031 111.47 388C110.47 387.66 109.81 385.8 109.47 384.73C109.453 384.703 109.444 384.672 109.444 384.64C109.444 384.608 109.453 384.577 109.47 384.55C109.499 384.533 109.532 384.525 109.565 384.525C109.598 384.525 109.631 384.533 109.66 384.55C109.96 384.71 112.66 386.14 112.72 387.19C112.733 387.305 112.714 387.421 112.664 387.525C112.615 387.629 112.537 387.718 112.44 387.78C112.259 387.932 112.036 388.026 111.8 388.05ZM109.94 385.05C110.41 386.54 111.01 387.52 111.58 387.71C111.709 387.749 111.846 387.754 111.978 387.724C112.109 387.694 112.23 387.631 112.33 387.54C112.381 387.51 112.423 387.465 112.449 387.412C112.476 387.359 112.487 387.299 112.48 387.24C112.43 386.56 110.86 385.54 109.94 385V385.05Z" fill="url(#paint8_linear)"/>
<path d="M112.21 385.44C111.299 385.437 110.4 385.228 109.58 384.83C109.555 384.813 109.535 384.791 109.521 384.765C109.507 384.739 109.5 384.709 109.5 384.68C109.502 384.651 109.511 384.623 109.527 384.598C109.542 384.574 109.564 384.553 109.59 384.54C109.68 384.49 111.8 383.32 112.94 383.73C113.081 383.776 113.209 383.853 113.316 383.955C113.424 384.057 113.507 384.182 113.56 384.32C113.631 384.453 113.655 384.607 113.628 384.756C113.601 384.905 113.524 385.04 113.41 385.14C113.055 385.372 112.632 385.477 112.21 385.44ZM110.03 384.68C110.94 385.07 112.7 385.31 113.2 384.89C113.28 384.82 113.36 384.7 113.2 384.45C113.163 384.355 113.107 384.27 113.034 384.199C112.962 384.129 112.875 384.074 112.78 384.04C112.05 383.77 110.64 384.39 110 384.68H110.03Z" fill="url(#paint9_linear)"/>
<path d="M167.45 409.19C166.528 409.17 165.61 409.056 164.71 408.85C164.676 408.84 164.646 408.821 164.623 408.795C164.6 408.768 164.585 408.735 164.58 408.7C164.579 408.665 164.587 408.63 164.605 408.6C164.623 408.57 164.649 408.546 164.68 408.53C165.09 408.34 168.68 406.66 169.68 407.28C169.764 407.336 169.831 407.415 169.873 407.506C169.916 407.598 169.932 407.7 169.92 407.8C169.913 407.983 169.864 408.161 169.777 408.322C169.69 408.483 169.568 408.623 169.42 408.73C168.829 409.09 168.139 409.251 167.45 409.19ZM165.28 408.62C166.36 408.83 168.36 409.09 169.18 408.47C169.291 408.392 169.381 408.289 169.444 408.169C169.506 408.049 169.54 407.915 169.54 407.78C169.54 407.64 169.54 407.59 169.45 407.56C168.94 407.21 166.79 408 165.28 408.62Z" fill="url(#paint10_linear)"/>
<path d="M164.75 408.85C164.715 408.864 164.676 408.864 164.64 408.85C164.624 408.827 164.615 408.799 164.615 408.77C164.615 408.741 164.624 408.714 164.64 408.69C164.64 408.54 165.5 404.95 167.47 405.18C167.96 405.24 168.1 405.48 168.12 405.68C168.25 406.59 165.96 408.43 164.86 408.88L164.75 408.85ZM167.24 405.46C165.98 405.46 165.24 407.55 165 408.38C166.19 407.76 167.82 406.27 167.74 405.68C167.74 405.68 167.74 405.51 167.38 405.47L167.24 405.46Z" fill="url(#paint11_linear)"/>
<path d="M181.21 155.72L182.73 154.94C182.73 154.94 182.15 156.36 181.21 155.72Z" fill="#263238"/>
<path d="M356.63 188.17C356.58 188.86 356.52 189.35 356.45 189.92C356.38 190.49 356.3 191 356.21 191.53C356.03 192.6 355.82 193.65 355.59 194.7C355.122 196.792 354.544 198.858 353.86 200.89C352.464 204.996 350.57 208.915 348.22 212.56L347.3 213.92L347.07 214.25L346.93 214.45L346.72 214.73C346.415 215.091 346.08 215.425 345.72 215.73C344.544 216.787 343.141 217.56 341.62 217.99C339.285 218.618 336.858 218.831 334.45 218.62C330.196 218.269 326.014 217.312 322.03 215.78L323.11 211.47C326.871 211.854 330.656 211.931 334.43 211.7C336.025 211.609 337.597 211.272 339.09 210.7C339.477 210.54 339.819 210.29 340.09 209.97C339.98 210.12 340.65 208.97 341.09 208.25C342.839 205.021 344.25 201.619 345.3 198.1C345.84 196.32 346.3 194.52 346.7 192.72C346.9 191.81 347.08 190.9 347.24 190L347.45 188.65L347.63 187.42L356.63 188.17Z" fill="#B55B52"/>
<path d="M358.71 182.3C358.93 187.9 356.76 198 356.76 198L342.9 196.32C342.9 196.32 342.39 181.54 345.08 177.97C349.59 172 358.51 177 358.71 182.3Z" fill="#263238"/>
<path d="M325 212.06L316.7 209.11L318.43 215.33C318.43 215.33 322.31 217.6 324.53 215.02L325 212.06Z" fill="#B55B52"/>
<path d="M313.85 210.7L312.71 215.09L318.44 215.33L316.71 209.11L313.85 210.7Z" fill="#B55B52"/>
<path d="M274.87 239.76C280.646 239.847 286.383 238.785 291.745 236.635C297.107 234.485 301.988 231.29 306.104 227.236C310.22 223.182 313.489 218.35 315.72 213.021C317.951 207.692 319.1 201.972 319.1 196.195C319.1 190.418 317.951 184.698 315.72 179.369C313.489 174.04 310.22 169.208 306.104 165.154C301.988 161.1 297.107 157.905 291.745 155.755C286.383 153.605 280.646 152.542 274.87 152.63H269.22V239.76H274.87Z" fill="url(#paint12_linear)"/>
<path d="M269.22 239.76C293.283 239.76 312.79 220.253 312.79 196.19C312.79 172.127 293.283 152.62 269.22 152.62C245.157 152.62 225.65 172.127 225.65 196.19C225.65 220.253 245.157 239.76 269.22 239.76Z" fill="url(#paint13_linear)"/>
<path opacity="0.2" d="M269.22 239.76C293.283 239.76 312.79 220.253 312.79 196.19C312.79 172.127 293.283 152.62 269.22 152.62C245.157 152.62 225.65 172.127 225.65 196.19C225.65 220.253 245.157 239.76 269.22 239.76Z" fill="black"/>
<path opacity="0.8" d="M296.537 223.513C311.623 208.427 311.623 183.967 296.537 168.881C281.451 153.796 256.992 153.796 241.906 168.881C226.82 183.967 226.82 208.427 241.906 223.513C256.992 238.598 281.451 238.598 296.537 223.513Z" fill="url(#paint14_linear)"/>
<path d="M283.023 188.305H264.582V186.582C264.639 183.364 266.018 181.009 270.327 181.009H271.361V174H268.833C261.192 174 257.056 178.596 257.056 186.639V188.305H252V194.108H257.056V215.077H264.582V194.108H275.497V215.077H283.023V188.305ZM279.232 183.537C281.932 183.537 284 181.526 284 178.998C284 176.47 281.932 174.517 279.232 174.517C276.646 174.517 274.463 176.47 274.463 178.998C274.463 181.526 276.646 183.537 279.232 183.537Z" fill="white"/>
<path d="M317.18 153.58C317.18 154.23 316.81 154.76 316.39 154.77C315.97 154.78 315.62 154.25 315.63 153.61C315.64 152.97 315.99 152.43 316.42 152.42C316.85 152.41 317.19 152.94 317.18 153.58Z" fill="#263238"/>
<path d="M316.61 152.46L315 152C315 152 315.83 153.23 316.61 152.46Z" fill="#263238"/>
<path d="M316.62 154.22C316.015 155.711 315.211 157.114 314.23 158.39C314.565 158.62 314.946 158.775 315.346 158.844C315.747 158.913 316.157 158.894 316.55 158.79L316.62 154.22Z" fill="#A02724"/>
<path d="M316.36 149.28C316.419 149.295 316.481 149.295 316.54 149.28C317 149.115 317.493 149.058 317.979 149.115C318.464 149.173 318.93 149.342 319.34 149.61C319.421 149.671 319.522 149.697 319.623 149.683C319.672 149.676 319.72 149.66 319.763 149.634C319.807 149.609 319.845 149.575 319.875 149.535C319.905 149.495 319.927 149.449 319.94 149.401C319.952 149.352 319.955 149.302 319.948 149.252C319.941 149.202 319.924 149.154 319.899 149.111C319.873 149.068 319.84 149.03 319.8 149C319.289 148.664 318.708 148.45 318.101 148.373C317.494 148.297 316.878 148.361 316.3 148.56C316.252 148.575 316.207 148.599 316.169 148.631C316.13 148.664 316.099 148.704 316.077 148.748C316.054 148.793 316.041 148.842 316.038 148.892C316.035 148.943 316.043 148.993 316.06 149.04C316.084 149.103 316.124 149.159 316.177 149.201C316.23 149.243 316.293 149.27 316.36 149.28Z" fill="#263238"/>
<path d="M336.35 160.49C335.92 165.36 337.55 173.33 341.23 176.04C341.23 176.04 338.46 181.16 329.59 182.35C319.83 183.66 324.41 178.17 324.41 178.17C329.6 176.17 329.05 172.3 327.73 168.74L336.35 160.49Z" fill="#B55B52"/>
<path d="M318.62 188.06C317.56 193.129 316.225 198.136 314.62 203.06C313.052 208.019 311.175 212.875 309 217.6L308.59 218.5C308.42 218.85 308.2 219.26 308 219.63C307.607 220.322 307.173 220.99 306.7 221.63C305.832 222.77 304.886 223.849 303.87 224.86C301.967 226.74 299.942 228.494 297.81 230.11C293.679 233.24 289.309 236.042 284.74 238.49L282.29 234.77C286.08 231.61 289.87 228.31 293.37 224.93C295.096 223.29 296.732 221.557 298.27 219.74C298.973 218.903 299.621 218.021 300.21 217.1C300.462 216.699 300.692 216.285 300.9 215.86L301.14 215.29L301.47 214.44C302.35 212.18 303.13 209.86 303.92 207.54C304.71 205.22 305.4 202.86 306.09 200.54C307.44 195.82 308.71 190.97 309.82 186.28L318.62 188.06Z" fill="#B55B52"/>
<path d="M285.19 238.14L280.59 241.14L278.31 237.23C278.31 237.23 282.83 231.83 285.56 235.67L285.19 238.14Z" fill="#B55B52"/>
<path d="M284 234.11L281.4 233.72L278.48 234.34L277.73 235.19L279.63 235.47L280.13 236.22L280.77 236.63L284 234.11Z" fill="#B55B52"/>
<path d="M276.02 241.53L273.49 239.49L278.31 237.25L280.59 241.16L276.02 241.53Z" fill="#B55B52"/>
<path d="M350.76 407.41L342.69 408.01L340.29 389.48L348.36 388.88L350.76 407.41Z" fill="#B55B52"/>
<path d="M402.43 383.87L395.44 388.12L383.82 373.6L390.81 369.35L402.43 383.87Z" fill="#B55B52"/>
<path d="M393.35 386.56L399.98 380.18C400.09 380.067 400.237 379.999 400.393 379.988C400.55 379.977 400.706 380.024 400.83 380.12L406.48 384.48C406.616 384.601 406.726 384.75 406.8 384.916C406.875 385.082 406.914 385.263 406.914 385.445C406.914 385.627 406.875 385.808 406.8 385.974C406.726 386.14 406.616 386.289 406.48 386.41C404.13 388.6 402.89 389.54 399.97 392.35C398.18 394.08 395.73 396.78 393.25 399.17C390.77 401.56 388.36 399.3 389.18 398.09C392.88 392.67 392.32 390.64 392.66 387.87C392.728 387.366 392.973 386.902 393.35 386.56Z" fill="#263238"/>
<path d="M342.19 406.86H351.26C351.416 406.858 351.568 406.913 351.687 407.014C351.807 407.115 351.886 407.256 351.91 407.41L353.13 414.58C353.156 414.759 353.143 414.942 353.092 415.115C353.041 415.289 352.953 415.449 352.834 415.586C352.716 415.723 352.569 415.832 352.404 415.907C352.24 415.982 352.061 416.021 351.88 416.02C348.71 416.02 347.18 415.78 343.19 415.78C340.74 415.78 335.67 416.03 332.28 416.03C328.89 416.03 328.63 412.68 330.03 412.38C336.32 411.02 338.77 409.14 340.85 407.38C341.22 407.052 341.696 406.868 342.19 406.86Z" fill="#263238"/>
<path opacity="0.2" d="M340.3 389.48L341.63 399.78L349.6 398.44L348.37 388.89L340.3 389.48Z" fill="black"/>
<path opacity="0.2" d="M390.81 369.35L383.82 373.61L388.63 379.61L395.77 375.54L390.81 369.35Z" fill="black"/>
<path d="M354.83 224.66L322.15 229.05C309.49 183.21 313.23 181.97 313.23 181.97C315.676 180.816 318.191 179.814 320.76 178.97L321.21 178.83C323.32 178.2 323.76 178.11 326.57 177.47C331.4 176.62 335.88 175.96 341.41 175.47L342.41 175.39C343.41 175.32 344.41 175.27 345.41 175.24C346.06 175.24 346.7 175.24 347.31 175.19H350.5C351.125 175.204 351.74 175.348 352.307 175.613C352.874 175.877 353.379 176.257 353.792 176.727C354.205 177.197 354.515 177.747 354.704 178.343C354.893 178.939 354.956 179.568 354.89 180.19C352.11 204.4 353 212.32 354.83 224.66Z" fill="#263238"/>
<path opacity="0.2" d="M319 196C319.651 200.74 319.044 205.568 317.24 210C315.06 201.06 313.89 195 313.3 190.8C315.76 190.69 318.36 191.65 319 196Z" fill="black"/>
<path d="M313.51 181.84C307.92 185.04 304.03 192.67 302.86 197.1L314.77 208C314.77 208 322.47 193.18 320.46 189.17C318.36 185 315.63 180.63 313.51 181.84Z" fill="#263238"/>
<path d="M339.11 151.5C338.5 159.5 338.42 162.84 334.3 166.98C328.11 173.21 318.37 170.98 316.56 163.09C314.94 155.97 316.19 144.09 324.11 140.87C325.804 140.113 327.667 139.811 329.513 139.993C331.36 140.175 333.127 140.834 334.641 141.907C336.155 142.98 337.364 144.429 338.147 146.111C338.931 147.793 339.263 149.651 339.11 151.5Z" fill="#B55B52"/>
<path d="M322.62 154.71C323.44 151.88 317.08 148.66 316.4 144.32C315.52 138.69 319.88 134.14 323.95 136.79C325.6 133.02 336.8 131.43 342.95 136.1C349.87 141.34 341.39 146.88 348.29 151.52C353.79 155.22 354.54 157.52 351.14 161.95C348.56 165.32 355.23 164.6 353.54 170.3C351.85 176 317.35 178.09 321.93 165.3C326 154 321 160.49 322.62 154.71Z" fill="#263238"/>
<path d="M324.56 154.08C324.511 155.563 324.004 156.995 323.11 158.18C321.87 159.86 320.42 159.41 320.11 157.86C319.79 156.47 320.06 153.92 321.63 152.76C323.2 151.6 324.55 152.42 324.56 154.08Z" fill="#B55B52"/>
<path d="M350.79 162.25C350.759 162.25 350.73 162.239 350.706 162.22C350.682 162.202 350.664 162.176 350.656 162.146C350.649 162.117 350.65 162.086 350.662 162.058C350.673 162.029 350.693 162.006 350.72 161.99C352.89 160.74 354.05 158.99 354 157.17C353.94 154.83 352 152.47 348.83 150.86C345.05 148.94 345.34 146.34 345.63 143.86C345.92 141.38 346.21 138.72 342.52 136.58C342.487 136.559 342.464 136.528 342.453 136.491C342.442 136.454 342.444 136.415 342.46 136.38C342.48 136.348 342.513 136.325 342.55 136.315C342.587 136.306 342.626 136.311 342.66 136.33C346.52 138.57 346.21 141.27 345.91 143.89C345.61 146.51 345.35 148.82 348.91 150.65C352.18 152.3 354.17 154.75 354.24 157.2C354.24 159.2 353.08 160.98 350.82 162.27C350.809 162.265 350.799 162.258 350.79 162.25Z" fill="#263238"/>
<path d="M330.78 227.89C330.78 227.89 343.47 281.51 349.4 312.32C355.65 344.82 385.67 378.68 385.67 378.68L395.86 373C395.86 373 376.97 342.1 370.86 311.75C358.42 250.15 366.86 237.75 354.86 224.67L330.78 227.89Z" fill="url(#paint15_linear)"/>
<path d="M384.66 379.63L397.38 372.54L395.52 368.78L381.25 375.35L384.66 379.63Z" fill="#263238"/>
<path opacity="0.2" d="M337.52 239.54C347.39 248.11 346.32 278.54 345.29 292.2C341.15 272.72 336.17 251.04 333.29 238.49C334.29 237.71 335.71 238 337.52 239.54Z" fill="black"/>
<path d="M390.57 390.26C390.666 390.276 390.763 390.276 390.86 390.26C391.86 390.26 393.05 388.7 393.65 387.78C393.669 387.748 393.679 387.712 393.679 387.675C393.679 387.638 393.669 387.602 393.65 387.57C393.629 387.537 393.599 387.511 393.563 387.497C393.527 387.482 393.487 387.48 393.45 387.49C393.13 387.55 390.24 388.16 389.859 389.12C389.817 389.225 389.804 389.34 389.819 389.452C389.835 389.564 389.88 389.671 389.95 389.76C390.093 389.993 390.312 390.17 390.57 390.26ZM393.06 387.99C392.22 389.19 391.41 389.9 390.85 389.91C390.73 389.91 390.612 389.879 390.509 389.819C390.405 389.76 390.319 389.674 390.26 389.57C390.228 389.532 390.207 389.486 390.198 389.437C390.189 389.388 390.193 389.337 390.21 389.29C390.42 388.78 391.91 388.27 393.06 388V387.99Z" fill="url(#paint16_linear)"/>
<path d="M322.64 229.07C322.64 229.07 316.93 292.74 320 317C323.24 342.26 339.73 397.21 339.73 397.21L351.36 395.71C351.36 395.71 341.91 341.25 340.23 316.25C338.4 288.98 346.53 225.84 346.53 225.84L322.64 229.07Z" fill="url(#paint17_linear)"/>
<path d="M337.29 397.9L353.88 395.76L353.62 390.86L335.63 392.6L337.29 397.9Z" fill="#263238"/>
<path d="M391 387.76C391.828 387.984 392.694 388.029 393.54 387.89C393.574 387.881 393.604 387.863 393.629 387.838C393.653 387.814 393.671 387.783 393.68 387.75C393.687 387.718 393.686 387.685 393.677 387.654C393.669 387.622 393.652 387.594 393.63 387.57C393.56 387.5 391.98 385.87 390.81 385.92C390.659 385.922 390.51 385.958 390.375 386.026C390.24 386.093 390.122 386.19 390.03 386.31C389.92 386.416 389.85 386.556 389.832 386.707C389.814 386.858 389.848 387.011 389.93 387.14C390.206 387.462 390.583 387.681 391 387.76ZM393.09 387.58C392.09 387.69 390.55 387.4 390.25 386.94C390.2 386.86 390.16 386.75 390.32 386.55C390.381 386.473 390.459 386.411 390.547 386.367C390.635 386.324 390.732 386.301 390.83 386.3C391.698 386.482 392.488 386.929 393.09 387.58Z" fill="url(#paint18_linear)"/>
<path d="M339.19 408.27C340.041 408.255 340.888 408.158 341.72 407.98C341.758 407.972 341.794 407.953 341.82 407.924C341.847 407.895 341.865 407.859 341.87 407.82C341.877 407.78 341.871 407.74 341.853 407.704C341.835 407.668 341.806 407.639 341.77 407.62C341.4 407.43 338.13 405.78 337.16 406.34C337.069 406.389 336.993 406.461 336.938 406.549C336.884 406.637 336.853 406.737 336.85 406.84C336.832 407.013 336.856 407.189 336.921 407.351C336.985 407.512 337.088 407.656 337.22 407.77C337.802 408.153 338.496 408.329 339.19 408.27ZM341.08 407.71C339.3 408 337.97 407.93 337.47 407.49C337.386 407.412 337.32 407.315 337.279 407.208C337.237 407.1 337.22 406.985 337.23 406.87C337.23 406.829 337.242 406.789 337.263 406.754C337.284 406.719 337.314 406.69 337.35 406.67C337.88 406.37 339.74 407.07 341.08 407.71Z" fill="url(#paint19_linear)"/>
<path d="M341.68 408C341.719 408.009 341.76 408.009 341.8 408C341.826 407.978 341.846 407.951 341.858 407.919C341.87 407.888 341.874 407.854 341.87 407.82C341.87 407.68 341.49 404.38 339.68 404.38H339.52C339 404.43 338.85 404.69 338.82 404.91C338.67 405.82 340.62 407.57 341.61 408.01L341.68 408ZM339.68 404.73C340.85 404.73 341.31 406.65 341.45 407.47C340.45 406.87 339.12 405.47 339.2 404.95C339.2 404.9 339.2 404.77 339.57 404.74L339.68 404.73Z" fill="url(#paint20_linear)"/>
<path d="M355.11 222.69L356.89 225.4C357.03 225.61 356.79 225.87 356.41 225.92L322.14 230.52C321.85 230.52 321.59 230.45 321.55 230.27L320.95 227.41C320.95 227.21 321.14 227 321.47 226.96L354.55 222.52C354.65 222.498 354.754 222.502 354.852 222.532C354.95 222.562 355.039 222.616 355.11 222.69Z" fill="url(#paint21_linear)"/>
<path opacity="0.5" d="M355.11 222.69L356.89 225.4C357.03 225.61 356.79 225.87 356.41 225.92L322.14 230.52C321.85 230.52 321.59 230.45 321.55 230.27L320.95 227.41C320.95 227.21 321.14 227 321.47 226.96L354.55 222.52C354.65 222.498 354.754 222.502 354.852 222.532C354.95 222.562 355.039 222.616 355.11 222.69Z" fill="white"/>
<path d="M351.06 227L351.95 226.88C352.12 226.88 352.25 226.75 352.22 226.64L351.41 222.92C351.41 222.82 351.22 222.75 351.04 222.77L350.16 222.89C349.98 222.89 349.85 223.02 349.88 223.13L350.69 226.85C350.72 226.91 350.88 227 351.06 227Z" fill="url(#paint22_linear)"/>
<path d="M328.68 230L329.56 229.88C329.74 229.88 329.86 229.75 329.84 229.64L329.02 225.92C329.02 225.81 328.84 225.74 328.66 225.77L327.77 225.88C327.6 225.88 327.47 226.02 327.5 226.13L328.31 229.84C328.34 230 328.5 230 328.68 230Z" fill="url(#paint23_linear)"/>
<defs>
<linearGradient id="paint0_linear" x1="415.42" y1="84.0103" x2="415.42" y2="316.916" gradientUnits="userSpaceOnUse">
<stop stop-color="#4070FF"/>
<stop offset="1" stop-color="#365FD9"/>
</linearGradient>
<linearGradient id="paint1_linear" x1="443.89" y1="404.92" x2="443.89" y2="427.56" gradientUnits="userSpaceOnUse">
<stop stop-color="#4070FF"/>
<stop offset="1" stop-color="#365FD9"/>
</linearGradient>
<linearGradient id="paint2_linear" x1="208.532" y1="187.349" x2="208.532" y2="210" gradientUnits="userSpaceOnUse">
<stop stop-color="#4070FF"/>
<stop offset="1" stop-color="#365FD9"/>
</linearGradient>
<linearGradient id="paint3_linear" x1="198.821" y1="182.511" x2="198.821" y2="237.7" gradientUnits="userSpaceOnUse">
<stop stop-color="#4070FF"/>
<stop offset="1" stop-color="#365FD9"/>
</linearGradient>
<linearGradient id="paint4_linear" x1="173.17" y1="392.56" x2="173.17" y2="398.55" gradientUnits="userSpaceOnUse">
<stop stop-color="#4070FF"/>
<stop offset="1" stop-color="#365FD9"/>
</linearGradient>
<linearGradient id="paint5_linear" x1="122.09" y1="365.14" x2="122.09" y2="380.05" gradientUnits="userSpaceOnUse">
<stop stop-color="#4070FF"/>
<stop offset="1" stop-color="#365FD9"/>
</linearGradient>
<linearGradient id="paint6_linear" x1="190.89" y1="232.499" x2="190.89" y2="239.25" gradientUnits="userSpaceOnUse">
<stop stop-color="#4070FF"/>
<stop offset="1" stop-color="#365FD9"/>
</linearGradient>
<linearGradient id="paint7_linear" x1="162.343" y1="183.072" x2="162.343" y2="207.25" gradientUnits="userSpaceOnUse">
<stop stop-color="#4070FF"/>
<stop offset="1" stop-color="#365FD9"/>
</linearGradient>
<linearGradient id="paint8_linear" x1="112.724" y1="384.525" x2="112.724" y2="388.05" gradientUnits="userSpaceOnUse">
<stop stop-color="#4070FF"/>
<stop offset="1" stop-color="#365FD9"/>
</linearGradient>
<linearGradient id="paint9_linear" x1="113.639" y1="383.643" x2="113.639" y2="385.447" gradientUnits="userSpaceOnUse">
<stop stop-color="#4070FF"/>
<stop offset="1" stop-color="#365FD9"/>
</linearGradient>
<linearGradient id="paint10_linear" x1="169.924" y1="407.143" x2="169.924" y2="409.203" gradientUnits="userSpaceOnUse">
<stop stop-color="#4070FF"/>
<stop offset="1" stop-color="#365FD9"/>
</linearGradient>
<linearGradient id="paint11_linear" x1="168.126" y1="405.169" x2="168.126" y2="408.88" gradientUnits="userSpaceOnUse">
<stop stop-color="#4070FF"/>
<stop offset="1" stop-color="#365FD9"/>
</linearGradient>
<linearGradient id="paint12_linear" x1="319.1" y1="152.625" x2="319.1" y2="239.765" gradientUnits="userSpaceOnUse">
<stop stop-color="#4070FF"/>
<stop offset="1" stop-color="#365FD9"/>
</linearGradient>
<linearGradient id="paint13_linear" x1="312.79" y1="152.62" x2="312.79" y2="239.76" gradientUnits="userSpaceOnUse">
<stop stop-color="#4070FF"/>
<stop offset="1" stop-color="#365FD9"/>
</linearGradient>
<linearGradient id="paint14_linear" x1="269.221" y1="141.566" x2="323.853" y2="196.197" gradientUnits="userSpaceOnUse">
<stop stop-color="#4070FF"/>
<stop offset="1" stop-color="#365FD9"/>
</linearGradient>
<linearGradient id="paint15_linear" x1="395.86" y1="224.67" x2="395.86" y2="378.68" gradientUnits="userSpaceOnUse">
<stop stop-color="#4070FF"/>
<stop offset="1" stop-color="#365FD9"/>
</linearGradient>
<linearGradient id="paint16_linear" x1="393.679" y1="387.484" x2="393.679" y2="390.272" gradientUnits="userSpaceOnUse">
<stop stop-color="#4070FF"/>
<stop offset="1" stop-color="#365FD9"/>
</linearGradient>
<linearGradient id="paint17_linear" x1="351.36" y1="225.84" x2="351.36" y2="397.21" gradientUnits="userSpaceOnUse">
<stop stop-color="#4070FF"/>
<stop offset="1" stop-color="#365FD9"/>
</linearGradient>
<linearGradient id="paint18_linear" x1="393.685" y1="385.919" x2="393.685" y2="387.969" gradientUnits="userSpaceOnUse">
<stop stop-color="#4070FF"/>
<stop offset="1" stop-color="#365FD9"/>
</linearGradient>
<linearGradient id="paint19_linear" x1="341.873" y1="406.225" x2="341.873" y2="408.281" gradientUnits="userSpaceOnUse">
<stop stop-color="#4070FF"/>
<stop offset="1" stop-color="#365FD9"/>
</linearGradient>
<linearGradient id="paint20_linear" x1="341.871" y1="404.38" x2="341.871" y2="408.01" gradientUnits="userSpaceOnUse">
<stop stop-color="#4070FF"/>
<stop offset="1" stop-color="#365FD9"/>
</linearGradient>
<linearGradient id="paint21_linear" x1="356.93" y1="222.506" x2="356.93" y2="230.52" gradientUnits="userSpaceOnUse">
<stop stop-color="#4070FF"/>
<stop offset="1" stop-color="#365FD9"/>
</linearGradient>
<linearGradient id="paint22_linear" x1="352.224" y1="222.767" x2="352.224" y2="227" gradientUnits="userSpaceOnUse">
<stop stop-color="#4070FF"/>
<stop offset="1" stop-color="#365FD9"/>
</linearGradient>
<linearGradient id="paint23_linear" x1="329.842" y1="225.763" x2="329.842" y2="230" gradientUnits="userSpaceOnUse">
<stop stop-color="#4070FF"/>
<stop offset="1" stop-color="#365FD9"/>
</linearGradient>
</defs>
</svg>
