<svg width="500" height="500" viewBox="0 0 500 500" fill="none" xmlns="http://www.w3.org/2000/svg">
<path opacity="0.1" d="M249.89 436.64C356.973 436.64 443.78 431.572 443.78 425.32C443.78 419.068 356.973 414 249.89 414C142.808 414 56 419.068 56 425.32C56 431.572 142.808 436.64 249.89 436.64Z" fill="url(#paint0_linear)"/>
<path opacity="0.1" d="M183.665 220.895C238.045 194.495 350.365 74.9754 400.315 170.315C442.115 250.095 349.665 324.935 294.315 352.315C222.315 387.945 116.485 373.875 59.5154 306.525C35.0154 277.525 26.1754 236.525 68.9154 228.895C83.3354 226.315 107.815 235.715 124.115 234.895C145.005 233.845 165.465 229.725 183.665 220.895Z" fill="url(#paint1_linear)"/>
<path d="M214.866 164.578C212.656 169.948 199.646 169.578 186.016 163.958C172.386 158.338 163.116 149.428 165.326 144.058C165.846 142.818 167.326 138.168 168.806 137.528C173.886 135.378 183.556 140.208 194.026 144.528C203.776 148.528 214.926 151.138 216.656 156.428C217.696 159.648 215.496 163.048 214.866 164.578Z" fill="url(#paint2_linear)"/>
<path opacity="0.2" d="M216.675 156.357C217.505 160.567 215.675 162.587 214.885 164.507C214.095 166.427 211.785 167.687 208.555 168.127C208.151 168.196 207.744 168.242 207.335 168.267C204.858 168.413 202.373 168.282 199.925 167.877C199.575 167.877 199.225 167.767 198.865 167.707C195.992 167.191 193.161 166.463 190.395 165.527L189.395 165.187C188.285 164.797 187.145 164.367 186.005 163.897C184.865 163.427 183.785 162.897 182.715 162.427L181.795 161.987C179.274 160.74 176.845 159.317 174.525 157.727L173.705 157.147C171.68 155.716 169.825 154.058 168.175 152.207C167.925 151.927 167.695 151.657 167.475 151.377C165.325 148.657 164.475 146.057 165.325 143.987C165.885 142.657 167.085 138.107 168.805 137.447C170.921 136.851 173.16 136.851 175.275 137.447L176.275 137.687C181.275 138.967 187.575 141.817 194.005 144.467C201.585 147.597 210.555 150.847 214.955 154.597C215.217 154.817 215.467 155.051 215.705 155.297C216.056 155.624 216.381 155.978 216.675 156.357Z" fill="black"/>
<g opacity="0.2">
<path opacity="0.2" d="M176.28 136.48L175.82 137.32L167.7 151.85C167.45 151.57 167.22 151.3 167 151.02L174.8 137.08L175.41 136L176.28 136.48Z" fill="black"/>
</g>
<g opacity="0.2">
<path opacity="0.2" d="M183.19 142.46L174.82 157.46L174 156.88L182.32 142L183.19 142.46Z" fill="black"/>
</g>
<g opacity="0.2">
<path opacity="0.2" d="M197.91 151.53L190 165.7L189 165.36L197 151L197.91 151.53Z" fill="black"/>
</g>
<g opacity="0.2">
<path opacity="0.2" d="M191.33 147.53L182.92 162.6L182 162.16L190.46 147L191.33 147.53Z" fill="black"/>
</g>
<g opacity="0.2">
<path opacity="0.2" d="M207.77 154.5L200.06 168.28C199.71 168.28 199.36 168.17 199 168.11L206.89 154L207.77 154.5Z" fill="black"/>
</g>
<path d="M216.709 160.26C214.499 165.63 201.649 165.42 188.009 159.79C174.369 154.16 165.109 145.26 167.329 139.89C169.549 134.52 182.389 134.74 196.029 140.36C209.669 145.98 218.919 154.86 216.709 160.26Z" fill="url(#paint3_linear)"/>
<path opacity="0.2" d="M212.286 157.649C210.726 161.439 200.706 160.909 189.916 156.459C179.126 152.009 171.646 145.319 173.206 141.529C174.766 137.739 184.786 138.269 195.586 142.719C206.386 147.169 213.856 153.859 212.286 157.649Z" fill="white"/>
<path d="M283.389 115.743C286.949 120.333 280.169 131.443 268.499 140.473C256.829 149.503 244.499 153.103 240.949 148.473C240.129 147.413 236.809 143.863 237.009 142.203C237.679 136.733 246.669 130.753 255.629 123.813C263.969 117.353 271.759 108.973 277.209 110.103C280.519 110.833 282.379 114.443 283.389 115.743Z" fill="url(#paint4_linear)"/>
<path opacity="0.2" d="M277.188 110C281.258 111.38 282.098 114 283.368 115.6C284.638 117.2 284.588 119.87 283.368 122.9C283.228 123.27 283.058 123.64 282.878 124.02C281.782 126.243 280.44 128.336 278.878 130.26C278.668 130.54 278.438 130.81 278.208 131.09C276.327 133.333 274.281 135.432 272.088 137.37L271.318 138.04C270.428 138.81 269.488 139.58 268.518 140.33C267.548 141.08 266.578 141.79 265.598 142.46C265.328 142.66 265.038 142.85 264.768 143.04C262.431 144.607 259.985 146.004 257.448 147.22C257.138 147.38 256.838 147.51 256.548 147.65C254.293 148.693 251.928 149.478 249.498 149.99C249.138 150.07 248.788 150.13 248.438 150.18C245.008 150.69 242.328 150.18 240.958 148.37C240.078 147.23 236.728 143.92 237.018 142.11C237.541 139.97 238.653 138.02 240.228 136.48C240.448 136.23 240.688 135.98 240.938 135.72C244.548 131.98 250.138 127.97 255.638 123.72C262.128 118.72 269.408 112.53 274.838 110.59C275.166 110.47 275.499 110.366 275.838 110.28C276.28 110.154 276.732 110.06 277.188 110Z" fill="black"/>
<g opacity="0.2">
<path opacity="0.2" d="M240.85 135L241.35 135.82L249.91 150.09C249.55 150.17 249.2 150.23 248.85 150.28L240.64 136.56L240 135.56L240.85 135Z" fill="black"/>
</g>
<g opacity="0.2">
<path opacity="0.2" d="M248.86 133L257.68 147.7C257.37 147.86 257.07 147.99 256.78 148.13L248 133.51L248.86 133Z" fill="black"/>
</g>
<g opacity="0.2">
<path opacity="0.2" d="M263.86 124L272.21 137.92L271.44 138.59L263 124.51L263.86 124Z" fill="black"/>
</g>
<g opacity="0.2">
<path opacity="0.2" d="M256.87 128L265.75 142.79C265.48 142.99 265.19 143.18 264.92 143.37L256 128.51L256.87 128Z" fill="black"/>
</g>
<g opacity="0.2">
<path opacity="0.2" d="M270.86 117L278.98 130.55C278.77 130.83 278.54 131.1 278.31 131.38L270 117.52L270.86 117Z" fill="black"/>
</g>
<path d="M265.988 136.262C277.65 127.229 284.223 116.186 280.669 111.597C277.114 107.008 264.779 110.611 253.116 119.644C241.454 128.677 234.881 139.72 238.436 144.309C241.99 148.898 254.326 145.295 265.988 136.262Z" fill="url(#paint5_linear)"/>
<path opacity="0.2" d="M264.813 133.803C274.043 126.653 279.488 118.228 276.976 114.984C274.463 111.74 264.943 114.905 255.713 122.055C246.483 129.204 241.037 137.63 243.55 140.874C246.063 144.118 255.582 140.952 264.813 133.803Z" fill="white"/>
<path d="M235.855 94.8578C234.715 101.438 219.955 104.218 203.235 101.218C186.515 98.2178 173.905 90.4878 175.075 83.9078C175.345 82.3778 175.815 76.8078 177.385 75.6978C182.575 72.0378 194.635 75.0978 207.475 77.3778C219.475 79.5078 232.605 79.6778 235.855 85.2078C237.825 88.6078 236.185 92.9778 235.855 94.8578Z" fill="url(#paint6_linear)"/>
<path opacity="0.2" d="M235.865 85.1C237.865 89.64 236.275 92.35 235.865 94.71C235.455 97.07 233.165 99.04 229.645 100.34C229.215 100.51 228.765 100.65 228.305 100.79C225.552 101.564 222.721 102.03 219.865 102.18C219.455 102.18 219.055 102.18 218.635 102.25C215.271 102.374 211.902 102.25 208.555 101.88L207.385 101.73C206.035 101.56 204.645 101.36 203.255 101.11C201.865 100.86 200.515 100.58 199.185 100.27C198.805 100.19 198.425 100.09 198.045 100C194.903 99.2242 191.822 98.2216 188.825 97C188.455 96.86 188.105 96.7 187.755 96.56C185.125 95.4404 182.629 94.0282 180.315 92.35C179.965 92.1 179.645 91.85 179.315 91.59C176.215 89.06 174.625 86.34 175.075 83.81C175.375 82.17 175.615 76.81 177.375 75.6C179.135 74.39 181.655 74.01 184.655 74H185.855C191.855 74.2 199.585 75.87 207.475 77.27C216.775 78.93 227.665 80.38 233.525 83.52C233.869 83.7022 234.203 83.9025 234.525 84.12C234.997 84.4113 235.445 84.7389 235.865 85.1Z" fill="black"/>
<g opacity="0.2">
<path opacity="0.2" d="M185.88 72.33L185.56 73.38L180 91.72C179.65 91.47 179.33 91.22 179 90.96L184.34 73.37L184.76 72L185.88 72.33Z" fill="black"/>
</g>
<g opacity="0.2">
<path opacity="0.2" d="M193.8 77.35L188.07 96.24C187.7 96.1 187.35 95.94 187 95.8L192.7 77L193.8 77.35Z" fill="black"/>
</g>
<g opacity="0.2">
<path opacity="0.2" d="M213.6 83.34L208.17 101.23L207 101.08L212.49 83L213.6 83.34Z" fill="black"/>
</g>
<g opacity="0.2">
<path opacity="0.2" d="M204.91 81.36L199.14 100.36C198.76 100.28 198.38 100.18 198 100.09L203.8 81L204.91 81.36Z" fill="black"/>
</g>
<g opacity="0.2">
<path opacity="0.2" d="M224.52 84.33L219.23 101.74C218.82 101.74 218.42 101.74 218 101.81L223.41 84L224.52 84.33Z" fill="black"/>
</g>
<path d="M236.688 88.8651C237.859 82.2858 225.25 74.5395 208.524 71.5633C191.798 68.587 177.291 71.5078 176.12 78.0871C174.949 84.6664 187.559 92.4127 204.284 95.389C221.01 98.3653 235.518 95.4444 236.688 88.8651Z" fill="url(#paint7_linear)"/>
<path opacity="0.2" d="M230.425 88.1107C231.252 83.4617 221.194 77.7838 207.959 75.4287C194.725 73.0736 183.325 74.9332 182.498 79.5822C181.671 84.2312 191.729 89.9092 204.964 92.2642C218.198 94.6193 229.598 92.7597 230.425 88.1107Z" fill="white"/>
<path d="M322.813 263.002L219.903 269.002C216.268 269.216 212.701 270.083 209.373 271.562L97.5931 321.562C95.6319 322.424 94.0257 323.933 93.0429 325.837C92.0602 327.741 91.7602 329.924 92.1931 332.022L110.663 419.372C110.975 420.779 111.605 422.095 112.504 423.221C113.403 424.347 114.548 425.252 115.851 425.868C117.153 426.484 118.58 426.793 120.02 426.773C121.461 426.753 122.878 426.404 124.163 425.752L234.493 370.672L336.373 367.262C337.627 367.229 338.859 366.928 339.988 366.382C341.116 365.835 342.115 365.054 342.919 364.091C343.722 363.127 344.311 362.004 344.646 360.796C344.981 359.587 345.055 358.321 344.863 357.082L331.233 273.442C330.523 269.122 327.243 262.872 322.813 263.002Z" fill="url(#paint8_linear)"/>
<path opacity="0.1" d="M322.813 263.002L219.903 269.002C216.268 269.216 212.701 270.083 209.373 271.562L97.5931 321.562C95.6319 322.424 94.0257 323.933 93.0429 325.837C92.0602 327.741 91.7602 329.924 92.1931 332.022L110.663 419.372C110.975 420.779 111.605 422.095 112.504 423.221C113.403 424.347 114.548 425.252 115.851 425.868C117.153 426.484 118.58 426.793 120.02 426.773C121.461 426.753 122.878 426.404 124.163 425.752L234.493 370.672L336.373 367.262C337.627 367.229 338.859 366.928 339.988 366.382C341.116 365.835 342.115 365.054 342.919 364.091C343.722 363.127 344.311 362.004 344.646 360.796C344.981 359.587 345.055 358.321 344.863 357.082L331.233 273.442C330.523 269.122 327.243 262.872 322.813 263.002Z" fill="black"/>
<path d="M116.006 206.217L62 256L158.915 361.136L212.921 311.354L116.006 206.217Z" fill="url(#paint9_linear)"/>
<path opacity="0.5" d="M212.91 311.14L158.9 360.92L62 255.79L97.44 223.12L116.01 206L119.1 209.36L212.91 311.14Z" fill="#FAFAFA"/>
<path d="M116.653 213.073L69 257L159.652 355.342L207.305 311.416L116.653 213.073Z" stroke="url(#paint10_linear)" stroke-miterlimit="10"/>
<path d="M148.778 295.7C154.244 290.661 153.553 281.02 147.234 274.166C140.916 267.311 131.363 265.839 125.897 270.877C120.431 275.916 121.122 285.557 127.441 292.411C133.759 299.266 143.313 300.738 148.778 295.7Z" fill="url(#paint11_linear)"/>
<path opacity="0.1" d="M157.89 318.25L138.7 324.88L97 223.12L115.57 206L118.66 209.36L157.89 318.25Z" fill="black"/>
<path d="M162.051 164.963L93 190L141.741 324.426L210.792 299.389L162.051 164.963Z" fill="url(#paint12_linear)"/>
<path opacity="0.5" d="M162.051 164.963L93 190L141.741 324.426L210.792 299.389L162.051 164.963Z" fill="#FAFAFA"/>
<path d="M159.929 170.908L99 193L144.592 318.74L205.52 296.648L159.929 170.908Z" stroke="url(#paint13_linear)" stroke-miterlimit="10"/>
<path d="M157.162 260.15C164.15 257.616 167.239 248.457 164.062 239.693C160.884 230.929 152.642 225.878 145.654 228.412C138.665 230.946 135.576 240.105 138.754 248.869C141.932 257.633 150.173 262.684 157.162 260.15Z" fill="url(#paint14_linear)"/>
<path d="M323.549 267.002L222.049 272.722C218.451 272.919 214.921 273.784 211.639 275.272L101.499 324.992C99.5592 325.869 97.9765 327.381 97.0128 329.279C96.0491 331.178 95.7621 333.348 96.1992 335.432L114.669 422.822C114.967 424.22 115.581 425.531 116.464 426.654C117.347 427.778 118.477 428.684 119.765 429.303C121.053 429.922 122.466 430.237 123.895 430.225C125.325 430.213 126.732 429.873 128.009 429.232L236.709 374.462L337.189 371.282C338.433 371.242 339.654 370.938 340.771 370.389C341.888 369.84 342.875 369.06 343.667 368.099C344.458 367.138 345.035 366.02 345.36 364.818C345.684 363.617 345.749 362.36 345.549 361.132L331.879 277.502C331.169 273.142 327.929 266.882 323.549 267.002Z" fill="url(#paint15_linear)"/>
<path opacity="0.2" d="M226 287.36L313.09 282" stroke="black" stroke-width="2" stroke-linecap="round" stroke-linejoin="round"/>
<path opacity="0.2" d="M215 290L230.91 363.08" stroke="black" stroke-width="2" stroke-linecap="round" stroke-linejoin="round"/>
<path opacity="0.2" d="M109 356L120.22 412.21C120.22 412.21 128.82 389.91 109 356Z" fill="#FAFAFA"/>
<path opacity="0.2" d="M111 356.6C111.39 357.6 210.66 315 210.66 315C210.929 324.658 208.514 334.202 203.684 342.57C198.854 350.938 191.798 357.802 183.3 362.4C153.42 379.15 111 356.6 111 356.6Z" fill="#FAFAFA"/>
<path d="M176.3 358.6C178.675 358.6 180.6 356.675 180.6 354.3C180.6 351.925 178.675 350 176.3 350C173.925 350 172 351.925 172 354.3C172 356.675 173.925 358.6 176.3 358.6Z" fill="url(#paint16_linear)"/>
<path opacity="0.2" d="M211 315C211 315 223.31 333.53 220.33 365.09L211 315Z" fill="black"/>
<g opacity="0.2">
<path opacity="0.2" d="M105 334.01L107.29 333" stroke="#FAFAFA" stroke-linecap="round" stroke-linejoin="round"/>
<path opacity="0.2" d="M112 330.98L204.7 290" stroke="#FAFAFA" stroke-linecap="round" stroke-linejoin="round" stroke-dasharray="5.2 5.2"/>
<path opacity="0.2" d="M207 289.01L209.28 288" stroke="#FAFAFA" stroke-linecap="round" stroke-linejoin="round"/>
</g>
<path opacity="0.2" d="M229 304.37L316.09 299" stroke="black" stroke-width="2" stroke-linecap="round" stroke-linejoin="round"/>
<path opacity="0.2" d="M233 324.37L320.09 319" stroke="black" stroke-width="2" stroke-linecap="round" stroke-linejoin="round"/>
<path d="M300.35 178C300.35 178 298.16 201.33 289.49 203.34C284.121 204.5 278.523 203.94 273.49 201.74L269 199L260 195.5L258.5 197.5C259 203 260.5 205.5 263 208.32C263 208.32 266.76 213.43 274.61 209.89C274.61 209.89 288.61 216.05 296.35 209.89C304.09 203.73 306.57 186.83 306.57 186.83L300.35 178Z" fill="#B97964"/>
<path d="M307.017 166.968C307.017 166.968 300.967 156.658 303.717 137.968C306.467 119.278 322.137 116.968 328.187 118.318C334.237 119.668 339.187 125.478 343.307 136.538C347.427 147.598 348.947 150.478 355.817 148.538C362.687 146.598 380.967 140.538 386.057 145.928C387.521 147.4 388.6 149.21 389.198 151.199C389.796 153.187 389.895 155.292 389.487 157.328C389.487 157.328 414.917 151.148 412.717 173.828C410.517 196.508 373.817 217.678 338.907 195.268C303.997 172.858 307.017 166.968 307.017 166.968Z" fill="#263238"/>
<path d="M306.686 222.01C306.686 222.01 299.776 281.44 300.006 309.31C300.236 337.18 310.136 402.86 310.136 402.86H322.346C322.346 402.86 320.736 350.34 320.966 332.37C321.196 314.4 324.416 284.67 324.416 284.67C324.416 284.67 328.326 311.39 332.936 320.83C337.546 330.27 363.116 363.68 380.856 374.05L389.146 366.44C389.146 366.44 370.716 343.64 363.806 332.35C356.896 321.06 350.686 317.86 348.146 296.86C345.606 275.86 349.996 242.27 342.626 222L306.686 222.01Z" fill="#263238"/>
<path opacity="0.2" d="M324.374 284.67L319.064 247C319.064 247 314.874 269.64 323.124 297.29L324.374 284.67Z" fill="black"/>
<path d="M313 405.82L313.41 417.49L321.6 418.17L322.01 417.08V405L313 405.82Z" fill="#B97964"/>
<path d="M309 401.54L309.75 405.91L323.81 406.25L324.7 401L309 401.54Z" fill="url(#paint17_linear)"/>
<path d="M377 375.14L390.03 363L392.9 367.57L381.71 377.81L377 375.14Z" fill="url(#paint18_linear)"/>
<path d="M384 374.55L392.6 381.79L398.12 375.3L391.06 368L384 374.55Z" fill="#B97964"/>
<path d="M399.73 375.301L404.93 378.502C405.167 378.648 405.369 378.844 405.522 379.076C405.676 379.308 405.776 379.571 405.817 379.846C405.858 380.122 405.838 380.403 405.76 380.67C405.681 380.936 405.544 381.183 405.36 381.391C401.59 385.651 391.96 396.471 391 397.231C389.81 398.231 388.37 396.551 388 395.051C388 395.051 390.73 391.431 391 389.111C391.114 387.32 391.114 385.523 391 383.731C390.979 383.283 391.129 382.843 391.42 382.501L397.23 375.682C397.53 375.326 397.949 375.092 398.409 375.022C398.868 374.952 399.338 375.051 399.73 375.301Z" fill="#263238"/>
<path d="M323.245 418.591L324.325 424.591C324.375 424.866 324.364 425.148 324.293 425.417C324.222 425.687 324.093 425.938 323.915 426.152C323.736 426.367 323.513 426.539 323.261 426.658C323.009 426.777 322.734 426.84 322.455 426.841C316.765 426.841 302.285 426.901 301.075 426.701C299.565 426.451 299.835 424.291 300.725 423.031C300.725 423.031 305.235 422.651 307.125 421.281C308.531 420.178 309.867 418.99 311.125 417.721C311.447 417.406 311.875 417.224 312.325 417.211L321.275 417.001C321.74 416.984 322.195 417.136 322.557 417.428C322.919 417.72 323.164 418.133 323.245 418.591Z" fill="#263238"/>
<path d="M343.93 189.214L356.41 180.454C356.41 180.454 353.09 167.174 348.17 166.514C343.25 165.854 318.83 161.204 303.3 166.514C303.3 166.514 297.72 168.104 296 183.774L302.64 185.894C302.64 185.894 305.02 215.234 306.49 219.754H341.93C341.93 219.754 342.33 194.524 343.93 189.214Z" fill="url(#paint19_linear)"/>
<path d="M347.42 186.52C347.42 186.52 352.15 200.02 352.99 207.28C352.99 207.28 341.75 202.8 338.85 200.75L336.65 192.85L329.21 189.22L327 195.22L333.21 202.92C333.21 202.92 350.14 218.76 358.72 215.14C367.3 211.52 355.33 181 355.33 181L347.42 186.52Z" fill="#B97964"/>
<path d="M315.018 127.7C315.018 127.7 310.688 136.34 311.018 143.37C311.348 150.4 314.898 153.27 321.648 154.26C321.648 154.26 324.528 163.26 316.968 164.17C316.388 164.24 316.188 166.53 316.228 166.9C316.428 168.36 317.878 169.16 319.228 169.5C320.65 169.815 322.102 169.976 323.558 169.98C325.087 170.033 326.609 169.737 328.007 169.115C329.405 168.493 330.643 167.561 331.628 166.39C331.788 166.2 333.308 164.26 333.308 164.26C333.308 164.26 329.698 162.47 330.968 150.75C332.691 149.628 334.014 147.99 334.748 146.07C335.438 145.704 336.048 145.204 336.542 144.6C337.037 143.995 337.406 143.299 337.628 142.55C338.168 140.21 336.098 136.97 332.318 140.21C332.318 140.21 325.198 136.61 322.498 124C320.496 126.045 317.858 127.35 315.018 127.7Z" fill="#B97964"/>
<path d="M317.66 141.62L318.27 137L315 140.62C315.337 140.979 315.753 141.256 316.214 141.429C316.675 141.603 317.17 141.668 317.66 141.62Z" fill="#A24E3F"/>
<path d="M319 144.68C319 144.68 322.45 145.21 324.11 143" stroke="#222221" stroke-width="0.75" stroke-linecap="round" stroke-linejoin="round"/>
<path d="M323 130.172C323.783 129.95 324.612 129.943 325.399 130.152C326.186 130.362 326.901 130.78 327.47 131.362" stroke="#222221" stroke-linecap="round" stroke-linejoin="round"/>
<path d="M316.89 130.039C316.89 130.039 314.89 129.729 314 130.859" stroke="#222221" stroke-linecap="round" stroke-linejoin="round"/>
<path d="M323.696 136.375C323.606 137.075 323.156 137.585 322.696 137.525C322.236 137.465 321.926 136.855 322.016 136.155C322.106 135.455 322.556 134.945 323.016 135.005C323.476 135.065 323.786 135.675 323.696 136.375Z" fill="#222221"/>
<path d="M315.849 134.96C315.94 134.264 315.636 133.651 315.17 133.591C314.705 133.53 314.254 134.045 314.164 134.741C314.073 135.436 314.377 136.049 314.843 136.109C315.308 136.17 315.759 135.655 315.849 134.96Z" fill="#222221"/>
<path d="M323.58 135.69L322 135C322.021 135.173 322.086 135.337 322.19 135.477C322.294 135.617 322.433 135.727 322.593 135.797C322.752 135.867 322.927 135.893 323.101 135.875C323.274 135.856 323.439 135.792 323.58 135.69Z" fill="#222221"/>
<path d="M315.58 133.69L314 133C314.021 133.173 314.086 133.337 314.19 133.477C314.294 133.617 314.433 133.727 314.593 133.797C314.752 133.867 314.927 133.893 315.101 133.875C315.274 133.856 315.439 133.792 315.58 133.69Z" fill="#222221"/>
<path d="M306 217.47V221.64L344.4 221.96L343.37 217L306 217.47Z" fill="url(#paint20_linear)"/>
<path opacity="0.4" d="M306 217.47V221.64L344.4 221.96L343.37 217L306 217.47Z" fill="white"/>
<defs>
<linearGradient id="paint0_linear" x1="443.78" y1="414" x2="443.78" y2="436.64" gradientUnits="userSpaceOnUse">
<stop stop-color="#4070FF"/>
<stop offset="1" stop-color="#365FD9"/>
</linearGradient>
<linearGradient id="paint1_linear" x1="410.845" y1="134" x2="410.845" y2="371.311" gradientUnits="userSpaceOnUse">
<stop stop-color="#4070FF"/>
<stop offset="1" stop-color="#365FD9"/>
</linearGradient>
<linearGradient id="paint2_linear" x1="216.931" y1="137" x2="216.931" y2="168.398" gradientUnits="userSpaceOnUse">
<stop stop-color="#4070FF"/>
<stop offset="1" stop-color="#365FD9"/>
</linearGradient>
<linearGradient id="paint3_linear" x1="217.035" y1="136" x2="217.035" y2="164.154" gradientUnits="userSpaceOnUse">
<stop stop-color="#4070FF"/>
<stop offset="1" stop-color="#365FD9"/>
</linearGradient>
<linearGradient id="paint4_linear" x1="284.338" y1="110" x2="284.338" y2="150.494" gradientUnits="userSpaceOnUse">
<stop stop-color="#4070FF"/>
<stop offset="1" stop-color="#365FD9"/>
</linearGradient>
<linearGradient id="paint5_linear" x1="274.233" y1="103.288" x2="287.105" y2="119.906" gradientUnits="userSpaceOnUse">
<stop stop-color="#4070FF"/>
<stop offset="1" stop-color="#365FD9"/>
</linearGradient>
<linearGradient id="paint6_linear" x1="236.809" y1="74" x2="236.809" y2="102.423" gradientUnits="userSpaceOnUse">
<stop stop-color="#4070FF"/>
<stop offset="1" stop-color="#365FD9"/>
</linearGradient>
<linearGradient id="paint7_linear" x1="178.24" y1="66.1743" x2="238.808" y2="76.9523" gradientUnits="userSpaceOnUse">
<stop stop-color="#4070FF"/>
<stop offset="1" stop-color="#365FD9"/>
</linearGradient>
<linearGradient id="paint8_linear" x1="344.967" y1="263" x2="344.967" y2="426.774" gradientUnits="userSpaceOnUse">
<stop stop-color="#4070FF"/>
<stop offset="1" stop-color="#365FD9"/>
</linearGradient>
<linearGradient id="paint9_linear" x1="116.006" y1="206.217" x2="212.921" y2="311.354" gradientUnits="userSpaceOnUse">
<stop stop-color="#4070FF"/>
<stop offset="1" stop-color="#365FD9"/>
</linearGradient>
<linearGradient id="paint10_linear" x1="116.653" y1="213.073" x2="207.305" y2="311.416" gradientUnits="userSpaceOnUse">
<stop stop-color="#4070FF"/>
<stop offset="1" stop-color="#365FD9"/>
</linearGradient>
<linearGradient id="paint11_linear" x1="135.793" y1="261.754" x2="158.675" y2="286.577" gradientUnits="userSpaceOnUse">
<stop stop-color="#4070FF"/>
<stop offset="1" stop-color="#365FD9"/>
</linearGradient>
<linearGradient id="paint12_linear" x1="162.051" y1="164.963" x2="210.792" y2="299.389" gradientUnits="userSpaceOnUse">
<stop stop-color="#4070FF"/>
<stop offset="1" stop-color="#365FD9"/>
</linearGradient>
<linearGradient id="paint13_linear" x1="159.929" y1="170.908" x2="205.52" y2="296.648" gradientUnits="userSpaceOnUse">
<stop stop-color="#4070FF"/>
<stop offset="1" stop-color="#365FD9"/>
</linearGradient>
<linearGradient id="paint14_linear" x1="158.308" y1="223.824" x2="169.816" y2="255.562" gradientUnits="userSpaceOnUse">
<stop stop-color="#4070FF"/>
<stop offset="1" stop-color="#365FD9"/>
</linearGradient>
<linearGradient id="paint15_linear" x1="345.663" y1="267" x2="345.663" y2="430.225" gradientUnits="userSpaceOnUse">
<stop stop-color="#4070FF"/>
<stop offset="1" stop-color="#365FD9"/>
</linearGradient>
<linearGradient id="paint16_linear" x1="180.6" y1="350" x2="180.6" y2="358.6" gradientUnits="userSpaceOnUse">
<stop stop-color="#4070FF"/>
<stop offset="1" stop-color="#365FD9"/>
</linearGradient>
<linearGradient id="paint17_linear" x1="324.7" y1="401" x2="324.7" y2="406.25" gradientUnits="userSpaceOnUse">
<stop stop-color="#4070FF"/>
<stop offset="1" stop-color="#365FD9"/>
</linearGradient>
<linearGradient id="paint18_linear" x1="392.9" y1="363" x2="392.9" y2="377.81" gradientUnits="userSpaceOnUse">
<stop stop-color="#4070FF"/>
<stop offset="1" stop-color="#365FD9"/>
</linearGradient>
<linearGradient id="paint19_linear" x1="356.41" y1="164" x2="356.41" y2="219.754" gradientUnits="userSpaceOnUse">
<stop stop-color="#4070FF"/>
<stop offset="1" stop-color="#365FD9"/>
</linearGradient>
<linearGradient id="paint20_linear" x1="344.4" y1="217" x2="344.4" y2="221.96" gradientUnits="userSpaceOnUse">
<stop stop-color="#4070FF"/>
<stop offset="1" stop-color="#365FD9"/>
</linearGradient>
</defs>
</svg>
