<svg width="1600" height="453" fill="none" xmlns="http://www.w3.org/2000/svg"><path fill-rule="evenodd" clip-rule="evenodd" d="M0 453h1723L1695.98 0H0v453z" fill="url(#paint0_linear)"/><mask id="a" maskUnits="userSpaceOnUse" x="0" y="0" width="1723" height="453"><path fill-rule="evenodd" clip-rule="evenodd" d="M0 453h1723L1695.98 0H0v453z" fill="#fff"/></mask><g mask="url(#a)"><path fill="url(#paint1_linear)" d="M0-130h1600V875H0z"/><path fill-rule="evenodd" clip-rule="evenodd" d="M1273 800c281.11 0 509-227.887 509-509s-227.89-509-509-509C991.887-218 764 9.887 764 291s227.887 509 509 509z" fill="url(#paint2_linear)"/><path fill-rule="evenodd" clip-rule="evenodd" d="M234 460c204.345 0 370-165.655 370-370S438.345-280 234-280-136-114.345-136 90 29.655 460 234 460z" fill="url(#paint3_linear)"/><path fill-rule="evenodd" clip-rule="evenodd" d="M1600.5 650c104.66 0 189.5-84.842 189.5-189.5S1705.16 271 1600.5 271 1411 355.842 1411 460.5 1495.84 650 1600.5 650z" fill="url(#paint4_linear)"/><path opacity=".684" fill-rule="evenodd" clip-rule="evenodd" d="M53.5 120C158.158 120 243 35.158 243-69.5S158.158-259 53.5-259-136-174.158-136-69.5-51.158 120 53.5 120z" fill="url(#paint5_linear)"/></g><defs><linearGradient id="paint0_linear" x1="-198.531" y1="193.048" x2="-172.441" y2="524.213" gradientUnits="userSpaceOnUse"><stop stop-color="#fff"/><stop offset="1" stop-color="#FAF8F5"/></linearGradient><linearGradient id="paint1_linear" x1="-634.786" y1="338.352" x2="106.164" y2="1591.22" gradientUnits="userSpaceOnUse"><stop stop-color="#FFC85D"/><stop offset="1" stop-color="#FF9E64"/></linearGradient><linearGradient id="paint2_linear" x1="764" y1="-218" x2="764" y2="800" gradientUnits="userSpaceOnUse"><stop stop-color="#FFA561"/><stop offset="1" stop-color="#FFC75D" stop-opacity=".01"/></linearGradient><linearGradient id="paint3_linear" x1="604" y1="460" x2="604" y2="-280" gradientUnits="userSpaceOnUse"><stop stop-color="#FFCC6E" stop-opacity=".395"/><stop offset="1" stop-color="#FFAE61" stop-opacity=".01"/></linearGradient><linearGradient id="paint4_linear" x1="1429.33" y1="298.134" x2="1203.9" y2="668.417" gradientUnits="userSpaceOnUse"><stop stop-color="#FFAE56" stop-opacity=".395"/><stop offset="1" stop-color="#FF8613" stop-opacity=".01"/></linearGradient><linearGradient id="paint5_linear" x1="366.85" y1="-113.795" x2="-.503" y2="-470.122" gradientUnits="userSpaceOnUse"><stop stop-color="#FFC160"/><stop offset="1" stop-color="#FF8613" stop-opacity=".01"/></linearGradient></defs></svg>