<svg viewBox="0 0 136 24" fill="none" xmlns="http://www.w3.org/2000/svg"><path d="M8.328 12.312c0-1.232-.248-2.208-.744-2.928-.48-.72-1.248-1.08-2.304-1.08-.48 0-.936.072-1.368.216-.416.144-.752.304-1.008.48v7.224c.208.048.472.096.792.144.336.032.736.048 1.2.048 1.072 0 1.912-.36 2.52-1.08.608-.736.912-1.744.912-3.024zm2.976.048c0 1.008-.152 1.92-.456 2.736a5.677 5.677 0 01-1.272 2.064 5.364 5.364 0 01-1.992 1.32c-.784.304-1.672.456-2.664.456-.96 0-1.88-.072-2.76-.216-.864-.144-1.584-.304-2.16-.48V.48L2.904 0v6.504a6.977 6.977 0 011.224-.48 5.837 5.837 0 011.632-.216c.88 0 1.664.16 2.352.48a4.502 4.502 0 011.752 1.32c.464.576.816 1.272 1.056 2.088.256.8.384 1.688.384 2.664z" fill="url(#paint0_linear)"/><path d="M16.505 18.624H13.6V6.072h2.904v12.552zM16.817 2.4c0 .544-.176.976-.528 1.296-.352.32-.768.48-1.248.48-.496 0-.92-.16-1.272-.48-.352-.32-.528-.752-.528-1.296 0-.56.176-1 .528-1.32.352-.32.776-.48 1.272-.48.48 0 .896.16 1.248.48.352.32.528.76.528 1.32z" fill="url(#paint1_linear)"/><path d="M19.346 2.76l2.904-.48v3.792h4.464v2.424H22.25v5.112c0 1.008.16 1.728.48 2.16.32.432.864.648 1.632.648.528 0 .992-.056 1.392-.168.416-.112.744-.216.984-.312l.48 2.304a9.838 9.838 0 01-1.32.432c-.544.16-1.184.24-1.92.24-.896 0-1.648-.12-2.256-.36-.592-.24-1.064-.584-1.416-1.032a4.24 4.24 0 01-.744-1.656c-.144-.656-.216-1.4-.216-2.232V2.76z" fill="url(#paint2_linear)"/><path d="M27.847 12.36c0-.928.144-1.792.432-2.592a6.265 6.265 0 011.224-2.112 5.787 5.787 0 011.968-1.392c.768-.336 1.632-.504 2.592-.504 1.184 0 2.304.216 3.36.648L36.8 8.784a6.521 6.521 0 00-1.152-.36 5.969 5.969 0 00-1.344-.144c-1.136 0-2 .36-2.592 1.08-.592.704-.888 1.704-.888 3 0 1.248.28 2.24.84 2.976.56.72 1.504 1.08 2.832 1.08.496 0 .984-.048 1.464-.144a6.88 6.88 0 001.248-.36l.408 2.4c-.32.16-.808.304-1.464.432-.64.128-1.304.192-1.992.192-1.072 0-2.008-.16-2.808-.48a5.641 5.641 0 01-1.968-1.368A5.898 5.898 0 0128.231 15a8.775 8.775 0 01-.384-2.64z" fill="url(#paint3_linear)"/><path d="M50.238 12.336c0 .992-.144 1.896-.432 2.712-.288.816-.696 1.512-1.224 2.088a5.477 5.477 0 01-1.92 1.344c-.736.32-1.552.48-2.448.48-.896 0-1.712-.16-2.448-.48a5.531 5.531 0 01-1.896-1.344c-.528-.576-.944-1.272-1.248-2.088-.288-.816-.432-1.72-.432-2.712 0-.992.144-1.888.432-2.688.304-.816.72-1.512 1.248-2.088a5.498 5.498 0 011.92-1.32c.736-.32 1.544-.48 2.424-.48.88 0 1.688.16 2.424.48a5.22 5.22 0 011.92 1.32c.528.576.936 1.272 1.224 2.088.304.8.456 1.696.456 2.688zm-2.976 0c0-1.248-.272-2.232-.816-2.952-.528-.736-1.272-1.104-2.232-1.104-.96 0-1.712.368-2.256 1.104-.528.72-.792 1.704-.792 2.952 0 1.264.264 2.264.792 3 .544.736 1.296 1.104 2.256 1.104.96 0 1.704-.368 2.232-1.104.544-.736.816-1.736.816-3z" fill="url(#paint4_linear)"/><path d="M55.437 18.624h-2.904V6.072h2.904v12.552zM55.75 2.4c0 .544-.176.976-.528 1.296-.352.32-.768.48-1.248.48-.496 0-.92-.16-1.272-.48-.352-.32-.528-.752-.528-1.296 0-.56.176-1 .528-1.32.352-.32.776-.48 1.272-.48.48 0 .896.16 1.248.48.352.32.528.76.528 1.32z" fill="url(#paint5_linear)"/><path d="M58.422 6.48c.56-.16 1.288-.312 2.184-.456a18.83 18.83 0 012.976-.216c1.024 0 1.88.144 2.568.432.688.272 1.232.664 1.632 1.176.416.496.704 1.104.864 1.824.176.704.264 1.48.264 2.328v7.056h-2.904v-6.6c0-.672-.048-1.24-.144-1.704-.08-.48-.224-.864-.432-1.152a1.57 1.57 0 00-.816-.648c-.336-.144-.752-.216-1.248-.216-.368 0-.752.024-1.152.072-.4.048-.696.088-.888.12v10.128h-2.904V6.48z" fill="url(#paint6_linear)"/><path d="M83.093 12.336c0 .992-.144 1.896-.432 2.712-.288.816-.696 1.512-1.224 2.088a5.477 5.477 0 01-1.92 1.344c-.736.32-1.552.48-2.448.48-.896 0-1.712-.16-2.448-.48a5.531 5.531 0 01-1.896-1.344c-.528-.576-.944-1.272-1.248-2.088-.288-.816-.432-1.72-.432-2.712 0-.992.144-1.888.432-2.688.304-.816.72-1.512 1.248-2.088a5.497 5.497 0 011.92-1.32c.736-.32 1.544-.48 2.424-.48.88 0 1.688.16 2.424.48a5.22 5.22 0 011.92 1.32c.528.576.936 1.272 1.224 2.088.304.8.456 1.696.456 2.688zm-2.976 0c0-1.248-.272-2.232-.816-2.952-.528-.736-1.272-1.104-2.232-1.104-.96 0-1.712.368-2.256 1.104-.528.72-.792 1.704-.792 2.952 0 1.264.264 2.264.792 3 .544.736 1.296 1.104 2.256 1.104.96 0 1.704-.368 2.232-1.104.544-.736.816-1.736.816-3z" fill="url(#paint7_linear)"/><path d="M88.3 18.624a85.72 85.72 0 01-2.472-5.664 75.555 75.555 0 01-2.28-6.888h3.096c.176.704.376 1.464.6 2.28.24.8.488 1.608.744 2.424.272.8.544 1.584.816 2.352.288.752.552 1.432.792 2.04.24-.608.496-1.288.768-2.04.272-.768.536-1.552.792-2.352.272-.816.528-1.624.768-2.424.24-.816.448-1.576.624-2.28h3a70.86 70.86 0 01-2.304 6.888c-.832 2.128-1.648 4.016-2.448 5.664H88.3z" fill="url(#paint8_linear)"/><path d="M99.51 17.04c0 .56-.191 1.016-.575 1.368a1.872 1.872 0 01-1.344.528c-.544 0-1-.176-1.368-.528-.368-.352-.552-.808-.552-1.368s.184-1.016.552-1.368c.368-.368.824-.552 1.368-.552.528 0 .976.184 1.344.552.384.352.576.808.576 1.368z" fill="url(#paint9_linear)"/><path d="M101.902 6.48c.56-.16 1.288-.312 2.184-.456a18.83 18.83 0 012.976-.216c1.024 0 1.88.144 2.568.432.688.272 1.232.664 1.632 1.176.416.496.704 1.104.864 1.824.176.704.264 1.48.264 2.328v7.056h-2.904v-6.6c0-.672-.048-1.24-.144-1.704-.08-.48-.224-.864-.432-1.152a1.57 1.57 0 00-.816-.648c-.336-.144-.752-.216-1.248-.216-.368 0-.752.024-1.152.072-.4.048-.696.088-.888.12v10.128h-2.904V6.48z" fill="url(#paint10_linear)"/><path d="M114.525 12.408c0-1.104.16-2.072.48-2.904.336-.832.776-1.52 1.32-2.064a5.2 5.2 0 011.872-1.248 5.656 5.656 0 012.16-.432c1.728 0 3.072.536 4.032 1.608.976 1.072 1.464 2.672 1.464 4.8 0 .16-.008.344-.024.552 0 .192-.008.368-.024.528h-8.28c.08 1.008.432 1.792 1.056 2.352.64.544 1.56.816 2.76.816.704 0 1.344-.064 1.92-.192.592-.128 1.056-.264 1.392-.408l.384 2.376a5.36 5.36 0 01-.672.264c-.272.08-.592.152-.96.216a11.09 11.09 0 01-2.424.264c-1.104 0-2.064-.16-2.88-.48-.816-.336-1.488-.792-2.016-1.368a5.738 5.738 0 01-1.176-2.064 8.543 8.543 0 01-.384-2.616zm8.424-1.296a3.7 3.7 0 00-.168-1.128 2.509 2.509 0 00-.504-.936 2.027 2.027 0 00-.792-.624c-.304-.16-.672-.24-1.104-.24-.448 0-.84.088-1.176.264-.336.16-.624.376-.864.648-.224.272-.4.584-.528.936a5.07 5.07 0 00-.264 1.08h5.4z" fill="url(#paint11_linear)"/><path d="M128.068 2.76l2.904-.48v3.792h4.464v2.424h-4.464v5.112c0 1.008.16 1.728.48 2.16.32.432.864.648 1.632.648.528 0 .992-.056 1.392-.168.416-.112.744-.216.984-.312l.48 2.304a9.838 9.838 0 01-1.32.432c-.544.16-1.184.24-1.92.24-.896 0-1.648-.12-2.256-.36-.592-.24-1.064-.584-1.416-1.032a4.24 4.24 0 01-.744-1.656c-.144-.656-.216-1.4-.216-2.232V2.76z" fill="url(#paint12_linear)"/><defs><linearGradient id="paint0_linear" x1="135.94" y1="0" x2="135.94" y2="18.96" gradientUnits="userSpaceOnUse"><stop stop-color="#4070FF"/><stop offset="1" stop-color="#365FD9"/></linearGradient><linearGradient id="paint1_linear" x1="135.94" y1="0" x2="135.94" y2="18.96" gradientUnits="userSpaceOnUse"><stop stop-color="#4070FF"/><stop offset="1" stop-color="#365FD9"/></linearGradient><linearGradient id="paint2_linear" x1="135.94" y1="0" x2="135.94" y2="18.96" gradientUnits="userSpaceOnUse"><stop stop-color="#4070FF"/><stop offset="1" stop-color="#365FD9"/></linearGradient><linearGradient id="paint3_linear" x1="135.94" y1="0" x2="135.94" y2="18.96" gradientUnits="userSpaceOnUse"><stop stop-color="#4070FF"/><stop offset="1" stop-color="#365FD9"/></linearGradient><linearGradient id="paint4_linear" x1="135.94" y1="0" x2="135.94" y2="18.96" gradientUnits="userSpaceOnUse"><stop stop-color="#4070FF"/><stop offset="1" stop-color="#365FD9"/></linearGradient><linearGradient id="paint5_linear" x1="135.94" y1="0" x2="135.94" y2="18.96" gradientUnits="userSpaceOnUse"><stop stop-color="#4070FF"/><stop offset="1" stop-color="#365FD9"/></linearGradient><linearGradient id="paint6_linear" x1="135.94" y1="0" x2="135.94" y2="18.96" gradientUnits="userSpaceOnUse"><stop stop-color="#4070FF"/><stop offset="1" stop-color="#365FD9"/></linearGradient><linearGradient id="paint7_linear" x1="135.94" y1="0" x2="135.94" y2="18.96" gradientUnits="userSpaceOnUse"><stop stop-color="#4070FF"/><stop offset="1" stop-color="#365FD9"/></linearGradient><linearGradient id="paint8_linear" x1="135.94" y1="0" x2="135.94" y2="18.96" gradientUnits="userSpaceOnUse"><stop stop-color="#4070FF"/><stop offset="1" stop-color="#365FD9"/></linearGradient><linearGradient id="paint9_linear" x1="135.94" y1="0" x2="135.94" y2="18.96" gradientUnits="userSpaceOnUse"><stop stop-color="#4070FF"/><stop offset="1" stop-color="#365FD9"/></linearGradient><linearGradient id="paint10_linear" x1="135.94" y1="0" x2="135.94" y2="18.96" gradientUnits="userSpaceOnUse"><stop stop-color="#4070FF"/><stop offset="1" stop-color="#365FD9"/></linearGradient><linearGradient id="paint11_linear" x1="135.94" y1="0" x2="135.94" y2="18.96" gradientUnits="userSpaceOnUse"><stop stop-color="#4070FF"/><stop offset="1" stop-color="#365FD9"/></linearGradient><linearGradient id="paint12_linear" x1="135.94" y1="0" x2="135.94" y2="18.96" gradientUnits="userSpaceOnUse"><stop stop-color="#4070FF"/><stop offset="1" stop-color="#365FD9"/></linearGradient></defs></svg>