<svg viewBox="0 0 104 32" fill="none" xmlns="http://www.w3.org/2000/svg"><g clip-path="url(#clip0)"><path d="M14.3 26c0-3.9-11.05-11.05-11.05-15.6 0-3.25 3.25-5.2 3.25-5.2 0 6.5 11.05 10.4 11.05 15.6 0 3.9-3.25 5.2-3.25 5.2z" fill="url(#paint0_linear)"/><path d="M9.75 31.2C11.05 27.3 0 22.1 0 14.3c0-7.8 6.5-9.1 6.5-9.1s-1.589 1.292-1.589 6.5c0 6.5 7.439 11.7 7.439 16.9 0 1.3-.65 2.6-2.6 2.6z" fill="url(#paint1_linear)"/><path d="M11.05 0c-1.3 3.9 9.75 9.1 9.75 16.9 0 7.8-6.5 9.1-6.5 9.1s1.589-1.3 1.589-5.2c0-7.8-7.439-13-7.439-18.2 0-1.3.65-2.6 2.6-2.6z" fill="url(#paint2_linear)"/><path d="M26 24.398V6.848h3.338l8.137 10.903v-10.9h3.63V24.4h-3.07L29.63 13.195v11.203H26zM45.163 13.397c1.17-1.284 2.63-1.913 4.361-1.913 1.851 0 3.29.78 3.654 1.885v-1.658h3.631v8.231c0 1.008.243 1.41.901 1.41.17 0 .39-.025.61-.05v3.12c-.39.127-.927.203-1.633.203-.804 0-1.486-.151-1.998-.455-.56-.377-.926-.83-1.096-1.36-.805 1.235-2.145 1.837-4.069 1.837-1.73 0-3.191-.628-4.36-1.885-1.146-1.284-1.731-2.845-1.731-4.708 0-1.838.585-3.398 1.73-4.657zm7.285 6.923a3.078 3.078 0 00.95-2.266c0-.882-.317-1.636-.95-2.24-.61-.63-1.364-.929-2.269-.929-.877 0-1.608.302-2.217.931-.609.604-.9 1.359-.9 2.24 0 .882.291 1.638.9 2.266.61.605 1.34.91 2.217.91.904-.003 1.66-.307 2.269-.912zM59.919 24.398V11.711h3.63v1.736c.561-1.284 1.877-2.015 3.557-2.015.318.005.635.03.95.075v3.524a6.051 6.051 0 00-1.217-.127c-2.072 0-3.29 1.21-3.29 3.299v6.193l-3.63.002zM71.267 24.398v-9.29h-2.023v-3.397h2.023v-.353c0-1.837.487-3.147 1.437-3.928.707-.628 1.85-.93 3.387-.93.49.004.978.046 1.461.125v3.12c-.219-.076-.585-.126-1.096-.126-1.17 0-1.68.428-1.68 1.51v.58h2.46v3.398h-2.46v9.291h-3.51zM78.01 18.029c0-1.988.634-3.6 1.876-4.81 1.243-1.235 2.851-1.838 4.776-1.838 1.876 0 3.387.63 4.555 1.864 1.169 1.234 1.755 2.743 1.755 4.58 0 .429-.024.832-.048 1.21H81.64c.072 1.51 1.34 2.492 3.264 2.492 1.145 0 2.145-.403 2.996-1.235l2.125 2.091c-1.44 1.537-3.22 2.317-5.29 2.317-2.022 0-3.63-.604-4.875-1.787-1.243-1.209-1.851-2.795-1.851-4.784l.002-.1zm9.307-1.436c0-1.183-1.194-2.113-2.655-2.113-1.584 0-2.875.93-2.972 2.113h5.627z" fill="#648CFA"/><path d="M90.65 24.398l4.652-6.67-4.215-6.017h3.948l2.29 3.347 2.29-3.347h3.947l-4.216 6.016L104 24.398h-3.922l-2.754-3.952-2.749 3.952H90.65z" fill="#648CFA"/></g><g filter="url(#filter0_dd)"><path d="M21.828 7.215c-.041.021-.07.108-.07.18.104.344.23.658.41.945.491-.452.914-.904 1.453-1.29.145-.092.215-.273.462-.291.704-.02.966.784.668 1.551-.397 1.071-.845 2.294-.766 3.517.012.138.1.183.223.156a4.4 4.4 0 001.14-.443c.662-.376 1.072-.857 1.376-1.573-.014-.03-.02-.117-.074-.125-.238-.04-.46.146-.672.202-.501.13-.751-.047-.82-.572-.117-.896.229-1.67.609-2.442.077-.166.278-.36.143-.507-.182-.177-.363.06-.474.19-.09.1-.141.361-.325.257-.169-.112-.206-.381-.238-.564-.031-.182.005-.327.014-.494-.005-.16.086-.297-.076-.394-.163-.097-.22.114-.263.207-.232.5-.64.762-1.126.887-.11.02-.178-.017-.273-.04a.391.391 0 00-.502.203c-.252.491-.261.622-.764.412l-.055.028z" fill="#DD2814"/><path d="M20.278 7.128c-.701.325-.947.83-1.088 1.606-.06.32-.029.575-.047.909-.016.189-.005.364.171.49.131-.086.072-.254.155-.37.366.77.81 1.19 1.63 1.31-.006-.16-.155-.19-.188-.336.827.026 1.283-.317 1.554-1.142-.104.07-.207.142-.31.213-.081-.102.01-.276-.01-.356-.097-.365-.242-.76-.617-.765-.376-.005-.416.394-.44.714-.002.073.098.292-.02.334-.13.05-.224-.083-.325-.193-.181-.214-.246-.47-.567-.43-.096.013-.114-.176-.113-.285-.02-.532.007-.997.368-1.399.07-.072.173-.143.086-.26-.067-.11-.156-.083-.239-.04z" fill="#fff"/><path d="M20.278 7.128c.15.067.233-.012.045.211-.487.612-.565 1.338-.186 2.063.16-.245.189-.259.376.005.107.162.234.367.438.48.203.111.347.091.255-.223-.013-.029-.026-.058-.026-.095-.03-.29-.106-.685.217-.797.322-.111.475.225.622.475.02.044.073.124.093.168.19-.332.105-.704.042-1.068-.063-.365-.189-.68-.41-.944-.477-.603-.942-.617-1.627-.481l.43.086a1.61 1.61 0 00-.269.12z" fill="#F7F0F0"/><path d="M21.85 7.186c-.013-.138.546-1.003.588-1.06-.16-.316.098-.683.245-.921.467-1.143.836-1.676 2.075-2.277.667-.325 2.273-.339 3.276-.187.15.031.934.151 1.107.423.034.037.142.126.162.17-.099.23-.318.235-.51.298-.79.28-1.477.597-2.047 1.251.69-.5 1.364-.737 2.208-.522.211.054.403-.009.616-.064.446-.14.87-.213 1.298.018.203.112.338.296.458.487.468.733.93 1.453 1.495 2.1-.077.094-.166.122-.27.157-.459.11-.905.285-1.325.483-.53.255-1.013.648-1.53.895-.322.148-.41-.006-.336-.332-.223.295-.331.694-.642.908-.565.363-1.029.8-1.453 1.325-.111.13-.223.295-.42.198-.182-.105-.016-.299-.061-.474-.026-.095-.59.087-.747.15-.344.14-.829.12-.904-.384-.087-.568-.122-1.056.077-1.591.207-.594.487-1.136.748-1.685-.295.098-.38.322-.588.538-.202.23-.297.17-.388-.108-.133-.329-.197-.62-.15-1.005.015-.117.052-.298-.022-.422-.09.136-.149.383-.232.498-.286.382-.81.796-1.24.71-.3-.062-.464-.086-.604.203-.288.563-.372.678-.885.22z" fill="#F03723"/><path d="M29.317 3.326c-.467.168-.927.315-1.38.512-.654.282-1.07.712-1.461 1.31.377-.103.64-.383.998-.53.358-.149.756-.281 1.144-.174.449.13.819.084 1.238-.077.35-.126.67-.02 1.018-.037-.465-.465-.959-.806-1.557-1.004z" fill="#DD2814"/><path d="M23.603 12.294c.125-.173.351-.235.53-.327.4-.205.845-.308 1.238-.528.613-.334.941-.882 1.339-1.465.084-.115.131-.122.205.003-.03.196-.128.318-.041.508.206-.07.317-.235.436-.386.313-.396.597-.705 1.01-.954.297-.17.504-.35.659-.681.134-.268.315-.505.59-.61-.052.26-.225.404-.188.673.372-.227.73-.448 1.103-.675.751-.477 1.467-.845 2.337-.95 1.044.546 1.435 1.41 1.398 2.638-.122-.118-.14-.307-.303-.368.093 1.216-.182 1.809-1.255 2.288a3.998 3.998 0 00-.557.269c-.737.47-1.369 1.137-1.999 1.732-.104.108-.27.302-.35.199-.203-.221-.355-.07-.493.037-.546.443-1.015.72-1.64.951-1.202.456-2.249.544-3.422-.062-.041-.015-.047-.066-.074-.088.137-.071.231.061.355-.039-.297-.244-.574-.48-.802-.796-.335-.478-.452-.887-.076-1.369z" fill="#FEFEFE"/></g><defs><linearGradient id="paint0_linear" x1="10.4" y1="22.4" x2="10.4" y2="12.8" gradientUnits="userSpaceOnUse"><stop stop-color="#F5B63F"/><stop offset="1" stop-color="#F0873E"/></linearGradient><linearGradient id="paint1_linear" x1="6.175" y1="6.267" x2="6.175" y2="18.8" gradientUnits="userSpaceOnUse"><stop stop-color="#FABE4C"/><stop offset="1" stop-color="#FA9751"/></linearGradient><linearGradient id="paint2_linear" x1="14.625" y1="1.067" x2="14.625" y2="18.8" gradientUnits="userSpaceOnUse"><stop stop-color="#FABE4C"/><stop offset="1" stop-color="#FA9751"/></linearGradient><clipPath id="clip0"><path fill="#fff" d="M0 0h104v31.2H0z"/></clipPath><filter id="filter0_dd" x="16" y="1" width="21" height="18" filterUnits="userSpaceOnUse" color-interpolation-filters="sRGB"><feFlood flood-opacity="0" result="BackgroundImageFix"/><feColorMatrix in="SourceAlpha" values="0 0 0 0 0 0 0 0 0 0 0 0 0 0 0 0 0 0 127 0"/><feOffset/><feGaussianBlur stdDeviation=".5"/><feColorMatrix values="0 0 0 0 0 0 0 0 0 0 0 0 0 0 0 0 0 0 0.2 0"/><feBlend in2="BackgroundImageFix" result="effect1_dropShadow"/><feColorMatrix in="SourceAlpha" values="0 0 0 0 0 0 0 0 0 0 0 0 0 0 0 0 0 0 127 0"/><feOffset dy="1"/><feGaussianBlur stdDeviation="1"/><feColorMatrix values="0 0 0 0 0 0 0 0 0 0 0 0 0 0 0 0 0 0 0.12 0"/><feBlend in2="effect1_dropShadow" result="effect2_dropShadow"/><feBlend in="SourceGraphic" in2="effect2_dropShadow" result="shape"/></filter></defs></svg>