<svg width="84" height="24" viewBox="0 0 84 24" fill="none" xmlns="http://www.w3.org/2000/svg">
    <path d="M18.396 8.30161H7.9956V7.32961C8.028 5.51521 8.8056 4.18681 11.2356 4.18681H11.8188V0.234009H10.3932C6.084 0.234009 3.7512 2.82601 3.7512 7.36201V8.30161H0.599998V11.574H3.7512V23.4H7.9956V11.574H14.1516V23.4H18.396V8.30161ZM16.2576 5.61241C17.7804 5.61241 18.9468 4.47841 18.9468 3.05281C18.9468 1.62721 17.7804 0.525609 16.2576 0.525609C14.7996 0.525609 13.5684 1.62721 13.5684 3.05281C13.5684 4.47841 14.7996 5.61241 16.2576 5.61241Z" fill="url(#paint0_linear)"/>
    <path d="M30.4774 7.91281C28.987 7.91281 26.5894 8.78761 25.9414 10.8288V8.30161H21.697V23.4H25.9414V15.6564C25.9414 12.9024 27.8206 12.0924 29.3434 12.0924C30.8014 12.0924 32.227 13.1616 32.227 15.5592V23.4H36.4714V15.1056C36.5038 10.5696 34.4302 7.91281 30.4774 7.91281Z" fill="url(#paint1_linear)"/>
    <path d="M50.9552 0.6V10.116C49.886 8.59321 47.8448 7.94521 46.0952 7.94521C42.2072 7.94521 38.6756 10.9584 38.6756 15.8184C38.6756 20.6784 42.2072 23.6916 46.0952 23.6916C47.78 23.6916 49.886 23.0112 50.9552 21.5208V23.4H55.1996V0.6H50.9552ZM46.9052 19.7388C44.7668 19.7388 42.9848 18.0216 42.9848 15.8184C42.9848 13.5828 44.7668 11.9304 46.9052 11.9304C48.8816 11.9304 50.8256 13.4856 50.8256 15.8184C50.8256 18.1188 48.9788 19.7388 46.9052 19.7388Z" fill="url(#paint2_linear)"/>
    <path d="M60.6188 5.61241C62.1092 5.61241 63.308 4.47841 63.308 3.05281C63.308 1.62721 62.1092 0.525609 60.6188 0.525609C59.1608 0.525609 57.9296 1.62721 57.9296 3.05281C57.9296 4.47841 59.1608 5.61241 60.6188 5.61241ZM58.5128 23.4H62.7572V8.30161H58.5128V23.4Z" fill="url(#paint3_linear)"/>
    <path d="M74.7029 7.91281C72.8237 7.91281 71.1065 8.98201 70.2641 11.5092V8.30161H66.0521V23.4H70.2965V18.216C70.2965 13.9068 71.7869 11.898 73.9577 11.898C74.4761 11.898 75.2213 11.9628 76.1285 12.4488L77.1005 8.39881C76.4201 8.04241 75.5129 7.91281 74.7029 7.91281Z" fill="url(#paint4_linear)"/>
    <path d="M80.5384 5.61241C82.0288 5.61241 83.2276 4.47841 83.2276 3.05281C83.2276 1.62721 82.0288 0.525609 80.5384 0.525609C79.0804 0.525609 77.8492 1.62721 77.8492 3.05281C77.8492 4.47841 79.0804 5.61241 80.5384 5.61241ZM78.4324 23.4H82.6768V8.30161H78.4324V23.4Z" fill="url(#paint5_linear)"/>
    <defs>
        <linearGradient id="paint0_linear" x1="83.2276" y1="0.234009" x2="83.2276" y2="23.6916" gradientUnits="userSpaceOnUse">
            <stop stop-color="#4070FF"/>
            <stop offset="1" stop-color="#365FD9"/>
        </linearGradient>
        <linearGradient id="paint1_linear" x1="83.2276" y1="0.234009" x2="83.2276" y2="23.6916" gradientUnits="userSpaceOnUse">
            <stop stop-color="#4070FF"/>
            <stop offset="1" stop-color="#365FD9"/>
        </linearGradient>
        <linearGradient id="paint2_linear" x1="83.2276" y1="0.234009" x2="83.2276" y2="23.6916" gradientUnits="userSpaceOnUse">
            <stop stop-color="#4070FF"/>
            <stop offset="1" stop-color="#365FD9"/>
        </linearGradient>
        <linearGradient id="paint3_linear" x1="83.2276" y1="0.234009" x2="83.2276" y2="23.6916" gradientUnits="userSpaceOnUse">
            <stop stop-color="#4070FF"/>
            <stop offset="1" stop-color="#365FD9"/>
        </linearGradient>
        <linearGradient id="paint4_linear" x1="83.2276" y1="0.234009" x2="83.2276" y2="23.6916" gradientUnits="userSpaceOnUse">
            <stop stop-color="#4070FF"/>
            <stop offset="1" stop-color="#365FD9"/>
        </linearGradient>
        <linearGradient id="paint5_linear" x1="83.2276" y1="0.234009" x2="83.2276" y2="23.6916" gradientUnits="userSpaceOnUse">
            <stop stop-color="#4070FF"/>
            <stop offset="1" stop-color="#365FD9"/>
        </linearGradient>
    </defs>
</svg>
