<svg viewBox="0 0 130 39" fill="none" xmlns="http://www.w3.org/2000/svg"><g clip-path="url(#clip0)"><path d="M17.875 32.5c0-4.875-13.813-13.813-13.813-19.5 0-4.063 4.063-6.5 4.063-6.5 0 8.125 13.813 13 13.813 19.5 0 4.875-4.063 6.5-4.063 6.5z" fill="url(#paint0_linear)"/><path d="M12.188 39C13.812 34.125 0 27.625 0 17.875S8.125 6.5 8.125 6.5s-1.986 1.615-1.986 8.125c0 8.125 9.298 14.625 9.298 21.125 0 1.625-.812 3.25-3.25 3.25z" fill="url(#paint1_linear)"/><path d="M13.813 0C12.187 4.875 26 11.375 26 21.125S17.875 32.5 17.875 32.5s1.986-1.625 1.986-6.5c0-9.75-9.299-16.25-9.299-22.75 0-1.625.813-3.25 3.25-3.25z" fill="url(#paint2_linear)"/><path d="M32.5 30.498V8.56h4.172l10.172 13.63V8.563h4.538V30.5h-3.839L37.037 16.494v14.004H32.5zM56.454 16.746c1.462-1.605 3.288-2.39 5.451-2.39 2.314 0 4.111.974 4.568 2.356v-2.073h4.538v10.288c0 1.26.304 1.762 1.127 1.762.212 0 .487-.03.76-.061v3.9c-.487.159-1.157.253-2.04.253-1.004 0-1.858-.189-2.497-.569-.7-.471-1.157-1.038-1.37-1.7-1.006 1.544-2.681 2.297-5.086 2.297-2.163 0-3.99-.786-5.451-2.356-1.432-1.606-2.163-3.556-2.163-5.886 0-2.297.731-4.248 2.163-5.82zM65.56 25.4a3.85 3.85 0 001.187-2.833c0-1.102-.396-2.045-1.187-2.8-.763-.787-1.706-1.16-2.836-1.16-1.096 0-2.01.376-2.771 1.163-.762.755-1.127 1.699-1.127 2.8 0 1.102.365 2.047 1.127 2.833.76.756 1.675 1.137 2.771 1.137 1.13-.004 2.075-.384 2.836-1.14zM74.898 30.498v-15.86h4.538v2.17c.701-1.604 2.346-2.519 4.446-2.519.398.007.795.039 1.188.095v4.405a7.577 7.577 0 00-1.522-.159c-2.59 0-4.112 1.513-4.112 4.123v7.742l-4.538.003zM89.083 30.498V18.886h-2.528v-4.247h2.528v-.441c0-2.297.609-3.934 1.797-4.91.883-.786 2.313-1.163 4.234-1.163.611.005 1.222.057 1.826.156v3.9c-.274-.094-.731-.158-1.37-.158-1.462 0-2.1.536-2.1 1.89v.723h3.074v4.247H93.47v11.615h-4.386zM97.514 22.536c0-2.485.791-4.5 2.345-6.012 1.553-1.544 3.564-2.297 5.969-2.297 2.345 0 4.234.787 5.694 2.33 1.461 1.541 2.194 3.428 2.194 5.725 0 .535-.031 1.04-.06 1.512H102.05c.091 1.887 1.675 3.115 4.082 3.115 1.43 0 2.681-.504 3.744-1.544l2.656 2.614c-1.8 1.92-4.025 2.896-6.613 2.896-2.527 0-4.537-.755-6.093-2.234-1.554-1.51-2.314-3.493-2.314-5.98l.002-.125zm11.634-1.795c0-1.478-1.493-2.641-3.32-2.641-1.98 0-3.593 1.163-3.715 2.641h7.035z" fill="#CCC"/><path d="M113.312 30.498l5.816-8.339-5.268-7.52h4.934l2.862 4.184 2.863-4.184h4.934l-5.269 7.52 5.817 8.34h-4.903l-3.442-4.942-3.436 4.941h-4.908z" fill="#CCC"/></g><defs><linearGradient id="paint0_linear" x1="13" y1="32" x2="13" y2="7.5" gradientUnits="userSpaceOnUse"><stop stop-color="#D6D6D6"/><stop offset="1" stop-color="#B3B3B3"/></linearGradient><linearGradient id="paint1_linear" x1="7.719" y1="37.5" x2="7.719" y2="12.5" gradientUnits="userSpaceOnUse"><stop stop-color="#B3B3B3"/><stop offset="1" stop-color="#D6D6D6"/></linearGradient><linearGradient id="paint2_linear" x1="18.281" y1="31.5" x2="18.281" y2="4.5" gradientUnits="userSpaceOnUse"><stop stop-color="#B3B3B3"/><stop offset="1" stop-color="#D6D6D6"/></linearGradient><clipPath id="clip0"><path fill="#fff" d="M0 0h130v39H0z"/></clipPath></defs></svg>