<svg width="120" height="120" viewBox="0 0 120 120" fill="none" xmlns="http://www.w3.org/2000/svg">
    <mask id="mask0" mask-type="alpha" maskUnits="userSpaceOnUse" x="35" y="34" width="50" height="51">
        <path fill-rule="evenodd" clip-rule="evenodd" d="M35 59.9976C35 73.8047 46.1931 84.9976 60 84.9976C73.8074 84.9976 85 73.8047 85 59.9976C85 46.1902 73.8074 34.9976 60 34.9976C46.1931 34.9976 35 46.1902 35 59.9976Z" fill="white"/>
    </mask>
    <g mask="url(#mask0)">
        <path fill-rule="evenodd" clip-rule="evenodd" d="M35 59.9976C35 73.8047 46.1931 84.9976 60 84.9976V84.9976C73.8074 84.9976 85 73.8047 85 59.9976V59.9976C85 46.1902 73.8074 34.9976 60 34.9976V34.9976C46.1931 34.9976 35 46.1902 35 59.9976" fill="url(#paint0_linear)"/>
    </g>
    <mask id="mask1" mask-type="alpha" maskUnits="userSpaceOnUse" x="27" y="27" width="66" height="66">
        <path fill-rule="evenodd" clip-rule="evenodd" d="M27 59.999C27 78.1544 41.7383 92.9328 59.8789 92.9975H60.1189C78.2598 92.9328 92.9978 78.1544 92.9978 59.999C92.9978 41.8033 78.1945 27 59.9988 27C41.8033 27 27 41.8033 27 59.999ZM30.9551 59.999C30.9551 43.984 43.9843 30.9553 59.9988 30.9553C76.0138 30.9553 89.0427 43.984 89.0427 59.999C89.0427 76.0135 76.0138 89.0427 59.9988 89.0427C43.9843 89.0427 30.9551 76.0135 30.9551 59.999Z" fill="white"/>
    </mask>
    <g mask="url(#mask1)">
        <path fill-rule="evenodd" clip-rule="evenodd" d="M27 59.999C27 78.1544 41.7383 92.9328 59.8789 92.9975V92.9975H60.1189C78.2598 92.9328 92.9978 78.1544 92.9978 59.999V59.999C92.9978 41.8033 78.1945 27 59.9988 27V27C41.8033 27 27 41.8033 27 59.999M30.9551 59.999C30.9551 43.984 43.9843 30.9553 59.9988 30.9553V30.9553C76.0138 30.9553 89.0427 43.984 89.0427 59.999V59.999C89.0427 76.0135 76.0138 89.0427 59.9988 89.0427V89.0427C43.9843 89.0427 30.9551 76.0135 30.9551 59.999" fill="url(#paint1_linear)"/>
    </g>
    <path fill-rule="evenodd" clip-rule="evenodd" d="M64.252 68.8877C64.2426 68.8909 63.3548 69.1778 62.5845 69.1778C62.1593 69.1778 61.9875 69.0919 61.9329 69.0545C61.6635 68.8723 61.1626 68.531 62.0196 66.8726L63.6245 63.7651C64.5763 61.9198 64.7175 60.1354 64.0178 58.7389C63.4465 57.5968 62.3502 56.8129 60.9363 56.5322C60.4275 56.431 59.9108 56.3812 59.399 56.3812C56.4311 56.3812 54.4332 58.0641 54.3496 58.1359C54.0623 58.3822 53.995 58.7904 54.1862 59.1114C54.3787 59.4325 54.775 59.5792 55.1411 59.4575C55.149 59.4545 56.0381 59.1661 56.8086 59.1661C57.2305 59.1661 57.4008 59.2518 57.4535 59.2877C57.725 59.4716 58.2272 59.8174 57.372 61.4726L55.7669 64.5817C54.8138 66.4285 54.6741 68.2129 55.3738 69.6077C55.945 70.75 57.0396 71.5339 58.4568 71.8144C58.9605 71.9129 59.4775 71.9659 59.9878 71.9659C62.9569 71.9659 64.9568 70.2827 65.0402 70.2109C65.3275 69.9661 65.3948 69.5562 65.2038 69.2352C65.0114 68.9156 64.6114 68.7723 64.252 68.8877Z" fill="white"/>
    <path fill-rule="evenodd" clip-rule="evenodd" d="M62.9047 47.0317C65.1206 47.0317 66.9169 48.7763 66.9169 50.9278C66.9169 53.0798 65.1206 54.8241 62.9047 54.8241C60.6889 54.8241 58.8926 53.0798 58.8926 50.9278C58.8926 48.7763 60.6889 47.0317 62.9047 47.0317Z" fill="white"/>
    <defs>
        <linearGradient id="paint0_linear" x1="85" y1="34.9976" x2="85" y2="84.9976" gradientUnits="userSpaceOnUse">
            <stop stop-color="#4070FF"/>
            <stop offset="1" stop-color="#365FD9"/>
        </linearGradient>
        <linearGradient id="paint1_linear" x1="92.9978" y1="27" x2="92.9978" y2="92.9975" gradientUnits="userSpaceOnUse">
            <stop stop-color="#FFBE41"/>
            <stop offset="1" stop-color="#FF9141"/>
        </linearGradient>
    </defs>
</svg>
