<svg width="24" height="24" fill="none" xmlns="http://www.w3.org/2000/svg"><path fill-rule="evenodd" clip-rule="evenodd" d="M12 4a8 8 0 100 16 8 8 0 000-16zM2 12C2 6.477 6.477 2 12 2s10 4.477 10 10-4.477 10-10 10S2 17.523 2 12z" fill="currentColor"/><path d="M10.583 7.534a.5.5 0 01.5-.534h1.835a.5.5 0 01.499.534l-.416 6.1a.5.5 0 01-.5.466h-1.003a.5.5 0 01-.498-.466l-.417-6.1zM12 18c-.427 0-.787-.135-1.078-.404a1.373 1.373 0 01-.422-1.01c0-.394.14-.72.422-.979.281-.27.64-.404 1.078-.404.438 0 .797.135 1.078.404.281.259.422.585.422.979s-.146.73-.438 1.01c-.28.27-.635.404-1.062.404z" fill="currentColor"/></svg>