<svg width="24" height="24" fill="none" xmlns="http://www.w3.org/2000/svg"><path fill-rule="evenodd" clip-rule="evenodd" d="M8 5c-.89 0-1.82.237-2.53.481-.254.087-.47.358-.47.755v12.293c.817-.267 1.898-.53 3-.53 1.12 0 2.205.27 3 .53V5.655a11.002 11.002 0 00-.566-.207C9.734 5.215 8.849 5 8 5zm5 .655v12.874c.795-.26 1.88-.53 3-.53 1.102 0 2.183.263 3 .53V6.236c0-.397-.216-.668-.47-.755C17.82 5.237 16.89 5 16 5c-.849 0-1.734.215-2.434.448-.213.072-.404.143-.566.207zM10.5 20.47a10.19 10.19 0 00-.066-.023C9.734 20.215 8.849 20 8 20c-1.453 0-2.968.626-3.439.84A1.103 1.103 0 013 19.839V6.236c0-1.119.64-2.24 1.82-2.646C5.627 3.312 6.794 3 8 3c1.151 0 2.266.284 3.066.551.379.126.698.252.934.352.236-.1.555-.226.934-.352C13.734 3.284 14.849 3 16 3c1.205 0 2.372.312 3.18.59C20.36 3.995 21 5.117 21 6.236v13.602c0 .813-.841 1.331-1.561 1.003C18.968 20.626 17.453 20 16 20c-.849 0-1.734.215-2.434.448a10.19 10.19 0 00-.066.023v.029c0 .552-.448.5-1 .5h-1c-.552 0-1 .052-1-.5v-.03z" fill="gray"/></svg>