<svg width="24" height="24" fill="none" xmlns="http://www.w3.org/2000/svg"><path fill-rule="evenodd" clip-rule="evenodd" d="M8 2a1 1 0 011 1v1h6V3a1 1 0 112 0v1h1a3 3 0 013 3v11a3 3 0 01-3 3H6a3 3 0 01-3-3V7a3 3 0 013-3h1V3a1 1 0 011-1zM6 6a1 1 0 00-1 1v1h14V7a1 1 0 00-1-1H6zm13 4H5v8a1 1 0 001 1h12a1 1 0 001-1v-8z" fill="gray"/><path fill-rule="evenodd" clip-rule="evenodd" d="M16 14a1 1 0 100-2 1 1 0 000 2zM13 14a1 1 0 100-2 1 1 0 000 2zM10 17a1 1 0 100-2 1 1 0 000 2zM13 17a1 1 0 100-2 1 1 0 000 2z" fill="gray"/></svg>