<svg width="24" height="24" viewBox="0 0 24 24" fill="none" xmlns="http://www.w3.org/2000/svg">
    <path fill-rule="evenodd" clip-rule="evenodd" d="M12 4C7.58172 4 4 7.58172 4 12C4 16.4183 7.58172 20 12 20C16.4183 20 20 16.4183 20 12C20 7.58172 16.4183 4 12 4ZM2 12C2 6.47715 6.47715 2 12 2C17.5228 2 22 6.47715 22 12C22 17.5228 17.5228 22 12 22C6.47715 22 2 17.5228 2 12Z" fill="currentColor"/>
    <path fill-rule="evenodd" clip-rule="evenodd" d="M12 7C12.5523 7 13 7.44772 13 8V12.382L15.4472 13.6056C15.9412 13.8526 16.1414 14.4532 15.8944 14.9472C15.6474 15.4412 15.0468 15.6414 14.5528 15.3944L11.5528 13.8944C11.214 13.725 11 13.3788 11 13V8C11 7.44772 11.4477 7 12 7Z" fill="currentColor"/>
</svg>
