<svg width="24" height="24" fill="none" xmlns="http://www.w3.org/2000/svg"><path fill-rule="evenodd" clip-rule="evenodd" d="M12 4a8 8 0 100 16 8 8 0 000-16zM2 12C2 6.477 6.477 2 12 2s10 4.477 10 10-4.477 10-10 10S2 17.523 2 12z" fill="currentColor"/><path fill-rule="evenodd" clip-rule="evenodd" d="M7.757 14.828a1 1 0 011.415 0 4 4 0 005.656 0 1 1 0 111.415 1.414 6 6 0 01-8.486 0 1 1 0 010-1.414zM8.5 12a1.5 1.5 0 100-3 1.5 1.5 0 000 3zM15.5 12a1.5 1.5 0 100-3 1.5 1.5 0 000 3z" fill="currentColor"/></svg>
