<svg width="24" height="24" fill="none" xmlns="http://www.w3.org/2000/svg"><path fill-rule="evenodd" clip-rule="evenodd" d="M2 6a1 1 0 011-1h18a1 1 0 011 1v8a1 1 0 11-2 0v-3.53A4.002 4.002 0 0116.53 7H7.47A4.002 4.002 0 014 10.47v3.06A4.002 4.002 0 017.469 17H10a1 1 0 110 2H3a1 1 0 01-1-1V6zm18 1v1.437A2.004 2.004 0 0118.563 7H20zM4 7h1.437A2.004 2.004 0 014 8.437V7zm0 10v-1.437c.703.18 1.256.734 1.437 1.437H4zm10 0a1 1 0 100 2h2v2a1 1 0 102 0v-2h2a1 1 0 100-2h-2v-2a1 1 0 10-2 0v2h-2zm-1.5-5a.5.5 0 11-1 0 .5.5 0 011 0zm2 0a2.5 2.5 0 11-5 0 2.5 2.5 0 015 0z" fill="currentColor"/></svg>