<svg width="24" height="24" fill="none" xmlns="http://www.w3.org/2000/svg"><path fill-rule="evenodd" clip-rule="evenodd" d="M2 6a1 1 0 011-1h18a1 1 0 011 1v12a1 1 0 01-1 1H3a1 1 0 01-1-1V6zm3.437 1H4v1.437A2.004 2.004 0 005.437 7zM4 10.47v3.06A4.002 4.002 0 017.469 17h9.062A4.002 4.002 0 0120 13.53v-3.06A4.002 4.002 0 0116.53 7H7.47A4.002 4.002 0 014 10.47zM18.563 7c.18.703.734 1.256 1.437 1.437V7h-1.437zM20 15.563A2.004 2.004 0 0018.563 17H20v-1.437zM5.437 17A2.004 2.004 0 004 15.563V17h1.437z" fill="currentColor"/><path fill-rule="evenodd" clip-rule="evenodd" d="M12 12.5a.5.5 0 100-1 .5.5 0 000 1zm0 2a2.5 2.5 0 100-5 2.5 2.5 0 000 5z" fill="currentColor"/></svg>