<svg width="24" height="24" viewBox="0 0 24 24" fill="none" xmlns="http://www.w3.org/2000/svg">
    <path fill-rule="evenodd" clip-rule="evenodd" d="M3 5.99951C3 5.44723 3.44772 4.99951 4 4.99951H20C20.5523 4.99951 21 5.44723 21 5.99951C21 6.5518 20.5523 6.99951 20 6.99951H4C3.44772 6.99951 3 6.5518 3 5.99951ZM3 11.9995C3 11.4472 3.44772 10.9995 4 10.9995H20C20.5523 10.9995 21 11.4472 21 11.9995C21 12.5518 20.5523 12.9995 20 12.9995H4C3.44772 12.9995 3 12.5518 3 11.9995ZM3 17.9995C3 17.4472 3.44772 16.9995 4 16.9995H20C20.5523 16.9995 21 17.4472 21 17.9995C21 18.5518 20.5523 18.9995 20 18.9995H4C3.44772 18.9995 3 18.5518 3 17.9995Z" fill="currentColor"/>
</svg>
