<svg width="24" height="24" fill="none" xmlns="http://www.w3.org/2000/svg"><path fill-rule="evenodd" clip-rule="evenodd" d="M12 4a8 8 0 100 16 8 8 0 000-16zM2 12C2 6.477 6.477 2 12 2s10 4.477 10 10-4.477 10-10 10S2 17.523 2 12z" fill="currentColor"/><path fill-rule="evenodd" clip-rule="evenodd" d="M9.402 9.89c.058.035.12.057.183.066a.563.563 0 00.287-.034.645.645 0 00.227-.151c.123-.127.256-.238.4-.335l.002-.002a2.595 2.595 0 01.467-.25 2.63 2.63 0 01.995-.183c.087 0 .172.004.253.011.37.033.673.142.909.325a1.04 1.04 0 01.414.597 1.179 1.179 0 01.033.27v.019a1.184 1.184 0 01-.239.718 2.724 2.724 0 01-.095.122 4.53 4.53 0 01-.24.27c-.11.115-.236.239-.38.372-.083.078-.162.154-.238.23l-.029.028a9.03 9.03 0 00-.107.109l-.023.024a4.985 4.985 0 00-.08.084 7.531 7.531 0 00-.393.457c-.057.073-.11.144-.158.214a1.801 1.801 0 00-.052.085l-.018.03c-.112.202-.19.432-.233.69l-.001.011c-.035.216.102.403.298.47a.499.499 0 00.164.028h1.25c.059 0 .115-.01.168-.03a.557.557 0 00.19-.119l.012-.011a.849.849 0 00.206-.332c.042-.121.1-.232.177-.333.05-.07.11-.146.18-.227l.001-.001c.16-.185.367-.394.623-.627.136-.126.26-.245.373-.357v-.001l.011-.01a10.322 10.322 0 00.36-.381c.2-.224.363-.494.492-.81.093-.211.155-.446.186-.703A3.34 3.34 0 0016 9.826c0-.886-.348-1.579-1.043-2.078a3.322 3.322 0 00-.482-.291C13.86 7.152 13.108 7 12.216 7a7.711 7.711 0 00-.57.021 6.33 6.33 0 00-.558.068 5.003 5.003 0 00-1.405.445 4.238 4.238 0 00-1.382 1.097c-.178.218-.102.536.14.681l.96.579zm4.006 5.757a1.939 1.939 0 00-.105-.094 1.314 1.314 0 00-.306-.185 1.543 1.543 0 00-.617-.118c-.234 0-.445.041-.632.125a1.32 1.32 0 00-.339.219h-.001a1.27 1.27 0 00-.458 1.015 1.371 1.371 0 00.468 1.053 1.41 1.41 0 00.33.21c.19.085.4.128.632.128.227 0 .433-.042.617-.124a1.32 1.32 0 00.396-.274c.278-.274.417-.605.417-.992a1.27 1.27 0 00-.402-.963z" fill="currentColor"/></svg>
