<svg width="24" height="24" fill="none" xmlns="http://www.w3.org/2000/svg"><path fill-rule="evenodd" clip-rule="evenodd" d="M12 4a8 8 0 100 16 8 8 0 000-16zM2 12C2 6.477 6.477 2 12 2s10 4.477 10 10-4.477 10-10 10S2 17.523 2 12z" fill="gray"/><path fill-rule="evenodd" clip-rule="evenodd" d="M9.402 9.89c.058.035.12.057.183.066a.563.563 0 00.287-.034.645.645 0 00.227-.151c.123-.127.256-.238.4-.335l.002-.002c.032-.022.065-.043.098-.063l.01-.006a2.475 2.475 0 01.36-.18A2.63 2.63 0 0111.962 9c.087 0 .172.004.253.011.37.033.673.141.909.325a1.04 1.04 0 01.414.597 1.186 1.186 0 01.033.27v.019a1.183 1.183 0 01-.239.718 2.658 2.658 0 01-.087.113l-.008.01a4.575 4.575 0 01-.24.27c-.11.114-.236.238-.38.371-.083.078-.162.154-.238.23l-.029.028a8.349 8.349 0 00-.107.109l-.023.024a6.145 6.145 0 00-.258.28 5.883 5.883 0 00-.373.475 1.752 1.752 0 00-.052.085l-.018.03c-.112.202-.19.432-.233.69l-.001.01c-.035.217.102.404.298.472a.502.502 0 00.164.027h1.25c.059 0 .115-.01.168-.03a.56.56 0 00.202-.13.848.848 0 00.206-.332c.042-.121.1-.232.177-.333.05-.07.11-.146.18-.227l.001-.001c.16-.185.367-.394.623-.628.136-.125.26-.244.373-.356v-.001l.011-.011a10.775 10.775 0 00.36-.38 2.81 2.81 0 00.492-.81c.093-.211.155-.446.186-.703.015-.127.023-.259.023-.397 0-.886-.348-1.579-1.043-2.078a3.322 3.322 0 00-.482-.291C13.86 7.152 13.108 7 12.216 7a7.711 7.711 0 00-.57.021 6.33 6.33 0 00-.558.068 5.003 5.003 0 00-1.405.445 4.238 4.238 0 00-1.382 1.097c-.178.218-.102.536.14.68l.96.58zm4.006 5.757l-.025-.024a1.314 1.314 0 00-.385-.254 1.545 1.545 0 00-.618-.12c-.234 0-.445.042-.632.126a1.32 1.32 0 00-.339.219h-.001a1.271 1.271 0 00-.458 1.014 1.371 1.371 0 00.468 1.054l.043.035c.09.07.185.128.287.174.19.086.4.129.632.129.227 0 .433-.042.617-.124a1.317 1.317 0 00.396-.274c.278-.274.417-.605.417-.993 0-.387-.134-.707-.402-.962z" fill="gray"/></svg>