<svg width="24" height="24" fill="none" xmlns="http://www.w3.org/2000/svg"><path fill-rule="evenodd" clip-rule="evenodd" d="M3 6a3 3 0 013-3h12a3 3 0 013 3v12a3 3 0 01-3 3H6a3 3 0 01-3-3V6zm3-1a1 1 0 00-1 1v9h14V6a1 1 0 00-1-1H6zm13 12H5v1a1 1 0 001 1h12a1 1 0 001-1v-1z" fill="gray"/><path fill-rule="evenodd" clip-rule="evenodd" d="M10.75 6a1 1 0 01.848.47l1.652 2.643.402-.643a1 1 0 011.696 0l2.5 4a1 1 0 01-1.696 1.06L14.5 10.887l-.402.643a1 1 0 01-1.696 0L10.75 8.887 7.848 13.53a1 1 0 11-1.696-1.06l3.75-6A1 1 0 0110.75 6z" fill="gray"/></svg>