<svg width="24" height="24" fill="none" xmlns="http://www.w3.org/2000/svg"><path fill-rule="evenodd" clip-rule="evenodd" d="M21 9a1 1 0 011 1v2a7 7 0 01-7 7h-4.586l1.293 1.293a1 1 0 01-1.414 1.414l-2.647-2.646a1.5 1.5 0 010-2.122l2.647-2.646a1 1 0 011.414 1.414L10.414 17H15a5 5 0 005-5v-2a1 1 0 011-1zM3 15a1 1 0 01-1-1v-2a7 7 0 017-7h4.586l-1.293-1.293a1 1 0 011.414-1.414l2.647 2.646a1.5 1.5 0 010 2.122l-2.647 2.646a1 1 0 01-1.414-1.414L13.586 7H9a5 5 0 00-5 5v2a1 1 0 01-1 1z" fill="currentColor"/></svg>