<svg width="24" height="24" fill="none" xmlns="http://www.w3.org/2000/svg"><path fill-rule="evenodd" clip-rule="evenodd" d="M17 12v1h-1a1 1 0 111-1zm2 1h-2v2h-1a1 1 0 00-1 1v1h-3a1 1 0 00-1 1v2a1 1 0 102 0v-1h4v1a1 1 0 102 0v-1h1a1 1 0 001-1v-2a1 1 0 00-1-1h-1v-2zm0-1v1h1a1 1 0 10-1-1zm0 3h-2v4h2v-4zM4 11a1 1 0 100 2 1 1 0 000-2zm8-6a1 1 0 00-1 1v2a1 1 0 102 0V6a1 1 0 00-1-1zm-2 6a1 1 0 100 2h1v1a1 1 0 102 0v-2a1 1 0 00-1-1h-2zm6-8a1 1 0 00-1 1v4a1 1 0 001 1h4a1 1 0 001-1V4a1 1 0 00-1-1h-4zm1 2h2v2h-2V5zM4 3a1 1 0 00-1 1v4a1 1 0 001 1h4a1 1 0 001-1V4a1 1 0 00-1-1H4zm1 2h2v2H5V5zM4 15a1 1 0 00-1 1v4a1 1 0 001 1h4a1 1 0 001-1v-4a1 1 0 00-1-1H4zm1 2h2v2H5v-2z" fill="gray"/></svg>