<svg width="24" height="24" viewBox="0 0 24 24" fill="none" xmlns="http://www.w3.org/2000/svg">
<path fill-rule="evenodd" clip-rule="evenodd" d="M21.9239 12.6173C22.0787 12.991 21.9931 13.4211 21.7071 13.7071L13.7071 21.7071C13.3166 22.0976 12.6834 22.0976 12.2929 21.7071L4.29289 13.7071C4.0069 13.4211 3.92134 12.991 4.07612 12.6173C4.2309 12.2436 4.59554 12 5 12L8.13363 12C8.14448 11.8348 8.14999 11.6681 8.14999 11.5C8.14999 8.55441 6.82654 6.10974 4.52874 4.88199C4.20325 4.70808 4 4.36904 4 4C4 3.63096 4.20325 3.29192 4.52874 3.11801C5.86152 2.40588 7.38462 2 9 2C14.3011 2 18.15 6.30928 18.15 11.5C18.15 11.6676 18.1456 11.8344 18.137 12H21C21.4045 12 21.7691 12.2436 21.9239 12.6173ZM18.5858 14H17.0181C16.7222 14 16.4415 13.869 16.2515 13.6421C16.0615 13.4153 15.9817 13.116 16.0335 12.8247C16.11 12.3954 16.15 11.9528 16.15 11.5C16.15 7.30188 13.0878 4 9 4C8.34182 4 7.70395 4.08507 7.09631 4.24447C9.1002 6.01349 10.15 8.64209 10.15 11.5C10.15 12.0709 10.0995 12.6308 10.0026 13.1753C9.91762 13.6525 9.50272 14 9.01806 14L7.41421 14L13 19.5858L18.5858 14Z" fill="currentColor"/>
</svg>
