<svg width="24" height="24" viewBox="0 0 24 24" fill="none" xmlns="http://www.w3.org/2000/svg">
<path fill-rule="evenodd" clip-rule="evenodd" d="M12.6173 2.07612C12.991 1.92134 13.4211 2.00689 13.7071 2.29289L21.7071 10.2929C22.0976 10.6834 22.0976 11.3166 21.7071 11.7071L13.7071 19.7071C13.4211 19.9931 12.991 20.0787 12.6173 19.9239C12.2436 19.7691 12 19.4045 12 19V15.8664C11.8348 15.8555 11.6681 15.85 11.5 15.85C8.55441 15.85 6.10974 17.1735 4.88199 19.4713C4.70808 19.7967 4.36904 20 4 20C3.63096 20 3.29192 19.7967 3.11801 19.4713C2.40588 18.1385 2 16.6154 2 15C2 9.69892 6.30928 5.85 11.5 5.85C11.6676 5.85 11.8344 5.85436 12 5.86296V3C12 2.59554 12.2436 2.2309 12.6173 2.07612ZM14 5.41421V6.98194C14 7.27782 13.869 7.55852 13.6421 7.74852C13.4153 7.93852 13.116 8.01832 12.8247 7.96645C12.3954 7.89001 11.9528 7.85 11.5 7.85C7.30188 7.85 4 10.9122 4 15C4 15.6582 4.08507 16.296 4.24447 16.9037C6.01349 14.8998 8.64209 13.85 11.5 13.85C12.0709 13.85 12.6308 13.9005 13.1753 13.9974C13.6525 14.0824 14 14.4973 14 14.9819V16.5858L19.5858 11L14 5.41421Z" fill="currentColor"/>
</svg>
