<svg width="24" height="24" fill="none" xmlns="http://www.w3.org/2000/svg"><path fill-rule="evenodd" clip-rule="evenodd" d="M12.949 2.684a1 1 0 00-1.898 0c-.035.105-.07.217-.107.334-.17.544-.375 1.201-.776 1.802C9.723 5.488 9.088 6 8 6c-1.297 0-1.99-.354-2.382-.661a2.725 2.725 0 01-.482-.496 6.932 6.932 0 01-.14-.19l-.041-.057-.004-.006a2.623 2.623 0 00-.218-.27A1 1 0 003 5v6c0 3.933 1.781 6.575 3.731 8.261 1.924 1.663 4.013 2.404 4.739 2.627a1.79 1.79 0 001.06 0c.726-.223 2.815-.964 4.739-2.627C19.219 17.575 21 14.933 21 11V4.998a1 1 0 00-1.733-.679c-.093.099-.173.21-.218.27l-.004.007-.041.057a6.677 6.677 0 01-.14.19 2.724 2.724 0 01-.482.496C17.991 5.646 17.297 6 16 6c-1.088 0-1.723-.512-2.168-1.18-.4-.6-.607-1.258-.777-1.802-.036-.117-.071-.23-.106-.334zM19 7.319c-.731.402-1.702.681-3 .681-1.309 0-2.284-.463-3-1.103v12.685c.82-.353 1.924-.937 2.96-1.834C17.562 16.364 19 14.243 19 11V7.32zm-8 12.263V6.897C10.284 7.537 9.309 8 8 8c-1.298 0-2.269-.279-3-.68V11c0 3.243 1.439 5.364 3.04 6.748A11.588 11.588 0 0011 19.582z" fill="currentColor"/></svg>