<svg width="24" height="24" fill="none" xmlns="http://www.w3.org/2000/svg"><path fill-rule="evenodd" clip-rule="evenodd" d="M12 2a1 1 0 011 1v2a1 1 0 11-2 0V3a1 1 0 011-1zm7.071 2.929a1 1 0 010 1.414l-1.414 1.414a1 1 0 01-1.414-1.414l1.414-1.414a1 1 0 011.414 0zm-14.142 0a1 1 0 011.414 0l1.414 1.414a1 1 0 11-1.414 1.414L4.93 6.343a1 1 0 010-1.414zM12 8.999a3 3 0 100 6 3 3 0 000-6zm-5 3a5 5 0 1110 0 5 5 0 01-10 0zm-5 0a1 1 0 011-1h2a1 1 0 110 2H3a1 1 0 01-1-1zm16 0a1 1 0 011-1h2a1 1 0 110 2h-2a1 1 0 01-1-1zM7.757 16.243a1 1 0 010 1.415L6.343 19.07a1 1 0 01-1.414-1.414l1.414-1.415a1 1 0 011.414 0zm8.486 0a1 1 0 011.414 0l1.414 1.415a1 1 0 11-1.414 1.414l-1.414-1.414a1 1 0 010-1.415zM12 18a1 1 0 011 1v2a1 1 0 11-2 0v-2a1 1 0 011-1z" fill="gray"/></svg>