<svg width="24" height="24" fill="none" xmlns="http://www.w3.org/2000/svg"><path fill-rule="evenodd" clip-rule="evenodd" d="M1 4a1 1 0 011-1h.33a3 3 0 012.83 2h12.4a3 3 0 012.942 3.588l-.224 1.122a3 3 0 01-2.712 2.403l-10.922.84.041.226A1 1 0 007.67 14H18a1 1 0 110 2H7.67a3 3 0 01-2.952-2.463L3.315 5.82A1 1 0 002.33 5H2a1 1 0 01-1-1zm5.285 6.975l11.128-.856a1 1 0 00.904-.8l.224-1.123A1 1 0 0017.561 7h-12l.724 3.975zM7 21a2 2 0 100-4 2 2 0 000 4zm10 0a2 2 0 100-4 2 2 0 000 4z" fill="currentColor"/></svg>