<svg width="24" height="24" fill="none" xmlns="http://www.w3.org/2000/svg"><path fill-rule="evenodd" clip-rule="evenodd" d="M12 3a1 1 0 01.897.557l2.412 4.888 5.394.784a1 1 0 01.555 1.706l-3.904 3.805.922 5.372a1 1 0 01-1.451 1.054L12 18.63l-4.825 2.536a1 1 0 01-1.45-1.054l.92-5.372-3.903-3.805a1 1 0 01.555-1.706l5.394-.784 2.412-4.888A1 1 0 0112 3zm0 3.26l-1.748 3.542a1 1 0 01-.753.547l-3.91.568 2.83 2.758a1 1 0 01.287.885l-.668 3.893 3.497-1.838a1 1 0 01.93 0l3.497 1.838-.668-3.893a1 1 0 01.288-.886l2.828-2.757-3.909-.568a1 1 0 01-.753-.547L12 6.26z" fill="currentColor"/></svg>