<svg width="24" height="24" viewBox="0 0 24 24" fill="none" xmlns="http://www.w3.org/2000/svg">
    <path fill-rule="evenodd" clip-rule="evenodd" d="M12 1.99951C12.5523 1.99951 13 2.44723 13 2.99951V4.99951C13 5.5518 12.5523 5.99951 12 5.99951C11.4477 5.99951 11 5.5518 11 4.99951V2.99951C11 2.44723 11.4477 1.99951 12 1.99951ZM19.0711 4.92844C19.4616 5.31897 19.4616 5.95213 19.0711 6.34266L17.6569 7.75687C17.2663 8.1474 16.6332 8.1474 16.2426 7.75687C15.8521 7.36635 15.8521 6.73318 16.2426 6.34266L17.6569 4.92844C18.0474 4.53792 18.6805 4.53792 19.0711 4.92844ZM4.92902 4.92847C5.31954 4.53794 5.95271 4.53794 6.34323 4.92847L7.75744 6.34268C8.14797 6.7332 8.14797 7.36637 7.75744 7.75689C7.36692 8.14742 6.73375 8.14742 6.34323 7.75689L4.92902 6.34268C4.53849 5.95216 4.53849 5.31899 4.92902 4.92847ZM12 8.99951C10.3431 8.99951 9 10.3427 9 11.9995C9 13.6564 10.3431 14.9995 12 14.9995C13.6569 14.9995 15 13.6564 15 11.9995C15 10.3427 13.6569 8.99951 12 8.99951ZM7 11.9995C7 9.23809 9.23858 6.99951 12 6.99951C14.7614 6.99951 17 9.23809 17 11.9995C17 14.7609 14.7614 16.9995 12 16.9995C9.23858 16.9995 7 14.7609 7 11.9995ZM2 11.9995C2 11.4472 2.44772 10.9995 3 10.9995H5C5.55228 10.9995 6 11.4472 6 11.9995C6 12.5518 5.55228 12.9995 5 12.9995H3C2.44772 12.9995 2 12.5518 2 11.9995ZM18 11.9995C18 11.4472 18.4477 10.9995 19 10.9995H21C21.5523 10.9995 22 11.4472 22 11.9995C22 12.5518 21.5523 12.9995 21 12.9995H19C18.4477 12.9995 18 12.5518 18 11.9995ZM7.75736 16.2422C8.14788 16.6327 8.14788 17.2658 7.75736 17.6564L6.34315 19.0706C5.95262 19.4611 5.31946 19.4611 4.92893 19.0706C4.53841 18.6801 4.53841 18.0469 4.92893 17.6564L6.34315 16.2422C6.73367 15.8516 7.36684 15.8516 7.75736 16.2422ZM16.2427 16.2422C16.6332 15.8517 17.2664 15.8517 17.6569 16.2422L19.0711 17.6564C19.4617 18.0469 19.4617 18.6801 19.0711 19.0706C18.6806 19.4611 18.0474 19.4611 17.6569 19.0706L16.2427 17.6564C15.8522 17.2659 15.8522 16.6327 16.2427 16.2422ZM12 17.9995C12.5523 17.9995 13 18.4472 13 18.9995V20.9995C13 21.5518 12.5523 21.9995 12 21.9995C11.4477 21.9995 11 21.5518 11 20.9995V18.9995C11 18.4472 11.4477 17.9995 12 17.9995Z" fill="currentColor"/>
</svg>
