<svg width="24" height="24" fill="none" xmlns="http://www.w3.org/2000/svg"><path fill-rule="evenodd" clip-rule="evenodd" d="M6.523 4.637C7.603 3.015 9.365 2 12 2c2.635 0 4.397 1.015 5.477 2.637 1.026 1.541 1.356 3.512 1.468 5.302C19.053 11.664 17.633 13 16 13h-.631a5.536 5.536 0 01-.248.343c2.834.644 5.227 2.17 6.298 4.28.452.892.246 1.804-.294 2.434-.51.597-1.303.943-2.125.943H5c-.822 0-1.615-.346-2.125-.943-.54-.63-.746-1.542-.294-2.434 1.071-2.11 3.464-3.636 6.298-4.28A5.557 5.557 0 018.631 13H8c-1.633 0-3.053-1.336-2.945-3.061.112-1.79.442-3.761 1.468-5.302zm9.733 6.331c.435-.111.718-.5.693-.905-.107-1.701-.413-3.23-1.136-4.317-.551-.828-1.395-1.475-2.812-1.679.025 1.037.63 1.505 1.587 2.175l.04.029c.36.25.812.567 1.164.957.398.442.708 1.019.708 1.772 0 .681-.084 1.345-.244 1.968zM8.187 5.746C8.738 4.918 9.582 4.27 11 4.067c-.03 1.193-.867 3.203-2.87 4.005A1 1 0 007.5 9c0 .681.084 1.345.244 1.968-.435-.111-.718-.5-.693-.905.107-1.701.413-3.23 1.136-4.317zm4.026 1.16A6.555 6.555 0 019.53 9.62c.122 1.206.59 2.191 1.175 2.774a1 1 0 01.294.709v1.045a1 1 0 01-.85.988c-2.876.435-4.989 1.822-5.785 3.391-.036.071-.032.106-.03.118a.232.232 0 00.06.111c.101.12.322.243.605.243h14c.283 0 .504-.124.605-.243a.232.232 0 00.06-.111c.002-.012.007-.047-.03-.118-.796-1.569-2.909-2.955-5.785-3.39a1 1 0 01-.85-.99v-1.044a1 1 0 01.294-.709c.683-.68 1.206-1.907 1.206-3.395 0-.146-.043-.266-.194-.433-.183-.203-.452-.397-.865-.686l-.056-.04c-.352-.246-.778-.543-1.172-.936z" fill="gray"/></svg>