<svg width="24" height="24" fill="none" xmlns="http://www.w3.org/2000/svg"><path fill-rule="evenodd" clip-rule="evenodd" d="M7.984 11.31a3.068 3.068 0 01-.901-1.133 3.424 3.424 0 01-.144-.35 2.14 2.14 0 01.227-1.88 8.408 8.408 0 01-.022-.592l-.003-.369c-.004-.335-.004-.681.02-.994.022-.295.075-.735.276-1.179.238-.526.639-.96 1.183-1.232a2.9 2.9 0 01.699-.239c.158-.241.433-.584.87-.853.603-.37 1.274-.464 1.858-.484h.036L12.327 2h.032c.514 0 1.304.043 2.097.28.768.23 1.857.741 2.468 1.908a2.4 2.4 0 01.105 2.009l-.051.125-.002.004a1.963 1.963 0 00-.128.366 1.34 1.34 0 00-.008.458c.032.244.03.492.015.703.264.394.4.902.302 1.518a3.465 3.465 0 01-.43 1.192 2.35 2.35 0 01-.7.745c-.25.585-.585 1.192-1.027 1.681v.217c1.084.218 2.146.597 3.094 1.084 1.145.59 2.252 1.405 3.003 2.428.713.97.665 2.175.06 3.056C20.612 20.57 19.7 21 18.778 21H5.222c-.921-.001-1.831-.43-2.379-1.224a2.615 2.615 0 01.05-3.052c.753-1.034 1.864-1.853 3.012-2.441.95-.487 2.013-.863 3.096-1.078v-.235c-.436-.489-.767-1.084-1.016-1.66zm6.364-1.2l.079-.22a.185.185 0 01.174-.122c.126 0 .335-.104.398-.213a1.478 1.478 0 00.183-.5c.018-.116-.086-.204-.203-.192a.21.21 0 01-.23-.234l.065-.544c.02-.137.038-.269.047-.39a1.383 1.383 0 00-.004-.285 3.702 3.702 0 01-.031-.54c.01-.607.182-1.02.304-1.313l.042-.102a.401.401 0 00-.02-.34C14.647 4.153 13.204 4 12.36 4l-.243.004c-.903.031-1.043.282-1.204.574-.133.24-.356.64-.94.689-.776.065-.847.358-.831 1.699l.003.38a7.064 7.064 0 00.069.95l.063.46a.195.195 0 01-.242.215c-.13-.034-.25.072-.207.198a1.42 1.42 0 00.098.22.95.95 0 00.285.339.185.185 0 00.07.023.46.46 0 01.364.314l.004.012a6.883 6.883 0 00.303.723c.26.526.554.916.848 1.114a.23.23 0 00.042.023.252.252 0 01.159.234V14c0 .552-.45.995-.997 1.066-1.7.217-3.452.958-4.629 1.933l-.012.01c-.048.04-.095.08-.14.121a4.85 4.85 0 00-.712.77c-.371.51.08 1.099.711 1.1h13.557c.632 0 1.081-.588.707-1.098a4.901 4.901 0 00-.857-.89L18.614 17c-1.177-.97-2.923-1.714-4.617-1.934-.548-.07-.997-.514-.997-1.066v-1.745a.4.4 0 01.232-.363.34.34 0 00.06-.035c.283-.212.568-.62.818-1.16a7.106 7.106 0 00.238-.587z" fill="currentColor"/></svg>