<svg width="24" height="24" fill="none" xmlns="http://www.w3.org/2000/svg"><path fill-rule="evenodd" clip-rule="evenodd" d="M7.5 3a3 3 0 100 6 3 3 0 000-6zm-1 3a1 1 0 112 0 1 1 0 01-2 0zM16.5 3a3 3 0 100 6 3 3 0 000-6zm-1 3a1 1 0 112 0 1 1 0 01-2 0zM9 11a3 3 0 116 0 3 3 0 01-6 0zm3-1a1 1 0 100 2 1 1 0 000-2z" fill="currentColor"/><path d="M8 19c0-.349.104-.788.542-1.161C9.005 17.444 9.982 17 12 17c2.017 0 2.995.444 3.458.839.438.373.542.812.542 1.161a1 1 0 102 0c0-.776-.253-1.837-1.244-2.683C15.791 15.494 14.268 15 12 15c-2.268 0-3.79.494-4.756 1.317A3.469 3.469 0 006 19a1 1 0 102 0zM16 11a1 1 0 011-1c1.894 0 3.197.522 4.015 1.394.805.858.985 1.892.985 2.606a1 1 0 11-2 0c0-.411-.106-.877-.444-1.238C19.231 12.416 18.535 12 17 12a1 1 0 01-1-1zM7 10a1 1 0 110 2c-1.535 0-2.231.416-2.556.762C4.106 13.122 4 13.59 4 14a1 1 0 11-2 0c0-.714.18-1.748.985-2.606C3.803 10.522 5.106 10 7 10z" fill="currentColor"/></svg>