<svg width="2874" height="620" fill="none" xmlns="http://www.w3.org/2000/svg"><g clip-path="url(#clip0)"><mask id="a" maskUnits="userSpaceOnUse" x="0" y="0" width="2874" height="616"><path fill-rule="evenodd" clip-rule="evenodd" d="M0 500s383.5 192 1418 80 1456 0 1456 0V0H0v500z" fill="#fff"/></mask><g mask="url(#a)"><path fill="url(#paint0_linear)" d="M0 0h2874v620H0z"/><path fill-rule="evenodd" clip-rule="evenodd" d="M1848 870c281.11 0 509-227.887 509-509s-227.89-509-509-509-509 227.887-509 509 227.89 509 509 509z" fill="url(#paint1_linear)"/><path fill-rule="evenodd" clip-rule="evenodd" d="M1115 530c204.35 0 370-165.655 370-370s-165.65-370-370-370c-204.345 0-370 165.655-370 370s165.655 370 370 370z" fill="url(#paint2_linear)"/><path fill-rule="evenodd" clip-rule="evenodd" d="M2175.5 720c104.66 0 189.5-84.842 189.5-189.5S2280.16 341 2175.5 341 1986 425.842 1986 530.5 2070.84 720 2175.5 720z" fill="url(#paint3_linear)"/><path opacity=".684" fill-rule="evenodd" clip-rule="evenodd" d="M689 308c146.355 0 265-118.645 265-265 0-146.355-118.645-265-265-265-146.355 0-265 118.645-265 265 0 146.355 118.645 265 265 265z" fill="url(#paint4_linear)"/></g></g><defs><linearGradient id="paint0_linear" x1="-1140.23" y1="288.934" x2="-936.731" y2="1290.84" gradientUnits="userSpaceOnUse"><stop stop-color="#FFC85D"/><stop offset="1" stop-color="#FF9E64"/></linearGradient><linearGradient id="paint1_linear" x1="1339" y1="-148" x2="1339" y2="870" gradientUnits="userSpaceOnUse"><stop stop-color="#FFA561"/><stop offset="1" stop-color="#FFC75D" stop-opacity=".01"/></linearGradient><linearGradient id="paint2_linear" x1="1485" y1="530" x2="1485" y2="-210" gradientUnits="userSpaceOnUse"><stop stop-color="#FFCC6E" stop-opacity=".395"/><stop offset="1" stop-color="#FFAE61" stop-opacity=".01"/></linearGradient><linearGradient id="paint3_linear" x1="2004.33" y1="368.134" x2="1778.9" y2="738.417" gradientUnits="userSpaceOnUse"><stop stop-color="#FFAE56" stop-opacity=".395"/><stop offset="1" stop-color="#FF8613" stop-opacity=".01"/></linearGradient><linearGradient id="paint4_linear" x1="1127.19" y1="-18.943" x2="613.481" y2="-517.237" gradientUnits="userSpaceOnUse"><stop stop-color="#FFC160"/><stop offset="1" stop-color="#FF8613" stop-opacity=".01"/></linearGradient><clipPath id="clip0"><path fill="#fff" d="M0 0h2874v620H0z"/></clipPath></defs></svg>