<svg width="183" height="53" fill="none" xmlns="http://www.w3.org/2000/svg"><path d="M183 46.825c0 1.383-.555 2.71-1.544 3.687a5.29 5.29 0 01-3.726 1.525H5.277C2.366 52.04.004 49.707 0 46.825V5.256C.004 2.373 2.365.038 5.277.037h172.452c1.398 0 2.738.55 3.727 1.529a5.195 5.195 0 011.543 3.69L183 46.825z" fill="#fff"/><path d="M183 46.825c0 1.383-.555 2.71-1.544 3.687a5.29 5.29 0 01-3.726 1.525H5.277C2.366 52.04.004 49.707 0 46.825V5.256C.004 2.373 2.365.038 5.277.037h172.452c1.398 0 2.738.55 3.727 1.529a5.195 5.195 0 011.543 3.69L183 46.825z" fill="#000"/><path fill-rule="evenodd" clip-rule="evenodd" d="M37.831 7.037c.224 2.13-.582 4.228-1.761 5.77-1.23 1.519-3.199 2.68-5.116 2.53-.25-2.049.72-4.227 1.808-5.557 1.229-1.508 3.363-2.664 5.07-2.743zm6.276 12.284c-.214.133-3.76 2.347-3.72 6.86.045 5.45 4.559 7.254 4.613 7.274-.027.127-.707 2.602-2.4 5.112-1.414 2.212-2.895 4.375-5.248 4.413-1.118.027-1.873-.31-2.66-.66-.821-.365-1.676-.746-3.015-.746-1.418 0-2.311.393-3.173.772-.745.328-1.466.646-2.483.689-2.24.086-3.953-2.36-5.418-4.552-2.928-4.475-5.208-12.61-2.151-18.146 1.48-2.715 4.182-4.463 7.068-4.51 1.272-.027 2.49.485 3.56.935.817.343 1.547.65 2.144.65.525 0 1.234-.295 2.06-.638 1.302-.54 2.896-1.202 4.52-1.023 1.11.034 4.269.458 6.307 3.567l-.004.003zM119.052 40.848c1.088-.936 1.636-2.148 1.636-3.639 0-1.209-.374-2.223-1.125-3.036-.745-.814-1.91-1.521-3.495-2.13-1.292-.483-2.186-.935-2.676-1.35-.564-.45-.848-1.023-.848-1.714 0-.626.249-1.154.741-1.587.583-.484 1.399-.727 2.44-.727 1.317 0 2.494.268 3.537.805l.74-2.287c-1.108-.554-2.504-.831-4.179-.831-1.876 0-3.384.459-4.521 1.377-1.137.92-1.707 2.096-1.707 3.533 0 2.2 1.613 3.873 4.836 5.016 1.186.414 2.03.866 2.54 1.35.508.485.766 1.081.766 1.793 0 .795-.312 1.432-.931 1.908-.617.475-1.481.715-2.593.715-1.547 0-2.967-.363-4.261-1.092l-.682 2.338c1.198.727 2.786 1.09 4.767 1.09 2.144 0 3.817-.511 5.015-1.532zM73.137 42.12h-3.141l-1.721-5.143h-5.982l-1.639 5.143h-3.058l5.927-17.51h3.66l5.954 17.51zm-5.381-7.301L66.2 30.248c-.165-.468-.475-1.568-.928-3.3h-.056c-.182.746-.474 1.846-.874 3.3l-1.53 4.572h4.944zm18.755 5.924c1.227-1.246 1.84-2.944 1.84-5.091 0-1.922-.525-3.472-1.57-4.653-1.045-1.177-2.352-1.765-3.918-1.765-2.003 0-3.496.753-4.48 2.261h-.054l-.165-2.001H75.57c.072 1.418.11 2.801.11 4.15v13.596h2.949v-6.625c.767 1.195 2.032 1.79 3.79 1.79 1.628 0 2.993-.553 4.092-1.662zm-1.165-4.989c0-1.228-.29-2.242-.874-3.04-.638-.83-1.494-1.246-2.568-1.246-.727 0-1.388.231-1.98.688a3.172 3.172 0 00-1.16 1.806c-.08.279-.126.566-.137.854v2.107c0 .917.296 1.692.888 2.326.593.632 1.362.949 2.308.949 1.11 0 1.975-.41 2.594-1.221.62-.815.93-1.888.93-3.223zm16.432 4.989c1.227-1.246 1.84-2.944 1.84-5.091 0-1.922-.526-3.472-1.569-4.653-1.048-1.177-2.355-1.765-3.92-1.765-2.004 0-3.497.753-4.479 2.261h-.055l-.165-2.001h-2.594a82.02 82.02 0 01.11 4.15v13.596h2.949v-6.625c.768 1.195 2.032 1.79 3.79 1.79 1.63 0 2.994-.553 4.093-1.662zm-1.166-4.989c0-1.228-.292-2.242-.875-3.04-.638-.83-1.492-1.246-2.565-1.246-.728 0-1.389.231-1.982.688a3.17 3.17 0 00-1.16 1.806c-.09.348-.138.63-.138.854v2.107c0 .917.297 1.692.887 2.326.592.63 1.36.949 2.31.949 1.112 0 1.977-.41 2.594-1.221.619-.815.929-1.888.929-3.223zm29.852-4.155h-3.251v6.13c0 1.56.573 2.337 1.721 2.337.527 0 .964-.042 1.31-.13l.081 2.13c-.581.207-1.346.31-2.293.31-1.165 0-2.075-.337-2.732-1.014-.654-.676-.984-1.809-.984-3.404v-6.364h-1.936V29.49h1.936v-2.312l2.897-.832v3.144h3.251v2.11zm12.889 8.884c1.165-1.246 1.749-2.839 1.749-4.78 0-1.89-.563-3.429-1.695-4.62-1.184-1.23-2.748-1.846-4.696-1.846-2.021 0-3.628.624-4.822 1.872-1.191 1.245-1.789 2.848-1.789 4.805 0 1.87.578 3.42 1.735 4.65 1.156 1.227 2.707 1.842 4.657 1.842 2.021 0 3.643-.64 4.861-1.922zm-1.308-4.715c0-1.157-.263-2.149-.79-2.98-.619-1.002-1.504-1.503-2.651-1.503-1.181 0-2.087.501-2.704 1.504-.528.83-.791 1.84-.791 3.031 0 1.158.263 2.153.791 2.98.638 1.003 1.527 1.505 2.68 1.505 1.127 0 2.011-.512 2.65-1.53.542-.85.815-1.848.815-3.007zm11.718-3.884a5.38 5.38 0 01.929.077l-.003-2.676a4.958 4.958 0 00-.737-.052 3.692 3.692 0 00-2.132.677c-.672.501-1.162 1.17-1.474 2.001h-.082l-.108-2.416h-2.568c.059 1.325.088 2.65.085 3.975v8.65h2.95v-6.625c0-1.004.246-1.835.735-2.493.565-.748 1.367-1.119 2.405-1.119zm14.119 3.326c.007.426-.029.852-.108 1.272h-8.848c.034 1.248.462 2.203 1.284 2.86.746.587 1.71.882 2.894.882 1.31 0 2.505-.197 3.58-.596l.462 1.946c-1.256.521-2.739.78-4.45.78-2.058 0-3.674-.576-4.85-1.726-1.173-1.151-1.761-2.698-1.761-4.637 0-1.902.547-3.488 1.641-4.752 1.145-1.35 2.693-2.025 4.641-2.025 1.913 0 3.361.675 4.345 2.025.778 1.07 1.17 2.396 1.17 3.97zm-3.385-2.884c.4.606.593 1.323.573 2.156l-6.142-.002c.09-.846.382-1.575.873-2.182.597-.763 1.383-1.143 2.347-1.143 1.053 0 1.839.389 2.349 1.17zM97.774 17.257h-1.448v-9.46h1.448v9.46zm-37.839-.027c.59.067 1.298.107 2.117.107 3.468 0 5.304-1.68 5.304-4.79 0-2.697-1.554-4.35-4.929-4.35-.834-.003-1.667.06-2.492.186v8.847zm1.446-7.806c.321-.066.71-.094 1.165-.094 2.143 0 3.282 1.162 3.282 3.256 0 2.349-1.259 3.603-3.47 3.603-.47 0-.803-.012-.977-.04V9.424zm10.82 7.98c-1.903 0-3.136-1.414-3.136-3.335 0-2.002 1.26-3.43 3.243-3.43 1.874 0 3.134 1.348 3.134 3.324 0 2.027-1.298 3.441-3.242 3.441zm-1.66-3.377c0-1.36.67-2.334 1.714-2.334 1.018 0 1.687.987 1.687 2.307 0 1.295-.683 2.336-1.7 2.336-1.018 0-1.701-.973-1.701-2.308zm15.748-3.254l-2.036 6.484h-1.326l-.844-2.816a21.274 21.274 0 01-.523-2.094h-.027c-.107.707-.308 1.415-.522 2.094l-.897 2.816h-1.34l-1.917-6.484h1.487l.737 3.083c.174.734.32 1.427.442 2.081h.028c.106-.545.28-1.227.535-2.068l.925-3.095h1.179l.885 3.03c.213.734.387 1.454.523 2.135h.038c.094-.667.242-1.375.442-2.136l.791-3.029 1.42-.001zm6.05 6.484h1.446l.001-3.883c0-1.694-.897-2.735-2.264-2.735-.885 0-1.674.44-2.063 1.134h-.04l-.068-1.002h-1.273c.04.667.054 1.282.054 1.855v4.631h1.447V13.4c0-.853.59-1.588 1.446-1.588.871 0 1.313.575 1.313 1.722v3.723zm7.575-3.188c0 1.92 1.234 3.335 3.134 3.335 1.943 0 3.243-1.414 3.241-3.441 0-1.976-1.258-3.323-3.134-3.323-1.983 0-3.241 1.427-3.241 3.429zm3.188-2.376c-1.045 0-1.714.973-1.714 2.335 0 1.335.684 2.308 1.699 2.308 1.019 0 1.701-1.04 1.701-2.336.001-1.32-.667-2.307-1.686-2.307zm8.786 4.818l.105.746 1.305.002c-.065-.387-.094-.894-.094-1.549v-2.388c0-1.789-.859-2.682-2.559-2.682-.883 0-1.633.186-2.235.56l.294.948c.495-.32 1.058-.481 1.7-.481.898 0 1.352.427 1.352 1.281v.12c-2.412 0-3.805.828-3.805 2.428 0 1.094.829 1.908 1.995 1.908.817 0 1.462-.292 1.904-.893h.038zm-.094-2.483c-1.606 0-2.413.387-2.413 1.307 0 .68.416 1.014.993 1.014.736 0 1.42-.56 1.42-1.32v-1.002zm8.367 2.188l.067 1.041h1.288a24.905 24.905 0 01-.054-1.747V7.797h-1.448v3.723h-.029c-.347-.589-.964-.882-1.835-.882-1.646 0-2.851 1.429-2.851 3.457 0 1.934 1.162 3.31 2.732 3.31.976 0 1.674-.402 2.09-1.189h.04zm-.147-2.774c0-.908-.603-1.682-1.524-1.682-1.072 0-1.728.947-1.728 2.281 0 1.308.681 2.203 1.699 2.203.91 0 1.553-.788 1.553-1.721v-1.081zm7.496.627c0 1.92 1.232 3.335 3.133 3.335 1.945 0 3.244-1.414 3.243-3.441 0-1.976-1.259-3.323-3.135-3.323-1.982 0-3.241 1.427-3.241 3.429zm3.187-2.376c-1.044 0-1.713.973-1.713 2.335 0 1.335.683 2.308 1.699 2.308 1.019 0 1.701-1.04 1.701-2.336.003-1.32-.667-2.307-1.687-2.307zm9.52 5.564h1.448v-3.884c0-1.694-.898-2.735-2.265-2.735-.883 0-1.674.441-2.062 1.135h-.04l-.068-1.002h-1.272c.04.667.053 1.282.053 1.855v4.631h1.448V13.4c0-.853.588-1.588 1.446-1.588.871 0 1.312.575 1.312 1.722v3.723zm11.181-5.403h-1.591v3.148c0 .802.279 1.202.842 1.202.255 0 .469-.027.642-.067l.04 1.094c-.281.107-.656.161-1.123.161-1.14 0-1.822-.627-1.822-2.269v-3.27h-.949v-1.08h.949V9.585l1.421-.428v1.614h1.591v1.083zm6.213 5.403h1.446V13.4c0-1.695-.842-2.762-2.22-2.762-.842 0-1.502.348-1.957 1.055h-.029V7.797h-1.446v9.46h1.446v-3.909c0-1.027.698-1.534 1.448-1.534.872 0 1.312.587 1.312 1.747v3.696zm9.292-2.895h-4.342c.028 1.227.844 1.92 2.051 1.92a4.91 4.91 0 001.755-.306l.225 1c-.616.268-1.34.401-2.184.401-2.036 0-3.241-1.281-3.241-3.268 0-1.989 1.234-3.483 3.078-3.483 1.664 0 2.707 1.228 2.707 3.083.01.218-.007.438-.049.653zm-2.758-2.735c.924 0 1.431.707 1.431 1.707h-3.013c.094-.987.751-1.707 1.582-1.707z" fill="#fff"/></svg>