<svg width="178" height="52" fill="none" xmlns="http://www.w3.org/2000/svg"><path d="M171.407 52H6.593C2.9 52 0 49.14 0 45.5v-39C0 2.86 2.9 0 6.593 0h164.814C175.099 0 178 2.86 178 6.5v39c0 3.64-2.901 6.5-6.593 6.5z" fill="#000"/><path fill-rule="evenodd" clip-rule="evenodd" d="M61.967 15.839c.657-.646.92-1.549.92-2.58v-.517h-3.812v1.032h2.892c0 .645-.263 1.162-.658 1.549-.657.645-1.314.903-2.234.903-.789 0-1.446-.387-2.103-.903-.658-.517-.92-1.29-.92-2.194 0-.903.262-1.677.92-2.194.525-.645 1.314-.903 2.103-.903.92 0 1.577.258 2.103.903l.657-.645c-.263-.387-.657-.645-1.183-.903A3.553 3.553 0 0059.075 9c-1.183 0-2.103.387-2.892 1.161C55.394 10.935 55 11.84 55 13s.394 2.065 1.183 2.839S57.892 17 59.075 17c1.183 0 2.103-.387 2.892-1.161zm3.417-5.807h3.549V9.13h-4.6v7.742h4.6v-1.032h-3.549v-2.452h3.286v-.903h-3.286v-2.452zm7.887 6.839h-1.052v-6.839h-2.234V9.13h5.52v.903h-2.234v6.839zm7.098-7.742h-1.052v7.742h1.052V9.129zm4.337 7.742h-.92v-6.839h-2.234V9.13h5.389v.903h-2.235v6.839zm9.727.129c1.183 0 2.103-.387 2.892-1.161.788-.774 1.183-1.678 1.183-2.839s-.395-2.065-1.183-2.839C96.536 9.387 95.616 9 94.433 9c-1.183 0-2.103.387-2.892 1.161-.788.774-1.183 1.678-1.183 2.839s.395 2.065 1.183 2.839C92.33 16.613 93.25 17 94.433 17zm-2.103-1.806c.526.516 1.314.903 2.103.903.789 0 1.577-.258 2.103-.904.526-.516.92-1.29.92-2.193s-.263-1.677-.92-2.194c-.526-.516-1.314-.903-2.103-.903-.789 0-1.577.258-2.103.903A3.084 3.084 0 0091.41 13c0 .903.263 1.677.92 2.194zm8.807-6.065h-1.183v7.742h.92v-6.323l4.074 6.323H106V9.129h-1.052v6.065l-3.811-6.065zM62.738 29.81v2.344h5.692c-.132 1.302-.662 2.343-1.324 2.994-.794.781-2.118 1.692-4.368 1.692-3.575 0-6.223-2.734-6.223-6.248 0-3.515 2.78-6.249 6.223-6.249 1.853 0 3.31.781 4.368 1.692l1.721-1.692C67.371 23.041 65.517 22 62.87 22 58.104 22 54 25.905 54 30.592c0 4.686 4.104 8.591 8.87 8.591 2.648 0 4.501-.78 6.09-2.473 1.589-1.562 2.118-3.775 2.118-5.467 0-.521 0-1.042-.132-1.432h-8.208zm14.695-1.692c-3.178 0-5.693 2.344-5.693 5.598 0 3.124 2.515 5.598 5.693 5.598 3.177 0 5.692-2.344 5.692-5.598 0-3.385-2.515-5.598-5.692-5.598zm6.619 5.598c0-3.255 2.515-5.598 5.693-5.598 3.177 0 5.692 2.213 5.692 5.598 0 3.254-2.515 5.598-5.692 5.598-3.178 0-5.693-2.474-5.693-5.598zm2.515-.13c0 1.953 1.457 3.384 3.178 3.384 1.72 0 3.177-1.431 3.177-3.384 0-2.083-1.456-3.385-3.177-3.385s-3.178 1.432-3.178 3.385zm-12.312 0c0 1.953 1.457 3.384 3.178 3.384 1.72 0 3.177-1.431 3.177-3.384 0-2.083-1.456-3.385-3.177-3.385s-3.178 1.432-3.178 3.385zm43.821-5.468c2.912 0 4.236 2.213 4.766 3.515l.264.651-7.546 3.124c.662 1.172 1.457 1.693 2.78 1.693 1.324 0 2.119-.651 2.781-1.563l1.853 1.302c-.53.911-2.118 2.474-4.634 2.474-3.177 0-5.56-2.474-5.56-5.598 0-3.385 2.383-5.598 5.296-5.598zm-2.913 5.338c0-2.083 1.721-3.255 2.913-3.255.926 0 1.853.52 2.118 1.172l-5.031 2.083zm-3.707 5.337h-2.515V22.52h2.515v16.272zm-6.487-9.503c-.662-.65-1.721-1.302-3.045-1.302-2.78 0-5.428 2.474-5.428 5.598a5.435 5.435 0 005.428 5.467c1.324 0 2.383-.65 2.913-1.301h.132v.78c0 2.083-1.191 3.255-3.045 3.255-1.456 0-2.515-1.041-2.78-1.953l-2.118.912c.662 1.431 2.25 3.254 5.031 3.254 2.912 0 5.295-1.692 5.295-5.728V28.38h-2.383v.91zm-6.09 4.296c0 1.953 1.457 3.384 3.178 3.384 1.721 0 3.045-1.431 3.045-3.384 0-1.953-1.324-3.385-3.045-3.385-1.721 0-3.178 1.432-3.178 3.385zm35.48-11.065h-5.957v16.272h2.515v-6.118h3.442c2.78 0 5.428-1.953 5.428-5.077 0-3.125-2.648-5.077-5.428-5.077zm-3.442 7.81h3.575c1.721 0 2.78-1.432 2.912-2.863 0-1.172-1.059-2.734-2.912-2.734h-3.575v5.597zm18.799-2.343c-1.853 0-3.707.781-4.368 2.474l2.25.91c.53-.91 1.324-1.17 2.251-1.17 1.324 0 2.515.78 2.647 2.082v.13c-.397-.26-1.456-.65-2.515-.65-2.383 0-4.766 1.301-4.766 3.644 0 2.213 1.986 3.645 4.104 3.645 1.721 0 2.516-.78 3.177-1.562h.133v1.302h2.383v-6.249c-.265-2.863-2.516-4.556-5.296-4.556zm-2.25 7.55c0 1.042 1.191 1.432 1.986 1.432 1.323 0 2.647-1.041 2.912-2.603l-.106-.042-.091-.037c-.577-.231-1.101-.442-2.054-.442-1.191 0-2.647.39-2.647 1.693zm15.886-7.16l-2.78 7.03h-.132l-2.913-7.03h-2.648l4.369 9.894-2.515 5.468h2.515L166 28.379h-2.648zm-19.726 10.415h-2.515V22.52h2.515v16.272z" fill="#fff"/><path d="M13.535 9.654c-.401.392-.535 1.046-.535 1.83v28.9c0 .785.267 1.439.668 1.831l.134.131 16.579-16.215v-.262L13.535 9.654z" fill="url(#paint0_linear)"/><path d="M35.73 31.623l-5.482-5.362v-.392l5.482-5.361.133.13 6.552 3.662c1.871 1.046 1.871 2.746 0 3.792l-6.685 3.531z" fill="url(#paint1_linear)"/><path d="M35.863 31.492L30.247 26 13.535 42.346c.669.654 1.604.654 2.808.13l19.52-10.984z" fill="url(#paint2_linear)"/><path d="M35.863 20.508L16.343 9.654c-1.204-.654-2.14-.523-2.808.13L30.247 26l5.616-5.492z" fill="url(#paint3_linear)"/><path opacity=".2" d="M35.73 31.361L16.342 42.084c-1.07.654-2.006.523-2.674 0l-.134.131.134.13c.668.524 1.604.655 2.674 0l19.386-10.984z" fill="#000"/><path opacity=".12" fill-rule="evenodd" clip-rule="evenodd" d="M35.729 31.361l6.685-3.661c.802-.523 1.337-1.046 1.337-1.7 0 .654-.401 1.308-1.337 1.83l-6.552 3.662-.133-.13zm-22.705 9.425c.054.547.204.999.51 1.299h.014c.038.046.079.09.12.13v-.13h-.12c-.268-.321-.46-.77-.524-1.299zm0 0a5.465 5.465 0 01-.024-.532v.13c0 .139.008.273.024.402z" fill="#000"/><path opacity=".25" d="M16.343 9.785L42.413 24.3c.803.523 1.338 1.046 1.338 1.7 0-.654-.401-1.308-1.337-1.83L16.342 9.653C14.472 8.608 13 9.392 13 11.484v.131c0-1.961 1.47-2.877 3.343-1.83z" fill="#fff"/><defs><linearGradient id="paint0_linear" x1="22.943" y1="-9.867" x2="-3.539" y2="-2.546" gradientUnits="userSpaceOnUse"><stop stop-color="#00A0FF"/><stop offset=".007" stop-color="#00A1FF"/><stop offset=".26" stop-color="#00BEFF"/><stop offset=".512" stop-color="#00D2FF"/><stop offset=".76" stop-color="#00DFFF"/><stop offset="1" stop-color="#00E3FF"/></linearGradient><linearGradient id="paint1_linear" x1="44.867" y1="12.752" x2="12.516" y2="12.752" gradientUnits="userSpaceOnUse"><stop stop-color="#FFE000"/><stop offset=".409" stop-color="#FFBD00"/><stop offset=".775" stop-color="orange"/><stop offset="1" stop-color="#FF9C00"/></linearGradient><linearGradient id="paint2_linear" x1="13.111" y1="17.518" x2="-7.543" y2="52.972" gradientUnits="userSpaceOnUse"><stop stop-color="#FF3A44"/><stop offset="1" stop-color="#C31162"/></linearGradient><linearGradient id="paint3_linear" x1=".542" y1="5.181" x2="9.692" y2="21.033" gradientUnits="userSpaceOnUse"><stop stop-color="#32A071"/><stop offset=".069" stop-color="#2DA771"/><stop offset=".476" stop-color="#15CF74"/><stop offset=".801" stop-color="#06E775"/><stop offset="1" stop-color="#00F076"/></linearGradient></defs></svg>