<svg width="31" height="31" fill="none" xmlns="http://www.w3.org/2000/svg"><path d="M30 15.5C30 23.508 23.508 30 15.5 30S1 23.508 1 15.5 7.492 1 15.5 1 30 7.492 30 15.5z" stroke="currentColor" stroke-width="2"/><path fill-rule="evenodd" clip-rule="evenodd" d="M21.942 11.055a3.267 3.267 0 001.397-1.815 6.244 6.244 0 01-2.02.796A3.125 3.125 0 0019 9c-1.756 0-3.18 1.47-3.18 3.281 0 .258.027.508.082.748-2.642-.137-4.985-1.442-6.554-3.429a3.354 3.354 0 00-.43 1.65c0 1.139.56 2.143 1.414 2.733a3.115 3.115 0 01-1.441-.41v.04c0 1.59 1.095 2.917 2.552 3.217a3.02 3.02 0 01-.839.116c-.205 0-.405-.02-.598-.058.404 1.303 1.579 2.253 2.97 2.278a6.255 6.255 0 01-4.707 1.36A8.804 8.804 0 0013.142 22c5.85 0 9.047-5 9.047-9.337 0-.143-.002-.285-.008-.425a6.56 6.56 0 001.587-1.7 6.199 6.199 0 01-1.826.517z" fill="currentColor"/></svg>