<svg width="32" height="32" fill="none" xmlns="http://www.w3.org/2000/svg"><path d="M16 5.334c-2.897 0-3.26.012-4.398.064-1.135.052-1.91.232-2.589.496a5.228 5.228 0 00-1.89 1.23 5.228 5.228 0 00-1.23 1.89c-.263.678-.444 1.454-.495 2.589-.052 1.138-.064 1.5-.064 4.398 0 2.896.012 3.26.064 4.397.051 1.136.232 1.911.496 2.59a5.228 5.228 0 001.23 1.889 5.23 5.23 0 001.89 1.23c.678.264 1.453.444 2.588.496 1.138.052 1.501.064 4.398.064s3.26-.012 4.398-.064c1.135-.052 1.91-.232 2.59-.496a5.23 5.23 0 001.889-1.23 5.23 5.23 0 001.23-1.89c.264-.678.444-1.453.496-2.588.051-1.138.064-1.502.064-4.398 0-2.897-.013-3.26-.064-4.398-.052-1.136-.233-1.91-.496-2.59a5.23 5.23 0 00-1.23-1.889 5.229 5.229 0 00-1.89-1.23c-.678-.264-1.454-.444-2.589-.496-1.138-.052-1.5-.064-4.398-.064zm0 1.922c2.848 0 3.186.01 4.31.062 1.04.048 1.605.221 1.981.367.498.194.853.425 1.226.798.374.374.605.729.798 1.227.146.376.32.94.368 1.98.051 1.125.062 1.463.062 4.31 0 2.849-.011 3.186-.062 4.31-.048 1.04-.221 1.606-.368 1.982a3.304 3.304 0 01-.798 1.226 3.304 3.304 0 01-1.226.798c-.376.146-.94.32-1.98.367-1.125.052-1.462.062-4.31.062-2.85 0-3.187-.01-4.311-.062-1.04-.047-1.605-.221-1.98-.367a3.304 3.304 0 01-1.227-.798 3.305 3.305 0 01-.798-1.227c-.146-.375-.32-.94-.367-1.98-.052-1.125-.063-1.462-.063-4.31 0-2.849.011-3.186.063-4.31.047-1.04.22-1.605.367-1.981.193-.498.425-.853.798-1.227a3.304 3.304 0 011.226-.798c.376-.146.94-.32 1.98-.367 1.126-.051 1.463-.062 4.311-.062zm0 3.267a5.477 5.477 0 100 10.955 5.477 5.477 0 000-10.955zm0 9.033a3.556 3.556 0 110-7.111 3.556 3.556 0 010 7.111zm6.974-9.25a1.28 1.28 0 11-2.56 0 1.28 1.28 0 012.56 0z" fill="#C9CCD4"/></svg>