<svg width="32" height="32" fill="none" xmlns="http://www.w3.org/2000/svg"><path d="M26.667 24.728h-4.715V17.91c0-1.784-.738-3.003-2.36-3.003-1.24 0-1.93.822-2.251 1.615-.12.284-.102.68-.102 1.077v7.129h-4.67s.06-12.077 0-13.175h4.67v2.068c.276-.904 1.769-2.194 4.15-2.194 2.956 0 5.278 1.895 5.278 5.975v7.326zM7.845 9.905h-.03c-1.506 0-2.482-1.007-2.482-2.284 0-1.301 1.005-2.287 2.54-2.287 1.535 0 2.478.984 2.508 2.284 0 1.276-.973 2.287-2.536 2.287zm-1.973 1.648h4.158v13.175H5.872V11.553z" fill="#C9CCD4"/></svg>