<svg width="32" height="32" fill="none" xmlns="http://www.w3.org/2000/svg"><path d="M26.433 9.929c.03.024.04.066.02.1l-6.386 10.298-4.59-7.403 3.658-5.9a.729.729 0 01.925-.262l6.354 3.153.007.004c.005.002.008.007.012.01zm-12.97 1.65l6.014 9.701-6.015-2.984V11.58zm6.917 10.15l6.117-9.866v11.823c0 .595-.522.82-1.166.5l-4.95-2.457zm-7.962-11.79a.068.068 0 01.038.06v13.687c0 .438-.238.698-.578.698a.894.894 0 01-.394-.102L6.018 21.57c-.32-.16-.583-.58-.583-.937V7.336c0-.35.19-.56.462-.56.097 0 .204.027.316.083l6.205 3.08z" fill="#C9CCD4"/></svg>