<svg width="32" height="32" fill="none" xmlns="http://www.w3.org/2000/svg"><path d="M26.667 10.037a8.803 8.803 0 01-2.515.685 4.37 4.37 0 001.925-2.403 8.862 8.862 0 01-2.78 1.054A4.385 4.385 0 0020.104 8c-2.417 0-4.377 1.945-4.377 4.345 0 .337.039.671.113.99a12.47 12.47 0 01-9.02-4.539 4.3 4.3 0 00-.593 2.182c0 1.509.773 2.837 1.947 3.616a4.378 4.378 0 01-1.982-.544v.055c0 2.105 1.508 3.86 3.51 4.26a4.411 4.411 0 01-1.976.073 4.374 4.374 0 004.088 3.016 8.827 8.827 0 01-6.48 1.798 12.452 12.452 0 006.71 1.952c8.05 0 12.452-6.618 12.452-12.357 0-.188-.004-.376-.012-.562a8.863 8.863 0 002.184-2.248z" fill="#C9CCD4"/></svg>