<svg width="32" height="32" xmlns="http://www.w3.org/2000/svg"><path fill="#C9CCD4" d="M24.838 22.292l-2.71.037s-.58.114-1.35-.416c-1.008-.693-1.966-2.509-2.71-2.27-.757.24-.732 1.867-.732 1.867s0 .353-.163.53c-.19.201-.555.239-.555.239h-1.21s-2.674.164-5.031-2.295c-2.573-2.673-4.842-7.98-4.842-7.98s-.126-.354.013-.518c.164-.189.592-.202.592-.202l2.9-.012s.277.05.467.189c.164.113.252.34.252.34s.466 1.186 1.084 2.257c1.21 2.093 1.778 2.547 2.181 2.333.606-.328.417-2.963.417-2.963s.012-.958-.303-1.374c-.24-.328-.694-.43-.895-.454-.164-.026.1-.404.454-.568.517-.252 1.437-.264 2.534-.264.845.012 1.097.063 1.425.138.996.24.655 1.173.655 3.404 0 .72-.126 1.728.391 2.056.227.138.77.025 2.118-2.282.643-1.097 1.122-2.383 1.122-2.383s.101-.227.265-.328.391-.076.391-.076l3.051-.025s.92-.114 1.06.302c.15.43-.341 1.45-1.59 3.115-2.042 2.723-2.269 2.471-.58 4.047 1.627 1.5 1.955 2.244 2.018 2.333.693 1.134-.719 1.223-.719 1.223z"/></svg>