<svg width="448" height="472" viewBox="0 0 448 472" fill="none" xmlns="http://www.w3.org/2000/svg">
    <path opacity="0.1" d="M148.432 292.147C251.904 292.455 356.861 380.198 380.672 235.473C392.772 161.834 447.162 133.087 414.295 85.6571C391.713 53.1399 314.389 27.7774 277.285 28.3288C221.386 29.1494 197.344 69.578 167.252 112.199C133.167 160.424 89.2215 164.63 49.9385 201.352C21.2828 228.151 9.38962 296.866 46.8952 324.536C92.8612 358.438 104.304 292.019 148.432 292.147Z" fill="#648CF5"/>
    <path opacity="0.1" d="M224 403.617C319.946 403.617 397.725 398.832 397.725 392.931C397.725 387.029 319.946 382.245 224 382.245C128.054 382.245 50.2744 387.029 50.2744 392.931C50.2744 398.832 128.054 403.617 224 403.617Z" fill="#648CF5"/>
    <path d="M338.285 103.038H235.164C231.627 103.099 228.239 104.547 225.661 107.099C223.083 109.651 221.501 113.124 221.222 116.839L205.184 376.968C205.053 378.739 205.274 380.519 205.832 382.196C206.39 383.872 207.273 385.408 208.425 386.705C209.577 388.003 210.973 389.033 212.524 389.731C214.075 390.429 215.746 390.779 217.432 390.759H320.589C324.125 390.701 327.513 389.255 330.091 386.704C332.669 384.154 334.252 380.682 334.531 376.968L346.035 189.999C346.524 189.819 346.953 189.495 347.271 189.064C347.589 188.634 347.782 188.116 347.827 187.573L349.888 154.117C349.924 153.598 349.798 153.08 349.53 152.642C349.262 152.204 348.865 151.871 348.401 151.691L350.542 116.839C350.673 115.066 350.452 113.285 349.893 111.607C349.335 109.929 348.451 108.393 347.298 107.095C346.145 105.796 344.748 104.765 343.197 104.067C341.645 103.368 339.972 103.018 338.285 103.038Z" fill="#648CF5"/>
    <path d="M212.872 170.392H214.897C215.523 170.38 216.123 170.123 216.58 169.672C217.037 169.22 217.319 168.605 217.37 167.947L218.266 153.976C218.288 153.662 218.248 153.346 218.148 153.048C218.049 152.751 217.892 152.479 217.687 152.249C217.482 152.019 217.234 151.837 216.959 151.713C216.684 151.589 216.387 151.527 216.088 151.531H214.072C213.445 151.541 212.844 151.797 212.386 152.249C211.929 152.701 211.648 153.317 211.599 153.976L210.703 167.947C210.681 168.261 210.721 168.576 210.82 168.872C210.919 169.169 211.075 169.441 211.279 169.67C211.483 169.9 211.729 170.083 212.003 170.207C212.278 170.331 212.573 170.394 212.872 170.392Z" fill="#648CF5"/>
    <path d="M211.34 195.333H213.356C213.985 195.321 214.587 195.063 215.046 194.609C215.504 194.156 215.786 193.539 215.837 192.878L216.733 178.916C216.756 178.602 216.716 178.286 216.616 177.989C216.517 177.692 216.36 177.42 216.155 177.19C215.95 176.96 215.702 176.777 215.427 176.654C215.152 176.53 214.855 176.468 214.556 176.471H212.54C211.912 176.481 211.31 176.737 210.851 177.189C210.392 177.641 210.109 178.257 210.058 178.916L209.162 192.878C209.137 193.194 209.175 193.511 209.274 193.81C209.372 194.109 209.529 194.383 209.734 194.614C209.939 194.845 210.188 195.029 210.465 195.153C210.741 195.276 211.039 195.338 211.34 195.333Z" fill="#648CF5"/>
    <path d="M315.105 390.759H211.985C210.298 390.779 208.627 390.429 207.076 389.731C205.526 389.033 204.13 388.003 202.978 386.705C201.826 385.408 200.942 383.872 200.384 382.196C199.826 380.519 199.606 378.739 199.736 376.968L215.739 116.839C216.019 113.123 217.604 109.65 220.183 107.098C222.762 104.546 226.152 103.099 229.69 103.038H332.801C334.488 103.019 336.16 103.371 337.71 104.07C339.261 104.769 340.657 105.8 341.809 107.098C342.96 108.396 343.844 109.932 344.401 111.609C344.959 113.286 345.18 115.067 345.05 116.839L329.047 376.968C328.769 380.682 327.186 384.154 324.608 386.704C322.029 389.255 318.641 390.701 315.105 390.759Z" fill="#263238"/>
    <path opacity="0.2" d="M270.554 379.698C274.167 376.014 274.439 370.136 271.162 366.57C267.886 363.004 262.301 363.1 258.689 366.784C255.076 370.469 254.804 376.346 258.081 379.912C261.357 383.478 266.942 383.383 270.554 379.698Z" fill="white"/>
    <path d="M324.423 356.993H207.2C206.801 356.992 206.406 356.906 206.04 356.738C205.673 356.571 205.344 356.326 205.071 356.019C204.798 355.712 204.588 355.349 204.453 354.953C204.318 354.557 204.262 354.137 204.288 353.717L218.006 130.631C218.066 129.86 218.399 129.142 218.938 128.617C219.477 128.093 220.184 127.801 220.918 127.799H338.15C338.549 127.799 338.944 127.886 339.31 128.053C339.677 128.221 340.006 128.466 340.279 128.773C340.552 129.08 340.762 129.442 340.897 129.838C341.032 130.234 341.088 130.655 341.062 131.075L327.335 354.113C327.288 354.893 326.96 355.624 326.419 356.159C325.879 356.694 325.165 356.992 324.423 356.993Z" fill="white"/>
    <path opacity="0.2" d="M291.716 269.064C304.829 255.691 305.816 234.355 293.921 221.409C282.026 208.463 261.753 208.81 248.641 222.183C235.528 235.557 234.541 256.893 246.436 269.839C258.331 282.785 278.604 282.438 291.716 269.064Z" fill="#648CF5"/>
    <path opacity="0.2" d="M267.008 297.606C239.796 297.606 219.09 274.279 220.855 245.61C222.62 216.941 246.185 193.615 273.405 193.615C300.626 193.615 321.323 216.941 319.558 245.61C317.793 274.279 294.193 297.606 267.008 297.606ZM273.28 194.559C246.561 194.559 223.418 217.46 221.688 245.61C219.959 273.76 240.28 296.662 266.999 296.662C293.718 296.662 316.861 273.76 318.6 245.61C320.338 217.46 300.034 194.559 273.28 194.559Z" fill="#648CF5"/>
    <path d="M262.528 261.951L259.84 256.485C254.016 244.581 240.603 233.942 235.917 230.846L240.343 223.87C245.889 227.532 256.973 236.604 263.925 247.385C276.783 231.337 294.954 214.807 319.28 196.975L323.429 203.583C297.445 222.633 278.745 240.05 266.309 256.834L262.528 261.951Z" fill="#648CF5"/>
    <path opacity="0.2" d="M261.257 117.887C262.719 116.397 262.826 114.017 261.498 112.571C260.169 111.125 257.907 111.161 256.446 112.651C254.985 114.142 254.877 116.522 256.206 117.968C257.534 119.414 259.796 119.378 261.257 117.887Z" fill="white"/>
    <path opacity="0.2" d="M271.407 111.505H301.056C301.517 111.5 301.974 111.596 302.397 111.787C302.821 111.978 303.202 112.261 303.516 112.616C303.829 112.972 304.069 113.393 304.22 113.852C304.37 114.311 304.428 114.798 304.389 115.281C304.316 116.296 303.886 117.245 303.183 117.944C302.48 118.642 301.556 119.039 300.59 119.057H270.95C270.49 119.061 270.033 118.965 269.61 118.773C269.186 118.581 268.805 118.299 268.491 117.944C268.177 117.589 267.936 117.169 267.784 116.71C267.632 116.252 267.572 115.765 267.608 115.281C267.682 114.267 268.112 113.317 268.814 112.619C269.517 111.921 270.442 111.524 271.407 111.505Z" fill="white"/>
    <path d="M161.047 181.248C159.533 182.881 157.911 184.684 156.415 186.478C154.918 188.271 153.422 190.112 152.015 192C150.609 193.888 149.327 195.776 148.001 197.768L147.105 199.25L146.209 200.751C145.914 201.251 145.645 201.761 145.385 202.28L144.668 203.668C144.376 204.462 144.209 205.3 144.175 206.151C144.104 207.244 144.104 208.342 144.175 209.436C144.351 211.796 144.65 214.144 145.071 216.469C145.466 218.848 145.967 221.236 146.496 223.615C147.025 225.994 147.607 228.401 148.198 230.742L144.883 232.054C142.846 227.437 141.139 222.666 139.776 217.781C139.084 215.263 138.554 212.699 138.19 210.106C138.009 208.723 137.916 207.329 137.912 205.934C137.891 204.289 138.155 202.654 138.692 201.11C138.898 200.581 139.005 200.373 139.149 200.053L139.561 199.156C139.83 198.561 140.107 197.966 140.457 197.39L141.353 195.653L142.303 193.964C143.568 191.738 144.947 189.585 146.433 187.516C147.903 185.449 149.426 183.438 151.03 181.493C152.634 179.549 154.255 177.717 156.119 175.829L161.047 181.248Z" fill="#B55B52"/>
    <path d="M161.432 169.92C156.576 170.147 151.961 178.643 151.961 178.643L158.377 192.434C158.377 192.434 167.068 184.807 167.176 177.33C167.247 172.431 166.208 169.684 161.432 169.92Z" fill="#648CF5"/>
    <path opacity="0.7" d="M161.432 169.92C156.576 170.147 151.961 178.643 151.961 178.643L158.377 192.434C158.377 192.434 167.068 184.807 167.176 177.33C167.247 172.431 166.208 169.684 161.432 169.92Z" fill="white"/>
    <path opacity="0.2" d="M162.588 179.832C161.172 182.088 160.491 187.941 160.276 190.546C162.414 188.356 164.227 185.839 165.652 183.079C164.694 180.559 163.52 178.35 162.588 179.832Z" fill="black"/>
    <path d="M147.239 229.307L153.144 231.195L149.211 235.386C149.211 235.386 144.955 233.999 144.363 230.95L147.239 229.307Z" fill="#B55B52"/>
    <path d="M156.719 235.943L155.725 239.955L149.211 235.349L153.144 231.157L156.719 235.943Z" fill="#B55B52"/>
    <path d="M195.57 153.542C195.382 154.099 195.516 154.665 195.866 154.797C196.215 154.929 196.645 154.599 196.824 154.042C197.004 153.485 196.878 152.909 196.529 152.777C196.179 152.645 195.758 152.975 195.57 153.542Z" fill="#263238"/>
    <path d="M196.367 152.749L197.774 152.871C197.774 152.871 196.77 153.655 196.367 152.749Z" fill="#263238"/>
    <path d="M195.839 154.259C195.892 155.728 196.133 157.182 196.556 158.583C196.214 158.677 195.856 158.692 195.508 158.627C195.16 158.561 194.83 158.418 194.54 158.205L195.839 154.259Z" fill="#A02724"/>
    <path d="M197.308 151.361C197.244 151.352 197.184 151.322 197.137 151.277C197.089 151.232 197.055 151.172 197.039 151.106C196.941 150.679 196.752 150.282 196.487 149.943C196.221 149.605 195.886 149.334 195.507 149.152C195.426 149.12 195.359 149.056 195.322 148.973C195.285 148.89 195.281 148.795 195.31 148.708C195.324 148.665 195.346 148.625 195.375 148.591C195.404 148.557 195.439 148.529 195.479 148.51C195.518 148.491 195.56 148.48 195.604 148.478C195.647 148.477 195.691 148.484 195.731 148.501C196.219 148.724 196.65 149.065 196.989 149.496C197.328 149.928 197.567 150.437 197.684 150.983C197.695 151.028 197.697 151.074 197.691 151.12C197.685 151.166 197.67 151.209 197.647 151.249C197.625 151.288 197.595 151.323 197.56 151.35C197.525 151.377 197.485 151.397 197.442 151.408L197.308 151.361Z" fill="#263238"/>
    <path d="M177.166 155.911C177.291 160.376 176.861 168.41 173.582 170.685C173.582 170.685 174.021 175.272 181.646 176.83C190.024 178.539 186.332 173.29 186.332 173.29C181.942 171.213 182.614 167.683 183.931 164.511L177.166 155.911Z" fill="#B55B52"/>
    <path d="M202.066 186.468C202.818 188.63 203.679 190.971 204.592 193.19C205.506 195.408 206.384 197.655 207.451 199.798C208.517 201.94 209.556 204.093 210.685 206.179C211.268 207.208 211.85 208.237 212.477 209.219C212.782 209.728 213.096 210.219 213.427 210.682L213.911 211.399L214.153 211.767L214.278 211.947L214.359 212.041C214.942 212.74 215.611 213.352 216.348 213.863C217.236 214.502 218.157 215.088 219.108 215.619C221.07 216.733 223.176 217.743 225.317 218.696C227.458 219.65 229.645 220.584 231.858 221.406C234.071 222.227 236.338 223.095 238.515 223.898L237.682 227.532C232.88 226.687 228.136 225.51 223.48 224.011C221.096 223.245 218.757 222.334 216.473 221.283C215.276 220.723 214.109 220.093 212.979 219.395C211.668 218.607 210.48 217.611 209.458 216.44L209.243 216.185L209.09 215.987L208.795 215.6L208.203 214.807C207.8 214.288 207.415 213.759 207.056 213.221C206.295 212.154 205.596 211.059 204.906 209.955C203.547 207.764 202.294 205.502 201.152 203.177C200.014 200.864 198.939 198.533 197.953 196.154C196.968 193.775 196.08 191.434 195.265 188.828L202.066 186.468Z" fill="#B55B52"/>
    <path d="M237.332 223.879L242.619 221.727L242.359 228.155C242.359 228.155 238.076 229.354 236.087 227.079L237.332 223.879Z" fill="#B55B52"/>
    <path d="M246.606 223.936L248.416 228.042L242.359 228.155L242.619 221.727L246.606 223.936Z" fill="#B55B52"/>
    <path d="M158.933 385.048L165.93 385.596L168.009 368.67L161.011 368.122L158.933 385.048Z" fill="#B55B52"/>
    <path d="M103.506 346.76L108.075 352.48L121.641 343.295L117.071 337.574L103.506 346.76Z" fill="#B55B52"/>
    <path d="M110.208 351.744L106.525 344.286C106.467 344.157 106.365 344.054 106.24 343.999C106.114 343.943 105.973 343.938 105.844 343.984L99.9936 346.118C99.8468 346.18 99.7141 346.274 99.6044 346.394C99.4947 346.514 99.4104 346.658 99.357 346.815C99.3037 346.972 99.2825 347.139 99.295 347.305C99.3074 347.471 99.3531 347.633 99.4291 347.779C100.755 350.356 101.517 351.555 103.13 354.812C104.133 356.822 105.396 359.881 106.767 362.666C108.138 365.451 110.755 364.214 110.414 362.921C108.873 357.153 109.894 355.558 110.414 353.056C110.488 352.607 110.415 352.144 110.208 351.744Z" fill="#263238"/>
    <path d="M166.369 384.548H158.503C158.367 384.546 158.236 384.596 158.132 384.687C158.028 384.779 157.96 384.907 157.938 385.048L156.881 391.6C156.859 391.763 156.871 391.929 156.915 392.087C156.96 392.246 157.036 392.392 157.139 392.516C157.242 392.641 157.369 392.74 157.511 392.809C157.654 392.877 157.808 392.912 157.965 392.912C160.716 392.865 162.033 392.695 165.491 392.695C167.624 392.695 172.014 392.931 174.953 392.931C177.892 392.931 178.125 389.872 176.906 389.589C171.45 388.352 169.335 386.634 167.525 385.001C167.206 384.705 166.794 384.544 166.369 384.548Z" fill="#263238"/>
    <path opacity="0.2" d="M168.009 368.67L166.853 378.081L159.882 377.345L161.011 368.132L168.009 368.67Z" fill="black"/>
    <path opacity="0.2" d="M117.071 337.574L121.641 343.295L116.023 347.099L111.283 341.492L117.071 337.574Z" fill="black"/>
    <path d="M159.488 214.807L187.551 220.537C200.811 179.407 197.639 178.057 197.639 178.057C195.578 176.884 193.45 175.843 191.269 174.942L190.884 174.791C189.092 174.102 188.715 173.998 186.314 173.262C182.175 172.233 178.331 171.374 173.573 170.666L172.677 170.534C171.781 170.42 170.957 170.326 170.132 170.241C169.577 170.175 169.021 170.137 168.493 170.099L166.701 169.995C163.636 169.835 161.441 169.882 161.441 169.882C162.982 195.568 161.808 202.96 159.488 214.807Z" fill="#648CF5"/>
    <path opacity="0.7" d="M159.488 214.807L187.551 220.537C200.811 179.407 197.639 178.057 197.639 178.057C195.578 176.884 193.45 175.843 191.269 174.942L190.884 174.791C189.092 174.102 188.715 173.998 186.314 173.262C182.175 172.233 178.331 171.374 173.573 170.666L172.677 170.534C171.781 170.42 170.957 170.326 170.132 170.241C169.577 170.175 169.021 170.137 168.493 170.099L166.701 169.995C163.636 169.835 161.441 169.882 161.441 169.882C162.982 195.568 161.808 202.96 159.488 214.807Z" fill="white"/>
    <path opacity="0.2" d="M193.607 187.658L191.072 187.224C191.072 190.745 192.344 196.786 193.581 200.628C194.629 196.852 195.444 193.747 196.063 191.132L193.607 187.658Z" fill="black"/>
    <path d="M196.663 177.557C200.811 178.954 203.831 187.601 204.96 191.33L196.896 201.308C196.896 201.308 188.635 188.8 189.952 184.92C191.242 180.88 194.656 176.868 196.663 177.557Z" fill="#648CF5"/>
    <path opacity="0.7" d="M196.663 177.557C200.811 178.954 203.831 187.601 204.96 191.33L196.896 201.308C196.896 201.308 188.635 188.8 189.952 184.92C191.242 180.88 194.656 176.868 196.663 177.557Z" fill="white"/>
    <path d="M199.351 145.631C198.518 148.208 194.871 149.237 191.242 147.944C187.613 146.65 185.32 143.488 186.153 140.911C186.986 138.334 190.633 137.305 194.217 138.607C197.801 139.91 200.175 143.054 199.351 145.631Z" fill="#263238"/>
    <path d="M178.304 144.923C176.44 151.946 175.508 154.873 177.641 159.706C180.848 166.984 189.432 168.126 193.249 161.887C196.681 156.279 199.154 145.735 193.67 140.458C192.513 139.279 191.084 138.439 189.525 138.021C187.965 137.602 186.329 137.619 184.777 138.069C183.226 138.52 181.813 139.389 180.678 140.591C179.542 141.793 178.724 143.286 178.304 144.923Z" fill="#B55B52"/>
    <path d="M188.715 136.72C186.027 138.343 180.32 128.176 173.232 136.72C168.161 142.846 171.396 151.824 171.396 151.824C171.396 151.824 167.355 144.338 164.129 147.991C159.918 152.711 164.272 169.599 178.16 168.438C192.048 167.277 190.704 155.401 190.704 155.401C190.704 155.401 197.209 148.435 196.887 142.185C196.645 137.503 193.195 134.048 188.715 136.72Z" fill="#263238"/>
    <path d="M190.4 150.955C190.054 152.262 190.097 153.65 190.526 154.929C191.099 156.732 192.416 156.742 193.115 155.496C193.814 154.25 194.199 152.088 193.205 150.634C192.21 149.18 190.848 149.511 190.4 150.955Z" fill="#B55B52"/>
    <path d="M180.096 219.008C180.096 219.008 177.103 229.939 173.259 244.364C170.706 253.974 167.767 265.132 165.088 275.638C163.556 281.652 162.113 287.448 160.868 292.63C153.825 321.942 118.702 347.137 118.702 347.137L111.901 339.255C111.901 339.255 135.502 318.317 142.365 290.969C156.226 235.452 148.431 226.088 159.479 214.807L180.096 219.008Z" fill="#263238"/>
    <path opacity="0.2" d="M177.067 228.807C176.028 233.045 174.72 238.398 173.277 244.383C170.724 253.993 167.785 265.151 165.106 275.657C163.959 262.253 163.314 237.605 172.677 229.94C174.523 228.448 175.983 228.137 177.067 228.807Z" fill="black"/>
    <path d="M119.285 348.27L110.791 338.424L113.362 335.705L123.783 346.052L119.285 348.27Z" fill="#648CF5"/>
    <path opacity="0.7" d="M119.285 348.27L110.791 338.424L113.362 335.705L123.783 346.052L119.285 348.27Z" fill="white"/>
    <path d="M111.489 355.746C111.404 355.744 111.319 355.728 111.239 355.699C110.405 355.378 109.877 353.698 109.635 352.726C109.627 352.692 109.629 352.658 109.64 352.626C109.651 352.594 109.671 352.566 109.697 352.546C109.723 352.526 109.755 352.516 109.787 352.516C109.819 352.516 109.851 352.526 109.877 352.546C110.127 352.697 112.332 354.057 112.376 355.01C112.384 355.114 112.364 355.218 112.32 355.311C112.276 355.404 112.209 355.483 112.126 355.539C111.942 355.683 111.718 355.756 111.489 355.746ZM110.065 353.056C110.432 354.33 110.898 355.189 111.355 355.359C111.453 355.391 111.556 355.397 111.657 355.375C111.757 355.354 111.85 355.306 111.928 355.237C112.045 355.152 112.054 355.067 112.045 355.01C112 354.519 110.934 353.632 110.065 353.056Z" fill="#648CF5"/>
    <path d="M187.103 220.537C187.103 220.537 188.895 278.895 184.934 300.881C180.866 323.792 168.448 375.712 168.448 375.712L158.359 374.343C158.359 374.343 164.738 321.8 167.453 299.087C170.401 274.317 166.557 216.308 166.557 216.308L187.103 220.537Z" fill="#263238"/>
    <path d="M170.616 376.363L156.235 374.409L156.406 370.803L172.059 371.521L170.616 376.363Z" fill="#648CF5"/>
    <path opacity="0.7" d="M170.616 376.363L156.235 374.409L156.406 370.803L172.059 371.521L170.616 376.363Z" fill="white"/>
    <path d="M111.83 353.462C111.085 353.424 110.359 353.208 109.706 352.829C109.682 352.813 109.661 352.791 109.647 352.765C109.633 352.738 109.626 352.709 109.625 352.678C109.629 352.648 109.639 352.619 109.655 352.593C109.67 352.567 109.691 352.544 109.715 352.527C109.796 352.527 111.507 351.536 112.493 351.923C112.616 351.97 112.728 352.045 112.821 352.143C112.914 352.241 112.986 352.359 113.03 352.49C113.089 352.615 113.106 352.758 113.079 352.895C113.051 353.032 112.98 353.155 112.878 353.245C112.56 353.434 112.192 353.51 111.83 353.462ZM110.154 352.697C110.934 353.075 112.296 353.283 112.672 352.971C112.735 352.914 112.797 352.829 112.672 352.612C112.646 352.529 112.601 352.453 112.542 352.391C112.483 352.328 112.411 352.281 112.331 352.254C111.58 352.165 110.82 352.319 110.154 352.697Z" fill="#648CF5"/>
    <path d="M168.968 385.832C168.23 385.815 167.495 385.727 166.773 385.567C166.738 385.563 166.706 385.547 166.682 385.521C166.657 385.496 166.642 385.462 166.638 385.426C166.633 385.39 166.639 385.353 166.655 385.321C166.671 385.288 166.697 385.262 166.728 385.246C167.05 385.067 169.882 383.566 170.724 384.066C170.804 384.113 170.871 384.181 170.919 384.264C170.966 384.347 170.991 384.442 170.993 384.538C171.01 384.696 170.99 384.855 170.933 385.002C170.877 385.149 170.786 385.278 170.67 385.379C170.167 385.726 169.567 385.886 168.968 385.832ZM167.328 385.322C168.869 385.596 170.016 385.52 170.455 385.124C170.531 385.054 170.589 384.966 170.625 384.867C170.66 384.769 170.673 384.662 170.661 384.557C170.664 384.519 170.656 384.481 170.638 384.448C170.621 384.414 170.595 384.387 170.563 384.369C170.106 384.104 168.493 384.737 167.328 385.322Z" fill="#648CF5"/>
    <path d="M166.808 385.577C166.776 385.586 166.742 385.586 166.71 385.577C166.686 385.559 166.666 385.535 166.654 385.507C166.641 385.478 166.636 385.447 166.638 385.416C166.638 385.284 166.988 382.093 168.681 382.282C169.129 382.329 169.263 382.565 169.29 382.764C169.416 383.594 167.722 385.199 166.871 385.596L166.808 385.577ZM168.547 382.584C167.543 382.584 167.14 384.331 167.015 385.086C167.911 384.538 169.039 383.283 168.968 382.783C168.968 382.783 168.968 382.622 168.645 382.594L168.547 382.584Z" fill="#648CF5"/>
    <path d="M159.309 213.004L157.633 215.374C157.508 215.562 157.705 215.817 158.028 215.883L187.461 221.887C187.712 221.887 187.945 221.887 187.981 221.689L188.653 219.102C188.653 218.932 188.501 218.725 188.223 218.668L159.802 212.872C159.716 212.848 159.625 212.847 159.539 212.87C159.453 212.893 159.373 212.939 159.309 213.004Z" fill="#648CF5"/>
    <path d="M162.606 217.12L161.845 216.96C161.692 216.96 161.594 216.827 161.621 216.733L162.517 213.382C162.517 213.287 162.696 213.231 162.839 213.259L163.601 213.42C163.753 213.42 163.861 213.552 163.834 213.646L162.938 216.997C162.902 217.12 162.759 217.12 162.606 217.12Z" fill="#263238"/>
    <path d="M181.825 221.075L181.064 220.924C180.912 220.924 180.813 220.783 180.84 220.688L181.736 217.347C181.736 217.243 181.906 217.186 182.058 217.224L182.82 217.375C182.963 217.375 183.071 217.517 183.044 217.611L182.148 220.953C182.121 221.057 181.978 221.113 181.825 221.075Z" fill="#263238"/>
</svg>
