<svg width="448" height="473" viewBox="0 0 448 473" fill="none" xmlns="http://www.w3.org/2000/svg">
    <path opacity="0.1" d="M419.552 61.132C424.992 150.698 322.79 247.352 249.117 272.582C178.124 296.935 36.1601 287.864 28.9029 182.319C26.1772 142.672 47.8351 99.4212 79.9302 78.7568C131.537 45.5616 171.991 89.8579 222.859 96.9824C263.279 102.641 294.579 83.5745 324.902 57.5397C350.161 35.8781 415.464 -6.06343 419.552 61.132Z" fill="#648CF5"/>
    <path opacity="0.1" d="M224 404.472C319.946 404.472 397.725 399.677 397.725 393.763C397.725 387.849 319.946 383.054 224 383.054C128.054 383.054 50.2744 387.849 50.2744 393.763C50.2744 399.677 128.054 404.472 224 404.472Z" fill="#648CF5"/>
    <path d="M131.642 251.944C150.593 231.935 150.593 199.495 131.642 179.486C112.691 159.478 81.9648 159.478 63.0137 179.486C44.0626 199.495 44.0626 231.935 63.0137 251.944C81.9648 271.953 112.691 271.953 131.642 251.944Z" fill="#648CF5"/>
    <path opacity="0.2" d="M131.642 251.944C150.593 231.935 150.593 199.495 131.642 179.486C112.691 159.478 81.9648 159.478 63.0137 179.486C44.0626 199.495 44.0626 231.935 63.0137 251.944C81.9648 271.953 112.691 271.953 131.642 251.944Z" fill="black"/>
    <path opacity="0.2" d="M137.502 222.95C141.286 199.526 126.369 177.299 104.184 173.304C81.9986 169.308 60.9462 185.058 57.162 208.481C53.3778 231.904 68.2947 254.131 90.4799 258.127C112.665 262.122 133.718 246.373 137.502 222.95Z" fill="black"/>
    <path d="M139.449 219.836C140.962 197.025 124.673 177.239 103.068 175.642C81.4632 174.045 62.7229 191.243 61.2105 214.053C59.6982 236.864 75.9865 256.65 97.5915 258.247C119.197 259.844 137.937 242.646 139.449 219.836Z" fill="#648CF5"/>
    <path opacity="0.2" d="M139.449 219.836C140.962 197.025 124.673 177.239 103.068 175.642C81.4632 174.045 62.7229 191.243 61.2105 214.053C59.6982 236.864 75.9865 256.65 97.5915 258.247C119.197 259.844 137.937 242.646 139.449 219.836Z" fill="black"/>
    <path d="M113.443 211.772L115.996 223.455C116.105 223.901 116.124 224.366 116.053 224.82C115.982 225.275 115.822 225.708 115.584 226.094C115.352 226.488 115.048 226.83 114.69 227.098C114.331 227.366 113.925 227.555 113.496 227.655L103.766 230.029L105.558 238.25C105.663 238.694 105.679 239.157 105.605 239.608C105.531 240.06 105.369 240.49 105.128 240.871C104.896 241.258 104.591 241.591 104.232 241.849C103.873 242.106 103.467 242.282 103.04 242.365C102.612 242.478 102.168 242.5 101.732 242.428C101.297 242.357 100.879 242.194 100.504 241.949C100.131 241.717 99.8073 241.405 99.5543 241.034C99.3013 240.663 99.1244 240.24 99.0349 239.792L97.2429 231.477L87.5929 233.832C87.1771 233.938 86.7452 233.954 86.3233 233.88C85.9014 233.805 85.4982 233.641 85.1379 233.397C84.7635 233.165 84.4388 232.854 84.1843 232.483C83.9298 232.111 83.7511 231.688 83.6595 231.24C83.5576 230.798 83.5416 230.339 83.6124 229.89C83.6833 229.442 83.8395 229.013 84.0717 228.629C84.2932 228.238 84.589 227.898 84.9405 227.633C85.2921 227.368 85.6918 227.182 86.1145 227.087L108.694 221.591L107.636 216.738L85.12 222.215C84.7032 222.328 84.2691 222.35 83.844 222.28C83.419 222.21 83.0118 222.05 82.647 221.809C82.273 221.572 81.95 221.255 81.6985 220.879C81.447 220.502 81.2727 220.075 81.1865 219.623L78.6419 207.988C78.446 207.093 78.5947 206.153 79.055 205.375C79.5154 204.596 80.2499 204.042 81.0969 203.835L90.7021 201.498L88.9101 193.268C88.8062 192.833 88.7859 192.38 88.8506 191.936C88.9152 191.493 89.0634 191.067 89.2864 190.685C89.5227 190.271 89.84 189.916 90.217 189.641C90.594 189.367 91.0221 189.181 91.4726 189.096C91.887 188.99 92.3175 188.973 92.738 189.048C93.1585 189.123 93.5602 189.287 93.9187 189.531C94.2867 189.77 94.605 190.085 94.8544 190.458C95.1039 190.83 95.2794 191.252 95.3702 191.698L97.1622 199.918L107.018 197.534C107.445 197.425 107.887 197.409 108.32 197.485C108.753 197.561 109.166 197.729 109.536 197.979C109.91 198.206 110.235 198.512 110.491 198.879C110.747 199.245 110.928 199.663 111.023 200.107C111.212 201.022 111.054 201.979 110.584 202.773C110.113 203.566 109.367 204.134 108.506 204.355L85.9264 209.851L86.912 214.676L109.411 209.199C109.837 209.09 110.28 209.073 110.712 209.149C111.145 209.226 111.559 209.394 111.928 209.643C112.308 209.866 112.639 210.17 112.9 210.537C113.161 210.904 113.346 211.324 113.443 211.772Z" fill="#648CF5"/>
    <g opacity="0.7">
        <path opacity="0.7" d="M113.443 211.772L115.996 223.455C116.105 223.901 116.124 224.366 116.053 224.82C115.982 225.275 115.822 225.708 115.584 226.094C115.352 226.488 115.048 226.83 114.69 227.098C114.331 227.366 113.925 227.555 113.496 227.655L103.766 230.029L105.558 238.25C105.663 238.694 105.679 239.157 105.605 239.608C105.531 240.06 105.369 240.49 105.128 240.871C104.896 241.258 104.591 241.591 104.232 241.849C103.873 242.106 103.467 242.282 103.04 242.365C102.612 242.478 102.168 242.5 101.732 242.428C101.297 242.357 100.879 242.194 100.504 241.949C100.131 241.717 99.8073 241.405 99.5543 241.034C99.3013 240.663 99.1244 240.24 99.0349 239.792L97.2429 231.477L87.5929 233.832C87.1771 233.938 86.7452 233.954 86.3233 233.88C85.9014 233.805 85.4982 233.641 85.1379 233.397C84.7635 233.165 84.4388 232.854 84.1843 232.483C83.9298 232.111 83.7511 231.688 83.6595 231.24C83.5576 230.798 83.5416 230.339 83.6124 229.89C83.6833 229.442 83.8395 229.013 84.0717 228.629C84.2932 228.238 84.589 227.898 84.9405 227.633C85.2921 227.368 85.6918 227.182 86.1145 227.087L108.694 221.591L107.636 216.738L85.12 222.215C84.7032 222.328 84.2691 222.35 83.844 222.28C83.419 222.21 83.0118 222.05 82.647 221.809C82.273 221.572 81.95 221.255 81.6985 220.879C81.447 220.502 81.2727 220.075 81.1865 219.623L78.6419 207.988C78.446 207.093 78.5947 206.153 79.055 205.375C79.5154 204.596 80.2499 204.042 81.0969 203.835L90.7021 201.498L88.9101 193.268C88.8062 192.833 88.7859 192.38 88.8506 191.936C88.9152 191.493 89.0634 191.067 89.2864 190.685C89.5227 190.271 89.84 189.916 90.217 189.641C90.594 189.367 91.0221 189.181 91.4726 189.096C91.887 188.99 92.3175 188.973 92.738 189.048C93.1585 189.123 93.5602 189.287 93.9187 189.531C94.2867 189.77 94.605 190.085 94.8544 190.458C95.1039 190.83 95.2794 191.252 95.3702 191.698L97.1622 199.918L107.018 197.534C107.445 197.425 107.887 197.409 108.32 197.485C108.753 197.561 109.166 197.729 109.536 197.979C109.91 198.206 110.235 198.512 110.491 198.879C110.747 199.245 110.928 199.663 111.023 200.107C111.212 201.022 111.054 201.979 110.584 202.773C110.113 203.566 109.367 204.134 108.506 204.355L85.9264 209.851L86.912 214.676L109.411 209.199C109.837 209.09 110.28 209.073 110.712 209.149C111.145 209.226 111.559 209.394 111.928 209.643C112.308 209.866 112.639 210.17 112.9 210.537C113.161 210.904 113.346 211.324 113.443 211.772Z" fill="white"/>
    </g>
    <path d="M200.882 174.97C212.956 159.886 211.161 137.324 196.874 124.577C182.587 111.83 161.218 113.724 149.145 128.809C137.071 143.893 138.866 166.455 153.153 179.202C167.44 191.949 188.809 190.054 200.882 174.97Z" fill="#648CF5"/>
    <path opacity="0.2" d="M200.882 174.97C212.956 159.886 211.161 137.324 196.874 124.577C182.587 111.83 161.218 113.724 149.145 128.809C137.071 143.893 138.866 166.455 153.153 179.202C167.44 191.949 188.809 190.054 200.882 174.97Z" fill="black"/>
    <path opacity="0.2" d="M196.934 170.994C206.942 158.213 205.241 139.286 193.135 128.72C181.03 118.154 163.104 119.95 153.096 132.731C143.089 145.512 144.79 164.439 156.895 175.005C169.001 185.57 186.927 183.775 196.934 170.994Z" fill="black"/>
    <path d="M197.793 171.307C206.949 158.659 204.66 140.569 192.68 130.902C180.7 121.235 163.566 123.652 154.41 136.301C145.254 148.949 147.544 167.039 159.523 176.706C171.503 186.373 188.637 183.956 197.793 171.307Z" fill="#648CF5"/>
    <path opacity="0.2" d="M197.793 171.307C206.949 158.659 204.66 140.569 192.68 130.902C180.7 121.235 163.566 123.652 154.41 136.301C145.254 148.949 147.544 167.039 159.523 176.706C171.503 186.373 188.637 183.956 197.793 171.307Z" fill="black"/>
    <path d="M186.207 154.822L184.28 162.939C184.211 163.248 184.08 163.538 183.898 163.79C183.716 164.042 183.486 164.252 183.223 164.405C182.957 164.576 182.662 164.688 182.354 164.735C182.046 164.783 181.732 164.764 181.431 164.68L174.72 162.892L173.358 168.568C173.289 168.878 173.159 169.169 172.977 169.423C172.795 169.678 172.565 169.889 172.301 170.043C172.047 170.21 171.763 170.32 171.468 170.367C171.172 170.415 170.87 170.398 170.581 170.318C170.283 170.244 170.001 170.108 169.754 169.918C169.506 169.728 169.297 169.487 169.138 169.211C168.976 168.941 168.869 168.639 168.823 168.323C168.777 168.007 168.792 167.685 168.869 167.376L170.24 161.605L163.52 159.874C163.229 159.8 162.955 159.665 162.715 159.477C162.474 159.288 162.273 159.05 162.122 158.777C161.96 158.508 161.853 158.208 161.807 157.894C161.76 157.579 161.776 157.258 161.854 156.951C161.921 156.64 162.047 156.347 162.226 156.09C162.405 155.832 162.632 155.617 162.893 155.456C163.151 155.29 163.438 155.181 163.736 155.136C164.035 155.09 164.34 155.109 164.631 155.191L180.311 159.344L181.118 155.976L165.482 151.833C165.19 151.764 164.913 151.631 164.671 151.444C164.429 151.257 164.226 151.019 164.076 150.745C163.913 150.475 163.807 150.172 163.764 149.856C163.721 149.54 163.741 149.217 163.825 148.91L165.742 140.822C165.814 140.513 165.944 140.223 166.123 139.968C166.302 139.713 166.527 139.498 166.785 139.335C167.044 139.172 167.33 139.065 167.628 139.02C167.925 138.975 168.229 138.992 168.52 139.071L175.168 140.831L176.53 135.155C176.596 134.835 176.724 134.532 176.906 134.267C177.088 134.001 177.32 133.778 177.588 133.612C177.856 133.446 178.153 133.34 178.461 133.301C178.77 133.262 179.082 133.291 179.379 133.386C179.668 133.457 179.94 133.59 180.177 133.777C180.415 133.964 180.613 134.202 180.759 134.474C180.918 134.744 181.022 135.045 181.067 135.359C181.112 135.672 181.095 135.993 181.019 136.3L179.657 141.976L186.467 143.783C186.765 143.858 187.047 143.996 187.293 144.19C187.539 144.384 187.746 144.628 187.9 144.908C188.064 145.174 188.173 145.472 188.223 145.785C188.272 146.097 188.26 146.417 188.187 146.725C188.112 147.04 187.979 147.336 187.794 147.596C187.609 147.856 187.377 148.074 187.112 148.238C186.847 148.412 186.552 148.527 186.244 148.576C185.935 148.624 185.621 148.606 185.32 148.522L169.631 144.369L168.842 147.718L184.469 151.852C184.767 151.927 185.048 152.066 185.295 152.259C185.541 152.453 185.748 152.697 185.902 152.978C186.075 153.244 186.191 153.547 186.244 153.865C186.296 154.183 186.284 154.51 186.207 154.822Z" fill="#648CF5"/>
    <g opacity="0.7">
        <path opacity="0.7" d="M186.207 154.822L184.28 162.939C184.211 163.248 184.08 163.538 183.898 163.79C183.716 164.042 183.486 164.252 183.223 164.405C182.957 164.576 182.662 164.688 182.354 164.735C182.046 164.783 181.732 164.764 181.431 164.68L174.72 162.892L173.358 168.568C173.289 168.878 173.159 169.169 172.977 169.423C172.795 169.678 172.565 169.889 172.301 170.043C172.047 170.21 171.763 170.32 171.468 170.367C171.172 170.415 170.87 170.398 170.581 170.318C170.283 170.244 170.001 170.108 169.754 169.918C169.506 169.728 169.297 169.487 169.138 169.211C168.976 168.941 168.869 168.639 168.823 168.323C168.777 168.007 168.792 167.685 168.869 167.376L170.24 161.605L163.52 159.874C163.229 159.8 162.955 159.665 162.715 159.477C162.474 159.288 162.273 159.05 162.122 158.777C161.96 158.508 161.853 158.208 161.807 157.894C161.76 157.579 161.776 157.258 161.854 156.951C161.921 156.64 162.047 156.347 162.226 156.09C162.405 155.832 162.632 155.617 162.893 155.456C163.151 155.29 163.438 155.181 163.736 155.136C164.035 155.09 164.34 155.109 164.631 155.191L180.311 159.344L181.118 155.976L165.482 151.833C165.19 151.764 164.913 151.631 164.671 151.444C164.429 151.257 164.226 151.019 164.076 150.745C163.913 150.475 163.807 150.172 163.764 149.856C163.721 149.54 163.741 149.217 163.825 148.91L165.742 140.822C165.814 140.513 165.944 140.223 166.123 139.968C166.302 139.713 166.527 139.498 166.785 139.335C167.044 139.172 167.33 139.065 167.628 139.02C167.925 138.975 168.229 138.992 168.52 139.071L175.168 140.831L176.53 135.155C176.596 134.835 176.724 134.532 176.906 134.267C177.088 134.001 177.32 133.778 177.588 133.612C177.856 133.446 178.153 133.34 178.461 133.301C178.77 133.262 179.082 133.291 179.379 133.386C179.668 133.457 179.94 133.59 180.177 133.777C180.415 133.964 180.613 134.202 180.759 134.474C180.918 134.744 181.022 135.045 181.067 135.359C181.112 135.672 181.095 135.993 181.019 136.3L179.657 141.976L186.467 143.783C186.765 143.858 187.047 143.996 187.293 144.19C187.539 144.384 187.746 144.628 187.9 144.908C188.064 145.174 188.173 145.472 188.223 145.785C188.272 146.097 188.26 146.417 188.187 146.725C188.112 147.04 187.979 147.336 187.794 147.596C187.609 147.856 187.377 148.074 187.112 148.238C186.847 148.412 186.552 148.527 186.244 148.576C185.935 148.624 185.621 148.606 185.32 148.522L169.631 144.369L168.842 147.718L184.469 151.852C184.767 151.927 185.048 152.066 185.295 152.259C185.541 152.453 185.748 152.697 185.902 152.978C186.075 153.244 186.191 153.547 186.244 153.865C186.296 154.183 186.284 154.51 186.207 154.822Z" fill="white"/>
    </g>
    <path d="M92.521 367.966H91.625V378.646H92.521V367.966Z" fill="#648CF5"/>
    <path opacity="0.1" d="M92.521 367.966H91.625V378.646H92.521V367.966Z" fill="black"/>
    <path d="M356.375 283.355H355.479V297.99H356.375V283.355Z" fill="#648CF5"/>
    <path d="M356.375 305.662H355.479V313.599H356.375V305.662Z" fill="#648CF5"/>
    <path opacity="0.1" d="M356.375 283.355H355.479V297.99H356.375V283.355Z" fill="black"/>
    <path opacity="0.1" d="M356.375 305.662H355.479V313.599H356.375V305.662Z" fill="black"/>
    <path d="M339.764 219.888H108.246C100.799 219.888 94.7612 226.262 94.7612 234.125V377.208C94.7612 385.071 100.799 391.445 108.246 391.445H339.764C347.211 391.445 353.248 385.071 353.248 377.208V234.125C353.248 226.262 347.211 219.888 339.764 219.888Z" fill="#648CF5"/>
    <path opacity="0.05" d="M339.764 219.888H108.246C100.799 219.888 94.7612 226.262 94.7612 234.125V377.208C94.7612 385.071 100.799 391.445 108.246 391.445H339.764C347.211 391.445 353.248 385.071 353.248 377.208V234.125C353.248 226.262 347.211 219.888 339.764 219.888Z" fill="black"/>
    <path opacity="0.2" d="M311.405 279.628C320.644 279.628 328.133 271.721 328.133 261.966C328.133 252.212 320.644 244.304 311.405 244.304C302.166 244.304 294.677 252.212 294.677 261.966C294.677 271.721 302.166 279.628 311.405 279.628Z" fill="black"/>
    <path d="M289.811 279.628C299.05 279.628 306.54 271.721 306.54 261.966C306.54 252.212 299.05 244.304 289.811 244.304C280.573 244.304 273.083 252.212 273.083 261.966C273.083 271.721 280.573 279.628 289.811 279.628Z" fill="#648CF5"/>
    <path opacity="0.3" d="M289.811 279.628C299.05 279.628 306.54 271.721 306.54 261.966C306.54 252.212 299.05 244.304 289.811 244.304C280.573 244.304 273.083 252.212 273.083 261.966C273.083 271.721 280.573 279.628 289.811 279.628Z" fill="white"/>
    <path d="M165.527 279.628H125.682C122.475 279.628 119.876 282.373 119.876 285.758V313.258C119.876 316.644 122.475 319.388 125.682 319.388H165.527C168.734 319.388 171.333 316.644 171.333 313.258V285.758C171.333 282.373 168.734 279.628 165.527 279.628Z" fill="#648CF5"/>
    <path opacity="0.3" d="M165.527 279.628H125.682C122.475 279.628 119.876 282.373 119.876 285.758V313.258C119.876 316.644 122.475 319.388 125.682 319.388H165.527C168.734 319.388 171.333 316.644 171.333 313.258V285.758C171.333 282.373 168.734 279.628 165.527 279.628Z" fill="white"/>
    <path d="M193.097 239.972H123.989C121.717 239.972 119.876 241.914 119.876 244.309C119.876 246.705 121.717 248.647 123.989 248.647H193.097C195.368 248.647 197.21 246.705 197.21 244.309C197.21 241.914 195.368 239.972 193.097 239.972Z" fill="#648CF5"/>
    <path opacity="0.3" d="M193.097 239.972H123.989C121.717 239.972 119.876 241.914 119.876 244.309C119.876 246.705 121.717 248.647 123.989 248.647H193.097C195.368 248.647 197.21 246.705 197.21 244.309C197.21 241.914 195.368 239.972 193.097 239.972Z" fill="white"/>
    <path d="M156.988 339.122H125.906C122.576 339.122 119.876 341.972 119.876 345.489V351.439C119.876 354.955 122.576 357.806 125.906 357.806H156.988C160.319 357.806 163.018 354.955 163.018 351.439V345.489C163.018 341.972 160.319 339.122 156.988 339.122Z" fill="#648CF5"/>
    <path opacity="0.3" d="M156.988 339.122H125.906C122.576 339.122 119.876 341.972 119.876 345.489V351.439C119.876 354.955 122.576 357.806 125.906 357.806H156.988C160.319 357.806 163.018 354.955 163.018 351.439V345.489C163.018 341.972 160.319 339.122 156.988 339.122Z" fill="white"/>
    <path d="M212.021 339.122H180.938C177.608 339.122 174.908 341.972 174.908 345.489V351.439C174.908 354.955 177.608 357.806 180.938 357.806H212.021C215.351 357.806 218.051 354.955 218.051 351.439V345.489C218.051 341.972 215.351 339.122 212.021 339.122Z" fill="#648CF5"/>
    <path opacity="0.3" d="M212.021 339.122H180.938C177.608 339.122 174.908 341.972 174.908 345.489V351.439C174.908 354.955 177.608 357.806 180.938 357.806H212.021C215.351 357.806 218.051 354.955 218.051 351.439V345.489C218.051 341.972 215.351 339.122 212.021 339.122Z" fill="white"/>
    <path d="M267.062 339.122H235.98C232.649 339.122 229.95 341.972 229.95 345.489V351.439C229.95 354.955 232.649 357.806 235.98 357.806H267.062C270.392 357.806 273.092 354.955 273.092 351.439V345.489C273.092 341.972 270.392 339.122 267.062 339.122Z" fill="#648CF5"/>
    <path opacity="0.3" d="M267.062 339.122H235.98C232.649 339.122 229.95 341.972 229.95 345.489V351.439C229.95 354.955 232.649 357.806 235.98 357.806H267.062C270.392 357.806 273.092 354.955 273.092 351.439V345.489C273.092 341.972 270.392 339.122 267.062 339.122Z" fill="white"/>
    <path d="M322.094 339.122H291.012C287.682 339.122 284.982 341.972 284.982 345.489V351.439C284.982 354.955 287.682 357.806 291.012 357.806H322.094C325.425 357.806 328.124 354.955 328.124 351.439V345.489C328.124 341.972 325.425 339.122 322.094 339.122Z" fill="#648CF5"/>
    <path opacity="0.3" d="M322.094 339.122H291.012C287.682 339.122 284.982 341.972 284.982 345.489V351.439C284.982 354.955 287.682 357.806 291.012 357.806H322.094C325.425 357.806 328.124 354.955 328.124 351.439V345.489C328.124 341.972 325.425 339.122 322.094 339.122Z" fill="white"/>
    <path d="M262.528 157.812C260.405 164.14 258.048 170.261 255.548 176.382C253.018 182.606 250.115 188.654 246.857 194.488C246.418 195.235 245.961 195.983 245.486 196.73L245.137 197.288L244.662 197.979C244.339 198.414 244.035 198.792 243.766 199.161C242.637 200.49 241.44 201.753 240.182 202.945C237.789 205.282 235.352 207.401 232.888 209.492C227.942 213.635 222.889 217.514 217.656 221.194L214.529 217.098L227.701 203.39C229.878 201.11 232.037 198.811 234.053 196.513C235.048 195.368 236.015 194.195 236.813 193.116C237.01 192.852 237.18 192.587 237.333 192.36L237.521 192.038L237.781 191.546C238.13 190.893 238.497 190.26 238.838 189.588C241.58 184.148 243.999 178.236 246.328 172.238C248.658 166.241 250.898 160.196 253.048 154.198L262.528 157.812Z" fill="#E4897B"/>
    <path d="M265.046 153.252C267.08 159.533 255.127 178.009 255.127 178.009L243.712 171.302C245.657 165.537 247.956 159.912 250.593 154.463C254.589 146.479 262.815 146.356 265.046 153.252Z" fill="#648CF5"/>
    <path opacity="0.7" d="M265.046 153.252C267.08 159.533 255.127 178.009 255.127 178.009L243.712 171.302C245.657 165.537 247.956 159.912 250.593 154.463C254.589 146.479 262.815 146.356 265.046 153.252Z" fill="white"/>
    <path opacity="0.31" d="M265.216 154.037C262.653 152.741 259.705 153.829 256.596 159.013C253.487 164.197 250.844 172.853 250.557 175.322L255.136 177.999C255.136 177.999 266.165 160.934 265.216 154.037Z" fill="#648CF5"/>
    <path d="M257.313 148.446C257.313 148.446 248.783 169.627 254.93 209.066H290.456C290.895 203.305 288.387 175.218 294.542 148.087C290.631 147.283 286.674 146.752 282.697 146.498C277.669 146.195 272.628 146.195 267.599 146.498C264.129 146.87 260.69 147.521 257.313 148.446Z" fill="#648CF5"/>
    <path opacity="0.7" d="M257.313 148.446C257.313 148.446 248.783 169.627 254.93 209.066H290.456C290.895 203.305 288.387 175.218 294.542 148.087C290.631 147.283 286.674 146.752 282.697 146.498C277.669 146.195 272.628 146.195 267.599 146.498C264.129 146.87 260.69 147.521 257.313 148.446Z" fill="white"/>
    <path d="M303.036 377.104L297.777 382.08L287.75 371.059L293.019 366.083L303.036 377.104Z" fill="#E4897B"/>
    <path d="M285 387.453H278.36L277.5 371.22H284.139L285 387.453Z" fill="#E4897B"/>
    <path d="M287.759 371.059L292.92 376.744L298.189 371.759L293.028 366.083L287.759 371.059Z" fill="#CE6F64"/>
    <path d="M284.139 371.22H277.5L277.948 379.592H284.587L284.139 371.22Z" fill="#CE6F64"/>
    <path d="M254.93 209.066C254.93 209.066 247.932 260.207 245.549 288.038C243.631 310.373 289.372 376.962 289.372 376.962L298.216 368.174C298.216 368.174 264.813 308.472 267.384 283.611C269.875 259.535 278.316 209.038 278.316 209.038L254.93 209.066Z" fill="#648CF5"/>
    <path opacity="0.7" d="M254.93 209.066C254.93 209.066 247.932 260.207 245.549 288.038C243.631 310.373 289.372 376.962 289.372 376.962L298.216 368.174C298.216 368.174 264.813 308.472 267.384 283.611C269.875 259.535 278.316 209.038 278.316 209.038L254.93 209.066Z" fill="black"/>
    <path opacity="0.2" d="M267.384 283.639C268.665 271.237 271.533 251.806 273.997 235.895C272.706 233.227 269.087 227.825 269.087 227.825C265.843 239.66 258.792 284.273 268.854 344.524C279.337 362.365 289.372 376.99 289.372 376.99L290.743 353.984C281.057 334.742 265.601 300.828 267.384 283.639Z" fill="black"/>
    <path d="M267.563 209.066C267.563 209.066 266.936 262.657 268.011 282.741C269.185 304.726 275.099 377.577 275.099 377.577H287.266C287.266 377.577 286.899 306.504 287.616 284.746C288.413 261.096 290.474 209.066 290.474 209.066H267.563Z" fill="#648CF5"/>
    <path opacity="0.7" d="M267.563 209.066C267.563 209.066 266.936 262.657 268.011 282.741C269.185 304.726 275.099 377.577 275.099 377.577H287.266C287.266 377.577 286.899 306.504 287.616 284.746C288.413 261.096 290.474 209.066 290.474 209.066H267.563Z" fill="black"/>
    <path d="M278.011 386.649H285.475C285.599 386.644 285.721 386.691 285.813 386.779C285.905 386.868 285.96 386.991 285.967 387.122L286.335 393.356C286.336 393.519 286.307 393.68 286.249 393.831C286.191 393.982 286.105 394.119 285.997 394.235C285.889 394.351 285.76 394.444 285.618 394.507C285.477 394.57 285.324 394.604 285.17 394.605C282.572 394.558 281.326 394.397 278.047 394.397C276.031 394.397 267.447 394.624 264.661 394.624C261.874 394.624 261.973 391.71 263.128 391.445C268.424 390.263 274.991 388.607 276.873 387.075C277.197 386.804 277.598 386.654 278.011 386.649Z" fill="#263238"/>
    <path d="M296.325 380.084L302.722 375.534C302.827 375.446 302.956 375.399 303.09 375.399C303.223 375.399 303.353 375.446 303.457 375.534L308.349 380.746C308.445 380.861 308.515 380.996 308.556 381.142C308.596 381.289 308.606 381.443 308.583 381.594C308.561 381.744 308.508 381.888 308.427 382.015C308.346 382.141 308.24 382.247 308.116 382.326C304.031 385.646 301.083 388.153 298.753 390.916C296.065 394.141 294.614 394.605 288.342 394.605C285.439 394.605 283.799 392.022 284.982 391.625C295.429 388.134 292.634 386.611 295.178 381.493C295.444 380.93 295.838 380.446 296.325 380.084Z" fill="#263238"/>
    <path d="M216.034 216.218L209.108 216.473L210.56 222.206C210.56 222.206 217.8 222.887 218.445 220.579L216.034 216.218Z" fill="#E4897B"/>
    <path d="M201.636 219.888L206.492 222.878L210.56 222.206L209.108 216.473L201.636 219.888Z" fill="#E4897B"/>
    <path opacity="0.31" d="M286.603 154.785C285.869 159.25 286.845 169.921 290.474 182.275C290.758 171.69 291.925 161.152 293.96 150.783V150.726C291.63 150.48 287.311 150.594 286.603 154.785Z" fill="#648CF5"/>
    <path d="M281.792 128.542C280.672 133.67 279.409 143.073 282.688 146.516C282.688 146.516 281.272 150.764 272.241 150.764C262.313 150.764 267.59 146.516 267.59 146.516C273.056 145.154 273.056 140.907 272.241 136.924L281.792 128.542Z" fill="#E4897B"/>
    <path d="M271.99 150.745L269.302 153.763L270.619 156.677L272.76 156.781L274.588 153.999L271.99 150.745Z" fill="#648CF5"/>
    <path d="M277.903 131.958L272.25 136.896C272.453 137.828 272.579 138.778 272.626 139.734C274.705 139.421 277.626 137.019 277.921 134.729C278.079 133.812 278.073 132.872 277.903 131.958Z" fill="#CE6F64"/>
    <path d="M270.01 111.155C266.614 112.375 263.899 121.883 267.859 124.399C271.82 126.915 276.461 108.837 270.01 111.155Z" fill="#263238"/>
    <path d="M283.915 123.169C281.89 129.791 281.03 133.793 276.945 136.508C275.626 137.402 274.102 137.899 272.536 137.945C270.969 137.99 269.421 137.583 268.058 136.767C266.696 135.95 265.57 134.756 264.804 133.313C264.038 131.87 263.66 130.234 263.711 128.58C263.791 122.214 267.089 112.413 274.033 111.183C275.529 110.878 277.075 110.994 278.516 111.518C279.957 112.043 281.243 112.957 282.243 114.171C283.244 115.385 283.925 116.855 284.219 118.434C284.512 120.013 284.408 121.646 283.915 123.169Z" fill="#E4897B"/>
    <path d="M288.933 112.101C286.908 117.266 291.621 112.952 290.402 119.082C289.614 123.075 282.786 132.639 280.152 131.768C277.518 130.898 277.545 124.115 280.905 119.319C282.84 116.566 278.656 113.444 269.257 113.775C259.858 114.107 254.177 108.525 266.667 104.429C266.667 104.429 262.062 107.267 264.795 108.213C268.665 109.736 292.992 101.752 288.933 112.101Z" fill="#263238"/>
    <path d="M287.141 114.466C287.042 114.466 289.246 113.889 290.42 109.736C290.42 109.802 290.035 115.923 287.141 114.466Z" fill="#263238"/>
    <path d="M269.553 105.347C263.773 107.239 266.166 109.367 268.558 109.897L274.042 107.626C265.709 108.79 269.553 105.347 269.553 105.347Z" fill="#263238"/>
    <path d="M285.026 131.258C283.825 132.491 282.222 133.191 280.546 133.216C278.333 133.216 277.858 131.002 279.05 129.148C280.107 127.483 282.526 125.477 284.48 126.376C286.433 127.275 286.496 129.734 285.026 131.258Z" fill="#E4897B"/>
    <path d="M273.71 122.8C273.575 123.349 273.19 123.746 272.814 123.652C272.438 123.557 272.303 123.056 272.438 122.507C272.572 121.958 272.957 121.561 273.334 121.665C273.71 121.769 273.844 122.252 273.71 122.8Z" fill="#263238"/>
    <path d="M267.796 121.429C267.662 121.977 267.277 122.375 266.9 122.28C266.524 122.185 266.39 121.693 266.524 121.145C266.658 120.596 267.035 120.199 267.42 120.293C267.805 120.388 267.904 120.88 267.796 121.429Z" fill="#263238"/>
    <path d="M269.606 122.138C268.588 123.67 267.383 125.053 266.022 126.253C266.322 126.604 266.69 126.882 267.102 127.067C267.514 127.251 267.959 127.338 268.406 127.322L269.606 122.138Z" fill="#DE5753"/>
    <path d="M270.592 129.318C270.221 129.318 269.851 129.273 269.49 129.186C269.45 129.175 269.416 129.148 269.394 129.111C269.373 129.074 269.365 129.03 269.373 128.987C269.384 128.945 269.409 128.909 269.444 128.886C269.479 128.863 269.521 128.855 269.562 128.864C270.221 129.019 270.906 129.015 271.564 128.851C272.222 128.687 272.836 128.368 273.361 127.918C273.391 127.887 273.431 127.87 273.473 127.87C273.514 127.87 273.555 127.887 273.585 127.918C273.614 127.95 273.63 127.992 273.63 128.036C273.63 128.08 273.614 128.123 273.585 128.155C272.753 128.911 271.69 129.324 270.592 129.318Z" fill="#263238"/>
    <path d="M276.057 121.221C275.996 121.222 275.936 121.203 275.885 121.168C275.834 121.132 275.794 121.082 275.771 121.022C275.624 120.642 275.392 120.306 275.096 120.041C274.799 119.776 274.447 119.59 274.068 119.499C274.027 119.493 273.987 119.479 273.951 119.456C273.915 119.434 273.884 119.404 273.859 119.369C273.834 119.334 273.815 119.294 273.805 119.251C273.795 119.208 273.793 119.164 273.8 119.12C273.813 119.033 273.858 118.955 273.924 118.902C273.991 118.849 274.075 118.826 274.158 118.837C274.641 118.94 275.092 119.167 275.473 119.497C275.854 119.826 276.153 120.249 276.344 120.729C276.362 120.768 276.372 120.811 276.373 120.855C276.374 120.899 276.367 120.942 276.352 120.983C276.337 121.024 276.314 121.061 276.285 121.092C276.256 121.123 276.221 121.147 276.183 121.164C276.146 121.192 276.103 121.212 276.057 121.221Z" fill="#263238"/>
    <path d="M265.798 118.714C265.726 118.713 265.656 118.686 265.601 118.638C265.537 118.581 265.496 118.499 265.487 118.411C265.479 118.323 265.504 118.234 265.556 118.165C265.872 117.75 266.274 117.418 266.73 117.193C267.187 116.968 267.687 116.857 268.19 116.869C268.232 116.872 268.272 116.885 268.309 116.905C268.345 116.925 268.378 116.952 268.405 116.986C268.431 117.019 268.451 117.058 268.464 117.099C268.476 117.141 268.481 117.185 268.477 117.228C268.475 117.272 268.464 117.315 268.446 117.355C268.427 117.394 268.401 117.429 268.369 117.458C268.337 117.486 268.3 117.507 268.26 117.52C268.22 117.532 268.178 117.536 268.137 117.531C267.734 117.527 267.335 117.62 266.972 117.803C266.608 117.987 266.289 118.256 266.04 118.591C266.011 118.629 265.974 118.66 265.933 118.682C265.891 118.703 265.845 118.714 265.798 118.714Z" fill="#263238"/>
    <path d="M296.262 152.921C296.961 154.066 297.543 155.078 298.135 156.175C298.726 157.273 299.291 158.332 299.846 159.429C300.939 161.615 301.97 163.847 302.91 166.127C304.884 170.794 306.365 175.677 307.328 180.686L307.417 181.168L307.462 181.405L307.525 181.802C307.601 182.331 307.64 182.866 307.641 183.401C307.632 184.297 307.542 185.191 307.373 186.069C307.069 187.517 306.631 188.93 306.064 190.288C305.058 192.666 303.859 194.948 302.48 197.109C299.874 201.216 296.91 205.058 293.628 208.584L289.73 205.282C291.899 201.29 294.058 197.146 295.868 193.088C296.758 191.147 297.518 189.143 298.144 187.09C298.399 186.234 298.573 185.353 298.663 184.461C298.695 184.168 298.695 183.873 298.663 183.581C298.663 183.496 298.663 183.42 298.61 183.41C298.556 183.401 298.61 183.41 298.61 183.363L298.556 183.174L298.448 182.786C297.882 180.699 297.209 178.647 296.432 176.637C295.644 174.584 294.766 172.541 293.843 170.507C292.92 168.473 291.926 166.468 290.904 164.462C290.402 163.459 289.874 162.466 289.345 161.482L287.768 158.644L296.262 152.921Z" fill="#E4897B"/>
    <path d="M275.663 387.86C275.216 387.907 274.768 387.776 274.409 387.491C274.307 387.372 274.236 387.229 274.202 387.073C274.167 386.918 274.171 386.755 274.212 386.602C274.231 386.498 274.275 386.402 274.34 386.321C274.404 386.24 274.486 386.177 274.579 386.138C275.394 385.798 277.267 387.16 277.482 387.311C277.509 387.329 277.529 387.355 277.54 387.385C277.552 387.416 277.553 387.45 277.545 387.482C277.54 387.513 277.527 387.543 277.506 387.567C277.485 387.59 277.458 387.607 277.428 387.614C276.85 387.761 276.258 387.843 275.663 387.86ZM274.884 386.413C274.821 386.402 274.758 386.402 274.695 386.413C274.65 386.43 274.61 386.46 274.58 386.5C274.55 386.541 274.531 386.589 274.525 386.64C274.493 386.739 274.485 386.845 274.504 386.948C274.523 387.051 274.568 387.147 274.633 387.226C274.937 387.548 275.806 387.586 276.998 387.34C276.365 386.876 275.643 386.563 274.884 386.422V386.413Z" fill="white"/>
    <path d="M277.393 387.623H277.312C276.649 387.207 275.663 385.731 275.816 384.975C275.842 384.836 275.912 384.711 276.015 384.62C276.117 384.529 276.246 384.477 276.38 384.473C276.498 384.457 276.618 384.469 276.731 384.508C276.845 384.548 276.948 384.613 277.034 384.7C277.706 385.391 277.554 387.406 277.554 387.491C277.551 387.519 277.541 387.546 277.525 387.569C277.509 387.592 277.488 387.611 277.464 387.623H277.393ZM276.497 384.785H276.425C276.201 384.785 276.147 384.927 276.129 385.022C276.031 385.523 276.685 386.63 277.258 387.141C277.341 386.374 277.19 385.598 276.828 384.927C276.783 384.881 276.73 384.845 276.671 384.82C276.613 384.796 276.55 384.784 276.488 384.785H276.497Z" fill="white"/>
    <path d="M292.024 383.887C291.858 383.892 291.693 383.86 291.54 383.792C291.422 383.742 291.317 383.663 291.235 383.561C291.152 383.458 291.094 383.337 291.065 383.206C291.043 383.126 291.04 383.042 291.057 382.96C291.074 382.879 291.111 382.804 291.164 382.742C291.764 381.976 294.909 382.203 295.268 382.231C295.301 382.232 295.333 382.245 295.359 382.267C295.385 382.29 295.403 382.32 295.411 382.354C295.418 382.388 295.415 382.424 295.402 382.456C295.389 382.488 295.367 382.516 295.339 382.534C294.339 383.23 293.208 383.692 292.024 383.887ZM293.924 382.506C292.822 382.506 291.666 382.619 291.406 382.95C291.391 382.976 291.383 383.005 291.383 383.035C291.383 383.066 291.391 383.095 291.406 383.121C291.421 383.202 291.455 383.279 291.505 383.343C291.555 383.408 291.62 383.458 291.693 383.49C292.194 383.707 293.323 383.348 294.748 382.544L293.924 382.506Z" fill="white"/>
    <path d="M295.259 382.562C294.363 382.562 292.347 381.834 292.194 381.077C292.194 380.888 292.194 380.623 292.624 380.406C294.166 379.639 295.357 382.212 295.411 382.298C295.422 382.324 295.427 382.353 295.427 382.383C295.427 382.412 295.422 382.441 295.411 382.468C295.396 382.497 295.374 382.521 295.347 382.538C295.321 382.554 295.29 382.563 295.259 382.562ZM293.189 380.604C293.037 380.602 292.887 380.638 292.75 380.708C292.562 380.803 292.472 380.907 292.49 381.002C292.58 381.446 294.031 382.07 294.981 382.203C294.694 381.692 294.004 380.604 293.189 380.604Z" fill="white"/>
    <path d="M291.504 203.75L284.928 202.529L288.324 210.617C288.324 210.617 294.354 210.617 294.085 207.288L291.504 203.75Z" fill="#E4897B"/>
    <path d="M279.955 206.597L283.064 213.124L288.288 210.617L284.892 202.529L279.955 206.597Z" fill="#E4897B"/>
    <path d="M298.753 367.672L288.834 377.53L285.636 373.907L296.988 362.99L298.753 367.672Z" fill="#648CF5"/>
    <path opacity="0.6" d="M298.753 367.672L288.834 377.53L285.636 373.907L296.988 362.99L298.753 367.672Z" fill="white"/>
    <path d="M287.75 377.577H274.606L273.88 372.696L288.387 373.462L287.75 377.577Z" fill="#648CF5"/>
    <path opacity="0.6" d="M287.75 377.577H274.606L273.88 372.696L288.387 373.462L287.75 377.577Z" fill="white"/>
    <path d="M294.542 148.087C300.814 149.033 307.238 172.04 307.238 172.04L293.798 179.91C293.798 179.91 288.342 168.975 285.734 160.858C283.001 152.353 287.831 147.046 294.542 148.087Z" fill="#648CF5"/>
    <path opacity="0.7" d="M294.542 148.087C300.814 149.033 307.238 172.04 307.238 172.04L293.798 179.91C293.798 179.91 288.342 168.975 285.734 160.858C283.001 152.353 287.831 147.046 294.542 148.087Z" fill="white"/>
    <path opacity="0.2" d="M271.99 150.745L269.302 153.763L270.619 156.677L272.76 156.781L274.588 153.999L271.99 150.745Z" fill="black"/>
    <path d="M270.852 156.156C270.852 156.156 265.754 178.453 265.556 183.089C265.279 189.465 267.805 200.353 267.805 200.353C267.805 200.353 271.389 191.3 272.124 182.89C272.859 174.48 272.312 160.877 272.644 156.156H270.852Z" fill="#648CF5"/>
    <path opacity="0.2" d="M270.852 156.156C270.852 156.156 265.754 178.453 265.556 183.089C265.279 189.465 267.805 200.353 267.805 200.353C267.805 200.353 271.389 191.3 272.124 182.89C272.859 174.48 272.312 160.877 272.644 156.156H270.852Z" fill="black"/>
    <path d="M271.99 150.745C273.011 152.49 273.602 154.477 273.71 156.525C273.71 156.525 284.892 152.363 284.363 146.261C284.363 146.261 282.778 145.268 281.774 144.464C281.774 144.464 281.398 148.304 271.99 150.745Z" fill="#648CF5"/>
    <path opacity="0.6" d="M271.99 150.745C273.011 152.49 273.602 154.477 273.71 156.525C273.71 156.525 284.892 152.363 284.363 146.261C284.363 146.261 282.778 145.268 281.774 144.464C281.774 144.464 281.398 148.304 271.99 150.745Z" fill="white"/>
    <path d="M271.99 150.745C270.962 152.397 270.222 154.23 269.803 156.156C269.803 156.156 264.741 152.543 266.264 146.517C267.192 146.122 268.148 145.806 269.122 145.571C269.122 145.571 268.459 149.468 271.99 150.745Z" fill="#648CF5"/>
    <path opacity="0.6" d="M271.99 150.745C270.962 152.397 270.222 154.23 269.803 156.156C269.803 156.156 264.741 152.543 266.264 146.517C267.192 146.122 268.148 145.806 269.122 145.571C269.122 145.571 268.459 149.468 271.99 150.745Z" fill="white"/>
</svg>
