<svg width="448" height="472" viewBox="0 0 448 472" fill="none" xmlns="http://www.w3.org/2000/svg">
    <path opacity="0.1" d="M135.883 102.446C167.178 105.033 198.472 93.1172 225.385 75.0056C347.05 -21.6534 511.713 103.657 367.327 224.48C296.108 287.693 223.053 286.043 150.426 274.448C2.90792 258.093 16.4149 141.411 39.0693 111.585C62.0729 82.4947 105.669 100.784 135.883 102.446Z" fill="#648CF5"/>
    <path opacity="0.1" d="M224 403.617C319.946 403.617 397.725 398.832 397.725 392.931C397.725 387.029 319.946 382.245 224 382.245C128.054 382.245 50.2744 387.029 50.2744 392.931C50.2744 398.832 128.054 403.617 224 403.617Z" fill="#648CF5"/>
    <path d="M199.477 180.833H179.693V392.931H199.477C212.695 392.931 225.784 390.188 237.996 384.858C250.208 379.529 261.305 371.717 270.652 361.87C279.998 352.022 287.413 340.331 292.471 327.465C297.53 314.598 300.133 300.808 300.133 286.882C300.133 272.955 297.53 259.165 292.471 246.299C287.413 233.432 279.998 221.741 270.652 211.894C261.305 202.046 250.208 194.235 237.996 188.905C225.784 183.576 212.695 180.833 199.477 180.833Z" fill="#648CF5"/>
    <path opacity="0.1" d="M199.477 180.833H179.693V392.931H199.477C212.695 392.931 225.784 390.188 237.996 384.858C250.208 379.529 261.305 371.717 270.652 361.87C279.998 352.022 287.413 340.331 292.471 327.465C297.53 314.598 300.133 300.808 300.133 286.882C300.133 272.955 297.53 259.165 292.471 246.299C287.413 233.432 279.998 221.741 270.652 211.894C261.305 202.046 250.208 194.235 237.996 188.905C225.784 183.576 212.695 180.833 199.477 180.833Z" fill="black"/>
    <path d="M133.97 189.744L133.567 188.904C140.564 185.231 147.934 182.41 155.537 180.493L155.743 181.437C148.211 183.33 140.906 186.117 133.97 189.744Z" fill="#648CF5"/>
    <path d="M122.34 196.909L121.847 196.126C123.774 194.766 125.763 193.445 127.761 192.227L128.209 193.039C126.229 194.256 124.257 195.559 122.34 196.909Z" fill="#648CF5"/>
    <path d="M250.868 361.869C290.177 320.454 290.177 253.308 250.868 211.893C211.559 170.478 147.827 170.478 108.518 211.893C69.2089 253.308 69.2089 320.454 108.518 361.869C147.827 403.284 211.559 403.284 250.868 361.869Z" fill="#648CF5"/>
    <path opacity="0.1" d="M241.114 229.657C225.484 215.058 205.155 207.295 184.276 207.953C163.398 208.611 143.545 217.64 128.772 233.197C113.998 248.754 105.417 269.665 104.781 291.661C104.146 313.658 111.503 335.08 125.351 351.555C116.983 343.739 110.221 334.203 105.481 323.532C100.741 312.86 98.1239 301.28 97.7896 289.504C97.4552 277.727 99.4112 266.003 103.537 255.053C107.663 244.102 113.872 234.157 121.781 225.828C129.691 217.499 139.134 210.963 149.53 206.622C159.926 202.281 171.055 200.227 182.232 200.585C193.41 200.944 204.4 203.708 214.526 208.708C224.652 213.707 233.7 220.836 241.114 229.657Z" fill="black"/>
    <path opacity="0.1" d="M219.466 294.613C216.904 291.265 212.908 288.902 207.478 287.524C210.588 286.531 213.397 284.695 215.623 282.199C218.405 278.855 219.898 274.534 219.807 270.088C219.858 267.423 219.361 264.778 218.352 262.334C217.342 259.89 215.842 257.704 213.956 255.928C210.049 252.152 204.455 250.264 197.174 250.264H192.694V236.887H184.218V250.264H173.708V236.887H165.24V250.264H146.828V266.397H153.449V313.757H146.828V329.89H165.24V343.267H173.708V329.89H184.218V343.267H192.694V329.89H193.769C197.273 329.719 200.766 329.357 204.234 328.805C208.189 328.27 211.146 327.401 213.105 326.199C216.21 324.339 218.789 321.641 220.577 318.383C222.404 314.99 223.332 311.143 223.265 307.244C223.295 302.178 222.029 297.967 219.466 294.613ZM177.014 266.397H187.327C190.869 266.397 193.351 267.048 194.773 268.351C195.492 269.031 196.058 269.873 196.428 270.814C196.799 271.755 196.965 272.771 196.914 273.788C196.979 274.851 196.82 275.915 196.45 276.905C196.08 277.896 195.507 278.788 194.773 279.518C193.351 280.84 190.815 281.501 187.166 281.501H177.014V266.397ZM197.425 310.576C195.776 312.08 192.942 312.832 188.922 312.832H177.014V296.652H188.868C192.966 296.652 195.827 297.366 197.452 298.795C198.246 299.478 198.88 300.343 199.306 301.326C199.731 302.308 199.937 303.38 199.907 304.459C199.964 305.611 199.77 306.761 199.339 307.821C198.909 308.881 198.254 309.824 197.425 310.576Z" fill="black"/>
    <path d="M216.635 294.613C214.072 291.265 210.076 288.902 204.646 287.524C207.758 286.528 210.569 284.693 212.8 282.199C215.576 278.852 217.065 274.532 216.975 270.088C217.026 267.423 216.53 264.778 215.52 262.334C214.51 259.89 213.011 257.704 211.124 255.928C207.218 252.152 201.624 250.264 194.342 250.264H189.862V236.887H181.395V250.264H170.876V236.887H162.409V250.264H143.996V266.397H150.618V313.757H143.996V329.89H162.409V343.267H170.876V329.89H181.395V343.267H189.862V329.89H190.938C194.441 329.719 197.935 329.357 201.403 328.805C205.351 328.27 208.308 327.401 210.273 326.199C213.38 324.341 215.96 321.643 217.746 318.383C219.572 314.99 220.5 311.143 220.434 307.244C220.464 302.178 219.197 297.967 216.635 294.613ZM174.182 266.397H184.495C188.037 266.397 190.519 267.048 191.941 268.351C192.661 269.031 193.226 269.873 193.597 270.814C193.967 271.755 194.133 272.771 194.082 273.788C194.147 274.851 193.989 275.915 193.619 276.905C193.249 277.896 192.676 278.788 191.941 279.518C190.513 280.84 187.978 281.501 184.334 281.501H174.182V266.397ZM194.593 310.576C192.945 312.08 190.11 312.832 186.09 312.832H174.182V296.652H186.036C190.128 296.652 192.989 297.366 194.62 298.795C195.416 299.476 196.051 300.342 196.477 301.324C196.903 302.307 197.107 303.379 197.075 304.459C197.132 305.611 196.938 306.761 196.508 307.821C196.078 308.881 195.423 309.824 194.593 310.576Z" fill="white"/>
    <path d="M276.031 134.916C280.875 134.916 284.802 130.842 284.802 125.816C284.802 120.79 280.875 116.716 276.031 116.716C271.186 116.716 267.259 120.79 267.259 125.816C267.259 130.842 271.186 134.916 276.031 134.916Z" fill="#263238"/>
    <path d="M283.808 133.463C283.82 134.483 283.545 135.484 283.016 136.339C282.487 137.193 281.728 137.863 280.837 138.263C279.946 138.662 278.962 138.774 278.011 138.583C277.06 138.392 276.184 137.907 275.495 137.19C274.805 136.473 274.334 135.557 274.141 134.557C273.947 133.557 274.04 132.519 274.408 131.575C274.775 130.632 275.401 129.824 276.205 129.256C277.01 128.687 277.956 128.384 278.925 128.384C279.562 128.379 280.194 128.506 280.785 128.759C281.375 129.012 281.912 129.385 282.366 129.856C282.82 130.328 283.18 130.889 283.428 131.508C283.675 132.127 283.804 132.791 283.808 133.463Z" fill="#263238"/>
    <path d="M288.091 133.227C292.935 133.227 296.863 129.152 296.863 124.127C296.863 119.101 292.935 115.026 288.091 115.026C283.246 115.026 279.319 119.101 279.319 124.127C279.319 129.152 283.246 133.227 288.091 133.227Z" fill="#263238"/>
    <path d="M289.381 385.161L296.576 385.048L298.646 367.471L291.451 367.584L289.381 385.161Z" fill="#FF8B7B"/>
    <path d="M333.177 384.755L339.682 380.753L334.468 364.544L327.972 368.547L333.177 384.755Z" fill="#FF8B7B"/>
    <path d="M340.381 380.215L332.756 384.774C332.631 384.846 332.534 384.962 332.482 385.102C332.429 385.242 332.425 385.396 332.47 385.539L334.387 392.147C334.435 392.306 334.517 392.452 334.626 392.573C334.734 392.695 334.868 392.789 335.016 392.848C335.164 392.908 335.322 392.932 335.48 392.919C335.638 392.905 335.791 392.854 335.928 392.77C338.356 391.26 340.068 390.042 343.159 388.192C345.058 387.059 350.909 383.84 353.535 382.263C356.16 380.687 355.031 377.76 353.821 378.147C348.401 379.922 343.965 380.564 341.618 380.035C341.199 379.937 340.76 380.001 340.381 380.215Z" fill="#263238"/>
    <path d="M296.719 384.208L288.861 384.34C288.72 384.341 288.583 384.394 288.474 384.488C288.365 384.583 288.29 384.714 288.261 384.859L286.944 391.618C286.91 391.781 286.911 391.95 286.949 392.113C286.986 392.275 287.058 392.426 287.159 392.554C287.26 392.683 287.388 392.785 287.532 392.854C287.677 392.922 287.834 392.955 287.992 392.949C290.824 392.855 294.918 392.61 298.475 392.553C302.642 392.487 306.244 392.666 311.127 392.553C314.075 392.506 314.845 389.353 313.609 389.089C307.964 387.88 303.368 387.814 298.458 384.737C297.935 384.396 297.334 384.213 296.719 384.208Z" fill="#263238"/>
    <path d="M307.686 154.674C308.69 156.893 309.774 159.29 310.876 161.566C311.978 163.841 313.107 166.172 314.272 168.419C316.508 172.862 319.016 177.148 321.781 181.248L322.291 181.994C322.372 182.107 322.372 182.116 322.363 182.135C322.139 182.025 321.9 181.952 321.655 181.918C321.261 181.871 320.974 182.013 321.01 182.05C321.201 182.016 321.382 181.935 321.539 181.814C322.283 181.273 322.963 180.639 323.564 179.926C324.316 179.066 325.022 178.161 325.678 177.217C327.085 175.272 328.366 173.12 329.683 170.93C331 168.74 332.219 166.455 333.411 164.237L338.446 166.304C337.087 171.717 335.148 176.949 332.667 181.899C331.98 183.2 331.226 184.461 330.409 185.675C329.476 187.078 328.374 188.348 327.13 189.451C326.304 190.179 325.38 190.774 324.388 191.217C323.012 191.831 321.504 192.04 320.024 191.821C318.527 191.557 317.124 190.872 315.966 189.838C315.523 189.441 315.106 189.012 314.72 188.554L314.057 187.724C312.286 185.575 310.638 183.318 309.12 180.965C307.588 178.671 306.208 176.311 304.864 173.941C303.52 171.572 302.275 169.155 301.083 166.71C299.891 164.265 298.771 161.849 297.705 159.158L307.686 154.674Z" fill="#FF8B7B"/>
    <path d="M294.784 154.627C292.849 161.575 306.504 180.521 306.504 180.521L320.266 171.194C317.671 165.187 314.472 159.491 310.724 154.202C305.043 146.584 296.872 147 294.784 154.627Z" fill="#648CF5"/>
    <path opacity="0.2" d="M303.134 162.783C305.966 164.058 310.132 171.279 312.3 176.566L306.432 180.521C303.168 175.924 300.233 171.077 297.651 166.021C299.524 163.888 301.638 162.113 303.134 162.783Z" fill="black"/>
    <path d="M333.482 167.173L331.69 158.63L339.87 158.564C339.87 158.564 342.057 164.983 337.666 168.004L333.482 167.173Z" fill="#FF8B7B"/>
    <path d="M332.649 150.625L339.207 153.107L339.897 158.564L331.717 158.63L332.649 150.625Z" fill="#FF8B7B"/>
    <path opacity="0.2" d="M298.646 367.471L297.579 376.533L290.375 376.656L291.451 367.593L298.646 367.471Z" fill="black"/>
    <path opacity="0.2" d="M327.972 368.547L334.477 364.554L337.156 372.908L330.651 376.901L327.972 368.547Z" fill="black"/>
    <path d="M262.68 151.55C270.431 180.332 268.872 210.88 269.57 217.063C275.188 216.639 296.379 214.968 307.928 214.061C311.611 170.76 302.893 148.774 302.893 148.774C302.893 148.774 300.429 148.274 297.069 147.906C296.02 147.793 294.882 147.698 293.7 147.632C293.046 147.632 292.383 147.566 291.711 147.557C286.256 147.655 280.812 148.08 275.403 148.831C274.382 148.963 273.343 149.133 272.33 149.303C271.318 149.473 270.484 149.652 269.642 149.832C265.709 150.653 262.68 151.55 262.68 151.55Z" fill="#648CF5"/>
    <path opacity="0.1" d="M289.964 177.717L283.916 180.833L277.321 178.255L276.237 167.069L288.888 166.531L289.964 177.717Z" fill="white"/>
    <path opacity="0.2" d="M270.87 163.897C271.56 166.682 270.771 179.388 268.011 182.522C267.635 178.454 267.115 174.206 266.47 169.863L270.87 163.897Z" fill="black"/>
    <path d="M275.654 129.328C277.079 134.775 278.817 144.828 275.403 148.803C278.468 151.569 282.437 154.722 288.691 154.467C294.945 154.212 293.529 149.747 291.711 147.528C285.761 146.509 285.582 141.921 286.335 137.55L275.654 129.328Z" fill="#FF8B7B"/>
    <path d="M275.404 147.547C275.404 147.547 277.034 151.616 290.071 154.353C287.912 156.024 286.926 160.112 286.926 160.112C286.926 160.112 269.902 157.1 270.422 149.114C271.309 148.359 275.404 147.547 275.404 147.547Z" fill="white"/>
    <path d="M295.68 158.592C294.096 156.8 292.193 155.354 290.08 154.335C290.956 153.398 291.551 152.209 291.79 150.918C292.029 149.627 291.902 148.29 291.424 147.075C292.731 147.03 294.04 147.087 295.34 147.245C295.34 147.245 301.397 152.211 295.68 158.592Z" fill="white"/>
    <path opacity="0.4" d="M290.707 160.102C290.824 160.933 291.263 161.547 291.693 161.481C292.123 161.414 292.365 160.688 292.248 159.857C292.132 159.026 291.693 158.403 291.272 158.469C290.85 158.535 290.591 159.262 290.707 160.102Z" fill="#263238"/>
    <path opacity="0.2" d="M280 132.717L286.272 137.578C286.089 138.596 285.993 139.629 285.985 140.665C283.727 140.495 280.475 138.154 280.063 135.709C279.868 134.724 279.847 133.71 280 132.717Z" fill="black"/>
    <path d="M282.921 122.56C288.434 122.56 292.902 117.923 292.902 112.204C292.902 106.485 288.434 101.848 282.921 101.848C277.408 101.848 272.939 106.485 272.939 112.204C272.939 117.923 277.408 122.56 282.921 122.56Z" fill="#263238"/>
    <path d="M292.239 113.535C292.211 113.524 292.188 113.502 292.175 113.474C292.162 113.446 292.159 113.414 292.168 113.384C292.511 112.085 292.604 110.727 292.443 109.39C292.281 108.053 291.868 106.763 291.227 105.596C289.926 103.212 287.785 101.465 285.269 100.734C285.24 100.727 285.215 100.708 285.2 100.681C285.185 100.654 285.181 100.623 285.188 100.593C285.195 100.563 285.213 100.537 285.238 100.521C285.264 100.505 285.294 100.5 285.322 100.508C286.598 100.872 287.793 101.498 288.838 102.351C289.884 103.203 290.76 104.264 291.415 105.473C292.072 106.668 292.495 107.989 292.662 109.359C292.828 110.728 292.733 112.119 292.383 113.45C292.373 113.48 292.352 113.505 292.326 113.521C292.3 113.536 292.269 113.541 292.239 113.535Z" fill="#263238"/>
    <path d="M291.137 124.693C295.304 124.693 298.681 121.189 298.681 116.867C298.681 112.545 295.304 109.042 291.137 109.042C286.97 109.042 283.593 112.545 283.593 116.867C283.593 121.189 286.97 124.693 291.137 124.693Z" fill="#263238"/>
    <path d="M273.835 126.288C278.68 126.288 282.607 122.214 282.607 117.188C282.607 112.162 278.68 108.088 273.835 108.088C268.991 108.088 265.063 112.162 265.063 117.188C265.063 122.214 268.991 126.288 273.835 126.288Z" fill="#263238"/>
    <path d="M274.445 121.087C275.413 128.535 275.619 132.953 279.471 136.512C285.278 141.864 293.807 137.749 294.972 130.149C296.029 123.305 294.273 112.27 287.105 109.834C285.528 109.289 283.845 109.177 282.215 109.51C280.585 109.844 279.064 110.611 277.795 111.738C276.526 112.866 275.552 114.317 274.965 115.954C274.379 117.59 274.2 119.357 274.445 121.087Z" fill="#FF8B7B"/>
    <path d="M270.431 117.377C271.165 127.855 293.135 113.195 288.458 107.606C283.781 102.018 276.604 105.964 274.015 108.484C270.78 111.628 270.251 114.809 270.431 117.377Z" fill="#263238"/>
    <path d="M287.535 108.041C291.585 106.738 298.502 114.347 292.302 113.582C286.102 112.817 282.786 109.58 287.535 108.041Z" fill="#263238"/>
    <path d="M271.819 129.592C272.346 130.348 273.008 130.988 273.769 131.474C274.53 131.96 275.375 132.283 276.255 132.424C278.611 132.783 279.48 130.48 278.566 128.308C277.751 126.354 275.529 123.815 273.289 124.457C271.049 125.099 270.529 127.714 271.819 129.592Z" fill="#FF8B7B"/>
    <path d="M300.249 374.768L288.073 374.966C288.073 374.966 295.106 324.283 294.013 300.702C293.682 293.527 294.766 283.493 292.974 272.74C290.698 259.185 289.605 253.785 286.702 236.661C284.605 224.445 282.75 216.072 282.75 216.072L307.964 214.09C307.964 214.09 316.198 275.176 315.956 298.294C315.67 322.31 300.249 374.768 300.249 374.768Z" fill="#263238"/>
    <path d="M273.405 118.397C277.473 119.633 279.337 129.989 274.525 125.779C269.714 121.568 268.639 116.952 273.405 118.397Z" fill="#263238"/>
    <path opacity="0.2" d="M292.992 272.712C293.848 278.329 294.202 284.018 294.049 289.704C296.146 295.944 297.973 301.853 299.246 307.111C301.477 316.315 305.007 330.268 308.448 343.682C312.184 327.974 315.822 309.821 315.938 298.247L292.992 272.712Z" fill="black"/>
    <path d="M294.327 215.128C294.327 215.128 312.444 263.367 319.307 284.352C326.834 307.338 338.974 369.387 338.974 369.387L327.524 376.241C327.524 376.241 309.666 325.085 302.274 302.694C293.852 277.206 270.654 236.887 269.57 217.073L294.327 215.128Z" fill="#263238"/>
    <path d="M340.489 368.83L326.995 376.892L324.71 372.644L339.647 363.365L340.489 368.83Z" fill="#648CF5"/>
    <path d="M301.782 375.013L287.275 375.249L287.204 370.312L303.412 369.784L301.782 375.013Z" fill="#648CF5"/>
    <path d="M283.915 122.333C283.96 122.946 284.301 123.418 284.677 123.381C285.053 123.343 285.322 122.833 285.286 122.229C285.25 121.625 284.901 121.153 284.525 121.181C284.148 121.209 283.871 121.776 283.915 122.333Z" fill="#263238"/>
    <path d="M291.908 121.823C291.908 122.437 292.293 122.899 292.669 122.871C293.046 122.843 293.323 122.324 293.278 121.719C293.234 121.115 292.893 120.634 292.517 120.662C292.141 120.69 291.863 121.21 291.908 121.823Z" fill="#263238"/>
    <path d="M289.847 122.286C290.67 124.096 291.726 125.78 292.983 127.289C292.613 127.612 292.181 127.847 291.717 127.977C291.253 128.107 290.768 128.13 290.295 128.044L289.847 122.286Z" fill="#FF5652"/>
    <path d="M287.93 129.866C287.279 129.839 286.641 129.671 286.055 129.372C285.469 129.073 284.948 128.65 284.525 128.129C284.509 128.111 284.496 128.089 284.488 128.065C284.48 128.042 284.477 128.017 284.479 127.992C284.481 127.967 284.488 127.942 284.499 127.92C284.511 127.898 284.526 127.879 284.545 127.864C284.564 127.848 284.586 127.837 284.609 127.832C284.632 127.826 284.656 127.825 284.68 127.83C284.703 127.834 284.725 127.844 284.745 127.858C284.765 127.872 284.781 127.891 284.794 127.912C285.275 128.479 285.876 128.919 286.549 129.196C287.221 129.473 287.946 129.58 288.664 129.507C288.686 129.505 288.708 129.507 288.73 129.514C288.751 129.52 288.77 129.532 288.787 129.547C288.804 129.562 288.817 129.58 288.827 129.601C288.837 129.622 288.843 129.645 288.844 129.668C288.846 129.691 288.844 129.715 288.838 129.738C288.831 129.761 288.821 129.782 288.807 129.8C288.793 129.819 288.775 129.834 288.755 129.845C288.735 129.857 288.714 129.864 288.691 129.866C288.438 129.885 288.183 129.885 287.93 129.866Z" fill="#263238"/>
    <path d="M282.697 120.266C282.639 120.264 282.583 120.245 282.535 120.209C282.498 120.184 282.465 120.151 282.44 120.113C282.415 120.075 282.397 120.031 282.388 119.985C282.378 119.94 282.378 119.892 282.386 119.846C282.395 119.8 282.412 119.757 282.437 119.718C282.721 119.227 283.114 118.816 283.583 118.52C284.051 118.224 284.58 118.052 285.125 118.019C285.215 118.019 285.302 118.057 285.366 118.124C285.43 118.191 285.465 118.282 285.465 118.378C285.465 118.473 285.43 118.564 285.366 118.631C285.302 118.698 285.215 118.736 285.125 118.736C284.699 118.773 284.287 118.916 283.924 119.154C283.561 119.392 283.257 119.718 283.037 120.105C283.001 120.164 282.95 120.21 282.89 120.239C282.829 120.267 282.762 120.277 282.697 120.266Z" fill="#263238"/>
    <path d="M294.56 118.047C294.503 118.047 294.446 118.03 294.397 117.998C294.348 117.967 294.309 117.922 294.282 117.868C294.078 117.471 293.787 117.131 293.434 116.876C293.08 116.622 292.673 116.46 292.248 116.405C292.204 116.402 292.16 116.39 292.121 116.37C292.081 116.35 292.045 116.321 292.016 116.286C291.986 116.251 291.964 116.209 291.95 116.165C291.936 116.121 291.931 116.074 291.935 116.027C291.939 115.934 291.979 115.846 292.044 115.782C292.109 115.719 292.195 115.685 292.284 115.687C292.822 115.751 293.338 115.95 293.789 116.267C294.239 116.584 294.611 117.01 294.874 117.509C294.917 117.592 294.928 117.69 294.904 117.781C294.881 117.872 294.825 117.951 294.748 118C294.692 118.037 294.626 118.054 294.56 118.047Z" fill="#263238"/>
    <path d="M343.069 380.13C342.501 380.448 341.9 380.695 341.277 380.866C341.245 380.876 341.211 380.876 341.18 380.866C341.148 380.856 341.119 380.836 341.098 380.81C341.081 380.78 341.071 380.745 341.071 380.71C341.071 380.675 341.081 380.641 341.098 380.611C341.25 380.328 342.567 377.779 343.454 377.779C343.554 377.778 343.652 377.805 343.738 377.856C343.825 377.907 343.897 377.982 343.947 378.072C344.048 378.215 344.113 378.383 344.136 378.559C344.16 378.735 344.141 378.915 344.082 379.082C343.865 379.541 343.509 379.91 343.069 380.13ZM341.618 380.394C342.8 379.979 343.598 379.45 343.777 378.95C343.816 378.835 343.827 378.711 343.808 378.591C343.789 378.47 343.742 378.356 343.669 378.261C343.598 378.148 343.535 378.129 343.481 378.129C343.015 378.157 342.173 379.403 341.618 380.432V380.394Z" fill="#648CF5"/>
    <path d="M341.376 380.857H341.286C341.256 380.855 341.226 380.844 341.201 380.825C341.176 380.807 341.156 380.782 341.143 380.753C341.143 380.668 340.247 378.676 340.623 377.619C340.665 377.489 340.733 377.37 340.823 377.27C340.912 377.171 341.022 377.093 341.143 377.043C341.254 376.977 341.383 376.953 341.508 376.975C341.634 376.998 341.748 377.065 341.833 377.166C342.361 377.826 341.886 379.998 341.438 380.772C341.428 380.807 341.406 380.837 341.376 380.857ZM341.205 377.43C341.142 377.465 341.085 377.513 341.039 377.572C340.993 377.63 340.958 377.697 340.937 377.77C340.817 378.625 340.948 379.497 341.313 380.271C341.68 379.375 341.886 377.808 341.573 377.439C341.573 377.439 341.483 377.317 341.277 377.439L341.205 377.43Z" fill="#648CF5"/>
    <path d="M297.472 385.209C297.441 385.197 297.414 385.177 297.394 385.15C297.373 385.123 297.36 385.091 297.356 385.058C297.349 385.021 297.354 384.984 297.37 384.951C297.386 384.918 297.413 384.893 297.445 384.878C297.768 384.689 300.635 383.103 301.513 383.594C301.596 383.642 301.665 383.712 301.716 383.796C301.766 383.88 301.795 383.976 301.8 384.076C301.821 384.237 301.804 384.401 301.751 384.554C301.698 384.707 301.61 384.845 301.495 384.954C300.716 385.699 298.655 385.435 297.49 385.209H297.472ZM301.289 383.887C300.742 383.698 299.192 384.35 298.054 384.944C299.649 385.199 300.832 385.105 301.271 384.689C301.346 384.616 301.402 384.524 301.435 384.422C301.468 384.32 301.476 384.21 301.459 384.104C301.462 384.065 301.454 384.025 301.434 383.991C301.415 383.958 301.386 383.931 301.352 383.915L301.289 383.887Z" fill="#648CF5"/>
    <path d="M297.472 385.209H297.427C297.402 385.192 297.381 385.168 297.368 385.14C297.356 385.111 297.351 385.079 297.356 385.048C297.356 384.963 297.526 382.915 298.422 382.112C298.549 381.993 298.698 381.903 298.86 381.848C299.022 381.792 299.193 381.773 299.363 381.791C299.837 381.791 299.972 382.075 300.008 382.282C300.151 383.132 298.458 384.803 297.598 385.227C297.555 385.235 297.511 385.229 297.472 385.209ZM299.515 382.15H299.336C299.211 382.138 299.085 382.153 298.966 382.196C298.847 382.238 298.738 382.306 298.646 382.395C298.125 383.063 297.812 383.884 297.75 384.746C298.646 384.17 299.775 382.858 299.694 382.348C299.688 382.295 299.664 382.245 299.626 382.209C299.588 382.173 299.539 382.152 299.488 382.15H299.515Z" fill="#648CF5"/>
    <path d="M270.592 161.424C268.567 165.823 266.524 170.345 264.544 174.819C263.549 177.066 262.564 179.303 261.632 181.55C260.7 183.797 259.768 186.044 258.89 188.29C258.478 189.414 257.994 190.537 257.645 191.641L257.071 193.293C256.997 193.436 256.94 193.589 256.901 193.747C256.809 194.222 256.856 194.716 257.035 195.163C257.322 195.942 257.705 196.678 258.173 197.353C260.36 200.524 264.168 203.621 267.778 206.273L265.619 211.456C264.372 211.076 263.146 210.625 261.946 210.106C260.747 209.599 259.574 209.026 258.433 208.388C255.976 207.079 253.715 205.396 251.722 203.394C250.564 202.219 249.577 200.87 248.792 199.392C247.84 197.595 247.325 195.578 247.296 193.52C247.282 192.417 247.415 191.318 247.69 190.254L248.219 188.309C248.559 187.016 248.953 185.789 249.33 184.533C250.925 179.577 252.717 174.791 254.643 170.08C256.57 165.37 258.639 160.792 260.915 156.185L270.592 161.424Z" fill="#FF8B7B"/>
    <path d="M262.689 151.55C256.122 153.721 249.67 177.161 249.67 177.161L264.849 184.156C264.849 184.156 269.768 172.828 272.59 163.954C275.663 154.278 270.637 148.925 262.689 151.55Z" fill="#648CF5"/>
    <path d="M265.216 205.641L272.491 206.396L269.535 214.892C269.535 214.892 262.994 213.363 263.074 209.606L265.216 205.641Z" fill="#FF8B7B"/>
    <path d="M278.764 210.21L274.92 217.233L269.481 214.93L272.447 206.396L278.764 210.21Z" fill="#FF8B7B"/>
    <path d="M284.489 126.052C283.507 126.06 282.546 125.76 281.726 125.191C280.907 124.622 280.266 123.809 279.886 122.856C279.505 121.903 279.402 120.852 279.589 119.837C279.776 118.822 280.245 117.888 280.937 117.154C281.628 116.42 282.511 115.919 283.473 115.715C284.435 115.51 285.433 115.612 286.341 116.006C287.248 116.4 288.024 117.069 288.57 117.928C289.116 118.787 289.408 119.798 289.408 120.832C289.406 122.209 288.888 123.53 287.967 124.507C287.046 125.485 285.796 126.04 284.489 126.052ZM284.489 116.084C283.603 116.084 282.737 116.361 282 116.879C281.263 117.398 280.689 118.135 280.35 118.997C280.011 119.86 279.922 120.809 280.095 121.725C280.268 122.64 280.694 123.481 281.321 124.141C281.947 124.801 282.746 125.251 283.615 125.433C284.484 125.615 285.385 125.522 286.203 125.164C287.022 124.807 287.721 124.202 288.214 123.426C288.706 122.65 288.969 121.737 288.969 120.804C288.962 119.557 288.487 118.363 287.647 117.484C286.808 116.605 285.672 116.112 284.489 116.112V116.084Z" fill="white"/>
    <path d="M295.259 126.052C294.279 126.052 293.321 125.746 292.506 125.172C291.691 124.599 291.056 123.784 290.681 122.83C290.306 121.876 290.208 120.826 290.399 119.813C290.59 118.801 291.062 117.871 291.755 117.141C292.448 116.41 293.331 115.913 294.292 115.712C295.253 115.51 296.249 115.614 297.155 116.009C298.06 116.404 298.834 117.073 299.378 117.932C299.923 118.79 300.213 119.799 300.213 120.832C300.211 122.216 299.688 123.542 298.76 124.52C297.831 125.499 296.572 126.05 295.259 126.052ZM295.259 116.084C294.373 116.084 293.506 116.36 292.77 116.879C292.033 117.398 291.459 118.135 291.12 118.997C290.781 119.86 290.692 120.809 290.865 121.724C291.038 122.64 291.464 123.481 292.091 124.141C292.717 124.801 293.516 125.251 294.385 125.433C295.254 125.615 296.154 125.522 296.973 125.164C297.792 124.807 298.491 124.202 298.984 123.426C299.476 122.65 299.739 121.737 299.739 120.804C299.731 119.557 299.256 118.363 298.417 117.484C297.578 116.605 296.442 116.112 295.259 116.112V116.084Z" fill="white"/>
</svg>
