<svg viewBox="0 0 32 32" fill="none" xmlns="http://www.w3.org/2000/svg">
    <path d="M16 5.3335C13.1031 5.3335 12.7399 5.34577 11.6021 5.39769C10.4668 5.44947 9.6914 5.6298 9.01292 5.8935C8.3115 6.16606 7.71664 6.53078 7.12361 7.12378C6.53062 7.71681 6.16589 8.31166 5.89334 9.01309C5.62963 9.69157 5.4493 10.467 5.39752 11.6023C5.34561 12.74 5.33333 13.1033 5.33333 16.0002C5.33333 18.8971 5.34561 19.2603 5.39752 20.398C5.4493 21.5334 5.62963 22.3088 5.89334 22.9872C6.16589 23.6887 6.53062 24.2835 7.12361 24.8766C7.71664 25.4695 8.3115 25.8343 9.01292 26.1069C9.6914 26.3705 10.4668 26.5509 11.6021 26.6026C12.7399 26.6545 13.1031 26.6668 16 26.6668C18.8969 26.6668 19.2601 26.6545 20.3978 26.6026C21.5332 26.5509 22.3086 26.3705 22.9871 26.1069C23.6885 25.8343 24.2833 25.4695 24.8764 24.8766C25.4694 24.2835 25.8341 23.6887 26.1067 22.9872C26.3704 22.3088 26.5507 21.5334 26.6025 20.398C26.6544 19.2603 26.6667 18.8971 26.6667 16.0002C26.6667 13.1033 26.6544 12.74 26.6025 11.6023C26.5507 10.467 26.3704 9.69157 26.1067 9.01309C25.8341 8.31166 25.4694 7.71681 24.8764 7.12378C24.2833 6.53078 23.6885 6.16606 22.9871 5.8935C22.3086 5.6298 21.5332 5.44947 20.3978 5.39769C19.2601 5.34577 18.8969 5.3335 16 5.3335ZM16 7.25541C18.8481 7.25541 19.1855 7.2663 20.3102 7.31761C21.3502 7.36504 21.915 7.53881 22.2909 7.68488C22.7888 7.87838 23.1441 8.10952 23.5173 8.48281C23.8906 8.85605 24.1218 9.21138 24.3153 9.70927C24.4614 10.0851 24.6351 10.6499 24.6825 11.6899C24.7339 12.8147 24.7447 13.152 24.7447 16.0002C24.7447 18.8483 24.7339 19.1857 24.6825 20.3104C24.6351 21.3504 24.4614 21.9152 24.3153 22.2911C24.1218 22.7889 23.8906 23.1443 23.5173 23.5175C23.1441 23.8908 22.7888 24.1219 22.2909 24.3154C21.915 24.4615 21.3502 24.6353 20.3102 24.6827C19.1857 24.734 18.8483 24.7449 16 24.7449C13.1517 24.7449 12.8144 24.734 11.6897 24.6827C10.6498 24.6353 10.085 24.4615 9.7091 24.3154C9.21121 24.1219 8.85588 23.8908 8.48264 23.5175C8.1094 23.1443 7.87822 22.7889 7.68472 22.2911C7.53864 21.9152 7.36487 21.3504 7.31745 20.3104C7.26613 19.1857 7.25525 18.8483 7.25525 16.0002C7.25525 13.152 7.26613 12.8147 7.31745 11.6899C7.36487 10.6499 7.53864 10.0851 7.68472 9.70927C7.87822 9.21138 8.10936 8.85605 8.48264 8.48281C8.85588 8.10952 9.21121 7.87838 9.7091 7.68488C10.085 7.53881 10.6498 7.36504 11.6897 7.31761C12.8145 7.2663 13.1519 7.25541 16 7.25541ZM16 10.5227C12.9748 10.5227 10.5225 12.975 10.5225 16.0002C10.5225 19.0253 12.9748 21.4776 16 21.4776C19.0251 21.4776 21.4775 19.0253 21.4775 16.0002C21.4775 12.975 19.0251 10.5227 16 10.5227ZM16 19.5557C14.0363 19.5557 12.4444 17.9639 12.4444 16.0002C12.4444 14.0365 14.0363 12.4446 16 12.4446C17.9637 12.4446 19.5555 14.0365 19.5555 16.0002C19.5555 17.9639 17.9637 19.5557 16 19.5557ZM22.9739 10.3063C22.9739 11.0132 22.4008 11.5863 21.6939 11.5863C20.987 11.5863 20.4139 11.0132 20.4139 10.3063C20.4139 9.59935 20.987 9.02626 21.6939 9.02626C22.4008 9.02626 22.9739 9.59935 22.9739 10.3063Z" fill="currentColor"/>
</svg>
