<svg viewBox="0 0 32 32" fill="none" xmlns="http://www.w3.org/2000/svg">
    <path d="M26.6667 24.7274H21.9517V17.9097C21.9517 16.1252 21.2142 14.9069 19.5924 14.9069C18.3518 14.9069 17.662 15.729 17.3409 16.5213C17.2205 16.8057 17.2393 17.2018 17.2393 17.598V24.7274H12.5682C12.5682 24.7274 12.6284 12.6505 12.5682 11.5527H17.2393V13.6203C17.5152 12.7163 19.0078 11.426 21.3898 11.426C24.3449 11.426 26.6667 13.3211 26.6667 17.4018V24.7274ZM7.84448 9.90474H7.81437C6.3092 9.90474 5.33334 8.8976 5.33334 7.62098C5.33334 6.31952 6.33805 5.3335 7.87332 5.3335C9.40735 5.3335 10.3506 6.31704 10.3807 7.61725C10.3807 8.89387 9.40735 9.90474 7.84448 9.90474ZM5.87144 11.5527H10.0295V24.7274H5.87144V11.5527Z" fill="currentColor"/>
</svg>
