<svg viewBox="0 0 32 32" fill="none" xmlns="http://www.w3.org/2000/svg">
    <path d="M26.433 9.92778C26.4636 9.95175 26.4737 9.9941 26.4525 10.0285L20.0674 20.3264L15.4769 12.9228L19.1348 7.02301C19.266 6.81168 19.5081 6.69043 19.7514 6.69043C19.8102 6.69043 19.8688 6.69942 19.9261 6.714C19.9718 6.72559 20.0169 6.73997 20.0598 6.76134L26.4135 9.9144L26.4207 9.918C26.4258 9.92039 26.429 9.92459 26.433 9.92778ZM13.4621 11.5789L19.4765 21.2794L13.4621 18.2947V11.5789ZM20.3802 21.7278L26.4974 11.8618V23.6848C26.4974 24.2804 25.9751 24.5044 25.3309 24.1846L20.3802 21.7278ZM12.418 9.93737C12.4412 9.94876 12.4558 9.97233 12.4558 9.9979V23.6848C12.4558 24.1226 12.2176 24.3835 11.8778 24.3835C11.7573 24.3835 11.6238 24.3506 11.4838 24.281L6.01821 21.5688C5.69741 21.4096 5.43497 20.9882 5.43497 20.6322V7.33482C5.43497 6.98466 5.62556 6.77592 5.89726 6.77592C5.99386 6.77592 6.10053 6.80229 6.21263 6.85782L12.418 9.93737Z" fill="currentColor"/>
</svg>
