<svg width="64" height="64" fill="none" xmlns="http://www.w3.org/2000/svg"><g filter="url(#filter0_d)"><path d="M32 48c8.837 0 16-7.163 16-16s-7.163-16-16-16-16 7.163-16 16 7.163 16 16 16z" fill="url(#paint0_linear)"/></g><path d="M21.276 32.043c1.87-1.03 3.958-1.89 5.91-2.754 3.355-1.416 6.725-2.807 10.128-4.102.663-.22 1.852-.436 1.969.545-.064 1.39-.327 2.77-.507 4.151-.458 3.037-.986 6.063-1.502 9.09-.178 1.008-1.44 1.53-2.249.885-1.942-1.312-3.899-2.611-5.816-3.953-.628-.639-.046-1.555.515-2.01 1.6-1.577 3.296-2.916 4.812-4.574.409-.988-.8-.156-1.198.1-2.19 1.509-4.326 3.11-6.635 4.436-1.18.65-2.554.094-3.733-.268-1.056-.437-2.605-.878-1.694-1.546z" fill="#fff"/><defs><linearGradient id="paint0_linear" x1="37.335" y1="21.334" x2="29.335" y2="40" gradientUnits="userSpaceOnUse"><stop stop-color="#37AEE2"/><stop offset="1" stop-color="#1E96C8"/></linearGradient><filter id="filter0_d" x="8" y="12" width="48" height="48" filterUnits="userSpaceOnUse" color-interpolation-filters="sRGB"><feFlood flood-opacity="0" result="BackgroundImageFix"/><feColorMatrix in="SourceAlpha" values="0 0 0 0 0 0 0 0 0 0 0 0 0 0 0 0 0 0 127 0"/><feOffset dy="4"/><feGaussianBlur stdDeviation="4"/><feColorMatrix values="0 0 0 0 0.168627 0 0 0 0 0.635294 0 0 0 0 0.839216 0 0 0 0.3 0"/><feBlend in2="BackgroundImageFix" result="effect1_dropShadow"/><feBlend in="SourceGraphic" in2="effect1_dropShadow" result="shape"/></filter></defs></svg>