<svg viewBox="0 0 32 32" fill="none" xmlns="http://www.w3.org/2000/svg">
    <path d="M26.6667 10.0367C25.8816 10.3833 25.0378 10.6158 24.1521 10.7218C25.0558 10.184 25.7496 9.33158 26.0768 8.31857C25.2318 8.81575 24.2941 9.1763 23.2977 9.3729C22.4993 8.52783 21.3617 8 20.1034 8C17.6861 8 15.7261 9.94473 15.7261 12.3446C15.7261 12.6825 15.7647 13.0164 15.8394 13.3343C12.2025 13.1517 8.97752 11.4229 6.8182 8.79642C6.44231 9.43755 6.22572 10.1827 6.22572 10.9784C6.22572 12.4866 6.99881 13.8148 8.17311 14.5939C7.456 14.5719 6.78088 14.3753 6.19106 14.0501C6.19039 14.0681 6.19039 14.0861 6.19039 14.1054C6.19039 16.2101 7.69926 17.9649 9.7013 18.3641C9.33408 18.4634 8.94753 18.5154 8.54832 18.5154C8.26641 18.5154 7.99183 18.4894 7.72458 18.4381C8.28107 20.1642 9.8979 21.4198 11.8133 21.4538C10.3151 22.6188 8.42769 23.3139 6.37767 23.3139C6.02378 23.3139 5.67589 23.2932 5.33333 23.2519C7.27006 24.4848 9.57067 25.204 12.0426 25.204C20.0927 25.204 24.4947 18.586 24.4947 12.8472C24.4947 12.6592 24.4907 12.4713 24.4827 12.2853C25.3384 11.6722 26.0795 10.9078 26.6667 10.0367Z" fill="currentColor"/>
</svg>
