<svg width="48" height="24" viewBox="0 0 48 24" fill="none" xmlns="http://www.w3.org/2000/svg">
<rect width="48" height="24" rx="8" fill="white"/>
<path d="M28.2217 4.6875H19.7803V18.4749H28.2217V4.6875Z" fill="#FF5F00"/>
<path d="M20.6501 11.582C20.6491 10.2544 20.9501 8.94396 21.5302 7.74985C22.1104 6.55573 22.9546 5.50923 23.999 4.68955C22.7055 3.67303 21.1521 3.04091 19.5164 2.86545C17.8807 2.68998 16.2286 2.97825 14.749 3.69731C13.2693 4.41636 12.0218 5.53719 11.1491 6.9317C10.2763 8.3262 9.81348 9.93812 9.81348 11.5832C9.81348 13.2283 10.2763 14.8402 11.1491 16.2348C12.0218 17.6293 13.2693 18.7501 14.749 19.4691C16.2286 20.1882 17.8807 20.4765 19.5164 20.301C21.1521 20.1255 22.7055 19.4934 23.999 18.4769C22.9543 17.657 22.1099 16.6101 21.5297 15.4155C20.9495 14.2209 20.6487 12.91 20.6501 11.582Z" fill="#EB001B"/>
<path d="M37.3477 17.0158V16.7333H37.4695V16.6748H37.1797V16.7333H37.2942V17.0158H37.3477ZM37.9103 17.0158V16.6748H37.8227L37.7204 16.9184L37.6181 16.6748H37.5304V17.0158H37.5937V16.7576L37.6887 16.9792H37.7545L37.8494 16.7576V17.0158H37.9103Z" fill="#F79E1B"/>
<path d="M38.1848 11.5823C38.1848 13.2275 37.7218 14.8395 36.8489 16.2341C35.976 17.6286 34.7283 18.7494 33.2485 19.4684C31.7687 20.1874 30.1164 20.4754 28.4806 20.2997C26.8448 20.124 25.2914 19.4916 23.998 18.4747C25.042 17.6543 25.8859 16.6075 26.4663 15.4134C27.0466 14.2192 27.3481 12.9088 27.3481 11.5811C27.3481 10.2533 27.0466 8.94295 26.4663 7.74877C25.8859 6.55459 25.042 5.5078 23.998 4.68739C25.2914 3.67055 26.8448 3.03813 28.4806 2.86241C30.1164 2.6867 31.7687 2.97478 33.2485 3.69373C34.7283 4.41268 35.976 5.5335 36.8489 6.92805C37.7218 8.3226 38.1848 9.93462 38.1848 11.5798V11.5823Z" fill="#F79E1B"/>
</svg>
