<svg width="16" height="16" viewBox="0 0 16 16" fill="none" xmlns="http://www.w3.org/2000/svg">
    <path fill-rule="evenodd" clip-rule="evenodd" d="M12.8337 4.58052L13.7071 3.70711C14.0976 3.31658 14.0976 2.68342 13.7071 2.29289C13.3166 1.90237 12.6834 1.90237 12.2929 2.29289L11.0484 3.53743C10.2081 3.20728 9.20193 3 8 3C3.35842 3 1.63652 6.09122 1.11253 7.4125C0.962488 7.79086 0.962488 8.20915 1.11253 8.5875C1.38676 9.27899 1.98909 10.4552 3.16631 11.4195L2.29289 12.2929C1.90237 12.6834 1.90237 13.3166 2.29289 13.7071C2.68342 14.0976 3.31658 14.0976 3.70711 13.7071L4.95165 12.4626L6.70662 10.7076L10.7076 6.70658L12.8337 4.58052ZM9.29342 5.29237C8.90178 5.10495 8.46315 5 8 5C6.34315 5 5 6.34315 5 8C5 8.46315 5.10495 8.90178 5.29237 9.29342L9.29342 5.29237Z" fill="currentColor"/>
    <path d="M8 11C7.94398 11 7.88832 10.9985 7.83305 10.9954L6.03547 12.793C6.6237 12.9249 7.27637 13 8 13C12.6416 13 14.3635 9.90878 14.8875 8.5875C15.0375 8.20915 15.0375 7.79086 14.8875 7.4125C14.6763 6.88002 14.2706 6.06009 13.5576 5.27087L10.9954 7.83305C10.9985 7.88832 11 7.94398 11 8C11 9.65685 9.65685 11 8 11Z" fill="currentColor"/>
</svg>
