<svg width="16" height="16" viewBox="0 0 16 16" fill="none" xmlns="http://www.w3.org/2000/svg">
    <path fill-rule="evenodd" clip-rule="evenodd" d="M1.11253 7.4125C1.63652 6.09122 3.35842 3 8 3C12.6416 3 14.3635 6.09122 14.8875 7.4125C15.0375 7.79086 15.0375 8.20915 14.8875 8.5875C14.3635 9.90878 12.6416 13 8 13C3.35842 13 1.63652 9.90878 1.11253 8.5875C0.962488 8.20915 0.962488 7.79086 1.11253 7.4125ZM8 11C9.65685 11 11 9.65685 11 8C11 6.34315 9.65685 5 8 5C6.34315 5 5 6.34315 5 8C5 9.65685 6.34315 11 8 11Z" fill="currentColor"/>
</svg>
