<svg width="30" height="31" fill="none" xmlns="http://www.w3.org/2000/svg"><path fill-rule="evenodd" clip-rule="evenodd" d="M20.73 20.461l8.006 8.004c.35.361.35.925.011 1.275a.955.955 0 01-.643.26.886.886 0 01-.644-.26l-8.086-8.082a11.47 11.47 0 01-6.9 2.303C6.138 23.96 1 18.813 1 12.48S6.15 1 12.485 1C18.821 1 23.97 6.148 23.97 12.48a11.47 11.47 0 01-3.24 7.981zM12.473 2.806c-5.33 0-9.678 4.335-9.678 9.674 0 5.34 4.347 9.674 9.678 9.674 5.33 0 9.678-4.346 9.678-9.674 0-5.328-4.348-9.674-9.678-9.674z" fill="url(#paint0_linear)"/><path d="M28.736 28.465l.36-.348-.006-.006-.354.354zm-8.007-8.004l-.36-.347-.341.353.348.348.353-.354zm8.018 9.28l.342.364.01-.008.008-.009-.36-.348zm-1.287 0l-.354.353.354-.354zm-8.086-8.083l.354-.354-.307-.306-.347.26.3.4zm9.716 6.453l-8.007-8.003-.707.707 8.006 8.003.707-.707zm.017 1.977c.53-.548.522-1.42-.012-1.971l-.718.696a.417.417 0 01.011.58l.718.695zm-1.003.412c.354 0 .713-.14.985-.395l-.684-.73a.456.456 0 01-.301.125v1zm-.998-.406c.285.285.643.406.998.406v-1a.388.388 0 01-.29-.113l-.708.707zm-8.086-8.082l8.086 8.082.707-.707-8.085-8.083-.708.708zm-6.546 2.449a11.97 11.97 0 007.2-2.403l-.6-.8a10.97 10.97 0 01-6.6 2.203v1zM.5 12.48c0 6.608 5.362 11.98 11.974 11.98v-1C6.415 23.46 1.5 18.538 1.5 12.48h-1zM12.485.5C5.874.5.5 5.871.5 12.48h1C1.5 6.424 6.426 1.5 12.485 1.5v-1zM24.47 12.48C24.47 5.871 19.097.5 12.485.5v1c6.06 0 10.985 4.924 10.985 10.98h1zm-3.38 8.33a11.965 11.965 0 003.381-8.329h-1a10.97 10.97 0 01-3.1 7.634l.718.695zM3.296 12.48c0-5.062 4.123-9.174 9.178-9.174v-1c-5.606 0-10.178 4.558-10.178 10.174h1zm9.178 9.174c-5.055 0-9.178-4.111-9.178-9.174h-1c0 5.616 4.572 10.174 10.178 10.174v-1zm9.178-9.174c0 5.052-4.124 9.174-9.178 9.174v1c5.606 0 10.178-4.57 10.178-10.174h-1zm-9.178-9.174c5.054 0 9.178 4.123 9.178 9.174h1c0-5.604-4.572-10.174-10.178-10.174v1z" fill="url(#paint1_linear)"/><defs><linearGradient id="paint0_linear" x1="-14.434" y1="13.732" x2="13.197" y2="41.047" gradientUnits="userSpaceOnUse"><stop stop-color="#FFCC5C"/><stop offset="1" stop-color="#FF9E65"/></linearGradient><linearGradient id="paint1_linear" x1="-14.434" y1="13.732" x2="13.197" y2="41.047" gradientUnits="userSpaceOnUse"><stop stop-color="#FFCC5C"/><stop offset="1" stop-color="#FF9E65"/></linearGradient></defs></svg>