<svg width="20" height="20" fill="none" xmlns="http://www.w3.org/2000/svg"><path fill-rule="evenodd" clip-rule="evenodd" d="M10 2a8 8 0 100 16 8 8 0 000-16zM0 10C0 4.477 4.477 0 10 0s10 4.477 10 10c0 5.522-4.477 10-10 10S0 15.522 0 10z" fill="currentColor"/><path d="M8.583 5.534a.5.5 0 01.5-.534h1.835a.5.5 0 01.499.534l-.416 6.1a.5.5 0 01-.5.466H9.499A.5.5 0 019 11.634l-.416-6.1zM10 15.999c-.427 0-.786-.134-1.078-.403a1.373 1.373 0 01-.422-1.01c0-.394.14-.72.422-.98.281-.268.64-.403 1.078-.403.438 0 .797.135 1.078.404.281.259.422.585.422.979 0 .393-.146.73-.438 1.01-.28.269-.635.403-1.062.403z" fill="currentColor"/></svg>