<svg width="144" height="144" fill="none" xmlns="http://www.w3.org/2000/svg"><path fill-rule="evenodd" clip-rule="evenodd" d="M72 0l27 40.5-9.962 14.942L64.639 11.04 72 0z" fill="url(#paint0_linear)"/><path fill-rule="evenodd" clip-rule="evenodd" d="M56.553 23.17L98.999 40.5l-9.961 14.942L44.999 40.5l11.553-17.33z" fill="url(#paint1_linear)"/><path fill-rule="evenodd" clip-rule="evenodd" d="M72 81L45 40.5l11.553-17.33 25.906 42.139L72 80.999z" fill="url(#paint2_linear)"/><path d="M21.184 93.198v19.48L6.16 93.198H0v31.351h6.7v-20.016l15.519 20.016h5.667v-31.35h-6.702zM48.828 117.26c1.17-1.122 1.752-2.472 1.752-4.047 0-1.575-.582-2.922-1.752-4.002-1.125-1.125-2.52-1.662-4.182-1.662-1.62 0-2.97.537-4.095 1.662-1.122 1.08-1.662 2.427-1.662 4.002 0 1.575.54 2.925 1.662 4.047 1.125 1.083 2.475 1.623 4.095 1.623 1.662 0 3.057-.54 4.182-1.623zm-13.45-12.366c2.16-2.295 4.858-3.42 8.053-3.42 3.417 0 6.072 1.395 6.747 3.372v-2.967h6.702v14.706c0 1.803.45 2.52 1.662 2.52.315 0 .72-.042 1.125-.087v5.574c-.72.228-1.71.36-3.015.36-1.482 0-2.742-.267-3.687-.807-1.032-.675-1.707-1.482-2.022-2.433-1.485 2.208-3.96 3.285-7.512 3.285-3.195 0-5.892-1.122-8.052-3.372-2.112-2.295-3.192-5.082-3.192-8.412 0-3.282 1.08-6.072 3.192-8.319zM62.62 124.55v-22.672h6.702v3.105c1.035-2.292 3.465-3.6 6.567-3.6.45 0 1.035.045 1.755.135v6.3a11.544 11.544 0 00-2.25-.225c-3.822 0-6.072 2.157-6.072 5.892v11.065h-6.703zM83.572 124.55v-16.597h-3.736v-6.075h3.736v-.63c0-3.279.897-5.622 2.651-7.014 1.305-1.122 3.418-1.662 6.253-1.662.9 0 1.8.087 2.7.222v5.577c-.405-.135-1.08-.225-2.025-.225-2.157 0-3.102.765-3.102 2.7v1.032h4.542v6.075h-4.542v16.597H83.57zM113.203 110.604c0-2.112-2.205-3.777-4.902-3.777-2.925 0-5.307 1.665-5.487 3.777h10.389zm-17.184 2.565c0-3.552 1.173-6.432 3.465-8.592 2.295-2.199 5.265-3.285 8.817-3.285 3.465 0 6.252 1.128 8.409 3.333 2.16 2.202 3.24 4.902 3.24 8.184 0 .765-.045 1.485-.09 2.16h-17.136c.135 2.697 2.472 4.452 6.027 4.452 2.112 0 3.957-.72 5.532-2.205l3.912 3.732c-2.652 2.745-5.937 4.14-9.759 4.14-3.732 0-6.702-1.077-8.997-3.192-2.295-2.16-3.42-4.992-3.42-8.547v-.18z" fill="#fff"/><path d="M119.352 124.55l8.589-11.92-7.779-10.752h7.287l4.227 5.985 4.231-5.985h7.284l-7.782 10.752 8.592 11.92h-7.242l-5.083-7.063-5.082 7.063h-7.242zM96.512 140.614c0 2.245 1.063 3.367 3.209 3.367.472 0 .886-.04 1.22-.118v-2.107a3.678 3.678 0 01-.826.079c-.867 0-1.24-.394-1.24-1.477v-4.429h2.185v-2.146h-2.186v-3.8h-2.362v3.8h-1.24v2.146h1.24v4.685zM103.145 142.485c1.043 1.004 2.323 1.515 3.839 1.515s2.795-.511 3.839-1.515c1.043-1.005 1.575-2.265 1.575-3.741 0-1.477-.532-2.737-1.575-3.741-1.044-1.004-2.323-1.516-3.839-1.516s-2.796.512-3.839 1.516c-1.044 1.004-1.575 2.264-1.575 3.741 0 1.476.531 2.736 1.575 3.741zm3.839-.63c-.886 0-1.615-.296-2.205-.886-.571-.611-.866-1.339-.866-2.225 0-.886.295-1.614.866-2.205.59-.61 1.319-.906 2.205-.906.866 0 1.594.296 2.185.906.591.591.886 1.319.886 2.205 0 .886-.295 1.614-.886 2.225-.591.59-1.319.886-2.185.886zM115.904 143.705v-2.894l.984-1.102 3.131 3.996h2.677l-4.292-5.493 3.879-4.429h-2.717l-3.662 4.213v-8.013h-2.343v13.722h2.343zM122.794 138.823c0 1.555.492 2.795 1.457 3.721.965.925 2.244 1.397 3.8 1.397 1.673 0 3.051-.59 4.173-1.771l-1.417-1.379c-.768.768-1.654 1.142-2.678 1.142-1.752 0-2.913-1.023-2.992-2.598h7.717c.02-.256.04-.532.04-.827 0-1.418-.453-2.599-1.378-3.564-.906-.964-2.087-1.437-3.525-1.437-1.515 0-2.756.473-3.74 1.437-.965.965-1.457 2.225-1.457 3.8v.079zm2.402-1.142c.059-.611.354-1.122.886-1.536.531-.413 1.181-.63 1.909-.63.69 0 1.26.217 1.753.65.492.413.748.925.748 1.516h-5.296zM136.318 143.705v-5.709c0-1.359.925-2.304 2.244-2.304 1.319 0 2.087.847 2.087 2.205v3.308c0 1.732.768 2.599 2.323 2.599.414 0 .748-.04 1.024-.119v-1.988c-.098.02-.216.039-.335.039-.531 0-.669-.275-.669-1.043v-3.13c0-2.461-1.358-3.977-3.701-3.977-1.398 0-2.5.649-2.973 1.614v-1.417h-2.343v9.922h2.343z" fill="#fff"/><defs><linearGradient id="paint0_linear" x1="89.124" y1="0" x2="89.124" y2="0" gradientUnits="userSpaceOnUse"><stop stop-color="#FABE4C"/><stop offset="1" stop-color="#FA9751"/></linearGradient><linearGradient id="paint1_linear" x1="98.999" y1="50.609" x2="64.639" y2="50.609" gradientUnits="userSpaceOnUse"><stop stop-color="#FABE4C"/><stop offset="1" stop-color="#FA9751"/></linearGradient><linearGradient id="paint2_linear" x1="52.428" y1="32.452" x2="52.428" y2="65.62" gradientUnits="userSpaceOnUse"><stop stop-color="#FABE4C"/><stop offset="1" stop-color="#FA9751"/></linearGradient></defs></svg>