<svg width="128" height="48" viewBox="0 0 128 48" fill="none" xmlns="http://www.w3.org/2000/svg">
    <path fill-rule="evenodd" clip-rule="evenodd" d="M112 0L128 24.0004L122.097 32.855L107.639 6.5422L112 0Z" fill="url(#paint0_linear)"/>
    <path fill-rule="evenodd" clip-rule="evenodd" d="M102.846 13.7305L128 24.0003L122.097 32.855L96 24.0003L102.846 13.7305Z" fill="url(#paint1_linear)"/>
    <path fill-rule="evenodd" clip-rule="evenodd" d="M112.001 48.0005L96.0005 24.0001L102.847 13.7302L118.199 38.7023L112.001 48.0005Z" fill="url(#paint2_linear)"/>
    <path d="M21.9488 12V36H17.4018L5.4701 21.4286V36H0V12H4.58121L16.4787 26.5714V12H21.9488Z" fill="white"/>
    <path d="M42.8651 36L38.2497 29.3143H33.1557V36H27.6172V12H37.9762C40.0959 12 41.942 12.3429 43.5147 13.0629C45.0531 13.7829 46.2497 14.7771 47.1044 16.08C47.9591 17.3829 48.3694 18.9257 48.3694 20.7086C48.3694 22.4914 47.9591 24.0343 47.1044 25.3029C46.2155 26.6057 45.019 27.6 43.4463 28.2857L48.8138 36H42.8651ZM42.7625 20.7086C42.7625 19.3714 42.3181 18.3086 41.4634 17.5886C40.6087 16.8686 39.3437 16.5257 37.6685 16.5257H33.1557V24.8914H37.6685C39.3437 24.8914 40.6087 24.5143 41.4634 23.7943C42.3181 23.0743 42.7625 22.0457 42.7625 20.7086Z" fill="white"/>
    <path d="M58.2807 16.4571V22.8H69.3576V27.2571H58.2807V36H52.7422V12H70.8277V16.4571H58.2807Z" fill="white"/>
    <path d="M89.661 36L83.9322 27.6686L78.3051 36H72L80.7797 23.7943L72.4407 12H78.678L84.1356 19.7829L89.4915 12H95.4237L87.1525 23.5886L96 36H89.661Z" fill="white"/>
    <defs>
        <linearGradient id="paint0_linear" x1="122.148" y1="0" x2="122.148" y2="1.35491e-07" gradientUnits="userSpaceOnUse">
            <stop stop-color="#FABE4C"/>
            <stop offset="1" stop-color="#FA9751"/>
        </linearGradient>
        <linearGradient id="paint1_linear" x1="128" y1="29.9909" x2="107.639" y2="29.9909" gradientUnits="userSpaceOnUse">
            <stop stop-color="#FABE4C"/>
            <stop offset="1" stop-color="#FA9751"/>
        </linearGradient>
        <linearGradient id="paint2_linear" x1="100.403" y1="19.2314" x2="100.403" y2="38.8865" gradientUnits="userSpaceOnUse">
            <stop stop-color="#FABE4C"/>
            <stop offset="1" stop-color="#FA9751"/>
        </linearGradient>
    </defs>
</svg>
