<svg width="240" height="240" viewBox="0 0 240 240" fill="none" xmlns="http://www.w3.org/2000/svg">
    <path fill-rule="evenodd" clip-rule="evenodd" d="M119.999 0L164.999 67.4998L148.397 92.4031L107.732 18.3996L119.999 0Z" fill="url(#paint0_linear)"/>
    <path fill-rule="evenodd" clip-rule="evenodd" d="M94.2536 38.6162L164.998 67.4996L148.396 92.4029L74.998 67.4996L94.2536 38.6162Z" fill="url(#paint1_linear)"/>
    <path fill-rule="evenodd" clip-rule="evenodd" d="M119.998 134.999L74.9978 67.4987L94.2535 38.6151L137.432 108.848L119.998 134.999Z" fill="url(#paint2_linear)"/>
    <path d="M35.3055 155.33V187.796L10.2652 155.33H0V207.581H11.1652V174.22L37.0305 207.581H46.4757V155.33H35.3055Z" fill="white"/>
    <path d="M81.378 195.433C83.328 193.563 84.298 191.313 84.298 188.688C84.298 186.063 83.328 183.818 81.378 182.018C79.503 180.143 77.1779 179.248 74.4079 179.248C71.7078 179.248 69.4578 180.143 67.5828 182.018C65.7128 183.818 64.8127 186.063 64.8127 188.688C64.8127 191.313 65.7128 193.563 67.5828 195.433C69.4578 197.238 71.7078 198.138 74.4079 198.138C77.1779 198.138 79.503 197.238 81.378 195.433ZM58.9627 174.823C62.5627 170.998 67.0578 169.123 72.3829 169.123C78.0779 169.123 82.503 171.448 83.628 174.743V169.798H94.7982V194.308C94.7982 197.313 95.5482 198.508 97.5682 198.508C98.0932 198.508 98.7682 198.438 99.4432 198.363V207.653C98.2432 208.033 96.5932 208.253 94.4182 208.253C91.9481 208.253 89.8481 207.808 88.2731 206.908C86.5531 205.783 85.428 204.438 84.903 202.853C82.428 206.533 78.3029 208.328 72.3829 208.328C67.0578 208.328 62.5627 206.458 58.9627 202.708C55.4426 198.883 53.6426 194.238 53.6426 188.688C53.6426 183.218 55.4426 178.568 58.9627 174.823Z" fill="white"/>
    <path d="M104.365 207.582V169.796H115.535V174.971C117.26 171.151 121.31 168.971 126.481 168.971C127.231 168.971 128.206 169.046 129.406 169.196V179.696C128.281 179.471 127.006 179.321 125.656 179.321C119.285 179.321 115.535 182.916 115.535 189.142V207.582H104.365Z" fill="white"/>
    <path d="M139.286 207.582V179.922H133.061V169.796H139.286V168.746C139.286 163.281 140.781 159.376 143.706 157.056C145.881 155.186 149.401 154.286 154.126 154.286C155.626 154.286 157.126 154.431 158.626 154.656V163.951C157.951 163.726 156.826 163.576 155.251 163.576C151.656 163.576 150.081 164.851 150.081 168.076V169.796H157.651V179.922H150.081V207.582H139.286Z" fill="white"/>
    <path d="M188.67 184.34C188.67 180.82 184.995 178.044 180.5 178.044C175.625 178.044 171.654 180.82 171.354 184.34H188.67ZM160.029 188.615C160.029 182.695 161.984 177.894 165.804 174.294C169.629 170.629 174.579 168.819 180.5 168.819C186.275 168.819 190.92 170.699 194.515 174.374C198.115 178.044 199.915 182.545 199.915 188.015C199.915 189.29 199.84 190.49 199.765 191.615H171.204C171.429 196.11 175.325 199.035 181.25 199.035C184.77 199.035 187.845 197.835 190.47 195.36L196.99 201.58C192.57 206.155 187.095 208.48 180.725 208.48C174.504 208.48 169.554 206.685 165.729 203.16C161.904 199.56 160.029 194.84 160.029 188.915V188.615Z" fill="white"/>
    <path d="M198.92 207.582L213.235 187.717L200.27 169.796H212.415L219.46 179.772L226.51 169.796H238.65L225.68 187.717L240 207.582H227.93L219.46 195.812L210.99 207.582H198.92Z" fill="white"/>
    <path d="M160.852 234.356C160.852 238.097 162.624 239.967 166.201 239.967C166.988 239.967 167.677 239.902 168.235 239.771V236.26C167.809 236.358 167.349 236.391 166.857 236.391C165.413 236.391 164.79 235.735 164.79 233.93V226.547H168.432V222.971H164.79V216.638H160.852V222.971H158.785V226.547H160.852V234.356Z" fill="white"/>
    <path d="M171.908 237.474C173.647 239.147 175.78 240 178.307 240C180.833 240 182.966 239.147 184.705 237.474C186.444 235.8 187.33 233.7 187.33 231.239C187.33 228.779 186.444 226.679 184.705 225.005C182.966 223.332 180.833 222.479 178.307 222.479C175.78 222.479 173.647 223.332 171.908 225.005C170.169 226.679 169.283 228.779 169.283 231.239C169.283 233.7 170.169 235.8 171.908 237.474ZM178.307 236.424C176.83 236.424 175.616 235.932 174.632 234.947C173.68 233.93 173.188 232.716 173.188 231.239C173.188 229.763 173.68 228.549 174.632 227.564C175.616 226.547 176.83 226.055 178.307 226.055C179.75 226.055 180.964 226.547 181.949 227.564C182.933 228.549 183.425 229.763 183.425 231.239C183.425 232.716 182.933 233.93 181.949 234.947C180.964 235.932 179.75 236.424 178.307 236.424Z" fill="white"/>
    <path d="M193.172 239.508V234.685L194.813 232.847L200.03 239.508H204.493L197.339 230.353L203.803 222.971H199.275L193.172 229.992V216.638H189.268V239.508H193.172Z" fill="white"/>
    <path d="M204.656 231.371C204.656 233.963 205.477 236.03 207.084 237.572C208.692 239.114 210.825 239.902 213.417 239.902C216.206 239.902 218.503 238.918 220.373 236.949L218.011 234.652C216.731 235.932 215.255 236.555 213.548 236.555C210.628 236.555 208.692 234.849 208.561 232.224H221.423C221.456 231.797 221.489 231.338 221.489 230.846C221.489 228.483 220.734 226.514 219.192 224.907C217.683 223.299 215.714 222.511 213.319 222.511C210.792 222.511 208.725 223.299 207.084 224.907C205.477 226.514 204.656 228.614 204.656 231.239V231.371ZM208.659 229.467C208.758 228.45 209.25 227.597 210.136 226.908C211.022 226.219 212.105 225.858 213.319 225.858C214.467 225.858 215.419 226.219 216.239 226.941C217.059 227.63 217.486 228.483 217.486 229.467H208.659Z" fill="white"/>
    <path d="M227.196 239.508V229.993C227.196 227.729 228.738 226.154 230.936 226.154C233.135 226.154 234.414 227.564 234.414 229.829V235.341C234.414 238.229 235.694 239.672 238.286 239.672C238.975 239.672 239.533 239.607 239.993 239.475V236.161C239.828 236.194 239.632 236.227 239.435 236.227C238.549 236.227 238.319 235.768 238.319 234.488V229.271C238.319 225.169 236.055 222.643 232.15 222.643C229.821 222.643 227.983 223.725 227.196 225.333V222.971H223.291V239.508H227.196Z" fill="white"/>
    <defs>
        <linearGradient id="paint0_linear" x1="148.54" y1="0" x2="148.54" y2="3.81061e-07" gradientUnits="userSpaceOnUse">
            <stop stop-color="#FABE4C"/>
            <stop offset="1" stop-color="#FA9751"/>
        </linearGradient>
        <linearGradient id="paint1_linear" x1="164.998" y1="84.3478" x2="107.732" y2="84.3478" gradientUnits="userSpaceOnUse">
            <stop stop-color="#FABE4C"/>
            <stop offset="1" stop-color="#FA9751"/>
        </linearGradient>
        <linearGradient id="paint2_linear" x1="87.3786" y1="54.087" x2="87.3786" y2="109.366" gradientUnits="userSpaceOnUse">
            <stop stop-color="#FABE4C"/>
            <stop offset="1" stop-color="#FA9751"/>
        </linearGradient>
    </defs>
</svg>
