<svg viewBox="0 0 120 120" fill="none" xmlns="http://www.w3.org/2000/svg"><path d="M35 26v60h50V26H35z" fill="url(#paint0_linear)"/><path fill-rule="evenodd" clip-rule="evenodd" d="M30.113 30h59.774c1.159 0 2.113.905 2.113 2.045V90.72c0 1.274-1.056 2.28-2.317 2.28H30.317C29.022 93 28 91.96 28 90.72V32.08c0-1.14.954-2.079 2.113-2.079zM32 89h56V40H32v49z" fill="url(#paint1_linear)"/><path d="M32.5 36a1.5 1.5 0 100-3 1.5 1.5 0 000 3zm6 0a1.5 1.5 0 100-3 1.5 1.5 0 000 3zm6 0a1.5 1.5 0 100-3 1.5 1.5 0 000 3z" fill="#fff"/><path fill-rule="evenodd" clip-rule="evenodd" d="M50.454 57h20.092C71.906 57 73 58.125 73 59.523v15.954C73 76.875 71.906 78 70.546 78H50.454C49.094 78 48 76.875 48 75.477V59.523C48 58.125 49.094 57 50.454 57zm11.604 15.375v-4.33c.73-.51 1.227-1.397 1.26-2.42 0-1.636-1.293-2.932-2.851-2.932-1.592 0-2.852 1.33-2.852 2.932 0 1.023.498 1.91 1.26 2.42v4.33h3.183z" fill="#fff"/><path d="M68.206 61c-.95 0-1.725-.789-1.725-1.757v-5.416c0-3.335-2.568-6.168-5.84-6.276-3.413-.107-6.193 2.69-6.193 6.133v5.559c0 .968-.774 1.757-1.724 1.757S51 60.211 51 59.243v-5.38c0-5.415 4.363-9.934 9.676-9.862 5.172.107 9.324 4.411 9.324 9.683v5.559c-.07.968-.844 1.757-1.794 1.757z" fill="#fff"/><defs><linearGradient id="paint0_linear" x1="85" y1="26" x2="85" y2="86" gradientUnits="userSpaceOnUse"><stop stop-color="#4070FF"/><stop offset="1" stop-color="#365FD9"/></linearGradient><linearGradient id="paint1_linear" x1="92" y1="30" x2="92" y2="93" gradientUnits="userSpaceOnUse"><stop stop-color="#FFA526"/><stop offset="1" stop-color="#FF860D"/></linearGradient></defs></svg>