<svg viewBox="0 0 120 120" fill="none" xmlns="http://www.w3.org/2000/svg"><path fill-rule="evenodd" clip-rule="evenodd" d="M28 32c0-5.523 4.477-10 10-10h40c5.523 0 10 4.477 10 10s-4.477 10-10 10H38.828l-7.414 7.414A2 2 0 0128 48V32zm10-6a6 6 0 00-6 6v11.172l4.586-4.586A2 2 0 0138 38h40a6 6 0 000-12H38z" fill="url(#paint0_linear)"/><path fill-rule="evenodd" clip-rule="evenodd" d="M28 80c0-5.523 4.477-10 10-10h24c5.523 0 10 4.477 10 10s-4.477 10-10 10H38.828l-7.414 7.414A2 2 0 0128 96V80zm10-6a6 6 0 00-6 6v11.172l4.586-4.586A2 2 0 0138 86h24a6 6 0 000-12H38z" fill="url(#paint1_linear)"/><path d="M48 46c-5.523 0-10 4.477-10 10s4.477 10 10 10h38.343a2 2 0 011.414.586l6.829 6.828C95.846 74.674 98 73.782 98 72V56c0-5.523-4.477-10-10-10H48z" fill="url(#paint2_linear)"/><rect x="48" y="51" width="40" height="3" rx="1.5" fill="#fff"/><rect x="48" y="58" width="24" height="3" rx="1.5" fill="#fff"/><defs><linearGradient id="paint0_linear" x1="88" y1="22" x2="88" y2="50" gradientUnits="userSpaceOnUse"><stop stop-color="#FFA526"/><stop offset="1" stop-color="#FF860D"/></linearGradient><linearGradient id="paint1_linear" x1="72" y1="70" x2="72" y2="98" gradientUnits="userSpaceOnUse"><stop stop-color="#FFA526"/><stop offset="1" stop-color="#FF860D"/></linearGradient><linearGradient id="paint2_linear" x1="98" y1="46" x2="98" y2="74.004" gradientUnits="userSpaceOnUse"><stop stop-color="#4070FF"/><stop offset="1" stop-color="#365FD9"/></linearGradient></defs></svg>