<svg viewBox="0 0 120 120" fill="none" xmlns="http://www.w3.org/2000/svg"><path d="M60.448 89.795c16.208 0 29.347-13.139 29.347-29.347 0-16.208-13.139-29.347-29.347-29.347-16.208 0-29.347 13.139-29.347 29.347 0 16.208 13.139 29.347 29.347 29.347z" fill="url(#paint0_linear)"/><path d="M60.448 60.448l25.085-15.264c-5.155-8.438-14.458-14.083-25.085-14.083v29.347z" fill="url(#paint1_linear)"/><path d="M60.448 98.896C39.251 98.896 22 81.645 22 60.448S39.251 22 60.448 22s38.448 17.251 38.448 38.448-17.251 38.448-38.448 38.448zm0-72.288c-18.662 0-33.84 15.178-33.84 33.84 0 18.662 15.178 33.84 33.84 33.84 18.662 0 33.84-15.178 33.84-33.84 0-18.662-15.178-33.84-33.84-33.84z" fill="url(#paint2_linear)"/><path d="M76 50.858c-.691-1.066-2.103-1.412-3.168-.72L62.78 56.474V35.766a2.31 2.31 0 00-2.304-2.304 2.31 2.31 0 00-2.304 2.304v24.682a2.31 2.31 0 002.304 2.304c.403 0 .806-.115 1.123-.288.288-.058.547-.144.806-.317l12.874-8.093a2.35 2.35 0 00.72-3.196z" fill="#fff"/><defs><linearGradient id="paint0_linear" x1="89.795" y1="31.101" x2="89.795" y2="89.795" gradientUnits="userSpaceOnUse"><stop stop-color="#4070FF"/><stop offset="1" stop-color="#365FD9"/></linearGradient><linearGradient id="paint1_linear" x1="85.533" y1="31.101" x2="85.533" y2="60.448" gradientUnits="userSpaceOnUse"><stop stop-color="#FFA526"/><stop offset="1" stop-color="#FF860D"/></linearGradient><linearGradient id="paint2_linear" x1="98.896" y1="22" x2="98.896" y2="98.896" gradientUnits="userSpaceOnUse"><stop stop-color="#FFA526"/><stop offset="1" stop-color="#FF860D"/></linearGradient></defs></svg>