<svg viewBox="0 0 120 120" fill="none" xmlns="http://www.w3.org/2000/svg"><path d="M60.5 89C73.479 89 84 78.479 84 65.5S73.479 42 60.5 42 37 52.521 37 65.5 47.521 89 60.5 89z" fill="url(#paint0_linear)"/><path d="M28.95 66c-1.073 0-1.95-.787-1.95-1.75 0-.831.024-1.662.098-2.493.828-9.953 6.627-18.856 15.862-24.456.901-.546 2.095-.328 2.704.482.61.809.366 1.88-.536 2.428-8.236 5.009-13.401 12.949-14.156 21.83a22.78 22.78 0 00-.098 2.231c.024.94-.853 1.728-1.925 1.728z" fill="url(#paint1_linear)"/><path d="M59.048 98c-3.733 0-7.401-.602-10.895-1.785-.916-.312-1.375-1.267-1.047-2.118.327-.872 1.331-1.308 2.227-.997a30.248 30.248 0 009.737 1.6c2.97 0 5.873-.415 8.667-1.266.918-.27 1.9.207 2.184 1.08.284.871-.219 1.805-1.136 2.075A34.158 34.158 0 0159.048 98z" fill="url(#paint2_linear)"/><path d="M91.116 62c-.921 0-1.748-.649-1.867-1.543-1.228-8.723-6.473-16.44-14.364-21.16-.875-.536-1.158-1.632-.591-2.46.567-.827 1.725-1.096 2.599-.559 8.86 5.279 14.72 13.935 16.09 23.709.141.984-.591 1.879-1.63 2.013h-.237z" fill="url(#paint3_linear)"/><path fill-rule="evenodd" clip-rule="evenodd" d="M47.793 81.785c.046-.086.092-.172.115-.236v-.022c.011-.043.023-.08.035-.118.011-.038.023-.076.034-.119v-.043c.023-.086.023-.172.023-.236 0-.065 0-.172-.023-.237v-.043c-.023-.086-.046-.172-.069-.236v-.022c-.011-.043-.029-.08-.046-.118a.734.734 0 01-.046-.118v-.022c-.046-.086-.092-.15-.138-.215 0 0 0-.021-.023-.021l-9.172-11.29A1.897 1.897 0 0037.012 68c-.575 0-1.127.258-1.472.688l-9.195 11.27s0 .02-.023.02a2.738 2.738 0 01-.029.04.83.83 0 00-.11.176v.021a.737.737 0 00-.091.237v.021c-.011.043-.023.08-.034.118l-.035.119v.043c-.023.086-.023.172-.023.236 0 .065 0 .172.023.237v.043c.023.086.046.172.069.236v.022c.011.043.029.08.046.118a.73.73 0 01.046.119v.021c.046.086.092.15.138.215 0 0 0 .022.023.022l9.172 11.29c.345.43.897.688 1.471.688.575 0 1.127-.258 1.472-.688l9.172-11.29s0-.022.023-.022a1.87 1.87 0 00.138-.215zM36.99 72.538l5.47 6.731H31.518l5.472-6.731zM31.517 82.71l5.472 6.731 5.47-6.731H31.518z" fill="url(#paint4_linear)"/><path fill-rule="evenodd" clip-rule="evenodd" d="M76.76 66h6.882C89.36 66 94 70.928 94 77s-4.64 11-10.358 11H76.76c-.968 0-1.76-.84-1.76-1.868V67.868c0-1.027.792-1.868 1.76-1.868zm1.759 18.263h5.123c3.76 0 6.84-3.246 6.84-7.263 0-4.017-3.08-7.263-6.84-7.263H78.52v5.395h5.98c.968 0 1.76.84 1.76 1.868s-.792 1.868-1.76 1.868h-5.981v5.395z" fill="url(#paint5_linear)"/><path fill-rule="evenodd" clip-rule="evenodd" d="M67 30.023c0-2.818-2.1-5.156-4.827-5.636v-1.64c0-.96-.804-1.747-1.788-1.747-.983 0-1.787.787-1.787 1.748v1.551h-1.631v-1.551c0-.961-.805-1.748-1.788-1.748s-1.788.787-1.788 1.748v1.551h-4.603c-.983 0-1.788.787-1.788 1.748s.804 1.748 1.788 1.748h1.787v12.41h-1.787c-.983 0-1.788.787-1.788 1.748s.804 1.748 1.788 1.748h4.58v1.551c0 .961.805 1.748 1.788 1.748.984 0 1.788-.787 1.788-1.748v-1.551h1.631v1.551c0 .961.805 1.748 1.788 1.748s1.788-.787 1.788-1.748v-1.639c2.748-.458 4.827-2.818 4.827-5.636 0-1.552-.626-2.95-1.654-3.977A5.517 5.517 0 0067 30.023zm-5.855-2.206c1.252 0 2.28 1.005 2.28 2.228 0 1.224-1.028 2.229-2.28 2.229h-6.994v-4.457h6.994zm-6.994 12.388h6.994c1.252 0 2.28-.983 2.28-2.228 0-1.224-1.028-2.23-2.28-2.23h-6.994v4.458z" fill="url(#paint6_linear)"/><defs><linearGradient id="paint0_linear" x1="84" y1="42" x2="84" y2="89" gradientUnits="userSpaceOnUse"><stop stop-color="#FFA526"/><stop offset="1" stop-color="#FF860D"/></linearGradient><linearGradient id="paint1_linear" x1="46" y1="37" x2="46" y2="66" gradientUnits="userSpaceOnUse"><stop stop-color="#4070FF"/><stop offset="1" stop-color="#365FD9"/></linearGradient><linearGradient id="paint2_linear" x1="70" y1="93" x2="70" y2="98" gradientUnits="userSpaceOnUse"><stop stop-color="#4070FF"/><stop offset="1" stop-color="#365FD9"/></linearGradient><linearGradient id="paint3_linear" x1="93" y1="36" x2="93" y2="62" gradientUnits="userSpaceOnUse"><stop stop-color="#4070FF"/><stop offset="1" stop-color="#365FD9"/></linearGradient><linearGradient id="paint4_linear" x1="48" y1="68" x2="48" y2="94" gradientUnits="userSpaceOnUse"><stop stop-color="#4070FF"/><stop offset="1" stop-color="#365FD9"/></linearGradient><linearGradient id="paint5_linear" x1="94" y1="66" x2="94" y2="88" gradientUnits="userSpaceOnUse"><stop stop-color="#4070FF"/><stop offset="1" stop-color="#365FD9"/></linearGradient><linearGradient id="paint6_linear" x1="67" y1="21" x2="67" y2="47" gradientUnits="userSpaceOnUse"><stop stop-color="#4070FF"/><stop offset="1" stop-color="#365FD9"/></linearGradient></defs></svg>