<svg viewBox="0 0 120 120" fill="none" xmlns="http://www.w3.org/2000/svg"><path d="M28 32a4 4 0 00-4 4v2.528a2 2 0 001.106 1.789l34 17a2 2 0 001.788 0l34-17A2 2 0 0096 38.527V36a4 4 0 00-4-4H28z" fill="url(#paint0_linear)"/><path d="M96 47.472a2 2 0 00-2.894-1.789L60.894 61.79a2 2 0 01-1.788 0L26.894 45.683A2 2 0 0024 47.473V76a4 4 0 004 4h64a4 4 0 004-4V47.472z" fill="url(#paint1_linear)"/><circle cx="88" cy="72" r="16" fill="url(#paint2_linear)"/><path fill-rule="evenodd" clip-rule="evenodd" d="M97.414 66.586a2 2 0 010 2.828l-10 10a2 2 0 01-2.828 0l-6-6a2 2 0 112.828-2.828L86 75.172l8.586-8.586a2 2 0 012.828 0z" fill="#fff"/><defs><linearGradient id="paint0_linear" x1="96" y1="32" x2="96" y2="80" gradientUnits="userSpaceOnUse"><stop stop-color="#4070FF"/><stop offset="1" stop-color="#365FD9"/></linearGradient><linearGradient id="paint1_linear" x1="96" y1="32" x2="96" y2="80" gradientUnits="userSpaceOnUse"><stop stop-color="#4070FF"/><stop offset="1" stop-color="#365FD9"/></linearGradient><linearGradient id="paint2_linear" x1="104" y1="56" x2="104" y2="88" gradientUnits="userSpaceOnUse"><stop stop-color="#FFA526"/><stop offset="1" stop-color="#FF860D"/></linearGradient></defs></svg>