<svg viewBox="0 0 120 120" fill="none" xmlns="http://www.w3.org/2000/svg"><path d="M84.483 76.815c-1.791 0-3.35 1-4.05 2.421l-.442-2.894c0-2.316-1.998-4.21-4.49-4.21-2.467 0-4.492 1.867-4.492 4.21v-2.106c0-2.316-2-4.21-4.492-4.21s-4.49 1.868-4.49 4.21v-16.79c0-2.315-2-4.21-4.492-4.21-2.467 0-4.492 1.869-4.492 4.21v32.527c-5.737-2.737-8.333-3.158-11.215-3.158-3.349 0-6.724 1.21-6.724 5.21l10.099 4.238 7.087 6.631c3.376 3.158 7.919 4.921 12.696 4.921H79.99c4.96 0 8.983-3.763 8.983-8.394V81.026c-.026-2.316-2.025-4.21-4.491-4.21z" fill="url(#paint0_linear)"/><path fill-rule="evenodd" clip-rule="evenodd" d="M39.765 59.952c.052-.106.104-.212.13-.29v-.027c.013-.053.026-.1.04-.146.013-.046.026-.092.039-.145v-.053C40 59.185 40 59.079 40 59c0-.08 0-.212-.026-.29v-.054a3.722 3.722 0 00-.079-.29v-.027a.897.897 0 00-.052-.146c-.02-.046-.04-.092-.052-.145v-.026c-.052-.106-.105-.186-.157-.265 0 0 0-.026-.026-.026L29.174 43.846A2.098 2.098 0 0027.5 43c-.654 0-1.281.317-1.674.846L15.392 57.731s0 .026-.026.026a3.51 3.51 0 01-.032.048c-.048.071-.104.152-.125.217v.026c-.052.08-.078.185-.104.29v.027a4.33 4.33 0 01-.04.146c-.013.046-.026.092-.039.145v.053C15 58.815 15 58.921 15 59c0 .08 0 .212.026.29v.054c.026.106.053.211.079.29v.027c.013.053.032.1.052.146.02.046.04.092.052.145v.026c.053.106.105.186.157.265 0 0 0 .026.026.026l10.434 13.885c.393.529 1.02.846 1.674.846.654 0 1.281-.317 1.674-.846l10.434-13.885s0-.026.026-.026a.98.98 0 01.13-.29zM27.474 48.554l6.224 8.277H21.25l6.224-8.277zM21.25 61.089l6.224 8.278 6.224-8.278H21.25z" fill="url(#paint1_linear)"/><path fill-rule="evenodd" clip-rule="evenodd" d="M83.13 34h8.332C98.356 34 104 39.376 104 46s-5.617 12-12.538 12H83.13c-1.172 0-2.13-.917-2.13-2.038V36.038c0-1.12.958-2.038 2.13-2.038zm2.13 19.898h6.202c4.552 0 8.279-3.516 8.279-7.898s-3.727-7.924-8.28-7.924H85.26v5.86h7.24c1.171 0 2.13.917 2.13 2.038 0 1.122-.959 2.039-2.13 2.039h-7.24v5.885z" fill="url(#paint2_linear)"/><path fill-rule="evenodd" clip-rule="evenodd" d="M69 22.759c0-3.36-2.418-6.148-5.557-6.721v-1.954c0-1.146-.926-2.084-2.058-2.084-1.132 0-2.058.938-2.058 2.084v1.85h-1.878v-1.85c0-1.146-.927-2.084-2.059-2.084-1.132 0-2.058.938-2.058 2.084v1.85h-5.274c-1.132 0-2.058.937-2.058 2.084 0 1.146.926 2.084 2.058 2.084h2.058v14.796h-2.058c-1.132 0-2.058.938-2.058 2.084 0 1.147.926 2.084 2.058 2.084h5.274v1.85c0 1.146.926 2.084 2.058 2.084 1.132 0 2.059-.938 2.059-2.084v-1.85h1.878v1.85c0 1.146.926 2.084 2.058 2.084 1.132 0 2.058-.938 2.058-2.084v-1.954c3.164-.547 5.557-3.36 5.557-6.72 0-1.85-.72-3.518-1.904-4.742A6.784 6.784 0 0069 22.759zm-6.74-2.631c1.44 0 2.624 1.198 2.624 2.657s-1.184 2.657-2.624 2.657h-8.053v-5.314h8.053zm-8.053 14.77h8.053c1.44 0 2.624-1.172 2.624-2.657 0-1.459-1.184-2.657-2.624-2.657h-8.053v5.314z" fill="url(#paint3_linear)"/><defs><linearGradient id="paint0_linear" x1="88.974" y1="53.236" x2="88.974" y2="107.815" gradientUnits="userSpaceOnUse"><stop stop-color="#4070FF"/><stop offset="1" stop-color="#365FD9"/></linearGradient><linearGradient id="paint1_linear" x1="40" y1="43" x2="40" y2="75" gradientUnits="userSpaceOnUse"><stop stop-color="#FFA526"/><stop offset="1" stop-color="#FF860D"/></linearGradient><linearGradient id="paint2_linear" x1="104" y1="34" x2="104" y2="58" gradientUnits="userSpaceOnUse"><stop stop-color="#FFA526"/><stop offset="1" stop-color="#FF860D"/></linearGradient><linearGradient id="paint3_linear" x1="69" y1="12" x2="69" y2="43" gradientUnits="userSpaceOnUse"><stop stop-color="#FFA526"/><stop offset="1" stop-color="#FF860D"/></linearGradient></defs></svg>