<svg viewBox="0 0 120 120" fill="none" xmlns="http://www.w3.org/2000/svg"><path fill-rule="evenodd" clip-rule="evenodd" d="M69.232 48.03A2.193 2.193 0 0171 50.183v4.634c0 1.053-.73 1.952-1.722 2.154l-2.746.542c-.729.14-1.334.65-1.613 1.332-.015 0-.015.016-.015.016a2.183 2.183 0 00.186 2.092l1.551 2.324c.574.868.465 2.03-.28 2.774l-3.272 3.27a2.19 2.19 0 01-2.777.278l-2.327-1.55a2.28 2.28 0 00-2.094-.185c0 .015-.015.015-.015.015a2.202 2.202 0 00-1.334 1.612l-.543 2.743A2.194 2.194 0 0151.842 74h-4.638a2.194 2.194 0 01-2.156-1.766l-.543-2.743a2.202 2.202 0 00-1.334-1.612c0-.015-.015-.015-.015-.015a2.19 2.19 0 00-2.095.186l-2.327 1.55a2.21 2.21 0 01-2.776-.28l-3.273-3.27a2.185 2.185 0 01-.28-2.773l1.552-2.324c.403-.62.465-1.41.186-2.092-.016 0-.016-.016-.016-.016a2.203 2.203 0 00-1.613-1.332l-2.746-.542A2.193 2.193 0 0128 54.817v-4.634c0-1.053.745-1.952 1.768-2.153l2.746-.543a2.203 2.203 0 001.613-1.332c.016 0 .016-.016.016-.016a2.183 2.183 0 00-.186-2.092l-1.551-2.324a2.204 2.204 0 01.279-2.774l3.273-3.27a2.19 2.19 0 012.776-.278l2.327 1.55a2.28 2.28 0 002.095.185c0-.015.015-.015.015-.015a2.202 2.202 0 001.334-1.612l.543-2.742A2.194 2.194 0 0147.204 31h4.592c1.055 0 1.954.744 2.156 1.767l.543 2.742c.14.728.652 1.333 1.334 1.612 0 .015.015.015.015.015a2.19 2.19 0 002.095-.186l2.327-1.55a2.21 2.21 0 012.776.28l3.273 3.27c.745.743.869 1.905.28 2.773l-1.552 2.324a2.274 2.274 0 00-.186 2.092c.016 0 .016.016.016.016a2.203 2.203 0 001.613 1.332l2.746.543zM60 52.5C60 58.299 55.299 63 49.5 63S39 58.299 39 52.5 43.701 42 49.5 42 60 46.701 60 52.5z" fill="url(#paint0_linear)"/><path fill-rule="evenodd" clip-rule="evenodd" d="M91.89 67.693c.642.127 1.11.69 1.11 1.352v2.91a1.37 1.37 0 01-1.081 1.352l-1.724.34a1.383 1.383 0 00-1.013.837c-.01 0-.01.01-.01.01a1.37 1.37 0 00.117 1.314l.974 1.459c.36.545.292 1.275-.175 1.742l-2.055 2.053a1.375 1.375 0 01-1.744.175l-1.461-.973a1.432 1.432 0 00-1.315-.117c0 .01-.01.01-.01.01a1.38 1.38 0 00-.837 1.012l-.341 1.722A1.378 1.378 0 0180.97 84h-2.913a1.378 1.378 0 01-1.354-1.11l-.34-1.721a1.383 1.383 0 00-.838-1.012c0-.01-.01-.01-.01-.01a1.375 1.375 0 00-1.315.117l-1.46.973a1.388 1.388 0 01-1.744-.175l-2.055-2.053a1.372 1.372 0 01-.176-1.742l.974-1.46c.254-.389.293-.885.117-1.313-.01 0-.01-.01-.01-.01a1.383 1.383 0 00-1.013-.836l-1.724-.341A1.377 1.377 0 0166 71.955v-2.91c0-.661.468-1.225 1.11-1.352l1.724-.34a1.383 1.383 0 001.013-.837c.01 0 .01-.01.01-.01a1.371 1.371 0 00-.117-1.314l-.974-1.459a1.384 1.384 0 01.176-1.742l2.055-2.053a1.376 1.376 0 011.743-.175l1.461.973c.39.253.887.292 1.315.117 0-.01.01-.01.01-.01.428-.175.75-.554.838-1.012l.34-1.722A1.378 1.378 0 0178.058 57h2.884c.662 0 1.227.467 1.354 1.11l.34 1.721c.088.458.41.837.838 1.012 0 .01.01.01.01.01.438.185.925.146 1.315-.117l1.46-.973a1.388 1.388 0 011.744.175l2.055 2.053c.468.467.546 1.197.176 1.742l-.974 1.46a1.422 1.422 0 00-.117 1.313c.01 0 .01.01.01.01a1.38 1.38 0 001.013.836l1.724.341zM85 70.5a5.5 5.5 0 11-11 0 5.5 5.5 0 0111 0z" fill="url(#paint1_linear)"/><path fill-rule="evenodd" clip-rule="evenodd" d="M67.3 80.733c.406.08.7.435.7.851v1.832a.863.863 0 01-.68.851l-1.086.215a.87.87 0 00-.638.527c-.006 0-.006.006-.006.006a.863.863 0 00.073.827l.614.919a.872.872 0 01-.11 1.096l-1.295 1.293a.866.866 0 01-1.097.11l-.92-.612a.901.901 0 00-.828-.074c0 .006-.006.006-.006.006a.87.87 0 00-.528.637l-.215 1.085a.868.868 0 01-.852.698h-1.834a.868.868 0 01-.852-.698l-.215-1.085a.87.87 0 00-.527-.637c0-.006-.006-.006-.006-.006a.866.866 0 00-.828.074l-.92.612a.874.874 0 01-1.098-.11l-1.294-1.293a.864.864 0 01-.11-1.096l.613-.92a.899.899 0 00.074-.826c-.007 0-.007-.006-.007-.006a.871.871 0 00-.637-.527l-1.086-.215a.867.867 0 01-.699-.851v-1.832c0-.416.294-.772.7-.851l1.085-.215a.871.871 0 00.637-.527c.007 0 .007-.006.007-.006a.863.863 0 00-.074-.827l-.613-.919a.872.872 0 01.11-1.096l1.294-1.293a.866.866 0 011.098-.11l.92.612a.9.9 0 00.828.074c0-.006.006-.006.006-.006a.87.87 0 00.527-.637l.215-1.085a.868.868 0 01.852-.698h1.816c.417 0 .772.294.852.698l.215 1.085a.87.87 0 00.527.637c0 .006.006.006.006.006a.866.866 0 00.828-.074l.92-.612a.874.874 0 011.098.11l1.294 1.293a.864.864 0 01.11 1.096l-.613.92a.899.899 0 00-.074.826c.007 0 .007.006.007.006.11.27.35.472.637.527l1.086.215zM63 82.5a3.5 3.5 0 11-7 0 3.5 3.5 0 017 0z" fill="url(#paint2_linear)"/><path d="M75.5 45L74 54l9.5-2.5-4-1 7.5-6-8 3.5 1.5-6.5-4 7-1-3.5z" fill="url(#paint3_linear)"/><path d="M38 78.5l10-1-2 7-1-3-6 4 4-6-5-1z" fill="url(#paint4_linear)"/><defs><linearGradient id="paint0_linear" x1="71" y1="31" x2="71" y2="74" gradientUnits="userSpaceOnUse"><stop stop-color="#4070FF"/><stop offset="1" stop-color="#365FD9"/></linearGradient><linearGradient id="paint1_linear" x1="93" y1="57" x2="93" y2="84" gradientUnits="userSpaceOnUse"><stop stop-color="#4070FF"/><stop offset="1" stop-color="#365FD9"/></linearGradient><linearGradient id="paint2_linear" x1="68" y1="74" x2="68" y2="91" gradientUnits="userSpaceOnUse"><stop stop-color="#4070FF"/><stop offset="1" stop-color="#365FD9"/></linearGradient><linearGradient id="paint3_linear" x1="87" y1="41.5" x2="87" y2="54" gradientUnits="userSpaceOnUse"><stop stop-color="#FFA526"/><stop offset="1" stop-color="#FF860D"/></linearGradient><linearGradient id="paint4_linear" x1="48" y1="77.5" x2="48" y2="85.5" gradientUnits="userSpaceOnUse"><stop stop-color="#FFA526"/><stop offset="1" stop-color="#FF860D"/></linearGradient></defs></svg>