<svg viewBox="0 0 120 120" fill="none" xmlns="http://www.w3.org/2000/svg"><path d="M95.123 25s-26.256-.068-46.726 20.338a24.248 24.248 0 00-2.538 3.01c-3.637-.274-9.172-.183-12.008 2.644C27.218 57.604 25 68.639 25 68.639l14.615-2.075v5.016l8.76 8.733h5.008l-2.081 14.569s11.07-2.212 17.702-8.824c2.836-2.827 2.95-8.344 2.653-11.97a21.126 21.126 0 003.02-2.53C95.168 51.174 95.122 25 95.122 25zM65.94 48.256a5.843 5.843 0 015.856-5.837c3.224 0 5.855 2.6 5.855 5.837a5.843 5.843 0 01-5.856 5.837c-3.224 0-5.855-2.6-5.855-5.837z" fill="url(#paint0_linear)"/><path d="M29.323 94.152c-1.053 0-1.739-.045-1.853-.068l-1.578-.114-.114-1.573c-.023-.456-.732-11.036 4.39-16.143a9.468 9.468 0 014.324-2.44l1.006-.273 10.887 10.853-.275 1.003c-.434 1.642-1.28 3.146-2.447 4.31-3.911 3.944-10.978 4.445-14.34 4.445zm5.169-16.461a5.098 5.098 0 00-1.693 1.162c-2.744 2.736-3.362 8.368-3.362 11.651 2.859 0 8.737-.41 11.687-3.351.48-.48.87-1.05 1.167-1.688l-7.8-7.774z" fill="url(#paint1_linear)"/><defs><linearGradient id="paint0_linear" x1="95.123" y1="25" x2="95.123" y2="94.882" gradientUnits="userSpaceOnUse"><stop stop-color="#4070FF"/><stop offset="1" stop-color="#365FD9"/></linearGradient><linearGradient id="paint1_linear" x1="46.385" y1="73.541" x2="46.385" y2="94.152" gradientUnits="userSpaceOnUse"><stop stop-color="#FFA526"/><stop offset="1" stop-color="#FF860D"/></linearGradient></defs></svg>