<svg width="88" height="88" fill="none" xmlns="http://www.w3.org/2000/svg"><circle cx="44" cy="44" r="28" fill="url(#paint0_linear)"/><path d="M53.69 38.914H39.94V37.63c.043-2.398 1.071-4.154 4.284-4.154h.77v-5.226H43.11c-5.697 0-8.78 3.427-8.78 9.423v1.242h-3.77v4.326h3.77v15.634h5.61V43.24h8.138v15.634h5.611v-19.96zm-2.828-3.555c2.014 0 3.555-1.499 3.555-3.383 0-1.885-1.541-3.341-3.555-3.341-1.927 0-3.555 1.456-3.555 3.34 0 1.885 1.628 3.384 3.555 3.384z" fill="#fff"/><defs><linearGradient id="paint0_linear" x1="72" y1="16" x2="72" y2="72" gradientUnits="userSpaceOnUse"><stop stop-color="#4070FF"/><stop offset="1" stop-color="#365FD9"/></linearGradient></defs></svg>