<svg viewBox="0 0 120 120" fill="none" xmlns="http://www.w3.org/2000/svg"><path fill-rule="evenodd" clip-rule="evenodd" d="M27.94 95h65.12c1.067 0 1.94-.885 1.94-1.968V26.968C95 25.886 94.127 25 93.06 25H27.94c-1.067 0-1.94.886-1.94 1.968v66.064c0 1.083.873 1.968 1.94 1.968zM91 91H30V29h61v62z" fill="url(#paint0_linear)"/><path d="M103.118 84H16.882C14.747 84 13 82.24 13 80.09V39.91c0-2.15 1.747-3.91 3.882-3.91h86.236c2.135 0 3.882 1.76 3.882 3.91v40.204A3.887 3.887 0 01103.118 84z" fill="url(#paint1_linear)"/><path d="M27.867 71C26.84 71 26 70.119 26 69.042V51.958c0-1.077.84-1.958 1.867-1.958h9.266C38.16 50 39 50.881 39 51.958s-.84 1.958-1.867 1.958h-7.399v15.126c0 1.077-.84 1.958-1.867 1.958z" fill="#fff"/><path fill-rule="evenodd" clip-rule="evenodd" d="M43 69.042c0 1.077.897 1.958 1.993 1.958 1.097 0 1.994-.881 1.994-1.958v-6.119h4.435c3.613 0 6.578-2.888 6.578-6.462C58 52.913 55.06 50 51.422 50h-6.429C43.897 50 43 50.881 43 51.958v17.084zm8.422-10.035h-4.435v-5.09h4.435c1.42 0 2.591 1.125 2.591 2.544 0 1.396-1.146 2.546-2.591 2.546z" fill="#fff"/><path d="M34.182 62h-6.364c-1 0-1.818-.9-1.818-2s.818-2 1.818-2h6.364c1 0 1.818.9 1.818 2 0 1.125-.818 2-1.818 2zm39.951 9h-9.266C63.84 71 63 70.119 63 69.042V51.958c0-1.077.84-1.958 1.867-1.958h9.266C75.16 50 76 50.881 76 51.958s-.84 1.958-1.867 1.958h-7.399v13.168h7.399c1.027 0 1.867.881 1.867 1.958S75.16 71 74.133 71z" fill="#fff"/><path d="M73.182 62h-6.364c-1 0-1.818-.9-1.818-2s.818-2 1.818-2h6.364c1 0 1.818.9 1.818 2 0 1.125-.818 2-1.818 2zm19.951 9h-9.266C82.84 71 82 70.119 82 69.042V51.958c0-1.077.84-1.958 1.867-1.958h9.266C94.16 50 95 50.881 95 51.958s-.84 1.958-1.867 1.958h-7.399v13.168h7.399c1.027 0 1.867.881 1.867 1.958S94.16 71 93.133 71z" fill="#fff"/><path d="M91.182 62h-6.364c-1 0-1.818-.9-1.818-2s.818-2 1.818-2h6.364c1 0 1.818.9 1.818 2 0 1.125-.818 2-1.818 2zM56.36 71.227a1.823 1.823 0 01-1.547-.884l-4.371-7.283c-.523-.885-.25-2.025.592-2.56a1.808 1.808 0 012.504.605l4.37 7.283c.524.885.25 2.025-.591 2.56-.296.186-.638.28-.956.28z" fill="#fff"/><defs><linearGradient id="paint0_linear" x1="95" y1="25" x2="95" y2="95" gradientUnits="userSpaceOnUse"><stop stop-color="#FFA526"/><stop offset="1" stop-color="#FF860D"/></linearGradient><linearGradient id="paint1_linear" x1="107" y1="36" x2="107" y2="84" gradientUnits="userSpaceOnUse"><stop stop-color="#4070FF"/><stop offset="1" stop-color="#365FD9"/></linearGradient></defs></svg>