<svg viewBox="0 0 120 120" fill="none" xmlns="http://www.w3.org/2000/svg"><mask id="a" maskUnits="userSpaceOnUse" x="35" y="34" width="50" height="51"><path fill-rule="evenodd" clip-rule="evenodd" d="M35 59.998c0 13.807 11.193 25 25 25s25-11.193 25-25c0-13.808-11.193-25-25-25s-25 11.192-25 25z" fill="#fff"/></mask><g mask="url(#a)"><path fill-rule="evenodd" clip-rule="evenodd" d="M35 59.998c0 13.807 11.193 25 25 25s25-11.193 25-25c0-13.808-11.193-25-25-25s-25 11.192-25 25z" fill="url(#paint0_linear)"/></g><mask id="b" maskUnits="userSpaceOnUse" x="27" y="27" width="66" height="66"><path fill-rule="evenodd" clip-rule="evenodd" d="M27 59.999c0 18.155 14.738 32.934 32.879 32.998h.24C78.259 92.934 92.998 78.154 92.998 60c0-18.196-14.803-32.999-33-32.999C41.804 27 27 41.803 27 59.999zm3.955 0c0-16.015 13.03-29.044 29.044-29.044 16.015 0 29.044 13.029 29.044 29.044 0 16.014-13.03 29.044-29.044 29.044-16.015 0-29.044-13.03-29.044-29.044z" fill="#fff"/></mask><g mask="url(#b)"><path fill-rule="evenodd" clip-rule="evenodd" d="M27 59.999c0 18.155 14.738 32.934 32.879 32.998h.24C78.259 92.934 92.998 78.154 92.998 60c0-18.196-14.803-32.999-33-32.999C41.804 27 27 41.803 27 59.999zm3.955 0c0-16.015 13.03-29.044 29.044-29.044 16.015 0 29.044 13.029 29.044 29.044 0 16.014-13.03 29.044-29.044 29.044-16.015 0-29.044-13.03-29.044-29.044z" fill="url(#paint1_linear)"/></g><path fill-rule="evenodd" clip-rule="evenodd" d="M64.253 68.888c-.01.003-.897.29-1.668.29-.425 0-.597-.086-.651-.123-.27-.183-.77-.524.087-2.182l1.604-3.108c.952-1.845 1.093-3.63.394-5.026-.572-1.142-1.668-1.926-3.082-2.207a7.892 7.892 0 00-1.537-.15c-2.968 0-4.966 1.682-5.05 1.754a.764.764 0 00-.163.975.812.812 0 00.955.347c.008-.003.897-.292 1.667-.292.422 0 .593.086.645.122.272.184.774.53-.081 2.185l-1.605 3.109c-.953 1.847-1.093 3.63-.393 5.026.57 1.142 1.665 1.926 3.083 2.206.503.099 1.02.152 1.53.152 2.97 0 4.97-1.683 5.053-1.755a.765.765 0 00.164-.976.822.822 0 00-.952-.347zm-1.347-21.856c2.216 0 4.013 1.744 4.013 3.896s-1.797 3.896-4.013 3.896c-2.215 0-4.012-1.744-4.012-3.896s1.797-3.896 4.012-3.896z" fill="#fff"/><defs><linearGradient id="paint0_linear" x1="85" y1="34.998" x2="85" y2="84.998" gradientUnits="userSpaceOnUse"><stop stop-color="#4070FF"/><stop offset="1" stop-color="#365FD9"/></linearGradient><linearGradient id="paint1_linear" x1="92.998" y1="27" x2="92.998" y2="92.998" gradientUnits="userSpaceOnUse"><stop stop-color="#FFA526"/><stop offset="1" stop-color="#FF860D"/></linearGradient></defs></svg>