<svg width="120" height="120" fill="none" xmlns="http://www.w3.org/2000/svg"><path d="M76.698 44.584c-6.334 0-11.465 5.13-11.465 11.414v8.008h-4.358V41.664h8.023c6.334 0 11.486-5.13 11.486-11.434V19H69.082c-6.334 0-11.466 5.129-11.466 11.414v25.462h-3.849v-8.008c0-6.304-5.152-11.413-11.465-11.413H31v11.231c0 6.305 5.152 11.434 11.486 11.434H57.615V74h3.259v-6.75h15.64C82.847 67.25 88 62.12 88 55.814v-11.23H76.698z" fill="url(#paint0_linear)"/><path fill="url(#paint1_linear)" d="M34 73h52v30H34z"/><path fill-rule="evenodd" clip-rule="evenodd" d="M60 93a5 5 0 100-10 5 5 0 000 10zm0 3a8 8 0 100-16 8 8 0 000 16z" fill="#fff"/><path d="M74 77h6a2 2 0 012 2v4s-4 0-6-2-2-4-2-4zM46 77h-6a2 2 0 00-2 2v4s4 0 6-2 2-4 2-4zM74 99h6a2 2 0 002-2v-4s-4 0-6 2-2 4-2 4zM46 99h-6a2 2 0 01-2-2v-4s4 0 6 2 2 4 2 4z" fill="#fff"/><defs><linearGradient id="paint0_linear" x1="88" y1="19" x2="88" y2="74" gradientUnits="userSpaceOnUse"><stop stop-color="#FFA526"/><stop offset="1" stop-color="#FF860D"/></linearGradient><linearGradient id="paint1_linear" x1="86" y1="73" x2="86" y2="103" gradientUnits="userSpaceOnUse"><stop stop-color="#4070FF"/><stop offset="1" stop-color="#365FD9"/></linearGradient></defs></svg>