<svg viewBox="0 0 120 120" fill="none" xmlns="http://www.w3.org/2000/svg"><path d="M85 46c5.523 0 10-4.253 10-9.5S90.523 27 85 27s-10 4.253-10 9.5S79.477 46 85 46z" fill="url(#paint0_linear)"/><path d="M83.988 50C75.158 50 68 56.643 68 64.838v19.678c0 .822.713 1.484 1.599 1.484H98.4c.886 0 1.599-.662 1.599-1.484V64.838C99.975 56.666 92.818 50 83.988 50z" fill="url(#paint1_linear)"/><path d="M34 46c5.523 0 10-4.253 10-9.5S39.523 27 34 27s-10 4.253-10 9.5S28.477 46 34 46z" fill="url(#paint2_linear)"/><path d="M34.988 50C26.158 50 19 56.643 19 64.838v19.678c0 .822.713 1.484 1.599 1.484H49.4c.886 0 1.599-.662 1.599-1.484V64.838C50.975 56.666 43.818 50 34.988 50z" fill="url(#paint3_linear)"/><path d="M60 32c-5.519 0-10 4.481-10 10s4.481 10 10 10 10-4.481 10-10-4.481-10-10-10zm-.381 24.793c-8.548 0-15.476 6.523-15.476 14.57v19.32c0 .807.69 1.457 1.547 1.457h27.881c.858 0 1.548-.65 1.548-1.457v-19.32c-.024-8.047-6.952-14.57-15.5-14.57z" fill="#fff"/><path fill-rule="evenodd" clip-rule="evenodd" d="M50 42c0-5.519 4.481-10 10-10s10 4.481 10 10-4.481 10-10 10-10-4.481-10-10zm16.227 0c0-3.443-2.807-6.226-6.227-6.226-3.42 0-6.226 2.783-6.226 6.226S56.58 48.226 60 48.226A6.22 6.22 0 0066.227 42z" fill="url(#paint4_linear)"/><path fill-rule="evenodd" clip-rule="evenodd" d="M45.667 93.933H73.57c1.881 0 3.43-1.457 3.405-3.25v-19.32c0-9.011-7.81-16.363-17.38-16.363-9.572 0-17.382 7.33-17.382 16.362v19.32c0 1.794 1.548 3.25 3.453 3.25zm27.523-3.587H46.049V71.363c0-7.038 6.095-12.776 13.571-12.776s13.572 5.738 13.572 12.776v18.985z" fill="url(#paint5_linear)"/><defs><linearGradient id="paint0_linear" x1="100" y1="27" x2="100" y2="86" gradientUnits="userSpaceOnUse"><stop stop-color="#4070FF"/><stop offset="1" stop-color="#365FD9"/></linearGradient><linearGradient id="paint1_linear" x1="100" y1="27" x2="100" y2="86" gradientUnits="userSpaceOnUse"><stop stop-color="#4070FF"/><stop offset="1" stop-color="#365FD9"/></linearGradient><linearGradient id="paint2_linear" x1="100" y1="27" x2="100" y2="86" gradientUnits="userSpaceOnUse"><stop stop-color="#4070FF"/><stop offset="1" stop-color="#365FD9"/></linearGradient><linearGradient id="paint3_linear" x1="100" y1="27" x2="100" y2="86" gradientUnits="userSpaceOnUse"><stop stop-color="#4070FF"/><stop offset="1" stop-color="#365FD9"/></linearGradient><linearGradient id="paint4_linear" x1="76.977" y1="32" x2="76.977" y2="93.933" gradientUnits="userSpaceOnUse"><stop stop-color="#FFA526"/><stop offset="1" stop-color="#FF860D"/></linearGradient><linearGradient id="paint5_linear" x1="76.977" y1="32" x2="76.977" y2="93.933" gradientUnits="userSpaceOnUse"><stop stop-color="#FFA526"/><stop offset="1" stop-color="#FF860D"/></linearGradient></defs></svg>