<svg viewBox="0 0 120 120" fill="none" xmlns="http://www.w3.org/2000/svg"><rect x="28" y="96" width="24" height="8" rx="3" fill="url(#paint0_linear)"/><rect x="68" y="96" width="24" height="8" rx="3" fill="url(#paint1_linear)"/><rect x="20" y="20" width="80" height="80" rx="12" fill="url(#paint2_linear)"/><path fill-rule="evenodd" clip-rule="evenodd" d="M30 36a6 6 0 016-6h48a6 6 0 016 6v48a6 6 0 01-6 6H36a6 6 0 01-6-6V36zm6-2a2 2 0 00-2 2v48a2 2 0 002 2h48a2 2 0 002-2V36a2 2 0 00-2-2H36z" fill="#fff"/><rect x="24" y="40" width="16" height="6" rx="3" fill="url(#paint3_linear)"/><rect x="24" y="74" width="16" height="6" rx="3" fill="url(#paint4_linear)"/><path fill-rule="evenodd" clip-rule="evenodd" d="M64 46c-7.732 0-14 6.268-14 14s6.268 14 14 14 14-6.268 14-14-6.268-14-14-14zm-3.166 4.512A9.99 9.99 0 0164 50c4.837 0 8.872 3.435 9.8 7.998l-8.64-.007-4.326-7.48zm-3.467 2.004A9.976 9.976 0 0054 60a9.976 9.976 0 003.367 7.484L61.68 60l-4.313-7.484zm3.467 16.972A9.99 9.99 0 0064 70c4.837 0 8.872-3.434 9.8-7.998l-8.64.008-4.326 7.478z" fill="url(#paint5_linear)"/><defs><linearGradient id="paint0_linear" x1="52" y1="96" x2="52" y2="104" gradientUnits="userSpaceOnUse"><stop stop-color="#FFA526"/><stop offset="1" stop-color="#FF860D"/></linearGradient><linearGradient id="paint1_linear" x1="92" y1="96" x2="92" y2="104" gradientUnits="userSpaceOnUse"><stop stop-color="#FFA526"/><stop offset="1" stop-color="#FF860D"/></linearGradient><linearGradient id="paint2_linear" x1="100" y1="20" x2="100" y2="100" gradientUnits="userSpaceOnUse"><stop stop-color="#4070FF"/><stop offset="1" stop-color="#365FD9"/></linearGradient><linearGradient id="paint3_linear" x1="40" y1="40" x2="40" y2="46" gradientUnits="userSpaceOnUse"><stop stop-color="#FFA526"/><stop offset="1" stop-color="#FF860D"/></linearGradient><linearGradient id="paint4_linear" x1="40" y1="74" x2="40" y2="80" gradientUnits="userSpaceOnUse"><stop stop-color="#FFA526"/><stop offset="1" stop-color="#FF860D"/></linearGradient><linearGradient id="paint5_linear" x1="78" y1="46" x2="78" y2="74" gradientUnits="userSpaceOnUse"><stop stop-color="#FFA526"/><stop offset="1" stop-color="#FF860D"/></linearGradient></defs></svg>