<svg viewBox="0 0 120 120" fill="none" xmlns="http://www.w3.org/2000/svg"><path fill-rule="evenodd" clip-rule="evenodd" d="M34.87 95h53.26c1.029 0 1.87-.85 1.87-1.91V35.624c0-.519-.187-.99-.537-1.344l-12.62-12.738A1.883 1.883 0 0075.51 21H34.87c-1.029 0-1.87.85-1.87 1.887v70.226C33 94.15 33.841 95 34.87 95zM86 91H37V25h37.6L86 36.555V91z" fill="url(#paint0_linear)"/><path d="M30 28v70h53V40.702L70.447 28H30z" fill="url(#paint1_linear)"/><path d="M56.398 44H38.602c-.88 0-1.601-.675-1.601-1.5s.72-1.5 1.602-1.5H56.4c.88 0 1.601.675 1.601 1.5s-.72 1.5-1.602 1.5zm9.985 10H38.617c-.89 0-1.617-.675-1.617-1.5s.727-1.5 1.617-1.5h27.766c.89 0 1.617.675 1.617 1.5s-.728 1.5-1.617 1.5zm0 10H38.617c-.89 0-1.617-.675-1.617-1.5s.727-1.5 1.617-1.5h27.766c.89 0 1.617.675 1.617 1.5s-.728 1.5-1.617 1.5zm0 9H38.617c-.89 0-1.617-.675-1.617-1.5s.727-1.5 1.617-1.5h27.766c.89 0 1.617.675 1.617 1.5s-.728 1.5-1.617 1.5z" fill="#fff"/><defs><linearGradient id="paint0_linear" x1="90" y1="21" x2="90" y2="95" gradientUnits="userSpaceOnUse"><stop stop-color="#FFA526"/><stop offset="1" stop-color="#FF860D"/></linearGradient><linearGradient id="paint1_linear" x1="83" y1="28" x2="83" y2="98" gradientUnits="userSpaceOnUse"><stop stop-color="#4070FF"/><stop offset="1" stop-color="#365FD9"/></linearGradient></defs></svg>