<svg viewBox="0 0 120 120" fill="none" xmlns="http://www.w3.org/2000/svg"><path d="M91.09 46.04H48.775c-2.133 0-3.614-5.04-5.822-5.04H26.914c-1.607 0-2.912 1.13-2.912 2.52v47.96c0 1.39 1.305 2.519 2.912 2.519H91.09c1.606 0 2.911-1.13 2.911-2.52V48.56c0-1.39-1.305-2.52-2.911-2.52z" fill="url(#paint0_linear)"/><path d="M88.969 52H29.036c-.564 0-1.034.448-1.034.986v36.028c0 .538.47.986 1.034.986h59.933c.563 0 1.033-.448 1.033-.986V52.986c0-.538-.47-.986-1.033-.986z" fill="#fff"/><path d="M69.01 64.989l-2.987 2.988 5.003 5.003-6 6-5.003-5.004-3.752 3.753a4.313 4.313 0 01-6.093.023l.07.07c-1.668-1.668-1.668-4.402.023-6.093L74.57 47.431a13.985 13.985 0 01-1.552-6.44C73.018 33.254 79.296 27 87.009 27 94.723 27 101 33.277 101 40.991c0 7.714-6.277 13.991-13.991 13.991a13.99 13.99 0 01-6.44-1.552l-5.559 5.56 4.007 4.007-5.999 6-4.007-4.008z" fill="url(#paint1_linear)"/><path d="M90.745 44.544a5.145 5.145 0 000-7.264 5.116 5.116 0 00-7.247 0 5.145 5.145 0 000 7.264 5.116 5.116 0 007.247 0z" fill="#fff"/><defs><linearGradient id="paint0_linear" x1="94.002" y1="41" x2="94.002" y2="94" gradientUnits="userSpaceOnUse"><stop stop-color="#FFA526"/><stop offset="1" stop-color="#FF860D"/></linearGradient><linearGradient id="paint1_linear" x1="101" y1="27" x2="101" y2="79" gradientUnits="userSpaceOnUse"><stop stop-color="#4070FF"/><stop offset="1" stop-color="#365FD9"/></linearGradient></defs></svg>