<svg viewBox="0 0 120 120" fill="none" xmlns="http://www.w3.org/2000/svg"><path fill-rule="evenodd" clip-rule="evenodd" d="M22.952 55h74.072c1.073 0 1.952-.822 1.976-1.879V30.879C99 29.845 98.122 29 97.048 29H22.952C21.878 29 21 29.846 21 30.879v22.242c0 1.033.878 1.879 1.952 1.879zM95 51H25V33h70v18z" fill="url(#paint0_linear)"/><path fill="url(#paint1_linear)" d="M36 33h49v57H36z"/><path fill="#fff" d="M66 34h11v49H66zM44 83c-1.1 0-2-.839-2-1.864V58.864c0-1.025.9-1.864 2-1.864s2 .839 2 1.864v22.272C46 82.185 45.1 83 44 83zm9 0c-1.1 0-2-.857-2-1.904V45.904c0-1.047.9-1.904 2-1.904s2 .857 2 1.904v35.192C55 82.167 54.1 83 53 83z"/><defs><linearGradient id="paint0_linear" x1="99" y1="29" x2="99" y2="55" gradientUnits="userSpaceOnUse"><stop stop-color="#FFA526"/><stop offset="1" stop-color="#FF860D"/></linearGradient><linearGradient id="paint1_linear" x1="85" y1="33" x2="85" y2="90" gradientUnits="userSpaceOnUse"><stop stop-color="#4070FF"/><stop offset="1" stop-color="#365FD9"/></linearGradient></defs></svg>