<svg viewBox="0 0 120 120" fill="none" xmlns="http://www.w3.org/2000/svg"><path d="M33 25v63h34V25H33z" fill="url(#paint0_linear)"/><path d="M71 73v15h15V73H71z" fill="url(#paint1_linear)"/><path d="M71 41v28h15V41H71z" fill="url(#paint2_linear)"/><path fill-rule="evenodd" clip-rule="evenodd" d="M28.199 29h62.624c1.21 0 2.199.975 2.177 2.166v61.451C93 93.94 91.922 95 90.58 95H28.42C27.077 95 26 93.939 26 92.617v-61.45c0-1.192.99-2.167 2.199-2.167zM30 91h58.978V39H30v52z" fill="url(#paint3_linear)"/><path d="M31 35c1.105 0 2-.672 2-1.5s-.895-1.5-2-1.5-2 .672-2 1.5.895 1.5 2 1.5zm6 0c1.105 0 2-.672 2-1.5s-.895-1.5-2-1.5-2 .672-2 1.5.895 1.5 2 1.5zm6 0c1.105 0 2-.672 2-1.5s-.895-1.5-2-1.5-2 .672-2 1.5.895 1.5 2 1.5zm6.178 37c-.434 0-.868-.173-1.194-.476l-9.446-8.98a1.734 1.734 0 01-.065-2.446 1.748 1.748 0 012.454-.065l7.904 7.53 9.967-15.753c.521-.8 1.585-1.06 2.389-.54.803.519 1.064 1.579.543 2.38L50.655 71.2a1.775 1.775 0 01-1.26.8h-.217z" fill="#fff"/><defs><linearGradient id="paint0_linear" x1="67" y1="25" x2="67" y2="88" gradientUnits="userSpaceOnUse"><stop stop-color="#4070FF"/><stop offset="1" stop-color="#365FD9"/></linearGradient><linearGradient id="paint1_linear" x1="86" y1="73" x2="86" y2="88" gradientUnits="userSpaceOnUse"><stop stop-color="#FFA526"/><stop offset="1" stop-color="#FF860D"/></linearGradient><linearGradient id="paint2_linear" x1="86" y1="41" x2="86" y2="69" gradientUnits="userSpaceOnUse"><stop stop-color="#4070FF"/><stop offset="1" stop-color="#365FD9"/></linearGradient><linearGradient id="paint3_linear" x1="93" y1="29" x2="93" y2="95" gradientUnits="userSpaceOnUse"><stop stop-color="#FFA526"/><stop offset="1" stop-color="#FF860D"/></linearGradient></defs></svg>