<svg viewBox="0 0 120 120" fill="none" xmlns="http://www.w3.org/2000/svg"><path d="M27 75l30.927-18.43a4.059 4.059 0 014.146 0L93 75 62.073 93.43a4.059 4.059 0 01-4.146 0L27 75z" fill="#fff"/><path fill-rule="evenodd" clip-rule="evenodd" d="M61.037 58.225a2.026 2.026 0 00-2.074 0L30.86 75l28.104 16.775a2.03 2.03 0 002.074 0L89.14 75 61.037 58.225zm-4.147-3.37a6.079 6.079 0 016.22 0l30.927 18.46c.598.358.963.996.963 1.685 0 .689-.365 1.328-.963 1.684L63.11 95.144a6.079 6.079 0 01-6.22 0l-30.927-18.46A1.964 1.964 0 0125 75c0-.689.365-1.328.963-1.684l30.927-18.46z" fill="url(#paint0_linear)"/><path d="M56.89 38.856a6.079 6.079 0 016.22 0l30.927 18.46c.598.356.963.995.963 1.684s-.365 1.328-.963 1.684L63.11 79.144a6.079 6.079 0 01-6.22 0l-30.927-18.46A1.964 1.964 0 0125 59c0-.689.365-1.328.963-1.684l30.927-18.46z" fill="url(#paint1_linear)"/><path fill-rule="evenodd" clip-rule="evenodd" d="M61.037 28.225a2.026 2.026 0 00-2.074 0L30.86 45l28.104 16.775a2.03 2.03 0 002.074 0L89.14 45 61.037 28.225zm-4.147-3.37a6.079 6.079 0 016.22 0l30.927 18.46c.598.358.963.996.963 1.685 0 .689-.365 1.328-.963 1.684L63.11 65.144a6.079 6.079 0 01-6.22 0l-30.927-18.46A1.964 1.964 0 0125 45c0-.689.365-1.328.963-1.684l30.927-18.46z" fill="url(#paint2_linear)"/><defs><linearGradient id="paint0_linear" x1="95" y1="54" x2="95" y2="96" gradientUnits="userSpaceOnUse"><stop stop-color="#FFA526"/><stop offset="1" stop-color="#FF860D"/></linearGradient><linearGradient id="paint1_linear" x1="95" y1="38" x2="95" y2="80" gradientUnits="userSpaceOnUse"><stop stop-color="#4070FF"/><stop offset="1" stop-color="#365FD9"/></linearGradient><linearGradient id="paint2_linear" x1="95" y1="24" x2="95" y2="66" gradientUnits="userSpaceOnUse"><stop stop-color="#FFA526"/><stop offset="1" stop-color="#FF860D"/></linearGradient></defs></svg>