<svg viewBox="0 0 120 120" fill="none" xmlns="http://www.w3.org/2000/svg"><path fill-rule="evenodd" clip-rule="evenodd" d="M77.235 24.152a2 2 0 012.18.434l19.798 19.8a2 2 0 010 2.828L79.414 67.013A2 2 0 0176 65.597v-9.57c-10.56.305-17.421 3.034-21.67 6.815C49.847 66.833 48 72.237 48 78a2 2 0 01-4 0c0-14.24 3.045-24.786 8.973-31.792C58.567 39.598 66.481 36.423 76 36.04V26a2 2 0 011.235-1.848z" fill="url(#paint0_linear)"/><path fill-rule="evenodd" clip-rule="evenodd" d="M38 32c-3.316 0-6 2.682-6 5.994v44.019A5.99 5.99 0 0038 88h44a6 6 0 006-6v-6a2 2 0 114 0v6c0 5.523-4.477 10-10 10H38c-5.519 0-10-4.46-10-9.987V37.994C28 32.47 32.479 28 38 28h6a2 2 0 110 4h-6z" fill="url(#paint1_linear)"/><defs><linearGradient id="paint0_linear" x1="99.799" y1="24" x2="99.799" y2="80" gradientUnits="userSpaceOnUse"><stop stop-color="#4070FF"/><stop offset="1" stop-color="#365FD9"/></linearGradient><linearGradient id="paint1_linear" x1="28" y1="92" x2="28" y2="28" gradientUnits="userSpaceOnUse"><stop stop-color="#FFA526"/><stop offset="1" stop-color="#FF860D"/></linearGradient></defs></svg>