<svg viewBox="0 0 120 120" fill="none" xmlns="http://www.w3.org/2000/svg"><circle cx="60" cy="60" r="29" fill="url(#paint0_linear)"/><path fill-rule="evenodd" clip-rule="evenodd" d="M60 27c-18.225 0-33 14.775-33 33s14.775 33 33 33 33-14.775 33-33-14.775-33-33-33zM23 60c0-20.434 16.566-37 37-37s37 16.566 37 37-16.566 37-37 37-37-16.566-37-37z" fill="url(#paint1_linear)"/><path fill-rule="evenodd" clip-rule="evenodd" d="M77.414 49.586a2 2 0 010 2.828L58.243 71.586a6 6 0 01-8.486 0l-8.171-8.172a2 2 0 112.828-2.828l8.172 8.171a2 2 0 002.828 0l19.172-19.171a2 2 0 012.828 0z" fill="#fff"/><defs><linearGradient id="paint0_linear" x1="89" y1="31" x2="89" y2="89" gradientUnits="userSpaceOnUse"><stop stop-color="#4070FF"/><stop offset="1" stop-color="#365FD9"/></linearGradient><linearGradient id="paint1_linear" x1="97" y1="23" x2="97" y2="97" gradientUnits="userSpaceOnUse"><stop stop-color="#FFA526"/><stop offset="1" stop-color="#FF860D"/></linearGradient></defs></svg>