<svg viewBox="0 0 120 120" fill="none" xmlns="http://www.w3.org/2000/svg"><path fill-rule="evenodd" clip-rule="evenodd" d="M76 58c-9.941 0-18 8.059-18 18s8.059 18 18 18c2.281 0 4.46-.424 6.462-1.194a2 2 0 011.462.01l7.187 2.874-1.62-6.48a2 2 0 01.398-1.76A17.918 17.918 0 0094 76c0-9.941-8.059-18-18-18zM54 76c0-12.15 9.85-22 22-22s22 9.85 22 22a21.91 21.91 0 01-4.391 13.19l2.331 9.325a2 2 0 01-2.683 2.342l-10.11-4.044A21.974 21.974 0 0176 98c-12.15 0-22-9.85-22-22z" fill="url(#paint0_linear)"/><path fill-rule="evenodd" clip-rule="evenodd" d="M22 52c0-16.569 13.431-30 30-30 16.569 0 30 13.431 30 30 0 16.569-13.431 30-30 30a29.874 29.874 0 01-14.41-3.682l-8.847 3.539a2 2 0 01-2.683-2.342l2.27-9.081A29.879 29.879 0 0122 52z" fill="url(#paint1_linear)"/><path d="M50.872 55.936c-.565 0-1.033-.45-.954-.997.117-.815.386-1.518.807-2.108.61-.819 1.486-1.722 2.629-2.709.838-.722 1.447-1.324 1.828-1.805.406-.506.61-1.072.61-1.698 0-.89-.382-1.588-1.143-2.094-.737-.53-1.727-.794-2.971-.794-1.194 0-2.26.24-3.2.722a6.46 6.46 0 00-1.74 1.27c-.358.366-.923.49-1.373.24l-2.858-1.59c-.518-.288-.679-.95-.295-1.396.974-1.13 2.187-2.035 3.638-2.713C47.678 39.42 49.837 39 52.325 39c2.92 0 5.257.59 7.009 1.77C61.11 41.95 62 43.585 62 45.68c0 .988-.178 1.854-.533 2.6a6.576 6.576 0 01-1.257 1.914 26.593 26.593 0 01-1.905 1.77c-.94.794-1.625 1.468-2.056 2.022a2.778 2.778 0 00-.51.963c-.16.53-.596.987-1.16.987h-3.707zM52.744 65c-1.04 0-1.917-.313-2.628-.939-.685-.65-1.028-1.432-1.028-2.347s.343-1.673 1.028-2.275c.686-.626 1.562-.939 2.628-.939 1.067 0 1.943.313 2.628.939.686.602 1.029 1.36 1.029 2.275 0 .915-.356 1.697-1.067 2.347-.685.626-1.549.939-2.59.939z" fill="#fff"/><defs><linearGradient id="paint0_linear" x1="98" y1="54" x2="98" y2="101" gradientUnits="userSpaceOnUse"><stop stop-color="#FFA526"/><stop offset="1" stop-color="#FF860D"/></linearGradient><linearGradient id="paint1_linear" x1="82" y1="22" x2="82" y2="82" gradientUnits="userSpaceOnUse"><stop stop-color="#4070FF"/><stop offset="1" stop-color="#365FD9"/></linearGradient></defs></svg>