<svg viewBox="0 0 120 120" fill="none" xmlns="http://www.w3.org/2000/svg"><path d="M55.235 20.152a2 2 0 012.18.434l16 16a2 2 0 010 2.828l-16 16A2 2 0 0154 54v-5.935c-8.587.567-15.101 1.935-19.89 13.986-.071.18-.14.363-.202.547a2 2 0 01-3.82-.01 35.59 35.59 0 01-.332-1.169 60.376 60.376 0 01-.71-2.934C28.532 56.118 28 52.958 28 50c0-5.546 2.226-11.102 6.927-15.25 4.355-3.843 10.7-6.364 19.073-6.71V22a2 2 0 011.235-1.848z" fill="url(#paint0_linear)"/><path fill-rule="evenodd" clip-rule="evenodd" d="M64.765 99.848a2 2 0 01-2.18-.434l-16-16a2 2 0 010-2.828l16-16A2 2 0 0166 66v5.935c7.693-.508 12.596-3.916 15.643-7.278a23.568 23.568 0 003.498-5.066 19.44 19.44 0 00.748-1.642c.072-.18.142-.363.203-.547a2 2 0 013.82.01c.118.387.226.778.331 1.169.195.72.453 1.739.712 2.934C91.467 63.882 92 67.042 92 70c0 5.546-2.226 11.102-6.927 15.25-4.355 3.843-10.7 6.364-19.073 6.71V98a2 2 0 01-1.235 1.848zm22.569-36.062a27.47 27.47 0 01-2.727 3.557C80.66 71.698 74.144 76 64 76a2 2 0 01-2-2v-3.172L50.828 82 62 93.172V90a2 2 0 012-2c8.632 0 14.623-2.393 18.427-5.75C86.226 78.898 88 74.454 88 70c0-2.03-.298-4.252-.666-6.214z" fill="url(#paint1_linear)"/><defs><linearGradient id="paint0_linear" x1="74" y1="20" x2="74" y2="64" gradientUnits="userSpaceOnUse"><stop stop-color="#4070FF"/><stop offset="1" stop-color="#365FD9"/></linearGradient><linearGradient id="paint1_linear" x1="92" y1="56" x2="92" y2="100" gradientUnits="userSpaceOnUse"><stop stop-color="#FFA526"/><stop offset="1" stop-color="#FF860D"/></linearGradient></defs></svg>