<svg width="24" height="24" fill="none" xmlns="http://www.w3.org/2000/svg"><g clip-path="url(#clip0)"><path d="M12 24.001c6.628 0 12.001-5.373 12.001-12 0-6.628-5.373-12.001-12-12.001C5.373 0 0 5.373 0 12c0 6.628 5.373 12.001 12 12.001z" fill="#616161"/><path d="M12 19.637A7.636 7.636 0 014.365 12 7.636 7.636 0 0117.4 6.6l3.086-3.086A11.964 11.964 0 0012 0C5.374 0 0 5.373 0 12c0 6.628 5.373 12.001 12 12.001a11.97 11.97 0 008.487-3.514L17.4 17.4a7.623 7.623 0 01-5.4 2.236z" fill="#9E9E9E"/><path d="M19.637 12h-3.819a3.82 3.82 0 00-7.636 0c0 1.027.406 1.959 1.066 2.646l-.003.003 4.728 4.728h.001a7.639 7.639 0 005.663-7.376z" fill="#424242"/><path d="M24 12h-4.365a7.64 7.64 0 01-5.661 7.378l3.37 3.37A12 12 0 0023.999 12z" fill="#616161"/><path d="M12 23.864C5.397 23.864.04 18.528.002 11.932L0 12c0 6.627 5.373 12 12 12 6.628 0 12.001-5.373 12.001-12L24 11.93c-.038 6.597-5.396 11.933-12 11.933z" fill="#212121" fill-opacity=".1"/><path d="M13.976 19.378l.106.106a7.638 7.638 0 005.555-7.347V12a7.64 7.64 0 01-5.661 7.377z" fill="#fff" fill-opacity=".05"/><path d="M21.819 10.91H12a1.09 1.09 0 100 2.18h9.818a1.09 1.09 0 000-2.18z" fill="#9E9E9E"/><path opacity=".5" d="M21.819 10.91H12a1.09 1.09 0 100 2.18h9.818a1.09 1.09 0 000-2.18z" fill="#BDBDBD"/><path d="M2.181 12.819a.818.818 0 100-1.637.818.818 0 000 1.636zM12 3a.818.818 0 100-1.637A.818.818 0 0012 3zM12 22.637A.818.818 0 1012 21a.818.818 0 000 1.637zM5.046 5.876a.818.818 0 100-1.637.818.818 0 000 1.637zM5.046 19.773a.818.818 0 100-1.636.818.818 0 000 1.636z" fill="#BDBDBD"/><path d="M18.955 19.773a.818.818 0 100-1.636.818.818 0 000 1.636z" fill="#757575"/><path d="M12 11.046h9.819c.58 0 1.053.453 1.087 1.023 0-.023.004-.045.004-.069a1.09 1.09 0 00-1.091-1.09H12a1.09 1.09 0 00-1.087 1.16 1.088 1.088 0 011.087-1.024z" fill="#fff" fill-opacity=".2"/><path d="M22.906 12.068a1.092 1.092 0 01-1.087 1.023H12a1.09 1.09 0 01-1.087-1.023 1.09 1.09 0 001.087 1.159h9.818a1.09 1.09 0 001.087-1.159z" fill="#212121" fill-opacity=".2"/><path d="M12 4.5c2.109 0 4.018.855 5.4 2.237l3.153-3.154-.068-.069L17.4 6.6A7.636 7.636 0 004.364 12l.001.068a7.635 7.635 0 017.636-7.567z" fill="#212121" fill-opacity=".1"/><path d="M12 24.001c6.628 0 12.001-5.373 12.001-12 0-6.628-5.373-12.001-12-12.001C5.373 0 0 5.373 0 12c0 6.628 5.373 12.001 12 12.001z" fill="url(#paint0_radial)"/></g><defs><radialGradient id="paint0_radial" cx="0" cy="0" r="1" gradientUnits="userSpaceOnUse" gradientTransform="translate(3.52 3.492) scale(23.9595)"><stop stop-color="#fff" stop-opacity=".1"/><stop offset="1" stop-color="#fff" stop-opacity="0"/></radialGradient><clipPath id="clip0"><path fill="#fff" d="M0 0h24v24H0z"/></clipPath></defs></svg>