<svg width="96" height="16" fill="none" xmlns="http://www.w3.org/2000/svg"><path d="M5.691 4.526c0 .594-.21 1.048-.628 1.36-.42.312-1.033.468-1.84.468H1.649a.367.367 0 01-.36-.44l.47-2.35a.367.367 0 01.36-.295h1.675c1.265 0 1.897.419 1.897 1.257zm-.983 5.291c-.335-.22-.792-.331-1.371-.331H.863a.367.367 0 00-.36.296l-.496 2.51a.367.367 0 00.36.44h2.261c.808 0 1.44-.16 1.897-.48.458-.32.686-.793.686-1.418 0-.457-.168-.796-.503-1.017zm12.036 1.017c0-.457-.168-.796-.503-1.017-.335-.22-.792-.331-1.371-.331h-2.776l-.64 3.245h2.707c.807 0 1.44-.16 1.897-.48.457-.32.686-.792.686-1.417zm.48-6.308c0-.838-.632-1.258-1.897-1.258h-1.976l-.617 3.086h2.021c.808 0 1.421-.156 1.84-.468.42-.312.63-.766.63-1.36zm3.463 4.491c.373.541.56 1.177.56 1.909 0 1.66-.678 2.922-2.034 3.782C17.856 15.57 16.089 16 13.91 16H5.122a.135.135 0 01-.029-.267c.984-.213 1.846-.555 2.586-1.024 1.356-.861 2.035-2.122 2.035-3.783 0-.732-.187-1.368-.56-1.908-.29-.42-.675-.77-1.155-1.048a.244.244 0 01.01-.429c.689-.358 1.242-.818 1.66-1.38.502-.678.754-1.482.754-2.412 0-1.203-.477-2.129-1.429-2.777a4.47 4.47 0 00-.8-.428A.283.283 0 018.3 0h8.1c1.798 0 3.173.324 4.126.972.952.648 1.428 1.573 1.428 2.777 0 .93-.252 1.733-.754 2.411-.503.678-1.204 1.208-2.103 1.59.686.304 1.216.726 1.59 1.267zM35.777 8.935c.202.292.303.648.303 1.068 0 .898-.354 1.577-1.062 2.038-.709.46-1.651.691-2.828.691h-4.532l1.729-8.645h4.174c.93 0 1.646.171 2.149.513.502.341.753.83.753 1.463 0 .527-.138.978-.413 1.353-.276.375-.653.66-1.13.858.37.148.655.368.857.66zm-2.154 1.97c.312-.215.469-.524.469-.927 0-.593-.432-.89-1.297-.89h-2.42l-.42 2.137h2.359c.56 0 .995-.106 1.309-.32zm-2.557-5.311l-.407 2.037h2.037c.527 0 .937-.104 1.229-.314.292-.21.438-.513.438-.908 0-.543-.424-.815-1.272-.815h-2.025zM38.303 6.088h1.915l-1.322 6.644h-1.914l1.322-6.644zm.476-1.217a.928.928 0 01-.315-.71c0-.33.117-.603.352-.821.234-.218.54-.327.92-.327.337 0 .611.093.821.278.21.185.315.413.315.685 0 .354-.12.64-.358.858-.239.219-.548.328-.927.328-.33 0-.598-.097-.808-.29zM43.305 10.385a1.153 1.153 0 00-.025.272c0 .428.235.642.704.642.255 0 .514-.078.778-.235l.284 1.37c-.428.264-.98.396-1.655.396-.625 0-1.128-.164-1.506-.494-.379-.33-.568-.782-.568-1.358 0-.165.02-.358.061-.58l.531-2.68h-1.025l.296-1.483h1.025l.321-1.618h1.927l-.32 1.618h1.654l-.296 1.482h-1.655l-.531 2.668zM47.565 12.46a2.75 2.75 0 01-1.18-1.044c-.275-.449-.413-.97-.413-1.562 0-.733.173-1.391.519-1.976a3.711 3.711 0 011.444-1.383c.618-.338 1.314-.507 2.088-.507.708 0 1.319.147 1.834.439.514.292.899.706 1.154 1.24l-1.63.816c-.288-.6-.782-.902-1.482-.902-.378 0-.718.093-1.019.278a1.91 1.91 0 00-.704.772c-.169.33-.253.704-.253 1.124 0 .453.136.814.408 1.081.271.268.65.402 1.136.402.708 0 1.251-.297 1.63-.89l1.42.89c-.321.502-.76.893-1.315 1.173-.556.28-1.172.42-1.847.42-.683 0-1.28-.124-1.79-.371zM54.771 12.46a2.757 2.757 0 01-1.173-1.044c-.275-.449-.413-.97-.413-1.562 0-.733.172-1.391.518-1.976a3.732 3.732 0 011.433-1.383c.609-.338 1.297-.507 2.062-.507.675 0 1.264.124 1.766.37.502.248.891.595 1.167 1.044.276.45.414.97.414 1.563 0 .732-.171 1.391-.513 1.976a3.675 3.675 0 01-1.432 1.383c-.614.338-1.303.506-2.069.506-.666 0-1.253-.123-1.76-.37zm2.884-1.5c.296-.186.527-.443.692-.773.164-.329.247-.708.247-1.136 0-.452-.132-.81-.395-1.074-.264-.264-.634-.395-1.112-.395-.378 0-.716.093-1.013.278a1.884 1.884 0 00-.691.772c-.165.33-.247.708-.247 1.136 0 .453.133.811.401 1.074.267.264.64.396 1.118.396.37 0 .704-.093 1-.278zM62.459 6.088h1.914l-1.321 6.644h-1.915l1.322-6.644zm.475-1.217a.928.928 0 01-.314-.71c0-.33.117-.603.351-.821.235-.218.541-.327.92-.327.338 0 .612.093.822.278.21.185.315.413.315.685 0 .354-.12.64-.358.858-.24.219-.548.328-.927.328-.33 0-.599-.097-.809-.29zM71.795 6.576c.436.39.655.949.655 1.673 0 .272-.029.54-.087.803l-.74 3.68h-1.927l.716-3.556a2 2 0 00.05-.457c0-.346-.095-.61-.285-.79-.189-.181-.473-.272-.852-.272-.494 0-.904.142-1.228.426-.326.284-.546.71-.661 1.278l-.667 3.371h-1.927l1.321-6.644h1.828l-.148.716c.593-.543 1.322-.815 2.186-.815.741 0 1.33.195 1.766.587zM81.62 8.935c.201.292.302.648.302 1.068 0 .898-.354 1.577-1.062 2.038-.709.46-1.65.691-2.828.691H73.5l1.728-8.645h4.175c.93 0 1.646.171 2.149.513.502.341.753.83.753 1.463 0 .527-.138.978-.414 1.353-.275.375-.652.66-1.13.858.37.148.657.368.859.66zm-2.155 1.97c.312-.215.469-.524.469-.927 0-.593-.432-.89-1.296-.89h-2.421l-.42 2.137h2.359c.56 0 .995-.106 1.309-.32zm-2.557-5.311l-.407 2.037h2.038c.526 0 .936-.104 1.228-.314.293-.21.439-.513.439-.908 0-.543-.425-.815-1.273-.815h-2.025zM84.534 12.46a2.757 2.757 0 01-1.174-1.044c-.275-.449-.413-.97-.413-1.562 0-.733.173-1.391.519-1.976a3.732 3.732 0 011.432-1.383c.61-.338 1.297-.507 2.062-.507.676 0 1.264.124 1.766.37.502.248.892.595 1.167 1.044.276.45.414.97.414 1.563 0 .732-.171 1.391-.513 1.976a3.675 3.675 0 01-1.432 1.383c-.614.338-1.303.506-2.069.506-.666 0-1.253-.123-1.76-.37zm2.884-1.5c.296-.186.526-.443.691-.773.165-.329.247-.708.247-1.136 0-.452-.132-.81-.395-1.074s-.634-.395-1.111-.395c-.379 0-.717.093-1.013.278a1.884 1.884 0 00-.692.772c-.165.33-.247.708-.247 1.136 0 .453.134.811.402 1.074.267.264.64.396 1.117.396.37 0 .704-.093 1-.278zM93.518 10.385a1.153 1.153 0 00-.024.272c0 .428.234.642.704.642.255 0 .514-.078.778-.235l.284 1.37c-.428.264-.98.396-1.655.396-.625 0-1.128-.164-1.507-.494-.378-.33-.567-.782-.567-1.358 0-.165.02-.358.061-.58l.53-2.68h-1.024l.296-1.483h1.025l.321-1.618h1.927l-.321 1.618H96l-.296 1.482H94.05l-.532 2.668z" fill="#FF9E65"/></svg>