<svg width="144" height="24" fill="none" xmlns="http://www.w3.org/2000/svg"><path d="M8.537 6.788c0 .892-.315 1.572-.943 2.04-.629.469-1.549.703-2.76.703H2.473a.55.55 0 01-.54-.659l.706-3.526a.551.551 0 01.54-.443H5.69c1.897 0 2.846.629 2.846 1.885zm-1.475 7.938c-.502-.331-1.188-.498-2.057-.498H1.294a.55.55 0 00-.54.444L.01 18.44a.551.551 0 00.54.658h3.391c1.212 0 2.16-.24 2.846-.72.686-.48 1.029-1.188 1.029-2.126 0-.685-.252-1.194-.755-1.525zm18.054 1.526c0-.686-.252-1.194-.754-1.526-.503-.331-1.189-.498-2.058-.498H18.14l-.96 4.869h4.061c1.211 0 2.16-.24 2.846-.72.686-.48 1.029-1.188 1.029-2.125zm.72-9.464c0-1.257-.948-1.885-2.845-1.885h-2.964L19.1 9.53h3.032c1.212 0 2.131-.234 2.76-.703.628-.468.943-1.148.943-2.04zm5.195 6.738c.56.812.84 1.766.84 2.862 0 2.492-1.017 4.383-3.052 5.675C26.784 23.354 24.133 24 20.865 24H7.683a.202.202 0 01-.043-.4c1.476-.32 2.77-.832 3.88-1.537 2.033-1.291 3.05-3.182 3.05-5.674 0-1.097-.28-2.051-.84-2.863A5.289 5.289 0 0012 11.955a.366.366 0 01.014-.643c1.034-.537 1.864-1.227 2.49-2.07.754-1.018 1.131-2.223 1.131-3.618 0-1.806-.715-3.194-2.143-4.166a6.706 6.706 0 00-1.2-.642.424.424 0 01.161-.816h12.15c2.697 0 4.76.486 6.188 1.457 1.428.972 2.143 2.36 2.143 4.166 0 1.395-.378 2.6-1.132 3.618-.754 1.017-1.806 1.812-3.154 2.383 1.029.456 1.823 1.09 2.384 1.902zM53.666 13.401c.302.439.453.973.453 1.603 0 1.346-.53 2.365-1.593 3.056-1.062.692-2.476 1.037-4.242 1.037h-6.798L44.08 6.13h6.261c1.396 0 2.47.256 3.223.769.753.512 1.13 1.244 1.13 2.195 0 .79-.206 1.467-.62 2.029-.414.562-.979.991-1.695 1.287.555.222.984.552 1.287.991zm-3.232 2.954c.469-.32.703-.784.703-1.39 0-.888-.648-1.333-1.945-1.333h-3.63l-.63 3.205h3.538c.84 0 1.494-.16 1.964-.482zM46.598 8.39l-.61 3.056h3.056c.79 0 1.405-.157 1.843-.472.438-.315.658-.769.658-1.361 0-.815-.636-1.223-1.908-1.223h-3.039zM57.455 9.13h2.871l-1.982 9.967h-2.872l1.983-9.966zm.713-1.824a1.392 1.392 0 01-.473-1.065c0-.494.176-.905.528-1.232.352-.327.812-.49 1.38-.49.506 0 .917.139 1.232.417.315.277.472.62.472 1.027 0 .531-.178.961-.537 1.288-.358.328-.821.49-1.39.49-.494 0-.897-.144-1.212-.435zM64.957 15.578a1.73 1.73 0 00-.038.407c0 .642.353.963 1.056.963.383 0 .772-.117 1.168-.352l.426 2.056c-.642.396-1.47.593-2.482.593-.939 0-1.692-.247-2.26-.741-.568-.494-.852-1.173-.852-2.038 0-.246.03-.537.092-.87l.796-4.02h-1.538l.445-2.223h1.538l.48-2.427h2.891l-.481 2.427h2.482l-.444 2.223h-2.482l-.797 4.002zM71.348 18.69c-.766-.37-1.356-.893-1.769-1.566-.414-.673-.62-1.454-.62-2.344 0-1.099.259-2.086.777-2.964a5.566 5.566 0 012.167-2.074c.927-.507 1.97-.76 3.131-.76 1.063 0 1.979.22 2.751.658a4.145 4.145 0 011.732 1.861l-2.445 1.223c-.432-.901-1.174-1.352-2.223-1.352-.568 0-1.077.139-1.528.417-.451.278-.803.664-1.056 1.158-.254.494-.38 1.056-.38 1.686 0 .679.204 1.22.611 1.621.408.401.976.602 1.704.602 1.063 0 1.878-.445 2.445-1.334l2.13 1.334a4.909 4.909 0 01-1.972 1.76c-.833.42-1.757.63-2.77.63-1.024 0-1.92-.186-2.685-.557zM82.157 18.69c-.76-.37-1.347-.893-1.76-1.566-.413-.673-.62-1.454-.62-2.344 0-1.099.259-2.086.778-2.964a5.598 5.598 0 012.148-2.074c.914-.507 1.945-.76 3.094-.76 1.013 0 1.895.185 2.649.556.753.37 1.337.892 1.75 1.565.413.673.62 1.454.62 2.344 0 1.099-.256 2.087-.768 2.964a5.512 5.512 0 01-2.149 2.074c-.92.507-1.954.76-3.103.76-1 0-1.88-.185-2.64-.556zm4.325-2.251c.445-.278.79-.664 1.037-1.158.248-.494.371-1.062.371-1.704 0-.68-.198-1.216-.593-1.612-.395-.395-.95-.593-1.667-.593-.567 0-1.075.14-1.52.417-.443.278-.79.665-1.037 1.158-.247.494-.37 1.063-.37 1.704 0 .68.2 1.217.602 1.612.4.395.96.593 1.676.593.557 0 1.056-.14 1.501-.417zM93.688 9.13h2.872l-1.983 9.967h-2.871l1.982-9.966zm.714-1.824a1.392 1.392 0 01-.473-1.065c0-.494.176-.905.528-1.232.352-.327.812-.49 1.38-.49.506 0 .917.139 1.232.417.315.277.472.62.472 1.027 0 .531-.178.961-.537 1.288-.358.328-.821.49-1.39.49-.494 0-.897-.144-1.212-.435zM107.693 9.863c.654.587.981 1.424.981 2.51 0 .408-.043.809-.129 1.204l-1.111 5.521h-2.891l1.075-5.335a3.01 3.01 0 00.074-.685c0-.52-.142-.914-.426-1.186-.284-.271-.71-.407-1.278-.407-.741 0-1.356.213-1.843.639-.488.426-.819 1.065-.992 1.917l-1 5.057h-2.89l1.982-9.967h2.741l-.222 1.075c.889-.815 1.983-1.223 3.279-1.223 1.112 0 1.995.293 2.65.88zM122.429 13.401c.302.439.454.973.454 1.603 0 1.346-.531 2.365-1.594 3.056-1.062.692-2.475 1.037-4.242 1.037h-6.798l2.593-12.967h6.262c1.395 0 2.469.256 3.223.769.753.512 1.13 1.244 1.13 2.195 0 .79-.207 1.467-.62 2.029-.414.562-.979.991-1.695 1.287.555.222.984.552 1.287.991zm-3.232 2.954c.468-.32.703-.784.703-1.39 0-.888-.648-1.333-1.944-1.333h-3.631l-.63 3.205h3.538c.839 0 1.494-.16 1.964-.482zm-3.835-7.965l-.611 3.056h3.057c.79 0 1.404-.157 1.843-.472.438-.315.657-.769.657-1.361 0-.815-.636-1.223-1.908-1.223h-3.038zM126.8 18.69c-.759-.37-1.346-.893-1.759-1.566-.414-.673-.621-1.454-.621-2.344 0-1.099.259-2.086.778-2.964a5.602 5.602 0 012.149-2.074c.914-.507 1.945-.76 3.094-.76 1.012 0 1.895.185 2.649.556.753.37 1.336.892 1.75 1.565.413.673.62 1.454.62 2.344 0 1.099-.256 2.087-.768 2.964a5.516 5.516 0 01-2.149 2.074c-.92.507-1.954.76-3.103.76-1 0-1.879-.185-2.64-.556zm4.326-2.251a2.815 2.815 0 001.038-1.158c.247-.494.371-1.062.371-1.704 0-.68-.198-1.216-.593-1.612-.396-.395-.951-.593-1.668-.593a2.81 2.81 0 00-1.519.417c-.444.278-.79.665-1.037 1.158-.247.494-.37 1.063-.37 1.704 0 .68.2 1.217.601 1.612.401.395.96.593 1.677.593.555 0 1.055-.14 1.5-.417zM140.278 15.578a1.682 1.682 0 00-.038.407c0 .642.353.963 1.056.963.383 0 .772-.117 1.168-.352l.426 2.056c-.642.396-1.47.593-2.482.593-.939 0-1.692-.247-2.26-.741-.568-.494-.852-1.173-.852-2.038 0-.246.03-.537.092-.87l.796-4.02h-1.538l.445-2.223h1.538l.481-2.427H142l-.481 2.427h2.482l-.444 2.223h-2.483l-.796 4.002z" fill="#FF9E65"/></svg>