<svg width="16" height="16" fill="none" xmlns="http://www.w3.org/2000/svg"><path d="M4.147 5.298c0 .433-.152.764-.458.991-.305.228-.752.342-1.34.342H1.2a.268.268 0 01-.262-.32l.343-1.714a.268.268 0 01.262-.215h1.22c.923 0 1.383.306 1.383.916zm-.716 3.856c-.244-.16-.577-.241-1-.241H.63a.268.268 0 00-.263.215l-.36 1.83a.268.268 0 00.262.32h1.647c.589 0 1.05-.117 1.383-.35.333-.233.5-.577.5-1.033 0-.332-.123-.58-.367-.74zm8.771.742c0-.334-.122-.58-.366-.742-.244-.16-.578-.241-1-.241H8.813l-.466 2.365h1.973c.588 0 1.05-.117 1.382-.35.334-.233.5-.577.5-1.032zm.35-4.598c0-.61-.46-.916-1.382-.916H9.73L9.28 6.63h1.473c.589 0 1.036-.114 1.341-.342.305-.227.458-.558.458-.99zm2.524 3.273c.272.395.408.858.408 1.391 0 1.21-.494 2.13-1.483 2.757-.988.628-2.276.941-3.864.941H3.733a.098.098 0 01-.021-.194c.717-.156 1.345-.405 1.884-.747.989-.627 1.483-1.546 1.483-2.757 0-.533-.136-.996-.408-1.39a2.57 2.57 0 00-.842-.764.178.178 0 01.007-.312c.503-.261.906-.596 1.21-1.006.366-.494.55-1.08.55-1.758 0-.877-.348-1.551-1.041-2.024a3.257 3.257 0 00-.584-.312A.206.206 0 016.05 2h5.903c1.31 0 2.312.236 3.006.708S16 3.855 16 4.732c0 .677-.183 1.263-.55 1.757-.366.495-.877.88-1.532 1.158.5.222.886.53 1.158.924z" fill="#FF9E65"/></svg>