<svg width="72" height="72" fill="none" xmlns="http://www.w3.org/2000/svg"><g filter="url(#filter0_d)"><rect x="16" y="16" width="40" height="40" rx="20" fill="url(#paint0_linear)"/></g><path d="M43.325 38.845c0 1.28-.468 2.38-1.404 3.3-.936.905-2.286 1.466-4.049 1.685v2.621h-2.34v-2.55a12.732 12.732 0 01-3.3-.61c-1.046-.343-1.888-.764-2.528-1.263l1.287-2.855a8.485 8.485 0 002.083 1.1 9.53 9.53 0 002.458.561v-3.908c-1.108-.266-2.044-.562-2.809-.89a5.002 5.002 0 01-1.919-1.427c-.515-.64-.772-1.483-.772-2.528 0-1.295.468-2.403 1.404-3.323.952-.937 2.317-1.506 4.096-1.709v-2.598h2.34v2.551c1.92.156 3.503.632 4.751 1.428l-1.17 2.879c-1.17-.671-2.364-1.077-3.58-1.217v3.978c1.091.25 2.012.539 2.76.866a4.707 4.707 0 011.92 1.428c.515.624.772 1.451.772 2.48zM33.8 31.894c0 .39.148.71.445.96.296.249.725.46 1.287.631v-3.323c-.593.14-1.03.367-1.31.678a1.48 1.48 0 00-.422 1.054zm4.072 8.846c.562-.124.983-.327 1.264-.608.28-.28.421-.616.421-1.006s-.148-.71-.444-.96c-.281-.25-.695-.468-1.24-.655v3.23z" fill="#fff"/><defs><linearGradient id="paint0_linear" x1="56" y1="16" x2="16" y2="56" gradientUnits="userSpaceOnUse"><stop stop-color="#6CD9B5"/><stop offset="1" stop-color="#36B374"/></linearGradient><filter id="filter0_d" x="8" y="12" width="56" height="56" filterUnits="userSpaceOnUse" color-interpolation-filters="sRGB"><feFlood flood-opacity="0" result="BackgroundImageFix"/><feColorMatrix in="SourceAlpha" values="0 0 0 0 0 0 0 0 0 0 0 0 0 0 0 0 0 0 127 0"/><feOffset dy="4"/><feGaussianBlur stdDeviation="4"/><feColorMatrix values="0 0 0 0 0.317647 0 0 0 0 0.823529 0 0 0 0 0.368627 0 0 0 0.3 0"/><feBlend in2="BackgroundImageFix" result="effect1_dropShadow"/><feBlend in="SourceGraphic" in2="effect1_dropShadow" result="shape"/></filter></defs></svg>