<svg width="56" height="56" fill="none" xmlns="http://www.w3.org/2000/svg"><g filter="url(#filter0_d)"><rect x="8" y="4" width="40" height="40" rx="20" fill="url(#paint0_linear)"/></g><path d="M26.246 27.09c0-.95.21-1.73.627-2.338.419-.627 1.027-1.312 1.826-2.053.551-.514.96-.941 1.226-1.284.266-.36.4-.741.4-1.14 0-.552-.238-.99-.714-1.312-.456-.343-1.055-.514-1.796-.514-.76 0-1.455.18-2.082.542a4.188 4.188 0 00-1.483 1.512L20 18.22c.78-1.33 1.882-2.367 3.308-3.109C24.734 14.371 26.455 14 28.471 14c2.262 0 4.078.475 5.447 1.426C35.306 16.358 36 17.67 36 19.362c0 .78-.133 1.473-.4 2.082a5.734 5.734 0 01-.969 1.511c-.361.4-.837.856-1.426 1.37-.646.55-1.122 1.026-1.426 1.425-.304.38-.456.828-.456 1.34h-5.077zm2.538 7.53c-.931 0-1.701-.285-2.31-.855-.608-.59-.913-1.303-.913-2.14 0-.855.295-1.558.885-2.11.608-.551 1.388-.827 2.338-.827.951 0 1.73.276 2.339.827.608.552.913 1.255.913 2.11 0 .837-.305 1.55-.913 2.14-.608.57-1.388.855-2.339.855z" fill="#fff"/><defs><linearGradient id="paint0_linear" x1="48" y1="4" x2="8" y2="44" gradientUnits="userSpaceOnUse"><stop stop-color="#B5B5B5"/><stop offset="1" stop-color="#838383"/></linearGradient><filter id="filter0_d" x="0" y="0" width="56" height="56" filterUnits="userSpaceOnUse" color-interpolation-filters="sRGB"><feFlood flood-opacity="0" result="BackgroundImageFix"/><feColorMatrix in="SourceAlpha" values="0 0 0 0 0 0 0 0 0 0 0 0 0 0 0 0 0 0 127 0"/><feOffset dy="4"/><feGaussianBlur stdDeviation="4"/><feColorMatrix values="0 0 0 0 0.7125 0 0 0 0 0.7125 0 0 0 0 0.7125 0 0 0 0.3 0"/><feBlend in2="BackgroundImageFix" result="effect1_dropShadow"/><feBlend in="SourceGraphic" in2="effect1_dropShadow" result="shape"/></filter></defs></svg>