<svg xmlns="http://www.w3.org/2000/svg" viewBox="0 0 1591.81 462.62"><g data-name="Layer 2"><g data-name="Layer 1"><path fill="#02607a" d="M1342.79 462.62c-3.57-2.36-7-4.55-10.39-6.88-45.73-31.53-84.07-70.57-117.23-115q-87.47-117.12-175.27-234c-.48-.64-1-1.24-2.41-2.88v264.21c0 29 9.7 53.48 34.7 70.28a9.59 9.59 0 011.25 1.53H954.66c1-2 2.68-2.76 4-3.79 20.78-15.72 31.71-36.8 31.78-62.63.29-104.17.1-208.33 0-312.5 0-21.68-9.12-39.52-23.52-55.09-1.45-1.57-2.83-3.21-4.25-4.83 1.14-1.51 2.58-.83 3.77-.84 27.5 0 55 0 82.5-.12 3.27 0 5 1.14 6.88 3.65q60.84 83.34 121.85 166.58 56.4 77 112.88 154c1 1.42 2.2 2.76 3.35 4.21 1.7-1.38 1-3 1-4.34q.06-128.51 0-257a117.14 117.14 0 00-1.57-20.9c-3-16.42-11.07-29.82-23.73-40.55-1.87-1.59-3.75-3.16-6.19-5.21h115.68c-2.82 2-5.19 3.82-7.63 5.51-18.58 12.87-26.77 31.19-27.85 53.2-.24 4.82-.22 9.66-.22 14.49v382.5c.12 1.9.61 3.9-.6 6.4zM556.15 434c10.47-7.89 18.17-18 24.34-29.37a58.47 58.47 0 007.42-28.63c-.13-105.49-.38-211 .21-316.45.1-18.31-6.74-32.07-19-44.25a155.59 155.59 0 00-16.88-14.2c.87-1.68 2.36-.85 3.46-.85 61.49 0 123-.65 184.46.21C771.65.9 802 8.16 828.81 25.8s38.41 42.65 35.11 74.72c-2.43 23.58-9.92 44.76-27.37 61.57-8.59 8.28-18.73 14.25-30.79 19.43 3.31 1.23 5.65 2.06 8 3 19.15 7.48 37.48 16.44 53.33 29.82 21.68 18.29 35.32 41 37.67 69.66 3.26 39.86-6.68 75.38-36.18 103.76-18.68 18-41.57 28.5-66.25 35.49-29.17 8.25-59 11.83-89.22 11.85q-75.74.06-151.47 0h-4.84c-.24-.39-.44-.76-.65-1.1zm98.43-129.79c0 28.16.06 56.31-.08 84.46 0 3.52 1 4.45 4.44 4.41 16.66-.18 33.32 0 50-.12 16.85-.17 33.62-1.26 50.12-5 17.93-4.06 34.46-11 48.63-23 33.48-28.39 31.94-83.31 5.88-113.5-20.42-23.65-47.74-32.33-77.5-35.15-25.58-2.41-51.27-.54-76.91-1.15-3.73-.09-4.67.87-4.65 4.62.14 28.1.07 56.22.07 84.41zm0-196.46c0 21.32.07 42.65-.08 64 0 3.43.8 4.51 4.37 4.46 14.65-.22 29.31-.1 44-.1a144.26 144.26 0 0030.72-3.11c13.84-3 26.64-8.38 37.64-17.44 16-13.14 21.74-30.57 20.46-50.67-1.45-22.59-10.19-41.14-30.32-53.15-14.23-8.49-29.84-12.09-46.16-12.5-18.65-.47-37.31-.17-56-.54-4.23-.09-4.77 1.45-4.75 5.08.19 21.31.12 42.63.12 63.95zM1591.81.51c-18.94 12.65-31.66 28.74-37.51 49.92a64.32 64.32 0 00-2 17.31v309.38c0 24.1 11 42.64 28.12 58.38 1.22 1.12 2.53 2.16 3.75 3.28.17.16.09.59.16 1.21h-136c2.92-2.15 5-3.63 7-5.17 15.3-11.55 26.31-25.88 28.91-45.49a79.29 79.29 0 00.57-10.45q0-158 .07-315.89c0-21.62-5.81-40.38-22.91-54.63-2.66-2.2-5.22-4.52-7.82-6.79l.78-1.06z"/><path fill="#e26014" d="M134.63.49c-9.24 22.31-6.76 44.87-3.89 67.34 5.09 39.93 18 77.3 37.79 112.32a508.51 508.51 0 0048.93 71.7c2.65 3.24 2.78 4.9-.78 7.71-13.07 10.31-25.9 20.94-38.61 31.71-3.06 2.59-4.4 1.84-6.59-.92q-43.62-55-87.43-109.85-40.3-50.61-80.67-101.17A14.12 14.12 0 01.1 69.79C.23 48 .2 26.14.13 4.31.12 1.62.3.12 3.77.13c43 .13 86 .09 129 .1a17.29 17.29 0 011.86.26zm301.19 219.22c0 26.83-.13 53.67.12 80.5 0 4.4-1.52 6-5.46 7.08-20.26 5.53-39.82 2.57-58.47-5.74-40.74-18.14-69.72-47.83-84.61-90.21-7.16-20.39-10.06-41.57-5.24-63 7.39-32.75 34.1-54.86 68.38-56.16 34.45-1.31 61.68 13.65 83.59 39.45 1.71 2 1.7 4.21 1.7 6.55q-.03 40.82-.01 81.53z"/><path fill="#e26014" d="M247 179.67a242.22 242.22 0 01-26.85-40.34c-14.26-26.75-25.18-54.7-29.1-85-2.19-16.86-2.17-33.52 4.09-49.72 1.26-3.23 2.86-4.5 6.55-4.5q114.72.2 229.42 0c3.58 0 4.87.67 4.81 4.59-.24 16-.08 32-.14 48 0 1.85.93 5.15-3.12 3.09-30.89-15.69-62.11-12.86-93.42-1.55-42.59 15.38-67.81 47-82.51 88.45a162.62 162.62 0 00-8.16 33.84 3.44 3.44 0 01-1.57 3.14zm43.86 254.42l27.53-22.75c-10.35.08-19.47-.7-28.43-3.13-20-5.4-37.14-14.74-50-31.72-14.36-19-29.49-37.42-44.47-55.95-2.36-2.92-2.13-4.37.73-6.66q20.28-16.26 40.21-32.95c2.77-2.32 4.22-1.82 6.45.61 15.09 16.51 30.85 32.36 48.91 45.62 36.28 26.62 75.91 31.91 118.37 17.6a141.18 141.18 0 0021.94-9.51c2.79-1.51 3.72-1.09 3.72 2.21q-.11 47 0 94c0 2.39-.46 3.65-3.27 3.64q-70.49-.15-141-.17c-.05-.01-.15-.23-.69-.84zM.46 168c13.28 16.66 25.61 32.15 37.94 47.63q44.22 55.5 88.52 110.92c2.69 3.36 2.17 4.77-.91 7.29q-60.39 49.3-120.59 98.83c-1.22 1-2.3 2.94-4.18 2.11s-1-2.95-1-4.48Q.14 301.84.17 173.37c0-1.27.14-2.55.29-5.37zm207.62 266.87H50.49c-.67-1.86 1.11-2.22 2-2.93q45.9-37.72 91.8-75.43c3.1-2.57 4.5-2.58 7.15.77 18.69 23.62 37.66 47 53.67 72.61.89 1.39 1.66 2.8 2.97 4.98z"/></g></g></svg>