<svg xmlns="http://www.w3.org/2000/svg" viewBox="0 0 1917.86 451.58"><g data-name="Layer 2"><path d="M450.77 224.2c0 51.87.19 103.74-.08 155.61-.14 27.49-12.17 48.75-35.85 63a62.78 62.78 0 01-32.67 8.68c-104.74.1-209.48.27-314.21-.1-24.73-.09-43.82-12-57.16-32.81C3.07 406.47 0 393.07 0 378.84V72.5c0-19.88 6.34-37.35 20.25-51.57A66.18 66.18 0 0163.38.6C73-.19 82.6 0 92.21 0h286.46c19.86 0 37.46 6.14 51.56 20.43a69.55 69.55 0 0119.89 40.37 110.46 110.46 0 01.65 15.3v148.1zm-399.68 1.59H51c0 38.49-.1 77 .06 115.47.06 14-.92 28 .67 41.93C53.7 400.09 69 415.28 87 415.5c6.36.07 12.73 0 19.1 0a72.59 72.59 0 0044.63-14.92c29-21.73 32.55-63 7.32-89.06-25.48-26.26-51.22-52.26-76.84-78.37-2-2.06-5.44-4-5.65-6.2-.24-2.59 3.5-4.41 5.56-6.5 19.47-19.88 39.12-39.6 58.49-59.57 9.13-9.41 19-18.11 27.3-28.29 9.5-11.67 13.61-25.31 12.82-40.22a59.62 59.62 0 00-15.93-38c-9.81-10.69-22-17.49-36.63-18.25-12.59-.65-25.23-.19-37.85-.31-6.7-.07-13.12 1-18.92 4.49-13.09 7.86-19.21 19.84-19.25 34.78-.15 50.24-.06 100.47-.06 150.71zm330.78 184.09c-13.4-13.75-26.67-27.43-40-41-12.49-12.71-25.11-25.28-37.58-38-13.71-14-27.27-28.12-41-42.12q-29.9-30.53-60-60.91c-1.55-1.57-1.8-2.38-.09-4.1 10.48-10.55 20.83-21.23 31.21-31.88 18.12-18.59 36.35-37.08 54.29-55.85 10.24-10.72 15.38-23.81 15.76-38.68a59.19 59.19 0 00-15.66-42.59c-10.4-11.5-23.32-18.31-39.09-18.68-11.24-.27-22.49-.16-33.74-.21h-6.28c1.83 3.12 3.43 5.6 4.77 8.22 11.21 21.8 14.47 44.88 11.42 69.09-2.79 22.23-10.88 41.84-26.82 58-17 17.25-33.76 34.8-50.74 52.1-1.93 2-2 2.93 0 4.93q24.32 24.45 48.41 49.14a85.93 85.93 0 0114 19.29 112.08 112.08 0 0112.69 40.9c1.08 9 1.37 18.06-.37 27.15-3.17 16.46-8.82 32.07-15.38 47.39-1 2.34-1.54 3.4 1.86 3.39 50.5-.06 101 0 151.49-.05 7.23-.03 14.35-1.27 20.85-5.53zM334.33 35.27c.57 1 .78 1.47 1 1.87 10.39 15.85 15 33.56 16.31 52.19a119.35 119.35 0 01-2.14 32c-3.78 18.67-11.32 35.3-25.09 48.93-17.67 17.48-35 35.31-52.57 52.89-2 2-1.83 3.06.09 5 15.73 15.9 31.32 31.94 47 47.9q38.67 39.42 77.38 78.8c.88.89 1.67 2.08 3.39 2.11V77.85a70.88 70.88 0 00-.69-10.78c-2.19-14.37-15.25-28.1-29.59-30.24-11.42-1.73-23-1.62-35.09-1.56zM1101 265.93v-4.15q-.39-72-.86-144c0-3.61.83-4.54 4.47-4.49 15.37.23 30.74.15 46.11 0 2.58 0 3.69.33 3.68 3.37q-.14 108.93 0 217.85c0 2.71-.86 3.25-3.38 3.24q-33.75-.13-67.49 0c-2.6 0-3.66-1-4.72-3.09q-28.2-55.31-56.5-110.53-9.6-18.73-19.26-37.44c-.41-.79-.48-2-1.79-2.09v11.81q.6 56.6 1.24 113.2c.09 8.37.06 16.74.32 25.11.08 2.65-1 3-3.23 3-16.12-.08-32.25-.11-48.37 0-2.66 0-3.28-.75-3.28-3.33q.1-108.93 0-217.85c0-2.65.74-3.3 3.34-3.29q34.88.15 69.74 0c2.39 0 3.42.9 4.43 2.94q36.26 73 72.67 146c.65 1.37.88 2.99 2.88 3.74zm490.92-42.47c6.64 1.61 12.46 3.16 18 5.64 15.9 7.1 25.58 18.81 27.44 36.44 1.73 16.33-.85 31.68-10.85 45.14-6.47 8.7-15.15 14.57-25.1 18.68-15.64 6.48-32.07 8.38-48.8 8.4-30.87.05-61.73 0-92.6.07-2.9 0-4.12-.43-4.11-3.79.11-44.26 0-88.52 0-132.78 0-28.31.07-56.61 0-84.92 0-2.34.66-3 3-3 32.74.07 65.48-.1 98.22.12 14.18.09 28.23 1.44 41.54 7.13 18.11 7.76 29.9 20.53 32.65 40.53 2.32 16.8-.06 32.45-12 45.54-5.79 6.38-13.13 10.49-21 13.79-1.85.84-3.94 1.25-6.39 3.01zm-76.15 45.67v24c0 1.47-.08 2.65 2 2.59 12.57-.34 25.17.61 37.68-1.68 17-3.11 25.11-14 22.46-30.7-1.47-9.3-10.22-16.85-21.41-18.85-12.72-2.26-25.55-1.86-38.37-2-2.1 0-2.45.83-2.43 2.66.11 7.99.07 15.99.07 23.98zm0-90.35c0 6.87.09 13.74 0 20.6 0 2.34.45 3.24 3 3.17 8.71-.26 17.46.43 26.12-.85 7.38-1.09 14.75-2.62 20.64-7.53 7.07-5.89 8.57-13.73 6.38-22.32s-8.63-12.52-16.57-14.2c-12.38-2.61-25-2.06-37.55-2.15-2.16 0-2 1.26-2 2.68-.01 6.87-.02 13.74-.02 20.6zM519 225.52c0-36 .06-72-.1-108 0-3.58 1.09-4.21 4.36-4.19 31.74.11 63.49 0 95.23.12 14.68.08 29.21 1.39 43 7.13 18.31 7.58 32.14 23.48 33.15 45 .45 9.68-.15 19.08-3.94 28-5.86 13.84-17 21.88-30.52 27.17-1.56.61-4.34.75-4.33 2.25 0 2.13 2.86 1.29 4.33 1.69 8.2 2.23 16 5.25 22.93 10.24a40.43 40.43 0 0117 29.44c1.69 15.47-.06 30.54-9.08 43.91-8.4 12.46-20.66 19.5-34.62 23.89-13.38 4.22-27.2 5.55-41.18 5.56-30.74 0-61.48-.07-92.22.09-3.6 0-4.17-1.13-4.16-4.37.2-35.94.15-71.93.15-107.93zm59.32 43.7c0 7.74.12 15.48-.07 23.21-.07 2.72.84 3.38 3.39 3.3 5.36-.17 10.73 0 16.1-.06 9.33-.05 18.55-.59 27.53-3.67 15.43-5.3 18.53-19.61 14.44-32-3.24-9.77-11.34-13.6-20.64-15.47-12.68-2.56-25.54-1.88-38.36-2-2.46 0-2.44 1.37-2.43 3.13.07 7.84.05 15.7.05 23.56zm0-90c0 6.49.13 13-.07 19.46-.08 2.79.43 4 3.6 3.84 6-.29 12 .11 18-.17 7.67-.36 15.3-1.34 22.4-4.55 12-5.43 14.76-14.25 12.51-25.56-1.77-9-8.71-12.95-16.87-14.68-12.26-2.6-24.76-2-37.19-2.11-2.12 0-2.39 1-2.38 2.81.07 7.03.03 14.02.03 21.01zm1209.28 47.44c11.22 3.69 16.78 12.23 20.93 22.11.92 2.17 1.83 4.34 2.64 6.55q14.25 39.23 28.47 78.48c1.44 3.95 1.41 4-2.87 4-18.12 0-36.25-.06-54.37.06-2.57 0-3.56-.76-4.37-3.26-5.71-17.52-10.69-35.29-17.07-52.59a104.69 104.69 0 00-8.38-18.15c-5.87-9.75-14.65-14.44-25.88-14.77-4-.12-8 .15-12-.13-3-.21-3.74.84-3.73 3.75.1 26.49.06 53 .06 79.48a22.88 22.88 0 000 2.62c.27 2.2-.45 3-2.85 3q-27-.15-54 0c-2.59 0-2.74-1.08-2.73-3.11.06-14 0-28 0-42q0-87.54-.07-175.08c0-3.35.73-4.34 4.23-4.32 33 .15 66 0 99 .13 14 .06 27.83 1.22 40.95 6.56 16.55 6.74 29.15 17.73 33.07 35.7 4.62 21.15 1.81 41.11-14.3 57.27-6.5 6.51-14.8 10.2-23.58 12.75zm-76.6-45.33v22.85c0 2 .47 2.88 2.71 2.85 11.83-.15 23.72.68 35.41-1.6 18.25-3.55 23.81-14.25 21.26-30.52-1.52-9.73-9.36-14.21-18.17-16.51-12.77-3.34-25.9-2.71-38.94-2.89-2.26 0-2.26 1.37-2.25 3 .03 7.59-.02 15.21-.02 22.82zm-475.58 24.22c3.44-4.6 6.78-9 10.06-13.48q28.23-38.34 56.42-76.72a4.11 4.11 0 013.69-1.95q33.95.06 67.87 0a4.87 4.87 0 011.06.4c-4.92 6.23-9.73 12.35-14.57 18.45q-33.24 41.86-66.55 83.7c-1.55 1.94-.8 3.09.27 4.52q24.45 32.79 48.93 65.59 18.87 25.31 37.73 50.62a2.08 2.08 0 01.16.72c-1.26.67-2.64.32-4 .32-22.25 0-44.49-.06-66.74.11a7.36 7.36 0 01-7-3.63q-27.35-40.29-54.89-80.47c-4.05-5.92-8.13-11.83-12.33-17.94-1.55 1.52-1 2.95-1 4.19 0 31.24-.09 62.49.05 93.74 0 3.27-.74 4.14-4.08 4.1-17.24-.18-34.49-.13-51.74 0-2.53 0-3.67-.25-3.67-3.33q.15-108.93 0-217.86c0-2.7.82-3.28 3.38-3.26 17.5.11 35 .15 52.49 0 3.2 0 3.57 1.15 3.57 3.86q-.14 42 0 84c.07 1.25-.43 2.67.89 4.32zM939 337.29c-1.21.77-2.36.47-3.44.47-19.38 0-38.75 0-58.12.08-2.54 0-3.65-.7-4.47-3.14-4.66-13.84-9.56-27.6-14.29-41.41-.77-2.25-1.7-3.3-4.4-3.28-26.12.13-52.25.1-78.37.05-2.25 0-3.45.45-4.32 2.88-5 14-10.34 27.87-15.38 41.84-.81 2.24-1.77 3.06-4.17 3.05q-26.81-.15-53.61 0c-2.93 0-3.65-.44-2.49-3.5q41.51-109 82.79-218.15c.8-2.11 1.77-2.81 4-2.8q33.55.12 67.12 0c2.5 0 3.4 1 4.22 3.11q28.22 73.54 56.56 147 13.56 35.19 27.1 70.38zM816.39 159.47a5.4 5.4 0 00-1.86 3.16q-13.44 40.68-26.94 81.37c-.9 2.71-.91 3.81 2.56 3.78 16.5-.18 33-.13 49.48 0 2.77 0 3.67-.24 2.69-3.4-7.4-24-14.6-48.05-21.88-72.08-1.27-4.24-2.65-8.4-4.05-12.83zm1101.38 66.44c0 36-.06 72 .09 108 0 3.42-.95 4.06-4.13 4q-25.68-.24-51.36 0c-3.27 0-4.4-.61-4.4-4.21q.18-108.17 0-216.31c0-3.47 1-4 4.19-4q25.68.24 51.36 0c3.32 0 4.35.69 4.34 4.22-.15 36.07-.09 72.19-.09 108.3z" fill="#09539c" data-name="Layer 1"/></g></svg>