<svg xmlns="http://www.w3.org/2000/svg" viewBox="0 0 3745.15 1091.19"><g data-name="Layer 2"><g data-name="Layer 1"><path d="M1448.3 320.25c9.82-5.63 19.55-11.21 29.28-16.77q90.42-51.69 180.84-103.39c29.66-17 59.2-34.17 88.88-51.11 52.14-29.75 104.16-59.72 156.6-88.92 23.83-13.26 49.59-22.25 75.86-29.61 29.56-8.28 59.6-12.33 90.35-10.51 25.47 1.5 49.93 7.25 72.79 18.59a241.53 241.53 0 0143 27.47c27.25 21.69 48.4 48.74 66.76 78.1 4.38 7 8.87 13.92 12.86 21.13 13.82 25 35.09 41.46 60.79 52.29 40.9 17.23 82 15.09 122.4-1.75 12.81-5.34 24.46-13.5 36.59-20.45q111.53-63.85 223-127.75c10.56-6 21.21-11.95 31.63-18.23 28.66-17.28 59.6-29.06 91.58-38.35A272 272 0 012926.34.62a176.53 176.53 0 0153.14 11.91c42.06 16.6 75.77 44 103 79.86a510.08 510.08 0 0137 56.37c5.25 9.24 12.12 17 19.6 24.48 16.3 16.21 36.19 25.59 58.08 31.4 35.59 9.45 70.31 5.78 103.72-8.49 14.39-6.15 27.54-15.17 41.26-22.87 42.69-23.95 85.15-48.31 128.32-71.4 16.29-8.72 33-16.7 50.46-22.8 14.89-5.21 30.11-8.58 46.05-8.57 19.1 0 36.39 5.55 52.28 15.84a134 134 0 0128 24.74c33.4 38.23 65.57 77.44 94.87 118.94.28.41.58.81.86 1.23 3.17 4.63 3.2 4.69-1.84 7.61q-38 21.94-75.94 43.82-117.2 67.6-234.31 135.23c-15.9 9.17-32.74 16-50.89 19.15-28.92 5-55.6-1.23-80-17.34-18.91-12.49-33.47-29.19-45-48.54-17-28.46-36.59-54.82-60.73-77.61-31.11-29.39-67-50.22-109.05-59.67-30.29-6.81-60.73-7.35-91.42-3.08-30.5 4.25-59.64 13.07-88.15 24.46-13.88 5.55-27.76 11.11-40.78 18.38-24.4 13.61-48.51 27.75-72.69 41.76Q2689.46 375 2586.71 434.52c-14.41 8.33-29 16.61-45.39 20.36-37 8.49-70.85.88-101.24-21.75a135.07 135.07 0 01-35.71-40c-12.1-20.47-25.13-40.29-40.61-58.4-30.13-35.27-65.9-62.48-110.49-76.93a231.06 231.06 0 00-85.72-10.63c-50.72 3.05-97.72 19-143.09 40.74-28.87 13.85-56 30.89-83.73 46.7-16.28 9.27-32.19 19.22-48.75 27.95-17.82 9.39-34.89 20-52.42 29.89-14.34 8.06-28.25 16.88-42.46 25.19-23 13.49-46 27.18-69.36 40.12-18.3 10.14-38.28 15.67-59 18.23-44.06 5.44-82.06-9-116.46-35.48-15-11.5-27.8-25-39.52-39.74-19.1-24.09-38.76-47.73-58.15-71.59-2.19-2.7-4.8-5.1-6.31-8.93z" fill="#fbc008"/><path d="M386.84 686c2.52-1.68 3.74-4.48 5.37-6.87 23.24-34.19 54.15-59.21 93.39-71.68 47-14.94 93.3-12.26 136.23 14.6 26.07 16.31 43.64 40 55.8 67.89 10.47 24 15.8 49.35 18.49 75.33 1.55 15 1.71 29.94 1.72 44.94v260.24a41.6 41.6 0 000 5.24c.51 4-1.25 5-5.07 5q-52.87-.2-105.75 0c-3.68 0-5.74-.74-5.15-4.92a38.29 38.29 0 000-5.25c0-86.25.1-172.49-.24-258.74-.1-23.84-3.83-47.18-13.21-69.47-22.42-53.43-80.82-55.15-113.03-34.57-25.17 16.07-40.16 39-44.53 68.78a194 194 0 00-1.93 28.38v269.99c-.11 5.59-.12 5.68-5.84 5.69H298.84c-6.08 0-6.15-.07-6.15-6.07V808.26c0-21.66-2.33-42.88-10.47-63.16-6.29-15.66-15.28-29.55-30.1-38.15-28.9-16.77-57.87-15-85.66 2.69-19 12.09-31 30-39 50.86-5.63 14.68-7.74 29.81-7.72 45.49q.21 132.74 0 265.49c0 10.4 1.61 9.07-9.09 9.09q-49.87.09-99.75 0c-7.66 0-7.15.9-7.15-7.32q0-165-.08-330c0-38.24-.6-76.49-2.55-114.69q-.36-7.11-1.07-14.2c-.35-3.44.59-5.06 4.43-4.87 5.74.28 11.5.07 17.25.07 24.25 0 48.5-.06 72.74 0 8.53 0 7.62-1.84 8.42 8 1.43 17.69 2.37 35.41 3.69 53.1.2 2.81-1.2 7.17 2 8s4.18-3.62 5.77-5.94c25.08-36.64 58.54-61.1 102.46-70 32.76-6.61 65.07-5.62 96.29 7.75 32 13.7 54.81 36.78 69.45 68.19 1.12 2.53 1.39 5.48 4.29 7.34zm1668.33-25.9V428.93c0-9.39-1.13-8.43 8.33-8.44h102.75c1.5 0 3 .09 4.5 0 2.64-.16 3.53 1.19 3.46 3.62-.06 2 0 4 0 6V938.6c0 44 .76 88 3.41 131.92.6 10.08.45 10.09-9.31 10.09h-88.5c-9.18 0-7.93 1-8.49-7.74-1.4-21.89-2.92-43.78-4.37-65.4-2.65-1.18-3.11.68-3.79 1.84-25.66 43.79-64.63 68.82-113.58 78.18-78 14.91-150.48-15.38-195.54-81.39-23-33.7-35.61-71.34-40.93-111.47-5.47-41.24-4-82.3 5.8-122.86 12-49.89 35.29-93.36 75.17-126.62 42.14-35.14 91-49.77 145.59-45.23 23.67 2 46.26 7.73 67.31 18.91 17.72 9.41 32.72 22 44.07 38.67a23.24 23.24 0 002.42 2.75c.14.07.53-.05 1.7-.15zm-.26 182.07h.25v-36.74a138.17 138.17 0 00-1.59-23.16c-14.82-87.83-105.49-113.07-164.73-73.08-23.54 15.89-37.48 39-46.62 65.32-9.31 26.79-12 54.52-10.89 82.71 1 25.21 5.48 49.67 16.45 72.54 19.77 41.19 51.81 64.46 98.28 65.5 34.16.76 62.29-12.33 83.83-38.85 15.8-19.45 23.44-42.3 24.85-67 .89-15.71.17-31.5.17-47.24zm-822.61 7.38c0-61.73.39-123.47-1.19-185.19-.4-15.49-1.5-31-2.28-46.42-.1-2-.21-4-.24-6a2.09 2.09 0 012.29-2.3c1.5 0 3-.06 4.5-.06h90.73c6.81 0 6.72 0 7.26 6.92q2.28 29.52 4.71 59c.14 1.59-.6 3.85 1.73 4.42s2.83-1.6 3.7-3c14.4-23.61 34.15-41.65 58.13-55 33.51-18.72 69.55-25.48 107.65-21.93 26.34 2.46 50.83 10.36 72.94 25 31.31 20.7 51 50.1 62.92 85.15 9.58 28.2 13.35 57.41 13.43 87 .26 92.23.11 184.46.11 276.69 0 1.25-.06 2.5 0 3.75.11 2.28-1.08 3.1-3.2 3h-107.98c-1.25 0-2.51-.1-3.75 0-2.81.27-4.22-.73-4-3.76.16-2 0-4 0-6v-248.2c0-21-1-42-7-62.33-5.39-18.32-13.89-34.77-29-47.1-16.3-13.3-35.41-17.82-56-17.42-50.73 1-82.57 40.1-92.18 74.09-3.5 12.39-3.55 25.21-3.57 37.94q-.13 131.22 0 262.44c0 10.31 0 10.31-10.14 10.31h-101.21c-1.75 0-3.5-.06-5.25 0-2.19.08-3.19-.86-3.1-3.09.08-2 0-4 0-6zm-76 230.27c-2.24 1.13-4 .75-5.73.75h-94.47c-6.8 0-6.73 0-7.69-6.76-2-13.6-4-27.18-6-40.76-.25-1.68.13-3.9-1.89-4.51s-3 1.35-4.12 2.65a153.74 153.74 0 01-44.87 37c-35 19.15-72.55 25.85-112.15 21.77-22.43-2.31-43.59-8.68-62.68-20.77-37.62-23.83-59.12-58.18-63.92-102.36-4.25-39.11 3.85-75.56 27.16-107.86 15.21-21.07 35.27-36.55 58.09-48.64 29.22-15.47 60.61-24.21 93-29.77 30.61-5.25 61.49-7.31 92.52-7.47a31.28 31.28 0 013.75 0c3.07.35 3.78-1.24 3.84-4 .93-41.24-18.35-71.88-59.65-81.87a159.79 159.79 0 00-46.12-3.9 261.2 261.2 0 00-97.52 24.08c-6.32 2.94-12.35 6.5-18.73 9.88-2.2-2.86-2.54-6.42-3.53-9.64-6.15-20-12.11-40.13-18.11-60.21-2.07-6.93-2.07-7 4.68-10.72 22.44-12.4 46.38-20.91 71.22-26.86 41.38-9.92 83.31-13.44 125.71-9.14 25 2.53 49.15 8.58 71.7 20 39.42 20 64.07 52.3 77.54 93.81 9 27.64 11.72 56.16 11.8 85 .18 60 .06 120 .11 179.94 0 32.75 1.41 65.43 6 97.9a17.48 17.48 0 01.06 2.46zM1033.9 890.1v-33.71c0-5.65-.1-5.74-5.71-5.82-23.26-.31-46.44.69-69.35 5-16.72 3.17-33 7.85-48.06 16-19 10.29-32.91 24.86-38.66 46.28a83.87 83.87 0 00-2.11 29c2.71 32.36 21.56 51.85 49.06 57.28 24.23 4.78 47.38 1.15 68.56-11.49 29.29-17.48 45.88-43 46.26-77.84.11-8.22 0-16.46.01-24.7zm1691.58-176.52c-7.42-1-15-2.35-22.63-2.89-33.17-2.34-63 5.53-87.14 29.69-17.55 17.59-26.91 39.39-31.18 63.56a237.57 237.57 0 00-3.21 41.79q.18 113.25 0 226.49c0 9.37 1.32 8.34-8.34 8.36h-102a39.53 39.53 0 00-4.49 0c-3.47.39-4.29-1.41-4.07-4.42.14-2 0-4 0-6 0-112.24.13-224.49-.19-336.73-.11-39.48-.59-79-3.51-118.4-.4-5.33-.3-5.46 5-5.47q46.5-.06 93 0c5 0 5.08.13 5.32 5.55q1.56 36.33 3.06 72.66c.11 2.75.24 5.5.45 8.24.11 1.44 0 3.16 2.15 3.29 1.86.12 2.54-1.26 3.08-2.71a143.54 143.54 0 0111.91-25c21.77-35.8 54.21-54.88 95.1-60.63 13.65-1.92 27.43-1.66 41.16-2 7.31-.19 7.36.17 7.36 7.61v90.75c.09 2.01.63 4.07-.83 6.26zm-347.12 131.35v225.65c0 2-.09 4 0 6 .15 2.76-.79 4.28-3.82 4-1.49-.13-3 0-4.49 0h-103.44c-1.25 0-2.5-.1-3.74 0-3 .3-4.83-.57-4.41-4.06a37.52 37.52 0 000-4.5V618.48c0-10.36-1.07-8.89 8.55-8.9q51.36-.09 102.71 0a27.44 27.44 0 003.74 0c4.19-.58 5.22 1.59 4.89 5.23-.16 1.74 0 3.5 0 5.25zm522.89.07v227.24c0 9.66 1.28 8.33-8.26 8.35q-51.75.09-103.5 0h-5.25c-1.85 0-2.64-1.06-2.65-2.83s0-3.5 0-5.25V618.03c0-9.87-.65-8.38 8.39-8.4q51.38-.08 102.75 0a24.55 24.55 0 003.74 0c4.27-.69 5.18 1.57 4.86 5.18-.16 1.74 0 3.5 0 5.25z" fill="#023167"/></g></g></svg>