<svg xmlns="http://www.w3.org/2000/svg" viewBox="0 0 2071.24 513.12"><defs><style>.pb-cls-2{fill:#252122}.pb-cls-3{fill:#54921e}.pb-cls-4{fill:#b41530}.pb-cls-5{fill:#18708b}</style></defs><g id="Layer_2" data-name="Layer 2"><g id="Layer_1-2" data-name="Layer 1"><path d="M1415.71 393.62l3.86-6.24c12-19.49 30-26.49 52-24.49 22.91 2.08 35.91 15.33 37.43 38.39 1.71 26 .34 52 .76 78 .08 5.15 0 10.32 1.21 15.39 1.09 4.6 3.67 7.84 8.48 8.76 7.08 1.37 14.21 1.91 21.33.36 6.34-1.39 9.13-4.32 10.1-10.72a110.1 110.1 0 001-16.44V332.14a117.83 117.83 0 00-.75-12.45c-.81-7.49-3.92-10.48-11.47-11.34-1.82-.21-3.66-.22-5.49-.35-1.43-.11-2.63-.47-2.54-2.32s1.26-2 2.73-2.06c9.81-.44 19.62-1 29.44-1.4 10.39-.43 10.33-.38 9.82 10.31-2.13 45-.81 90-1.25 134.93a11.53 11.53 0 00.31 1.95c2.57-.12 3.31-2.31 4.54-3.65q22-23.89 43.76-47.94a39.77 39.77 0 007.2-10.73c3.31-7.61.94-12.56-7-14.83a37.12 37.12 0 00-6.37-1.13c-1.81-.17-3.38-.3-3.12-2.73s2.06-1.76 3.44-1.76h54.5c1.42 0 2.72 0 2.85 1.88s-.6 2.51-2.53 2.78c-12.09 1.72-21.68 8.32-30 16.64-9.42 9.39-18.25 19.38-27.46 29-1.89 2-1.82 3.38-.43 5.54 14 21.85 27.89 43.78 41.92 65.62 5.08 7.91 11.44 14.37 21.25 16.06 1.92.33 2.59 1.2 2.36 3-.25 2-1.78 1.6-3.06 1.6-10.5 0-21-.08-31.49 0-2 0-2.87-.78-3.72-2.45-12.17-23.91-27-46.29-40.71-69.27-1.83-3.06-2.88-3.69-5.45-.65-5.91 7-12.1 13.75-18.28 20.5a8.29 8.29 0 00-2.38 6.26c.26 8.32.15 16.66.5 25 .51 12 4.09 15.54 16 16.35.67.05 1.34.09 2 .08 1.53 0 2 .88 2 2.23.09 1.55-.68 2.06-2.1 2h-116.5c-1.33 0-2.66-.08-4-.06s-2.42.19-2.52-1.55.46-2.42 2.23-2.56c2.64-.21 5.27-.65 7.88-1.11 5.49-.94 8.51-4.4 9.07-9.78a180.49 180.49 0 001.25-18.43c0-23.66.56-47.33-.35-71a51.19 51.19 0 00-3.22-16.61c-6.16-15.78-23-22.38-40.29-15.81-11.65 4.42-18.81 13.42-23.77 24.33a66.51 66.51 0 00-6.1 27.59c0 21.33-.57 42.66.32 64 .54 12.58 3.77 15.71 16.2 16.8 1.58.14 4.15-.82 4.14 2.17s-2.62 2-4.15 2q-39.24.36-78.47.49a86.61 86.61 0 01-12.44-1c-5.46-.77-8.69-4.21-9.86-10.44-.76-4-1.11-8.15-1.73-12.87a149.85 149.85 0 01-15.85 13.82c-14.61 10.76-30.84 13.67-48.32 10.49-20.42-3.72-32.38-24.72-27.09-47 3.11-13.07 11.7-21.39 23.47-26.73 13.67-6.19 28.41-8.15 43.1-10.07 7.09-.92 14.24-1.4 21.37-2.06 1.33-.12 2.65 0 2.76-1.95.69-12.79 2.24-25.58-1-38.27-2.43-9.41-8.48-14.77-17.9-16.57a47.39 47.39 0 00-11.94-.79c-17.3 1.1-26.24 10.08-27.4 27.44-.57 8.43-2.16 10.26-10.44 10.77-4.78.29-10.37 1-13.3-3.65-3-4.81-.81-10.06 1.71-14.64 5.7-10.37 15-16.3 25.91-19.9a96.2 96.2 0 0147.85-3.14c18.83 3.4 28.16 14.52 28.37 34.69.25 23.31-.37 46.63-.72 69.95a195.44 195.44 0 00.8 24c.93 8.65 4.25 12 12.89 13a61.28 61.28 0 0019.9-.51c5.15-1.11 8-4.32 9.26-9.31a50.28 50.28 0 001.17-11.9q0-46.5-.14-93a26.26 26.26 0 00-.66-5.43c-2-9.1-5.13-11.84-14.45-13.07-1.62-.21-4.53.88-4.28-2.55.21-2.93 2.65-1.92 4.25-2 10.62-.82 21.29-1.2 31.86-2.44 4.56-.53 4.87 1.13 4.79 4.72-.17 8.25 0 16.5 0 24.76zM1329 443.06v-13c0-1.56.15-3-2.23-2.68-14.19 1.7-28.47 2.68-42 7.91-23.25 9-27.88 28-23.59 47.64 2.35 10.76 10.8 18.51 20.2 19.61 16.52 1.92 35.16-8.55 42.17-23.75 5.27-11.38 5.27-23.58 5.45-35.73z" fill="#272324"/><path class="pb-cls-2" d="M465.65 387.21c5.41-7.9 11.74-14.83 20.25-19.38a54.79 54.79 0 0141.58-4.63c12.94 3.56 20.11 12.93 23.75 25.73 2.81-1.76 3.94-4.58 5.64-6.86 15.29-20.48 37.75-24.71 58.78-18.3 16.43 5 24.44 17.46 26.28 34.19 1.19 10.79.92 21.62.93 32.44v48c0 2.34 0 4.67.15 7 .66 12.74 3.91 15.95 16.64 16.76 1.63.1 4.15-1.14 4.18 2.52 0 2.88-.39 4.15-3.67 4.13-22.5-.13-45-.1-67.49-.06-2.35 0-3.7-.31-3.64-3.21 0-2.58.74-3.53 3.4-3.45a33.9 33.9 0 006.93-.77c4.77-.86 7.62-3.75 8.65-8.49a55.44 55.44 0 001.11-11.91q0-36.75-.08-73.49a64.56 64.56 0 00-2.41-17.26c-4.18-15-18.76-21.33-32.2-13.3-13.63 8.15-20.22 21.42-20.73 36.69-.81 24.28-1 48.63.2 72.93.57 11.75 3.69 14.72 15.52 15.61 2.26.17 4.55-.51 4.53 3.36 0 4.37-2.81 3.24-5.06 3.25-21.16 0-42.33.07-63.49-.06-1.94 0-5.12 1.86-5.46-2.75s2.45-3.66 5-3.83c10.51-.72 14.45-3.56 14.66-13.71.64-30.13 1.57-60.29-.56-90.4a35 35 0 00-1.73-7.77c-5.06-16.25-19-21.44-33.34-12-12.65 8.37-18.26 21.16-18.83 35.72-.95 24.3-.72 48.65-.05 73 .32 11.33 3.51 14.16 15.29 15.15 2.27.19 4.82-.38 4.5 3.45-.18 2.24-.66 3.26-3.15 3.25q-34.25-.11-68.49 0c-2.57 0-3-1.12-3-3.33s.59-3.11 3-3.36c15.42-1.58 17.72-4 17.79-19.55.14-30.5.05-61 .05-91.49v-1.5c-.44-13.09-3.57-16.57-16.45-17.42-3.22-.21-3.86-1.26-3.75-4.2.09-2.32 1-2.69 3-2.81 15.79-1 31.59-2 47.37-3.11 2.81-.2 3.38.81 3.34 3.33-.13 7.15-.05 14.31-.05 21.47z"/><path class="pb-cls-3" d="M2070.37 182.2c-3.95 8.47-9.74 15.8-14.82 23.55q-37.62 57.32-75.51 114.43L1864.6 495a73.53 73.53 0 00-4.81 7.56c-2.43 4.93-6.49 6.77-11.66 6.91-1.27-1.5-.09-2.88.41-4.11q5.14-12.63 10.54-25.17c8.39-19.52 16.9-39 25.25-58.51 7.31-17.09 14.39-34.28 21.72-51.36 8.7-20.29 17.58-40.5 26.34-60.76q9.39-21.71 18.67-43.46c4.71-11 9.38-22 14.09-32.93q9.4-22 18.85-43.89c14-1.07 28-2.06 42-3.21 14.78-1.22 29.58-2.58 44.37-3.87z"/><path class="pb-cls-2" d="M51.73 303.82c14.63.46 31.81-1 48.9 1.42a89.61 89.61 0 0121.66 5.56c14.78 6.08 24.09 16.83 27.59 32.42a79.62 79.62 0 01-1.11 40c-6.3 21.75-22.39 31.95-43.51 36-14.8 2.85-29.76 3.4-44.75 3-3.83-.11-4.67 1-4.62 4.68.2 17.16.09 34.32.1 51.48v3c.41 15.41 4.29 19.45 19.7 19.9 3.29.09 4.83.69 4.53 4.4-.2 2.44-1 3-3.27 3q-36.73-.09-73.47 0c-2.41 0-3.69-.43-3.49-3.26.16-2.3-.08-3.88 3.22-4.13 16.75-1.28 19.63-4.29 19.68-21.24.16-49.05.11-98.2.11-147.35 0-1.17-.05-2.33-.13-3.5-1-13.86-4-17-18-17.92-3.22-.21-3.73-1.45-3.81-4.24-.09-3.36 1.85-3.24 4.16-3.24 14.69.04 29.35.02 46.51.02zM56 363.28c0 15.83.05 31.66-.06 47.49 0 2.68.54 3.84 3.52 3.69 5.65-.28 11.33 0 17-.27 18.68-1 30.94-9.45 36.29-26a82.12 82.12 0 00.67-48.75c-4.24-14.64-14.14-23.69-29.37-26.58-7.94-1.5-16-.79-23.92-1.13-3.21-.13-4.23.73-4.19 4.07.13 15.81.06 31.65.06 47.48zm1103.83 35.64c16.39 2.56 32 5.64 45 16.07a44.23 44.23 0 0117.05 32.6c1.15 16-1.24 30.94-13.48 42.74-10 9.67-22.5 13.78-35.87 15.89a228.7 228.7 0 01-35.85 2.39c-23.66 0-47.32 0-71-.06-1.66 0-4.4 1.31-4.47-2.16s2.72-2.07 4.4-2.38c3.09-.58 6.3-.53 9.27-1.83 4.13-1.82 6.67-4.75 7.2-9.36a183.37 183.37 0 00.84-21V339.87c0-6-.26-12-.73-18-.63-8-4.06-11.5-12-12.78a56 56 0 00-6.44-.75c-1.54-.08-2.55-.31-2.54-2.18 0-1.68.66-2.49 2.36-2.41h1.5c28.32.1 56.65 0 85 .39 12.5.18 24.9 1.93 36.7 6.43 16.46 6.27 26.1 17.87 27.26 35.81 1.27 19.44-5.74 34.4-23.71 43.37a83.48 83.48 0 01-24.75 7.39c-1.77.35-3.64.21-5.74 1.78zm-53.71 53.74v46c0 1.67-.74 3.87 2.36 3.77 16.94-.51 34 1.44 50.78-2.17 12.81-2.75 23.72-8.43 30.06-20.77 5.78-11.26 6.7-23.3 5.54-35.5-2-21.25-14.06-34.22-34.8-38.73-16.79-3.66-33.8-2.23-50.74-2.67-3.27-.08-3.26 1.78-3.25 4.16.07 15.25.05 30.59.05 45.91zm0-100.34v39.47c0 1.79-.47 3.77 2.51 3.68 15.13-.44 30.34 1.19 45.36-1.52 22.18-4 34.82-18.29 35.19-39.4.43-24.47-9.75-37.35-33.78-42.48-15.47-3.3-31.2-1.45-46.81-1.95-3.39-.11-2.46 2.46-2.46 4.23-.06 12.65-.03 25.32-.03 37.97z"/><path class="pb-cls-4" d="M1922 10.24c2 1.48.94 3.21.43 4.93Q1907.17 66.3 1892 117.44q-23.8 79.56-47.62 159.05c-.7 2.35-1.3 4.51-4.19 4.85-5.49-1.7-2.53-6.81-4.07-10.11 1.83.56 1.9.56 1.86-2.3-.58-36.42 1-72.86-.9-109.29-.9-16.92 0-33.88-.81-50.85-1-21.43-.22-42.95-.2-64.43q41.87-15.61 83.76-31.21c1.42-.53 2.24-1.34 2.17-2.91z"/><path class="pb-cls-2" d="M758.67 491.16c-4.46 3.74-8.3 7.4-12.57 10.45-16.16 11.52-33.94 14.3-52.61 7.81-17-5.9-25.87-22.26-24-41.55 1.76-18 12.1-28.93 28.33-35.12 14.31-5.45 29.42-6.87 44.48-8.43q6.45-.66 12.94-1c1.9-.09 3.37-.4 3.24-2.68-.76-12.77 1-25.67-2.08-38.31-2.5-10.12-7.55-14.29-17.87-14.83-10.84-.57-18.42 4-21.73 13.09-1.92 5.24-2.23 10.73-2.7 16.2-.74 8.57-4.24 12.18-12.82 12.87-5.35.44-10.69.38-15.73-1.74-5.79-2.43-8.24-7-7.26-13.23 1.72-11 8.68-18.05 17.69-23.46 9.92-6 20.91-8.49 32.3-9.48 12.67-1.09 25.3-.95 37.63 2.66 15.3 4.49 23.49 14.61 25.1 30.61s-.08 32.3.14 48.44c.2 15.32-1.28 30.66.56 45.93 1.16 9.72 4.18 12.41 14.07 13.49 1.86.2 4.05-.52 4.06 2.82s-2 3.36-4.24 3.36c-10.14 0-20.33 1.05-30.41-.81-10.36-1.89-15.19-6.84-16.52-17.09zm-.2-42c0-5.5-.05-11 0-16.49 0-2.22-.49-3.4-3.11-3.11-11.59 1.31-23.14 2.69-33.84 7.83-9.65 4.65-15 12.43-16.47 22.87a57.56 57.56 0 001.15 21.83c4.14 16.82 19.41 23.34 34.45 14.65 8.77-5.07 13.39-13.17 15.77-22.74 2.06-8.16 1.76-16.51 2.05-24.83zm236.26 41.96c-9.92 10.27-20.79 18.07-34.64 20.42-14.55 2.48-28.5 1.44-40.85-8-17.34-13.35-21.44-53.65 9.76-68.44 13-6.18 27-8.07 41.07-9.78 7.26-.89 14.58-1.37 21.88-2 1.77-.14 3.21-.16 3.12-2.65-.41-12.13 1-24.35-1.6-36.37-2.68-12.47-8.16-16.91-20.32-16.71-11.85.19-19 6.22-21 17.9-.62 3.6-.88 7.27-1.2 10.92-.75 8.71-4 12.18-12.58 13.26a37 37 0 01-11.93-.46c-9.82-2-13.58-8.38-10.69-18.05 2.76-9.2 9.11-15.34 17.12-20 17.05-9.85 35.73-10.74 54.72-9.49a63.27 63.27 0 0113.74 2.37c17.21 5 26 15.75 26.58 33.68.77 23 0 46-.34 69-.11 7.15.19 14.31.59 21.46.56 10.06 4.06 13.58 14.06 14.6 2.13.21 4.36-.29 4.27 3.21s-2.42 3-4.49 3.05c-8 .08-16 .36-24 0-13.81-.47-19.19-4.72-23.27-17.92zM995 450v-17.77c0-1.69-.1-2.94-2.34-2.71-11.92 1.22-23.81 2.61-34.76 7.93-8.24 4-13.64 10.5-15.64 19.51a50.68 50.68 0 002.1 29.42c3.64 9.58 10.52 14.11 20.2 14 13.27-.15 25.21-11.22 28.48-26.38a105.48 105.48 0 001.96-24z"/><path class="pb-cls-5" d="M1742.56 121.06L1805.74 332c7.33 24.5 14.52 49 21.89 73.53 1.2 4 .43 7.09-2.62 9.76-.31-.66-.63-1.32-1-2-1.27-2.15-2.6-4.25-3.78-6.44-5.46-10.12-10.74-20.34-16.32-30.38-7.11-12.79-15.09-25.14-21.54-38.24-11.26-22.87-24.46-44.66-36.13-67.28-7.1-13.79-14.76-27.3-22.22-40.91-6.43-11.72-13.45-23.15-19.17-35.21-2.41-5.08-7.3-9.23-7-15.56.37-.56.71-1.13 1.11-1.66q19.53-26 39.08-52.07c1.36-1.66 2.14-3.87 4.52-4.48z"/><path d="M1844.4 508.19c-2.41-3.73-2.43-7.55-1.45-11.89q19.14-85.55 38-171.15 19.23-86.76 38.53-173.51c2.84-12.8 5.76-25.59 8.64-38.38 4.65.89 3 5.71 5.14 8.22 3.11 3.72 4.22 8.53 6.28 12.76 3.53 7.27 7 14.63 10.19 22.09 3 7.21 7.85 13.79 8.39 22-.33 1.28-.57 2.6-1 3.85-9.9 29.06-19.75 58.14-29.75 87.16-13.62 39.56-27.46 79.05-41 118.63-13.33 38.88-26.43 77.84-39.69 116.75-.46 1.28-.27 3.13-2.28 3.47z" fill="#2c7832"/><path class="pb-cls-2" d="M234 431.06h-42.49c-1.82 0-4.22-.8-4.1 2.61.55 15 1.77 29.78 8.2 43.79 14.86 32.38 49.89 28.77 67.29 8.94a69.84 69.84 0 009.1-13.03c.89-1.65 1.8-3.59 4-1.36 1.43 1.48 5 1.27 3 5.32-11.95 24.5-36.17 37.7-63.57 34.65-17-1.89-32.72-6.48-45-19.05-13.53-13.84-18.7-31.17-19.55-49.95-.94-20.93 2.43-40.85 15.61-58.05 10.46-13.66 25-20 41.42-22.6a72.63 72.63 0 0136.92 3.22c20.62 7.56 30.47 23.71 34 44.38.94 5.39.81 11 1.53 16.4.49 3.73-.51 4.89-4.42 4.82-13.94-.24-27.94-.09-41.94-.09zm-17.26-7.88c8.48 0 17-.16 25.45.08 3.23.09 4-1 3.72-4-.49-5-.49-10-1.08-14.91-1.19-9.82-3.53-19.31-9.35-27.57-4.45-6.3-10.4-9.63-18.3-9-8.62.65-14.35 5.65-18.6 12.59-7.5 12.28-9.49 26.07-10.67 40.07-.24 2.89 1.42 2.76 3.37 2.75 8.49-.03 16.97-.01 25.46-.01z"/><path d="M1844.4 508.19c2-.34 1.82-2.23 2.25-3.51 13.26-38.91 26.36-77.87 39.69-116.75 13.56-39.58 27.4-79.07 41-118.63 10-29 19.85-58.1 29.75-87.16.42-1.25.66-2.57 1-3.85 1.41-1.82 2.73-3.67 5-4.62 3.78-1.58 7.48-3.36 11.19-5.1 2.68-1.25 4.17-2.39 2.13-6-6-10.44-13-20.22-19.18-30.5-5.37-8.89-11.72-17.19-16.29-26.58 15.21 6.88 30.44 13.72 45.62 20.66q40.7 18.6 81.35 37.32c-1.9 2.45-4.63 1.71-7.07 1.72-25.76.11-51.51-.2-77.25 1-3.45.15-4.81.86-3.75 4.7 1.67 6 2.78 12.23 4.13 18.36q-9.42 21.94-18.85 43.89c-4.71 11-9.38 22-14.09 32.93q-9.32 21.74-18.67 43.46c-8.76 20.26-17.64 40.47-26.34 60.76-7.33 17.08-14.41 34.27-21.72 51.36-8.35 19.53-16.86 39-25.25 58.51q-5.4 12.54-10.54 25.17c-.5 1.23-1.68 2.61-.41 4.11-1.72 1.11-2.97.68-3.7-1.25z" fill="#6cbe3e"/><path d="M1836.12 271.23c1.54 3.3-1.42 8.41 4.07 10.11-4 1.65-7.29-.38-9.13-5.71q-9-26.16-18.06-52.32-35.45-102.22-70.91-204.46c-.43-1.24-.71-2.55-1-3.82v-3.86a8.36 8.36 0 005.08 4.35c6.05 2.28 11.77 5.48 17.58 8.4 8.68 4.38 17.24 9 26 13.18 6.57 3.1 14.19 4.67 16.13 13.29.7 9.39 3 18.59 3.84 27.9 1.07 11.9 3.43 23.6 4.8 35.45.66 5.69.43 11.65 2.07 17.15 2 6.73 1.63 13.71 3.17 20.5 1.65 7.22 1.84 14.77 2.86 22.14 1.71 12.27 3.61 24.5 5.35 36.77 1 7.18 1.81 14.39 2.78 21.58q2.64 19.68 5.37 39.35z" fill="#72191d"/><path class="pb-cls-2" d="M340 390.35c5.31-8.73 11.17-16.93 19.8-22.78 11.51-7.81 25.64-8.5 35.09-1.52 7.75 5.73 10.45 16.31 6.11 23.93-4.12 7.23-16.33 11.28-24.34 7.92-3.63-1.52-5.4-4.65-6.51-8.34C366.93 379 361 377.29 353 385c-9.41 9.1-12.67 21-12.87 33.54-.36 21.66-.29 43.33-.06 65 .16 14.41 3 17.11 17.58 18.53 1.71.17 4.23-.94 4.35 2.5.09 2.73-.17 4.23-3.63 4.21-23.17-.15-46.33-.11-69.5-.05-2.5 0-3.53-.6-3.52-3.35s1-3.4 3.52-3.31a34 34 0 006.94-.71c5.11-.88 8.26-3.75 9.39-9 1.18-5.44 1-10.91 1-16.39v-84.49a47.93 47.93 0 00-.26-5.49c-1.18-10.12-4.52-13.3-14.63-14-2.4-.16-4.88.52-4.82-3.65.06-4 2.52-3.14 4.63-3.29 14.46-1 28.92-1.9 43.36-3 3.11-.25 4.09.59 4 3.7-.17 8.09-.06 16.19-.06 24.28z"/><path d="M1824.06 413.31c.32.66.64 1.32 1 2-4.1 2-7.49 1.08-10.42-2.36q-36.36-42.72-72.77-85.4-62.11-72.87-124.21-145.75a24.17 24.17 0 01-1.64-2.44c6.8-1.23 13.14 1.63 19.66 2.54 13.19 1.84 26.21 4.89 39.3 7.44l.84 1 .27 1.87.93 1c9.67 13.83 18.7 28.07 27.89 42.22 13.46 20.71 27.38 41.12 41 61.74 13.48 20.43 26.83 40.95 40.22 61.44 7.42 11.36 14.77 22.76 22.2 34.11 4.51 6.88 9.12 13.7 13.68 20.55.15.74.17 1.72 1.24 1.5.36-.07.54-1 .81-1.47z" fill="#115573"/><path class="pb-cls-2" d="M825.4 430.41c0-17.16-.1-34.32.08-51.47 0-3.52-.52-5.37-4.52-4.71a14.79 14.79 0 01-5.47 0c-2-.46-5.59 2.17-5.74-2.91-.11-3.87.8-5.35 5-5.78 12-1.23 19.19-9 24.22-19.21a68.55 68.55 0 006.2-19.43c.6-3.73 2-5.16 6-5.42 8.81-.59 8.67-.85 8.44 7.86-.29 10.65-.18 21.32-.6 32-.15 3.76 1.26 4.3 4.53 4.21 8.32-.22 16.67.18 25-.18 4.41-.19 3.68 2.36 3.87 5 .21 2.87-.39 4.15-3.71 4.06-8.66-.24-17.33 0-26-.14-2.7-.05-3.68.49-3.67 3.48.14 31.82.07 63.63.18 95.45a55.86 55.86 0 002.26 16.28c3 9.75 11.12 13.77 20.76 10.26a38 38 0 009.24-4.88c1.38-1 2.94-3.07 4.31-.2 1 2.09 3.89 4.14.28 6.74a61.85 61.85 0 01-18.11 9.3 55.51 55.51 0 01-24.17 1.91c-18-2.52-26.74-12.07-27.68-30.2-.16-3.16-.41-6.32-.42-9.48-.05-14.16 0-28.32 0-42.48z"/><path d="M1822 413.3c-4.56-6.85-9.17-13.67-13.68-20.55-7.43-11.35-14.78-22.75-22.2-34.11-13.39-20.49-26.74-41-40.22-61.44-13.6-20.62-27.52-41-41-61.74-9.19-14.15-18.22-28.39-27.89-42.22l-.93-1-.27-1.87-.84-1a79.08 79.08 0 011-13.83c.36-2.74-.46-4-3.66-4.39-5-.65-9.9-.64-14.85-1-14-.91-28-1.89-42-2.85 10.86-6.66 22.54-11.74 33.85-17.52 24.66-12.59 49.48-24.89 74.24-37.32 1.43-.71 2.71-2 4.53-1.11a87 87 0 00-6.48 6.09c-5.12 5.85-10 11.88-15 17.81q-14.12 16.68-28.27 33.31c-1 1.14-1.74 2.54 0 3.27 6.47 2.77 12.23 7.44 19.74 7.48-.35 6.33 4.54 10.48 7 15.56 5.72 12.06 12.74 23.49 19.17 35.21 7.46 13.61 15.12 27.12 22.22 40.91 11.67 22.62 24.87 44.41 36.13 67.28 6.45 13.1 14.43 25.45 21.54 38.24 5.58 10 10.86 20.26 16.32 30.38 1.18 2.19 2.51 4.29 3.78 6.44z" fill="#0d9cb9"/><path d="M1984 189.27c-1.35-6.13-2.46-12.32-4.13-18.36-1.06-3.84.3-4.55 3.75-4.7 25.74-1.18 51.49-.87 77.25-1 2.44 0 5.17.73 7.07-1.72 1.25 0 2.58.5 2.66 1.74.38 5.65 1.33 11.33-.23 16.95-14.79 1.29-29.59 2.65-44.39 3.86-13.98 1.17-27.98 2.16-41.98 3.23z" fill="#97d34b"/><path d="M1922 10.24c.09 1.57-.73 2.38-2.15 2.91q-41.89 15.59-83.76 31.21-8-6-15.88-12c-.78-.59-2-.93-1.67-2.16s1.63-.83 2.52-1.11c12.67-4.13 25.33-8.29 38-12.34 9.69-3.1 19.43-6 29.13-9.1 6.57-2.07 13.1-4.26 19.65-6.39l5.21-.06a32.56 32.56 0 018.95 9.04z" fill="#ef3b5d"/><path d="M1698 179.29c-7.51 0-13.27-4.71-19.74-7.48-1.7-.73-.93-2.13 0-3.27q14.16-16.64 28.27-33.31c5-5.93 9.93-12 15-17.81a87 87 0 016.48-6.09 43.57 43.57 0 0114.52 9.74c-2.39.6-3.17 2.81-4.43 4.49q-19.58 26-39.08 52.07c-.36.53-.7 1.1-1.02 1.66z" fill="#4bc3ef"/><path class="pb-cls-4" d="M1913.06 1.23l-5.21.06h-161.21v1.4c1.71.46 3.62.57 5.09 1.44 6.81 4 14.66 5.44 21.76 8.85a118.26 118.26 0 0014.09 5.88c8.77 2.88 17 6.91 25.65 10.12 4 1.49 3.29 2.76.72 5-4.94 4.31-9.4 9-8.06 16.41-1.94-8.62-9.56-10.19-16.13-13.29-8.79-4.16-17.35-8.8-26-13.18-5.81-2.92-11.53-6.12-17.58-8.4a8.36 8.36 0 01-5.08-4.35V15c-2.37-6.7 2.85-14.86 9.51-14.86q77.17 0 154.35.07c2.65.04 5.59-.95 8.1 1.02z"/><path class="pb-cls-3" d="M1941 105.53c4.57 9.39 10.92 17.69 16.29 26.58 6.21 10.28 13.2 20.06 19.18 30.5 2 3.57.55 4.71-2.13 6-3.71 1.74-7.41 3.52-11.19 5.1-2.29 1-3.61 2.8-5 4.62-.54-8.17-5.34-14.75-8.39-22-3.16-7.46-6.66-14.82-10.19-22.09-2.06-4.23-3.17-9-6.28-12.76-2.1-2.51-.49-7.33-5.14-8.22 1.33-3.56 8.36-7.78 12.85-7.73z"/><path class="pb-cls-5" d="M1615.43 167.28c14 1 28 1.94 42 2.85 5 .33 9.89.32 14.85 1 3.2.42 4 1.65 3.66 4.39a79.08 79.08 0 00-1 13.83c-13.09-2.55-26.11-5.6-39.3-7.44-6.52-.91-12.86-3.77-19.66-2.54-3.64-3.9-1.67-8.01-.55-12.09z"/><path d="M1805.86 50.39c-1.34-7.44 3.12-12.1 8.06-16.41 2.57-2.24 3.28-3.51-.72-5-8.6-3.21-16.88-7.24-25.65-10.12a118.26 118.26 0 01-14.09-5.86c-7.1-3.41-15-4.82-21.76-8.85-1.47-.87-3.38-1-5.09-1.44v-1.4h161.21c-6.55 2.13-13.08 4.32-19.65 6.39-9.7 3.07-19.44 6-29.13 9.1-12.7 4-25.36 8.21-38 12.34-.89.28-2.21-.16-2.52 1.11s.89 1.57 1.67 2.16q7.95 6 15.88 12c0 21.48-.79 43 .2 64.43.78 17-.09 33.93.81 50.85 1.92 36.43.32 72.87.9 109.29 0 2.86 0 2.86-1.86 2.3q-2.7-19.67-5.39-39.35c-1-7.19-1.77-14.4-2.78-21.58-1.74-12.27-3.64-24.5-5.35-36.77-1-7.37-1.21-14.92-2.86-22.14-1.54-6.79-1.17-13.77-3.17-20.5-1.64-5.5-1.41-11.46-2.07-17.15-1.37-11.85-3.73-23.55-4.8-35.45-.84-9.34-3.14-18.56-3.84-27.95z" fill="#e91639"/><path class="pb-cls-5" d="M1822 413.3h2c-.27.51-.45 1.4-.81 1.47-1.04.23-1.06-.77-1.19-1.47zm-147-223.97l.84 1zm1.08 2.87l.93 1z"/></g></g></svg>
