<svg width="108" height="32" viewBox="0 0 108 32" fill="none" xmlns="http://www.w3.org/2000/svg">
    <g clip-path="url(#clip0)">
        <path d="M44.79 15.8827H41.1445V13.6353H51.09V15.8827H47.4445V22.0766H44.79V15.8827Z" fill="#222220"/>
        <path d="M52.0273 22.0587V13.6528H54.6818V22.0587H52.0273Z" fill="#222220"/>
        <path d="M63.3142 18.2541V13.6353H65.7563V22.0412H63.4912L58.9431 17.4046V22.0589H56.501V13.653H58.8723L63.3142 18.2541Z" fill="#222220"/>
        <path d="M70.1764 22.0588H67.6104V13.6529H70.1764V16.8117H70.8842L73.9811 13.644H77.2019L73.0963 17.6789L77.3612 22.0677H73.9457L70.8842 18.8823H70.1764V22.0588Z" fill="#222220"/>
        <path d="M88.2047 17.8648C88.2047 20.3778 86.1342 22.3244 82.701 22.3244C79.2679 22.3244 77.1797 20.3778 77.1797 17.8648C77.1797 15.3519 79.2502 13.4053 82.701 13.4053C86.1519 13.4053 88.2047 15.3519 88.2047 17.8648ZM85.5148 17.8648C85.5148 16.4845 84.3999 15.4758 82.701 15.4758C81.0022 15.4758 79.8873 16.4845 79.8873 17.8648C79.8873 19.2452 80.9845 20.2716 82.701 20.2716C84.4176 20.2716 85.5148 19.2452 85.5148 17.8648Z" fill="#222220"/>
        <path d="M92.0231 15.7764V17.2983H97.686V19.068H92.0231V22.0587H89.457V13.6528H97.8984V15.7941L92.0231 15.7764Z" fill="#222220"/>
        <path d="M101.658 15.7764V17.2983H107.321V19.068H101.658V22.0587H99.1006V13.6528H107.542V15.7941L101.658 15.7764Z" fill="#222220"/>
        <path d="M35.3624 14.967L35.8357 13.4804L34.2961 13.5291C33.5748 13.5005 32.8785 13.2571 32.2964 12.8301C32.3672 12.8301 32.4336 12.8301 32.5043 12.8301C32.9649 12.8284 33.4159 12.6983 33.8067 12.4545C34.1974 12.2106 34.5125 11.8627 34.7164 11.4498L35.3933 10.003C34.8624 10.0075 34.3318 9.97645 33.805 9.91014C33.3015 9.79165 32.848 9.51769 32.5088 9.12706C32.2816 8.88487 32.0076 8.69136 31.7034 8.55826C31.3992 8.42517 31.0711 8.35528 30.7391 8.35283C30.4762 8.35408 30.215 8.39586 29.9649 8.47671C30.0023 8.35785 30.0318 8.23666 30.0534 8.11393C30.1574 7.25012 29.9157 6.38021 29.3809 5.69391L28.2129 4.25605L27.4962 5.93724C27.3824 6.17783 27.2068 6.38393 26.9874 6.5345C26.8655 5.93473 26.5702 5.38397 26.138 4.95065C25.7789 4.58299 25.3493 4.2916 24.8749 4.09395C24.4006 3.89629 23.8912 3.79644 23.3773 3.80036C23.1966 3.79948 23.0161 3.8128 22.8375 3.84018L21.4395 4.11448C21.5604 3.6461 21.7514 3.19864 22.0058 2.78723L22.7756 1.58828L20.8378 1.76967L20.2184 0.442417L19.0239 1.09277L17.9179 0L16.8118 1.09277L15.6173 0.473386L14.9979 1.76967L13.0601 1.54846L13.8299 2.75183C14.0852 3.16281 14.2762 3.6104 14.3962 4.07909L13.069 3.81806H13.0247C12.8403 3.79011 12.6539 3.7768 12.4673 3.77824C11.9534 3.77406 11.4439 3.8738 10.9695 4.07147C10.4951 4.26914 10.0655 4.56066 9.70662 4.92853C9.26758 5.36688 8.96882 5.9259 8.84833 6.5345C8.63382 6.38842 8.46143 6.18856 8.3484 5.95493L7.62726 4.26048L6.45043 5.70276C5.92479 6.38982 5.68825 7.255 5.79123 8.11393C5.81312 8.23659 5.84267 8.35775 5.87972 8.47671C5.62966 8.39538 5.36844 8.35358 5.10549 8.35283C4.77345 8.35528 4.44537 8.42517 4.14117 8.55826C3.83696 8.69136 3.56297 8.88487 3.33582 9.12706C2.99843 9.51332 2.55058 9.78666 2.05281 9.91014C1.51986 9.98905 0.980911 10.0201 0.442417 10.003L1.10162 11.4719C1.30599 11.8845 1.62114 12.2322 2.0118 12.4759C2.40245 12.7197 2.85323 12.85 3.3137 12.8522C3.38449 12.8522 3.45085 12.8522 3.52164 12.8522C2.94638 13.2725 2.26012 13.514 1.54846 13.5468L0 13.4804L0.473386 14.967C0.64652 15.5377 0.980765 16.0463 1.43596 16.4316C1.89115 16.817 2.44793 17.0627 3.0394 17.1392C2.9782 17.5253 2.82588 17.8912 2.59507 18.2066C2.36425 18.5221 2.06159 18.778 1.71215 18.9531L0.526476 19.4354L1.16356 20.5458C1.42169 20.9474 1.77746 21.277 2.19759 21.5037C2.61773 21.7304 3.0885 21.8468 3.56588 21.8421C3.81865 21.8416 4.0707 21.8149 4.31799 21.7625C4.38133 22.0331 4.45811 22.3003 4.54804 22.5633C4.76778 23.1454 4.78338 23.785 4.59228 24.3772L4.01714 25.585L5.30457 25.9256C5.59384 25.9988 5.89103 26.0359 6.18941 26.0362C6.40086 26.0372 6.6117 26.0135 6.81764 25.9655C6.96857 25.9317 7.11652 25.8859 7.26006 25.8283C7.42592 26.1248 7.62967 26.3985 7.86617 26.6424C8.68906 27.4874 9.85704 27.9165 11.3391 27.9165H12.3965L10.2154 28.8235L11.87 29.6419C12.5359 29.9714 13.2181 30.2667 13.914 30.5268L13.7149 31.1019L14.2856 31.3629C15.233 31.7351 16.237 31.943 17.2542 31.9779C17.2542 31.9779 17.6967 31.9779 17.9356 31.9779C18.1745 31.9779 18.6125 31.9779 18.6125 31.9779C19.6256 31.9404 20.6249 31.731 21.5678 31.3585L22.1208 31.1019L21.9262 30.5268C22.63 30.2569 23.3196 29.9512 23.9922 29.611L25.6159 28.8235L23.4392 27.9386H24.501C25.9831 27.9386 27.1555 27.4962 27.974 26.6645C28.2108 26.4208 28.4146 26.1471 28.5801 25.8504C28.7238 25.9075 28.8717 25.9534 29.0225 25.9876C29.2285 26.0353 29.4393 26.0591 29.6508 26.0584C29.9491 26.0575 30.2462 26.0204 30.5356 25.9478L31.8274 25.6071L31.2656 24.4214C31.055 23.8186 31.0629 23.1609 31.2877 22.5633C31.3806 22.2934 31.4558 22.0191 31.5178 21.7448C31.7665 21.7972 32.02 21.8239 32.2743 21.8244C32.7556 21.8283 33.2299 21.7082 33.6514 21.4758C34.0729 21.2433 34.4275 20.9063 34.681 20.4972L35.3093 19.4L34.1413 18.9222C33.7914 18.7476 33.4884 18.4919 33.2575 18.1763C33.0266 17.8608 32.8745 17.4946 32.814 17.1083C33.406 17.0314 33.9632 16.785 34.4185 16.3988C34.8737 16.0126 35.2076 15.5031 35.38 14.9316L35.3624 14.967Z" fill="white"/>
        <path d="M17.9182 4.55664C16.6838 4.55664 15.7548 4.96367 15.5557 5.44148L17.9182 6.37498L20.2807 5.44148C20.0816 4.96367 19.1525 4.55664 17.9182 4.55664Z" fill="white"/>
        <path d="M17.9442 29.2525H17.8956C17.1272 29.2459 16.3623 29.1479 15.6171 28.9604L15.042 30.5753C15.9857 30.8389 16.96 30.9772 17.9398 30.9868C18.9196 30.9773 19.8939 30.839 20.8377 30.5753L20.2183 28.9604C19.473 29.1477 18.7082 29.2457 17.9398 29.2525" fill="white"/>
        <path d="M22.4666 27.6465C21.8175 27.9701 21.1428 28.2394 20.4492 28.4517L20.9359 29.7789C21.7079 29.5748 22.4577 29.2947 23.1745 28.9428L22.1702 28.6065L22.4666 27.6465Z" fill="white"/>
        <path d="M13.3695 27.6465L13.6659 28.6198L12.6572 28.956C13.3741 29.3077 14.124 29.5877 14.8959 29.7922L15.3825 28.465C14.689 28.2526 14.0142 27.9833 13.3651 27.6598" fill="white"/>
        <path d="M17.9188 3.01303C18.8061 3.00347 19.6818 3.2148 20.4671 3.62799C20.5425 3.37172 20.6341 3.12051 20.7414 2.87589L20.4759 2.90686L20.1972 2.93782L20.0778 2.68565L19.7238 1.93354L19.0779 2.26978L18.8257 2.39808L18.6222 2.21226L17.9188 1.50439L17.2153 2.21226L17.0162 2.41135L16.7641 2.28305L16.1137 1.94681L15.7642 2.69892L15.6448 2.9511L15.366 2.92013L15.1006 2.88916C15.2074 3.13397 15.299 3.38515 15.3749 3.64127C16.1578 3.22453 17.0319 3.00866 17.9188 3.01303" fill="white"/>
        <path d="M32.1414 11.6843C32.2594 11.7256 32.3836 11.7465 32.5086 11.7463C32.7575 11.7444 33.0014 11.6756 33.2146 11.5472C33.4279 11.4188 33.6027 11.2354 33.7208 11.0163C32.9441 10.8871 32.236 10.4932 31.7167 9.9014C31.593 9.7631 31.4417 9.65228 31.2725 9.57607C31.1033 9.49987 30.92 9.45998 30.7345 9.45898C30.4439 9.46358 30.1604 9.5494 29.916 9.70674C31.1725 10.3748 31.4291 11.4454 32.1281 11.6888" fill="white"/>
        <path d="M3.33136 11.7463C3.45494 11.7465 3.57763 11.7255 3.69414 11.6844C4.41086 11.441 4.66746 10.3571 5.90623 9.70234C5.66314 9.54579 5.38127 9.46 5.09218 9.45459C4.90664 9.45559 4.72337 9.49547 4.5542 9.57168C4.38503 9.64788 4.23371 9.75871 4.11002 9.89701C3.59473 10.4878 2.89167 10.8831 2.11914 11.0163C2.23689 11.2358 2.41163 11.4194 2.62497 11.5478C2.8383 11.6763 3.08234 11.7449 3.33136 11.7463Z" fill="white"/>
        <path d="M32.4819 16.0421H32.5438C33.8711 16.0421 34.3135 14.6352 34.3135 14.6352H34.287C33.5935 14.6136 32.9132 14.4409 32.2935 14.1292C31.6737 13.8174 31.1295 13.374 30.699 12.8301C29.7876 11.6754 29.0443 10.6578 27.5711 10.2597L27.4295 10.2243L27.3985 10.0783C27.3587 9.85264 27.5136 9.63586 27.8409 9.41465C29.8716 8.0874 28.4913 6.38852 28.4913 6.38852C28.4913 6.38852 27.9294 7.74232 26.6331 7.74232H26.5447C26.3962 7.73957 26.2483 7.72477 26.1022 7.69808L25.8633 7.65383C25.9616 7.31466 25.9649 6.95502 25.8729 6.6141C25.7808 6.27318 25.5969 5.96408 25.3413 5.72047C25.0863 5.45824 24.7807 5.2505 24.443 5.10981C24.1054 4.96913 23.7427 4.89843 23.377 4.902C23.2465 4.90047 23.1162 4.91084 22.9876 4.93297C23.43 5.52139 23.7619 6.4947 23.2442 7.09197C22.8018 7.60959 21.7002 7.63171 21.7002 8.41922C21.7002 8.7466 22.0055 9.12708 22.5496 9.46774C24.1954 10.503 25.8279 11.8789 26.5048 13.7194C27.3543 16.0155 26.3987 17.5418 25.0316 18.4134C25.3284 18.6634 25.6939 18.8177 26.0801 18.8558C26.2084 18.8558 26.3279 18.8558 26.4429 18.8558C27.1561 18.8859 27.8579 18.6687 28.4294 18.2409C28.3163 18.8474 28.0428 19.4127 27.6374 19.8778C27.3034 20.2655 26.8859 20.5725 26.4161 20.7756C25.9464 20.9786 25.4367 21.0725 24.9254 21.0502C24.929 21.2581 24.977 21.4627 25.0663 21.6505C25.1556 21.8382 25.284 22.0046 25.443 22.1385C25.7971 22.3758 26.2015 22.5273 26.6243 22.581C26.6243 22.581 25.0803 22.8951 24.9121 25.1735C24.9167 25.7532 24.7768 26.3249 24.5051 26.837H24.5317C28.1108 26.837 28.0179 23.7666 28.0179 23.7666C28.1105 24.0484 28.2739 24.3016 28.4923 24.5023C28.7107 24.7029 28.9769 24.8441 29.2655 24.9125C29.387 24.9428 29.5119 24.9577 29.6372 24.9567C29.84 24.9554 30.0419 24.9301 30.2388 24.8815C29.9162 24.0261 29.9162 23.0824 30.2388 22.227C30.4918 21.5175 30.6147 20.7681 30.6016 20.015C30.8068 20.2605 31.0675 20.4536 31.3622 20.5782C31.6569 20.7029 31.977 20.7555 32.2961 20.7317C32.5787 20.7358 32.8577 20.6687 33.1075 20.5365C33.3573 20.4042 33.5697 20.2112 33.7251 19.9751C31.3405 18.9841 31.5749 15.7854 31.5749 15.7854C31.8504 15.954 32.1678 16.0414 32.4907 16.0376L32.4819 16.0421ZM31.774 19.3779C30.8051 18.9001 30.1902 17.6082 30.0398 17.1658C29.8805 19.6876 28.6506 21.4351 27.2127 23.1163C26.7723 23.6222 26.4302 24.2058 26.204 24.8373C26.3217 24.206 26.5904 23.6125 26.9871 23.1074C28.3143 21.497 29.6062 19.4885 29.6991 17.1702C29.7727 15.7629 29.4245 14.3657 28.6992 13.1575C28.9255 13.8119 28.9591 14.5175 28.796 15.1905C28.6329 15.8634 28.2799 16.4753 27.779 16.9534C27.779 16.9534 30.2344 14.0069 26.8013 10.9897C25.4253 9.83937 23.9211 9.13151 23.1469 8.62715C25.943 9.53853 27.31 8.53424 27.31 8.53424C26.9228 8.83636 26.4747 9.05095 25.9966 9.16323C25.5185 9.2755 25.0217 9.28279 24.5405 9.1846C24.7352 9.2775 24.9387 9.37926 25.1555 9.49429C27.5136 10.7773 29.6372 12.8832 29.9955 15.8031V15.781C30.5441 18.6479 31.7652 19.3823 31.7652 19.3823" fill="white"/>
        <path d="M9.21166 22.5634C9.63443 22.5097 10.0389 22.3582 10.3929 22.121C10.5519 21.987 10.6804 21.8206 10.7697 21.6329C10.8589 21.4451 10.907 21.2405 10.9105 21.0326C10.3987 21.0546 9.88842 20.9606 9.41801 20.7576C8.9476 20.5546 8.52919 20.2478 8.1941 19.8602C7.7912 19.394 7.51943 18.829 7.4066 18.2233C7.97808 18.6511 8.67981 18.8683 9.39305 18.8382C9.5125 18.8382 9.63195 18.8382 9.76025 18.8382C10.1463 18.7996 10.5117 18.6454 10.8088 18.3958C9.44171 17.511 8.4861 15.9979 9.33553 13.7018C10.0169 11.8613 11.6449 10.4854 13.2907 9.45014C13.8349 9.11391 14.1579 8.73343 14.1579 8.40604C14.1579 7.63624 13.0651 7.60969 12.6183 7.07879C12.1006 6.4771 12.4236 5.50379 12.8704 4.9198C12.7419 4.89761 12.6116 4.88725 12.4811 4.88883C12.1154 4.88525 11.7527 4.95595 11.415 5.09664C11.0774 5.23732 10.7718 5.44507 10.5168 5.7073C10.2611 5.9509 10.0773 6.26001 9.98521 6.60092C9.89315 6.94184 9.89645 7.30149 9.99473 7.64066L9.73371 7.69817C9.58762 7.72446 9.43969 7.73925 9.29129 7.74242H9.19839C7.89768 7.74242 7.31812 6.3842 7.31812 6.3842C7.31812 6.3842 5.95105 8.08308 7.96404 9.41475C8.31355 9.64038 8.4684 9.85717 8.40646 10.0784L8.37549 10.2244L8.22949 10.2509C6.76067 10.6491 6.01741 11.6667 5.10161 12.8214C4.67303 13.366 4.13069 13.8105 3.51249 14.1238C2.89428 14.4371 2.21512 14.6117 1.52246 14.6353H1.53131C1.53131 14.6353 1.97373 16.0422 3.30097 16.0422H3.36291C3.68579 16.0457 4.00315 15.9583 4.27872 15.79C4.27872 15.79 4.5132 18.9886 2.12857 19.9797C2.28286 20.2124 2.49267 20.403 2.73907 20.5343C2.98547 20.6656 3.26068 20.7335 3.53988 20.7318C3.85752 20.7506 4.1751 20.6938 4.46657 20.5662C4.75803 20.4385 5.01509 20.2436 5.21664 19.9974C5.20255 20.7502 5.32394 21.4995 5.575 22.2094C5.89646 23.0651 5.89646 24.0083 5.575 24.8639C5.77046 24.9123 5.97091 24.9375 6.17226 24.9392C6.29751 24.9403 6.4224 24.9254 6.54389 24.8949C6.83229 24.8261 7.09831 24.6848 7.31668 24.4842C7.53504 24.2836 7.6985 24.0306 7.7915 23.7491C7.7915 23.7491 7.69859 26.8194 11.2822 26.8194H11.3087C11.0377 26.3071 10.8979 25.7355 10.9017 25.1559C10.7557 22.8863 9.21166 22.5634 9.21166 22.5634ZM8.63652 23.1208C7.19866 21.4352 5.98202 19.6877 5.80505 17.1703C5.65463 17.6127 5.0441 18.9002 4.0752 19.3824C4.0752 19.3824 5.29627 18.648 5.84487 15.7811V15.8032C6.20765 12.8833 8.32682 10.773 10.6893 9.49439C10.9061 9.37493 11.1096 9.2776 11.3043 9.18469C10.8238 9.28223 10.3278 9.2746 9.85051 9.16234C9.37321 9.05008 8.92586 8.83584 8.53918 8.53434C8.53918 8.53434 9.90625 9.53863 12.7023 8.62725C11.9281 9.1316 10.4239 9.83947 9.05239 10.9898C5.61481 14.007 8.07465 16.9535 8.07465 16.9535C7.57332 16.4757 7.22001 15.8638 7.05685 15.1908C6.89368 14.5177 6.92755 13.8119 7.15442 13.1576C6.42636 14.3647 6.078 15.7627 6.15456 17.1703C6.23862 19.4665 7.52163 21.4927 8.84888 23.1075C9.2507 23.6155 9.52253 24.2139 9.6408 24.8507C9.41348 24.2197 9.0715 23.6363 8.63209 23.1297" fill="white"/>
        <path d="M15.2724 11.3482C15.3299 11.4102 15.3874 11.4809 15.4449 11.5473L15.4847 11.596L15.6396 11.8128L15.675 11.8614C15.7325 11.9499 15.79 12.0472 15.8475 12.1446C16.0449 12.5379 16.3388 12.8749 16.7016 13.124C17.0644 13.3731 17.4844 13.5262 17.9225 13.5691C18.3604 13.5258 18.7802 13.3725 19.143 13.1235C19.5057 12.8744 19.7996 12.5377 19.9974 12.1446C20.0549 12.0472 20.1124 11.9499 20.1744 11.8614L20.2009 11.8216C20.254 11.7464 20.3071 11.6712 20.3602 11.596L20.3956 11.5517C20.4531 11.4809 20.5106 11.4102 20.5725 11.3482L20.6035 11.3217C20.8726 11.0393 21.2138 10.8359 21.5901 10.7333L21.3999 10.6182L20.6743 10.1758L19.9266 9.7334L17.9313 10.8173L15.9272 9.77322L15.1795 10.2156L14.4495 10.658L14.2637 10.7642C14.6401 10.8666 14.9813 11.0701 15.2503 11.3526L15.2812 11.3836L15.2724 11.3482ZM17.1217 11.2951H18.8073V11.8747C18.7307 11.8006 18.6385 11.7447 18.5374 11.711C18.4363 11.6773 18.329 11.6667 18.2233 11.68V12.5162C18.2276 12.7224 18.2823 12.9244 18.3826 13.1046H17.5376C17.6445 12.9143 17.6994 12.6991 17.6968 12.4808V11.6446C17.5911 11.6313 17.4838 11.6419 17.3827 11.6756C17.2816 11.7093 17.1894 11.7652 17.1128 11.8393L17.1217 11.2951Z" fill="white"/>
        <path d="M17.7459 10.1355V6.74659L15.5869 6.0166L16.1576 9.29048L17.7459 10.1355ZM17.3035 7.57833V8.1225L17.1973 8.07384C17.0349 8.01912 16.8847 7.93349 16.7549 7.82166C16.6393 7.74862 16.5403 7.65226 16.4641 7.53875C16.3879 7.42524 16.3363 7.29708 16.3125 7.16246L17.3035 7.57833Z" fill="white"/>
        <path d="M19.6781 9.29054L20.2444 6.00781L18.0898 6.7378V10.1267L19.6781 9.29054ZM18.5544 7.56954L19.5366 7.15809C19.5127 7.29271 19.4611 7.42088 19.3849 7.53439C19.3087 7.6479 19.2097 7.74426 19.0941 7.81729C18.9643 7.92912 18.8141 8.01476 18.6517 8.06947L18.5455 8.11814L18.5544 7.56954Z" fill="white"/>
        <path d="M14.6927 17.9936C14.8857 18.0562 15.0873 18.0876 15.2901 18.0865V18.0246C15.3025 17.9853 15.3129 17.9454 15.3211 17.9051C15.3529 17.7283 15.3707 17.5493 15.3742 17.3696C15.2537 17.2976 15.1557 17.1934 15.091 17.0687C15.0641 16.9946 15.0146 16.9308 14.9495 16.8863C14.8844 16.8419 14.807 16.819 14.7281 16.8209C14.5322 16.8375 14.3436 16.9029 14.1794 17.0112C14.1534 17.2057 14.1873 17.4036 14.2767 17.5783C14.366 17.7531 14.5065 17.8964 14.6795 17.9892" fill="white"/>
        <path d="M19.4665 16.1968C19.0639 16.6392 18.2809 17.3913 18.2455 17.4311L18.1968 17.4798L15.7193 17.44C15.7172 17.6445 15.6904 17.848 15.6396 18.0461V18.1257L18.5817 18.6522C18.887 18.4398 19.732 17.8205 20.0594 17.5815C19.8568 17.2706 19.7823 16.8933 19.8514 16.5286C19.7097 16.4397 19.5841 16.3276 19.4798 16.1968" fill="white"/>
        <path d="M19.8033 13.2153C19.3828 13.6718 18.8134 13.9636 18.1973 14.0382C18.1074 14.0428 18.0173 14.0428 17.9274 14.0382V14.0382C17.8375 14.0428 17.7475 14.0428 17.6576 14.0382C17.5683 14.031 17.4796 14.0176 17.3921 13.9984C17.3351 14.2127 17.3507 14.4398 17.4363 14.6443C17.4997 14.7672 17.5872 14.876 17.6937 14.9641C17.8001 15.0523 17.9233 15.1181 18.0557 15.1575L18.1575 15.1974V15.308C18.1688 15.534 18.2542 15.7501 18.4005 15.9228C18.5468 16.0955 18.7459 16.2153 18.9671 16.2636C19.0954 16.1309 19.2104 16.0114 19.2989 15.9096C19.2217 15.7539 19.1964 15.5776 19.2266 15.4064C19.2569 15.2353 19.3411 15.0783 19.467 14.9585C19.4312 15.2188 19.4735 15.4839 19.5885 15.7201C19.7035 15.9564 19.886 16.1533 20.113 16.2857L20.2368 16.3432L20.2014 16.4759C20.121 16.7347 20.1444 17.0147 20.2665 17.2566C20.3887 17.4985 20.6002 17.6834 20.8562 17.7722L21.0199 17.8342L20.9491 17.9934C20.8437 18.2333 20.8341 18.5044 20.9221 18.7511C21.0101 18.9979 21.1891 19.2016 21.4225 19.3207H23.2629V17.8607C23.0123 17.8283 22.7789 17.7155 22.5978 17.5392C22.4168 17.3629 22.2977 17.1326 22.2587 16.883C21.9826 16.8466 21.7317 16.7037 21.5597 16.4848C21.4515 16.3425 21.389 16.1709 21.3803 15.9924C21.3716 15.8139 21.4172 15.637 21.511 15.4849C21.5151 15.7808 21.6232 16.0659 21.8163 16.2901C21.9755 16.4554 22.1892 16.5576 22.4179 16.5777H22.5507V16.7148C22.5638 16.9068 22.6391 17.0893 22.7653 17.2346C22.8914 17.3799 23.0615 17.4801 23.2497 17.52V14.5735C23.2666 14.1067 23.367 13.6467 23.5461 13.2153H19.8033Z" fill="white"/>
        <path d="M14.8519 14.5821L14.7988 16.4845L15.0156 16.5155L15.5465 14.6927L15.2766 14.1309L14.8519 14.5821Z" fill="white"/>
        <path d="M20.6743 23.2974H20.7274C21.0548 23.3903 21.1388 24.576 21.714 24.6822C21.7654 24.6875 21.8173 24.6875 21.8688 24.6822C21.9424 24.6825 22.015 24.6645 22.0799 24.6298C22.1448 24.595 22.1999 24.5446 22.2404 24.4831C22.2404 24.4831 21.9484 24.0407 21.7317 23.7177C21.4441 23.3151 21.2185 22.8329 20.6831 22.8329H20.6433C20.5401 22.8372 20.4403 22.8709 20.3557 22.9302C20.1768 22.8131 19.9679 22.7501 19.7541 22.7488C19.5066 22.7786 19.2623 22.8305 19.0241 22.9037V22.9037L17.8251 22.7842C17.664 22.7455 17.5244 22.6455 17.4358 22.5055V22.4745C17.4358 22.4436 17.4358 22.4082 17.4358 22.3772C17.4443 22.0558 17.3427 21.7412 17.1481 21.4853C16.9534 21.2295 16.6772 21.0478 16.3651 20.9703C16.3651 20.9703 16.3961 20.7845 16.3253 20.7137L16.0599 21.0323L15.175 20.5898L15.7944 21.311L15.2724 21.8994C15.2468 21.9241 15.2299 21.9564 15.2243 21.9915C15.2187 22.0267 15.2247 22.0626 15.2414 22.0941L15.467 22.2931L15.7546 22.1206C15.7778 22.1142 15.8022 22.1142 15.8254 22.1206C15.905 22.1206 16.0245 22.1206 16.1307 22.1206C16.2368 22.1206 16.3474 22.0941 16.3607 21.9879C16.3253 22.3507 15.9891 22.9833 16.2103 23.4788L16.3696 23.8903L15.3122 23.7398L14.8167 24.576C14.739 24.6831 14.6946 24.8108 14.6891 24.943C14.6836 25.0752 14.7172 25.2061 14.7857 25.3193L14.9715 25.5493C15.0999 25.4192 15.2074 25.2699 15.2901 25.1069L15.206 25.014C15.1754 24.9847 15.1563 24.9453 15.1522 24.9031C15.1481 24.8609 15.1594 24.8186 15.1839 24.7839L15.4936 24.2663L16.7456 24.5627L16.812 24.4521C16.8463 24.3933 16.8964 24.3451 16.9566 24.3131C17.0167 24.281 17.0846 24.2664 17.1526 24.2707C17.2101 24.2662 17.2678 24.2662 17.3252 24.2707C17.653 24.3369 17.9862 24.3725 18.3206 24.3769C18.5095 24.3963 18.7003 24.3777 18.8819 24.3222C19.0635 24.2667 19.2322 24.1755 19.378 24.054C19.8204 24.7264 20.7495 24.8326 20.6743 25.1733L20.431 26.3235C20.5902 26.3235 20.7451 26.3235 20.8734 26.2837L21.1034 25.0892C21.13 24.9609 21.1521 24.7839 21.1521 24.7839C20.9795 24.638 20.8303 24.4664 20.7097 24.2752C20.546 23.9655 20.6345 23.8018 20.484 23.3903C20.4988 23.363 20.5204 23.3401 20.5468 23.3237C20.5732 23.3074 20.6034 23.2984 20.6345 23.2974H20.6743ZM15.9537 21.6162C15.9393 21.6157 15.9253 21.6122 15.9123 21.6061C15.8993 21.6 15.8877 21.5912 15.8782 21.5805C15.8687 21.5697 15.8615 21.5572 15.857 21.5436C15.8524 21.5299 15.8507 21.5155 15.8519 21.5012C15.8525 21.4869 15.8559 21.4728 15.8621 21.4598C15.8682 21.4468 15.8769 21.4353 15.8877 21.4257C15.8984 21.4162 15.911 21.409 15.9246 21.4045C15.9383 21.4 15.9527 21.3983 15.967 21.3995C15.9957 21.3995 16.0233 21.4109 16.0436 21.4312C16.0639 21.4515 16.0754 21.4791 16.0754 21.5079C16.0754 21.5366 16.0639 21.5642 16.0436 21.5845C16.0233 21.6048 15.9957 21.6162 15.967 21.6162" fill="white"/>
        <path d="M14.2856 24.3865C14.2856 24.3865 14.7016 24.214 14.7281 24.0945L14.675 23.9573C14.6525 23.9188 14.6446 23.8734 14.6527 23.8296C14.6608 23.7857 14.6845 23.7462 14.7193 23.7183L15.1618 23.4086L15.9097 23.5502C15.8255 23.4364 15.7819 23.2978 15.7858 23.1563L15.0866 23.0059L14.4139 23.4174C14.2966 23.5048 14.212 23.6291 14.1735 23.7702C14.135 23.9114 14.1448 24.0614 14.2015 24.1963L14.2856 24.3865Z" fill="white"/>
        <path d="M19.5723 26.3373H20.0148C20.0148 26.3373 20.3998 25.2133 20.4219 25.1779C20.1359 25.0445 19.8567 24.8968 19.5855 24.7354C19.7006 24.9079 19.9794 25.1026 19.9219 25.2531L19.5723 26.3373Z" fill="white"/>
        <path d="M23.2361 19.6655H12.6182V23.6473C12.6182 25.2842 13.7994 26.3018 15.547 26.3018C17.0069 26.3018 17.3918 26.3593 17.9316 26.899C18.1006 26.7167 18.3062 26.572 18.5349 26.4745C18.7635 26.3769 19.0102 26.3286 19.2588 26.3327V26.2708L19.5951 25.2356L19.0243 24.6117C18.7951 24.6808 18.5555 24.7093 18.3165 24.6958C17.9599 24.6918 17.6044 24.6547 17.2547 24.5852H17.1441C17.0954 24.5852 17.0954 24.5852 17.0821 24.6117L17.0158 24.7224L16.8963 24.9214L16.6663 24.8683L15.6443 24.6294L15.5027 24.8595V24.886L15.6266 25.0232L15.5735 25.2002C15.4806 25.4168 15.3469 25.6135 15.1798 25.7797L14.9231 26.054L14.6887 25.762L14.5161 25.5452C14.4251 25.4258 14.366 25.2852 14.3443 25.1366C14.3226 24.9879 14.3391 24.8363 14.3923 24.6958L14.1047 24.8153L13.9764 24.5321L13.9056 24.333C13.8183 24.13 13.8027 23.9033 13.8614 23.6902C13.9201 23.4771 14.0496 23.2903 14.2286 23.1606L15.0515 22.7182L15.8345 22.873C15.8345 22.7978 15.8832 22.528 15.9053 22.4616H15.8611L15.4187 22.6297L14.9762 22.3289C14.9546 22.3075 14.9374 22.282 14.9256 22.2539C14.9139 22.2258 14.9078 22.1956 14.9078 22.1652C14.9078 22.1347 14.9139 22.1046 14.9256 22.0765C14.9374 22.0484 14.9546 22.0229 14.9762 22.0015L15.3965 21.3644L14.3303 20.0372L15.9274 20.6654L16.038 20.5327L16.2592 20.2672L16.5114 20.5061C16.578 20.5711 16.6241 20.6542 16.6441 20.745C17.0866 20.922 17.905 21.4396 17.9714 22.2802L17.7192 22.382C17.7496 22.4256 17.7908 22.4606 17.8387 22.4837L19.0066 22.5988L19.1128 22.5678C19.3125 22.493 19.5234 22.4527 19.7366 22.4483C19.9481 22.4498 20.1566 22.4981 20.3472 22.5899C20.4325 22.5592 20.522 22.5413 20.6126 22.5368H20.6701C21.2939 22.5368 21.6081 23.0058 21.8558 23.3774L21.9841 23.5632C22.2009 23.8729 22.4885 24.3242 22.5017 24.3419L22.63 24.541L22.4708 24.7268C22.398 24.8219 22.3042 24.8989 22.1968 24.9518C22.0893 25.0048 21.9711 25.0322 21.8514 25.032C21.7807 25.0387 21.7097 25.0387 21.639 25.032C21.5752 25.0195 21.5129 25.0002 21.4532 24.9745C21.4532 25.0365 21.4532 25.1117 21.4178 25.1736L21.2364 26.2177C21.8196 26.1003 22.3418 25.7787 22.7091 25.3108C23.0765 24.8429 23.2649 24.2594 23.2406 23.665L23.2361 19.6655Z" fill="#FCE527"/>
        <path d="M12.605 19.3428H20.8738C20.7085 19.1693 20.5933 18.9543 20.5403 18.7207C20.4873 18.487 20.4986 18.2433 20.5729 18.0155C20.461 17.962 20.3568 17.8935 20.2632 17.812C19.9403 18.0509 18.936 18.7676 18.6971 18.949L18.644 18.9844L15.3967 18.4093H15.3303C15.2242 18.4155 15.1178 18.4155 15.0118 18.4093C14.9967 18.4792 14.9582 18.5418 14.9027 18.5868C14.8472 18.6319 14.778 18.6566 14.7065 18.657H14.6534C14.5698 18.6429 14.4951 18.5965 14.4455 18.5278C14.3958 18.4591 14.3752 18.3736 14.388 18.2898V18.219C14.1831 18.0714 14.0258 17.8672 13.9354 17.6314C13.845 17.3956 13.8255 17.1385 13.8792 16.8918V16.8343L13.9278 16.7989C13.9278 16.7989 13.9898 16.7547 14.0738 16.706L13.8394 16.6706C13.7974 16.663 13.76 16.6394 13.7352 16.6047C13.7105 16.5699 13.7002 16.5269 13.7066 16.4848C13.7098 16.4637 13.7172 16.4435 13.7284 16.4254C13.7395 16.4073 13.7542 16.3915 13.7715 16.3792C13.7888 16.3668 13.8085 16.358 13.8292 16.3534C13.85 16.3487 13.8715 16.3483 13.8924 16.3521L14.4543 16.4405L14.5074 14.4629L15.3436 13.5781L15.8656 14.6753L15.317 16.5777L15.8125 16.6573C15.8545 16.6649 15.8919 16.6886 15.9166 16.7233C15.9414 16.758 15.9517 16.801 15.9453 16.8431C15.9389 16.8806 15.9194 16.9146 15.8902 16.939C15.861 16.9633 15.824 16.9764 15.786 16.9759H15.7594L15.3568 16.9095V16.9405C15.4016 17.0195 15.4695 17.0828 15.5515 17.1219L18.0246 17.1617L18.6573 16.5379C18.421 16.4562 18.2126 16.3095 18.0561 16.1146C17.8995 15.9197 17.8012 15.6846 17.7724 15.4363C17.4643 15.3183 17.2127 15.0873 17.069 14.7903C16.949 14.5107 16.9286 14.1983 17.0115 13.9055C16.6219 13.7528 16.2702 13.5173 15.9806 13.2153H12.3086C12.4863 13.6472 12.5866 14.1069 12.605 14.5735V19.3428Z" fill="#FCE527"/>
        <path d="M16.007 21.3993C15.9927 21.3981 15.9783 21.3998 15.9647 21.4043C15.9511 21.4088 15.9385 21.4161 15.9277 21.4256C15.917 21.4351 15.9083 21.4467 15.9021 21.4597C15.896 21.4726 15.8925 21.4867 15.892 21.5011C15.8908 21.5154 15.8925 21.5298 15.897 21.5434C15.9015 21.557 15.9087 21.5696 15.9183 21.5804C15.9278 21.5911 15.9394 21.5998 15.9523 21.606C15.9653 21.6121 15.9794 21.6156 15.9938 21.6161C16.0225 21.6161 16.0501 21.6047 16.0704 21.5844C16.0908 21.564 16.1022 21.5365 16.1022 21.5077C16.1022 21.479 16.0908 21.4514 16.0704 21.4311C16.0501 21.4107 16.0225 21.3993 15.9938 21.3993" fill="#222220"/>
        <path d="M23.2225 28.6554L22.612 28.421L22.7801 27.7883L22.9659 27.0981C22.1299 27.5258 21.2542 27.8711 20.3512 28.129C19.9088 28.2528 19.5903 28.3104 19.5903 28.3104V28.7572C19.046 28.8456 18.4958 28.8929 17.9445 28.8988H17.8958C17.3444 28.893 16.7943 28.8456 16.25 28.7572V28.3148C16.25 28.3148 15.9271 28.2528 15.4846 28.129C14.5816 27.8712 13.7059 27.526 12.87 27.0981L13.0514 27.7883L13.2239 28.421L12.6089 28.6554L11.9453 28.9076C12.8579 29.381 13.8097 29.7748 14.79 30.0844L14.5556 30.7215C15.6237 31.1302 16.7613 31.327 17.9047 31.3011H17.9312C19.0746 31.3272 20.2122 31.1304 21.2803 30.7215L21.0502 30.0844C22.0293 29.7753 22.9797 29.3815 23.8905 28.9076L23.2225 28.6554ZM12.6664 28.9519L13.6752 28.6156L13.3787 27.6423C14.0279 27.9659 14.7026 28.2352 15.3962 28.4475L14.9095 29.7747C14.1377 29.57 13.3879 29.2899 12.6709 28.9386L12.6664 28.9519ZM17.9224 30.9693C16.9493 30.964 15.981 30.8316 15.0422 30.5755L15.6395 28.9563C16.3847 29.1436 17.1496 29.2416 17.9179 29.2483H17.9666C18.7349 29.2412 19.4997 29.1432 20.245 28.9563L20.8423 30.5755C19.8986 30.8393 18.9243 30.9776 17.9445 30.987L17.9224 30.9693ZM20.9617 29.788L20.4751 28.4608C21.1686 28.2485 21.8434 27.9792 22.4925 27.6556L22.1961 28.6289L23.2004 28.9651C22.4835 29.3168 21.7336 29.5969 20.9617 29.8013" fill="#222220"/>
        <path d="M17.9176 3.40216C18.9177 3.37491 19.8994 3.6747 20.7137 4.25602C20.8405 3.59974 21.0848 2.97176 21.4348 2.4023L20.4305 2.51733L19.9085 1.39801L18.8953 1.92006L17.9176 0.951172L16.9399 1.92006L15.9267 1.39801L15.4047 2.51733L14.4004 2.4023C14.7507 2.97163 14.995 3.59966 15.1215 4.25602C15.9361 3.67529 16.9176 3.37556 17.9176 3.40216V3.40216ZM15.3604 2.90665L15.6392 2.93762L15.7586 2.68544L16.1081 1.93334L16.7585 2.26957L17.0106 2.39787L17.2142 2.21206L17.9176 1.49977L18.621 2.21206L18.8246 2.41115L19.0767 2.28285L19.7227 1.94661L20.0766 2.69872L20.196 2.95089L20.4748 2.91993L20.7402 2.88896C20.6329 3.13358 20.5413 3.38479 20.4659 3.64106C19.6779 3.2373 18.8052 3.02673 17.9198 3.02673C17.0344 3.02673 16.1617 3.2373 15.3737 3.64106C15.2979 3.38495 15.2063 3.13377 15.0994 2.88896L15.3604 2.90665Z" fill="#222220"/>
        <path d="M32.5447 16.4755C34.1551 16.4755 34.6948 14.8341 34.717 14.7633L34.8983 14.1838H34.2922C33.6628 14.162 33.0457 14.003 32.484 13.718C31.9224 13.4329 31.4297 13.0287 31.0405 12.5336L30.921 12.3876C30.0981 11.339 29.315 10.3436 27.917 9.88792C27.9724 9.8391 28.0316 9.79472 28.094 9.75519C28.4223 9.56956 28.7068 9.31544 28.9282 9.01008C29.1496 8.70472 29.3026 8.35529 29.377 7.98552C29.4527 7.30934 29.2623 6.63024 28.8461 6.09198L28.4037 5.53896L28.1249 6.19816C28.1249 6.23798 27.6338 7.29535 26.6428 7.29535H26.5455H26.3508C26.3778 6.95141 26.3301 6.60571 26.2109 6.28194C26.0918 5.95816 25.9041 5.66397 25.6607 5.41951C25.3647 5.11703 25.0107 4.8773 24.62 4.71463C24.2293 4.55196 23.8098 4.46969 23.3866 4.47274C23.2282 4.47209 23.0699 4.48392 22.9133 4.50813L22.2364 4.64086L22.6567 5.19388C22.984 5.63629 23.2805 6.40167 22.931 6.81312C22.7635 6.95877 22.5718 7.07405 22.3647 7.15378C21.9222 7.36172 21.2852 7.65814 21.2852 8.4014C21.2852 8.88363 21.6612 9.38798 22.3381 9.81713C24.3334 11.0824 25.5678 12.3876 26.1031 13.8564C26.9304 16.095 25.8509 17.3692 24.8024 18.0417L24.3334 18.3425L24.7449 18.7185C25.1114 19.0327 25.5653 19.2272 26.0456 19.276C26.1871 19.276 26.3199 19.276 26.4482 19.276C26.8588 19.2775 27.2673 19.2179 27.6604 19.099C27.5613 19.272 27.4457 19.4349 27.3153 19.5857C27.0204 19.9283 26.6509 20.1989 26.2353 20.3768C25.8197 20.5547 25.3689 20.6352 24.9174 20.6121H24.5237L24.4927 21.0058C24.491 21.2785 24.5491 21.5481 24.663 21.7958C24.7769 22.0435 24.9438 22.2631 25.1519 22.4393C25.2622 22.5361 25.3859 22.6165 25.5191 22.6782C25.1951 22.9942 24.9365 23.371 24.7581 23.787C24.5797 24.203 24.485 24.65 24.4794 25.1026C24.4787 25.6036 24.3653 26.0981 24.1476 26.5493L23.7052 27.2129H24.4927C25.7934 27.2129 26.7888 26.8561 27.479 26.1423C27.837 25.7655 28.1035 25.3114 28.2577 24.815C28.5135 25.0304 28.8167 25.182 29.1425 25.2575C29.2977 25.2933 29.4566 25.3111 29.6159 25.3106C29.8543 25.3099 30.0918 25.2817 30.3237 25.2265L30.8281 25.0938L30.6069 24.6248C30.329 23.8755 30.329 23.0514 30.6069 22.3021C30.7708 21.8135 30.885 21.3095 30.9476 20.7979C31.3461 21.0008 31.7878 21.104 32.235 21.0987C32.5952 21.104 32.951 21.0179 33.2689 20.8485C33.5869 20.679 33.8568 20.4318 34.0533 20.1299L34.2967 19.6874L33.8542 19.5016C32.3721 18.8867 32.0448 17.232 31.9784 16.3383C32.1242 16.3679 32.2721 16.3857 32.4208 16.3914L32.5447 16.4755ZM33.7215 19.9794C33.566 20.214 33.3541 20.4058 33.1052 20.5372C32.8563 20.6686 32.5784 20.7355 32.2969 20.7315C31.9793 20.7504 31.6617 20.6936 31.3702 20.566C31.0788 20.4383 30.8217 20.2434 30.6202 19.9971C30.6331 20.7503 30.5102 21.4996 30.2574 22.2092C29.9347 23.0646 29.9347 24.0083 30.2574 24.8637C30.0605 24.9124 29.8585 24.9376 29.6557 24.9389C29.5305 24.9398 29.4056 24.925 29.2841 24.8947C28.9957 24.8259 28.7296 24.6845 28.5113 24.484C28.2929 24.2834 28.1295 24.0303 28.0364 23.7488C28.0364 23.7488 28.1294 26.8192 24.5502 26.8192H24.5237C24.7954 26.3071 24.9352 25.7354 24.9307 25.1557C25.0855 22.8861 26.6251 22.5631 26.6251 22.5631C26.2023 22.5096 25.7978 22.3581 25.4439 22.1207C25.2849 21.9868 25.1564 21.8204 25.0671 21.6326C24.9778 21.4449 24.9298 21.2402 24.9263 21.0324C25.4375 21.0547 25.9472 20.9608 26.417 20.7577C26.8867 20.5547 27.3043 20.2477 27.6383 19.86C28.0437 19.3948 28.3171 18.8296 28.4302 18.223C27.8587 18.6508 27.157 18.8681 26.4437 18.838C26.3287 18.838 26.2048 18.838 26.081 18.838C25.6948 18.7999 25.3292 18.6456 25.0324 18.3956C26.3951 17.5108 27.3507 15.9977 26.5057 13.7015C25.8244 11.8611 24.1918 10.4852 22.5505 9.44992C22.0063 9.11369 21.6789 8.73321 21.6789 8.40582C21.6789 7.63602 22.7717 7.61389 23.2229 7.07857C23.7406 6.47688 23.4176 5.50357 22.9663 4.91958C23.0949 4.89744 23.2252 4.88708 23.3557 4.88861C23.7214 4.88504 24.0841 4.95573 24.4218 5.09642C24.7594 5.2371 25.065 5.44485 25.32 5.70708C25.5757 5.95068 25.7595 6.25979 25.8516 6.6007C25.9436 6.94162 25.9403 7.30127 25.8421 7.64044L26.081 7.68911C26.227 7.71561 26.375 7.7304 26.5234 7.73335H26.6207C27.917 7.73335 28.501 6.37513 28.501 6.37513C28.501 6.37513 29.8813 8.07401 27.8506 9.40126C27.5011 9.62689 27.3463 9.84367 27.4082 10.0649L27.4392 10.2109L27.5852 10.2374C29.0584 10.6356 29.7973 11.6532 30.7131 12.8079C31.1419 13.3523 31.6842 13.7967 32.3024 14.1099C32.9206 14.4232 33.5996 14.5979 34.2922 14.6218H34.3188C34.3188 14.6218 33.8764 16.0287 32.5491 16.0287H32.4872C32.1643 16.0324 31.8468 15.945 31.5714 15.7765C31.5714 15.7765 31.3369 18.9752 33.7215 19.9662" fill="#222220"/>
        <path d="M29.7083 10.0872C30.2045 10.3686 30.6345 10.7533 30.9691 11.2154C31.2203 11.6052 31.5802 11.9128 32.0044 12.1002C32.1655 12.1541 32.3344 12.181 32.5043 12.1798C32.8368 12.1788 33.1626 12.0862 33.4459 11.9121C33.7292 11.7381 33.9591 11.4894 34.1103 11.1932L34.3669 10.6181L33.7431 10.5827C33.072 10.4608 32.4631 10.1126 32.0177 9.59611C31.8536 9.41793 31.6546 9.27534 31.4332 9.17717C31.2117 9.079 30.9725 9.02734 30.7302 9.02539C30.3516 9.03131 29.9823 9.14319 29.664 9.34836L29.0889 9.75096L29.7083 10.0872ZM30.7302 9.45896C30.9158 9.45996 31.099 9.49984 31.2682 9.57605C31.4374 9.65225 31.5887 9.76308 31.7124 9.90138C32.232 10.4929 32.94 10.8867 33.7165 11.0163C33.5984 11.2354 33.4236 11.4188 33.2103 11.5472C32.9971 11.6756 32.7532 11.7444 32.5043 11.7463C32.3793 11.7464 32.2552 11.7255 32.1371 11.6843C31.4204 11.441 31.1682 10.3571 29.925 9.70229C30.1694 9.54495 30.4529 9.45913 30.7435 9.45454" fill="#222220"/>
        <path d="M29.9912 15.7811C29.6284 12.8612 27.5092 10.7508 25.1511 9.47225C24.9344 9.3528 24.7308 9.25547 24.5362 9.16256C25.0174 9.26046 25.5141 9.25302 25.9922 9.14076C26.4703 9.02849 26.9184 8.81407 27.3057 8.51221C27.3057 8.51221 25.9386 9.51649 23.1426 8.60511C23.9168 9.10947 25.421 9.81734 26.7969 10.9676C30.2301 13.9849 27.7747 16.9314 27.7747 16.9314C28.2763 16.4538 28.6301 15.8421 28.794 15.1691C28.958 14.4962 28.9251 13.7903 28.6993 13.1355C29.4246 14.3437 29.7727 15.7409 29.6992 17.1482C29.6018 19.4664 28.3144 21.4927 26.9872 23.1075C26.5869 23.616 26.3166 24.2143 26.1997 24.8507C26.4259 24.2192 26.768 23.6355 27.2084 23.1297C28.6462 21.444 29.8629 19.6965 30.0354 17.1791C30.1858 17.6216 30.7964 18.909 31.7697 19.3912C31.7697 19.3912 30.5486 18.6568 30 15.79" fill="#222220"/>
        <path d="M11.6848 26.5803C11.4703 26.128 11.357 25.6343 11.353 25.1336C11.3468 24.6807 11.2514 24.2335 11.0722 23.8175C10.8931 23.4015 10.6337 23.0249 10.3089 22.7092C10.4422 22.6478 10.5659 22.5673 10.6761 22.4703C10.8844 22.2944 11.0514 22.0747 11.1654 21.827C11.2793 21.5793 11.3373 21.3095 11.3353 21.0369L11.3087 20.6431H10.9106C10.4598 20.6655 10.0098 20.5847 9.59506 20.4068C9.18026 20.229 8.81157 19.9587 8.51708 19.6167C8.38732 19.4654 8.2718 19.3025 8.17199 19.13C8.56498 19.2491 8.97358 19.3088 9.38421 19.307C9.51251 19.307 9.64524 19.307 9.78681 19.307C10.2686 19.2588 10.724 19.0642 11.0919 18.7496L11.5034 18.3735L11.0344 18.0727C9.98148 17.4002 8.9064 16.126 9.73372 13.8874C10.269 12.4318 11.5034 11.1179 13.5164 9.85256C14.1933 9.41014 14.5649 8.91906 14.5649 8.43682C14.5649 7.69356 13.9411 7.39714 13.4854 7.18921C13.2781 7.10981 13.0864 6.99449 12.9191 6.84855C12.5652 6.4371 12.8616 5.65402 13.1934 5.2293L13.6358 4.67628L12.9545 4.54355C12.7979 4.51918 12.6396 4.50734 12.4811 4.50816C12.0552 4.49579 11.6312 4.57021 11.2349 4.72689C10.8387 4.88356 10.4784 5.11923 10.1761 5.41954C9.92838 5.66271 9.73638 5.95677 9.6134 6.28141C9.49042 6.60605 9.43939 6.95352 9.46385 7.29981H9.26919H9.1984C8.20296 7.29981 7.734 6.24686 7.7163 6.20262L7.43758 5.54342L6.99516 6.09644C6.58387 6.63701 6.39545 7.31469 6.46869 7.98998C6.54197 8.35956 6.69414 8.70898 6.91479 9.01439C7.13545 9.3198 7.4194 9.574 7.74727 9.75965C7.80985 9.79889 7.86905 9.84328 7.92424 9.89237C6.5262 10.3348 5.74312 11.3435 4.92023 12.392L4.80078 12.5424C4.41106 13.0382 3.91769 13.4427 3.35523 13.7278C2.79277 14.0128 2.1748 14.1715 1.54459 14.1927H0.938477L1.12429 14.7722C1.12429 14.843 1.68174 16.4844 3.29656 16.4844H3.37619C3.52483 16.4784 3.67276 16.4606 3.81861 16.4313C3.75225 17.3161 3.42486 18.9796 1.93834 19.5946L1.49592 19.7804L1.73925 20.2228C1.93581 20.5248 2.20566 20.772 2.52364 20.9414C2.84161 21.1109 3.19733 21.197 3.55758 21.1917C4.00323 21.1961 4.44336 21.0929 4.84059 20.8909C4.90282 21.4025 5.01696 21.9065 5.18125 22.3951C5.45911 23.1444 5.45911 23.9685 5.18125 24.7178L4.96005 25.1867L5.4644 25.3194C5.69633 25.3746 5.93386 25.4028 6.17227 25.4035C6.33159 25.4042 6.49045 25.3864 6.64565 25.3504C6.97154 25.2753 7.27486 25.1236 7.53049 24.908C7.68454 25.4044 7.951 25.8586 8.30914 26.2352C9.00226 26.9461 9.9977 27.3029 11.2955 27.3059H12.083L11.6848 26.5803ZM11.3043 26.8281C7.72515 26.8281 7.81363 23.7577 7.81363 23.7577C7.72063 24.0392 7.55718 24.2923 7.33881 24.4929C7.12044 24.6934 6.85442 24.8348 6.56602 24.9036C6.44454 24.9341 6.31964 24.949 6.19439 24.9478C5.99304 24.9463 5.79257 24.9211 5.59713 24.8726C5.91859 24.017 5.91859 23.0737 5.59713 22.2181C5.34607 21.5082 5.22468 20.7589 5.23877 20.006C5.03722 20.2522 4.78016 20.4472 4.4887 20.5748C4.19723 20.7025 3.87965 20.7593 3.56201 20.7404H3.53989C3.25731 20.7446 2.97823 20.6775 2.72846 20.5452C2.47869 20.413 2.26629 20.2199 2.11088 19.9839C4.49551 18.9929 4.26103 15.7942 4.26103 15.7942C3.98546 15.9625 3.6681 16.0499 3.34522 16.0464H3.29656C1.96931 16.0464 1.52689 14.6395 1.52689 14.6395H1.55344C2.2465 14.6171 2.9263 14.4435 3.5453 14.131C4.16429 13.8184 4.70753 13.3744 5.13701 12.83C6.04839 11.6753 6.79165 10.6578 8.2649 10.2596L8.4109 10.233L8.44187 10.087C8.48168 9.8614 8.32684 9.64462 7.99945 9.42341C5.96876 8.09616 7.3491 6.39728 7.3491 6.39728C7.3491 6.39728 7.92424 7.7555 9.22937 7.7555H9.29131C9.43971 7.75232 9.58763 7.73753 9.73372 7.71126L9.97263 7.66259C9.87384 7.32346 9.87029 6.96368 9.96237 6.62266C10.0545 6.28164 10.2386 5.97255 10.4947 5.72923C10.7497 5.467 11.0553 5.25925 11.3929 5.11857C11.7306 4.97788 12.0932 4.90719 12.459 4.91076C12.5895 4.90913 12.7198 4.91949 12.8483 4.94173C12.4059 5.53014 12.0785 6.50346 12.5962 7.10072C13.0386 7.61835 14.1358 7.64047 14.1358 8.42797C14.1358 8.75536 13.8305 9.13584 13.2863 9.4765C11.6405 10.5118 10.008 11.8877 9.33112 13.7281C8.48611 16.0243 9.44173 17.5506 10.8044 18.4222C10.5073 18.6717 10.1419 18.8259 9.75584 18.8646C9.62754 18.8646 9.50809 18.8646 9.38864 18.8646C8.6754 18.8947 7.97367 18.6774 7.40219 18.2496C7.51502 18.8554 7.78679 19.4203 8.18969 19.8866C8.52478 20.2742 8.94319 20.5809 9.4136 20.784C9.88401 20.987 10.3942 21.081 10.9061 21.059C10.9026 21.2668 10.8545 21.4715 10.7652 21.6592C10.676 21.847 10.5475 22.0134 10.3885 22.1473C10.0345 22.3846 9.63002 22.536 9.20725 22.5897C9.20725 22.5897 10.7513 22.9038 10.9194 25.1823C10.9156 25.7619 11.0554 26.3334 11.3264 26.8458L11.3043 26.8281Z" fill="#222220"/>
        <path d="M3.33178 12.1754C3.50167 12.1765 3.67058 12.1496 3.83171 12.0958C4.25603 11.9086 4.61602 11.6009 4.86697 11.2109C5.20031 10.7494 5.62877 10.3647 6.12343 10.0828L6.74281 9.75095L6.16767 9.34835C5.85089 9.14355 5.48304 9.03166 5.10587 9.02539C4.86332 9.02791 4.62387 9.08026 4.4024 9.1792C4.18093 9.27814 3.98216 9.42155 3.81844 9.60053C3.37395 10.1159 2.76677 10.464 2.09744 10.5871L1.47363 10.6181L1.72581 11.1932C1.87728 11.4879 2.10672 11.7353 2.38913 11.9085C2.67154 12.0816 2.99607 12.174 3.32736 12.1754H3.33178ZM4.11928 9.90137C4.24298 9.76308 4.39429 9.65225 4.56346 9.57605C4.73264 9.49984 4.91591 9.45995 5.10145 9.45896C5.3905 9.4646 5.67231 9.55037 5.91549 9.70671C4.66345 10.3748 4.40243 11.4454 3.70341 11.6887C3.58692 11.73 3.46421 11.7509 3.34063 11.7507C3.08965 11.7504 2.84346 11.6819 2.62839 11.5526C2.41331 11.4232 2.23743 11.2378 2.11956 11.0163C2.89626 10.8871 3.60436 10.4932 4.12371 9.90137" fill="#222220"/>
        <path d="M6.14571 17.1658C6.06914 15.7582 6.41751 14.3601 7.14557 13.153C6.91924 13.8078 6.88607 14.5138 7.05003 15.1869C7.21398 15.86 7.56814 16.4717 8.07022 16.949C8.07022 16.949 5.61038 14.0025 9.04796 10.9852C10.4239 9.83491 11.9237 9.12705 12.6979 8.62269C9.90183 9.53407 8.53476 8.52979 8.53476 8.52979C8.92144 8.83128 9.36879 9.04552 9.84609 9.15778C10.3234 9.27004 10.8193 9.27767 11.2999 9.18014C11.1052 9.27304 10.9017 9.3748 10.6849 9.48983C8.32682 10.7728 6.19437 12.8832 5.84486 15.8031V15.781C5.29627 18.6479 4.0752 19.3823 4.0752 19.3823C5.04409 18.9045 5.65905 17.6126 5.80505 17.1702C5.96874 19.692 7.19866 21.4395 8.63652 23.1207C9.07601 23.6272 9.418 24.2107 9.64523 24.8417C9.52428 24.2076 9.25098 23.6124 8.84888 23.1074C7.52162 21.4926 6.23861 19.4663 6.14571 17.1658Z" fill="#222220"/>
        <path d="M17.1084 11.2598V11.8393C17.1855 11.7647 17.2784 11.7084 17.3803 11.6746C17.4822 11.6409 17.5904 11.6307 17.6968 11.6447V12.4808C17.6934 12.6871 17.6386 12.8894 17.5375 13.0692H18.3737C18.2735 12.889 18.2188 12.687 18.2144 12.4808V11.6447C18.3201 11.6314 18.4275 11.642 18.5285 11.6757C18.6296 11.7093 18.7218 11.7653 18.7984 11.8393V11.2598H17.1084Z" fill="#222220"/>
        <path d="M16.7501 7.82684C16.8799 7.9387 17.0302 8.02435 17.1926 8.07908L17.2988 8.12776V7.57903L16.3164 7.16748C16.3402 7.30213 16.3919 7.43033 16.4681 7.54387C16.5443 7.6574 16.6433 7.75379 16.7589 7.82684" fill="#222220"/>
        <path d="M19.0858 7.82684C19.2014 7.75379 19.3004 7.6574 19.3766 7.54387C19.4528 7.43033 19.5045 7.30213 19.5283 7.16748L18.5459 7.57903V8.12333L18.6477 8.07466C18.8101 8.01993 18.9604 7.93427 19.0902 7.82242" fill="#222220"/>
        <path d="M20.8507 5.60525C20.8507 4.77793 19.4571 4.03467 17.9219 4.03467C16.3868 4.03467 14.9931 4.77793 14.9931 5.60525L15.0241 5.80876L15.6391 9.34809L15.0241 9.70645L13.4181 10.6178C13.4181 10.6178 13.0598 10.8036 12.8917 10.9142C12.2856 11.3567 12.1573 11.9495 12.5068 12.2061C12.55 11.9147 12.6986 11.6492 12.9245 11.46C13.1503 11.2708 13.4378 11.1711 13.7323 11.1797C13.9833 11.1868 14.229 11.253 14.4497 11.3729C14.6703 11.4929 14.8595 11.6631 15.002 11.8699C15.0886 11.9768 15.1684 12.0891 15.2409 12.2061C15.3338 12.3565 15.4267 12.4892 15.5196 12.6175H11.4229C11.7675 13.2119 11.9689 13.8784 12.0113 14.5642V23.6647C12.0113 25.8768 13.7057 26.9164 15.5506 26.9164C16.9663 26.9164 17.1566 26.8501 17.9352 27.6287C18.7139 26.8501 18.9041 26.9164 20.3198 26.9164C22.1514 26.9164 23.8592 25.8679 23.8592 23.6647V14.573C23.9015 13.8873 24.1029 13.2208 24.4476 12.6264H20.3066C20.3995 12.4981 20.4924 12.3654 20.5853 12.2149C20.6588 12.0987 20.7386 11.9864 20.8242 11.8787C20.9674 11.6716 21.1574 11.5012 21.3788 11.3813C21.6001 11.2614 21.8467 11.1953 22.0984 11.1885C22.3929 11.1799 22.6803 11.2797 22.9062 11.4689C23.132 11.658 23.2806 11.9235 23.3238 12.2149C23.6778 11.9628 23.5495 11.3301 22.9389 10.9231C22.7752 10.8081 22.4169 10.6267 22.4169 10.6267L20.8242 9.68875L20.2092 9.33039L20.8242 5.79106L20.8507 5.60525ZM15.586 6.01227L17.745 6.74226V10.1312L16.1567 9.29058L15.586 6.01227ZM16.0284 13.2148C16.3179 13.5169 16.6696 13.7524 17.0592 13.905C16.9764 14.1978 16.9967 14.5102 17.1167 14.7898C17.2605 15.0868 17.512 15.3178 17.8202 15.4357C17.849 15.6841 17.9473 15.9192 18.1038 16.1141C18.2604 16.309 18.4688 16.4557 18.705 16.5374C18.4396 16.8072 18.1785 17.0594 18.0724 17.1612L15.5993 17.1213C15.5173 17.0823 15.4493 17.019 15.4046 16.94V16.909L15.8072 16.9754H15.8337C15.8718 16.9759 15.9087 16.9628 15.9379 16.9385C15.9671 16.9141 15.9867 16.8801 15.993 16.8426C15.9995 16.8005 15.9892 16.7575 15.9644 16.7228C15.9396 16.6881 15.9023 16.6644 15.8603 16.6568L15.3648 16.5772L15.9134 14.6748L15.3913 13.5776L14.5552 14.4624L14.5021 16.44L13.9402 16.3515C13.9193 16.3478 13.8978 16.3482 13.877 16.3529C13.8562 16.3575 13.8366 16.3663 13.8193 16.3787C13.8019 16.391 13.7873 16.4068 13.7761 16.4249C13.765 16.443 13.7576 16.4632 13.7544 16.4843C13.7479 16.5264 13.7582 16.5694 13.783 16.6041C13.8078 16.6388 13.8451 16.6625 13.8871 16.6701L14.1216 16.7055C14.0375 16.7541 13.98 16.7895 13.9756 16.7984L13.9269 16.8338V16.8913C13.8738 17.138 13.8936 17.3949 13.984 17.6306C14.0743 17.8662 14.2313 18.0705 14.4357 18.2185V18.2893C14.4229 18.3731 14.4436 18.4586 14.4932 18.5273C14.5429 18.596 14.6176 18.6424 14.7012 18.6565H14.7542C14.8257 18.6561 14.8949 18.6314 14.9504 18.5863C15.0059 18.5413 15.0444 18.4786 15.0595 18.4088C15.1641 18.4149 15.269 18.4149 15.3736 18.4088H15.44L18.6829 18.9972L18.736 18.9618C18.9926 18.7804 19.9792 18.077 20.3021 17.8248C20.3958 17.9062 20.4999 17.9747 20.6118 18.0283C20.5375 18.2561 20.5262 18.4997 20.5792 18.7334C20.6322 18.9671 20.7474 19.1821 20.9127 19.3556H12.6041V14.573C12.5857 14.1064 12.4854 13.6467 12.3077 13.2148H16.0284ZM20.0367 17.5815C19.7093 17.8248 18.8643 18.4397 18.559 18.6521L15.617 18.1389V18.0593C15.6676 17.8611 15.6943 17.6576 15.6966 17.4532L18.1741 17.493L18.2228 17.4443C18.2626 17.4045 19.0457 16.648 19.4439 16.21C19.5483 16.3406 19.6739 16.4527 19.8155 16.5418C19.7458 16.9065 19.8204 17.2839 20.0234 17.5947L20.0367 17.5815ZM15.1082 17.0727C15.1728 17.1973 15.2709 17.3015 15.3913 17.3735C15.3876 17.5531 15.3699 17.7321 15.3382 17.9088C15.3382 17.9487 15.3382 17.9885 15.3073 18.0283V18.0902C15.1045 18.0913 14.9029 18.0599 14.71 17.9973C14.5375 17.9044 14.3976 17.7609 14.309 17.5861C14.2204 17.4114 14.1874 17.2137 14.2145 17.0196C14.3717 16.9076 14.554 16.8362 14.7454 16.8117C14.8243 16.809 14.9021 16.8316 14.9673 16.8762C15.0325 16.9207 15.0819 16.9849 15.1082 17.0594V17.0727ZM14.8029 16.471L14.8516 14.5996L15.294 14.1572L15.5639 14.719L15.0374 16.5418L14.8029 16.471ZM20.019 26.328H19.5766L19.9084 25.2441C19.9615 25.0937 19.6872 24.899 19.5722 24.7265C19.8432 24.8881 20.1222 25.0358 20.4083 25.1689C20.4083 25.2043 20.0013 26.328 20.0013 26.328H20.019ZM21.1029 25.0848L20.8729 26.2794C20.7269 26.2794 20.572 26.3103 20.4304 26.3192L20.6738 25.1689C20.7446 24.8282 19.8288 24.7265 19.3775 24.0496C19.2317 24.1712 19.063 24.2624 18.8814 24.3178C18.6998 24.3733 18.509 24.3919 18.3201 24.3726C17.9857 24.3681 17.6525 24.3326 17.3247 24.2664C17.2673 24.2617 17.2096 24.2617 17.1521 24.2664C17.084 24.2615 17.0159 24.2759 16.9557 24.308C16.8954 24.3401 16.8454 24.3885 16.8115 24.4478L16.7451 24.5584L15.4842 24.2531L15.1834 24.7752C15.1598 24.8101 15.149 24.8522 15.1531 24.8942C15.1571 24.9361 15.1756 24.9754 15.2055 25.0052L15.2896 25.0981C15.2069 25.2612 15.0994 25.4104 14.971 25.5405L14.7852 25.3105C14.7167 25.1973 14.6831 25.0664 14.6886 24.9342C14.6941 24.802 14.7385 24.6743 14.8162 24.5672L15.3117 23.7311L16.3691 23.8903L16.2054 23.5143C15.9842 23.0188 16.3204 22.3861 16.3558 22.0233C16.3558 22.1339 16.2408 22.156 16.1257 22.156C16.0107 22.156 15.9001 22.156 15.8205 22.156C15.7973 22.1494 15.7728 22.1494 15.7497 22.156L15.4621 22.3286L15.2365 22.1207C15.2198 22.0892 15.2138 22.0533 15.2194 22.0181C15.225 21.983 15.2418 21.9507 15.2674 21.926L15.7895 21.3376L15.1701 20.6164L16.0549 21.0589L16.3204 20.7403C16.3912 20.8111 16.3602 20.9969 16.3602 20.9969C16.6722 21.0744 16.9484 21.2561 17.1431 21.5119C17.3378 21.7678 17.4393 22.0824 17.4309 22.4038C17.4309 22.4348 17.4309 22.4657 17.4309 22.5011V22.5321C17.5191 22.6724 17.6589 22.7725 17.8202 22.8108L19.0191 22.9303C19.2574 22.8571 19.5017 22.8053 19.7491 22.7754C19.963 22.7767 20.1719 22.8397 20.3508 22.9568C20.4353 22.8973 20.5351 22.8635 20.6384 22.8595H20.6782C21.2135 22.8595 21.4392 23.3461 21.7267 23.7443C21.9435 24.0496 22.2355 24.5097 22.2355 24.5097C22.195 24.5712 22.1398 24.6216 22.0749 24.6564C22.01 24.6911 21.9375 24.7091 21.8639 24.7088C21.8124 24.714 21.7605 24.714 21.709 24.7088C21.1339 24.6026 21.0498 23.4169 20.7224 23.324H20.6693C20.6383 23.325 20.6081 23.334 20.5817 23.3504C20.5553 23.3667 20.5337 23.3896 20.5189 23.4169C20.6693 23.8195 20.5809 23.9832 20.7446 24.3018C20.8652 24.493 21.0144 24.6646 21.187 24.8105C21.187 24.8105 21.1649 24.9875 21.1383 25.1158L21.1029 25.0848ZM14.6835 23.9567L14.7365 24.0938C14.7012 24.2133 14.2941 24.3858 14.2941 24.3858L14.2056 24.1912C14.149 24.0563 14.1391 23.9064 14.1776 23.7652C14.2161 23.6241 14.3007 23.4999 14.418 23.4125L15.0861 23.0055L15.7983 23.1559C15.7945 23.2973 15.8381 23.4359 15.9222 23.5497L15.1745 23.4081L14.7321 23.7178C14.6988 23.7468 14.6766 23.7865 14.6693 23.8301C14.662 23.8737 14.6702 23.9184 14.6923 23.9567H14.6835ZM21.2356 26.2174L21.4392 25.1468C21.4392 25.0848 21.4613 25.0096 21.4701 24.9477C21.5298 24.9734 21.5921 24.9927 21.6559 25.0052C21.7266 25.0118 21.7977 25.0118 21.8683 25.0052C21.9881 25.0054 22.1063 24.9779 22.2137 24.925C22.3211 24.872 22.4149 24.795 22.4877 24.6999L22.6469 24.5141L22.5142 24.3327C22.5142 24.3327 22.2178 23.8638 21.9966 23.5541L21.8727 23.3683C21.625 22.9966 21.3109 22.5277 20.687 22.5277H20.6295C20.5389 22.532 20.4494 22.5499 20.3641 22.5808C20.1736 22.489 19.965 22.4406 19.7535 22.4392C19.5404 22.4437 19.3295 22.4841 19.1297 22.5586L19.0236 22.5896L17.8556 22.4746C17.8078 22.4513 17.7667 22.4163 17.7361 22.3728V22.3728L17.9883 22.2711C17.9175 21.4261 17.1035 20.9084 16.6611 20.7359C16.641 20.645 16.5949 20.562 16.5283 20.497L16.2762 20.2581L16.0549 20.5235L15.9443 20.6563L14.3074 19.9838L15.3736 21.311L14.9533 21.9481C14.9317 21.9695 14.9145 21.995 14.9027 22.0231C14.891 22.0512 14.8849 22.0814 14.8849 22.1118C14.8849 22.1423 14.891 22.1724 14.9027 22.2005C14.9145 22.2286 14.9317 22.2541 14.9533 22.2755L15.3957 22.5763L15.8382 22.4082H15.8824C15.8824 22.4746 15.8337 22.7445 15.8116 22.8197L15.0418 22.6869L14.2189 23.1294C14.0344 23.2618 13.902 23.4546 13.8446 23.6743C13.7872 23.8941 13.8085 24.127 13.9048 24.3327L13.9977 24.5318L14.126 24.815L14.4136 24.6955C14.3605 24.836 14.3439 24.9877 14.3656 25.1363C14.3873 25.2849 14.4464 25.4255 14.5375 25.545L14.71 25.7662L14.9401 26.0582L15.1967 25.7839C15.3642 25.618 15.4979 25.4211 15.5904 25.2043L15.6435 25.0273L15.5196 24.8902V24.8636L15.6612 24.6336L16.6832 24.8725L16.9132 24.9256L17.0371 24.7221L17.1035 24.6115C17.1035 24.5893 17.1035 24.5849 17.1654 24.5849H17.276C17.6243 24.6543 17.9783 24.6914 18.3334 24.6955C18.5724 24.709 18.812 24.6805 19.0413 24.6115L19.6075 25.2574L19.2713 26.2926V26.3546C19.0227 26.3504 18.776 26.3987 18.5473 26.4963C18.3187 26.5939 18.1131 26.7385 17.9441 26.9209C17.3999 26.3811 17.015 26.3236 15.5594 26.3236C13.8119 26.3236 12.6306 25.3016 12.6306 23.6691V19.6874H23.2486V23.6691C23.2715 24.264 23.0814 24.8475 22.7123 25.3147C22.3433 25.7819 21.8197 26.102 21.2356 26.2174V26.2174ZM23.5362 13.2148C23.3569 13.6462 23.2565 14.1062 23.2398 14.573V17.5549C23.0516 17.515 22.8815 17.4147 22.7554 17.2694C22.6292 17.1241 22.5539 16.9417 22.5408 16.7497V16.6126H22.408C22.1792 16.5929 21.9654 16.4907 21.8064 16.325C21.6133 16.1007 21.5052 15.8157 21.5011 15.5198C21.4073 15.6719 21.3617 15.8488 21.3704 16.0273C21.3791 16.2057 21.4416 16.3774 21.5498 16.5197C21.7218 16.7386 21.9727 16.8815 22.2488 16.9178C22.2879 17.1675 22.4069 17.3978 22.588 17.5741C22.769 17.7504 23.0024 17.8632 23.2531 17.8956V19.3556H21.3949C21.1615 19.2365 20.9825 19.0328 20.8945 18.786C20.8065 18.5392 20.8161 18.2682 20.9215 18.0283L20.9923 17.869L20.8286 17.8071C20.5726 17.7183 20.3611 17.5333 20.2389 17.2914C20.1168 17.0495 20.0934 16.7696 20.1738 16.5108L20.2092 16.3781L20.0854 16.3206C19.8584 16.1881 19.6759 15.9913 19.5609 15.755C19.4459 15.5187 19.4036 15.2536 19.4394 14.9933C19.3203 15.1139 19.2418 15.2687 19.2148 15.436C19.1878 15.6033 19.2138 15.7749 19.289 15.9268C19.2005 16.0286 19.0855 16.148 18.9572 16.2808C18.7316 16.2334 18.5284 16.1118 18.38 15.9354C18.2316 15.7589 18.1467 15.5378 18.1387 15.3074V15.1968L18.037 15.157C17.9045 15.1176 17.7813 15.0518 17.6749 14.9636C17.5685 14.8754 17.481 14.7667 17.4176 14.6438C17.3323 14.4392 17.3167 14.2122 17.3733 13.9979C17.4608 14.0174 17.5495 14.0307 17.6388 14.0377C17.7287 14.0423 17.8188 14.0423 17.9087 14.0377C18.2628 14.0366 18.6127 13.9612 18.9358 13.8165C19.2589 13.6717 19.5481 13.4607 19.7845 13.1971L23.5362 13.2148ZM20.6693 10.1975L21.3949 10.6399L21.5763 10.7461C21.2 10.8487 20.8588 11.0522 20.5897 11.3345L20.5587 11.3611C20.4968 11.4274 20.4393 11.4938 20.3818 11.5646L20.3464 11.6088C20.2903 11.6796 20.2373 11.7548 20.1871 11.8345L20.1606 11.8743C20.0986 11.9628 20.0411 12.0601 19.9836 12.1574C19.7859 12.5505 19.4919 12.8873 19.1292 13.1363C18.7664 13.3854 18.3466 13.5387 17.9087 13.582C17.4708 13.5387 17.0509 13.3854 16.6882 13.1363C16.3254 12.8873 16.0315 12.5505 15.8337 12.1574C15.7762 12.0601 15.7187 11.9672 15.6612 11.8743L15.6258 11.8256L15.4842 11.5956L15.4444 11.5469C15.3869 11.4761 15.3294 11.4098 15.2719 11.3478L15.2409 11.3168C14.9718 11.0345 14.6306 10.831 14.2543 10.7284L14.4401 10.6222L15.1701 10.1798L15.9178 9.73742L17.9131 10.8213L19.9084 9.77281L20.6693 10.1975ZM19.6872 9.3127L18.0989 10.1489V6.74668L20.2535 6.01669L19.6872 9.3127ZM17.9175 6.38832L15.555 5.44155C15.7541 4.96374 16.6832 4.55672 17.9175 4.55672C19.1519 4.55672 20.0809 4.96374 20.28 5.44155L17.9175 6.38832Z" fill="#222220"/>
    </g>
    <defs>
        <clipPath id="clip0">
            <rect width="107.636" height="32" fill="white"/>
        </clipPath>
    </defs>
</svg>
