<svg width="24" height="24" fill="none" xmlns="http://www.w3.org/2000/svg"><path d="M2 3a1 1 0 000 2V3zm16 13a1 1 0 100-2v2zm1.522-7.608l.98.196-.98-.196zm-.225 1.122l.98.196-.98-.196zM2 5h.33V3H2v2zm5.67 11H18v-2H7.67v2zm9.89-11H4.727v2H17.56V5zm.981 3.196l-.224 1.122 1.96.392.225-1.122-1.961-.392zm-1.128 1.923l-11.49.884.154 1.994 11.49-.884-.154-1.994zM3.315 5.821l1.403 7.716 1.967-.358-1.403-7.716-1.967.358zM17.56 7a1 1 0 01.981 1.196l1.961.392A3 3 0 0017.56 5v2zm-9.89 7a1 1 0 01-.985-.821l-1.967.358A3 3 0 007.669 16v-2zm10.647-4.682a1 1 0 01-.904.801l.153 1.994a3 3 0 002.712-2.403l-1.961-.392zM2.33 5a1 1 0 01.984.821l1.967-.358A3 3 0 002.331 3v2z" fill="currentColor"/><circle cx="7" cy="19" r="1" stroke="currentColor" stroke-width="2"/><circle cx="17" cy="19" r="1" stroke="currentColor" stroke-width="2"/></svg>