<svg width="34" height="34" fill="none" xmlns="http://www.w3.org/2000/svg"><path d="M5.961 21.947a1.037 1.037 0 01-1.89.85A14.11 14.11 0 012.832 17C2.833 9.177 9.176 2.834 17 2.834s14.167 6.343 14.167 14.167c0 7.823-6.343 14.166-14.167 14.166-3.324 0-6.475-1.15-8.992-3.218a1.037 1.037 0 011.316-1.602A12.044 12.044 0 0017 29.094c6.679 0 12.093-5.415 12.093-12.093 0-6.68-5.414-12.094-12.093-12.094S4.906 10.322 4.906 17.001c0 1.73.363 3.406 1.055 4.946z" fill="url(#paint0_linear)"/><defs><linearGradient id="paint0_linear" x1="17" y1="2.834" x2="17" y2="31.167" gradientUnits="userSpaceOnUse"><stop stop-color="var(--orange-gradient-color-start, #FFCC5C)"/><stop offset="1" stop-color="var(--orange-gradient-color-end, #FF9E65)"/></linearGradient></defs></svg>
