<svg width="24" height="24" fill="none" xmlns="http://www.w3.org/2000/svg"><mask id="a" fill="#fff"><path fill-rule="evenodd" clip-rule="evenodd" d="M12 4.96a7.04 7.04 0 11-5.695 2.902l-.777-.564A8 8 0 1012 4v.96z"/></mask><path fill-rule="evenodd" clip-rule="evenodd" d="M12 4.96a7.04 7.04 0 11-5.695 2.902l-.777-.564A8 8 0 1012 4v.96z" fill="currentColor" fill-opacity=".87"/><path d="M16.358 6.471l.62-.785-.62.785zM12 4.96h-1v1h1v-1zm6.846 5.397l-.973.233.973-.233zm-.453 4.59l.909.419-.909-.419zm-3.197 3.326l.454.89-.454-.89zm-4.57.632l.196-.981-.195.98zm-5.66-6.629l.999-.039-1 .04zm1.338-4.413l-.809-.588.809.588zm0-.001l.81.588.587-.81-.809-.587-.587.809zm-.776-.564l.588-.81-.81-.587-.587.81.809.587zm0 0l.808.588-.809-.587zm-.537.846l.876.482-.876-.482zm-.985 4.17l-1 .04 1-.04zm6.433 7.532l-.195.981.195-.98zm5.193-.718l.454.891-.454-.89zm3.633-3.779l-.908-.418.908.418zm.514-5.217l-.972.234.972-.234zm-2.826-4.415l.619-.785-.62.785zM13 4.063l-.125.992.125-.992zM12 4V3h-1v1h1zm4.977 1.686A8.04 8.04 0 0012 3.96v2a6.04 6.04 0 013.74 1.297l1.237-1.57zm2.84 4.437a8.04 8.04 0 00-2.84-4.437l-1.238 1.57a6.04 6.04 0 012.134 3.334l1.945-.467zm-.515 5.243a8.04 8.04 0 00.516-5.243l-1.945.467a6.04 6.04 0 01-.388 3.939l1.817.837zm-3.652 3.798a8.04 8.04 0 003.652-3.798l-1.817-.837a6.04 6.04 0 01-2.743 2.853l.908 1.782zm-5.219.721a8.04 8.04 0 005.22-.721l-.909-1.782a6.04 6.04 0 01-3.92.542l-.39 1.962zm-4.545-2.663a8.04 8.04 0 004.545 2.663l.39-1.961a6.04 6.04 0 01-3.414-2.001l-1.52 1.299zm-1.92-4.906a8.04 8.04 0 001.92 4.906l1.521-1.3a6.04 6.04 0 01-1.442-3.685l-1.999.079zm1.529-5.041a8.04 8.04 0 00-1.529 5.04l1.999-.078A6.04 6.04 0 017.113 8.45L5.495 7.275zm0 0L7.113 8.45V8.45L5.496 7.274zm1.397-.222l-.776-.564L4.94 8.107l.777.564 1.175-1.618zm-.556.833h.001L4.719 6.71v.001l1.617 1.175zm-.469.74a7 7 0 01.47-.74L4.717 6.711a9 9 0 00-.603.95l1.752.965zm-.862 3.649a7 7 0 01.862-3.65l-1.752-.963a9 9 0 00-1.108 4.691l1.998-.078zm1.672 4.271a7 7 0 01-1.672-4.271l-1.998.078a9 9 0 002.15 5.492l1.52-1.299zm3.957 2.32a7 7 0 01-3.957-2.32l-1.52 1.299a9 9 0 005.087 2.982l.39-1.962zm4.544-.629a7 7 0 01-4.544.629l-.39 1.961a9 9 0 005.842-.808l-.908-1.782zm3.179-3.306a7 7 0 01-3.18 3.306l.909 1.782a9 9 0 004.087-4.251l-1.816-.837zm.45-4.565a7 7 0 01-.45 4.565l1.816.837a9 9 0 00.578-5.869l-1.944.467zm-2.473-3.863a7 7 0 012.473 3.863l1.944-.467a9 9 0 00-3.18-4.967l-1.237 1.57zm-3.459-1.448a7 7 0 013.459 1.448l1.238-1.57a9 9 0 00-4.447-1.862l-.25 1.984zM12 5a7 7 0 01.875.055l.25-1.984A9 9 0 0012 3v2zm1-.04V4h-2v.96h2z" fill="currentColor" fill-opacity=".87" mask="url(#a)"/></svg>