<svg width="120" height="120" fill="none" xmlns="http://www.w3.org/2000/svg"><path d="M94.63 52.63c.761-.778.764-2.024-.026-2.772a50.796 50.796 0 00-15.12-9.9A49.988 49.988 0 0060 36a49.988 49.988 0 00-19.483 3.958 50.796 50.796 0 00-15.12 9.9c-.791.748-.788 1.994-.027 2.772l33.2 33.91a2 2 0 002.86 0l33.2-33.91z" fill="url(#paint0_linear)"/><circle cx="80" cy="78" r="2" fill="url(#paint1_linear)"/><path d="M77.284 54.986a2.728 2.728 0 115.432 0l-1.621 17.018a1.1 1.1 0 01-2.19 0l-1.62-17.018z" fill="url(#paint2_linear)"/><defs><linearGradient id="paint0_linear" x1="24" y1="36" x2="67.907" y2="19.409" gradientUnits="userSpaceOnUse"><stop stop-color="#FFC75D"/><stop offset="1" stop-color="#FFA363"/></linearGradient><linearGradient id="paint1_linear" x1="82.131" y1="80.929" x2="79.466" y2="81.659" gradientUnits="userSpaceOnUse"><stop stop-color="#8DB0FF"/><stop offset="1" stop-color="#658BF5"/></linearGradient><linearGradient id="paint2_linear" x1="83.196" y1="77.875" x2="78.924" y2="78.21" gradientUnits="userSpaceOnUse"><stop stop-color="#8DB0FF"/><stop offset="1" stop-color="#658BF5"/></linearGradient></defs></svg>