<svg width="24" height="24" fill="none" xmlns="http://www.w3.org/2000/svg"><path fill-rule="evenodd" clip-rule="evenodd" d="M17.962 11.309a.5.5 0 01-.108.545l-4.95 4.95a.5.5 0 01-.707 0l-4.95-4.95A.5.5 0 017.6 11h2.393c-.076-2.64-.758-4.355-1.704-5.418C7.292 4.462 5.941 4 4.5 4a.5.5 0 010-1c3.56 0 6.197.761 7.948 2.243C14.101 6.642 14.894 8.62 14.99 11h2.51a.5.5 0 01.462.309zM8.56 4.443c.164.145.323.303.475.475C10.257 6.29 11 8.426 11 11.5a.5.5 0 01-.5.5H8.808l3.742 3.743L16.293 12H14.5a.5.5 0 01-.5-.5c0-2.397-.715-4.238-2.198-5.493-.814-.689-1.883-1.222-3.241-1.564z" fill="#000" fill-opacity=".87"/><path fill-rule="evenodd" clip-rule="evenodd" d="M4.5 12.5a.5.5 0 01.5.5v5.5A1.5 1.5 0 006.5 20h12a1.5 1.5 0 001.5-1.5V13a.5.5 0 011 0v5.5a2.5 2.5 0 01-2.5 2.5h-12A2.5 2.5 0 014 18.5V13a.5.5 0 01.5-.5z" fill="#000" fill-opacity=".87"/></svg>