<svg width="24" height="24" fill="none" xmlns="http://www.w3.org/2000/svg"><path fill="#000" fill-rule="evenodd" clip-rule="evenodd" d="M6.5 5C5.671 5 5 5.67 5 6.499v11.004C5 18.331 5.67 19 6.5 19h11a1.5 1.5 0 001.5-1.5V16a.5.5 0 011 0v1.5a2.5 2.5 0 01-2.5 2.5h-11C5.12 20 4 18.885 4 17.503V6.5A2.499 2.499 0 016.5 4H8a.5.5 0 010 1H6.5z" fill-opacity=".87"/><path fill="#000" fill-rule="evenodd" clip-rule="evenodd" d="M16.309 3.038a.5.5 0 01.545.108l4.95 4.95a.5.5 0 010 .707l-4.95 4.95A.5.5 0 0116 13.4v-2.393c-2.64.076-4.355.758-5.418 1.704C9.462 13.708 9 15.059 9 16.5a.5.5 0 11-1 0c0-3.56.761-6.197 2.243-7.948C11.642 6.899 13.62 6.106 16 6.01V3.5a.5.5 0 01.309-.462zM9.443 12.44c.145-.164.303-.323.475-.475C11.29 10.743 13.426 10 16.5 10a.5.5 0 01.5.5v1.693l3.743-3.743L17 4.707V6.5a.5.5 0 01-.5.5c-2.397 0-4.239.715-5.493 2.198-.689.814-1.222 1.883-1.564 3.241z" fill-opacity=".87"/></svg>