<svg width="24" height="24" fill="none" xmlns="http://www.w3.org/2000/svg"><path fill-rule="evenodd" clip-rule="evenodd" d="M9.702 6.455a.935.935 0 00.518-.506l.528-1.32a1 1 0 01.929-.63h.646a1 1 0 01.928.63l.528 1.32c.094.233.287.41.518.506a.93.93 0 00.723.008l1.307-.56a1 1 0 011.101.212l.457.456a1 1 0 01.212 1.101l-.56 1.307a.93.93 0 00.007.723.935.935 0 00.507.518l1.32.528a1 1 0 01.629.929v.646a1 1 0 01-.629.928l-1.32.528a.935.935 0 00-.507.518.93.93 0 00-.007.723l.56 1.307a1 1 0 01-.212 1.101l-.457.457a1 1 0 01-1.1.212l-1.307-.56a.93.93 0 00-.724.007.936.936 0 00-.518.507l-.528 1.32a1 1 0 01-.928.629h-.646a1 1 0 01-.929-.629l-.528-1.32a.935.935 0 00-.518-.507.93.93 0 00-.723-.007l-1.307.56a1 1 0 01-1.1-.212l-.457-.457a1 1 0 01-.213-1.1l.56-1.308a.93.93 0 00-.007-.723.935.935 0 00-.506-.518l-1.32-.528a1 1 0 01-.63-.928v-.646a1 1 0 01.63-.929l1.32-.528a.935.935 0 00.506-.518.93.93 0 00.008-.723l-.56-1.307a1 1 0 01.212-1.1l.456-.458a1 1 0 011.101-.212l1.307.56a.93.93 0 00.723-.007zM11.677 2h.646a3 3 0 012.785 1.886l.124.31.307-.132a3 3 0 013.303.636l.457.457a3 3 0 01.636 3.303l-.131.307.31.124A3 3 0 0122 11.677v.646a3 3 0 01-1.886 2.785l-.31.124.131.307a3 3 0 01-.636 3.303l-.456.457a3 3 0 01-3.303.636l-.308-.131-.124.31A3 3 0 0112.323 22h-.646a3 3 0 01-2.786-1.886l-.124-.31-.307.131a3 3 0 01-3.303-.636l-.457-.456a3 3 0 01-.636-3.304l.132-.307-.31-.124A3 3 0 012 12.323v-.646A3 3 0 013.886 8.89l.31-.124-.132-.307A3 3 0 014.7 5.157l.457-.457a3 3 0 013.303-.636l.307.132.124-.31A3 3 0 0111.677 2zM12 14a2 2 0 100-4 2 2 0 000 4zm4-2a4 4 0 11-8 0 4 4 0 018 0z" fill="currentColor" fill-opacity=".87"/></svg>