<svg width="24" height="24" fill="none" xmlns="http://www.w3.org/2000/svg"><path fill-rule="evenodd" clip-rule="evenodd" d="M7.984 11.31a3.068 3.068 0 01-.901-1.133 3.421 3.421 0 01-.145-.35 2.14 2.14 0 01.228-1.88 8.408 8.408 0 01-.022-.593l-.003-.368c-.004-.335-.004-.682.02-.994.022-.295.075-.736.276-1.18.238-.526.639-.96 1.183-1.231a2.9 2.9 0 01.699-.239c.158-.242.433-.585.87-.853.603-.371 1.274-.464 1.858-.484l.036-.001.244-.004h.032c.514 0 1.304.043 2.097.28.768.23 1.857.74 2.468 1.907.313.599.377 1.329.105 2.01l-.051.125-.002.004a1.965 1.965 0 00-.128.366c-.019.09-.037.232-.008.457.032.244.03.493.015.704.264.394.4.902.302 1.518a3.464 3.464 0 01-.43 1.192 2.35 2.35 0 01-.7.745c-.25.584-.585 1.191-1.027 1.681v.217c1.084.218 2.146.596 3.094 1.084 1.145.59 2.252 1.405 3.003 2.428.713.97.665 2.175.06 3.055C20.612 20.57 19.7 21 18.778 21l-13.556-.001c-.921 0-1.831-.43-2.379-1.224a2.615 2.615 0 01.05-3.052c.753-1.034 1.864-1.852 3.012-2.44A11.992 11.992 0 019 13.203v-.235c-.436-.488-.767-1.083-1.016-1.66zm6.364-1.2l.079-.22a.185.185 0 01.173-.123c.127 0 .336-.104.4-.213a1.482 1.482 0 00.182-.5c.018-.116-.086-.203-.203-.191a.21.21 0 01-.23-.234l.065-.545a5.96 5.96 0 00.047-.39 1.39 1.39 0 00-.004-.285 3.717 3.717 0 01-.031-.54c.01-.607.182-1.019.304-1.313l.042-.102a.401.401 0 00-.02-.339C14.647 4.151 13.204 4 12.36 4l-.243.004c-.903.03-1.043.282-1.204.574-.133.24-.356.64-.94.688-.777.065-.847.358-.831 1.7l.003.38c0 .296.023.615.068.943v.006l.064.46a.195.195 0 01-.242.216c-.13-.034-.25.071-.207.198a1.42 1.42 0 00.098.22.95.95 0 00.285.338.184.184 0 00.07.023.46.46 0 01.364.315l.004.011a6.88 6.88 0 00.303.724c.26.525.554.916.848 1.114a.224.224 0 00.042.022.252.252 0 01.159.235V14c0 .552-.45.995-.997 1.065-1.7.218-3.452.959-4.629 1.934l-.012.01a4.85 4.85 0 00-.852.89c-.372.511.08 1.1.711 1.1h13.557c.632 0 1.081-.588.707-1.097a4.9 4.9 0 00-.857-.89L18.614 17c-1.177-.97-2.923-1.714-4.617-1.934-.548-.07-.997-.514-.997-1.066v-1.745a.4.4 0 01.232-.363.34.34 0 00.06-.036c.283-.211.568-.62.818-1.16l.025-.056c.075-.166.146-.343.213-.53z" fill="currentColor"/></svg>