<svg width="120" height="120" fill="none" xmlns="http://www.w3.org/2000/svg"><path d="M32 38l48.962-11.885C84.06 25.452 87 27.747 87 30.833V38" fill="url(#paint0_linear)"/><path d="M65.807 70.187v-9.4c0-1.709 1.416-3.107 3.146-3.107h24.02V43.956c0-3.289-2.7-5.956-6.03-5.956H32.03C28.701 38 26 40.667 26 43.956v43.088C26 90.333 28.701 93 32.031 93H86.97C90.299 93 93 90.333 93 87.044v-13.75H68.98c-1.757 0-3.173-1.398-3.173-3.107z" fill="url(#paint1_linear)"/><path d="M73 69a3 3 0 100-6 3 3 0 000 6z" fill="url(#paint2_linear)"/><defs><linearGradient id="paint0_linear" x1="35.081" y1="39.364" x2="78.599" y2="16.138" gradientUnits="userSpaceOnUse"><stop stop-color="#5C8BFC"/><stop offset="1" stop-color="#84B0FF"/></linearGradient><linearGradient id="paint1_linear" x1="26" y1="38" x2="68.045" y2="24.022" gradientUnits="userSpaceOnUse"><stop stop-color="#FFC75D"/><stop offset="1" stop-color="#FFA363"/></linearGradient><linearGradient id="paint2_linear" x1="70.014" y1="68.991" x2="75.991" y2="68.991" gradientUnits="userSpaceOnUse"><stop stop-color="#FFB300"/><stop offset="1" stop-color="#FF8E37"/></linearGradient></defs></svg>