<svg width="136" height="40" viewBox="0 0 136 40" fill="none" xmlns="http://www.w3.org/2000/svg">
    <g clip-path="url(#clip0)">
        <path d="M130.664 40H5.66406C2.91406 40 0.664062 37.75 0.664062 35V5C0.664062 2.25 2.91406 0 5.66406 0H130.664C133.414 0 135.664 2.25 135.664 5V35C135.664 37.75 133.414 40 130.664 40Z" fill="#1C212E"/>
        <path d="M48.0821 10.244C48.0821 11.082 47.8341 11.749 47.3371 12.247C46.7721 12.838 46.0371 13.134 45.1331 13.134C44.2671 13.134 43.5301 12.834 42.9251 12.234C42.3181 11.633 42.0161 10.889 42.0161 9.99997C42.0161 9.11197 42.3181 8.36797 42.9251 7.76697C43.5301 7.16597 44.2671 6.86597 45.1331 6.86597C45.5621 6.86597 45.9741 6.94997 46.3641 7.11797C46.7551 7.28597 47.0681 7.50897 47.3031 7.78797L46.7751 8.31597C46.3781 7.84097 45.8311 7.60397 45.1331 7.60397C44.5011 7.60397 43.9551 7.82597 43.4941 8.26997C43.0331 8.71397 42.8031 9.29097 42.8031 9.99997C42.8031 10.71 43.0331 11.287 43.4941 11.731C43.9551 12.175 44.5011 12.397 45.1331 12.397C45.8031 12.397 46.3611 12.174 46.8091 11.727C47.0991 11.436 47.2671 11.031 47.3111 10.512H45.1331V9.79097H48.0401C48.0681 9.94797 48.0821 10.098 48.0821 10.244Z" fill="white"/>
        <path d="M48.182 10.244H47.982C47.981 11.063 47.742 11.698 47.266 12.176L47.265 12.177V12.178C46.718 12.749 46.016 13.033 45.133 13.034C44.29 13.033 43.584 12.746 42.995 12.163C42.407 11.579 42.117 10.866 42.116 9.99999C42.117 9.13399 42.407 8.42199 42.995 7.83799C43.584 7.25499 44.29 6.96699 45.133 6.96599C45.549 6.96599 45.946 7.04699 46.325 7.20999C46.704 7.37299 47.003 7.58699 47.226 7.85199L47.303 7.78799L47.232 7.71699L46.705 8.24499L46.775 8.31599L46.852 8.25199C46.436 7.75299 45.853 7.50199 45.133 7.50399C44.477 7.50299 43.901 7.73699 43.425 8.19799C42.943 8.66099 42.702 9.26999 42.703 9.99999C42.702 10.731 42.943 11.34 43.425 11.803C43.901 12.264 44.477 12.498 45.133 12.497C45.825 12.498 46.415 12.263 46.879 11.798C47.189 11.487 47.365 11.056 47.411 10.52L47.421 10.412H45.233V9.89099H48.04V9.79099L47.942 9.80899C47.969 9.95999 47.982 10.104 47.982 10.244H48.182C48.182 10.092 48.168 9.93499 48.138 9.77299L48.124 9.69099H45.033V10.612H47.311V10.512L47.212 10.503C47.168 11.006 47.008 11.385 46.738 11.656C46.308 12.084 45.781 12.296 45.133 12.297C44.524 12.296 44.009 12.087 43.564 11.659C43.123 11.233 42.904 10.689 42.903 9.99999C42.904 9.31199 43.123 8.76799 43.564 8.34199C44.009 7.91399 44.524 7.70499 45.133 7.70399C45.809 7.70499 46.319 7.92899 46.699 8.37999L46.769 8.46399L47.373 7.85899L47.438 7.79399L47.379 7.72399C47.133 7.43099 46.806 7.19899 46.404 7.02599C46.001 6.85299 45.575 6.76599 45.133 6.76599C44.243 6.76499 43.476 7.07799 42.854 7.69599C42.23 8.31299 41.915 9.08899 41.916 9.99999C41.915 10.911 42.23 11.687 42.854 12.305C43.476 12.923 44.244 13.235 45.133 13.234C46.058 13.235 46.827 12.928 47.409 12.316L47.337 12.247L47.408 12.317C47.926 11.8 48.183 11.1 48.182 10.244Z" fill="white"/>
        <path d="M52.6911 7.738H49.9591V9.64H52.4231V10.361H49.9591V12.263H52.6911V13H49.1881V7H52.6911V7.738Z" fill="white"/>
        <path d="M52.691 7.73803V7.63803H49.859V9.74002H52.323V10.261H49.859V12.363H52.591V12.9H49.288V7.10003H52.591V7.73803H52.691V7.63803V7.73803H52.791V6.90002H49.088V13.1H52.791V12.163H50.059V10.461H52.523V9.54003H50.059V7.83802H52.791V7.73803H52.691Z" fill="white"/>
        <path d="M55.9421 13H55.1711V7.738H53.4951V7H57.6181V7.738H55.9421V13Z" fill="white"/>
        <path d="M55.942 13V12.9H55.271V7.63803H53.595V7.10003H57.518V7.63803H55.842V13H55.942V12.9V13H56.042V7.83802H57.718V6.90002H53.395V7.83802H55.071V13.1H56.042V13H55.942Z" fill="white"/>
        <path d="M61.372 7H60.6021V13H61.372V7Z" fill="white"/>
        <path d="M60.6021 13H60.7021V7.10003H61.2721V12.9H60.6021V13H60.7021H60.6021V13.1H61.4721V6.90002H60.5021V13.1H60.6021V13Z" fill="white"/>
        <path d="M64.7921 13H64.0201V7.738H62.3451V7H66.4681V7.738H64.7921V13Z" fill="white"/>
        <path d="M64.7921 13V12.9H64.1201V7.63803H62.4451V7.10003H66.3681V7.63803H64.6921V13H64.7921V12.9V13H64.8921V7.83802H66.5681V6.90002H62.2451V7.83802H63.9201V13.1H64.8921V13H64.7921Z" fill="white"/>
        <path d="M70.4431 11.723C70.8871 12.172 71.4301 12.397 72.0731 12.397C72.7151 12.397 73.2591 12.172 73.7031 11.723C74.1471 11.273 74.3701 10.699 74.3701 9.99997C74.3701 9.30197 74.1471 8.72797 73.7031 8.27797C73.2591 7.82897 72.7151 7.60397 72.0731 7.60397C71.4301 7.60397 70.8871 7.82897 70.4431 8.27797C69.9991 8.72797 69.7771 9.30197 69.7771 9.99997C69.7771 10.699 69.9991 11.273 70.4431 11.723ZM74.2731 12.225C73.6831 12.832 72.9501 13.134 72.0731 13.134C71.1961 13.134 70.4621 12.832 69.8741 12.225C69.2841 11.619 68.9901 10.877 68.9901 9.99997C68.9901 9.12297 69.2841 8.38197 69.8741 7.77597C70.4621 7.16897 71.1961 6.86597 72.0731 6.86597C72.9451 6.86597 73.6761 7.17097 74.2691 7.77997C74.8611 8.38897 75.1571 9.12897 75.1571 9.99997C75.1571 10.877 74.8621 11.619 74.2731 12.225Z" fill="white"/>
        <path d="M70.443 11.723L70.372 11.793C70.832 12.261 71.407 12.498 72.073 12.497C72.739 12.498 73.314 12.261 73.774 11.793C74.237 11.325 74.471 10.72 74.47 9.99999C74.471 9.28099 74.237 8.67599 73.774 8.20799C73.314 7.73999 72.739 7.50299 72.073 7.50399C71.407 7.50299 70.832 7.73999 70.372 8.20799C69.909 8.67599 69.676 9.28099 69.677 9.99999C69.676 10.72 69.909 11.325 70.372 11.793L70.443 11.723L70.514 11.652C70.09 11.221 69.878 10.678 69.877 9.99999C69.878 9.32299 70.09 8.77999 70.514 8.34799V8.34899C70.942 7.91699 71.453 7.70499 72.073 7.70399C72.692 7.70499 73.204 7.91699 73.631 8.34799V8.34899C74.057 8.77999 74.269 9.32299 74.27 9.99999C74.269 10.678 74.057 11.221 73.631 11.652C73.204 12.084 72.692 12.296 72.073 12.297C71.453 12.296 70.942 12.084 70.514 11.652L70.443 11.723ZM74.345 12.295L74.201 12.155C73.628 12.743 72.927 13.033 72.073 13.034C71.219 13.033 70.517 12.743 69.945 12.155L69.942 12.153L69.945 12.155C69.373 11.566 69.091 10.855 69.09 9.99999C69.091 9.14599 69.373 8.43499 69.945 7.84599C70.517 7.25799 71.219 6.96699 72.073 6.96599C72.922 6.96699 73.621 7.25899 74.197 7.84999C74.772 8.44199 75.056 9.15099 75.057 9.99999C75.056 10.855 74.772 11.566 74.201 12.155L74.345 12.295C74.951 11.672 75.258 10.9 75.257 9.99999C75.258 9.10599 74.95 8.33599 74.341 7.70999C73.731 7.08299 72.968 6.76499 72.073 6.76599C71.173 6.76499 70.407 7.08099 69.802 7.70599C69.194 8.32899 68.889 9.10099 68.89 9.99999C68.889 10.9 69.194 11.672 69.802 12.295L69.805 12.298L69.802 12.295C70.407 12.92 71.173 13.235 72.073 13.234C72.973 13.235 73.738 12.92 74.345 12.295Z" fill="white"/>
        <path d="M76.239 13V7H77.177L80.093 11.668H80.126L80.093 10.512V7H80.865V13H80.06L77.009 8.107H76.976L77.009 9.263V13H76.239Z" fill="white"/>
        <path d="M76.239 13H76.339V7.10003H77.122L80.038 11.768H80.229L80.193 10.51V7.10003H80.765V12.9H80.116L77.065 8.00702H76.873L76.909 9.26502V12.9H76.239V13H76.339H76.239V13.1H77.109V9.26202L77.076 8.10402L76.976 8.10703V8.20703H77.009V8.10703L76.924 8.16002L80.005 13.1H80.965V6.90002H79.993V10.513L80.026 11.671L80.126 11.668V11.568H80.093V11.668L80.178 11.615L77.233 6.90002H76.139V13.1H76.239V13Z" fill="white"/>
        <path d="M107.6 30.001H109.466V17.499H107.6V30.001ZM124.407 22.002L122.268 27.422H122.204L119.984 22.002H117.974L121.303 29.578L119.405 33.791H121.352L126.482 22.002H124.407ZM113.825 28.58C113.213 28.58 112.361 28.275 112.361 27.519C112.361 26.554 113.423 26.184 114.339 26.184C115.16 26.184 115.545 26.361 116.044 26.602C115.899 27.76 114.902 28.58 113.825 28.58ZM114.05 21.729C112.699 21.729 111.3 22.324 110.721 23.643L112.377 24.335C112.731 23.643 113.39 23.418 114.082 23.418C115.047 23.418 116.028 23.997 116.044 25.026V25.155C115.706 24.962 114.983 24.672 114.098 24.672C112.313 24.672 110.495 25.653 110.495 27.487C110.495 29.159 111.959 30.237 113.599 30.237C114.854 30.237 115.545 29.674 115.98 29.015H116.044V29.98H117.845V25.187C117.845 22.967 116.189 21.729 114.05 21.729ZM102.518 23.524H99.8641V19.239H102.518C103.913 19.239 104.705 20.394 104.705 21.382C104.705 22.351 103.913 23.524 102.518 23.524ZM102.47 17.499H97.9991V30.001H99.8641V25.264H102.47C104.538 25.264 106.571 23.767 106.571 21.382C106.571 18.996 104.538 17.499 102.47 17.499ZM78.0881 28.583C76.8001 28.583 75.7201 27.503 75.7201 26.021C75.7201 24.523 76.8001 23.428 78.0881 23.428C79.3611 23.428 80.3601 24.523 80.3601 26.021C80.3601 27.503 79.3611 28.583 78.0881 28.583ZM80.2311 22.703H80.1671C79.7481 22.203 78.9421 21.752 77.9271 21.752C75.8011 21.752 73.8511 23.621 73.8511 26.021C73.8511 28.406 75.8011 30.258 77.9271 30.258C78.9421 30.258 79.7481 29.807 80.1671 29.292H80.2311V29.904C80.2311 31.531 79.3611 32.401 77.9591 32.401C76.8161 32.401 76.1071 31.579 75.8171 30.887L74.1901 31.563C74.6571 32.691 75.8971 34.077 77.9591 34.077C80.1511 34.077 82.0031 32.788 82.0031 29.646V22.01H80.2311V22.703ZM83.2921 30.001H85.1611V17.499H83.2921V30.001ZM87.9161 25.876C87.8671 24.233 89.1891 23.395 90.1391 23.395C90.8811 23.395 91.5091 23.766 91.7181 24.298L87.9161 25.876ZM93.7161 24.459C93.3621 23.508 92.2821 21.752 90.0751 21.752C87.8841 21.752 86.0631 23.476 86.0631 26.005C86.0631 28.39 87.8671 30.258 90.2841 30.258C92.2341 30.258 93.3621 29.066 93.8291 28.373L92.3791 27.407C91.8961 28.116 91.2351 28.583 90.2841 28.583C89.3331 28.583 88.6571 28.148 88.2221 27.294L93.9091 24.942L93.7161 24.459ZM48.4071 23.057V24.861H52.7251C52.5961 25.876 52.2581 26.617 51.7421 27.133C51.1141 27.761 50.1311 28.454 48.4071 28.454C45.7491 28.454 43.6711 26.311 43.6711 23.653C43.6711 20.995 45.7491 18.852 48.4071 18.852C49.8411 18.852 50.8881 19.416 51.6621 20.141L52.9341 18.868C51.8551 17.837 50.4211 17.048 48.4071 17.048C44.7661 17.048 41.7051 20.012 41.7051 23.653C41.7051 27.294 44.7661 30.258 48.4071 30.258C50.3731 30.258 51.8551 29.614 53.0151 28.406C54.2071 27.213 54.5781 25.538 54.5781 24.185C54.5781 23.766 54.5451 23.379 54.4811 23.057H48.4071ZM59.4861 28.583C58.1971 28.583 57.0861 27.52 57.0861 26.005C57.0861 24.475 58.1971 23.428 59.4861 23.428C60.7751 23.428 61.8861 24.475 61.8861 26.005C61.8861 27.52 60.7751 28.583 59.4861 28.583ZM59.4861 21.752C57.1341 21.752 55.2171 23.54 55.2171 26.005C55.2171 28.454 57.1341 30.258 59.4861 30.258C61.8381 30.258 63.7551 28.454 63.7551 26.005C63.7551 23.54 61.8381 21.752 59.4861 21.752ZM68.7991 28.583C67.5111 28.583 66.3991 27.52 66.3991 26.005C66.3991 24.475 67.5111 23.428 68.7991 23.428C70.0881 23.428 71.2001 24.475 71.2001 26.005C71.2001 27.52 70.0881 28.583 68.7991 28.583ZM68.7991 21.752C66.4471 21.752 64.5301 23.54 64.5301 26.005C64.5301 28.454 66.4471 30.258 68.7991 30.258C71.1521 30.258 73.0691 28.454 73.0691 26.005C73.0691 23.54 71.1521 21.752 68.7991 21.752Z" fill="white"/>
        <path fill-rule="evenodd" clip-rule="evenodd" d="M11.1731 32.3901L11.0991 32.3191C10.8081 32.0111 10.6361 31.5331 10.6361 30.9141V31.0591V8.93806V9.09006C10.6361 8.42006 10.8371 7.91406 11.1721 7.61206L23.5621 20.0011L11.1731 32.3901ZM10.6361 8.93706C10.6361 8.88206 10.6381 8.82806 10.6401 8.77606C10.6381 8.82806 10.6361 8.88206 10.6361 8.93706ZM10.6411 8.77306V8.77106V8.77306ZM10.6411 8.76606V8.76506V8.76606Z" fill="url(#paint0_linear)"/>
        <path fill-rule="evenodd" clip-rule="evenodd" d="M27.691 24.279L27.785 24.225L32.678 21.445C33.145 21.18 33.456 20.859 33.611 20.518C33.456 20.859 33.145 21.18 32.678 21.446L27.785 24.226L27.691 24.279ZM27.692 24.132L23.562 20.001L27.692 15.871L32.678 18.704C33.312 19.063 33.667 19.527 33.726 20.001V20.003C33.667 20.475 33.312 20.939 32.678 21.299L27.692 24.132Z" fill="url(#paint1_linear)"/>
        <path fill-rule="evenodd" clip-rule="evenodd" d="M12.0561 32.862C11.7101 32.862 11.4091 32.749 11.1731 32.537V32.536C11.4091 32.749 11.7111 32.862 12.0571 32.862C12.0871 32.862 12.1181 32.861 12.1491 32.859C12.1181 32.861 12.0871 32.862 12.0561 32.862ZM12.0571 32.715C11.7111 32.716 11.4091 32.603 11.1731 32.39L23.5621 20.001L27.6921 24.132L13.1771 32.38C12.7761 32.608 12.3951 32.715 12.0571 32.715ZM11.1701 32.534C11.1481 32.514 11.1261 32.493 11.1051 32.471L11.1701 32.534Z" fill="url(#paint2_linear)"/>
        <path fill-rule="evenodd" clip-rule="evenodd" d="M23.5621 20.001L11.1721 7.61199C11.4081 7.39999 11.7091 7.28699 12.0551 7.28699C12.3941 7.28699 12.7751 7.39499 13.1771 7.62399L27.6921 15.871L23.5621 20.001ZM27.7851 15.778L13.1771 7.47799C12.7751 7.24899 12.3941 7.14099 12.0551 7.14099H12.0511H12.0561C12.3951 7.14099 12.7751 7.24899 13.1771 7.47699L27.7851 15.777V15.778Z" fill="url(#paint3_linear)"/>
        <path d="M12.1491 32.8591C12.4631 32.8411 12.8111 32.7331 13.1771 32.5261L27.6911 24.2791L13.1771 32.5261C12.8111 32.7341 12.4631 32.8421 12.1491 32.8591ZM11.1731 32.5371L11.1701 32.5341C11.1711 32.5351 11.1721 32.5361 11.1731 32.5371ZM11.1051 32.4711L11.0991 32.4651C11.1011 32.4671 11.1031 32.4691 11.1051 32.4711Z" fill="black"/>
        <path fill-rule="evenodd" clip-rule="evenodd" d="M27.691 24.279L27.785 24.225L27.691 24.279Z" fill="url(#paint4_linear)"/>
        <path fill-rule="evenodd" clip-rule="evenodd" d="M12.0571 32.862C11.7111 32.862 11.4091 32.749 11.1731 32.536V32.537C11.1721 32.536 11.1711 32.535 11.1701 32.534L11.1051 32.471C11.1031 32.469 11.1011 32.467 11.0991 32.465L11.1731 32.39C11.4091 32.603 11.7111 32.716 12.0571 32.715C12.3951 32.715 12.7761 32.608 13.1771 32.38L27.6921 24.132L27.7851 24.225L27.6911 24.279L13.1771 32.526C12.8111 32.733 12.4631 32.841 12.1491 32.859C12.1181 32.861 12.0871 32.862 12.0571 32.862Z" fill="url(#paint5_linear)"/>
        <path d="M11.0991 32.465C10.8081 32.157 10.6361 31.679 10.6361 31.06V31.059C10.6361 31.679 10.8081 32.157 11.0991 32.464V32.465Z" fill="black"/>
        <path fill-rule="evenodd" clip-rule="evenodd" d="M11.0991 32.4641C10.8081 32.1571 10.6361 31.6791 10.6361 31.0591V30.9141C10.6361 31.5331 10.8081 32.0111 11.0991 32.3191L11.1731 32.3901L11.0991 32.4641Z" fill="url(#paint6_linear)"/>
        <path fill-rule="evenodd" clip-rule="evenodd" d="M11.0991 32.465V32.464L11.1731 32.39L11.0991 32.465Z" fill="url(#paint7_linear)"/>
        <path d="M33.6111 20.518C33.6881 20.35 33.7261 20.176 33.7261 20.003C33.7261 20.002 33.7271 20.002 33.7271 20.002C33.7271 20.176 33.6881 20.349 33.6111 20.518Z" fill="black"/>
        <path fill-rule="evenodd" clip-rule="evenodd" d="M27.785 24.225L27.692 24.1321L32.678 21.2991C33.312 20.9391 33.667 20.4751 33.726 20.0031C33.726 20.1761 33.688 20.3501 33.611 20.5181C33.456 20.8591 33.145 21.1801 32.678 21.4451L27.785 24.225Z" fill="url(#paint8_linear)"/>
        <path d="M33.727 20.001H33.726C33.726 19.478 33.377 18.955 32.678 18.558L27.785 15.778V15.777L32.678 18.558C33.377 18.955 33.727 19.478 33.727 20.001Z" fill="#404040"/>
        <path fill-rule="evenodd" clip-rule="evenodd" d="M33.726 20.001C33.667 19.527 33.312 19.063 32.678 18.704L27.692 15.871L27.785 15.778L32.678 18.558C33.377 18.955 33.726 19.478 33.726 20.001Z" fill="url(#paint9_linear)"/>
        <path d="M10.6361 8.93799V8.93699V8.93799ZM10.6401 8.77599C10.6411 8.77499 10.6411 8.77399 10.6411 8.77299C10.6411 8.77399 10.6411 8.77499 10.6401 8.77599ZM10.6411 8.77099V8.76599V8.77099ZM10.6411 8.76499C10.6991 7.73799 11.2571 7.14499 12.0471 7.14099C11.7051 7.14299 11.4071 7.25499 11.1731 7.46599L11.1701 7.46899C11.1461 7.49099 11.1221 7.51399 11.0991 7.53799C10.8371 7.81599 10.6711 8.23199 10.6411 8.76499Z" fill="#404040"/>
        <path fill-rule="evenodd" clip-rule="evenodd" d="M10.6361 9.08994V8.93694C10.6361 8.88194 10.6381 8.82794 10.6401 8.77594C10.6411 8.77494 10.6411 8.77394 10.6411 8.77294V8.76494C10.6711 8.23194 10.8371 7.81594 11.0991 7.53794L11.1721 7.61194C10.8371 7.91394 10.6361 8.41994 10.6361 9.08994ZM11.1701 7.46894L11.1731 7.46594C11.1721 7.46694 11.1711 7.46794 11.1701 7.46894Z" fill="url(#paint10_linear)"/>
        <path fill-rule="evenodd" clip-rule="evenodd" d="M27.6921 15.871L13.1771 7.62399C12.7751 7.39499 12.3941 7.28699 12.0551 7.28699C11.7091 7.28699 11.4081 7.39999 11.1721 7.61199L11.0991 7.53799C11.1221 7.51399 11.1461 7.49099 11.1701 7.46899C11.1711 7.46799 11.1721 7.46699 11.1731 7.46599C11.4071 7.25499 11.7051 7.14299 12.0471 7.14099H12.0551C12.3941 7.14099 12.7751 7.24899 13.1771 7.47799L27.7851 15.778L27.6921 15.871Z" fill="url(#paint11_linear)"/>
    </g>
    <defs>
        <linearGradient id="paint0_linear" x1="22.4639" y1="8.70976" x2="5.68141" y2="-8.07274" gradientUnits="userSpaceOnUse">
            <stop stop-color="#00A0FF"/>
            <stop offset="1" stop-color="#00E2FF"/>
        </linearGradient>
        <linearGradient id="paint1_linear" x1="34.4984" y1="20.0014" x2="10.3014" y2="20.0014" gradientUnits="userSpaceOnUse">
            <stop stop-color="#FFDF00"/>
            <stop offset="1" stop-color="#FF9C00"/>
        </linearGradient>
        <linearGradient id="paint2_linear" x1="25.4911" y1="22.2961" x2="2.7328" y2="-0.462223" gradientUnits="userSpaceOnUse">
            <stop stop-color="#FF3A44"/>
            <stop offset="1" stop-color="#C31162"/>
        </linearGradient>
        <linearGradient id="paint3_linear" x1="7.96142" y1="0.176192" x2="18.1239" y2="-9.98631" gradientUnits="userSpaceOnUse">
            <stop stop-color="#31A070"/>
            <stop offset="1" stop-color="#00EF75"/>
        </linearGradient>
        <linearGradient id="paint4_linear" x1="34.4983" y1="20.0013" x2="10.3018" y2="20.0013" gradientUnits="userSpaceOnUse">
            <stop stop-color="#CCB300"/>
            <stop offset="1" stop-color="#CC7C00"/>
        </linearGradient>
        <linearGradient id="paint5_linear" x1="25.4911" y1="22.2961" x2="2.73282" y2="-0.46224" gradientUnits="userSpaceOnUse">
            <stop stop-color="#CC2D36"/>
            <stop offset="1" stop-color="#9C0E4D"/>
        </linearGradient>
        <linearGradient id="paint6_linear" x1="22.4639" y1="8.70977" x2="5.68143" y2="-8.07275" gradientUnits="userSpaceOnUse">
            <stop stop-color="#008CDF"/>
            <stop offset="1" stop-color="#00C6DF"/>
        </linearGradient>
        <linearGradient id="paint7_linear" x1="25.4914" y1="22.296" x2="2.73285" y2="-0.462692" gradientUnits="userSpaceOnUse">
            <stop stop-color="#DF333B"/>
            <stop offset="1" stop-color="#AA0E56"/>
        </linearGradient>
        <linearGradient id="paint8_linear" x1="34.4984" y1="20.0015" x2="10.3014" y2="20.0015" gradientUnits="userSpaceOnUse">
            <stop stop-color="#DFC400"/>
            <stop offset="1" stop-color="#DF8900"/>
        </linearGradient>
        <linearGradient id="paint9_linear" x1="34.4984" y1="20.0014" x2="10.3014" y2="20.0014" gradientUnits="userSpaceOnUse">
            <stop stop-color="#FFE83F"/>
            <stop offset="1" stop-color="#FFB53F"/>
        </linearGradient>
        <linearGradient id="paint10_linear" x1="22.4639" y1="8.70964" x2="5.68142" y2="-8.07288" gradientUnits="userSpaceOnUse">
            <stop stop-color="#3FB8FF"/>
            <stop offset="1" stop-color="#3FE9FF"/>
        </linearGradient>
        <linearGradient id="paint11_linear" x1="7.96142" y1="0.176192" x2="18.1239" y2="-9.98631" gradientUnits="userSpaceOnUse">
            <stop stop-color="#64B895"/>
            <stop offset="1" stop-color="#3FF497"/>
        </linearGradient>
        <clipPath id="clip0">
            <rect width="135" height="40" fill="white" transform="translate(0.664062)"/>
        </clipPath>
    </defs>
</svg>
