<svg width="16" height="16" fill="none" xmlns="http://www.w3.org/2000/svg"><path fill-rule="evenodd" clip-rule="evenodd" d="M12.834 4.58l.873-.873a1 1 0 00-1.414-1.414l-1.245 1.244C10.208 3.207 9.202 3 8 3 3.358 3 1.637 6.091 1.113 7.412a1.59 1.59 0 000 1.176 7.074 7.074 0 002.053 2.832l-.873.873a1 1 0 101.414 1.414l1.245-1.244 1.755-1.755 4-4.001 2.127-2.126zm-3.54.712a3 3 0 00-4.001 4.001l4-4z" fill="currentColor"/><path d="M8 11c-.056 0-.112-.002-.167-.005l-1.798 1.798C6.624 12.925 7.276 13 8 13c4.642 0 6.364-3.091 6.887-4.412a1.59 1.59 0 000-1.175 7.19 7.19 0 00-1.33-2.142l-2.562 2.562A3 3 0 018 11z" fill="currentColor"/></svg>