<svg width="16" height="16" fill="none" xmlns="http://www.w3.org/2000/svg"><path fill-rule="evenodd" clip-rule="evenodd" d="M3.96 7.722a1 1 0 00-1.924.546l.001.002.001.003.002.007.005.016a2.202 2.202 0 00.063.186c.043.112.106.264.196.44.18.353.47.815.917 1.275C4.137 11.14 5.645 12 8 12s3.863-.86 4.78-1.803a5.27 5.27 0 00.916-1.274 4.378 4.378 0 00.26-.627l.004-.016.002-.007V8.27l.001-.001v-.001a1 1 0 00-1.924-.546v.003l-.001.003v.002l-.001.001.002-.009v.003a2.381 2.381 0 01-.125.29c-.107.21-.287.498-.569.788C10.804 9.36 9.813 10 8 10c-1.812 0-2.804-.64-3.346-1.197a3.27 3.27 0 01-.568-.788 2.4 2.4 0 01-.124-.29l-.001-.003z" fill="gray"/><path fill-rule="evenodd" clip-rule="evenodd" d="M8 10a1 1 0 011 1v1a1 1 0 11-2 0v-1a1 1 0 011-1zM10.626 9.38a1 1 0 011.393.246l.574.82a1 1 0 11-1.639 1.147l-.573-.82a1 1 0 01.245-1.392zM5.374 9.38a1 1 0 00-1.393.246l-.574.82a1 1 0 101.639 1.147l.573-.82a1 1 0 00-.245-1.392z" fill="gray"/></svg>