<svg width="16" height="16" fill="none" xmlns="http://www.w3.org/2000/svg"><path fill-rule="evenodd" clip-rule="evenodd" d="M6.895 9.104c.26.26.683.26.943 0l4.795-4.795v2.714a.667.667 0 101.334 0V2.7a.667.667 0 00-.667-.667H8.976a.667.667 0 000 1.334h2.714L6.895 8.16a.667.667 0 000 .943z" fill="currentColor"/><path fill-rule="evenodd" clip-rule="evenodd" d="M4 4.666a.667.667 0 00-.667.667V12c0 .368.299.666.667.666h6.667a.667.667 0 00.666-.666V9.833a.667.667 0 011.334 0V12a2 2 0 01-2 2H4a2 2 0 01-2-2V5.333a2 2 0 012-2h2.167a.667.667 0 010 1.333H4z" fill="currentColor"/></svg>