<svg width="16" height="16" viewBox="0 0 16 16" fill="none" xmlns="http://www.w3.org/2000/svg">
    <path fill-rule="evenodd" clip-rule="evenodd" d="M8 3.5C7.44772 3.5 7 3.94772 7 4.5C7 5.05228 7.44772 5.5 8 5.5C8.55228 5.5 9 5.05228 9 4.5C9 3.94772 8.55228 3.5 8 3.5ZM5 4.5C5 2.84315 6.34315 1.5 8 1.5C9.65685 1.5 11 2.84315 11 4.5C11 6.15685 9.65685 7.5 8 7.5C6.34315 7.5 5 6.15685 5 4.5Z" fill="currentColor"/>
    <path fill-rule="evenodd" clip-rule="evenodd" d="M2.94858 9.99128C4.0088 9.081 5.64318 8.5 8 8.5C10.3568 8.5 11.9912 9.081 13.0514 9.99128C14.1154 10.9048 14.5 12.0658 14.5 13C14.5 13.5523 14.0523 14 13.5 14C12.9477 14 12.5 13.5523 12.5 13C12.5 12.6008 12.3346 12.0119 11.7486 11.5087C11.1588 11.0023 10.0432 10.5 8 10.5C5.95682 10.5 4.8412 11.0023 4.25142 11.5087C3.66537 12.0119 3.5 12.6008 3.5 13C3.5 13.5523 3.05228 14 2.5 14C1.94772 14 1.5 13.5523 1.5 13C1.5 12.0658 1.88463 10.9048 2.94858 9.99128Z" fill="currentColor"/>
</svg>
