<svg width="48" height="48" fill="none" xmlns="http://www.w3.org/2000/svg"><rect width="48" height="48" rx="24" fill="url(#paint0_linear)"/><path d="M21.084 31.313h4.281l-3.563-5.582c2.032-.966 3.133-2.85 3.133-5.46 0-3.745-2.488-5.871-6.864-5.871H10.8v16.913h3.779V26.48h3.851l2.654 4.833zM14.58 23.29v-5.726h3.491c2.081 0 3.277.942 3.277 2.827 0 1.933-1.196 2.9-3.277 2.9H14.58zM33.549 18.193c-1.746 0-3.157.725-4.066 2.03v-1.909H25.8V36h3.683v-6.572c.933 1.305 2.344 2.03 4.138 2.03 3.611 0 5.979-2.634 5.979-6.572 0-4.01-2.44-6.693-6.051-6.693zm-.861 10.172c-1.89 0-3.205-1.45-3.205-3.6 0-2.102 1.315-3.576 3.205-3.576 1.89 0 3.18 1.498 3.18 3.576 0 2.126-1.29 3.6-3.18 3.6z" fill="#fff"/><defs><linearGradient id="paint0_linear" x1="48" y1="0" x2="0" y2="48" gradientUnits="userSpaceOnUse"><stop stop-color="#77D9A8"/><stop offset="1" stop-color="#62B37D"/></linearGradient></defs></svg>