<svg width="32" height="32" fill="none" xmlns="http://www.w3.org/2000/svg"><path d="M31 16c0 8.284-6.716 15-15 15-8.284 0-15-6.716-15-15C1 7.716 7.716 1 16 1c8.284 0 15 6.716 15 15z" stroke="url(#paint0_linear)" stroke-width="2"/><path fill-rule="evenodd" clip-rule="evenodd" d="M16 9.441c2.136 0 2.39.009 3.233.047.78.036 1.203.166 1.485.275.373.146.64.319.92.599.28.28.453.546.598.92.11.282.24.705.276 1.485.038.844.046 1.097.046 3.233s-.008 2.39-.046 3.233c-.036.78-.166 1.203-.276 1.485-.145.373-.318.64-.598.92-.28.28-.547.453-.92.598-.282.11-.705.24-1.485.276-.844.038-1.097.046-3.233.046s-2.39-.008-3.233-.046c-.78-.036-1.203-.166-1.485-.276a2.479 2.479 0 01-.92-.598 2.479 2.479 0 01-.598-.92c-.11-.282-.24-.705-.276-1.485-.038-.844-.047-1.097-.047-3.233s.009-2.39.047-3.233c.036-.78.166-1.203.276-1.485.145-.374.318-.64.598-.92.28-.28.546-.453.92-.599.282-.109.705-.24 1.485-.275.844-.038 1.097-.047 3.233-.047zM16 8c-2.173 0-2.445.01-3.298.048-.852.039-1.433.174-1.942.372a3.921 3.921 0 00-1.417.923c-.445.444-.719.89-.923 1.417-.198.509-.333 1.09-.372 1.942C8.01 13.555 8 13.827 8 16s.01 2.445.048 3.298c.039.852.174 1.433.372 1.942.204.526.478.973.923 1.417.444.445.89.719 1.417.923.509.198 1.09.333 1.942.372.853.039 1.125.048 3.298.048s2.445-.01 3.298-.048c.852-.039 1.433-.174 1.942-.372a3.922 3.922 0 001.417-.923c.445-.445.718-.89.923-1.417.198-.509.333-1.09.372-1.942.039-.853.048-1.125.048-3.298s-.01-2.445-.048-3.298c-.039-.852-.174-1.433-.372-1.942a3.922 3.922 0 00-.923-1.417 3.922 3.922 0 00-1.417-.923c-.509-.198-1.09-.333-1.942-.372C18.445 8.01 18.173 8 16 8zm.016 3.905a4.111 4.111 0 100 8.222 4.111 4.111 0 000-8.222zm0 6.78a2.669 2.669 0 110-5.338 2.669 2.669 0 010 5.338zm5.19-6.97a.952.952 0 11-1.904 0 .952.952 0 011.904 0z" fill="url(#paint1_linear)"/><defs><linearGradient id="paint0_linear" x1="-17.639" y1="14.05" x2="12.844" y2="45.26" gradientUnits="userSpaceOnUse"><stop stop-color="#FFCC5C"/><stop offset="1" stop-color="#FF9E65"/></linearGradient><linearGradient id="paint1_linear" x1="-.82" y1="15.025" x2="14.422" y2="30.63" gradientUnits="userSpaceOnUse"><stop stop-color="#FFCC5C"/><stop offset="1" stop-color="#FF9E65"/></linearGradient></defs></svg>