<svg width="32" height="32" fill="none" xmlns="http://www.w3.org/2000/svg"><path d="M31 16c0 8.284-6.716 15-15 15-8.284 0-15-6.716-15-15C1 7.716 7.716 1 16 1c8.284 0 15 6.716 15 15z" stroke="url(#paint0_linear)" stroke-width="2"/><path d="M22.954 11.092L20.54 21.276c-.182.718-.657.897-1.332.559l-3.68-2.425-1.774 1.527c-.197.176-.361.323-.74.323l.264-3.351 6.819-5.51c.296-.236-.064-.367-.46-.131l-8.43 4.747-3.629-1.016c-.79-.22-.804-.706.164-1.045l14.194-4.89c.658-.22 1.233.13 1.018 1.028z" fill="url(#paint1_linear)"/><defs><linearGradient id="paint0_linear" x1="-17.639" y1="14.05" x2="12.844" y2="45.26" gradientUnits="userSpaceOnUse"><stop stop-color="#FFCC5C"/><stop offset="1" stop-color="#FF9E65"/></linearGradient><linearGradient id="paint1_linear" x1="-1.82" y1="15.269" x2="9.082" y2="30.151" gradientUnits="userSpaceOnUse"><stop stop-color="#FFCC5C"/><stop offset="1" stop-color="#FF9E65"/></linearGradient></defs></svg>