<svg width="31" height="32" fill="none" xmlns="http://www.w3.org/2000/svg"><path d="M30 16c0 8.314-6.522 15-14.5 15S1 24.314 1 16 7.522 1 15.5 1 30 7.686 30 16z" stroke="url(#paint0_linear)" stroke-width="2"/><path fill-rule="evenodd" clip-rule="evenodd" d="M22.115 12.055a3.283 3.283 0 001.443-1.815 6.57 6.57 0 01-2.085.796 3.281 3.281 0 00-5.677 2.245c0 .258.027.508.083.748A9.32 9.32 0 019.114 10.6a3.283 3.283 0 001.016 4.383 3.294 3.294 0 01-1.488-.41v.04c0 1.59 1.131 2.917 2.635 3.217a3.211 3.211 0 01-.866.116 3.25 3.25 0 01-.617-.058 3.283 3.283 0 003.066 2.278 6.587 6.587 0 01-4.077 1.405c-.265 0-.527-.014-.783-.045A9.298 9.298 0 0013.032 23c6.038 0 9.339-5 9.339-9.337a9.16 9.16 0 00-.009-.425 6.65 6.65 0 001.638-1.7 6.557 6.557 0 01-1.885.517z" fill="url(#paint1_linear)"/><defs><linearGradient id="paint0_linear" x1="-17.088" y1="14.05" x2="13.403" y2="44.292" gradientUnits="userSpaceOnUse"><stop stop-color="#FFCC5C"/><stop offset="1" stop-color="#FF9E65"/></linearGradient><linearGradient id="paint1_linear" x1="-.82" y1="15.708" x2="11.244" y2="30.909" gradientUnits="userSpaceOnUse"><stop stop-color="#FFCC5C"/><stop offset="1" stop-color="#FF9E65"/></linearGradient></defs></svg>