<svg width="32" height="32" fill="none" xmlns="http://www.w3.org/2000/svg"><path d="M31 16c0 8.284-6.716 15-15 15-8.284 0-15-6.716-15-15C1 7.716 7.716 1 16 1c8.284 0 15 6.716 15 15z" stroke="url(#paint0_linear)" stroke-width="2"/><path fill-rule="evenodd" clip-rule="evenodd" d="M24 13.454S24 11 21.415 11h-9.83S9 11 9 13.454v5.092S9 21 11.584 21h9.831S24 21 24 18.546v-5.092zM14 19v-6l6 3-6 3z" fill="url(#paint1_linear)"/><defs><linearGradient id="paint0_linear" x1="-17.639" y1="14.05" x2="12.844" y2="45.26" gradientUnits="userSpaceOnUse"><stop stop-color="#FFCC5C"/><stop offset="1" stop-color="#FF9E65"/></linearGradient><linearGradient id="paint1_linear" x1=".732" y1="15.39" x2="9.446" y2="28.774" gradientUnits="userSpaceOnUse"><stop stop-color="#FFCC5C"/><stop offset="1" stop-color="#FF9E65"/></linearGradient></defs></svg>