<svg width="40" height="40" viewBox="0 0 40 40" fill="none" xmlns="http://www.w3.org/2000/svg">
<path d="M18.246 23.0912C18.246 22.1405 18.4551 21.3609 18.8734 20.7525C19.2917 20.125 19.9002 19.4405 20.6988 18.699C21.2501 18.1856 21.6589 17.7578 21.9251 17.4156C22.1913 17.0543 22.3244 16.674 22.3244 16.2748C22.3244 15.7234 22.0868 15.286 21.6114 14.9628C21.1551 14.6206 20.5562 14.4494 19.8146 14.4494C19.0541 14.4494 18.3601 14.6301 17.7326 14.9913C17.1242 15.3526 16.6298 15.8565 16.2496 16.5029L12 14.2213C12.7796 12.8903 13.8824 11.8541 15.3084 11.1125C16.7344 10.371 18.4551 10.0002 20.4706 10.0002C22.7332 10.0002 24.549 10.4756 25.918 11.4263C27.306 12.3579 28 13.6699 28 15.3621C28 16.1417 27.8669 16.8357 27.6007 17.4441C27.3345 18.0335 27.0113 18.5374 26.631 18.9557C26.2698 19.355 25.7944 19.8113 25.205 20.3247C24.5585 20.8761 24.0832 21.3514 23.779 21.7507C23.4747 22.131 23.3226 22.5778 23.3226 23.0912H18.246ZM20.7843 30.6206C19.8526 30.6206 19.0826 30.3354 18.4742 29.765C17.8657 29.1755 17.5615 28.4625 17.5615 27.6259C17.5615 26.7703 17.8562 26.0668 18.4456 25.5154C19.0541 24.964 19.8336 24.6883 20.7843 24.6883C21.735 24.6883 22.5146 24.964 23.123 25.5154C23.7314 26.0668 24.0357 26.7703 24.0357 27.6259C24.0357 28.4625 23.7314 29.1755 23.123 29.765C22.5146 30.3354 21.735 30.6206 20.7843 30.6206Z" fill="white"/>
</svg>
